<?xml version="1.0" encoding="UTF-8" standalone="no"?>
<svg width="310px" height="174px" viewBox="0 0 310 174" version="1.1" xmlns="http://www.w3.org/2000/svg" xmlns:xlink="http://www.w3.org/1999/xlink">
    <!-- Generator: Sketch 50.2 (55047) - http://www.bohemiancoding.com/sketch -->
    <title>Group</title>
    <desc>Created with Sketch.</desc>
    <defs>
        <polygon id="path-1" points="0 0.0744 133.102654 0.0744 133.102654 151.4524 0 151.4524"></polygon>
        <polygon id="path-3" points="0.9474 0.6386 104.125 0.6386 104.125 35.1536 0.9474 35.1536"></polygon>
    </defs>
    <g id="Page-1" stroke="none" stroke-width="1" fill="none" fill-rule="evenodd">
        <g id="Atlas" transform="translate(-279.000000, -1030.000000)">
            <g id="Group" transform="translate(279.000000, 1030.000000)">
                <path d="M247.8665,97.2963 C247.8665,138.3983 214.5475,171.7173 173.4455,171.7173 C132.3445,171.7173 99.0245,138.3983 99.0245,97.2963 C99.0245,56.1943 132.3445,22.8753 173.4455,22.8753 C214.5475,22.8753 247.8665,56.1943 247.8665,97.2963 Z" id="Stroke-1" stroke="#0B567F" stroke-width="4" stroke-linecap="round" stroke-linejoin="round" stroke-dasharray="0,9"></path>
                <path d="M107.9515,165.1693 C107.5605,165.1693 107.1645,165.1453 106.7745,165.0963 L9.3005,152.9913 C6.7915,152.6803 4.5535,151.4103 2.9995,149.4163 C1.4465,147.4213 0.7625,144.9413 1.0745,142.4323 L15.7695,24.0913 C16.3575,19.3593 20.3905,15.7913 25.1525,15.7913 C25.5425,15.7913 25.9385,15.8153 26.3285,15.8643 L123.8035,27.9683 C128.9825,28.6123 132.6735,33.3493 132.0295,38.5283 L117.3335,156.8693 C116.7465,161.6013 112.7135,165.1693 107.9515,165.1693" id="Fill-3" fill="#2BB3E2"></path>
                <g id="Group-7" transform="translate(0.000000, 14.717000)">
                    <mask id="mask-2" fill="white">
                        <use xlink:href="#path-1"></use>
                    </mask>
                    <g id="Clip-6"></g>
                    <path d="M25.1522,0.0744 C19.8872,0.0744 15.4272,4.0194 14.7772,9.2504 L0.0812,127.5924 C-0.2638,130.3664 0.4932,133.1084 2.2112,135.3134 C3.9292,137.5184 6.4032,138.9234 9.1772,139.2674 L106.6512,151.3714 C107.0822,151.4254 107.5192,151.4524 107.9512,151.4524 C113.2162,151.4524 117.6762,147.5074 118.3262,142.2764 L133.0222,23.9344 C133.7332,18.2084 129.6522,12.9704 123.9262,12.2594 L26.4522,0.1554 C26.0212,0.1014 25.5842,0.0744 25.1522,0.0744 M25.1522,2.0744 C25.5002,2.0744 25.8522,2.0954 26.2062,2.1394 L123.6802,14.2444 C128.3192,14.8204 131.6132,19.0484 131.0372,23.6884 L116.3412,142.0294 C115.8092,146.3154 112.1612,149.4524 107.9512,149.4524 C107.6032,149.4524 107.2522,149.4304 106.8982,149.3864 L9.4232,137.2824 C4.7832,136.7064 1.4902,132.4784 2.0662,127.8384 L16.7622,9.4974 C17.2942,5.2114 20.9422,2.0744 25.1522,2.0744" id="Fill-5" fill="#0B567F" mask="url(#mask-2)"></path>
                </g>
                <path d="M49.8206,155.1552 C44.9626,155.1552 40.8246,151.3602 40.4006,146.5162 L30.0226,27.7142 C29.7996,25.1962 30.5726,22.7422 32.1976,20.8052 C33.8236,18.8682 36.1056,17.6802 38.6256,17.4602 L136.4726,8.9102 C136.7526,8.8852 137.0306,8.8732 137.3066,8.8732 C142.2456,8.8732 146.2956,12.5892 146.7256,17.5162 L157.1076,136.3192 C157.3276,138.8362 156.5536,141.2902 154.9276,143.2262 C153.3016,145.1642 151.0196,146.3512 148.5006,146.5712 L50.6536,155.1182 C50.3746,155.1432 50.0966,155.1552 49.8206,155.1552" id="Fill-8" fill="#F2F2F2"></path>
                <path d="M137.306,7.8734 C137.001,7.8734 136.691,7.8874 136.386,7.9134 L40.441,16.2974 L38.538,16.4644 C35.753,16.7074 33.229,18.0204 31.432,20.1624 C29.635,22.3044 28.781,25.0184 29.026,27.8024 L39.405,146.6024 C39.881,152.0484 44.359,156.1554 49.821,156.1554 C50.126,156.1554 50.436,156.1414 50.741,156.1154 L148.588,147.5674 C151.373,147.3244 153.896,146.0114 155.694,143.8694 C157.491,141.7284 158.347,139.0164 158.104,136.2314 L157.868,133.5354 L147.722,17.4294 C147.246,11.9814 142.768,7.8734 137.306,7.8734 M137.306,9.8734 C141.649,9.8734 145.345,13.1954 145.729,17.6034 L155.876,133.7094 L156.111,136.4054 C156.518,141.0604 153.072,145.1684 148.414,145.5754 L50.567,154.1224 C50.317,154.1444 50.068,154.1554 49.821,154.1554 C45.478,154.1554 41.783,150.8334 41.397,146.4284 L31.018,27.6264 C30.608,22.9704 34.054,18.8634 38.712,18.4564 L40.616,18.2904 L136.56,9.9064 C136.81,9.8844 137.059,9.8734 137.306,9.8734" id="Fill-10" fill="#0B567F"></path>
                <path d="M89.1751,54.8803 C93.4571,56.0753 95.5291,56.8043 95.8331,60.2883 C96.0951,63.2843 94.6581,64.8173 91.3131,65.1093 C88.2011,65.3803 86.9531,64.2513 85.8511,63.2533 C85.1131,62.5843 84.2761,61.8263 83.0081,61.9373 C81.0721,62.1063 79.7471,64.2593 79.9001,66.0003 C80.1491,68.8543 83.9381,71.4223 88.5581,72.0023 L88.6651,73.2163 C88.8421,75.2333 90.6251,76.7303 92.6411,76.5543 C94.6581,76.3773 96.1551,74.5933 95.9791,72.5773 L95.8651,71.2813 C100.8991,69.5393 103.4731,65.2553 102.9601,59.3843 C102.2171,50.8883 95.8921,49.1593 92.1121,48.1273 L91.6701,48.0063 C87.9121,46.9863 86.2421,46.4363 86.0331,44.0553 C85.9181,42.7313 86.2771,41.8643 87.1971,41.2453 C88.1621,40.5953 89.5021,40.3593 90.4571,40.2763 C92.7651,40.0743 94.0771,40.6113 95.0341,41.0023 C95.7161,41.2803 96.3591,41.5443 97.1351,41.4763 C99.3171,41.2853 100.3301,38.9563 100.1961,37.4183 C99.9091,34.1453 95.1511,33.4753 92.5511,33.3563 L92.4451,32.1303 C92.2681,30.1143 90.4851,28.6173 88.4691,28.7933 C86.4521,28.9693 84.9551,30.7533 85.1321,32.7693 L85.2791,34.4523 C80.7241,36.2423 78.4691,39.9403 78.9071,44.9593 C79.5381,52.1893 84.8821,53.6813 89.1751,54.8803" id="Fill-12" fill="#F9912B"></path>
                <path d="M89.1751,54.8803 C93.4571,56.0753 95.5291,56.8043 95.8331,60.2883 C96.0951,63.2843 94.6581,64.8173 91.3131,65.1093 C88.2011,65.3803 86.9531,64.2513 85.8511,63.2533 C85.1131,62.5843 84.2761,61.8263 83.0081,61.9373 C81.0721,62.1063 79.7471,64.2593 79.9001,66.0003 C80.1491,68.8543 83.9381,71.4223 88.5581,72.0023 L88.6651,73.2163 C88.8421,75.2333 90.6251,76.7303 92.6411,76.5543 C94.6581,76.3773 96.1551,74.5933 95.9791,72.5773 L95.8651,71.2813 C100.8991,69.5393 103.4731,65.2553 102.9601,59.3843 C102.2171,50.8883 95.8921,49.1593 92.1121,48.1273 L91.6701,48.0063 C87.9121,46.9863 86.2421,46.4363 86.0331,44.0553 C85.9181,42.7313 86.2771,41.8643 87.1971,41.2453 C88.1621,40.5953 89.5021,40.3593 90.4571,40.2763 C92.7651,40.0743 94.0771,40.6113 95.0341,41.0023 C95.7161,41.2803 96.3591,41.5443 97.1351,41.4763 C99.3171,41.2853 100.3301,38.9563 100.1961,37.4183 C99.9091,34.1453 95.1511,33.4753 92.5511,33.3563 L92.4451,32.1303 C92.2681,30.1143 90.4851,28.6173 88.4691,28.7933 C86.4521,28.9693 84.9551,30.7533 85.1321,32.7693 L85.2791,34.4523 C80.7241,36.2423 78.4691,39.9403 78.9071,44.9593 C79.5381,52.1893 84.8821,53.6813 89.1751,54.8803 Z" id="Stroke-14" stroke="#0B567F" stroke-width="2" stroke-linecap="round"></path>
                <path d="M56.6766,92.2972 C56.4356,92.2972 56.1936,92.2722 55.9576,92.2232 C54.4346,91.9022 53.3226,90.6452 53.1866,89.0962 C53.0186,87.1692 54.4486,85.4652 56.3746,85.2972 L130.7596,78.7972 C130.8626,78.7882 130.9656,78.7842 131.0676,78.7842 C132.8676,78.7842 134.4006,80.1902 134.5576,81.9852 C134.7256,83.9122 133.2956,85.6152 131.3686,85.7842 L56.9846,92.2832 C56.8816,92.2932 56.7786,92.2972 56.6766,92.2972" id="Fill-16" fill="#B6C4CE"></path>
                <path d="M131.0667,77.7841 C130.9357,77.7841 130.8047,77.7891 130.6717,77.8011 L56.2877,84.3011 C53.8117,84.5181 51.9737,86.7071 52.1907,89.1821 C52.3647,91.1751 53.7957,92.7891 55.7507,93.2011 C56.0537,93.2651 56.3657,93.2971 56.6767,93.2971 C56.8077,93.2971 56.9387,93.2911 57.0707,93.2801 L131.4567,86.7811 C133.9317,86.5641 135.7697,84.3741 135.5537,81.8991 C135.3487,79.5531 133.4197,77.7841 131.0667,77.7841 M131.0667,79.7841 C132.3517,79.7841 133.4467,80.7671 133.5617,82.0731 C133.6817,83.4511 132.6617,84.6671 131.2817,84.7881 L56.8977,91.2871 C56.8237,91.2941 56.7497,91.2971 56.6767,91.2971 C56.5017,91.2971 56.3287,91.2791 56.1627,91.2441 C55.1097,91.0231 54.2807,90.1351 54.1827,89.0091 C54.0627,87.6301 55.0827,86.4141 56.4617,86.2931 L130.8457,79.7931 C130.9207,79.7871 130.9937,79.7841 131.0667,79.7841" id="Fill-18" fill="#0B567F"></path>
                <path d="M57.9281,106.6156 C57.6851,106.6156 57.4431,106.5906 57.2071,106.5406 C55.6861,106.2206 54.5731,104.9646 54.4371,103.4136 C54.2691,101.4876 55.6991,99.7836 57.6251,99.6156 L132.0101,93.1156 C132.1141,93.1066 132.2151,93.1016 132.3171,93.1016 C134.1171,93.1016 135.6521,94.5086 135.8081,96.3036 C135.9761,98.2296 134.5461,99.9336 132.6201,100.1016 L58.2361,106.6016 C58.1331,106.6116 58.0301,106.6156 57.9281,106.6156" id="Fill-20" fill="#B6C4CE"></path>
                <path d="M132.3172,92.1024 C132.1872,92.1024 132.0562,92.1074 131.9232,92.1194 L57.5382,98.6194 C55.0632,98.8354 53.2252,101.0254 53.4412,103.5004 C53.6152,105.4924 55.0462,107.1074 57.0012,107.5194 C57.3062,107.5824 57.6172,107.6154 57.9282,107.6154 C58.0582,107.6154 58.1902,107.6094 58.3222,107.5984 L132.7072,101.0984 C135.1832,100.8814 137.0212,98.6914 136.8042,96.2164 C136.5992,93.8714 134.6702,92.1024 132.3172,92.1024 M132.3172,94.1024 C133.6022,94.1024 134.6982,95.0854 134.8122,96.3904 C134.9332,97.7694 133.9122,98.9854 132.5332,99.1054 L58.1492,105.6054 C58.0742,105.6124 58.0012,105.6154 57.9282,105.6154 C57.7522,105.6154 57.5802,105.5974 57.4132,105.5614 C56.3612,105.3404 55.5322,104.4534 55.4342,103.3264 C55.3132,101.9474 56.3332,100.7314 57.7122,100.6114 L132.0972,94.1114 C132.1712,94.1054 132.2442,94.1024 132.3172,94.1024" id="Fill-22" fill="#0B567F"></path>
                <path d="M59.181,120.934 C58.939,120.934 58.697,120.909 58.46,120.859 C56.938,120.539 55.825,119.283 55.689,117.732 C55.607,116.799 55.894,115.89 56.496,115.173 C57.098,114.455 57.944,114.015 58.877,113.934 L133.261,107.434 C133.364,107.425 133.467,107.42 133.569,107.42 C135.369,107.42 136.903,108.827 137.059,110.622 C137.228,112.547 135.798,114.251 133.872,114.42 L59.487,120.92 C59.384,120.93 59.282,120.934 59.181,120.934" id="Fill-24" fill="#B6C4CE"></path>
                <path d="M133.5687,106.4203 C133.4377,106.4203 133.3067,106.4253 133.1737,106.4373 L58.7897,112.9373 C56.3147,113.1533 54.4767,115.3433 54.6927,117.8183 C54.8667,119.8113 56.2977,121.4263 58.2527,121.8373 C58.5557,121.9013 58.8677,121.9333 59.1787,121.9333 C59.3097,121.9333 59.4417,121.9283 59.5737,121.9163 L133.9587,115.4163 C136.4347,115.1993 138.2727,113.0093 138.0557,110.5343 C137.8507,108.1893 135.9217,106.4203 133.5687,106.4203 M133.5687,108.4203 C134.8537,108.4203 135.9487,109.4033 136.0637,110.7083 C136.1837,112.0873 135.1637,113.3033 133.7847,113.4243 L59.3997,119.9243 C59.3257,119.9303 59.2527,119.9333 59.1787,119.9333 C59.0037,119.9333 58.8317,119.9153 58.6647,119.8803 C57.6127,119.6583 56.7837,118.7723 56.6847,117.6453 C56.5647,116.2663 57.5847,115.0503 58.9637,114.9293 L133.3477,108.4303 C133.4227,108.4233 133.4957,108.4203 133.5687,108.4203" id="Fill-26" fill="#0B567F"></path>
                <path d="M60.43,135.2518 C60.189,135.2518 59.947,135.2268 59.711,135.1778 C58.188,134.8568 57.076,133.5998 56.94,132.0508 C56.858,131.1178 57.145,130.2088 57.747,129.4908 C58.349,128.7728 59.195,128.3338 60.128,128.2518 L134.513,121.7518 C134.616,121.7428 134.718,121.7388 134.82,121.7388 C136.65,121.7388 138.151,123.1148 138.311,124.9388 C138.479,126.8658 137.049,128.5698 135.123,128.7388 L60.738,135.2378 C60.634,135.2478 60.532,135.2518 60.43,135.2518" id="Fill-28" fill="#B6C4CE"></path>
                <path d="M134.8192,120.7387 C134.6892,120.7387 134.5582,120.7437 134.4262,120.7557 L60.0402,127.2557 C57.5652,127.4717 55.7272,129.6617 55.9442,132.1367 C56.1172,134.1297 57.5482,135.7437 59.5042,136.1557 C59.8072,136.2187 60.1192,136.2517 60.4302,136.2517 C60.5612,136.2517 60.6932,136.2457 60.8242,136.2347 L135.2092,129.7347 C137.6852,129.5177 139.5232,127.3277 139.3072,124.8527 C139.1022,122.5077 137.1732,120.7387 134.8192,120.7387 M134.8192,122.7387 C136.1052,122.7387 137.2002,123.7217 137.3152,125.0267 C137.4352,126.4057 136.4152,127.6217 135.0352,127.7427 L60.6512,134.2417 C60.5772,134.2487 60.5032,134.2517 60.4302,134.2517 C60.2552,134.2517 60.0822,134.2337 59.9152,134.1987 C58.8632,133.9767 58.0342,133.0897 57.9362,131.9637 C57.8162,130.5847 58.8362,129.3687 60.2152,129.2477 L134.5992,122.7487 C134.6732,122.7417 134.7462,122.7387 134.8192,122.7387" id="Fill-30" fill="#0B567F"></path>
                <path d="M73.1488,15.4486 L68.1528,15.8836 C67.6078,11.2506 64.1698,7.2656 59.3598,6.2536 C53.3318,4.9856 47.3988,8.8566 46.1298,14.8846 L40.1648,43.2396 C39.4238,46.7616 41.6888,50.2336 45.2118,50.9736 C48.7338,51.7156 52.2048,49.4506 52.9458,45.9276 L58.8988,17.6356 C58.9658,17.3146 58.9538,16.9946 58.8698,16.6976 C58.6808,15.9906 58.1088,15.4126 57.3438,15.2526 C56.2578,15.0236 55.1888,15.7206 54.9608,16.8066 L49.8408,41.1426 C49.5558,42.4956 48.2268,43.3646 46.8718,43.0786 C45.5178,42.7946 44.6498,41.4646 44.9358,40.1106 L50.0548,15.7746 C50.8518,11.9846 54.5858,9.5486 58.3758,10.3456 C61.3518,10.9726 63.4898,13.4066 63.8878,16.2566 C63.9968,17.0376 63.9748,17.8526 63.8038,18.6666 L57.8518,46.9596 C56.5418,53.1866 50.4058,57.1896 44.1788,55.8796 C37.9488,54.5686 33.9498,48.4336 35.2598,42.2066 L41.2248,13.8526 C43.0618,5.1196 51.6598,-0.4894 60.3918,1.3476 C67.4138,2.8246 72.4148,8.6756 73.1488,15.4486" id="Fill-32" fill="#2BB3E2"></path>
                <path d="M73.1488,15.4486 L68.1528,15.8836 C67.6078,11.2506 64.1698,7.2656 59.3598,6.2536 C53.3318,4.9856 47.3988,8.8566 46.1298,14.8846 L40.1648,43.2396 C39.4238,46.7616 41.6888,50.2336 45.2118,50.9736 C48.7338,51.7156 52.2048,49.4506 52.9458,45.9276 L58.8988,17.6356 C58.9658,17.3146 58.9538,16.9946 58.8698,16.6976 C58.6808,15.9906 58.1088,15.4126 57.3438,15.2526 C56.2578,15.0236 55.1888,15.7206 54.9608,16.8066 L49.8408,41.1426 C49.5558,42.4956 48.2268,43.3646 46.8718,43.0786 C45.5178,42.7946 44.6498,41.4646 44.9358,40.1106 L50.0548,15.7746 C50.8518,11.9846 54.5858,9.5486 58.3758,10.3456 C61.3518,10.9726 63.4898,13.4066 63.8878,16.2566 C63.9968,17.0376 63.9748,17.8526 63.8038,18.6666 L57.8518,46.9596 C56.5418,53.1866 50.4058,57.1896 44.1788,55.8796 C37.9488,54.5686 33.9498,48.4336 35.2598,42.2066 L41.2248,13.8526 C43.0618,5.1196 51.6598,-0.4894 60.3918,1.3476 C67.4138,2.8246 72.4148,8.6756 73.1488,15.4486 Z" id="Stroke-34" stroke="#0B567F" stroke-width="2" stroke-linecap="round" stroke-linejoin="round"></path>
                <path d="M277.5404,118.2269 C276.3144,118.2269 275.2794,118.6659 274.3754,119.5709 C273.4724,120.4729 273.0344,121.5079 273.0344,122.7359 C273.0344,123.9619 273.4734,124.9979 274.3754,125.9009 C275.2794,126.8039 276.3144,127.2429 277.5404,127.2429 C278.7674,127.2429 279.8034,126.8039 280.7084,125.8999 C281.6104,124.9979 282.0494,123.9619 282.0494,122.7359 C282.0494,121.5079 281.6104,120.4729 280.7074,119.5709 C279.8034,118.6659 278.7674,118.2269 277.5404,118.2269 Z M294.7384,118.2269 C293.5124,118.2269 292.4774,118.6659 291.5734,119.5709 C290.6704,120.4729 290.2324,121.5079 290.2324,122.7359 C290.2324,123.9619 290.6704,124.9979 291.5734,125.9009 C292.4764,126.8039 293.5114,127.2429 294.7384,127.2429 C295.9664,127.2429 297.0014,126.8039 297.9044,125.9009 C298.8084,124.9979 299.2474,123.9619 299.2474,122.7359 C299.2474,121.5079 298.8084,120.4729 297.9044,119.5709 C297.0004,118.6659 295.9654,118.2269 294.7384,118.2269 Z M213.6694,136.8709 C211.8124,136.8709 210.2114,136.2109 208.9094,134.9099 C207.6074,133.6079 206.9474,132.0069 206.9474,130.1499 L206.9474,111.0779 C206.9474,109.2199 207.6074,107.6179 208.9094,106.3169 C210.2124,105.0159 211.8134,104.3559 213.6694,104.3559 L241.3844,104.3559 C241.6514,104.3559 241.9064,104.4619 242.0944,104.6509 L250.1404,112.7569 C252.2544,114.7989 254.6794,115.7989 257.5364,115.7989 C260.3924,115.7989 262.8164,114.7989 264.9484,112.7419 L273.0404,104.6489 C273.2284,104.4609 273.4824,104.3559 273.7484,104.3559 L301.4044,104.3559 C303.2614,104.3559 304.8634,105.0159 306.1644,106.3179 C307.4654,107.6179 308.1254,109.2189 308.1254,111.0779 L308.1254,130.1499 C308.1254,132.0069 307.4654,133.6089 306.1634,134.9099 C304.8634,136.2109 303.2624,136.8709 301.4044,136.8709 L213.6694,136.8709 Z" id="Fill-36" fill="#0B567F"></path>
                <g id="Group-40" transform="translate(205.000000, 102.717000)">
                    <mask id="mask-4" fill="white">
                        <use xlink:href="#path-3"></use>
                    </mask>
                    <g id="Clip-39"></g>
                    <path d="M72.5404,23.5256 C71.5804,23.5256 70.7984,23.1926 70.0824,22.4756 C69.3674,21.7606 69.0344,20.9806 69.0344,20.0196 C69.0344,19.0566 69.3674,18.2756 70.0824,17.5616 C70.7994,16.8436 71.5804,16.5096 72.5404,16.5096 C73.5014,16.5096 74.2834,16.8436 75.0014,17.5616 C75.7164,18.2756 76.0494,19.0566 76.0494,20.0196 C76.0494,20.9796 75.7154,21.7606 75.0004,22.4776 C74.2844,23.1926 73.5024,23.5256 72.5404,23.5256 M89.7384,23.5256 C88.7774,23.5256 87.9964,23.1926 87.2804,22.4766 C86.5654,21.7606 86.2324,20.9806 86.2324,20.0196 C86.2324,19.0566 86.5654,18.2756 87.2794,17.5616 C87.9974,16.8436 88.7774,16.5096 89.7384,16.5096 C90.6994,16.5096 91.4804,16.8436 92.1954,17.5596 C92.9134,18.2766 93.2474,19.0566 93.2474,20.0196 C93.2474,20.9806 92.9134,21.7606 92.1974,22.4756 C91.4814,23.1926 90.7004,23.5256 89.7384,23.5256 M96.4044,0.6386 L68.7484,0.6386 C68.2174,0.6386 67.7084,0.8496 67.3334,1.2246 L59.2284,9.3306 C57.3174,11.1736 55.1214,12.0826 52.5364,12.0826 C49.9514,12.0826 47.7544,11.1736 45.8204,9.3056 L37.8044,1.2296 C37.4284,0.8516 36.9174,0.6386 36.3844,0.6386 L8.6694,0.6386 C6.5394,0.6386 4.7004,1.3976 3.2034,2.8926 C1.7064,4.3886 0.9474,6.2286 0.9474,8.3616 L0.9474,27.4326 C0.9474,29.5656 1.7064,31.4046 3.2024,32.9006 C4.6984,34.3956 6.5384,35.1536 8.6694,35.1536 L96.4044,35.1536 C98.5374,35.1536 100.3764,34.3956 101.8714,32.8996 C103.3664,31.4046 104.1254,29.5656 104.1254,27.4326 L104.1254,8.3616 C104.1254,6.2276 103.3664,4.3876 101.8704,2.8926 C100.3754,1.3976 98.5364,0.6386 96.4044,0.6386 M72.5404,25.5256 C74.0324,25.5256 75.3234,24.9806 76.4154,23.8906 C77.5044,22.8006 78.0494,21.5096 78.0494,20.0196 C78.0494,18.5276 77.5044,17.2346 76.4154,16.1466 C75.3234,15.0556 74.0324,14.5096 72.5404,14.5096 C71.0484,14.5096 69.7594,15.0556 68.6684,16.1466 C67.5794,17.2346 67.0344,18.5276 67.0344,20.0196 C67.0344,21.5096 67.5794,22.8006 68.6684,23.8906 C69.7594,24.9806 71.0484,25.5256 72.5404,25.5256 M89.7384,25.5256 C91.2304,25.5256 92.5214,24.9806 93.6114,23.8906 C94.7024,22.8006 95.2474,21.5096 95.2474,20.0196 C95.2474,18.5276 94.7014,17.2346 93.6114,16.1466 C92.5214,15.0556 91.2294,14.5096 89.7384,14.5096 C88.2464,14.5096 86.9564,15.0556 85.8664,16.1466 C84.7764,17.2346 84.2324,18.5276 84.2324,20.0196 C84.2324,21.5096 84.7764,22.8006 85.8664,23.8906 C86.9564,24.9806 88.2474,25.5256 89.7384,25.5256 M96.4044,2.6386 C97.9934,2.6386 99.3454,3.1956 100.4564,4.3076 C101.5694,5.4206 102.1254,6.7716 102.1254,8.3616 L102.1254,27.4326 C102.1254,29.0226 101.5694,30.3736 100.4564,31.4856 C99.3454,32.5986 97.9934,33.1536 96.4044,33.1536 L8.6694,33.1536 C7.0804,33.1536 5.7294,32.5986 4.6164,31.4856 C3.5034,30.3736 2.9474,29.0226 2.9474,27.4326 L2.9474,8.3616 C2.9474,6.7716 3.5034,5.4206 4.6164,4.3076 C5.7294,3.1956 7.0804,2.6386 8.6694,2.6386 L36.3844,2.6386 L44.4314,10.7446 C46.7354,12.9706 49.4374,14.0826 52.5364,14.0826 C55.6364,14.0826 58.3374,12.9686 60.6424,10.7446 L68.7484,2.6386 L96.4044,2.6386" id="Fill-38" fill="#0B567F" mask="url(#mask-4)"></path>
                </g>
                <path d="M255.3529,104.038 C255.9359,104.652 256.6639,104.959 257.5369,104.959 C258.4109,104.959 259.1379,104.652 259.7209,104.038 L281.4649,82.293 C282.4679,81.355 282.6949,80.223 282.1449,78.895 C281.5959,77.634 280.6409,77.003 279.2809,77.002 L266.8549,77.002 L266.8549,55.258 C266.8549,54.417 266.5479,53.689 265.9339,53.074 C265.3189,52.459 264.5909,52.152 263.7499,52.152 L251.3239,52.152 C250.4829,52.152 249.7549,52.459 249.1399,53.074 C248.5249,53.689 248.2179,54.417 248.2179,55.258 L248.2179,77.003 L235.7919,77.003 C234.4329,77.003 233.4779,77.634 232.9289,78.896 C232.3789,80.222 232.6049,81.355 233.6079,82.293 L255.3529,104.038 Z" id="Fill-41" fill="#B6C4CE"></path>
                <path d="M255.3529,104.038 C255.9359,104.652 256.6639,104.959 257.5369,104.959 C258.4109,104.959 259.1379,104.652 259.7209,104.038 L281.4649,82.293 C282.4679,81.355 282.6949,80.223 282.1449,78.895 C281.5959,77.634 280.6409,77.003 279.2809,77.002 L266.8549,77.002 L266.8549,55.258 C266.8549,54.417 266.5479,53.689 265.9339,53.074 C265.3189,52.459 264.5909,52.152 263.7499,52.152 L251.3239,52.152 C250.4829,52.152 249.7549,52.459 249.1399,53.074 C248.5249,53.689 248.2179,54.417 248.2179,55.258 L248.2179,77.003 L235.7919,77.003 C234.4329,77.003 233.4779,77.634 232.9289,78.896 C232.3789,80.222 232.6049,81.355 233.6079,82.293 L255.3529,104.038 Z" id="Stroke-43" stroke="#0B567F" stroke-width="2" stroke-linecap="round" stroke-linejoin="round"></path>
                <path d="M180.3192,63.85 C176.5232,63.85 173.4452,60.772 173.4452,56.976 C173.4452,53.18 176.5232,50.102 180.3192,50.102 C184.1152,50.102 187.1932,53.18 187.1932,56.976 C187.1932,60.772 184.1152,63.85 180.3192,63.85" id="Fill-45" fill="#FFCD50"></path>
                <path d="M180.3192,63.85 C176.5232,63.85 173.4452,60.772 173.4452,56.976 C173.4452,53.18 176.5232,50.102 180.3192,50.102 C184.1152,50.102 187.1932,53.18 187.1932,56.976 C187.1932,60.772 184.1152,63.85 180.3192,63.85 Z" id="Stroke-47" stroke="#0B567F" stroke-width="2"></path>
                <path d="M237.1341,29.0248 C231.2071,29.0248 226.4021,24.2198 226.4021,18.2928 C226.4021,12.3648 231.2071,7.5598 237.1341,7.5598 C243.0611,7.5598 247.8661,12.3648 247.8661,18.2928 C247.8661,24.2198 243.0611,29.0248 237.1341,29.0248" id="Fill-49" fill="#FFCD50"></path>
                <path d="M237.1341,29.0248 C231.2071,29.0248 226.4021,24.2198 226.4021,18.2928 C226.4021,12.3648 231.2071,7.5598 237.1341,7.5598 C243.0611,7.5598 247.8661,12.3648 247.8661,18.2928 C247.8661,24.2198 243.0611,29.0248 237.1341,29.0248 Z" id="Stroke-51" stroke="#0B567F" stroke-width="2"></path>
            </g>
        </g>
    </g>
</svg>