<?xml version="1.0" encoding="UTF-8" standalone="no"?>
<svg width="348px" height="158px" viewBox="0 0 348 158" version="1.1" xmlns="http://www.w3.org/2000/svg" xmlns:xlink="http://www.w3.org/1999/xlink">
    <!-- Generator: Sketch 50.2 (55047) - http://www.bohemiancoding.com/sketch -->
    <title>Group</title>
    <desc>Created with Sketch.</desc>
    <defs>
        <polygon id="path-1" points="0 157.06 347.964 157.06 347.964 0 0 0"></polygon>
    </defs>
    <g id="Page-1" stroke="none" stroke-width="1" fill="none" fill-rule="evenodd">
        <g id="Atlas" transform="translate(-272.000000, -487.000000)">
            <g id="Group" transform="translate(272.000000, 487.000000)">
                <path d="M73.0182,143.3916 C67.4382,143.3916 62.8992,138.8526 62.8992,133.2736 L62.8992,11.1186 C62.8992,5.5396 67.4382,1.0006 73.0182,1.0006 L281.1982,1.0006 C286.7772,1.0006 291.3162,5.5396 291.3162,11.1186 L291.3162,133.2736 C291.3162,138.8526 286.7772,143.3916 281.1982,143.3916 L73.0182,143.3916 Z" id="Fill-1" fill="#B6C4CE"></path>
                <path d="M281.1984,0.0005 L73.0184,0.0005 C66.8874,0.0005 61.8994,4.9875 61.8994,11.1185 L61.8994,133.2735 C61.8994,139.4045 66.8874,144.3925 73.0184,144.3925 L281.1984,144.3925 C287.3294,144.3925 292.3164,139.4045 292.3164,133.2735 L292.3164,11.1185 C292.3164,4.9875 287.3294,0.0005 281.1984,0.0005 M281.1984,2.0005 C286.2344,2.0005 290.3164,6.0825 290.3164,11.1185 L290.3164,133.2735 C290.3164,138.3095 286.2344,142.3925 281.1984,142.3925 L73.0184,142.3925 C67.9824,142.3925 63.8994,138.3095 63.8994,133.2735 L63.8994,11.1185 C63.8994,6.0825 67.9824,2.0005 73.0184,2.0005 L281.1984,2.0005" id="Fill-3" fill="#0B567F"></path>
                <path d="M79.8053,133.9117 C79.4943,133.9117 79.1893,133.8897 78.8923,133.8487 C78.7703,133.8327 78.6423,133.8127 78.5183,133.7877 C77.6223,133.6217 76.7653,133.2707 75.9853,132.7457 C75.5183,132.4327 75.0893,132.0597 74.7123,131.6387 C74.5233,131.4277 74.3473,131.2057 74.1843,130.9727 C73.3823,129.8247 72.9573,128.4727 72.9573,127.0637 L72.9573,17.3287 C72.9573,13.5537 76.0293,10.4817 79.8053,10.4817 L274.4143,10.4817 C275.1113,10.4817 275.7953,10.5847 276.4473,10.7897 C276.9363,10.9397 277.4203,11.1527 277.8773,11.4217 C279.9623,12.6487 281.2573,14.9117 281.2573,17.3287 L281.2573,127.0637 C281.2573,130.3497 278.9193,133.1787 275.6983,133.7897 C275.2853,133.8697 274.8513,133.9117 274.4143,133.9117 L79.8053,133.9117 Z" id="Fill-5" fill="#F2F2F2"></path>
                <path d="M274.4142,9.4815 L79.8062,9.4815 C75.4782,9.4815 71.9572,13.0025 71.9572,17.3295 L71.9572,127.0635 C71.9572,128.6785 72.4442,130.2285 73.3652,131.5455 C73.5492,131.8105 73.7522,132.0665 73.9682,132.3075 C74.4012,132.7905 74.8932,133.2175 75.4292,133.5775 C76.3212,134.1775 77.3062,134.5805 78.3522,134.7735 C78.4632,134.7965 78.6132,134.8205 78.7672,134.8405 C79.1032,134.8875 79.4562,134.9115 79.8062,134.9115 L274.4142,134.9115 C274.9182,134.9115 275.4162,134.8635 275.8962,134.7695 C279.5772,134.0715 282.2572,130.8295 282.2572,127.0635 L282.2572,17.3295 C282.2572,14.5585 280.7732,11.9645 278.3842,10.5605 C277.8582,10.2515 277.3032,10.0065 276.7342,9.8315 C275.9982,9.6005 275.2132,9.4815 274.4142,9.4815 M274.4142,11.4815 C275.0182,11.4815 275.6002,11.5715 276.1472,11.7435 C276.5792,11.8765 276.9882,12.0595 277.3712,12.2845 C279.1002,13.3005 280.2572,15.1805 280.2572,17.3295 L280.2572,127.0635 C280.2572,129.9155 278.2152,132.2945 275.5122,132.8075 C275.1572,132.8765 274.7902,132.9115 274.4142,132.9115 L79.8062,132.9115 C79.5412,132.9115 79.2812,132.8935 79.0282,132.8575 C78.9212,132.8445 78.8172,132.8275 78.7152,132.8075 C77.9232,132.6605 77.1882,132.3495 76.5432,131.9155 C76.1422,131.6475 75.7772,131.3285 75.4562,130.9715 C75.2942,130.7905 75.1432,130.6005 75.0042,130.4005 C74.3432,129.4535 73.9572,128.3025 73.9572,127.0635 L73.9572,17.3295 C73.9572,14.0995 76.5782,11.4815 79.8062,11.4815 L274.4142,11.4815" id="Fill-7" fill="#0B567F"></path>
                <path d="M311.4664,137.5098 L311.4664,138.2908 C311.4664,142.1768 310.2204,145.7698 308.1044,148.6928 C304.8784,153.1558 299.6264,156.0598 293.6974,156.0598 L60.5194,156.0598 C54.5904,156.0598 49.3384,153.1558 46.1124,148.6928 C43.9964,145.7698 42.7504,142.1768 42.7504,138.2908 L42.7504,137.5098 L311.4664,137.5098 Z" id="Fill-9" fill="#7996A5"></path>
                <path d="M311.4664,137.5098 L311.4664,138.2908 C311.4664,142.1768 310.2204,145.7698 308.1044,148.6928 C304.8784,153.1558 299.6264,156.0598 293.6974,156.0598 L60.5194,156.0598 C54.5904,156.0598 49.3384,153.1558 46.1124,148.6928 C43.9964,145.7698 42.7504,142.1768 42.7504,138.2908 L42.7504,137.5098 L311.4664,137.5098 Z" id="Stroke-11" stroke="#0B567F" stroke-width="2"></path>
                <path d="M146.9908,138.6602 L146.9908,139.1492 C146.9908,143.0012 152.0118,146.1232 153.1748,146.1232 L199.3948,146.1232 C200.5568,146.1232 206.0568,143.0012 206.0568,139.1492 L206.0568,138.6602 L146.9908,138.6602 Z" id="Fill-13" fill="#0B567F"></path>
                <path d="M146.9908,138.6602 L146.9908,139.1492 C146.9908,143.0012 152.0118,146.1232 153.1748,146.1232 L199.3948,146.1232 C200.5568,146.1232 206.0568,143.0012 206.0568,139.1492 L206.0568,138.6602 L146.9908,138.6602 Z" id="Stroke-15" stroke="#0B567F"></path>
                <path d="M280.2574,21.565 L73.9574,21.565 L73.9574,16.757 C73.9574,13.856 76.3324,11.482 79.2344,11.482 L274.5274,11.482 C277.6784,11.482 280.2574,14.06 280.2574,17.212 L280.2574,21.565 Z" id="Fill-17" fill="#F7941D"></path>
                <path d="M126.795,132.9117 L79.892,132.9117 C76.614,132.9117 73.958,130.2547 73.958,126.9777 L73.958,21.5647 L126.795,21.5647 L126.795,132.9117 Z" id="Fill-19" fill="#415359"></path>
                <mask id="mask-2" fill="white">
                    <use xlink:href="#path-1"></use>
                </mask>
                <g id="Clip-22"></g>
                <polygon id="Fill-21" fill="#D3D3D3" mask="url(#mask-2)" points="134.714 65.463 222.631 65.463 222.631 56.586 134.714 56.586"></polygon>
                <polygon id="Fill-23" fill="#707070" mask="url(#mask-2)" points="79.157 33.775 121.596 33.775 121.596 27.863 79.157 27.863"></polygon>
                <polygon id="Fill-24" fill="#707070" mask="url(#mask-2)" points="79.157 42.543 121.596 42.543 121.596 36.631 79.157 36.631"></polygon>
                <polygon id="Fill-25" fill="#707070" mask="url(#mask-2)" points="79.156 51.311 110.047 51.311 110.047 45.399 79.156 45.399"></polygon>
                <polygon id="Fill-26" fill="#707070" mask="url(#mask-2)" points="79.157 76.275 121.596 76.275 121.596 70.363 79.157 70.363"></polygon>
                <polygon id="Fill-27" fill="#707070" mask="url(#mask-2)" points="79.157 85.043 121.596 85.043 121.596 79.131 79.157 79.131"></polygon>
                <polygon id="Fill-28" fill="#707070" mask="url(#mask-2)" points="79.156 93.811 110.047 93.811 110.047 87.899 79.156 87.899"></polygon>
                <polygon id="Fill-29" fill="#707070" mask="url(#mask-2)" points="79.156 60.079 110.047 60.079 110.047 54.167 79.156 54.167"></polygon>
                <polygon id="Fill-30" fill="#707070" mask="url(#mask-2)" points="79.156 102.579 110.047 102.579 110.047 96.667 79.156 96.667"></polygon>
                <polygon id="Fill-31" fill="#707070" mask="url(#mask-2)" points="79.156 111.346 110.047 111.346 110.047 105.434 79.156 105.434"></polygon>
                <polygon id="Fill-32" fill="#D3D3D3" mask="url(#mask-2)" points="134.714 79.893 185.022 79.893 185.022 71.996 134.714 71.996"></polygon>
                <polygon id="Fill-33" fill="#72B6FF" mask="url(#mask-2)" points="134.714 45.399 163.324 45.399 163.324 28.24 134.714 28.24"></polygon>
                <polygon id="Fill-34" fill="#00A65A" mask="url(#mask-2)" points="168.979 45.399 197.589 45.399 197.589 28.24 168.979 28.24"></polygon>
                <polygon id="Fill-35" fill="#FFD89A" mask="url(#mask-2)" points="203.245 45.399 231.855 45.399 231.855 28.24 203.245 28.24"></polygon>
                <polygon id="Fill-36" fill="#DD4B39" mask="url(#mask-2)" points="237.511 45.399 266.121 45.399 266.121 28.24 237.511 28.24"></polygon>
                <polygon id="Fill-37" fill="#D3D3D3" mask="url(#mask-2)" points="134.714 91.191 196.5 91.191 196.5 83.294 134.714 83.294"></polygon>
                <polygon id="Fill-38" fill="#D3D3D3" mask="url(#mask-2)" points="134.714 102.489 196.5 102.489 196.5 94.592 134.714 94.592"></polygon>
                <polygon id="Fill-39" fill="#D3D3D3" mask="url(#mask-2)" points="200.962 91.191 262.748 91.191 262.748 83.294 200.962 83.294"></polygon>
                <polygon id="Fill-40" fill="#D3D3D3" mask="url(#mask-2)" points="200.962 102.489 262.748 102.489 262.748 94.592 200.962 94.592"></polygon>
                <polygon id="Fill-41" fill="#D3D3D3" mask="url(#mask-2)" points="134.714 113.332 196.5 113.332 196.5 105.435 134.714 105.435"></polygon>
                <polygon id="Fill-42" fill="#D3D3D3" mask="url(#mask-2)" points="200.962 113.332 262.748 113.332 262.748 105.435 200.962 105.435"></polygon>
                <path d="M18.2286,22.5132 L2.9626,22.5132 C1.8836,22.5132 0.9996,21.6292 0.9996,20.5502 C0.9996,19.4702 1.8836,18.5872 2.9626,18.5872 L18.2286,18.5872 C19.3086,18.5872 20.1916,19.4702 20.1916,20.5502 C20.1916,21.6292 19.3086,22.5132 18.2286,22.5132" id="Fill-43" fill="#7996A5" mask="url(#mask-2)"></path>
                <path d="M18.2286,22.5132 L2.9626,22.5132 C1.8836,22.5132 0.9996,21.6292 0.9996,20.5502 C0.9996,19.4702 1.8836,18.5872 2.9626,18.5872 L18.2286,18.5872 C19.3086,18.5872 20.1916,19.4702 20.1916,20.5502 C20.1916,21.6292 19.3086,22.5132 18.2286,22.5132 Z" id="Stroke-44" stroke="#7996A5" stroke-width="2" mask="url(#mask-2)"></path>
                <path d="M8.6329,28.1827 L8.6329,12.9167 C8.6329,11.8377 9.5159,10.9537 10.5959,10.9537 C11.6749,10.9537 12.5589,11.8377 12.5589,12.9167 L12.5589,28.1827 C12.5589,29.2627 11.6749,30.1457 10.5959,30.1457 C9.5159,30.1457 8.6329,29.2627 8.6329,28.1827" id="Fill-45" fill="#7996A5" mask="url(#mask-2)"></path>
                <path d="M8.6329,28.1827 L8.6329,12.9167 C8.6329,11.8377 9.5159,10.9537 10.5959,10.9537 C11.6749,10.9537 12.5589,11.8377 12.5589,12.9167 L12.5589,28.1827 C12.5589,29.2627 11.6749,30.1457 10.5959,30.1457 C9.5159,30.1457 8.6329,29.2627 8.6329,28.1827 Z" id="Stroke-46" stroke="#7996A5" stroke-width="2" mask="url(#mask-2)"></path>
                <path d="M40.7867,55.0518 L25.5217,55.0518 C24.4417,55.0518 23.5587,54.1688 23.5587,53.0888 C23.5587,52.0098 24.4417,51.1258 25.5217,51.1258 L40.7867,51.1258 C41.8667,51.1258 42.7497,52.0098 42.7497,53.0888 C42.7497,54.1688 41.8667,55.0518 40.7867,55.0518" id="Fill-47" fill="#7996A5" mask="url(#mask-2)"></path>
                <path d="M40.7867,55.0518 L25.5217,55.0518 C24.4417,55.0518 23.5587,54.1688 23.5587,53.0888 C23.5587,52.0098 24.4417,51.1258 25.5217,51.1258 L40.7867,51.1258 C41.8667,51.1258 42.7497,52.0098 42.7497,53.0888 C42.7497,54.1688 41.8667,55.0518 40.7867,55.0518 Z" id="Stroke-48" stroke="#7996A5" stroke-width="2" mask="url(#mask-2)"></path>
                <path d="M31.191,60.7217 L31.191,45.4557 C31.191,44.3767 32.074,43.4927 33.154,43.4927 C34.234,43.4927 35.117,44.3767 35.117,45.4557 L35.117,60.7217 C35.117,61.8017 34.234,62.6847 33.154,62.6847 C32.074,62.6847 31.191,61.8017 31.191,60.7217" id="Fill-49" fill="#7996A5" mask="url(#mask-2)"></path>
                <path d="M31.191,60.7217 L31.191,45.4557 C31.191,44.3767 32.074,43.4927 33.154,43.4927 C34.234,43.4927 35.117,44.3767 35.117,45.4557 L35.117,60.7217 C35.117,61.8017 34.234,62.6847 33.154,62.6847 C32.074,62.6847 31.191,61.8017 31.191,60.7217 Z" id="Stroke-50" stroke="#7996A5" stroke-width="2" mask="url(#mask-2)"></path>
                <path d="M344.5616,59.5249 L325.8816,59.5249 C324.5606,59.5249 323.4786,58.4439 323.4786,57.1229 C323.4786,55.8009 324.5606,54.7199 325.8816,54.7199 L344.5616,54.7199 C345.8826,54.7199 346.9636,55.8009 346.9636,57.1229 C346.9636,58.4439 345.8826,59.5249 344.5616,59.5249" id="Fill-51" fill="#7996A5" mask="url(#mask-2)"></path>
                <path d="M344.5616,59.5249 L325.8816,59.5249 C324.5606,59.5249 323.4786,58.4439 323.4786,57.1229 C323.4786,55.8009 324.5606,54.7199 325.8816,54.7199 L344.5616,54.7199 C345.8826,54.7199 346.9636,55.8009 346.9636,57.1229 C346.9636,58.4439 345.8826,59.5249 344.5616,59.5249 Z" id="Stroke-52" stroke="#7996A5" stroke-width="2" mask="url(#mask-2)"></path>
                <path d="M332.8195,66.4629 L332.8195,47.7819 C332.8195,46.4609 333.9005,45.3799 335.2215,45.3799 C336.5425,45.3799 337.6235,46.4609 337.6235,47.7819 L337.6235,66.4629 C337.6235,67.7839 336.5425,68.8649 335.2215,68.8649 C333.9005,68.8649 332.8195,67.7839 332.8195,66.4629" id="Fill-53" fill="#7996A5" mask="url(#mask-2)"></path>
                <path d="M332.8195,66.4629 L332.8195,47.7819 C332.8195,46.4609 333.9005,45.3799 335.2215,45.3799 C336.5425,45.3799 337.6235,46.4609 337.6235,47.7819 L337.6235,66.4629 C337.6235,67.7839 336.5425,68.8649 335.2215,68.8649 C333.9005,68.8649 332.8195,67.7839 332.8195,66.4629 Z" id="Stroke-54" stroke="#7996A5" stroke-width="2" mask="url(#mask-2)"></path>
            </g>
        </g>
    </g>
</svg>