<?xml version="1.0" encoding="UTF-8" standalone="no"?>
<svg width="354px" height="181px" viewBox="0 0 354 181" version="1.1" xmlns="http://www.w3.org/2000/svg" xmlns:xlink="http://www.w3.org/1999/xlink">
    <!-- Generator: Sketch 50.2 (55047) - http://www.bohemiancoding.com/sketch -->
    <title>Group</title>
    <desc>Created with Sketch.</desc>
    <defs>
        <polygon id="path-1" points="0 180.954 353.054 180.954 353.054 0 0 0"></polygon>
    </defs>
    <g id="Page-1" stroke="none" stroke-width="1" fill="none" fill-rule="evenodd">
        <g id="Atlas" transform="translate(-847.000000, -748.000000)">
            <g id="Group" transform="translate(847.000000, 748.000000)">
                <path d="M2.0001,100.8391 L41.0001,58.0981 L95.0011,87.0221 L167.0921,12.0981" id="Stroke-1" stroke="#0B567F" stroke-width="4" stroke-linecap="round" stroke-linejoin="round" stroke-dasharray="0,9"></path>
                <path d="M64.6501,143.2614 L45.9691,143.2614 C44.6481,143.2614 43.5671,142.1804 43.5671,140.8594 C43.5671,139.5374 44.6481,138.4564 45.9691,138.4564 L64.6501,138.4564 C65.9711,138.4564 67.0521,139.5374 67.0521,140.8594 C67.0521,142.1804 65.9711,143.2614 64.6501,143.2614" id="Fill-3" fill="#FFFFFF"></path>
                <path d="M64.6501,143.2614 L45.9691,143.2614 C44.6481,143.2614 43.5671,142.1804 43.5671,140.8594 C43.5671,139.5374 44.6481,138.4564 45.9691,138.4564 L64.6501,138.4564 C65.9711,138.4564 67.0521,139.5374 67.0521,140.8594 C67.0521,142.1804 65.9711,143.2614 64.6501,143.2614 Z" id="Stroke-5" stroke="#FFFFFF" stroke-width="2"></path>
                <path d="M52.9074,150.1994 L52.9074,131.5184 C52.9074,130.1984 53.9884,129.1164 55.3094,129.1164 C56.6314,129.1164 57.7124,130.1984 57.7124,131.5184 L57.7124,150.1994 C57.7124,151.5204 56.6314,152.6014 55.3094,152.6014 C53.9884,152.6014 52.9074,151.5204 52.9074,150.1994" id="Fill-7" fill="#FFFFFF"></path>
                <path d="M52.9074,150.1994 L52.9074,131.5184 C52.9074,130.1984 53.9884,129.1164 55.3094,129.1164 C56.6314,129.1164 57.7124,130.1984 57.7124,131.5184 L57.7124,150.1994 C57.7124,151.5204 56.6314,152.6014 55.3094,152.6014 C53.9884,152.6014 52.9074,151.5204 52.9074,150.1994 Z" id="Stroke-9" stroke="#FFFFFF" stroke-width="2"></path>
                <path d="M40.8649,68.676 C35.6149,68.676 31.3599,64.421 31.3599,59.171 C31.3599,53.922 35.6149,49.666 40.8649,49.666 C46.1139,49.666 50.3699,53.922 50.3699,59.171 C50.3699,64.421 46.1139,68.676 40.8649,68.676" id="Fill-11" fill="#FFCD50"></path>
                <path d="M40.8649,68.676 C35.6149,68.676 31.3599,64.421 31.3599,59.171 C31.3599,53.922 35.6149,49.666 40.8649,49.666 C46.1139,49.666 50.3699,53.922 50.3699,59.171 C50.3699,64.421 46.1139,68.676 40.8649,68.676 Z" id="Stroke-13" stroke="#0B567F" stroke-width="2"></path>
                <path d="M98.0509,97.6887 C92.8009,97.6887 88.5459,93.4337 88.5459,88.1837 C88.5459,82.9347 92.8009,78.6797 98.0509,78.6797 C103.3009,78.6797 107.5559,82.9347 107.5559,88.1837 C107.5559,93.4337 103.3009,97.6887 98.0509,97.6887" id="Fill-15" fill="#FFCD50"></path>
                <path d="M98.0509,97.6887 C92.8009,97.6887 88.5459,93.4337 88.5459,88.1837 C88.5459,82.9347 92.8009,78.6797 98.0509,78.6797 C103.3009,78.6797 107.5559,82.9347 107.5559,88.1837 C107.5559,93.4337 103.3009,97.6887 98.0509,97.6887 Z" id="Stroke-17" stroke="#0B567F" stroke-width="2"></path>
                <path d="M167.0924,20.009 C161.8424,20.009 157.5874,15.754 157.5874,10.505 C157.5874,5.255 161.8424,1 167.0924,1 C172.3424,1 176.5974,5.255 176.5974,10.505 C176.5974,15.754 172.3424,20.009 167.0924,20.009" id="Fill-19" fill="#FFCD50"></path>
                <path d="M167.0924,20.009 C161.8424,20.009 157.5874,15.754 157.5874,10.505 C157.5874,5.255 161.8424,1 167.0924,1 C172.3424,1 176.5974,5.255 176.5974,10.505 C176.5974,15.754 172.3424,20.009 167.0924,20.009 Z" id="Stroke-21" stroke="#0B567F" stroke-width="2"></path>
                <path d="M103.5544,152.9626 C103.0024,152.9626 102.5544,152.5146 102.5544,151.9626 L102.5544,46.1016 C102.5544,45.5496 103.0024,45.1016 103.5544,45.1016 L257.4594,45.1016 C258.0114,45.1016 258.4594,45.5496 258.4594,46.1016 L258.4594,151.9626 C258.4594,152.5146 258.0114,152.9626 257.4594,152.9626 L103.5544,152.9626 Z" id="Fill-23" fill="#B6C4CE"></path>
                <path d="M257.4591,44.1018 L103.5541,44.1018 C102.4501,44.1018 101.5541,44.9978 101.5541,46.1018 L101.5541,151.9628 C101.5541,153.0668 102.4501,153.9628 103.5541,153.9628 L257.4591,153.9628 C258.5631,153.9628 259.4591,153.0668 259.4591,151.9628 L259.4591,46.1018 C259.4591,44.9978 258.5631,44.1018 257.4591,44.1018 Z M103.5541,151.9628 L257.4591,151.9628 L257.4591,46.1018 L103.5541,46.1018 L103.5541,151.9628 Z" id="Fill-25" fill="#0B567F"></path>
                <polygon id="Fill-27" fill="#0B567F" points="194.8712 153.4031 168.5302 153.4031 194.8712 179.7471"></polygon>
                <polygon id="Stroke-29" stroke="#0B567F" points="194.8712 153.4031 168.5302 153.4031 194.8712 179.7471"></polygon>
                <path d="M200.8517,172.0964 L187.2207,172.0964 L168.5297,153.4034 L168.5297,172.0964 L162.5497,172.0964 C160.0517,172.0964 158.0217,174.1244 158.0217,176.6224 L158.0217,179.7464 L168.5297,179.7464 L181.7567,179.7464 L194.8717,179.7464 L205.3787,179.7464 L205.3787,176.6224 C205.3787,174.1244 203.3497,172.0964 200.8517,172.0964" id="Fill-31" fill="#B6C4CE"></path>
                <path d="M200.8517,172.0964 L187.2207,172.0964 L168.5297,153.4034 L168.5297,172.0964 L162.5497,172.0964 C160.0517,172.0964 158.0217,174.1244 158.0217,176.6224 L158.0217,179.7464 L168.5297,179.7464 L181.7567,179.7464 L194.8717,179.7464 L205.3787,179.7464 L205.3787,176.6224 C205.3787,174.1244 203.3497,172.0964 200.8517,172.0964 Z" id="Stroke-33" stroke="#0B567F" stroke-width="2" stroke-linecap="round" stroke-linejoin="round"></path>
                <mask id="mask-2" fill="white">
                    <use xlink:href="#path-1"></use>
                </mask>
                <g id="Clip-36"></g>
                <polygon id="Fill-35" fill="#F2F2F2" mask="url(#mask-2)" points="114.574 142.996 248.826 142.996 248.826 55.069 114.574 55.069"></polygon>
                <path d="M249.8268,54.0686 L247.8268,54.0686 L115.5748,54.0686 L113.5748,54.0686 L113.5748,56.0686 L113.5748,141.9956 L113.5748,143.9956 L115.5748,143.9956 L247.8268,143.9956 L249.8268,143.9956 L249.8268,141.9956 L249.8268,56.0686 L249.8268,54.0686 Z M115.5748,141.9956 L247.8268,141.9956 L247.8268,56.0686 L115.5748,56.0686 L115.5748,141.9956 Z" id="Fill-37" fill="#0B567F" mask="url(#mask-2)"></path>
                <path d="M208.6549,66.4875 L199.0509,66.4875 C196.6389,66.4875 195.5579,68.1065 195.5579,70.1035 L195.5579,131.5775 L213.0209,131.5775 L213.0209,70.1035 C213.0209,68.1065 211.0669,66.4875 208.6549,66.4875" id="Fill-38" fill="#2BB3E2" mask="url(#mask-2)"></path>
                <path d="M208.6549,66.4875 L199.0509,66.4875 C196.6389,66.4875 195.5579,68.1065 195.5579,70.1035 L195.5579,131.5775 L213.0209,131.5775 L213.0209,70.1035 C213.0209,68.1065 211.0669,66.4875 208.6549,66.4875 Z" id="Stroke-39" stroke="#0B567F" stroke-width="2" stroke-linecap="round" stroke-linejoin="round" mask="url(#mask-2)"></path>
                <path d="M182.4611,88.1838 L172.8571,88.1838 C170.4451,88.1838 169.3641,89.8028 169.3641,91.7998 L169.3641,131.5778 L186.8271,131.5778 L186.8271,91.7998 C186.8271,89.8028 184.8731,88.1838 182.4611,88.1838" id="Fill-40" fill="#F9912B" mask="url(#mask-2)"></path>
                <path d="M182.4611,88.1838 L172.8571,88.1838 C170.4451,88.1838 169.3641,89.8028 169.3641,91.7998 L169.3641,131.5778 L186.8271,131.5778 L186.8271,91.7998 C186.8271,89.8028 184.8731,88.1838 182.4611,88.1838 Z" id="Stroke-41" stroke="#0B567F" stroke-width="2" stroke-linecap="round" stroke-linejoin="round" mask="url(#mask-2)"></path>
                <path d="M156.2672,109.8806 L146.6632,109.8806 C144.2512,109.8806 143.1702,111.4996 143.1702,113.4966 L143.1702,131.5776 L160.6332,131.5776 L160.6332,113.4966 C160.6332,111.4996 158.6792,109.8806 156.2672,109.8806" id="Fill-42" fill="#FFCD50" mask="url(#mask-2)"></path>
                <path d="M156.2672,109.8806 L146.6632,109.8806 C144.2512,109.8806 143.1702,111.4996 143.1702,113.4966 L143.1702,131.5776 L160.6332,131.5776 L160.6332,113.4966 C160.6332,111.4996 158.6792,109.8806 156.2672,109.8806 Z" id="Stroke-43" stroke="#0B567F" stroke-width="2" stroke-linecap="round" stroke-linejoin="round" mask="url(#mask-2)"></path>
                <polygon id="Fill-44" fill="#D9E4ED" mask="url(#mask-2)" points="309.5885 128.7141 301.8645 138.1781 289.6115 128.1781 297.3365 118.7141"></polygon>
                <polygon id="Stroke-45" stroke="#0B567F" stroke-width="2" mask="url(#mask-2)" points="309.5885 128.7141 301.8645 138.1781 289.6115 128.1781 297.3365 118.7141"></polygon>
                <path d="M288.6588,74.4978 C303.5818,86.6778 305.8048,108.6478 293.6258,123.5698 C281.4468,138.4928 259.4758,140.7168 244.5538,128.5378 C229.6318,116.3578 227.4078,94.3878 239.5868,79.4648 C251.7658,64.5418 273.7368,62.3188 288.6588,74.4978 Z" id="Stroke-46" stroke="#0B567F" stroke-width="2" mask="url(#mask-2)"></path>
                <path d="M245.0612,83.9333 C235.3652,95.8133 237.1422,113.3673 249.0212,123.0623 C260.9022,132.7593 278.4552,130.9823 288.1512,119.1023 C297.8482,107.2223 296.0712,89.6683 284.1912,79.9723 C272.3112,70.2763 254.7572,72.0533 245.0612,83.9333 M291.1752,121.5693 C280.1182,135.1173 260.1012,137.1423 246.5542,126.0863 C233.0072,115.0293 230.9812,95.0133 242.0382,81.4663 C253.0952,67.9183 273.1112,65.8923 286.6582,76.9493 C300.2052,88.0053 302.2312,108.0223 291.1752,121.5693" id="Fill-47" fill="#D9E4ED" mask="url(#mask-2)"></path>
                <path d="M245.0612,83.9333 C235.3652,95.8133 237.1422,113.3673 249.0212,123.0623 C260.9022,132.7593 278.4552,130.9823 288.1512,119.1023 C297.8482,107.2223 296.0712,89.6683 284.1912,79.9723 C272.3112,70.2763 254.7572,72.0533 245.0612,83.9333 Z M291.1752,121.5693 C280.1182,135.1173 260.1012,137.1423 246.5542,126.0863 C233.0072,115.0293 230.9812,95.0133 242.0382,81.4663 C253.0952,67.9183 273.1112,65.8923 286.6582,76.9493 C300.2052,88.0053 302.2312,108.0223 291.1752,121.5693 Z" id="Stroke-48" stroke="#D8E2EB" mask="url(#mask-2)"></path>
                <path d="M242.2321,81.6242 C231.2631,95.0632 233.2731,114.9222 246.7121,125.8922 C260.1531,136.8612 280.0121,134.8512 290.9811,121.4112 C301.9501,107.9712 299.9401,88.1122 286.5001,77.1432 C273.0601,66.1742 253.2011,68.1842 242.2321,81.6242 M296.2711,125.7292 C282.9211,142.0862 258.7521,144.5332 242.3951,131.1832 C226.0371,117.8322 223.5911,93.6632 236.9411,77.3062 C250.2921,60.9482 274.4611,58.5022 290.8181,71.8532 C307.1751,85.2032 309.6221,109.3722 296.2711,125.7292" id="Fill-49" fill="#7996A5" mask="url(#mask-2)"></path>
                <path d="M242.2321,81.6242 C231.2631,95.0632 233.2731,114.9222 246.7121,125.8922 C260.1531,136.8612 280.0121,134.8512 290.9811,121.4112 C301.9501,107.9712 299.9401,88.1122 286.5001,77.1432 C273.0601,66.1742 253.2011,68.1842 242.2321,81.6242 Z M296.2711,125.7292 C282.9211,142.0862 258.7521,144.5332 242.3951,131.1832 C226.0371,117.8322 223.5911,93.6632 236.9411,77.3062 C250.2921,60.9482 274.4611,58.5022 290.8181,71.8532 C307.1751,85.2032 309.6221,109.3722 296.2711,125.7292 Z" id="Stroke-50" stroke="#0B567F" stroke-width="2" mask="url(#mask-2)"></path>
                <path d="M339.154,173.7644 C337.577,173.7644 336.062,173.1854 334.886,172.1344 L299.032,140.0674 L310.872,125.5604 L349.473,154.2614 C350.869,155.2994 351.792,156.8854 352.006,158.6114 C352.22,160.3374 351.713,162.0994 350.613,163.4484 L344.114,171.4104 C343.014,172.7574 341.389,173.6084 339.654,173.7444 C339.487,173.7584 339.321,173.7644 339.154,173.7644" id="Fill-51" fill="#B6C4CE" mask="url(#mask-2)"></path>
                <path d="M310.7013,124.1877 L309.4923,125.6687 L298.8613,138.6937 L297.6523,140.1747 L299.0773,141.4497 L334.2193,172.8787 C335.5783,174.0947 337.3303,174.7647 339.1543,174.7647 C339.3463,174.7647 339.5393,174.7567 339.7333,174.7417 C341.7383,174.5837 343.6173,173.6007 344.8893,172.0417 L351.3873,164.0807 C352.6593,162.5217 353.2463,160.4837 352.9983,158.4877 C352.7513,156.4917 351.6833,154.6587 350.0693,153.4587 L312.2353,125.3287 L310.7013,124.1877 Z M311.0423,126.9337 L348.8763,155.0637 C350.0593,155.9437 350.8323,157.2707 351.0143,158.7337 C351.1953,160.1977 350.7703,161.6727 349.8383,162.8157 L343.3393,170.7777 C342.4073,171.9207 341.0473,172.6327 339.5763,172.7477 C339.4353,172.7587 339.2943,172.7647 339.1543,172.7647 C337.8303,172.7647 336.5463,172.2777 335.5523,171.3887 L300.4103,139.9587 L311.0423,126.9337 Z" id="Fill-52" fill="#0B567F" mask="url(#mask-2)"></path>
                <path d="M314.2453,129.863 L303.9233,142.51 C303.1063,143.511 301.6323,143.66 300.6303,142.843 L297.3373,140.156 C296.3363,139.339 296.1873,137.864 297.0043,136.863 L307.3273,124.216 C308.1433,123.215 309.6183,123.066 310.6193,123.883 L313.9123,126.571 C314.9133,127.388 315.0623,128.862 314.2453,129.863" id="Fill-53" fill="#7996A5" mask="url(#mask-2)"></path>
                <path d="M314.2453,129.863 L303.9233,142.51 C303.1063,143.511 301.6323,143.66 300.6303,142.843 L297.3373,140.156 C296.3363,139.339 296.1873,137.864 297.0043,136.863 L307.3273,124.216 C308.1433,123.215 309.6183,123.066 310.6193,123.883 L313.9123,126.571 C314.9133,127.388 315.0623,128.862 314.2453,129.863 Z" id="Stroke-54" stroke="#0B567F" stroke-width="2" mask="url(#mask-2)"></path>
                <path d="M284.068,80.1233 C295.884,89.7673 297.645,107.1633 288.001,118.9793 C278.357,130.7953 260.961,132.5563 249.145,122.9123 C237.329,113.2693 235.568,95.8723 245.212,84.0563 C254.856,72.2403 272.252,70.4793 284.068,80.1233" id="Fill-55" fill="#D9E4ED" mask="url(#mask-2)"></path>
                <path d="M284.068,80.1233 C295.884,89.7673 297.645,107.1633 288.001,118.9793 C278.357,130.7953 260.961,132.5563 249.145,122.9123 C237.329,113.2693 235.568,95.8723 245.212,84.0563 C254.856,72.2403 272.252,70.4793 284.068,80.1233 Z" id="Stroke-56" stroke="#0B567F" stroke-width="2" mask="url(#mask-2)"></path>
                <path d="M256.445,104.5998 C249.925,104.5998 244.512,99.7018 243.855,93.2058 C243.514,89.8398 244.505,86.5418 246.644,83.9198 C248.784,81.2988 251.817,79.6668 255.183,79.3258 C255.616,79.2828 256.047,79.2608 256.473,79.2608 C262.993,79.2608 268.405,84.1588 269.064,90.6548 C269.767,97.6048 264.685,103.8308 257.735,104.5348 C257.302,104.5788 256.871,104.5998 256.445,104.5998" id="Fill-57" fill="#F2F2F2" mask="url(#mask-2)"></path>
                <path d="M256.4738,78.261 C256.0118,78.261 255.5438,78.285 255.0828,78.331 C247.5838,79.091 242.1008,85.808 242.8598,93.307 C243.5698,100.315 249.4098,105.6 256.4448,105.6 C256.9068,105.6 257.3738,105.576 257.8358,105.53 C261.4678,105.162 264.7398,103.402 267.0488,100.573 C269.3568,97.744 270.4258,94.186 270.0578,90.554 C269.3488,83.546 263.5088,78.261 256.4738,78.261 M256.4738,80.261 C262.3898,80.261 267.4598,84.743 268.0688,90.756 C268.7178,97.167 264.0458,102.89 257.6338,103.54 C257.2348,103.58 256.8378,103.6 256.4448,103.6 C250.5288,103.6 245.4588,99.118 244.8498,93.105 C244.2008,86.694 248.8718,80.97 255.2838,80.321 C255.6828,80.281 256.0798,80.261 256.4738,80.261" id="Fill-58" fill="#0B567F" mask="url(#mask-2)"></path>
                <path d="M335.6266,75.9504 L319.6886,75.9504 C318.5626,75.9504 317.6396,75.0284 317.6396,73.9014 C317.6396,72.7734 318.5626,71.8514 319.6886,71.8514 L335.6266,71.8514 C336.7536,71.8514 337.6756,72.7734 337.6756,73.9014 C337.6756,75.0284 336.7536,75.9504 335.6266,75.9504" id="Fill-59" fill="#FFFFFF" mask="url(#mask-2)"></path>
                <path d="M335.6266,75.9504 L319.6886,75.9504 C318.5626,75.9504 317.6396,75.0284 317.6396,73.9014 C317.6396,72.7734 318.5626,71.8514 319.6886,71.8514 L335.6266,71.8514 C336.7536,71.8514 337.6756,72.7734 337.6756,73.9014 C337.6756,75.0284 336.7536,75.9504 335.6266,75.9504 Z" id="Stroke-60" stroke="#FFFFFF" stroke-width="3" mask="url(#mask-2)"></path>
                <path d="M325.6086,81.8698 L325.6086,65.9318 C325.6086,64.8058 326.5306,63.8828 327.6576,63.8828 C328.7846,63.8828 329.7076,64.8058 329.7076,65.9318 L329.7076,81.8698 C329.7076,82.9968 328.7846,83.9188 327.6576,83.9188 C326.5306,83.9188 325.6086,82.9968 325.6086,81.8698" id="Fill-61" fill="#FFFFFF" mask="url(#mask-2)"></path>
                <path d="M325.6086,81.8698 L325.6086,65.9318 C325.6086,64.8058 326.5306,63.8828 327.6576,63.8828 C328.7846,63.8828 329.7076,64.8058 329.7076,65.9318 L329.7076,81.8698 C329.7076,82.9968 328.7846,83.9188 327.6576,83.9188 C326.5306,83.9188 325.6086,82.9968 325.6086,81.8698 Z" id="Stroke-62" stroke="#FFFFFF" stroke-width="3" mask="url(#mask-2)"></path>
            </g>
        </g>
    </g>
</svg>