<?xml version="1.0" encoding="UTF-8" standalone="no"?>
<svg width="135px" height="135px" viewBox="0 0 135 135" version="1.1" xmlns="http://www.w3.org/2000/svg" xmlns:xlink="http://www.w3.org/1999/xlink">
    <!-- Generator: Sketch 50.2 (55047) - http://www.bohemiancoding.com/sketch -->
    <title>icon copy 2</title>
    <desc>Created with Sketch.</desc>
    <defs>
        <polygon id="path-1" points="0 0.201880295 72.4165577 0.201880295 72.4165577 65.3597122 0 65.3597122"></polygon>
    </defs>
    <g id="Page-1" stroke="none" stroke-width="1" fill="none" fill-rule="evenodd">
        <g id="Atlas" transform="translate(-530.000000, -2419.000000)">
            <g id="icon-copy-10" transform="translate(540.000000, 2429.000000)">
                <circle id="Oval" fill="#FFFFFF" cx="57.5" cy="57.5" r="57.5"></circle>
                <g id="Group-3" stroke-width="1" transform="translate(20.683453, 22.338129)">
                    <mask id="mask-2" fill="white">
                        <use xlink:href="#path-1"></use>
                    </mask>
                    <g id="Clip-2"></g>
                    <path d="M60.3499824,62.1373624 L12.066458,62.1373624 C7.21117521,62.1373624 3.26126727,58.2347301 3.26126727,53.437946 C3.26126727,51.914562 3.66796179,50.413609 4.43711936,49.0967462 L28.579273,7.78244668 C30.1508596,5.09419012 33.0736584,3.42423013 36.2082202,3.42423013 C39.3427819,3.42423013 42.2659722,5.09419012 43.8371673,7.78244668 L67.9789295,49.0971329 C68.7484785,50.4143825 69.155173,51.9149487 69.155173,53.437946 C69.155173,58.2347301 65.2052651,62.1373624 60.3499824,62.1373624 M70.8034797,47.4855713 L46.6617175,6.17088502 C44.5092506,2.48908348 40.5041512,0.201880295 36.2082202,0.201880295 C31.9122892,0.201880295 27.9064069,2.48908348 25.7547228,6.17127176 L1.61296063,47.4855713 C0.557668601,49.2912784 -0.000117428638,51.3495292 -0.000117428638,53.437946 C-0.000117428638,60.0118181 5.41295134,65.3597122 12.066458,65.3597122 L60.3499824,65.3597122 C67.003489,65.3597122 72.4165577,60.0118181 72.4165577,53.437946 C72.4165577,51.3495292 71.8587717,49.2912784 70.8034797,47.4855713" id="Fill-1" fill="#349CD6" mask="url(#mask-2)"></path>
                </g>
                <path d="M62.0173466,33.6120139 C60.9324469,31.761115 58.9162228,30.6115108 56.7544677,30.6115108 C54.5927127,30.6115108 52.5764885,31.761115 51.4923201,33.6120139 L41.1907091,51.1969945 C40.7709367,51.9137854 41.021045,52.8338291 41.7486993,53.2479029 C42.4748911,53.6605351 43.4091407,53.4143973 43.8292788,52.6983272 L54.1305242,35.1133466 C54.6724256,34.1886179 55.6779781,33.6141761 56.7544677,33.6141761 C57.831323,33.6141761 58.8368755,34.1886179 59.3787769,35.1133466 L81.9309425,73.6110337 C82.1971397,74.0665509 82.3327978,74.5656737 82.3327978,75.0939871 C82.3327978,76.73875 80.9754848,78.0764713 79.3066333,78.0764713 L34.2026678,78.0764713 C32.5338163,78.0764713 31.1765033,76.73875 31.1765033,75.0939871 C31.1765033,74.5649529 31.3114301,74.0658301 31.5783586,73.6110337 L41.879604,56.0260531 C42.2993764,55.3096226 42.0496338,54.3895788 41.3219794,53.9755051 C40.5935938,53.5607106 39.6604411,53.8079295 39.2410342,54.5247204 L28.9397889,72.109701 C28.4019097,73.0272221 28.1294964,74.0312339 28.1294964,75.0939871 C28.1294964,78.3943243 30.8536295,81.0791367 34.2026678,81.0791367 L79.3066333,81.0791367 C82.6549403,81.0791367 85.3794391,78.3943243 85.3794391,75.0939871 C85.3794391,74.0305131 85.1070257,73.0265014 84.5695122,72.109701 L62.0173466,33.6120139 Z" id="Fill-4" fill="#349CD6"></path>
                <path d="M55.6036868,46.2952033 C55.6036868,45.4973733 56.2530988,44.8479613 57.0509288,44.8479613 C57.8487589,44.8479613 58.497841,45.4973733 58.497841,46.2952033 L58.497841,61.2752134 C58.497841,62.0730435 57.8487589,62.7224554 57.0509288,62.7224554 C56.2530988,62.7224554 55.6036868,62.0730435 55.6036868,61.2752134 L55.6036868,46.2952033 Z M57.0509288,65.3765019 C59.3118322,65.3765019 61.1515578,63.5364465 61.1515578,61.2752134 L61.1515578,46.2952033 C61.1515578,44.0343 59.3118322,42.1942446 57.0509288,42.1942446 C54.7893659,42.1942446 52.9496403,44.0343 52.9496403,46.2952033 L52.9496403,61.2752134 C52.9496403,63.5364465 54.7893659,65.3765019 57.0509288,65.3765019 Z" id="Fill-6" fill="#F7941D"></path>
                <path d="M57.0509288,68.8410969 C57.8487589,68.8410969 58.4981708,69.4905088 58.4981708,70.2883389 C58.4981708,71.086169 57.8487589,71.7352511 57.0509288,71.7352511 C56.2530988,71.7352511 55.6036868,71.086169 55.6036868,70.2883389 C55.6036868,69.4905088 56.2530988,68.8410969 57.0509288,68.8410969 M57.0509288,74.3892977 C59.3118322,74.3892977 61.1518876,72.5495721 61.1518876,70.2883389 C61.1518876,68.0267759 59.3118322,66.1870504 57.0509288,66.1870504 C54.7896957,66.1870504 52.9496403,68.0267759 52.9496403,70.2883389 C52.9496403,72.5495721 54.7896957,74.3892977 57.0509288,74.3892977" id="Fill-8" fill="#F7941D"></path>
            </g>
        </g>
    </g>
</svg>