<?xml version="1.0" encoding="UTF-8" standalone="no"?>
<svg width="135px" height="135px" viewBox="0 0 135 135" version="1.1" xmlns="http://www.w3.org/2000/svg" xmlns:xlink="http://www.w3.org/1999/xlink">
    <!-- Generator: Sketch 50.2 (55047) - http://www.bohemiancoding.com/sketch -->
    <title>icon copy 8</title>
    <desc>Created with Sketch.</desc>
    <defs>
        <polygon id="path-1" points="0 50.4676259 66.1870504 50.4676259 66.1870504 0 0 0"></polygon>
    </defs>
    <g id="Page-1" stroke="none" stroke-width="1" fill="none" fill-rule="evenodd">
        <g id="Atlas" transform="translate(-781.000000, -2668.000000)">
            <g id="icon-copy-19" transform="translate(791.000000, 2678.000000)">
                <circle id="Oval" fill="#FFFFFF" cx="57.5" cy="57.5" r="57.5"></circle>
                <g id="Group" stroke-width="1" transform="translate(24.820144, 32.266187)">
                    <path d="M22.902205,11.7330842 L19.7059141,11.7330842 L19.7059141,8.53669993 C19.7059141,7.47726347 18.8469699,6.61870504 17.7879752,6.61870504 C16.7285697,6.61870504 15.8700363,7.47726347 15.8700363,8.53669993 L15.8700363,11.7330842 L12.6733346,11.7330842 C11.6143398,11.7330842 10.7553957,12.5916427 10.7553957,13.6510791 C10.7553957,14.7101048 11.6143398,15.569074 12.6733346,15.569074 L15.8700363,15.569074 L15.8700363,18.7654583 C15.8700363,19.8248948 16.7285697,20.6834532 17.7879752,20.6834532 C18.8469699,20.6834532 19.7059141,19.8248948 19.7059141,18.7654583 L19.7059141,15.569074 L22.902205,15.569074 C23.9611997,15.569074 24.8201439,14.7101048 24.8201439,13.6510791 C24.8201439,12.5916427 23.9611997,11.7330842 22.902205,11.7330842" id="Fill-1" fill="#F7941D"></path>
                    <path d="M20.0066188,36.4030272 L21.7927282,34.616864 C22.5199299,33.8896403 22.5199299,32.7110915 21.7927282,31.9842666 C21.0659252,31.257043 19.8874119,31.257043 19.1602102,31.9842666 L17.3741007,33.7700312 L15.5879913,31.9842666 C14.8611882,31.257043 13.6826749,31.257043 12.9554732,31.9842666 C12.2282715,32.7110915 12.2282715,33.8896403 12.9554732,34.616864 L14.7415827,36.4030272 L12.9554732,38.1891905 C12.2282715,38.9164141 12.2282715,40.0949629 12.9554732,40.8217878 C13.6822762,41.5486127 14.8611882,41.5486127 15.5879913,40.8217878 L17.3741007,39.0356245 L19.1602102,40.8217878 C19.8870132,41.5486127 21.0659252,41.5486127 21.7927282,40.8217878 C22.5199299,40.0949629 22.5199299,38.9164141 21.7927282,38.1891905 L20.0066188,36.4030272 Z" id="Fill-3" fill="#F7941D"></path>
                    <path d="M54.3497195,11.5827338 L41.6215035,11.5827338 C40.5672935,11.5827338 39.7122302,12.5085941 39.7122302,13.6510791 C39.7122302,14.7931212 40.5672935,15.7194245 41.6215035,15.7194245 L54.3497195,15.7194245 C55.4043385,15.7194245 56.2589928,14.7931212 56.2589928,13.6510791 C56.2589928,12.5085941 55.4043385,11.5827338 54.3497195,11.5827338" id="Fill-5" fill="#F7941D"></path>
                    <path d="M53.5137158,31.4388489 L43.2848454,31.4388489 C42.2258506,31.4388489 41.3669065,32.3651522 41.3669065,33.5071942 C41.3669065,34.6496793 42.2258506,35.5755396 43.2848454,35.5755396 L53.5137158,35.5755396 C54.5727105,35.5755396 55.4316547,34.6496793 55.4316547,33.5071942 C55.4316547,32.3651522 54.5727105,31.4388489 53.5137158,31.4388489" id="Fill-7" fill="#F7941D"></path>
                    <path d="M53.5137158,38.057554 L43.2848454,38.057554 C42.2258506,38.057554 41.3669065,38.9838572 41.3669065,40.1258993 C41.3669065,41.2679413 42.2258506,42.1942446 43.2848454,42.1942446 L53.5137158,42.1942446 C54.5727105,42.1942446 55.4316547,41.2679413 55.4316547,40.1258993 C55.4316547,38.9838572 54.5727105,38.057554 53.5137158,38.057554" id="Fill-9" fill="#F7941D"></path>
                    <mask id="mask-2" fill="white">
                        <use xlink:href="#path-1"></use>
                    </mask>
                    <g id="Clip-12"></g>
                    <path d="M35.0322144,23.2927184 L62.3088412,23.2927184 L62.3088412,3.88218903 L35.0322144,3.88218903 L35.0322144,23.2927184 Z M35.0322144,46.5858526 L62.3088412,46.5858526 L62.3088412,27.1753232 L35.0322144,27.1753232 L35.0322144,46.5858526 Z M3.87820913,23.2927184 L31.1548359,23.2927184 L31.1548359,3.88218903 L3.87820913,3.88218903 L3.87820913,23.2927184 Z M3.87820913,46.5858526 L31.1548359,46.5858526 L31.1548359,27.1753232 L3.87820913,27.1753232 L3.87820913,46.5858526 Z M64.2479458,0 L1.93910457,0 C0.868423141,0 0,0.869314335 0,1.94109451 L0,48.5265314 C0,49.5987273 0.868423141,50.4676259 1.93910457,50.4676259 L64.2479458,50.4676259 C65.3186272,50.4676259 66.1870504,49.5987273 66.1870504,48.5265314 L66.1870504,1.94109451 C66.1870504,0.869314335 65.3186272,0 64.2479458,0 Z" id="Fill-11" fill="#349CD6" mask="url(#mask-2)"></path>
                </g>
            </g>
        </g>
    </g>
</svg>