<?xml version="1.0" encoding="UTF-8" standalone="no"?>
<svg width="156px" height="156px" viewBox="0 0 156 156" version="1.1" xmlns="http://www.w3.org/2000/svg" xmlns:xlink="http://www.w3.org/1999/xlink">
    <!-- Generator: Sketch 50.2 (55047) - http://www.bohemiancoding.com/sketch -->
    <title>icon</title>
    <desc>Created with Sketch.</desc>
    <defs>
        <polygon id="path-1" points="0 0.325601578 65.0066654 0.325601578 65.0066654 75.7553957 0 75.7553957"></polygon>
    </defs>
    <g id="Page-1" stroke="none" stroke-width="1" fill="none" fill-rule="evenodd">
        <g id="Atlas" transform="translate(-307.000000, -1655.000000)">
            <g id="icon-copy-24" transform="translate(320.000000, 1668.000000)">
                <circle id="Oval" stroke="#FFD762" stroke-width="6" fill="#FFFFFF" cx="65" cy="65" r="65"></circle>
                <g id="Group" stroke-width="1" transform="translate(32.733813, 27.122302)">
                    <g id="Group-3">
                        <mask id="mask-2" fill="white">
                            <use xlink:href="#path-1"></use>
                        </mask>
                        <g id="Clip-2"></g>
                        <path d="M63.5639348,0.483954792 L63.5634463,0.483466048 C62.719207,0.161872175 61.7479411,0.340752657 61.0927762,0.941908378 L56.6614974,5.01266122 L52.2297299,0.941908378 C51.7973505,0.544559109 51.2262187,0.325601578 50.6223532,0.325601578 C50.0175105,0.325601578 49.4463787,0.544559109 49.0144878,0.941908378 L44.5822318,5.01266122 L40.1504644,0.941908378 C39.7175964,0.544559109 39.1464646,0.325601578 38.5430876,0.325601578 C37.9387335,0.325601578 37.3676017,0.544559109 36.9352223,0.941908378 L32.5034548,5.01266122 L28.0716874,0.941908378 C27.639308,0.544559109 27.0681762,0.325601578 26.4633335,0.325601578 C25.8599565,0.325601578 25.2888248,0.544559109 24.8554682,0.941908378 L20.4241893,5.01266122 L15.9924219,0.941908378 C15.5600424,0.544559109 14.9889107,0.325601578 14.3845565,0.325601578 C13.7811795,0.325601578 13.2100478,0.544559109 12.7766912,0.941908378 L8.34541233,5.01266122 L3.9136449,0.941908378 C3.25945721,0.341241402 2.2901455,0.161872175 1.44346344,0.483466048 C0.56649039,0.817278533 -0.000244282186,1.61002209 -0.000244282186,2.50344702 L-0.000244282186,30.8897269 C-0.000244282186,32.0905721 1.03453506,33.0675723 2.30577956,33.0675723 C3.57702405,33.0675723 4.61131483,32.0905721 4.61131483,30.8897269 L4.61131483,7.65970137 L6.73754698,9.61321309 C7.17090358,10.0095849 7.74154676,10.2280537 8.34541233,10.2280537 C8.94927789,10.2280537 9.52040964,10.0095849 9.95327768,9.6122356 L14.3845565,5.54148276 L18.8173011,9.61321309 C19.2501691,10.0095849 19.8208123,10.2280537 20.4241893,10.2280537 C21.0280549,10.2280537 21.5991866,10.0095849 22.0320547,9.6122356 L26.4633335,5.54148276 L30.8955895,9.6122356 C31.7969908,10.4401688 33.2094304,10.4411463 34.1113202,9.6122356 L38.5425991,5.54148276 L42.974855,9.61321309 C43.4077231,10.0095849 43.9788548,10.2280537 44.5817433,10.2280537 C45.1860974,10.2280537 45.7572291,10.0095849 46.1896086,9.6122356 L50.6218646,5.54148276 L55.0541206,9.61321309 C55.4869886,10.0095849 56.0581204,10.2280537 56.6610088,10.2280537 C57.2648744,10.2280537 57.8360061,10.0095849 58.2688742,9.6122356 L60.3951063,7.65970137 L60.3951063,68.4218824 L58.2688742,66.4693482 C57.8364947,66.0715101 57.2653629,65.8525526 56.6610088,65.8525526 C56.0576318,65.8525526 55.4865001,66.0715101 55.0531435,66.4693482 L50.6218646,70.5396123 L46.1896086,66.4693482 C45.7577177,66.0715101 45.186586,65.8525526 44.5817433,65.8525526 C43.9783663,65.8525526 43.4072345,66.0715101 42.9738779,66.4693482 L38.5425991,70.5396123 L34.1113202,66.4688594 C33.2079647,65.6409262 31.7969908,65.641415 30.8955895,66.4693482 L26.4633335,70.5396123 L22.0320547,66.4693482 C21.5996752,66.0715101 21.0285434,65.8525526 20.4241893,65.8525526 C19.8198352,65.8525526 19.2487034,66.0715101 18.816324,66.4693482 L14.3845565,70.5396123 L9.95327768,66.4693482 C9.52089821,66.0715101 8.94976646,65.8525526 8.34541233,65.8525526 C7.74154676,65.8525526 7.17041501,66.0715101 6.73754698,66.4693482 L4.61180339,68.4213936 L4.61180339,44.3966696 C4.61180339,43.1963131 3.57751262,42.2193129 2.30577956,42.2193129 C1.03502362,42.2193129 0.000244282186,43.1963131 0.000244282186,44.3966696 L0.000244282186,73.577648 C0.000244282186,74.4715617 0.567467519,75.2643052 1.44346344,75.5971402 C2.2901455,75.9187341 3.25994577,75.7403424 3.9136449,75.1391866 L8.34590089,71.0684338 L12.7776683,75.1396754 C13.2100478,75.5365359 13.7811795,75.7554934 14.3850451,75.7554934 C14.9889107,75.7554934 15.5600424,75.5365359 15.9929104,75.1391866 L20.4241893,71.0684338 L24.8564453,75.1396754 C25.2888248,75.5365359 25.8599565,75.7554934 26.4638221,75.7554934 C27.0676876,75.7554934 27.6383308,75.5365359 28.0716874,75.1391866 L32.5034548,71.0684338 L36.9357108,75.1396754 C37.3680903,75.5365359 37.9392221,75.7554934 38.5430876,75.7554934 C39.1464646,75.7554934 39.7171078,75.5365359 40.150953,75.1391866 L44.5822318,71.0684338 L49.0149764,75.1396754 C49.4468673,75.5365359 50.017999,75.7554934 50.6223532,75.7554934 C51.2252416,75.7554934 51.7963733,75.5365359 52.2302185,75.1391866 L56.6614974,71.0684338 L61.0932648,75.1391866 C61.5256443,75.5365359 62.0962874,75.7554934 62.7011301,75.7554934 C62.9981773,75.7554934 63.2883845,75.7022203 63.5634463,75.597629 C64.4404193,75.2643052 65.0066654,74.4715617 65.0066654,73.5781367 L65.0066654,2.50344702 C65.0066654,1.61051084 64.4404193,0.818256022 63.5639348,0.483954792" id="Fill-1" fill="#349CD6" mask="url(#mask-2)"></path>
                    </g>
                    <path d="M32.2659422,36.1972077 C30.8049275,36.1972077 29.6162308,35.2068734 29.6162308,33.9898124 C29.6162308,32.7845295 28.63716,31.8035194 27.4337698,31.8035194 C26.2308694,31.8035194 25.2517986,32.7845295 25.2517986,33.9898124 C25.2517986,36.8700265 27.21043,39.3669645 30.0839709,40.2439355 L30.0839709,40.8352897 C30.0839709,42.0405727 31.0630418,43.0215827 32.2659422,43.0215827 C33.4693323,43.0215827 34.4484032,42.0405727 34.4484032,40.8352897 L34.4484032,40.2439355 C37.3219441,39.3669645 39.2805755,36.8700265 39.2805755,33.9898124 C39.2805755,30.361204 36.1337371,27.4093404 32.2659422,27.4093404 C30.8049275,27.4093404 29.6162308,26.4190061 29.6162308,25.2019451 C29.6162308,23.9843934 30.8049275,22.9945498 32.2659422,22.9945498 C33.7269568,22.9945498 34.9161433,23.9843934 34.9161433,25.2019451 C34.9161433,26.4072281 35.8952141,27.3882381 37.0986043,27.3882381 C38.3015047,27.3882381 39.2805755,26.4072281 39.2805755,25.2019451 C39.2805755,22.321731 37.3219441,19.824793 34.4484032,18.947822 L34.4484032,18.0860643 C34.4484032,16.8802906 33.4693323,15.8992806 32.2659422,15.8992806 C31.0630418,15.8992806 30.0839709,16.8802906 30.0839709,18.0860643 L30.0839709,18.947822 C27.21043,19.824793 25.2517986,22.321731 25.2517986,25.2019451 C25.2517986,28.8300628 28.398637,31.7824172 32.2659422,31.7824172 C33.7269568,31.7824172 34.9161433,32.7722607 34.9161433,33.9898124 C34.9161433,35.2068734 33.7269568,36.1972077 32.2659422,36.1972077" id="Fill-4" fill="#F7941D"></path>
                    <path d="M41.8395051,55.862062 C41.4018928,56.2944756 41.1510791,56.8984902 41.1510791,57.5177232 C41.1510791,58.1353819 41.4013681,58.738347 41.8363568,59.1712853 C42.2713454,59.6068476 42.8742428,59.8561151 43.4897333,59.8561151 C44.1046992,59.8561151 44.7075966,59.6068476 45.1425852,59.1712853 C45.5775738,58.7362479 45.8273381,58.1332828 45.8273381,57.5177232 C45.8273381,56.9037379 45.5780986,56.3018224 45.1441594,55.866785 C44.7102202,55.4301732 44.106798,55.1798561 43.4897333,55.1798561 C42.8721439,55.1798561 42.2687218,55.4301732 41.8395051,55.862062" id="Fill-6" fill="#F7941D"></path>
                    <path d="M21.8423642,59.8561151 L37.0784991,59.8561151 C38.2927051,59.8561151 39.2805755,58.8070924 39.2805755,57.5177232 C39.2805755,56.2288789 38.2927051,55.1798561 37.0784991,55.1798561 L21.8423642,55.1798561 C20.6281582,55.1798561 19.6402878,56.2288789 19.6402878,57.5177232 C19.6402878,58.8070924 20.6281582,59.8561151 21.8423642,59.8561151" id="Fill-8" fill="#F7941D"></path>
                    <path d="M19.6402878,49.100457 C19.6402878,50.3898262 20.634418,51.4388489 21.8563179,51.4388489 L43.611308,51.4388489 C44.8332079,51.4388489 45.8273381,50.3898262 45.8273381,49.100457 C45.8273381,47.8116127 44.8332079,46.7625899 43.611308,46.7625899 L21.8563179,46.7625899 C20.634418,46.7625899 19.6402878,47.8116127 19.6402878,49.100457" id="Fill-10" fill="#F7941D"></path>
                    <path d="M2.3381295,41.1510791 C2.95414476,41.1510791 3.55599273,40.9007621 3.98993193,40.4662494 C4.42597,40.0312119 4.67625899,39.4287716 4.67625899,38.8126873 C4.67625899,38.1976524 4.42649471,37.5957369 3.99098136,37.1601747 C3.55651744,36.7240877 2.95414476,36.4748201 2.3381295,36.4748201 C1.72263894,36.4748201 1.12026626,36.7240877 0.685277631,37.1596499 C0.249764282,37.5946874 0,38.1971276 0,38.8126873 C0,39.4282469 0.249764282,40.0306872 0.685277631,40.4657246 C1.12026626,40.9012868 1.72263894,41.1510791 2.3381295,41.1510791" id="Fill-12" fill="#349CD6"></path>
                </g>
            </g>
        </g>
    </g>
</svg>