<?xml version="1.0" encoding="UTF-8" standalone="no"?>
<svg width="135px" height="135px" viewBox="0 0 135 135" version="1.1" xmlns="http://www.w3.org/2000/svg" xmlns:xlink="http://www.w3.org/1999/xlink">
    <!-- Generator: Sketch 50.2 (55047) - http://www.bohemiancoding.com/sketch -->
    <title>icon copy 5</title>
    <desc>Created with Sketch.</desc>
    <defs>
        <polygon id="path-1" points="0.283563417 0.0861763003 35.2358539 0.0861763003 35.2358539 37.7062434 0.283563417 37.7062434"></polygon>
    </defs>
    <g id="Page-1" stroke="none" stroke-width="1" fill="none" fill-rule="evenodd">
        <g id="Atlas" transform="translate(-1027.000000, -2419.000000)">
            <g id="icon-copy-13" transform="translate(1037.000000, 2429.000000)">
                <circle id="Oval" fill="#FFFFFF" cx="57.5" cy="57.5" r="57.5"></circle>
                <g id="Group" stroke-width="1" transform="translate(24.820144, 27.302158)">
                    <path d="M55.7481443,49.1295528 L55.7472689,49.1304282 C55.5213924,49.356272 55.3099616,49.4481852 55.0171101,49.4481852 C54.7242587,49.4481852 54.5128278,49.3558343 54.2878269,49.1308658 C54.0615127,48.9041466 53.9695862,48.6927463 53.9695862,48.3999371 C53.9695862,48.1062526 54.0610749,47.8948522 54.2865136,47.669446 C54.5137033,47.4427268 54.7251342,47.3503759 55.0171101,47.3503759 C55.3090861,47.3503759 55.5205169,47.4427268 55.7490198,47.6711968 C55.9744585,47.8957276 56.066385,48.1066902 56.066385,48.3999371 C56.066385,48.6923086 55.9740208,48.9032713 55.7481443,49.1295528 M55.0171101,43.8489209 C53.7993034,43.8489209 52.6904952,44.313739 51.8110654,45.1934796 C50.9320734,46.0714695 50.4676259,47.1801177 50.4676259,48.3999371 C50.4676259,49.6171304 50.9316356,50.725341 51.8110654,51.6059569 C52.6904952,52.4848221 53.7993034,52.9496403 55.0171101,52.9496403 C56.2357923,52.9496403 57.3446005,52.4848221 58.2231548,51.6059569 C59.1030223,50.7270917 59.5683453,49.6184435 59.5683453,48.3999371 C59.5683453,47.17968 59.1025846,46.0705941 58.2240303,45.194355 C57.3446005,44.313739 56.2353546,43.8489209 55.0171101,43.8489209" id="Fill-1" fill="#349CD6"></path>
                    <path d="M61.0646861,53.4654758 C61.0646861,53.986242 60.9047389,54.3791008 60.5449663,54.7402001 C60.1864941,55.0999943 59.7950788,55.2605313 59.2762259,55.2605313 L5.25658161,55.2605313 C4.73816225,55.2605313 4.3463135,55.0999943 3.98697433,54.7397651 C3.62806862,54.3791008 3.46768804,53.985807 3.46768804,53.4654758 L3.46768804,41.6792792 C3.46768804,41.158513 3.62806862,40.7656543 3.98654087,40.405425 C4.34674696,40.0443256 4.73859571,39.8833536 5.25658161,39.8833536 L21.5993619,39.8833536 L26.0709456,44.4040568 C27.8164931,46.0968732 29.9010071,46.9548106 32.2664038,46.9548106 C34.6305001,46.9548106 36.7145806,46.0968732 38.4826681,44.3827389 L42.9663887,39.8833536 L59.2762259,39.8833536 C59.7946453,39.8833536 60.1860606,40.0438906 60.5449663,40.4045549 L60.5458332,40.4049899 C60.9047389,40.7656543 61.0646861,41.158513 61.0646861,41.6792792 L61.0646861,53.4654758 Z M62.9974887,37.9442935 C62.9974887,37.9429883 62.9970552,37.9434234 62.9966218,37.9434234 C61.9931595,36.9358256 60.7066473,36.4028777 59.2762259,36.4028777 L41.5298989,36.4028777 L36.0526857,41.9002894 C34.959497,42.9596593 33.7210989,43.4743346 32.2664038,43.4743346 C30.8108417,43.4743346 29.5724436,42.9596593 28.5061296,41.926393 L23.042787,36.4028777 L5.25658161,36.4028777 C3.82746068,36.4028777 2.54094841,36.9353905 1.53531888,37.9438584 C0.530989732,38.9518912 0,40.2435829 0,41.6792792 L0,53.4654758 C0,54.9011721 0.530989732,56.1928638 1.53575234,57.2008966 C2.53964803,58.2084944 3.82659376,58.7410072 5.25658161,58.7410072 L59.2762259,58.7410072 C60.7070807,58.7410072 61.9940265,58.2080593 62.9966218,57.2008966 C64.0013844,56.1932988 64.5323741,54.9016072 64.5323741,53.4654758 L64.5323741,41.6792792 C64.5323741,40.2431478 64.0013844,38.9518912 62.9974887,37.9442935 Z" id="Fill-3" fill="#349CD6"></path>
                    <path d="M44.166032,49.1299905 C43.9388532,49.3558343 43.7269948,49.4481852 43.4341575,49.4481852 C43.1417579,49.4481852 42.9303372,49.3558343 42.7044716,49.1304282 C42.4790437,48.9041466 42.386684,48.6927463 42.386684,48.3999371 C42.386684,48.1062526 42.478606,47.8952899 42.7040339,47.669446 C42.9312126,47.4431645 43.1426333,47.3503759 43.4341575,47.3503759 C43.7265571,47.3503759 43.9388532,47.4431645 44.1664697,47.6698837 C44.3918976,47.8952899 44.4838196,48.1066902 44.4838196,48.3999371 C44.4838196,48.6918709 44.3918976,48.9032713 44.166032,49.1299905 M43.4341575,43.8489209 C42.2168471,43.8489209 41.1080922,44.313739 40.2291425,45.1926042 C39.349755,46.0710318 38.8848921,47.17968 38.8848921,48.3999371 C38.8848921,49.6175681 39.3488795,50.7257786 40.2287047,51.6059569 C41.1080922,52.4848221 42.2164094,52.9496403 43.4341575,52.9496403 C44.6523433,52.9496403 45.7615359,52.4852598 46.6409234,51.6068323 L46.643112,51.6046439 C47.5211864,50.725341 47.9856115,49.6171304 47.9856115,48.3999371 C47.9856115,47.1805554 47.5207486,46.0719072 46.6409234,45.1926042 C45.7606605,44.3133013 44.6514679,43.8489209 43.4341575,43.8489209" id="Fill-5" fill="#349CD6"></path>
                    <g id="Group-9" transform="translate(14.064748, 0.000000)">
                        <mask id="mask-2" fill="white">
                            <use xlink:href="#path-1"></use>
                        </mask>
                        <g id="Clip-8"></g>
                        <path d="M3.75377663,19.815256 C3.79792459,19.7124569 3.83478599,19.6647756 3.83607186,19.661276 C3.84807324,19.6564642 3.89907914,19.642466 3.99509023,19.642466 L13.5760545,19.642466 L13.5760545,3.84289432 C13.5760545,3.78296461 13.5760545,3.75234359 13.6574925,3.66922939 C13.7397877,3.58567775 13.7710771,3.58567775 13.8280836,3.58567775 L21.6949927,3.58567775 C21.7519993,3.58567775 21.7832886,3.58567775 21.8655839,3.66922939 C21.9465932,3.75234359 21.9465932,3.78471438 21.9465932,3.84289432 L21.9465932,19.6420285 L31.5271289,19.6420285 C31.6218541,19.6420285 31.67286,19.6555893 31.6771462,19.6555893 C31.6775748,19.6560267 31.717008,19.6932094 31.7572983,19.7863848 C31.7967315,19.8830597 31.8070184,19.9408022 31.8143049,19.9495511 C31.8035894,19.9644241 31.7821584,19.9928579 31.7392963,20.0335401 L17.9321293,34.1240214 L17.9012686,34.1563922 C17.8631213,34.1970744 17.8536917,34.2066982 17.7615382,34.2066982 C17.6693847,34.2066982 17.659955,34.1970744 17.6218077,34.1563922 L3.82449909,20.0742224 L3.78335148,20.0335401 C3.74306111,19.9946077 3.72120144,19.9670488 3.71262902,19.9622369 C3.71562937,19.9373027 3.72463041,19.8869967 3.75377663,19.815256 Z M15.1533796,36.5850766 C15.8451739,37.3191062 16.7461351,37.7062434 17.7615382,37.7062434 C18.7769412,37.7062434 19.6779025,37.3191062 20.3701253,36.5850766 L34.105284,22.566336 C35.242844,21.4644167 35.5411642,19.9639867 34.9128058,18.4180626 C34.2968775,16.9727504 33.0633064,16.1433582 31.5279861,16.1424833 L25.3755609,16.1424833 L25.3755609,3.84289432 C25.3755609,2.83546275 25.0000889,1.91989424 24.289864,1.19505094 C23.5796391,0.469332754 22.6821068,0.086132556 21.6949927,0.086132556 L13.8280836,0.086132556 C12.8409696,0.086132556 11.9434373,0.469332754 11.233641,1.19417605 C10.5229874,1.91901935 10.1470869,2.8350253 10.1470869,3.84289432 L10.1470869,16.1429208 L3.99509023,16.1429208 C2.46148444,16.1429208 1.2274847,16.9718755 0.598697755,18.4456215 C-0.0189450464,19.9639867 0.280232383,21.4644167 1.41779241,22.566336 L15.1533796,36.5850766 Z" id="Fill-7" fill="#F7941D" mask="url(#mask-2)"></path>
                    </g>
                </g>
            </g>
        </g>
    </g>
</svg>