<?xml version="1.0" encoding="UTF-8" standalone="no"?>
<svg width="135px" height="135px" viewBox="0 0 135 135" version="1.1" xmlns="http://www.w3.org/2000/svg" xmlns:xlink="http://www.w3.org/1999/xlink">
    <!-- Generator: Sketch 50.2 (55047) - http://www.bohemiancoding.com/sketch -->
    <title>icon copy 4</title>
    <desc>Created with Sketch.</desc>
    <defs>
        <polygon id="path-1" points="0 0 60.3956835 0 60.3956835 62.0503597 0 62.0503597"></polygon>
    </defs>
    <g id="Page-1" stroke="none" stroke-width="1" fill="none" fill-rule="evenodd">
        <g id="Atlas" transform="translate(-781.000000, -2419.000000)">
            <g id="icon-copy-12" transform="translate(791.000000, 2429.000000)">
                <circle id="Oval" fill="#FFFFFF" cx="57.5" cy="57.5" r="57.5"></circle>
                <g id="Group" stroke-width="1" transform="translate(27.302158, 26.474820)">
                    <mask id="mask-2" fill="white">
                        <use xlink:href="#path-1"></use>
                    </mask>
                    <g id="Clip-2"></g>
                    <path d="M4.07012989,44.7865379 L9.17928532,44.7865379 L9.17928532,12.2875337 L4.07012989,12.2875337 L4.07012989,44.7865379 Z M2.02886874,48.8129496 L11.2081541,48.8129496 C12.3269557,48.8129496 13.2374101,47.9122747 13.2374101,46.8058734 L13.2374101,10.2804575 C13.2374101,9.17367317 12.3269557,8.27338129 11.2081541,8.27338129 L2.02886874,8.27338129 C0.910454364,8.27338129 0,9.17367317 0,10.2804575 L0,46.8058734 C0,47.9122747 0.910454364,48.8129496 2.02886874,48.8129496 Z" id="Fill-1" fill="#F7941D" mask="url(#mask-2)"></path>
                    <path d="M19.7777442,45.5745944 L24.8867911,45.5745944 L24.8867911,23.9342252 L19.7777442,23.9342252 L19.7777442,45.5745944 Z M17.7485313,49.6402878 L26.9276216,49.6402878 C28.0463995,49.6402878 28.9568345,48.7280483 28.9568345,47.6074411 L28.9568345,21.8889618 C28.9568345,20.7683546 28.0463995,19.8561151 26.9276216,19.8561151 L17.7485313,19.8561151 C16.6301407,19.8561151 15.7197057,20.7683546 15.7197057,21.8889618 L15.7197057,47.5938603 C15.7107988,48.1359269 15.9137201,48.6465637 16.2916804,49.0322575 C16.6766112,49.4241596 17.1939831,49.6402878 17.7485313,49.6402878 Z" id="Fill-3" fill="#349CD6" mask="url(#mask-2)"></path>
                    <path d="M35.4972111,44.8019803 L40.6062782,44.8019803 L40.6062782,4.01058659 L35.4972111,4.01058659 L35.4972111,44.8019803 Z M33.4678364,48.8129496 L42.6472715,48.8129496 C43.7661386,48.8129496 44.676259,47.9130748 44.676259,46.8076563 L44.676259,2.00529329 C44.676259,0.899492125 43.7661386,0 42.6472715,0 L33.4678364,0 C32.3489693,0 31.4388489,0.899492125 31.4388489,2.00529329 L31.4388489,46.8076563 C31.4388489,47.9130748 32.3489693,48.8129496 33.4678364,48.8129496 Z" id="Fill-4" fill="#F7941D" mask="url(#mask-2)"></path>
                    <path d="M51.2163981,44.8181016 L56.3255536,44.8181016 L56.3255536,18.071033 L51.2163981,18.071033 L51.2163981,44.8181016 Z M58.3668147,14.0647482 L49.1875294,14.0647482 C48.0687277,14.0647482 47.1582734,14.9610062 47.1582734,16.0623628 L47.1582734,46.8157162 C47.1582734,47.9166916 48.0687277,48.8129496 49.1875294,48.8129496 L58.3668147,48.8129496 C59.4856164,48.8129496 60.3956835,47.9166916 60.3956835,46.8157162 L60.3956835,16.0623628 C60.3956835,14.9610062 59.4856164,14.0647482 58.3668147,14.0647482 Z" id="Fill-5" fill="#349CD6" mask="url(#mask-2)"></path>
                    <path d="M58.3869809,54.6043165 L2.02065909,54.6043165 C0.906770283,54.6043165 0,55.5323974 0,56.6724645 C0,57.8129263 0.906770283,58.7410072 2.02065909,58.7410072 L58.3750244,58.7410072 C59.4889132,58.7410072 60.3956835,57.8129263 60.3956835,56.6724645 C60.3956835,55.5323974 59.4946986,54.6043165 58.3869809,54.6043165" id="Fill-6" fill="#349CD6" mask="url(#mask-2)"></path>
                </g>
            </g>
        </g>
    </g>
</svg>