<?xml version="1.0" encoding="UTF-8" standalone="no"?>
<svg width="293px" height="185px" viewBox="0 0 293 185" version="1.1" xmlns="http://www.w3.org/2000/svg" xmlns:xlink="http://www.w3.org/1999/xlink">
    <!-- Generator: Sketch 50.2 (55047) - http://www.bohemiancoding.com/sketch -->
    <title>Group</title>
    <desc>Created with Sketch.</desc>
    <defs>
        <polygon id="path-1" points="0 186 293 186 293 0 0 0"></polygon>
    </defs>
    <g id="Page-1" stroke="none" stroke-width="1" fill="none" fill-rule="evenodd">
        <g id="Atlas" transform="translate(-857.000000, -1309.000000)">
            <g id="Group" transform="translate(857.000000, 1309.000000)">
                <path d="M55.6447068,32.9308065 C60.2123775,33.3807123 62.448719,33.7489087 63.3717519,37.1595173 C64.1667579,40.0929837 62.9752814,41.8623441 59.6228341,42.7298755 C56.5057912,43.5358726 55.0365788,42.6269822 53.7397899,41.8250201 C52.8704457,41.2883612 51.8854642,40.6790718 50.6144871,41.0079267 C48.6754985,41.5092791 47.7080692,43.8778413 48.1695856,45.5806238 C48.92639,48.3748817 53.233877,50.2753805 58.0359196,50.0554714 L58.3580518,51.2437876 C58.8939065,53.2179257 60.9722793,54.3981718 62.9928334,53.8766443 C65.0123551,53.3530992 66.2213837,51.3224707 65.6865615,49.3483325 L65.3427472,48.0813333 C70.156147,45.4807568 72.019765,40.7809562 70.4627922,35.0330568 C68.2099311,26.7168611 61.4699324,26.0884053 57.4422463,25.7131476 L56.9714375,25.6687623 C52.9685308,25.3025833 51.1720238,25.0433327 50.5411814,22.7131032 C50.1891073,21.4158412 50.4017972,20.493837 51.2298424,19.7191113 C52.0950567,18.9070617 53.4176576,18.4420245 54.3747622,18.194879 C56.6864743,17.5966859 58.1164526,17.9043569 59.1592527,18.1272922 C59.9016024,18.2866759 60.6026531,18.4379895 61.380107,18.2372468 C63.5658572,17.6723427 64.1853424,15.1817207 63.7775147,13.6766548 C62.9102354,10.4728414 57.9502241,10.6261725 55.2854054,10.9550274 L54.9601757,9.75561491 C54.4253534,7.78147675 52.3469807,6.60123064 50.327459,7.12376696 C48.3069049,7.64630327 47.0989088,9.67693183 47.633731,11.6500612 L48.0797603,13.2983708 C43.7619486,15.8616232 42.1192804,19.9248978 43.4501411,24.8385549 C45.3674477,31.9159966 51.0656788,32.4788832 55.6447068,32.9308065" id="Fill-1" fill="#F9912B"></path>
                <path d="M55.6447068,32.9308065 C60.2123775,33.3807123 62.448719,33.7489087 63.3717519,37.1595173 C64.1667579,40.0929837 62.9752814,41.8623441 59.6228341,42.7298755 C56.5057912,43.5358726 55.0365788,42.6269822 53.7397899,41.8250201 C52.8704457,41.2883612 51.8854642,40.6790718 50.6144871,41.0079267 C48.6754985,41.5092791 47.7080692,43.8778413 48.1695856,45.5806238 C48.92639,48.3748817 53.233877,50.2753805 58.0359196,50.0554714 L58.3580518,51.2437876 C58.8939065,53.2179257 60.9722793,54.3981718 62.9928334,53.8766443 C65.0123551,53.3530992 66.2213837,51.3224707 65.6865615,49.3483325 L65.3427472,48.0813333 C70.156147,45.4807568 72.019765,40.7809562 70.4627922,35.0330568 C68.2099311,26.7168611 61.4699324,26.0884053 57.4422463,25.7131476 L56.9714375,25.6687623 C52.9685308,25.3025833 51.1720238,25.0433327 50.5411814,22.7131032 C50.1891073,21.4158412 50.4017972,20.493837 51.2298424,19.7191113 C52.0950567,18.9070617 53.4176576,18.4420245 54.3747622,18.194879 C56.6864743,17.5966859 58.1164526,17.9043569 59.1592527,18.1272922 C59.9016024,18.2866759 60.6026531,18.4379895 61.380107,18.2372468 C63.5658572,17.6723427 64.1853424,15.1817207 63.7775147,13.6766548 C62.9102354,10.4728414 57.9502241,10.6261725 55.2854054,10.9550274 L54.9601757,9.75561491 C54.4253534,7.78147675 52.3469807,6.60123064 50.327459,7.12376696 C48.3069049,7.64630327 47.0989088,9.67693183 47.633731,11.6500612 L48.0797603,13.2983708 C43.7619486,15.8616232 42.1192804,19.9248978 43.4501411,24.8385549 C45.3674477,31.9159966 51.0656788,32.4788832 55.6447068,32.9308065 Z" id="Stroke-3" stroke="#0B567F" stroke-width="2" stroke-linecap="round"></path>
                <path d="M148.5,48.4134608 C147.629977,48.4134608 146.790582,48.2683319 146,48 L146,61 L151,61 L151,48 C150.210375,48.2683319 149.370023,48.4134608 148.5,48.4134608" id="Fill-5" fill="#135693"></path>
                <path d="M148.5,50 C142.710319,50 138,45.289681 138,39.5 C138,33.7092852 142.710319,29 148.5,29 C154.289681,29 159,33.7092852 159,39.5 C159,45.289681 154.289681,50 148.5,50" id="Fill-7" fill="#2BB3E2"></path>
                <path d="M148.5,28 C142.159331,28 137,33.1593313 137,39.5 C137,45.8416995 142.159331,51 148.5,51 C154.8417,51 160,45.8416995 160,39.5 C160,33.1593313 154.8417,28 148.5,28 M148.5,30.0616708 C153.712935,30.0616708 157.938329,34.2880961 157.938329,39.5 C157.938329,44.7129347 153.712935,48.9383292 148.5,48.9383292 C143.287065,48.9383292 139.061671,44.7129347 139.061671,39.5 C139.061671,34.2880961 143.287065,30.0616708 148.5,30.0616708" id="Fill-9" fill="#0B567F"></path>
                <path d="M208.508673,76 L203,76 L203,127 L208.508673,127 C211.528801,127 214,124.520137 214,121.48942 L214,81.5105802 C214,78.4798635 211.528801,76 208.508673,76" id="Fill-11" fill="#B6C4CE"></path>
                <path d="M208.508673,76 L203,76 L203,127 L208.508673,127 C211.528801,127 214,124.520137 214,121.48942 L214,81.5105802 C214,78.4798635 211.528801,76 208.508673,76 Z" id="Stroke-13" stroke="#0B567F" stroke-width="2" stroke-linecap="round" stroke-linejoin="round"></path>
                <path d="M95,76 L89.3157942,76 C86.3922062,76 84,78.4799133 84,81.5106908 L84,121.490333 C84,124.521111 86.3922062,127 89.3157942,127 L95,127 L95,76 Z" id="Fill-15" fill="#B6C4CE"></path>
                <path d="M95,76 L89.3157942,76 C86.3922062,76 84,78.4799133 84,81.5106908 L84,121.490333 C84,124.521111 86.3922062,127 89.3157942,127 L95,127 L95,76 Z" id="Stroke-17" stroke="#0B567F" stroke-width="2" stroke-linecap="round" stroke-linejoin="round"></path>
                <mask id="mask-2" fill="white">
                    <use xlink:href="#path-1"></use>
                </mask>
                <g id="Clip-20"></g>
                <polygon id="Fill-19" fill="#B6C4CE" mask="url(#mask-2)" points="137 149 161 149 161 140 137 140"></polygon>
                <polygon id="Stroke-21" stroke="#0B567F" stroke-width="2" stroke-linecap="round" stroke-linejoin="round" mask="url(#mask-2)" points="137 149 161 149 161 140 137 140"></polygon>
                <path d="M118,159 L118,152.137633 C118,149.856578 119.865638,148 122.157823,148 L173.842177,148 C176.135378,148 178,149.856578 178,152.137633 L178,159 L118,159 Z" id="Fill-22" fill="#F2F2F2" mask="url(#mask-2)"></path>
                <path d="M173.829188,147 L122.170812,147 C119.319455,147 117,149.305573 117,152.139863 L117,157.981993 L117,160 L119.030158,160 L176.969842,160 L179,160 L179,157.981993 L179,152.139863 C179,149.305573 176.680545,147 173.829188,147 M173.829188,149.018007 C175.556853,149.018007 176.969842,150.423549 176.969842,152.139863 L176.969842,157.981993 L119.030158,157.981993 L119.030158,152.139863 C119.030158,150.423549 120.443147,149.018007 122.170812,149.018007 L173.829188,149.018007" id="Fill-23" fill="#0B567F" mask="url(#mask-2)"></path>
                <path d="M193.524758,157 L103.475242,157 C100.463961,157 98,158.221222 98,159.713715 L98,184 L199,184 L199,159.713715 C199,158.221222 196.536039,157 193.524758,157" id="Fill-24" fill="#B6C4CE" mask="url(#mask-2)"></path>
                <path d="M193.524758,157 L103.475242,157 C100.463961,157 98,158.221222 98,159.713715 L98,184 L199,184 L199,159.713715 C199,158.221222 196.536039,157 193.524758,157 Z" id="Stroke-25" stroke="#0B567F" stroke-width="2" stroke-linecap="round" stroke-linejoin="round" mask="url(#mask-2)"></path>
                <path d="M100.462129,142 C96.8983879,142 94,139.091781 94,135.5172 L94,66.4817838 C94,62.9082193 96.8983879,60 100.462129,60 L197.537871,60 C201.100599,60 204,62.9082193 204,66.4817838 L204,135.5172 C204,139.091781 201.100599,142 197.537871,142 L100.462129,142 Z" id="Fill-26" fill="#F2F2F2" mask="url(#mask-2)"></path>
                <path d="M198.460129,59 L100.539871,59 C96.3822671,59 93,62.3630462 93,66.4947597 L93,135.504225 C93,139.636954 96.3822671,143 100.539871,143 L198.460129,143 C202.617733,143 206,139.636954 206,135.504225 L206,66.4947597 C206,62.3630462 202.617733,59 198.460129,59 M198.460129,61.030825 C201.482819,61.030825 203.956951,63.4891387 203.956951,66.4947597 L203.956951,135.504225 C203.956951,138.509846 201.482819,140.969175 198.460129,140.969175 L100.539871,140.969175 C97.5161591,140.969175 95.0430487,138.509846 95.0430487,135.504225 L95.0430487,66.4947597 C95.0430487,63.4891387 97.5161591,61.030825 100.539871,61.030825 L198.460129,61.030825" id="Fill-27" fill="#0B567F" mask="url(#mask-2)"></path>
                <path d="M127.024835,121 C115.983524,121 107,112.028181 107,101 C107,89.9718195 115.983524,81 127.024835,81 L171.975165,81 C183.016476,81 192,89.9718195 192,101 C192,112.028181 183.016476,121 171.975165,121 L127.024835,121 Z" id="Fill-28" fill="#0B567F" mask="url(#mask-2)"></path>
                <path d="M171.963676,80 L127.036324,80 C115.436665,80 106,89.4200364 106,100.99949 C106,112.578944 115.436665,122 127.036324,122 L171.963676,122 C183.563335,122 193,112.578944 193,100.99949 C193,89.4200364 183.563335,80 171.963676,80 M171.963676,82.0400729 C182.452719,82.0400729 190.956547,90.527796 190.956547,100.99949 C190.956547,111.472204 182.452719,119.959927 171.963676,119.959927 L127.036324,119.959927 C116.54626,119.959927 108.043453,111.472204 108.043453,100.99949 C108.043453,90.527796 116.54626,82.0400729 127.036324,82.0400729 L171.963676,82.0400729" id="Fill-29" fill="#0B567F" mask="url(#mask-2)"></path>
                <path d="M124.5,93 C128.642225,93 132,96.3580238 132,100.499483 C132,104.641976 128.642225,108 124.5,108 C120.357775,108 117,104.641976 117,100.499483 C117,96.3580238 120.357775,93 124.5,93" id="Fill-30" fill="#6BC1DD" mask="url(#mask-2)"></path>
                <path d="M173.5,93 C177.642225,93 181,96.3580238 181,100.499483 C181,104.641976 177.642225,108 173.5,108 C169.357775,108 166,104.641976 166,100.499483 C166,96.3580238 169.357775,93 173.5,93" id="Fill-31" fill="#6BC1DD" mask="url(#mask-2)"></path>
                <g id="Group-34" mask="url(#mask-2)">
                    <g transform="translate(235.000000, 100.000000)">
                        <path d="M5.22771163,0.495 L0.775525581,9.528 C-0.789032558,12.704 6.44231628,19.282 16.9327349,24.22 C27.421107,29.159 37.197293,30.586 38.7598047,27.413 L43.213014,18.379" id="Fill-32" stroke="none" fill="#F2F2F2" fill-rule="evenodd"></path>
                        <path d="M5.22771163,0.495 L0.775525581,9.528 C-0.789032558,12.704 6.44231628,19.282 16.9327349,24.22 C27.421107,29.159 37.197293,30.586 38.7598047,27.413 L43.213014,18.379" id="Stroke-33" stroke="#0B567F" stroke-width="2" fill="none" stroke-linecap="round"></path>
                    </g>
                </g>
                <g id="Group-37" mask="url(#mask-2)">
                    <g transform="translate(239.000000, 99.000000)">
                        <path d="M3.56974359,0.0135 C2.37076923,0.2625 1.51128205,0.7415 1.13692308,1.4945 C-0.429230769,4.6695 6.82205128,11.2465 17.3348718,16.1855 C27.8476923,21.1245 37.6394872,22.5545 39.2107692,19.3785 C39.5625641,18.6665 39.445641,17.7805 38.9748718,16.7845" id="Fill-35" stroke="none" fill="#B6C4CE" fill-rule="evenodd"></path>
                        <path d="M3.56974359,0.0135 C2.37076923,0.2625 1.51128205,0.7415 1.13692308,1.4945 C-0.429230769,4.6695 6.82205128,11.2465 17.3348718,16.1855 C27.8476923,21.1245 37.6394872,22.5545 39.2107692,19.3785 C39.5625641,18.6665 39.445641,17.7805 38.9748718,16.7845" id="Stroke-36" stroke="#0B567F" stroke-width="2" fill="none" stroke-linecap="round" stroke-linejoin="round"></path>
                    </g>
                </g>
                <g id="Group-40" mask="url(#mask-2)">
                    <g transform="translate(242.000000, 86.000000)">
                        <path d="M4.77115714,0.8983 L0.315538095,9.9323 C-1.24884286,13.1053 5.98539524,19.6843 16.4804667,24.6233 C26.9765619,29.5593 36.7549667,30.9913 38.3213952,27.8153 L42.7739429,18.7823" id="Fill-38" stroke="none" fill="#F2F2F2" fill-rule="evenodd"></path>
                        <path d="M4.77115714,0.8983 L0.315538095,9.9323 C-1.24884286,13.1053 5.98539524,19.6843 16.4804667,24.6233 C26.9765619,29.5593 36.7549667,30.9913 38.3213952,27.8153 L42.7739429,18.7823" id="Stroke-39" stroke="#0B567F" stroke-width="2" fill="none" stroke-linecap="round"></path>
                    </g>
                </g>
                <g id="Group-43" mask="url(#mask-2)">
                    <g transform="translate(246.000000, 85.000000)">
                        <path d="M3.11107105,0.4159 C1.91028158,0.6659 1.05022895,1.1429 0.677676316,1.8979 C-0.891560526,5.0719 6.36449211,11.6499 16.8842289,16.5879 C27.4049921,21.5279 37.2052816,22.9569 38.7734921,19.7819 C39.1275711,19.0689 39.0105711,18.1839 38.5405184,17.1869" id="Fill-41" stroke="none" fill="#B6C4CE" fill-rule="evenodd"></path>
                        <path d="M3.11107105,0.4159 C1.91028158,0.6659 1.05022895,1.1429 0.677676316,1.8979 C-0.891560526,5.0719 6.36449211,11.6499 16.8842289,16.5879 C27.4049921,21.5279 37.2052816,22.9569 38.7734921,19.7819 C39.1275711,19.0689 39.0105711,18.1839 38.5405184,17.1869" id="Stroke-42" stroke="#0B567F" stroke-width="2" fill="none" stroke-linecap="round" stroke-linejoin="round"></path>
                    </g>
                </g>
                <g id="Group-46" mask="url(#mask-2)">
                    <g transform="translate(248.000000, 73.000000)">
                        <path d="M5.19773023,0.5741 L0.743497674,9.6061 C-0.820037209,12.7821 6.41233488,19.3611 16.9017302,24.2971 C27.3921488,29.2351 37.1621953,30.6651 38.7277767,27.4911 L43.1830326,18.4571" id="Fill-44" stroke="none" fill="#F2F2F2" fill-rule="evenodd"></path>
                        <path d="M5.19773023,0.5741 L0.743497674,9.6061 C-0.820037209,12.7821 6.41233488,19.3611 16.9017302,24.2971 C27.3921488,29.2351 37.1621953,30.6651 38.7277767,27.4911 L43.1830326,18.4571" id="Stroke-45" stroke="#0B567F" stroke-width="2" fill="none" stroke-linecap="round"></path>
                    </g>
                </g>
                <path d="M286.295443,95 C281.865259,95 275.309518,93.0790096 268.759847,89.8601642 C263.65689,87.3521472 259.143747,84.3571766 256.054051,81.4261703 C252.635555,78.1825646 251.342617,75.3825818 252.313838,73.3274728 C253.042254,71.783046 254.858235,71 257.710185,71 C262.140369,71 268.694087,72.9220221 275.242746,76.1408675 C284.786004,80.8298586 293.79509,88.2187594 291.69179,92.6725272 C290.962362,94.216954 289.146382,95 286.295443,95" id="Fill-47" fill="#B6C4CE" mask="url(#mask-2)"></path>
                <path d="M257.714911,70 C253.638952,70 252.036274,71.5797807 251.409359,72.9053557 C250.58527,74.6456874 250.602459,77.6683688 255.371058,82.1833511 C258.530911,85.1751573 263.129636,88.2245972 268.319886,90.7707715 C274.995519,94.0445711 281.711599,96 286.284033,96 C290.358981,96 291.961659,94.4212485 292.588574,93.0956735 C295.113423,87.7573527 285.591393,80.0931006 275.676025,75.2302577 C269.001403,71.9543997 262.286334,70 257.714911,70 M257.714911,72.0583462 C261.827271,72.0583462 268.168213,73.8316114 274.798344,77.0837984 C285.162665,82.1668844 292.311518,88.9357558 290.766476,92.2033804 C290.210341,93.3797253 288.599574,93.9416538 286.284033,93.9416538 C282.171673,93.9416538 275.82972,92.1694177 269.197567,88.9162016 C258.834257,83.8331156 251.684393,77.0642442 253.231458,73.7976487 C253.788603,72.6213039 255.398359,72.0583462 257.714911,72.0583462" id="Fill-48" fill="#0B567F" mask="url(#mask-2)"></path>
                <path d="M241.087033,1.48923237 C233.904751,-0.493385187 226.449725,3.73000857 224.46594,10.9002883 L222,19.8093124 L225.022667,20.642971 L227.817536,21.4154061 L230.282454,12.506382 C231.381606,8.53706534 235.507511,6.20139288 239.479166,7.29831201 C243.456951,8.39625153 245.791116,12.5165859 244.692985,16.4859026 L242.228067,25.3939063 L245.021914,26.1663415 L248.044581,27 L250.510521,18.0919963 C252.494306,10.9227369 248.268293,3.47287031 241.087033,1.48923237" id="Fill-49" fill="#FFCD50" mask="url(#mask-2)"></path>
                <path d="M241.087033,1.48923237 C233.904751,-0.493385187 226.449725,3.73000857 224.46594,10.9002883 L222,19.8093124 L225.022667,20.642971 L227.817536,21.4154061 L230.282454,12.506382 C231.381606,8.53706534 235.507511,6.20139288 239.479166,7.29831201 C243.456951,8.39625153 245.791116,12.5165859 244.692985,16.4859026 L242.228067,25.3939063 L245.021914,26.1663415 L248.044581,27 L250.510521,18.0919963 C252.494306,10.9227369 248.268293,3.47287031 241.087033,1.48923237 Z" id="Stroke-50" stroke="#0B567F" stroke-width="2" mask="url(#mask-2)"></path>
                <polygon id="Fill-51" fill="#F9912B" mask="url(#mask-2)" points="236.080391 18.642806 219.161793 14 212 39.7163931 228.917589 44.357194 245.838207 49 253 23.2846094"></polygon>
                <polygon id="Stroke-52" stroke="#0B567F" stroke-width="2" stroke-linecap="round" mask="url(#mask-2)" points="236.080391 18.642806 219.161793 14 212 39.7163931 228.917589 44.357194 245.838207 49 253 23.2846094"></polygon>
                <path d="M237.836583,29.7081054 C238.49763,27.3127632 237.093914,24.8276209 234.695606,24.1637055 C232.300321,23.5007991 229.824421,24.9113671 229.163375,27.3067093 C228.718983,28.9170573 229.208721,30.556666 230.298037,31.667564 L229.334683,35.1566513 C229.006175,36.3472595 229.705513,37.5873081 230.897613,37.9182568 C232.093744,38.2492056 233.330183,37.5449306 233.658691,36.3533134 L234.622045,32.8652351 C236.127537,32.471729 237.392191,31.3184534 237.836583,29.7081054" id="Fill-53" fill="#FFFFFF" mask="url(#mask-2)"></path>
                <path d="M237.836583,29.7081054 C238.49763,27.3127632 237.093914,24.8276209 234.695606,24.1637055 C232.300321,23.5007991 229.824421,24.9113671 229.163375,27.3067093 C228.718983,28.9170573 229.208721,30.556666 230.298037,31.667564 L229.334683,35.1566513 C229.006175,36.3472595 229.705513,37.5873081 230.897613,37.9182568 C232.093744,38.2492056 233.330183,37.5449306 233.658691,36.3533134 L234.622045,32.8652351 C236.127537,32.471729 237.392191,31.3184534 237.836583,29.7081054 Z" id="Stroke-54" stroke="#0D5984" stroke-width="2" mask="url(#mask-2)"></path>
                <g id="Group-57" mask="url(#mask-2)">
                    <g transform="translate(1.000000, 78.000000)">
                        <path d="M47.4752833,16.6193878 C51.9250958,29.344898 45.2131167,43.2653061 32.4823042,47.7142857 C19.7514917,52.1622449 5.8242625,45.4530612 1.37445,32.7265306 C-3.0753625,20.0010204 3.63661667,6.08061224 16.3674292,1.63163265 C29.0982417,-2.81632653 43.0254708,3.89387755 47.4752833,16.6193878" id="Fill-55" stroke="none" fill="#2BB3E2" fill-rule="evenodd"></path>
                        <path d="M47.4752833,16.6193878 C51.9250958,29.344898 45.2131167,43.2653061 32.4823042,47.7142857 C19.7514917,52.1622449 5.8242625,45.4530612 1.37445,32.7265306 C-3.0753625,20.0010204 3.63661667,6.08061224 16.3674292,1.63163265 C29.0982417,-2.81632653 43.0254708,3.89387755 47.4752833,16.6193878" id="Stroke-56" stroke="#0B567F" stroke-width="2" fill="none" stroke-linecap="round" stroke-linejoin="round"></path>
                    </g>
                </g>
                <g id="Group-60" mask="url(#mask-2)">
                    <g transform="translate(16.000000, 78.000000)">
                        <path d="M0.0262848485,1.9891 C0.0190727273,2.0041 0.0149515152,2.0141 0.00567878788,2.0301 L8.4768303,25.5511 C8.49331515,25.5961 8.5438,25.6191 8.58810303,25.6031 L32.8228909,17.3821 C32.830103,17.3671 32.8362848,17.3571 32.843497,17.3411 C28.6728303,3.8351 13.5098606,-3.2589 0.0262848485,1.9891" id="Fill-58" stroke="none" fill="#FFCD50" fill-rule="evenodd"></path>
                        <path d="M0.0262848485,1.9891 C0.0190727273,2.0041 0.0149515152,2.0141 0.00567878788,2.0301 L8.4768303,25.5511 C8.49331515,25.5961 8.5438,25.6191 8.58810303,25.6031 L32.8228909,17.3821 C32.830103,17.3671 32.8362848,17.3571 32.843497,17.3411 C28.6728303,3.8351 13.5098606,-3.2589 0.0262848485,1.9891" id="Stroke-59" stroke="#0B567F" stroke-width="2" fill="none"></path>
                    </g>
                </g>
            </g>
        </g>
    </g>
</svg>