<?xml version="1.0" encoding="UTF-8" standalone="no"?>
<svg width="135px" height="135px" viewBox="0 0 135 135" version="1.1" xmlns="http://www.w3.org/2000/svg" xmlns:xlink="http://www.w3.org/1999/xlink">
    <!-- Generator: Sketch 50.2 (55047) - http://www.bohemiancoding.com/sketch -->
    <title>icon</title>
    <desc>Created with Sketch.</desc>
    <defs>
        <polygon id="path-1" points="0 0 60.3956424 0 60.3956424 60.3956835 0 60.3956835"></polygon>
    </defs>
    <g id="Page-1" stroke="none" stroke-width="1" fill="none" fill-rule="evenodd">
        <g id="Atlas" transform="translate(-278.000000, -2419.000000)">
            <g id="icon-copy-16" transform="translate(288.000000, 2429.000000)">
                <circle id="Oval" fill="#FFFFFF" cx="57.5" cy="57.5" r="57.5"></circle>
                <g id="Group" stroke-width="1" transform="translate(27.302158, 27.302158)">
                    <g id="Group-3">
                        <mask id="mask-2" fill="white">
                            <use xlink:href="#path-1"></use>
                        </mask>
                        <g id="Clip-2"></g>
                        <path d="M58.6170511,55.4654236 L4.93021879,55.4654236 L4.93021879,49.3025987 L6.84932244,49.3025987 C7.8300333,49.3025987 8.62791369,48.5047183 8.62791369,47.5240075 L8.62791369,46.1509301 C8.62791369,45.1702193 7.8300333,44.3723389 6.84932244,44.3723389 L4.93021879,44.3723389 L4.93021879,38.209514 L6.84932244,38.209514 C7.8300333,38.209514 8.62791369,37.4116336 8.62791369,36.4309228 L8.62791369,35.0578454 C8.62791369,34.0771345 7.8300333,33.2792541 6.84932244,33.2792541 L4.93021879,33.2792541 L4.93021879,27.1164293 L6.84932244,27.1164293 C7.8300333,27.1164293 8.62791369,26.3185489 8.62791369,25.3378381 L8.62791369,23.9647607 C8.62791369,22.9840498 7.8300333,22.1861694 6.84932244,22.1861694 L4.93021879,22.1861694 L4.93021879,16.0233446 L6.84932244,16.0233446 C7.8300333,16.0233446 8.62791369,15.2254642 8.62791369,14.2447533 L8.62791369,12.871676 C8.62791369,11.8909651 7.8300333,11.0930847 6.84932244,11.0930847 L4.93021879,11.0930847 L4.93021879,1.77859125 C4.93021879,0.79788039 4.1323384,0 3.15162754,0 L1.77896102,0 C0.797839304,0 -4.10854989e-05,0.79788039 -4.10854989e-05,1.77859125 L-4.10854989e-05,58.6170922 C-4.10854989e-05,59.5978031 0.797839304,60.3956835 1.77896102,60.3956835 L58.6170511,60.3956835 C59.597762,60.3956835 60.3956424,59.5978031 60.3956424,58.6170922 L60.3956424,57.2440148 C60.3956424,56.263304 59.597762,55.4654236 58.6170511,55.4654236" id="Fill-1" fill="#349CD6" mask="url(#mask-2)"></path>
                    </g>
                    <path d="M29.2140741,24.2401079 C29.2140741,25.0211331 28.5700713,25.6564748 27.7783991,25.6564748 C26.9867269,25.6564748 26.3427241,25.0211331 26.3427241,24.2401079 C26.3427241,23.4590827 26.9867269,22.823741 27.7783991,22.823741 C28.5700713,22.823741 29.2140741,23.4590827 29.2140741,24.2401079 M18.1388671,38.8084532 C18.1388671,39.5894784 17.4948643,40.2248201 16.7031921,40.2248201 C15.9115199,40.2248201 15.2675171,39.5894784 15.2675171,38.8084532 C15.2675171,38.0274281 15.9115199,37.3920863 16.7031921,37.3920863 C17.4948643,37.3920863 18.1388671,38.0274281 18.1388671,38.8084532 M55.0562239,13.3138489 C55.0562239,14.0948741 54.4122211,14.7302158 53.6205489,14.7302158 C52.8288767,14.7302158 52.1848739,14.0948741 52.1848739,13.3138489 C52.1848739,12.5328237 52.8288767,11.897482 53.6205489,11.897482 C54.4122211,11.897482 55.0562239,12.5328237 55.0562239,13.3138489 M43.9810169,35.1663669 C43.9810169,35.9473921 43.3370141,36.5827338 42.5453419,36.5827338 C41.7536697,36.5827338 41.1096669,35.9473921 41.1096669,35.1663669 C41.1096669,34.3853417 41.7536697,33.75 42.5453419,33.75 C43.3370141,33.75 43.9810169,34.3853417 43.9810169,35.1663669 M53.6205489,7.44604317 C50.3410571,7.44604317 47.6727526,10.0784622 47.6727526,13.3138489 C47.6727526,14.7358813 48.1941077,16.0931655 49.1473959,17.1667716 L42.9805565,29.3305306 C42.8427317,29.3127248 42.6991642,29.2985612 42.5453419,29.2985612 C41.4710468,29.2985612 40.4234142,29.5850719 39.4980192,30.1301709 L33.5141258,25.7030126 C33.6564627,25.1870504 33.7261955,24.7058903 33.7261955,24.2401079 C33.7261955,21.0047212 31.057891,18.3723022 27.7783991,18.3723022 C24.4989073,18.3723022 21.8306027,21.0047212 21.8306027,24.2401079 C21.8306027,25.3040018 22.1210193,26.3363309 22.6735491,27.2440198 L18.185629,33.1490558 C17.660172,33.0090378 17.1728629,32.9406475 16.7031921,32.9406475 C13.4237002,32.9406475 10.7553957,35.5730665 10.7553957,38.8084532 C10.7553957,42.0438399 13.4237002,44.676259 16.7031921,44.676259 C19.9826839,44.676259 22.6509885,42.0438399 22.6509885,38.8084532 C22.6509885,37.7457734 22.3605719,36.7122302 21.8084523,35.801304 L26.2980131,29.8995054 C26.8214192,30.0395234 27.3083181,30.1079137 27.7783991,30.1079137 C28.8539248,30.1079137 29.9011471,29.8214029 30.8249015,29.276304 L36.809205,33.7042716 C36.6668681,34.2238759 36.5975455,34.7042266 36.5975455,35.1663669 C36.5975455,38.4017536 39.26585,41.0341727 42.5453419,41.0341727 C45.8248337,41.0341727 48.4931383,38.4017536 48.4931383,35.1663669 C48.4931383,33.7419065 47.9730137,32.385027 47.0225969,31.3134442 L53.1853343,19.1496853 C53.3231591,19.167491 53.4667266,19.1816547 53.6205489,19.1816547 C56.9000408,19.1816547 59.5683453,16.5492356 59.5683453,13.3138489 C59.5683453,10.0784622 56.9000408,7.44604317 53.6205489,7.44604317" id="Fill-4" fill="#F7941D"></path>
                </g>
            </g>
        </g>
    </g>
</svg>