<?xml version="1.0" encoding="UTF-8" standalone="no"?>
<svg width="135px" height="135px" viewBox="0 0 135 135" version="1.1" xmlns="http://www.w3.org/2000/svg" xmlns:xlink="http://www.w3.org/1999/xlink">
    <!-- Generator: Sketch 50.2 (55047) - http://www.bohemiancoding.com/sketch -->
    <title>icon copy 6</title>
    <desc>Created with Sketch.</desc>
    <defs>
        <polygon id="path-1" points="0 0.319881584 60.9039555 0.319881584 60.9039555 55.4776179 0 55.4776179"></polygon>
    </defs>
    <g id="Page-1" stroke="none" stroke-width="1" fill="none" fill-rule="evenodd">
        <g id="Atlas" transform="translate(-278.000000, -2668.000000)">
            <g id="icon-copy-17" transform="translate(288.000000, 2678.000000)">
                <circle id="Oval" fill="#FFFFFF" cx="57.5" cy="57.5" r="57.5"></circle>
                <g id="Group" stroke-width="1" transform="translate(27.302158, 29.784173)">
                    <path d="M47.0501511,28.1294964 L43.9566474,28.1294964 C42.984833,28.1294964 42.1942446,29.0572148 42.1942446,30.1976316 C42.1942446,31.3384687 42.984833,32.2661871 43.9566474,32.2661871 L47.0501511,32.2661871 C48.0219655,32.2661871 48.8129496,31.3384687 48.8129496,30.1976316 C48.8129496,29.0572148 48.0219655,28.1294964 47.0501511,28.1294964" id="Fill-1" fill="#F7941D"></path>
                    <path d="M47.0501511,38.057554 L43.9566474,38.057554 C42.984833,38.057554 42.1942446,38.9852723 42.1942446,40.1256891 C42.1942446,41.2665263 42.984833,42.1942446 43.9566474,42.1942446 L47.0501511,42.1942446 C48.0219655,42.1942446 48.8129496,41.2665263 48.8129496,40.1256891 C48.8129496,38.9852723 48.0219655,38.057554 47.0501511,38.057554" id="Fill-3" fill="#349CD6"></path>
                    <path d="M37.1220936,28.1294964 L34.0285899,28.1294964 C33.0567755,28.1294964 32.2661871,29.0572148 32.2661871,30.1976316 C32.2661871,31.3384687 33.0567755,32.2661871 34.0285899,32.2661871 L37.1220936,32.2661871 C38.093908,32.2661871 38.8848921,31.3384687 38.8848921,30.1976316 C38.8848921,29.0572148 38.093908,28.1294964 37.1220936,28.1294964" id="Fill-5" fill="#349CD6"></path>
                    <path d="M37.1220936,38.057554 L34.0285899,38.057554 C33.0567755,38.057554 32.2661871,38.9852723 32.2661871,40.1256891 C32.2661871,41.2665263 33.0567755,42.1942446 34.0285899,42.1942446 L37.1220936,42.1942446 C38.093908,42.1942446 38.8848921,41.2665263 38.8848921,40.1256891 C38.8848921,38.9852723 38.093908,38.057554 37.1220936,38.057554" id="Fill-7" fill="#349CD6"></path>
                    <path d="M27.194036,28.1294964 L24.1005323,28.1294964 C23.1287179,28.1294964 22.3381295,29.0572148 22.3381295,30.1976316 C22.3381295,31.3384687 23.1287179,32.2661871 24.1005323,32.2661871 L27.194036,32.2661871 C28.1658504,32.2661871 28.9568345,31.3384687 28.9568345,30.1976316 C28.9568345,29.0572148 28.1658504,28.1294964 27.194036,28.1294964" id="Fill-9" fill="#349CD6"></path>
                    <path d="M27.194036,38.057554 L24.1005323,38.057554 C23.1287179,38.057554 22.3381295,38.9852723 22.3381295,40.1256891 C22.3381295,41.2665263 23.1287179,42.1942446 24.1005323,42.1942446 L27.194036,42.1942446 C28.1658504,42.1942446 28.9568345,41.2665263 28.9568345,40.1256891 C28.9568345,38.9852723 28.1658504,38.057554 27.194036,38.057554" id="Fill-11" fill="#349CD6"></path>
                    <path d="M16.4386403,28.1294964 L13.3451366,28.1294964 C12.3733222,28.1294964 11.5827338,29.0572148 11.5827338,30.1976316 C11.5827338,31.3384687 12.3733222,32.2661871 13.3451366,32.2661871 L16.4386403,32.2661871 C17.4104547,32.2661871 18.2014388,31.3384687 18.2014388,30.1976316 C18.2014388,29.0572148 17.4104547,28.1294964 16.4386403,28.1294964" id="Fill-13" fill="#349CD6"></path>
                    <path d="M16.4386403,38.057554 L13.3451366,38.057554 C12.3733222,38.057554 11.5827338,38.9852723 11.5827338,40.1256891 C11.5827338,41.2665263 12.3733222,42.1942446 13.3451366,42.1942446 L16.4386403,42.1942446 C17.4104547,42.1942446 18.2014388,41.2665263 18.2014388,40.1256891 C18.2014388,38.9852723 17.4104547,38.057554 16.4386403,38.057554" id="Fill-15" fill="#349CD6"></path>
                    <g id="Group-19">
                        <mask id="mask-2" fill="white">
                            <use xlink:href="#path-1"></use>
                        </mask>
                        <g id="Clip-18"></g>
                        <path d="M56.4526101,17.1315671 L4.45189481,17.1315671 L4.45189481,10.4018566 L14.3029145,10.4018566 L14.3029145,12.4561023 C14.3029145,13.6868398 15.3013207,14.6877977 16.5285283,14.6877977 C17.7561283,14.6877977 18.7545345,13.6868398 18.7545345,12.4561023 L18.7545345,10.4018566 L28.2260499,10.4018566 L28.2260499,12.4561023 C28.2260499,13.6868398 29.2244561,14.6877977 30.4520562,14.6877977 C31.6796563,14.6877977 32.6780625,13.6868398 32.6780625,12.4561023 L32.6780625,10.4018566 L42.604826,10.4018566 L42.604826,12.4561023 C42.604826,13.6868398 43.6032322,14.6877977 44.8308323,14.6877977 C46.0584323,14.6877977 47.0568385,13.6868398 47.0568385,12.4561023 L47.0568385,10.4018566 L56.4526101,10.4018566 L56.4526101,17.1315671 Z M56.4522176,51.0142271 L49.8785919,51.0142271 L48.7012261,51.0142271 L48.2789442,51.0142271 L43.8249694,51.0142271 L17.0795355,51.0142271 L13.6745936,51.0142271 L12.6251682,51.0142271 L10.0443824,51.0142271 L4.45150235,51.0142271 L4.45150235,21.5953513 L56.4522176,21.5953513 L56.4522176,51.0142271 Z M60.2527544,6.59200007 C59.8320424,6.17060625 59.2731861,5.93846587 58.6786164,5.93846587 L47.0568385,5.93846587 L47.0568385,2.55118351 C47.0568385,1.320446 46.0584323,0.319488126 44.8308323,0.319488126 C43.6032322,0.319488126 42.604826,1.320446 42.604826,2.55118351 L42.604826,5.93846587 L32.6780625,5.93846587 L32.6780625,2.55118351 C32.6780625,1.320446 31.6796563,0.319488126 30.4520562,0.319488126 C29.2244561,0.319488126 28.2260499,1.320446 28.2260499,2.55118351 L28.2260499,5.93846587 L18.7545345,5.93846587 L18.7545345,2.55118351 C18.7545345,1.320446 17.7561283,0.319488126 16.5285283,0.319488126 C15.3013207,0.319488126 14.3029145,1.320446 14.3029145,2.55118351 L14.3029145,5.93846587 L2.22588854,5.93846587 C0.998288462,5.93846587 -0.00011773658,6.93942374 -0.00011773658,8.17016125 L-0.00011773658,53.2459225 C-0.00011773658,54.47666 0.998288462,55.4776179 2.22588854,55.4776179 L11.8104311,55.4776179 L13.1710735,55.4776179 L13.6745936,55.4776179 L17.8126419,55.4776179 L43.091863,55.4776179 L47.733039,55.4776179 L48.7012261,55.4776179 L58.6782239,55.4776179 C59.905824,55.4776179 60.9042302,54.47666 60.9042302,53.2459225 L60.9042302,8.17016125 C60.9046226,7.57407195 60.673074,7.01339389 60.2527544,6.59200007 Z" id="Fill-17" fill="#349CD6" mask="url(#mask-2)"></path>
                    </g>
                </g>
            </g>
        </g>
    </g>
</svg>