<?xml version="1.0" encoding="UTF-8" standalone="no"?>
<svg width="156px" height="156px" viewBox="0 0 156 156" version="1.1" xmlns="http://www.w3.org/2000/svg" xmlns:xlink="http://www.w3.org/1999/xlink">
    <!-- Generator: Sketch 50.2 (55047) - http://www.bohemiancoding.com/sketch -->
    <title>icon copy 5</title>
    <desc>Created with Sketch.</desc>
    <defs>
        <polygon id="path-1" points="0 0.439446479 79.1081873 0.439446479 79.1081873 31.7985612 0 31.7985612"></polygon>
        <polygon id="path-3" points="0.406298888 0.3994092 31.4908378 0.3994092 31.4908378 31.4843817 0.406298888 31.4843817"></polygon>
    </defs>
    <g id="Page-1" stroke="none" stroke-width="1" fill="none" fill-rule="evenodd">
        <g id="Atlas" transform="translate(-978.000000, -1957.000000)">
            <g id="icon-copy-23" transform="translate(991.000000, 1970.000000)">
                <circle id="Oval" stroke="#FFD762" stroke-width="6" fill="#FFFFFF" cx="65" cy="65" r="65"></circle>
                <g id="Group" stroke-width="1" transform="translate(26.187050, 28.992806)">
                    <g id="Group-3" transform="translate(0.000000, 35.539568)">
                        <mask id="mask-2" fill="white">
                            <use xlink:href="#path-1"></use>
                        </mask>
                        <g id="Clip-2"></g>
                        <path d="M43.0707609,14.0097233 L51.1720784,5.4694007 C51.7475738,5.47662764 54.4787386,5.51228058 55.7199554,5.57250512 L45.377132,16.4355681 L43.0707609,14.0097233 Z M39.5812102,10.3340988 L34.9650541,5.46795531 L44.1973664,5.46795531 L39.5812102,10.3340988 Z M35.8995026,21.5589908 L39.5816979,17.6853479 L43.2638933,21.5589908 C44.4075685,22.7620364 46.3418184,22.763 47.4869568,21.5604362 L61.4183356,6.92683475 C69.0777896,10.0011775 74.0177839,17.2334229 74.0177839,25.3984262 L74.0177839,26.7696187 L5.09050095,26.7696187 L5.09050095,25.398908 C5.09050095,17.2146329 10.0451265,9.97612405 17.7279905,6.91141727 L31.6764391,21.560918 C32.8210897,22.763 34.7558273,22.7620364 35.8995026,21.5589908 Z M23.4380756,5.56816896 C24.6773417,5.51035339 27.4138712,5.47614585 27.9893666,5.4694007 L36.0916595,14.0106869 L33.7867516,16.4355681 L23.4380756,5.56816896 Z M53.8432551,0.439446479 L25.2650298,0.439446479 C11.3117041,0.439446479 -0.000195083197,11.6137499 -0.000195083197,25.3984262 L-0.000195083197,28.82978 C-0.000195083197,30.4693331 1.34539127,31.7986093 3.00554928,31.7986093 L75.8705866,31.7986093 C77.6585241,31.7986093 79.1084799,30.3662287 79.1084799,28.5999632 L79.1084799,25.3984262 C79.1084799,11.6137499 67.7965807,0.439446479 53.8432551,0.439446479 Z" id="Fill-1" fill="#349CD6" mask="url(#mask-2)"></path>
                    </g>
                    <g id="Group-6" transform="translate(23.381295, 0.000000)">
                        <mask id="mask-4" fill="white">
                            <use xlink:href="#path-3"></use>
                        </mask>
                        <g id="Clip-5"></g>
                        <path d="M5.7971186,15.9416305 C5.7971186,10.3446019 10.3505762,5.79066252 15.9485683,5.79066252 C21.5460787,5.79066252 26.1000181,10.3446019 26.1000181,15.9416305 C26.1000181,21.5396226 21.5460787,26.093562 15.9485683,26.093562 C10.3505762,26.093562 5.7971186,21.5396226 5.7971186,15.9416305 M15.9485683,31.4843817 C24.5182806,31.4843817 31.4908378,24.5118245 31.4908378,15.9416305 C31.4908378,7.37191825 24.5182806,0.39936102 15.9485683,0.39936102 C7.37837432,0.39936102 0.406298888,7.37191825 0.406298888,15.9416305 C0.406298888,24.5118245 7.37837432,31.4843817 15.9485683,31.4843817" id="Fill-4" fill="#F7941D" mask="url(#mask-4)"></path>
                    </g>
                </g>
            </g>
        </g>
    </g>
</svg>