<?xml version="1.0" encoding="UTF-8" standalone="no"?>
<svg width="156px" height="156px" viewBox="0 0 156 156" version="1.1" xmlns="http://www.w3.org/2000/svg" xmlns:xlink="http://www.w3.org/1999/xlink">
    <!-- Generator: Sketch 50.2 (55047) - http://www.bohemiancoding.com/sketch -->
    <title>icon copy 2</title>
    <desc>Created with Sketch.</desc>
    <defs>
        <polygon id="path-1" points="0.000352517986 0.241726619 78.3197378 0.241726619 78.3197378 78.5611511 0.000352517986 78.5611511"></polygon>
    </defs>
    <g id="Page-1" stroke="none" stroke-width="1" fill="none" fill-rule="evenodd">
        <g id="Atlas" transform="translate(-642.000000, -1655.000000)">
            <g id="icon-copy-21" transform="translate(655.000000, 1668.000000)">
                <circle id="Oval" stroke="#FFD762" stroke-width="6" fill="#FFFFFF" cx="65" cy="65" r="65"></circle>
                <g id="Group" stroke-width="1" transform="translate(26.187050, 25.251799)">
                    <g id="Group-3">
                        <mask id="mask-2" fill="white">
                            <use xlink:href="#path-1"></use>
                        </mask>
                        <g id="Clip-2"></g>
                        <path d="M73.9344532,42.8452374 C73.9344532,43.058259 73.7874029,43.2380432 73.5748849,43.270777 L66.7033022,44.4159568 C65.8361079,44.5635108 65.1492014,45.2015683 64.9361799,46.0360288 C64.3142374,48.440705 63.365964,50.7476835 62.0893453,52.8909928 C61.6476906,53.6433669 61.6804245,54.5760288 62.1875468,55.2961727 L66.2284101,60.9893381 C66.3432302,61.1530072 66.3271151,61.3987626 66.1800647,61.5458129 L61.3042374,66.4211367 C61.1894173,66.5359568 61.0751007,66.5520719 60.993518,66.5520719 C60.8948129,66.5520719 60.8132302,66.5198417 60.7477626,66.4704892 L55.0707122,62.4296259 C54.3671871,61.9225036 53.4184101,61.8892662 52.6655324,62.3309209 C50.522223,63.6075396 48.2157482,64.5563165 45.8100647,65.178259 C44.9594892,65.390777 44.3214317,66.0943022 44.1904964,66.9448777 L43.0292014,73.8164604 C42.995964,74.029482 42.8161799,74.1765324 42.6036619,74.1765324 L35.7154604,74.1765324 C35.503446,74.1765324 35.3231583,74.029482 35.2904245,73.8164604 L34.144741,66.9448777 C33.9976906,66.0781871 33.3601367,65.390777 32.5251727,65.178259 C30.185964,64.5729353 27.9283381,63.6402734 25.817259,62.4296259 C25.4738058,62.233223 25.081,62.1350216 24.7048129,62.1350216 C24.2631583,62.1350216 23.8048849,62.2654532 23.4286978,62.5439424 L17.702295,66.6175396 C17.6207122,66.6668921 17.5391295,66.6996259 17.4570432,66.6996259 C17.3915755,66.6996259 17.2606403,66.6830072 17.1458201,66.5686906 L12.271,61.6933669 C12.123446,61.5458129 12.1073309,61.3171799 12.2216475,61.1368921 L16.2463957,55.4920719 C16.753518,54.7729353 16.7862518,53.8236547 16.3445971,53.0712806 C15.0679784,50.9440863 14.0864676,48.6371079 13.4650288,46.2324317 C13.2358921,45.3974676 12.548482,44.7599137 11.6979065,44.6123597 L4.77747482,43.434446 C4.56495683,43.4017122 4.41740288,43.2219281 4.41740288,43.0089065 L4.41740288,36.120705 C4.41740288,35.9086906 4.56495683,35.7284029 4.77747482,35.6956691 L11.6002086,34.5504892 C12.4668993,34.4029353 13.1704245,33.7653813 13.383446,32.9143022 C13.9887698,30.5096259 14.9209281,28.1865324 16.1809281,26.043223 C16.6225827,25.2903453 16.5737338,24.3576835 16.0666115,23.6541583 L11.9925108,17.9277554 C11.8776906,17.7640863 11.8943094,17.5188345 12.0418633,17.3717842 L16.9171871,12.4959568 C17.0315036,12.3816403 17.1458201,12.3655252 17.2279065,12.3655252 C17.3261079,12.3655252 17.4081942,12.3977554 17.4736619,12.4471079 L23.1179784,16.4718561 C23.8376187,16.9789784 24.7863957,17.0117122 25.5392734,16.5700576 C27.665964,15.2939424 29.9729424,14.3124317 32.3781223,13.6899856 C33.2125827,13.4613525 33.8506403,12.7739424 33.9976906,11.9238705 L35.1756043,5.00243165 C35.2088417,4.79041727 35.3886259,4.64286331 35.6011439,4.64286331 L42.4893453,4.64286331 C42.7013597,4.64286331 42.8816475,4.79041727 42.9143813,5.00243165 L44.0600647,11.8251655 C44.2071151,12.6923597 44.8451727,13.3958849 45.6957482,13.6084029 C48.1663957,14.2303453 50.522223,15.195741 52.7143813,16.4879712 C53.467259,16.9296259 54.3999209,16.8973957 55.1200647,16.3902734 L60.7643813,12.3322878 C60.845964,12.2829353 60.9280504,12.250705 61.0096331,12.250705 C61.0751007,12.250705 61.206036,12.2668201 61.3203525,12.3816403 L66.1961799,17.256964 C66.3432302,17.4040144 66.3598489,17.6336547 66.2450288,17.8134388 L62.2041655,23.4904892 C61.6965396,24.1940144 61.6643094,25.143295 62.105964,25.8956691 C63.3820791,28.0389784 64.3308561,30.3459568 64.952295,32.7506331 C65.1653165,33.6017122 65.8683381,34.2397698 66.7194173,34.370705 L73.591,35.5325036 C73.803518,35.5647338 73.9510719,35.744518 73.9510719,35.9575396 L73.9510719,42.8452374 L73.9344532,42.8452374 Z M74.3111439,31.1804173 L68.8138777,30.2472518 C68.2407842,28.3985468 67.5045252,26.6153094 66.6051007,24.9141583 L69.844741,20.3822878 C71.218554,18.4514964 71.0065396,15.8171799 69.321,14.1487626 L64.4451727,9.27293525 C63.5291295,8.35689209 62.318482,7.84976978 61.0257482,7.84976978 C60.0120072,7.84976978 59.0466115,8.16048921 58.2282662,8.74969784 L53.679777,11.9893381 C51.9126547,11.0561727 50.0644532,10.2876835 48.1502806,9.71458993 L47.2337338,4.28329496 C46.8409281,1.94307914 44.828554,0.24142446 42.4561079,0.24142446 L35.5684101,0.24142446 C33.195964,0.24142446 31.1835899,1.94307914 30.7912878,4.28329496 L29.8420072,9.84602878 C28.0099209,10.4181151 26.2266835,11.1709928 24.5250288,12.087036 L20.0253885,8.84739568 C19.2075468,8.25869065 18.226036,7.94746763 17.2112878,7.94746763 C15.9190576,7.94746763 14.6917914,8.45509353 13.7918633,9.37113669 L8.89992086,14.246964 C7.2315036,15.9153813 7.00236691,18.5496978 8.37668345,20.4804892 L11.648554,25.0778273 C10.7491295,26.7955971 10.0294892,28.5788345 9.47301439,30.4275396 L4.04121583,31.3435827 C1.7015036,31.7363885 0.000352517986,33.7492662 0.000352517986,36.120705 L0.000352517986,43.0089065 C0.000352517986,45.3813525 1.7015036,47.3937266 4.04121583,47.7865324 L9.60394964,48.7353094 C10.1765396,50.5678993 10.9294173,52.3511367 11.8454604,54.0527914 L8.62243885,58.5353094 C7.24761871,60.4661007 7.46064029,63.1004173 9.14567626,64.7688345 L14.021,69.6446619 C14.9375468,70.560705 16.1481942,71.0678273 17.4404245,71.0678273 C18.4551727,71.0678273 19.4205683,70.7571079 20.2384101,70.1678993 L24.8357482,66.8960288 C26.4880504,67.7627194 28.2224388,68.4667482 30.0061799,69.0227194 L30.922223,74.5199856 C31.3145252,76.8596978 33.3268993,78.5613525 35.6993453,78.5613525 L42.6036619,78.5613525 C44.9761079,78.5613525 46.988482,76.8596978 47.3807842,74.5199856 L48.313446,69.0227194 C50.1626547,68.4501295 51.9458921,67.7138705 53.6475468,66.814446 L58.1794173,70.0535827 C58.997259,70.6422878 59.9787698,70.9530072 60.993518,70.9530072 C62.2857482,70.9530072 63.4963957,70.4463885 64.4129424,69.5298417 L69.2877626,64.654518 C70.9571871,62.9855971 71.1858201,60.3517842 69.8115036,58.4209928 L66.5723669,53.8725036 C67.472295,52.1547338 68.2246691,50.3714964 68.7811439,48.5394101 L74.2784101,47.6228633 C76.6176187,47.2300576 78.3192734,45.2176835 78.3192734,42.8452374 L78.3192734,35.9575396 C78.3520072,33.5850935 76.6508561,31.5727194 74.3111439,31.1804173 Z" id="Fill-1" fill="#349CD6" mask="url(#mask-2)"></path>
                    </g>
                    <path d="M39.2808263,51.7153557 C32.4197029,51.7153557 26.8462314,46.1423028 26.8462314,39.2810772 C26.8462314,32.4198515 32.4197029,26.8467986 39.2808263,26.8467986 C46.1414482,26.8467986 51.7149197,32.4198515 51.7149197,39.2810772 C51.7149197,46.1423028 46.1414482,51.7153557 39.2808263,51.7153557 M39.2808263,22.4460432 C29.9913728,22.4460432 22.4460432,29.9914852 22.4460432,39.2810772 C22.4460432,48.5701675 29.9913728,56.1151079 39.2808263,56.1151079 C48.5697783,56.1151079 56.1151079,48.5701675 56.1151079,39.2810772 C56.1151079,29.9914852 48.5697783,22.4460432 39.2808263,22.4460432" id="Fill-4" fill="#F7941D"></path>
                </g>
            </g>
        </g>
    </g>
</svg>