<?xml version="1.0" encoding="UTF-8" standalone="no"?>
<svg width="156px" height="156px" viewBox="0 0 156 156" version="1.1" xmlns="http://www.w3.org/2000/svg" xmlns:xlink="http://www.w3.org/1999/xlink">
    <!-- Generator: Sketch 50.2 (55047) - http://www.bohemiancoding.com/sketch -->
    <title>icon copy 3</title>
    <desc>Created with Sketch.</desc>
    <defs></defs>
    <g id="Page-1" stroke="none" stroke-width="1" fill="none" fill-rule="evenodd">
        <g id="Atlas" transform="translate(-645.000000, -1958.000000)">
            <g id="icon-copy-14" transform="translate(658.000000, 1971.000000)">
                <circle id="Oval" stroke="#FFD762" stroke-width="6" fill="#FFFFFF" cx="65" cy="65" r="65"></circle>
                <g id="Group" stroke-width="1" transform="translate(28.992806, 23.381295)">
                    <path d="M11.3210649,24.4958429 C11.0426817,23.7531706 10.9015047,22.9289587 10.9015047,22.0461264 C10.9015047,18.082857 14.1291619,14.8582932 18.0962332,14.8582932 C18.9066769,14.8582932 19.7360912,15.000657 20.5522703,15.2792142 C21.6574208,15.6811828 22.8900717,15.1848926 23.4234557,14.1169432 C26.1596408,8.31396232 32.0855417,4.56401844 38.5214442,4.56401844 C47.175589,4.56401844 54.3138466,11.0307764 55.1269374,19.606988 C55.2270848,20.6308619 56.003999,21.4696188 57.0191492,21.6468023 C63.5084342,22.7535382 68.401979,28.7500105 68.401979,35.5958178 C68.401979,42.850205 62.6838728,49.1688693 55.6876744,49.6810266 L15.5365193,49.6819081 C9.59076534,49.3288634 4.56795549,43.6514977 4.56795549,37.2843504 C4.56795549,33.1690206 6.77781535,29.3318072 10.3350324,27.2699551 C11.2976825,26.7128407 11.720772,25.5175131 11.3210649,24.4958429 M59.4169508,17.5230981 C57.6667983,7.35223483 48.9164768,0 38.5007088,0 C30.9768617,0 23.9841928,4.00910785 20.1732985,10.4855624 C19.5327082,10.3692031 18.8638826,10.3145495 18.0962332,10.3145495 C11.6100364,10.3145495 6.33310807,15.5868612 6.33310807,22.0668418 C6.33310807,22.8610824 6.40369653,23.6072807 6.54796169,24.3389341 C2.44236059,27.3506133 0,32.1676251 0,37.2843504 C0,46.0174707 7.01693375,53.7840153 15.347254,54.2446043 L55.728704,54.2446043 L55.8817927,54.2437228 C65.452705,53.5768604 72.9496403,45.3858688 72.9496403,35.5958178 C72.9496403,27.2307279 67.2756519,19.6783903 59.4169508,17.5230981" id="Fill-1" fill="#349CD6"></path>
                    <path d="M9.70421073,62.9992964 C9.70421073,64.4269012 8.5124352,65.6326188 7.10177094,65.6326188 C5.66688185,65.6326188 4.49933115,64.4509717 4.49933115,62.9992964 C4.49933115,61.5476211 5.66688185,60.3664116 7.10177094,60.3664116 C8.53709262,60.3664116 9.70421073,61.5476211 9.70421073,62.9992964 M24.8724203,43.9568345 C23.6321951,43.9568345 22.622971,44.9778652 22.622971,46.2325993 L22.622971,57.4687503 C22.6316227,58.339668 22.30502,59.1571927 21.7028597,59.7720869 C21.1028624,60.3852304 20.2995494,60.7235316 19.4417306,60.7235316 L13.8098883,60.7235316 C12.8430577,57.8166797 10.1220892,55.814882 7.08187197,55.814882 C3.17691453,55.814882 0,59.0289621 0,62.9791646 C0,66.9298048 3.17691453,70.1438849 7.08187197,70.1438849 C10.1220892,70.1438849 12.8426251,68.1416495 13.8098883,65.2347977 L19.4417306,65.2347977 C23.6767515,65.2347977 27.1223022,61.7493764 27.1223022,57.4648115 L27.1223022,46.2325993 C27.1223022,44.9778652 26.1130781,43.9568345 24.8724203,43.9568345" id="Fill-3" fill="#F7941D"></path>
                    <path d="M67.5353889,62.9389011 C67.5353889,64.3905764 66.3678382,65.5722236 64.9325165,65.5722236 C63.4976274,65.5722236 62.3305093,64.3905764 62.3305093,62.9389011 C62.3305093,61.511734 63.5222849,60.3060163 64.9325165,60.3060163 C66.3678382,60.3060163 67.5353889,61.4872258 67.5353889,62.9389011 M64.9325165,55.814882 C61.8927319,55.814882 59.172196,57.8171174 58.2049328,60.7235316 L52.5929894,60.7235316 C50.8276043,60.7235316 49.3918501,59.270981 49.3918501,57.4849433 L49.3918501,46.2531687 C49.3918501,44.965611 48.4033901,43.9568345 47.1419682,43.9568345 C45.9013104,43.9568345 44.8920863,44.9778652 44.8920863,46.233037 L44.8920863,57.4643738 C44.8920863,61.7493764 48.337637,65.2352353 52.5730905,65.2352353 L58.2049328,65.2352353 C59.1717634,68.1420872 61.8927319,70.1438849 64.9325165,70.1438849 C68.8379065,70.1438849 72.0143885,66.9298048 72.0143885,62.9796023 C72.0143885,59.0285245 68.8379065,55.814882 64.9325165,55.814882" id="Fill-5" fill="#F7941D"></path>
                    <path d="M36.4960472,78.7288179 L36.4229395,78.7288179 C35.688664,78.7118356 35.0256684,78.4309739 34.504776,77.916714 C33.9975913,77.4168237 33.7284635,76.7501582 33.7471974,76.0390774 C33.7832943,74.6334626 35.016073,73.48955 36.4960472,73.48955 L36.5691549,73.48955 C37.3034305,73.5065323 37.966426,73.7869585 38.4873185,74.3016539 C38.9945032,74.8011087 39.263631,75.4682097 39.2448971,76.1792905 C39.2088002,77.5849053 37.9760214,78.7288179 36.4960472,78.7288179 M38.8300109,69.3354096 L38.8295539,46.2189686 C38.8542278,45.6293768 38.6312493,45.0698306 38.2008276,44.6435305 C37.7612675,44.2072151 37.1393951,43.9568345 36.4960472,43.9568345 C35.1860485,43.9568345 34.1200467,44.9727265 34.1200467,46.2220167 L34.1200467,69.3571819 C31.1687798,70.3029673 29.0792701,72.9626622 28.9947393,75.9384897 C28.9499609,77.846172 29.6842364,79.6554438 31.0614029,81.0323192 C32.4403971,82.4113719 34.2991606,83.1947365 36.3064241,83.2374101 L36.4750288,83.2374101 C40.5092036,83.2374101 43.8648474,80.1165795 43.9548613,76.2798782 C44.0000967,74.3721959 43.266278,72.5633596 41.8886546,71.1856132 C41.0378637,70.3369319 39.9864834,69.7016184 38.8300109,69.3354096" id="Fill-7" fill="#F7941D"></path>
                </g>
            </g>
        </g>
    </g>
</svg>