<?xml version="1.0" encoding="UTF-8" standalone="no"?>
<svg width="135px" height="135px" viewBox="0 0 135 135" version="1.1" xmlns="http://www.w3.org/2000/svg" xmlns:xlink="http://www.w3.org/1999/xlink">
    <!-- Generator: Sketch 50.2 (55047) - http://www.bohemiancoding.com/sketch -->
    <title>icon copy 9</title>
    <desc>Created with Sketch.</desc>
    <defs>
        <polygon id="path-1" points="0 0.390020012 61.802029 0.390020012 61.802029 60.3955559 0 60.3955559"></polygon>
    </defs>
    <g id="Page-1" stroke="none" stroke-width="1" fill="none" fill-rule="evenodd">
        <g id="Atlas" transform="translate(-1027.000000, -2668.000000)">
            <g id="icon-copy-20" transform="translate(1037.000000, 2678.000000)">
                <circle id="Oval" fill="#FFFFFF" cx="57.5" cy="57.5" r="57.5"></circle>
                <g id="Group" stroke-width="1" transform="translate(26.474820, 27.302158)">
                    <path d="M36.052817,9.92805755 L22.6881902,9.92805755 C21.5812697,9.92805755 20.6834532,10.8539179 20.6834532,11.9964029 C20.6834532,13.1384449 21.5812697,14.0647482 22.6881902,14.0647482 L36.052817,14.0647482 C37.1597375,14.0647482 38.057554,13.1384449 38.057554,11.9964029 C38.057554,10.8539179 37.1597375,9.92805755 36.052817,9.92805755" id="Fill-1" fill="#F7941D"></path>
                    <path d="M36.052817,28.9568345 L22.6881902,28.9568345 C21.5812697,28.9568345 20.6834532,29.8831378 20.6834532,31.0251799 C20.6834532,32.1676649 21.5812697,33.0935252 22.6881902,33.0935252 L36.052817,33.0935252 C37.1597375,33.0935252 38.057554,32.1676649 38.057554,31.0251799 C38.057554,29.8831378 37.1597375,28.9568345 36.052817,28.9568345" id="Fill-3" fill="#F7941D"></path>
                    <path d="M36.052817,47.9856115 L22.6881902,47.9856115 C21.5812697,47.9856115 20.6834532,48.9119148 20.6834532,50.0539568 C20.6834532,51.1959989 21.5812697,52.1223022 22.6881902,52.1223022 L36.052817,52.1223022 C37.1597375,52.1223022 38.057554,51.1959989 38.057554,50.0539568 C38.057554,48.9119148 37.1597375,47.9856115 36.052817,47.9856115" id="Fill-5" fill="#F7941D"></path>
                    <g id="Group-9">
                        <mask id="mask-2" fill="white">
                            <use xlink:href="#path-1"></use>
                        </mask>
                        <g id="Clip-8"></g>
                        <path d="M3.30965415,43.4409564 C3.30965415,42.3614898 4.19947355,41.4827752 5.29354204,41.4827752 L56.5074959,41.4827752 C57.6019953,41.4827752 58.4922456,42.3614898 58.4922456,43.4409564 L58.4922456,55.1700533 C58.4922456,56.2495198 57.6024262,57.1282344 56.5083577,57.1282344 L5.29311114,57.1282344 L5.29181842,57.1282344 C4.76352855,57.1282344 4.26669477,56.92408 3.89180718,56.5544755 C3.51605778,56.1840202 3.30965415,55.6927737 3.30965415,55.1709039 L3.30965415,43.4409564 Z M56.5083577,38.2150284 L5.29311114,38.2150284 L5.29181842,38.2150284 C4.76352855,38.2150284 4.26669477,38.010874 3.89180718,37.6412695 C3.51605778,37.2708142 3.30965415,36.7795677 3.30965415,36.2576979 L3.30965415,24.5277504 C3.30965415,23.4482838 4.19947355,22.5699945 5.29354204,22.5699945 L56.5074959,22.5699945 C57.6019953,22.5699945 58.4922456,23.4482838 58.4922456,24.5277504 L58.4922456,36.2568473 C58.4922456,37.3363138 57.6024262,38.2150284 56.5083577,38.2150284 Z M56.5083577,19.3018224 L5.22201177,19.3018224 C4.16155388,19.2648195 3.30965415,18.4009911 3.30965415,17.3449172 L3.30965415,5.61454436 C3.30965415,4.53507784 4.19947355,3.6567885 5.29354204,3.6567885 L56.5074959,3.6567885 C57.6019953,3.6567885 58.4922456,4.53507784 58.4922456,5.61454436 L58.4922456,17.3440666 C58.4922456,18.4235331 57.6024262,19.3018224 56.5083577,19.3018224 Z M61.802029,5.61454436 C61.802029,2.73384038 59.42731,0.389892416 56.5083577,0.389892416 L5.29354204,0.389892416 C2.3745897,0.389892416 -0.000129271583,2.73384038 -0.000129271583,5.61454436 L-0.000129271583,17.3440666 C-0.000129271583,18.6923364 0.530746028,19.9666003 1.47658311,20.9354832 C0.530746028,21.9052167 -0.000129271583,23.1794805 -0.000129271583,24.5277504 L-0.000129271583,36.2568473 C-0.000129271583,37.6051171 0.530746028,38.879381 1.47658311,39.8486892 C0.530746028,40.8184227 -0.000129271583,42.0926865 -0.000129271583,43.4409564 L-0.000129271583,55.1700533 C-0.000129271583,58.0516079 2.3745897,60.3955559 5.29354204,60.3955559 L56.5074959,60.3955559 C59.4260173,60.3955559 61.8007363,58.0520332 61.8007363,55.1709039 L61.8007363,43.4409564 C61.8007363,42.0926865 61.2707228,40.8184227 60.3244548,39.8495398 C61.2715846,38.8806569 61.802029,37.6063931 61.802029,36.2576979 L61.802029,24.5277504 C61.802029,23.1794805 61.2715846,21.9052167 60.3253166,20.9363338 C61.2715846,19.9678763 61.802029,18.6931871 61.802029,17.3449172 L61.802029,5.61454436 Z" id="Fill-7" fill="#349CD6" mask="url(#mask-2)"></path>
                    </g>
                    <path d="M9.22438695,11.5829401 C9.22438695,10.5931462 10.0968326,9.78736572 11.1695117,9.78736572 C12.2412969,9.78736572 13.1137425,10.5931462 13.1137425,11.5829401 C13.1137425,12.5723214 12.2412969,13.3781019 11.1695117,13.3781019 C10.0968326,13.3781019 9.22438695,12.5723214 9.22438695,11.5829401 M11.1695117,16.5467626 C14.1341285,16.5467626 16.5467626,14.3200358 16.5467626,11.5829401 C16.5467626,8.84543182 14.1341285,6.61870504 11.1695117,6.61870504 C8.20400096,6.61870504 5.79136691,8.84543182 5.79136691,11.5829401 C5.79136691,14.3200358 8.20400096,16.5467626 11.1695117,16.5467626" id="Fill-10" fill="#F7941D"></path>
                    <path d="M13.1137425,30.6117171 C13.1137425,31.6010984 12.2412969,32.4068789 11.1690647,32.4068789 C10.0968326,32.4068789 9.22438695,31.6010984 9.22438695,30.6117171 C9.22438695,29.6219232 10.0968326,28.8161427 11.1690647,28.8161427 C12.2412969,28.8161427 13.1137425,29.6219232 13.1137425,30.6117171 M11.1690647,25.647482 C8.20400096,25.647482 5.79136691,27.8742088 5.79136691,30.6117171 C5.79136691,33.3488128 8.20400096,35.5755396 11.1690647,35.5755396 C14.1341285,35.5755396 16.5467626,33.3488128 16.5467626,30.6117171 C16.5467626,27.8742088 14.1341285,25.647482 11.1690647,25.647482" id="Fill-12" fill="#F7941D"></path>
                    <path d="M13.1137425,49.6400815 C13.1137425,50.6298754 12.2412969,51.4356559 11.1690647,51.4356559 C10.0968326,51.4356559 9.22438695,50.6298754 9.22438695,49.6400815 C9.22438695,48.6507002 10.0968326,47.8449197 11.1690647,47.8449197 C12.2412969,47.8449197 13.1137425,48.6507002 13.1137425,49.6400815 M11.1690647,44.676259 C8.20400096,44.676259 5.79136691,46.9029858 5.79136691,49.6400815 C5.79136691,52.3775898 8.20400096,54.6043165 11.1690647,54.6043165 C14.1341285,54.6043165 16.5467626,52.3775898 16.5467626,49.6400815 C16.5467626,46.9029858 14.1341285,44.676259 11.1690647,44.676259" id="Fill-14" fill="#F7941D"></path>
                </g>
            </g>
        </g>
    </g>
</svg>