<?xml version="1.0" encoding="UTF-8" standalone="no"?>
<svg width="135px" height="135px" viewBox="0 0 135 135" version="1.1" xmlns="http://www.w3.org/2000/svg" xmlns:xlink="http://www.w3.org/1999/xlink">
    <!-- Generator: Sketch 50.2 (55047) - http://www.bohemiancoding.com/sketch -->
    <title>icon copy 7</title>
    <desc>Created with Sketch.</desc>
    <defs>
        <polygon id="path-1" points="0.224870504 0.348905036 4.06330576 0.348905036 4.06330576 10.3290088 0.224870504 10.3290088"></polygon>
        <polygon id="path-3" points="0 0.399220836 67.5711704 0.399220836 67.5711704 44.2862101 0 44.2862101"></polygon>
    </defs>
    <g id="Page-1" stroke="none" stroke-width="1" fill="none" fill-rule="evenodd">
        <g id="Atlas" transform="translate(-530.000000, -2668.000000)">
            <g id="icon-copy-18" transform="translate(540.000000, 2678.000000)">
                <circle id="Oval" fill="#FFFFFF" cx="57.5" cy="57.5" r="57.5"></circle>
                <g id="Group-2" stroke-width="1" transform="translate(23.992806, 25.647482)">
                    <g id="Group-6" transform="translate(31.438849, 0.000000)">
                        <mask id="mask-2" fill="white">
                            <use xlink:href="#path-1"></use>
                        </mask>
                        <g id="Clip-5"></g>
                        <path d="M2.14429496,0.348862014 C1.08406115,0.348862014 0.224870504,1.24242029 0.224870504,2.34506345 L0.224870504,8.33323755 C0.224870504,9.4354505 1.08406115,10.3290088 2.14429496,10.3290088 C3.20411511,10.3290088 4.06330576,9.4354505 4.06330576,8.33323755 L4.06330576,2.34506345 C4.06330576,1.24242029 3.20411511,0.348862014 2.14429496,0.348862014" id="Fill-4" fill="#F7941D" mask="url(#mask-2)"></path>
                    </g>
                    <g id="Group" transform="translate(0.000000, 4.136691)">
                        <g id="Group-3" transform="translate(0.000000, 11.690270)">
                            <mask id="mask-4" fill="white">
                                <use xlink:href="#path-3"></use>
                            </mask>
                            <g id="Clip-2"></g>
                            <path d="M63.6120296,26.3324515 C63.6120296,34.0326626 57.3961914,40.2967965 49.754397,40.2967965 L39.3839997,40.2967965 C39.6028853,39.6724899 39.7244883,39.0013174 39.7244883,38.3017672 C39.7244883,37.522244 39.5738712,36.7788376 39.3046377,36.0951961 C41.8254485,35.4038152 43.6836291,33.0777143 43.6836291,30.3220801 C43.6836291,28.7901212 43.1097478,27.3923108 42.1672172,26.3324515 C43.1097478,25.2721623 43.6836291,23.8747819 43.6836291,22.342823 C43.6836291,20.8104341 43.1097478,19.4126237 42.1672172,18.3527644 C43.1097478,17.2929051 43.6836291,15.8955247 43.6836291,14.3631358 C43.6836291,13.6635857 43.5624527,12.9919832 43.3431404,12.3681066 L47.7750399,12.3681066 L47.7750399,14.3631358 C47.7750399,18.0934966 49.2163566,21.6002765 51.8335965,24.2376708 C52.6054562,25.0154742 53.8607415,25.0163342 54.6338811,24.2376708 C55.4074475,23.4581475 55.4074475,22.1949156 54.6338811,21.4153923 C52.7637535,19.5325835 51.7341807,17.0267579 51.7341807,14.3631358 L51.7341807,10.3735073 C51.7341807,9.27194153 50.8475448,8.37847799 49.754397,8.37847799 L41.8361154,8.37847799 C40.7446743,8.37847799 39.8563317,7.4832946 39.8563317,6.38387869 C39.8563317,5.28403281 40.7446743,4.38884942 41.8361154,4.38884942 L49.754397,4.38884942 C57.3961914,4.38884942 63.6120296,10.6525534 63.6120296,18.3527644 L63.6120296,26.3324515 Z M37.7447046,32.3171094 L25.8672823,32.3171094 C24.7745612,32.3171094 23.8874986,33.2105729 23.8874986,34.3121387 C23.8874986,35.4128445 24.7745612,36.306738 25.8672823,36.306738 L33.7859905,36.306738 C34.877005,36.306738 35.7649209,37.2014914 35.7649209,38.3017672 C35.7649209,39.4016131 34.877005,40.2967965 33.7859905,40.2967965 L17.9485741,40.2967965 C10.2346711,40.2967965 3.9590981,34.0326626 3.9590981,26.3324515 L3.9590981,18.3527644 C3.9590981,10.6525534 10.2346711,4.38884942 17.9485741,4.38884942 L25.8672823,4.38884942 C26.9587235,4.38884942 27.8470661,5.28403281 27.8470661,6.38387869 C27.8470661,7.4832946 26.9587235,8.37847799 25.8672823,8.37847799 L17.9485741,8.37847799 C16.855853,8.37847799 15.9692171,9.27194153 15.9692171,10.3735073 C15.9692171,11.4742131 16.855853,12.3681066 17.9485741,12.3681066 L37.7447046,12.3681066 C38.8365724,12.3681066 39.7244883,13.26329 39.7244883,14.3631358 C39.7244883,15.4629817 38.8365724,16.3581651 37.7447046,16.3581651 L25.8672823,16.3581651 C24.7745612,16.3581651 23.8874986,17.2516287 23.8874986,18.3527644 C23.8874986,19.4539002 24.7745612,20.3477937 25.8672823,20.3477937 L37.7447046,20.3477937 C38.8365724,20.3477937 39.7244883,21.2425471 39.7244883,22.342823 C39.7244883,23.4422389 38.8365724,24.3374223 37.7447046,24.3374223 L25.8672823,24.3374223 C24.7745612,24.3374223 23.8874986,25.2308858 23.8874986,26.3324515 C23.8874986,27.4335873 24.7745612,28.3274808 25.8672823,28.3274808 L37.7447046,28.3274808 C38.8365724,28.3274808 39.7244883,29.2222342 39.7244883,30.3220801 C39.7244883,31.421926 38.8365724,32.3171094 37.7447046,32.3171094 Z M49.754397,0.399220836 L41.8361154,0.399220836 C38.5617921,0.399220836 35.8971909,3.08434105 35.8971909,6.38387869 C35.8971909,7.08299886 36.018794,7.75460138 36.2376796,8.37847799 L31.4669982,8.37847799 C31.6858838,7.75460138 31.8062068,7.08299886 31.8062068,6.38387869 C31.8062068,3.08434105 29.1416057,0.399220836 25.8672823,0.399220836 L17.9485741,0.399220836 C8.05178892,0.399220836 -4.26677526e-05,8.45286163 -4.26677526e-05,18.3527644 L-4.26677526e-05,26.3324515 C-4.26677526e-05,36.2319244 8.05178892,44.2864251 17.9485741,44.2864251 L49.754397,44.2864251 C59.5790737,44.2864251 67.5711704,36.2319244 67.5711704,26.3324515 L67.5711704,18.3527644 C67.5711704,8.45286163 59.5790737,0.399220836 49.754397,0.399220836 Z" id="Fill-1" fill="#349CD6" mask="url(#mask-4)"></path>
                        </g>
                        <path d="M51.1541979,0.704107745 C50.3810582,-0.074985583 49.1279063,-0.074985583 48.3547667,0.704107745 L44.3956259,4.69373632 C43.6224862,5.47325961 43.6224862,6.73606155 44.3956259,7.51515488 C45.1687656,8.2942482 46.4219175,8.2942482 47.1950571,7.51515488 L51.1541979,3.5255263 C51.9273376,2.74643297 51.9273376,1.48320107 51.1541979,0.704107745" id="Fill-7" fill="#F7941D"></path>
                        <path d="M23.3076865,4.69386531 L19.3485458,0.704236733 C18.5754061,-0.074856594 17.3218275,-0.074856594 16.5486878,0.704236733 C15.7759748,1.48333006 15.7759748,2.74656196 16.5486878,3.52522532 L20.5078286,7.51528386 C21.2809683,8.29437719 22.5345469,8.29437719 23.3076865,7.51528386 C24.0808262,6.73619054 24.0808262,5.47295864 23.3076865,4.69386531" id="Fill-9" fill="#F7941D"></path>
                    </g>
                </g>
            </g>
        </g>
    </g>
</svg>