<?xml version="1.0" encoding="UTF-8" standalone="no"?>
<svg width="156px" height="156px" viewBox="0 0 156 156" version="1.1" xmlns="http://www.w3.org/2000/svg" xmlns:xlink="http://www.w3.org/1999/xlink">
    <!-- Generator: Sketch 50.2 (55047) - http://www.bohemiancoding.com/sketch -->
    <title>icon copy</title>
    <desc>Created with Sketch.</desc>
    <defs></defs>
    <g id="Page-1" stroke="none" stroke-width="1" fill="none" fill-rule="evenodd">
        <g id="Atlas" transform="translate(-309.000000, -1957.000000)">
            <g id="icon-copy-15" transform="translate(322.000000, 1970.000000)">
                <circle id="Oval" stroke="#FFD762" stroke-width="6" fill="#FFFFFF" cx="65" cy="65" r="65"></circle>
                <g id="Group" stroke-width="1" transform="translate(30.863309, 29.928058)">
                    <path d="M57.8921684,65.0528452 L62.2401192,65.0528452 L62.2401192,26.6022696 L57.8921684,26.6022696 L57.8921684,65.0528452 Z M40.9174713,65.0524067 L45.2654221,65.0524067 L45.2654221,43.6446396 L40.9174713,43.6446396 L40.9174713,65.0524067 Z M23.9427742,65.0524067 L28.290725,65.0524067 L28.290725,37.9637034 L23.9427742,37.9637034 L23.9427742,65.0524067 Z M6.96851388,65.0528452 L11.3164647,65.0528452 L11.3164647,52.1662631 L6.96851388,52.1662631 L6.96851388,65.0528452 Z M67.1388251,65.0524067 L66.3792985,65.0524067 L66.3792985,24.5241564 C66.3792985,23.3783218 65.4507457,22.4460432 64.3094905,22.4460432 L55.8227971,22.4460432 C54.6811051,22.4460432 53.7525523,23.3783218 53.7525523,24.5241564 L53.7525523,65.0524067 L49.4046014,65.0524067 L49.4046014,41.5669649 C49.4046014,40.4211304 48.4760486,39.4888517 47.3352302,39.4888517 L38.8476632,39.4888517 C37.7068448,39.4888517 36.778292,40.4211304 36.778292,41.5669649 L36.778292,65.0524067 L32.4303411,65.0524067 L32.4303411,35.8860287 C32.4303411,34.7397557 31.5017883,33.8079155 30.3609698,33.8079155 L21.8734029,33.8079155 C20.7321477,33.8079155 19.8035949,34.7397557 19.8035949,35.8860287 L19.8035949,65.0524067 L15.4560808,65.0524067 L15.4560808,50.0877114 C15.4560808,48.9423154 14.527528,48.0100367 13.385836,48.0100367 L4.8991426,48.0100367 C3.7578874,48.0100367 2.82933456,48.9423154 2.82933456,50.0877114 L2.82933456,65.0524067 L2.06980804,65.0524067 C0.928552837,65.0524067 0,65.9846854 0,67.1309584 C0,68.2763544 0.928552837,69.2086331 2.06980804,69.2086331 L4.8991426,69.2086331 L13.385836,69.2086331 L21.8734029,69.2086331 L30.3609698,69.2086331 L38.8476632,69.2086331 L47.3352302,69.2086331 L55.8227971,69.2086331 L64.3094905,69.2086331 L67.1388251,69.2086331 C68.2800803,69.2086331 69.2086331,68.2763544 69.2086331,67.1309584 C69.2086331,65.9846854 68.2800803,65.0524067 67.1388251,65.0524067 Z" id="Fill-1" fill="#349CD6"></path>
                    <path d="M57.0987279,6.20097917 C57.0987279,5.02384415 58.0603782,4.0654915 59.2425232,4.0654915 C60.4242376,4.0654915 61.3858879,5.02384415 61.3858879,6.20097917 C61.3858879,7.3781142 60.4242376,8.33603786 59.2425232,8.33603786 C58.6572645,8.33603786 58.1275602,8.10009608 57.7399716,7.72044429 C57.7360958,7.71615444 57.7339425,7.7114356 57.729636,7.70757474 C57.7257601,7.70328489 57.7205922,7.70071098 57.7167163,7.69685011 C57.3355876,7.31162152 57.0987279,6.7835409 57.0987279,6.20097917 M44.6485226,22.8730549 C44.6485226,24.0501899 43.6868724,25.0085426 42.505158,25.0085426 C41.3234436,25.0085426 40.3617933,24.0501899 40.3617933,22.8730549 C40.3617933,21.6959199 41.3234436,20.7379962 42.505158,20.7379962 C43.6868724,20.7379962 44.6485226,21.6959199 44.6485226,22.8730549 M25.7677927,19.451041 C24.5860783,19.451041 23.624428,18.4926884 23.624428,17.3155533 C23.624428,16.1384183 24.5860783,15.1804946 25.7677927,15.1804946 C26.9495071,15.1804946 27.911588,16.1384183 27.911588,17.3155533 C27.911588,18.4926884 26.9495071,19.451041 25.7677927,19.451041 M10.5355629,29.6922016 C10.5424534,29.6986363 10.5489132,29.7059291 10.5558037,29.7127928 C10.9377937,30.0984504 11.1742227,30.626531 11.1742227,31.2095218 C11.1742227,32.3866568 10.2125725,33.3441515 9.03085806,33.3441515 C7.84914366,33.3441515 6.88706276,32.3866568 6.88706276,31.2095218 C6.88706276,30.0323867 7.84914366,29.0740341 9.03085806,29.0740341 C9.61697807,29.0740341 10.148405,29.3108338 10.5355629,29.6922016 M9.03085806,37.4100719 C12.4631699,37.4100719 15.2559607,34.6285328 15.2559607,31.2095218 C15.2559607,30.3150879 15.0608745,29.4661264 14.7172126,28.6973852 L22.4517574,22.554319 C23.412977,23.1604749 24.5481807,23.5165325 25.7677927,23.5165325 C27.8706759,23.5165325 29.7293783,22.4702379 30.8568303,20.8748425 L36.3033106,22.4221916 C36.2925443,22.5714784 36.2800553,22.7207652 36.2800553,22.8730549 C36.2800553,26.2924949 39.0728461,29.0740341 42.505158,29.0740341 C45.9374698,29.0740341 48.72983,26.2924949 48.72983,22.8730549 C48.72983,21.9044066 48.4994301,20.9915264 48.1006446,20.1738808 L56.532418,11.7743532 C57.3532444,12.1720224 58.2701066,12.4015294 59.2425232,12.4015294 C62.6748351,12.4015294 65.4676259,9.61999018 65.4676259,6.20097917 C65.4676259,2.78153919 62.6748351,0 59.2425232,0 C55.8097807,0 53.0169899,2.78153919 53.0169899,6.20097917 C53.0169899,7.16919848 53.2478204,8.08293667 53.646606,8.90015323 L45.2148325,17.2992519 C44.3944368,16.9015827 43.4771439,16.6720757 42.505158,16.6720757 C40.7058858,16.6720757 39.0874883,17.441246 37.9497006,18.6612795 L31.9748079,16.9642146 C31.790488,13.7086469 29.0812441,11.1145742 25.7677927,11.1145742 C22.3350501,11.1145742 19.54269,13.8961133 19.54269,17.3155533 C19.54269,18.0388222 19.6740395,18.7299171 19.9031474,19.3759686 L11.9162394,25.7197998 C11.0527783,25.2676496 10.0721793,25.0085426 9.03085806,25.0085426 C5.59811553,25.0085426 2.8057554,27.7900818 2.8057554,31.2095218 C2.8057554,34.6285328 5.59811553,37.4100719 9.03085806,37.4100719" id="Fill-3" fill="#F7941D"></path>
                </g>
            </g>
        </g>
    </g>
</svg>