<?xml version="1.0" encoding="UTF-8" standalone="no"?>
<svg width="156px" height="156px" viewBox="0 0 156 156" version="1.1" xmlns="http://www.w3.org/2000/svg" xmlns:xlink="http://www.w3.org/1999/xlink">
    <!-- Generator: Sketch 50.2 (55047) - http://www.bohemiancoding.com/sketch -->
    <title>icon copy 4</title>
    <desc>Created with Sketch.</desc>
    <defs>
        <polygon id="path-1" points="0 74.8201439 76.6906475 74.8201439 76.6906475 0 0 0"></polygon>
    </defs>
    <g id="Page-1" stroke="none" stroke-width="1" fill="none" fill-rule="evenodd">
        <g id="Atlas" transform="translate(-978.000000, -1655.000000)">
            <g id="icon-copy-22" transform="translate(991.000000, 1668.000000)">
                <circle id="Oval" stroke="#FFD762" stroke-width="6" fill="#FFFFFF" cx="65" cy="65" r="65"></circle>
                <g id="Group" stroke-width="1" transform="translate(27.122302, 28.057554)">
                    <path d="M18.1235285,48.416036 C18.9656168,47.4941521 18.8832973,46.0752946 17.9404463,45.2522782 L12.0512261,40.1133689 C10.7799966,39.0029778 8.86145669,39.0029778 7.58932754,40.1133689 L1.70010733,45.2522782 C0.756806476,46.0752946 0.674486945,47.4941521 1.51747493,48.4169148 C2.36001308,49.3374804 3.81297529,49.4174532 4.75582631,48.5948761 L7.52635085,46.1772379 L7.52635085,64.1618826 C7.52635085,65.3975058 8.55512007,66.4028777 9.82005188,66.4028777 C11.0849837,66.4028777 12.1142027,65.3975058 12.1142027,64.1618826 L12.1142027,46.1772379 L14.8842775,48.5944367 C15.3048718,48.9622236 15.847371,49.1643525 16.4114622,49.1643525 C17.0646204,49.1643525 17.6880897,48.8914784 18.1235285,48.416036" id="Fill-1" fill="#F7941D"></path>
                    <path d="M40.6758912,12.3587247 C41.9692411,12.3587247 43.0215827,11.2645971 43.0215827,9.91989132 C43.0215827,8.57566377 41.9692411,7.48201439 40.6758912,7.48201439 C33.4102267,7.48201439 27.1909245,13.1267181 26.2089537,20.61298 C26.1243248,21.2580753 26.2866834,21.8993451 26.6656736,22.4177167 C27.0446638,22.9365665 27.5956713,23.270352 28.2161297,23.3588194 C28.3237556,23.3736437 28.4300016,23.381295 28.5348678,23.381295 C29.7012744,23.381295 30.6993432,22.4741446 30.8561825,21.2724214 C31.5235548,16.1905622 35.7444197,12.3587247 40.6758912,12.3587247" id="Fill-3" fill="#349CD6"></path>
                    <path d="M75.1738882,57.2674173 C76.0159765,58.1893011 75.933657,59.6081586 74.990806,60.4311751 L69.1015858,65.5700844 C67.8303563,66.6804755 65.9118164,66.6804755 64.6396873,65.5700844 L58.750467,60.4311751 C57.8071662,59.6081586 57.7248467,58.1893011 58.5678346,57.2665385 C59.4103728,56.3459728 60.863335,56.2660001 61.806186,57.0885771 L64.5767106,59.5062153 L64.5767106,41.5215706 C64.5767106,40.2859475 65.6054798,39.2805755 66.8704116,39.2805755 C68.1353434,39.2805755 69.1645625,40.2859475 69.1645625,41.5215706 L69.1645625,59.5062153 L71.9346372,57.0890165 C72.3552315,56.7212297 72.8977307,56.5191007 73.4618219,56.5191007 C74.1149802,56.5191007 74.7384494,56.7919748 75.1738882,57.2674173" id="Fill-5" fill="#F7941D"></path>
                    <mask id="mask-2" fill="white">
                        <use xlink:href="#path-1"></use>
                    </mask>
                    <g id="Clip-8"></g>
                    <path d="M25.4671938,44.8258444 L50.2882019,44.8258444 L50.2882019,35.7387392 L25.4671938,35.7387392 L25.4671938,44.8258444 Z M25.4671938,57.8526826 L50.2882019,57.8526826 L50.2882019,48.7660224 L25.4671938,48.7660224 L25.4671938,57.8526826 Z M25.4671938,70.8795209 L50.2882019,70.8795209 L50.2882019,61.7928607 L25.4671938,61.7928607 L25.4671938,70.8795209 Z M54.2446043,35.0712895 C54.2446043,33.2665055 52.7701686,31.7985612 50.9583999,31.7985612 L24.7969958,31.7985612 C22.9847803,31.7985612 21.5107914,33.2665055 21.5107914,35.0712895 L21.5107914,45.4968538 C21.5130254,45.944935 21.6090871,46.3876767 21.7913809,46.7957109 C21.6090871,47.2037452 21.5130254,47.6469318 21.5107914,48.0985727 L21.5107914,58.524137 C21.5130254,58.9726632 21.6090871,59.4149599 21.7913809,59.8229941 C21.6090871,60.2310284 21.5130254,60.674215 21.5107914,61.125411 L21.5107914,71.5469706 C21.5107914,73.3517545 22.9847803,74.8201439 24.7969958,74.8201439 L50.9583999,74.8201439 C52.7701686,74.8201439 54.2446043,73.3517545 54.2446043,71.5469706 L54.2446043,61.1218512 C54.2419235,60.673325 54.1458618,60.2305834 53.9635679,59.8229941 C54.1458618,59.4149599 54.2419235,58.9717733 54.2446043,58.5201323 L54.2446043,48.094568 C54.2419235,47.6460418 54.1458618,47.2033002 53.9635679,46.7957109 C54.1458618,46.3872317 54.2419235,45.9440451 54.2446043,45.4932941 L54.2446043,35.0712895 Z" id="Fill-7" fill="#F7941D" mask="url(#mask-2)"></path>
                    <path d="M39.948113,42.0863309 L45.1598006,42.0863309 C45.5282813,42.0863309 45.8273381,41.8024284 45.8273381,41.4526199 L45.8273381,38.9790347 C45.8273381,38.6288038 45.5282813,38.3453237 45.1598006,38.3453237 L39.948113,38.3453237 C39.5796323,38.3453237 39.2805755,38.6288038 39.2805755,38.9790347 L39.2805755,41.4526199 C39.2805755,41.8024284 39.5796323,42.0863309 39.948113,42.0863309" id="Fill-9" fill="#F7941D" mask="url(#mask-2)"></path>
                    <path d="M39.948113,54.2446043 L45.1598006,54.2446043 C45.5282813,54.2446043 45.8273381,53.9607018 45.8273381,53.6108933 L45.8273381,51.1373081 C45.8273381,50.7870772 45.5282813,50.5035971 45.1598006,50.5035971 L39.948113,50.5035971 C39.5796323,50.5035971 39.2805755,50.7870772 39.2805755,51.1373081 L39.2805755,53.6108933 C39.2805755,53.9607018 39.5796323,54.2446043 39.948113,54.2446043" id="Fill-10" fill="#F7941D" mask="url(#mask-2)"></path>
                    <path d="M39.948113,67.3381295 L45.1598006,67.3381295 C45.5282813,67.3381295 45.8273381,67.0541949 45.8273381,66.7043469 L45.8273381,64.2309049 C45.8273381,63.8806344 45.5282813,63.5971223 45.1598006,63.5971223 L39.948113,63.5971223 C39.5796323,63.5971223 39.2805755,63.8806344 39.2805755,64.2309049 L39.2805755,66.7043469 C39.2805755,67.0541949 39.5796323,67.3381295 39.948113,67.3381295" id="Fill-11" fill="#F7941D" mask="url(#mask-2)"></path>
                    <path d="M71.8906734,49.5683453 C74.8556653,46.5429942 76.6906475,42.3793472 76.6906475,37.7890657 C76.6906475,28.9166024 69.7395921,21.5561361 61.0674037,21.0860688 C60.5704852,9.40089308 50.9544641,0 39.3396073,0 C34.0494117,0 28.952983,1.95039463 24.9892429,5.49150778 C21.6210907,8.49966689 19.2217733,12.5588041 18.1926653,16.971736 C8.12973011,17.1531575 0,25.5039773 0,35.7427574 C0,37.8379273 0.345119522,39.8516611 0.972853089,41.7346448 L4.86783719,38.724676 C4.66335499,37.7628251 4.55352394,36.7656853 4.55352394,35.7427574 C4.55352394,27.9352974 10.8223767,21.582829 18.5279625,21.582829 C18.9364805,21.582829 19.3704471,21.6049977 19.8557574,21.6511449 C21.0786324,21.7642506 22.1581913,20.8942415 22.3242773,19.6659137 C22.8814689,15.5294121 24.8968241,11.7245365 28.000221,8.9525421 C31.1321918,6.15475959 35.1588839,4.61426 39.3391608,4.61426 C48.8203486,4.61426 56.5339708,12.4307685 56.5339708,22.0384188 C56.5339708,22.3759262 56.5089686,22.7337926 56.4817341,23.112018 L56.470126,23.2794145 C56.4223539,23.9594059 56.6719293,24.6217529 57.1550074,25.0977017 C57.6380854,25.573198 58.3006435,25.8089103 58.9690056,25.7374275 C59.37038,25.696257 59.778898,25.6754456 60.1829512,25.6754456 C66.7746002,25.6754456 72.13757,31.1094956 72.13757,37.7890657 C72.13757,38.6287623 72.0518482,39.4490049 71.8906734,40.2411972 L71.8906734,49.5683453 Z" id="Fill-12" fill="#349CD6" mask="url(#mask-2)"></path>
                </g>
            </g>
        </g>
    </g>
</svg>