<?xml version="1.0" encoding="UTF-8" standalone="no"?>
<svg width="349px" height="208px" viewBox="0 0 349 208" version="1.1" xmlns="http://www.w3.org/2000/svg" xmlns:xlink="http://www.w3.org/1999/xlink">
    <!-- Generator: Sketch 50.2 (55047) - http://www.bohemiancoding.com/sketch -->
    <title>Group</title>
    <desc>Created with Sketch.</desc>
    <defs>
        <polygon id="path-1" points="0.1991 0.754 38.3051 0.754 38.3051 38.8599 0.1991 38.8599"></polygon>
        <polygon id="path-3" points="0.0931992021 0.754 38.1992 0.754 38.1992 38.8599 0.0931992021 38.8599"></polygon>
        <polygon id="path-5" points="0.8214 0.2505 163.1724 0.2505 163.1724 144 0.8214 144"></polygon>
    </defs>
    <g id="Page-1" stroke="none" stroke-width="1" fill="none" fill-rule="evenodd">
        <g id="big-data" transform="translate(-546.000000, -1311.000000)">
            <g id="Group" transform="translate(546.000000, 1310.000000)">
                <path d="M330.332,39.349 C329.779,39.349 329.332,38.901 329.332,38.349 L329.332,22.387 C329.332,21.982 329.575,21.618 329.949,21.463 C330.073,21.412 330.203,21.387 330.332,21.387 C330.592,21.387 330.848,21.488 331.039,21.68 L347.002,37.642 C347.288,37.928 347.374,38.358 347.219,38.732 C347.064,39.105 346.699,39.349 346.295,39.349 L330.332,39.349 Z" id="Fill-1" fill="#B6C4CE"></path>
                <path d="M330.3311,20.3861 C330.0731,20.3861 329.8131,20.4361 329.5671,20.5381 C328.8191,20.8481 328.3321,21.5771 328.3321,22.3861 L328.3321,38.3491 C328.3321,39.4531 329.2271,40.3491 330.3321,40.3491 L346.2941,40.3491 C347.1031,40.3491 347.8331,39.8621 348.1421,39.1151 C348.4521,38.3671 348.2801,37.5071 347.7081,36.9351 L331.7461,20.9721 C331.3641,20.5891 330.8521,20.3861 330.3311,20.3861 M330.3321,22.3861 L346.2941,38.3491 L330.3321,38.3491 L330.3321,22.3861" id="Fill-3" fill="#0B567F"></path>
                <path d="M287.0488,96.8808 C286.4958,96.8808 286.0488,96.4328 286.0488,95.8808 L286.0488,22.3868 C286.0488,21.8348 286.4958,21.3868 287.0488,21.3868 L330.3318,21.3868 C330.8848,21.3868 331.3318,21.8348 331.3318,22.3868 L331.3318,37.3488 L346.2948,37.3488 C346.8478,37.3488 347.2948,37.7968 347.2948,38.3488 L347.2948,95.8808 C347.2948,96.4328 346.8478,96.8808 346.2948,96.8808 L287.0488,96.8808 Z" id="Fill-5" fill="#FFFFFF"></path>
                <path d="M330.332,20.3866 L287.05,20.3866 C285.944,20.3866 285.05,21.2826 285.05,22.3866 L285.05,95.8806 C285.05,96.9846 285.944,97.8806 287.05,97.8806 L346.295,97.8806 C347.399,97.8806 348.295,96.9846 348.295,95.8806 L348.295,54.3116 L348.295,38.3486 C348.295,37.2446 347.399,36.3486 346.295,36.3486 L332.332,36.3486 L332.332,22.3866 C332.332,21.2826 331.436,20.3866 330.332,20.3866 M330.332,22.3866 L330.332,38.3486 L346.295,38.3486 L346.295,54.3116 L346.295,95.8806 L287.05,95.8806 L287.05,22.3866 L330.332,22.3866" id="Fill-7" fill="#0B567F"></path>
                <path d="M314.8076,42.3241 L295.9476,42.3241 C294.7496,42.3241 293.7796,41.3541 293.7796,40.1571 L293.7796,40.1501 C293.7796,38.9521 294.7496,37.9821 295.9476,37.9821 L314.8076,37.9821 C316.0046,37.9821 316.9756,38.9521 316.9756,40.1501 L316.9756,40.1571 C316.9756,41.3541 316.0046,42.3241 314.8076,42.3241" id="Fill-9" fill="#B6C4CE"></path>
                <path d="M314.8076,42.3241 L295.9476,42.3241 C294.7496,42.3241 293.7796,41.3541 293.7796,40.1571 L293.7796,40.1501 C293.7796,38.9521 294.7496,37.9821 295.9476,37.9821 L314.8076,37.9821 C316.0046,37.9821 316.9756,38.9521 316.9756,40.1501 L316.9756,40.1571 C316.9756,41.3541 316.0046,42.3241 314.8076,42.3241 Z" id="Stroke-11" stroke="#0B567F" stroke-width="2" stroke-linecap="round" stroke-linejoin="round"></path>
                <path d="M337.9971,51.0014 L295.9471,51.0014 C294.7501,51.0014 293.7791,50.0314 293.7791,48.8344 C293.7791,47.6364 294.7501,46.6664 295.9471,46.6664 L337.9971,46.6664 C339.1941,46.6664 340.1651,47.6364 340.1651,48.8344 C340.1651,50.0314 339.1941,51.0014 337.9971,51.0014" id="Fill-13" fill="#B6C4CE"></path>
                <path d="M337.9971,51.0014 L295.9471,51.0014 C294.7501,51.0014 293.7791,50.0314 293.7791,48.8344 C293.7791,47.6364 294.7501,46.6664 295.9471,46.6664 L337.9971,46.6664 C339.1941,46.6664 340.1651,47.6364 340.1651,48.8344 C340.1651,50.0314 339.1941,51.0014 337.9971,51.0014 Z" id="Stroke-15" stroke="#0B567F" stroke-width="2" stroke-linecap="round" stroke-linejoin="round"></path>
                <path d="M337.9941,59.6855 L295.9511,59.6855 C294.7521,59.6855 293.7791,58.7135 293.7791,57.5145 C293.7791,56.3155 294.7521,55.3435 295.9511,55.3435 L337.9941,55.3435 C339.1921,55.3435 340.1651,56.3155 340.1651,57.5145 C340.1651,58.7135 339.1921,59.6855 337.9941,59.6855" id="Fill-17" fill="#B6C4CE"></path>
                <path d="M337.9941,59.6855 L295.9511,59.6855 C294.7521,59.6855 293.7791,58.7135 293.7791,57.5145 C293.7791,56.3155 294.7521,55.3435 295.9511,55.3435 L337.9941,55.3435 C339.1921,55.3435 340.1651,56.3155 340.1651,57.5145 C340.1651,58.7135 339.1921,59.6855 337.9941,59.6855 Z" id="Stroke-19" stroke="#0B567F" stroke-width="2" stroke-linecap="round" stroke-linejoin="round"></path>
                <path d="M337.9941,68.3661 L295.9511,68.3661 C294.7521,68.3661 293.7791,67.3941 293.7791,66.1951 C293.7791,64.9961 294.7521,64.0241 295.9511,64.0241 L337.9941,64.0241 C339.1921,64.0241 340.1651,64.9961 340.1651,66.1951 C340.1651,67.3941 339.1921,68.3661 337.9941,68.3661" id="Fill-21" fill="#B6C4CE"></path>
                <path d="M337.9941,68.3661 L295.9511,68.3661 C294.7521,68.3661 293.7791,67.3941 293.7791,66.1951 C293.7791,64.9961 294.7521,64.0241 295.9511,64.0241 L337.9941,64.0241 C339.1921,64.0241 340.1651,64.9961 340.1651,66.1951 C340.1651,67.3941 339.1921,68.3661 337.9941,68.3661 Z" id="Stroke-23" stroke="#0B567F" stroke-width="2" stroke-linecap="round" stroke-linejoin="round"></path>
                <path d="M337.9951,77.0463 L319.1441,77.0463 C317.9461,77.0463 316.9751,76.0753 316.9751,74.8773 C316.9751,73.6793 317.9461,72.7073 319.1441,72.7073 L337.9951,72.7073 C339.1931,72.7073 340.1651,73.6793 340.1651,74.8773 C340.1651,76.0753 339.1931,77.0463 337.9951,77.0463" id="Fill-25" fill="#B6C4CE"></path>
                <path d="M337.9951,77.0463 L319.1441,77.0463 C317.9461,77.0463 316.9751,76.0753 316.9751,74.8773 C316.9751,73.6793 317.9461,72.7073 319.1441,72.7073 L337.9951,72.7073 C339.1931,72.7073 340.1651,73.6793 340.1651,74.8773 C340.1651,76.0753 339.1931,77.0463 337.9951,77.0463 Z" id="Stroke-27" stroke="#0B567F" stroke-width="2" stroke-linecap="round" stroke-linejoin="round"></path>
                <path d="M337.9941,85.7304 L319.1461,85.7304 C317.9471,85.7304 316.9751,84.7584 316.9751,83.5594 C316.9751,82.3604 317.9471,81.3884 319.1461,81.3884 L337.9941,81.3884 C339.1921,81.3884 340.1651,82.3604 340.1651,83.5594 C340.1651,84.7584 339.1921,85.7304 337.9941,85.7304" id="Fill-29" fill="#B6C4CE"></path>
                <path d="M337.9941,85.7304 L319.1461,85.7304 C317.9471,85.7304 316.9751,84.7584 316.9751,83.5594 C316.9751,82.3604 317.9471,81.3884 319.1461,81.3884 L337.9941,81.3884 C339.1921,81.3884 340.1651,82.3604 340.1651,83.5594 C340.1651,84.7584 339.1921,85.7304 337.9941,85.7304 Z" id="Stroke-31" stroke="#0B567F" stroke-width="2" stroke-linecap="round" stroke-linejoin="round"></path>
                <path d="M314.8076,33.6435 L295.9476,33.6435 C294.7496,33.6435 293.7796,32.6735 293.7796,31.4765 L293.7796,31.4695 C293.7796,30.2715 294.7496,29.3015 295.9476,29.3015 L314.8076,29.3015 C316.0046,29.3015 316.9756,30.2715 316.9756,31.4695 L316.9756,31.4765 C316.9756,32.6735 316.0046,33.6435 314.8076,33.6435" id="Fill-33" fill="#B6C4CE"></path>
                <path d="M314.8076,33.6435 L295.9476,33.6435 C294.7496,33.6435 293.7796,32.6735 293.7796,31.4765 L293.7796,31.4695 C293.7796,30.2715 294.7496,29.3015 295.9476,29.3015 L314.8076,29.3015 C316.0046,29.3015 316.9756,30.2715 316.9756,31.4695 L316.9756,31.4765 C316.9756,32.6735 316.0046,33.6435 314.8076,33.6435 Z" id="Stroke-35" stroke="#0B567F" stroke-width="2" stroke-linecap="round" stroke-linejoin="round"></path>
                <path d="M295.749,109.5248 C285.92,109.5248 277.923,101.5278 277.923,91.6998 C277.923,81.8718 285.92,73.8768 295.749,73.8768 C305.576,73.8768 313.571,81.8718 313.571,91.6998 C313.571,92.7608 313.473,93.8408 313.279,94.9088 L313.217,95.2138 C311.613,103.0418 304.996,108.8708 297.109,109.4668 C296.682,109.5018 296.247,109.5218 295.808,109.5218 L295.749,109.5248 Z" id="Fill-37" fill="#F9912B"></path>
                <path d="M295.749,72.8773 C285.368,72.8773 276.923,81.3203 276.923,91.6993 C276.923,102.0803 285.368,110.5243 295.749,110.5243 C295.778,110.5243 295.819,110.5233 295.858,110.5223 C296.286,110.5213 296.724,110.5013 297.194,110.4633 C305.515,109.8343 312.503,103.6773 314.181,95.4923 L314.187,95.4573 C314.214,95.3383 314.239,95.2203 314.262,95.0963 C314.468,93.9603 314.571,92.8203 314.571,91.6993 C314.571,81.3203 306.128,72.8773 295.749,72.8773 M295.749,74.8773 C305.04,74.8773 312.571,82.4083 312.571,91.6993 C312.571,92.7343 312.474,93.7473 312.296,94.7303 C312.272,94.8543 312.247,94.9703 312.221,95.0903 C310.734,102.3463 304.582,107.8983 297.034,108.4703 C296.628,108.5023 296.22,108.5223 295.808,108.5223 C295.788,108.5223 295.769,108.5243 295.749,108.5243 C286.454,108.5243 278.923,100.9933 278.923,91.6993 C278.923,82.4083 286.454,74.8773 295.749,74.8773" id="Fill-39" fill="#0B567F"></path>
                <polygon id="Fill-41" fill="#FFFFFF" points="295.749 98.3905 289.145 101.8595 290.407 94.5095 285.062 89.3045 292.445 88.2265 295.749 81.5385 299.049 88.2265 306.432 89.3045 301.09 94.5095 302.349 101.8595"></polygon>
                <polygon id="Stroke-43" stroke="#0B567F" stroke-width="2" stroke-linecap="round" stroke-linejoin="round" points="295.749 98.3905 289.145 101.8595 290.407 94.5095 285.062 89.3045 292.445 88.2265 295.749 81.5385 299.049 88.2265 306.432 89.3045 301.09 94.5095 302.349 101.8595"></polygon>
                <path d="M59.8076,77.9687 C59.5416,77.9687 59.2876,77.8637 59.1006,77.6757 L32.6596,51.2387 L6.2216,77.6757 C6.0346,77.8637 5.7806,77.9687 5.5146,77.9687 C3.0306,77.9687 1.0046,75.9467 0.9996,73.4597 L1.0036,38.1077 C1.0036,35.6177 3.0276,33.5927 5.5146,33.5927 L32.6596,33.5887 L59.8076,33.5927 C62.2926,33.5927 64.3146,35.6177 64.3146,38.1077 L64.3226,73.4577 C64.3226,75.9457 62.2966,77.9687 59.8076,77.9687" id="Fill-45" fill="#2BB3E2"></path>
                <path d="M32.6592,32.5888 L5.5142,32.5928 C2.4752,32.5928 0.0032,35.0668 0.0032,38.1078 L0.0002,73.4578 C0.0052,76.4988 2.4792,78.9688 5.5142,78.9688 C6.0452,78.9688 6.5542,78.7578 6.9292,78.3828 L32.6592,52.6528 L58.3932,78.3828 C58.7682,78.7578 59.2762,78.9688 59.8072,78.9688 C62.8482,78.9688 65.3212,76.4968 65.3212,73.4588 L65.3142,38.1068 C65.3142,35.0668 62.8442,32.5928 59.8072,32.5928 L32.6592,32.5888 Z M32.6592,34.5888 L59.8072,34.5928 C61.7432,34.5928 63.3142,36.1718 63.3142,38.1078 L63.3212,73.4588 C63.3212,75.3968 61.7432,76.9688 59.8072,76.9688 L32.6592,49.8248 L5.5142,76.9688 C3.5792,76.9688 2.0032,75.3968 2.0002,73.4588 L2.0032,38.1078 C2.0032,36.1688 3.5792,34.5928 5.5142,34.5928 L32.6592,34.5888 Z" id="Fill-47" fill="#0B567F"></path>
                <path d="M5.5146,77.9687 C5.1106,77.9687 4.7446,77.7247 4.5906,77.3517 C4.4356,76.9777 4.5216,76.5477 4.8076,76.2617 L31.9516,49.1177 C32.1476,48.9227 32.4036,48.8247 32.6596,48.8247 C32.9146,48.8247 33.1706,48.9227 33.3666,49.1177 L60.5146,76.2617 C60.8006,76.5477 60.8866,76.9777 60.7316,77.3517 C60.5776,77.7247 60.2116,77.9687 59.8076,77.9687 L5.5146,77.9687 Z" id="Fill-49" fill="#F9912B"></path>
                <path d="M32.6592,47.8246 C32.1472,47.8246 31.6362,48.0196 31.2452,48.4106 L4.1002,75.5536 C3.5282,76.1266 3.3572,76.9866 3.6672,77.7336 C3.9762,78.4816 4.7062,78.9686 5.5142,78.9686 L59.8072,78.9686 C60.6162,78.9686 61.3452,78.4816 61.6552,77.7336 C61.9642,76.9866 61.7942,76.1266 61.2212,75.5536 L34.0732,48.4106 C33.6822,48.0196 33.1712,47.8246 32.6592,47.8246 M32.6592,49.8246 L59.8072,76.9686 L5.5142,76.9686 L32.6592,49.8246" id="Fill-51" fill="#0B567F"></path>
                <polygon id="Fill-53" fill="#FFFFFF" points="59.8076 33.7177 5.5146 33.7177 32.6596 60.8617"></polygon>
                <polygon id="Stroke-55" stroke="#0B567F" stroke-width="2" stroke-linecap="round" stroke-linejoin="round" points="59.8076 33.7177 5.5146 33.7177 32.6596 60.8617"></polygon>
                <path d="M196.2021,42.7729 C193.0751,42.7729 190.5311,40.2319 190.5311,37.1089 C190.5311,33.9859 193.0751,31.4449 196.2021,31.4449 C197.7181,31.4449 199.1391,32.0349 200.2081,33.1049 C201.2771,34.1749 201.8651,35.5959 201.8631,37.1059 C201.8631,40.2309 199.3231,42.7729 196.2021,42.7729" id="Fill-57" fill="#B6C4CE"></path>
                <path d="M196.209,30.4447 L196.202,30.4447 C192.524,30.4447 189.532,33.4337 189.532,37.1087 C189.532,40.7837 192.524,43.7727 196.202,43.7727 C199.875,43.7727 202.863,40.7817 202.863,37.1057 C202.866,35.3307 202.175,33.6577 200.917,32.3987 C199.659,31.1387 197.986,30.4447 196.209,30.4447 M196.209,32.4447 C198.774,32.4447 200.866,34.5317 200.863,37.1057 C200.863,39.6847 198.774,41.7727 196.202,41.7727 C193.623,41.7727 191.532,39.6817 191.532,37.1087 C191.532,34.5297 193.623,32.4447 196.202,32.4447 L196.209,32.4447" id="Fill-59" fill="#0B567F"></path>
                <path d="M206.1553,37.1093 C206.1553,31.6193 201.6883,27.1493 196.1983,27.1463 L195.1993,27.1453 L195.2023,18.2613 L196.2023,18.2613 C206.5923,18.2613 215.0473,26.7153 215.0473,37.1053 L215.0473,38.1053 L206.1553,38.1093 L206.1553,37.1093 Z" id="Fill-61" fill="#FFFFFF"></path>
                <path d="M194.2041,17.2611 L194.2021,19.2601 L194.1991,26.1451 L194.1981,28.1451 L196.1981,28.1461 C201.1371,28.1491 205.1551,32.1701 205.1551,37.1091 L205.1551,39.1101 L207.1551,39.1091 L214.0481,39.1051 L216.0461,39.1041 L216.0461,37.1051 C216.0461,26.1631 207.1441,17.2611 196.2021,17.2611 L194.2041,17.2611 Z M196.2021,19.2611 C206.0401,19.2611 214.0461,27.2681 214.0461,37.1051 L207.1551,37.1091 C207.1551,31.0651 202.2401,26.1501 196.1991,26.1461 L196.2021,19.2611 Z" id="Fill-63" fill="#0B567F"></path>
                <path d="M178.3516,38.1054 C177.7996,38.1054 177.3516,37.6584 177.3516,37.1054 C177.3496,32.0794 179.3116,27.3494 182.8766,23.7864 C186.4416,20.2234 191.1736,18.2614 196.2026,18.2614 C196.4676,18.2614 196.7216,18.3664 196.9096,18.5544 C197.0966,18.7414 197.2026,18.9964 197.2026,19.2614 L197.1996,26.1464 C197.1996,26.6984 196.7516,27.1454 196.2006,27.1464 C190.7106,27.1484 186.2436,31.6174 186.2396,37.1054 C186.2396,37.6584 185.7906,38.1054 185.2396,38.1054 L178.3516,38.1054 Z" id="Fill-65" fill="#B6C4CE"></path>
                <path d="M196.2021,21.2611 L196.2081,21.2611 L196.2021,21.2611 Z M196.2081,17.2611 L196.2021,17.2611 C190.9071,17.2611 185.9241,19.3271 182.1711,23.0781 C178.4161,26.8301 176.3491,31.8121 176.3511,37.1061 C176.3521,38.2101 177.2471,39.1051 178.3511,39.1051 L185.2391,39.1061 C186.3441,39.1061 187.2391,38.2111 187.2391,37.1071 C187.2431,32.1681 191.2631,28.1491 196.2001,28.1461 C197.3041,28.1461 198.1981,27.2511 198.1991,26.1471 L198.2021,19.3631 C198.2041,19.3291 198.2051,19.2951 198.2051,19.2611 C198.2051,18.1571 197.3111,17.2611 196.2081,17.2611 Z M196.2021,19.2611 L196.1991,26.1461 C190.1511,26.1491 185.2431,31.0651 185.2391,37.1061 L178.3511,37.1051 C178.3481,27.2651 186.3581,19.2611 196.2021,19.2611 Z M196.2021,19.2611 L196.2081,19.2611 L196.2021,19.2611 Z" id="Fill-67" fill="#0B567F"></path>
                <path d="M222.416,38.1054 L222.416,37.1054 C222.418,30.1144 219.689,23.5344 214.734,18.5764 C209.778,13.6184 203.197,10.8874 196.205,10.8874 L195.205,10.8874 L195.199,9.8874 L195.199,2.0004 L196.199,2.0004 C215.56,2.0004 231.305,17.7484 231.305,37.1054 L231.305,38.1054 L222.416,38.1054 Z" id="Fill-69" fill="#FFFFFF"></path>
                <g id="Group-73" transform="translate(194.000000, 0.246000)">
                    <mask id="mask-2" fill="white">
                        <use xlink:href="#path-1"></use>
                    </mask>
                    <g id="Clip-72"></g>
                    <path d="M2.2061,0.7539 L2.1991,0.7539 L0.1991,0.7539 L0.1991,2.7539 L0.1991,9.6419 L0.1991,11.6419 L2.1991,11.6419 C8.9311,11.6419 15.2591,14.2679 20.0261,19.0379 C24.7941,23.8059 27.4181,30.1349 27.4171,36.8589 L27.4161,38.8589 L29.4171,38.8589 L36.3051,38.8599 L38.3051,38.8599 L38.3051,36.8599 C38.3051,16.9509 22.1101,0.7539 2.2061,0.7539 M2.2061,2.7539 C21.0091,2.7539 36.3051,18.0519 36.3051,36.8599 L29.4171,36.8589 C29.4201,21.8549 17.2161,9.6409 2.2051,9.6419 L2.1991,9.6419 L2.1991,2.7539 L2.2061,2.7539" id="Fill-71" fill="#0B567F" mask="url(#mask-2)"></path>
                </g>
                <path d="M162.0937,38.1054 C161.5417,38.1054 161.0937,37.6574 161.0937,37.1054 C161.0917,27.7434 164.7457,18.9324 171.3827,12.2934 C178.0197,5.6554 186.8307,2.0004 196.1937,2.0004 C196.7447,2.0004 197.1987,2.4474 197.1987,3.0004 L197.1987,9.8874 C197.1987,10.4394 196.7517,10.8874 196.1987,10.8874 C189.2057,10.8874 182.6247,13.6184 177.6667,18.5764 C172.7087,23.5344 169.9797,30.1144 169.9817,37.1054 C169.9817,37.3704 169.8757,37.6254 169.6887,37.8124 C169.5007,38.0004 169.2467,38.1054 168.9817,38.1054 L162.0937,38.1054 Z" id="Fill-74" fill="#B6C4CE"></path>
                <g id="Group-78" transform="translate(160.000000, 0.246000)">
                    <mask id="mask-4" fill="white">
                        <use xlink:href="#path-3"></use>
                    </mask>
                    <g id="Clip-77"></g>
                    <path d="M36.1992,0.7539 L36.1922,0.7539 C26.5632,0.7539 17.5012,4.5139 10.6762,11.3409 C3.8492,18.1679 0.0912,27.2309 0.0932,36.8599 C0.0932,37.9639 0.9892,38.8599 2.0932,38.8599 L8.9812,38.8589 C9.5122,38.8589 10.0202,38.6479 10.3952,38.2729 C10.7702,37.8979 10.9812,37.3889 10.9812,36.8589 C10.9792,30.1349 13.6052,23.8059 18.3742,19.0379 C23.1432,14.2679 29.4732,11.6419 36.1992,11.6419 C37.3032,11.6419 38.1992,10.7459 38.1992,9.6419 L38.1992,2.7539 C38.1992,1.6499 37.3032,0.7539 36.1992,0.7539 M36.1922,2.7539 L36.1992,2.7539 L36.1992,9.6419 C21.1882,9.6419 8.9772,21.8529 8.9812,36.8589 L2.0932,36.8599 C2.0902,18.0539 17.3872,2.7539 36.1922,2.7539" id="Fill-76" fill="#0B567F" mask="url(#mask-4)"></path>
                </g>
                <path d="M106.7598,90.9403 C105.6978,90.9403 104.8328,90.0763 104.8328,89.0133 C104.8328,87.9513 105.6978,87.0863 106.7598,87.0863 C107.8218,87.0863 108.6868,87.9513 108.6868,89.0133 C108.6868,90.0763 107.8218,90.9403 106.7598,90.9403 Z M135.3098,98.5113 L134.7368,100.9873 L122.0518,88.3013 L121.3408,88.0063 L110.5518,88.0063 C110.1038,86.3233 108.5808,85.0743 106.7598,85.0743 C104.5888,85.0743 102.8218,86.8413 102.8218,89.0133 C102.8218,91.1853 104.5888,92.9513 106.7598,92.9513 C108.5808,92.9513 110.1048,91.7013 110.5518,90.0183 L120.9248,90.0183 L134.2008,103.2943 L133.3358,107.0253 L136.7958,107.9193 L138.8078,99.2433 L135.3098,98.5113 Z" id="Fill-79" fill="#0B567F"></path>
                <path d="M6.9619,140.3105 C6.9619,139.2475 7.8259,138.3825 8.8889,138.3825 C9.9509,138.3825 10.8159,139.2475 10.8159,140.3105 C10.8159,141.3725 9.9509,142.2375 8.8889,142.2375 C7.8259,142.2375 6.9619,141.3725 6.9619,140.3105 M4.9509,140.3105 C4.9509,142.4815 6.7179,144.2485 8.8889,144.2485 C10.7099,144.2485 12.2329,142.9985 12.6809,141.3155 L51.2669,141.3155 L62.0879,152.1365 L62.7989,152.4315 L131.2419,152.4315 C130.9269,154.5185 130.5379,156.5275 130.5379,156.5275 L134.0599,157.1375 C134.0599,157.1375 134.4829,154.9505 134.8099,152.7475 C135.0899,150.5395 135.3709,148.3295 135.3709,148.3295 L131.8259,147.8835 C131.8259,147.8835 131.6849,148.9975 131.5039,150.4195 L63.2149,150.4195 L52.3949,139.5995 L51.6829,139.3045 L12.6809,139.3045 C12.2329,137.6215 10.7099,136.3715 8.8889,136.3715 C6.7179,136.3715 4.9509,138.1385 4.9509,140.3105" id="Fill-81" fill="#0B567F"></path>
                <path d="M25.4316,115.7377 C25.4316,114.6757 26.2956,113.8107 27.3586,113.8107 C28.4206,113.8107 29.2856,114.6757 29.2856,115.7377 C29.2856,116.7997 28.4206,117.6647 27.3586,117.6647 C26.2956,117.6647 25.4316,116.7997 25.4316,115.7377 M23.4206,115.7377 C23.4206,117.9087 25.1876,119.6757 27.3586,119.6757 C29.3726,119.6757 31.0196,118.1507 31.2496,116.1977 L48.1296,116.1977 L48.8406,115.9027 L54.9146,109.8287 L125.0456,109.8287 C125.0386,110.2007 125.0296,110.5787 125.0116,110.9617 C124.9566,113.1467 124.9016,115.3317 124.9016,115.3317 L128.4726,115.4517 C128.4726,115.4517 128.5296,113.2267 128.5846,111.0017 C128.6876,108.7767 128.5826,106.5507 128.5826,106.5507 L125.0096,106.5917 C125.0096,106.5917 125.0326,107.0837 125.0456,107.8177 L54.4986,107.8177 L53.7876,108.1127 L47.7136,114.1867 L30.9766,114.1867 C30.3716,112.7837 28.9786,111.7997 27.3586,111.7997 C25.1876,111.7997 23.4206,113.5657 23.4206,115.7377" id="Fill-83" fill="#0B567F"></path>
                <path d="M72.1719,134.4447 C72.1719,133.3827 73.0359,132.5167 74.0989,132.5167 C75.1609,132.5167 76.0259,133.3827 76.0259,134.4447 C76.0259,135.5067 75.1609,136.3717 74.0989,136.3717 C73.0359,136.3717 72.1719,135.5067 72.1719,134.4447 M70.1609,134.4447 C70.1609,136.6157 71.9279,138.3827 74.0989,138.3827 C75.9199,138.3827 77.4429,137.1327 77.8909,135.4487 L107.2239,135.4487 L107.0429,137.7757 L110.5989,138.1407 L111.2859,129.2607 L107.7169,129.0587 L107.3789,133.4377 L77.8909,133.4377 C77.4429,131.7547 75.9199,130.5057 74.0989,130.5057 C71.9279,130.5057 70.1609,132.2727 70.1609,134.4447" id="Fill-85" fill="#0B567F"></path>
                <path d="M282.1729,143.5468 C281.1109,143.5468 280.2459,142.6828 280.2459,141.6198 C280.2459,140.5578 281.1109,139.6928 282.1729,139.6928 C283.2349,139.6928 284.0999,140.5578 284.0999,141.6198 C284.0999,142.6828 283.2349,143.5468 282.1729,143.5468 M282.1729,137.6808 C280.3519,137.6808 278.8289,138.9298 278.3819,140.6138 L248.8939,140.6138 L248.5549,136.2348 L244.9849,136.4358 L245.6729,145.3168 L249.2289,144.9508 L249.0489,142.6248 L278.3819,142.6248 C278.8279,144.3078 280.3519,145.5578 282.1729,145.5578 C284.3439,145.5578 286.1109,143.7908 286.1109,141.6198 C286.1109,139.4478 284.3439,137.6808 282.1729,137.6808" id="Fill-87" fill="#0B567F"></path>
                <path d="M321.1064,163.5458 C320.0974,163.5458 319.2764,162.7258 319.2764,161.7168 C319.2764,160.7078 320.0974,159.8858 321.1064,159.8858 C322.1154,159.8858 322.9354,160.7078 322.9354,161.7168 C322.9354,162.7258 322.1154,163.5458 321.1064,163.5458 M321.1064,157.9768 C319.5674,157.9768 318.2444,158.9118 317.6704,160.2428 L301.7784,160.2428 L296.0104,154.4758 L295.3354,154.1958 L228.3474,154.1958 C228.3604,153.4988 228.3814,153.0318 228.3814,153.0318 L224.9894,152.9928 C224.9894,152.9928 224.8894,155.1068 224.9874,157.2188 C225.0404,159.3328 225.0934,161.4448 225.0934,161.4448 L228.4844,161.3308 C228.4844,161.3308 228.4324,159.2558 228.3794,157.1808 C228.3634,156.8168 228.3544,156.4588 228.3474,156.1058 L294.9404,156.1058 L300.7084,161.8728 L301.3824,162.1528 L317.4114,162.1528 C317.6294,164.0078 319.1944,165.4558 321.1064,165.4558 C323.1684,165.4558 324.8454,163.7778 324.8454,161.7168 C324.8454,159.6538 323.1684,157.9768 321.1064,157.9768" id="Fill-89" fill="#0B567F"></path>
                <path d="M173.0625,207.2465 C172.0435,207.2465 171.0905,206.7435 170.5125,205.9005 L153.5235,180.6535 C152.8895,179.7105 152.8285,178.5005 153.3635,177.4975 C153.8985,176.4945 154.9345,175.8705 156.0675,175.8705 L164.2485,175.8705 L164.2485,163.8845 L125.6915,163.8845 C112.5235,163.8505 101.8225,153.1255 101.8225,139.9495 C101.8225,128.2415 110.3565,118.2405 121.8115,116.3395 C122.3515,104.8965 131.6775,95.6715 143.1345,95.2585 C143.0835,94.5705 143.0585,93.8865 143.0585,93.2145 C143.0585,77.9305 155.4935,65.4965 170.7775,65.4965 C183.2025,65.4965 194.0005,73.6735 197.4095,85.5135 C199.8765,84.7295 202.4475,84.3335 205.0665,84.3335 C219.0005,84.3335 230.3345,95.6685 230.3345,109.6015 C230.3345,111.7765 230.0585,113.9285 229.5125,116.0175 L238.2405,116.0175 C251.4365,116.0175 262.1725,126.7525 262.1725,139.9495 C262.1725,153.1465 251.4365,163.8845 238.2405,163.8845 L209.9935,163.8845 L209.9935,144.0675 L220.5805,144.0675 C221.0125,144.0675 221.3945,143.8375 221.6005,143.4515 C221.8055,143.0655 221.7845,142.6195 221.5415,142.2575 L203.8035,115.8995 C203.5835,115.5785 203.2285,115.3905 202.8335,115.3905 C202.4365,115.3905 202.0835,115.5805 201.8675,115.9125 L184.0985,142.2825 C183.8535,142.6475 183.8295,143.0965 184.0345,143.4815 C184.1315,143.6645 184.4275,144.0915 185.0595,144.0915 L195.6695,144.0915 L195.6695,163.8845 L181.8785,163.8845 L181.8785,175.8475 L190.0825,175.8475 C191.2205,175.8475 192.2585,176.4685 192.7915,177.4685 C193.3265,178.4725 193.2625,179.6835 192.6255,180.6305 L175.6185,205.8715 C175.0575,206.7285 174.0995,207.2465 173.0625,207.2465" id="Fill-91" fill="#FFFFFF"></path>
                <g id="Group-95" transform="translate(100.000000, 64.246000)">
                    <mask id="mask-6" fill="white">
                        <use xlink:href="#path-5"></use>
                    </mask>
                    <g id="Clip-94"></g>
                    <path d="M70.7764,0.2505 C54.9424,0.2505 42.0594,13.1335 42.0594,28.9685 C42.0594,29.3335 42.0664,29.7015 42.0814,30.0725 C30.8384,30.9745 21.7844,39.9985 20.8644,51.2505 C9.3254,53.5465 0.8214,63.7745 0.8214,75.7035 C0.8214,89.4525 12.0064,100.6385 25.7554,100.6385 C25.9154,100.6385 26.0754,100.6365 26.2354,100.6325 L26.6914,100.6385 L63.2484,100.6385 L63.2484,110.6245 L56.0674,110.6245 C54.5634,110.6245 53.1894,111.4505 52.4814,112.7815 C51.7724,114.1115 51.8534,115.7155 52.6934,116.9655 L69.6784,142.2055 C70.4524,143.3345 71.7134,144.0005 73.0634,144.0005 C74.4384,144.0005 75.7094,143.3125 76.4624,142.1615 L93.4544,116.9445 C94.2984,115.6885 94.3814,114.0835 93.6734,112.7525 C92.9664,111.4265 91.5904,110.6015 90.0814,110.6015 L82.8794,110.6015 L82.8794,100.6385 L94.6714,100.6385 L96.6714,100.6385 L96.6714,98.6385 L96.6714,80.8455 L96.6714,78.8455 L94.6714,78.8455 L85.0594,78.8455 C85.0064,78.8455 84.9564,78.8395 84.9174,78.7655 C84.8714,78.6795 84.9094,78.6235 84.9284,78.5935 L102.6884,52.2365 C102.7194,52.1895 102.7494,52.1445 102.8334,52.1445 C102.9284,52.1445 102.9684,52.2035 102.9834,52.2265 L120.7124,78.5695 C120.7304,78.5995 120.7644,78.6485 120.7174,78.7355 C120.6724,78.8215 120.6124,78.8215 120.5814,78.8215 L110.9934,78.8215 L108.9934,78.8215 L108.9934,80.8215 L108.9934,98.6385 L108.9934,100.6385 L110.9934,100.6385 L138.2414,100.6385 C151.9884,100.6385 163.1724,89.4525 163.1724,75.7035 C163.1724,61.9555 151.9884,50.7715 138.2414,50.7715 L130.7744,50.7715 C131.1474,48.9965 131.3354,47.1835 131.3354,45.3555 C131.3354,30.8715 119.5514,19.0875 105.0664,19.0875 C102.6844,19.0875 100.3404,19.4025 98.0754,20.0275 C94.2474,8.2815 83.3114,0.2505 70.7764,0.2505 M70.7764,2.2505 C83.3234,2.2505 93.8474,10.8995 96.7194,22.5605 C99.3214,21.6065 102.1334,21.0875 105.0664,21.0875 C118.4694,21.0875 129.3354,31.9535 129.3354,45.3555 C129.3354,47.9425 128.9284,50.4345 128.1804,52.7715 L138.2414,52.7715 C150.9064,52.7715 161.1724,63.0385 161.1724,75.7035 C161.1724,88.3705 150.9064,98.6385 138.2414,98.6385 L110.9934,98.6385 L110.9934,80.8215 L120.5814,80.8215 C122.2994,80.8215 123.3374,78.8915 122.3704,77.4535 L104.6334,51.0955 C104.2004,50.4625 103.5154,50.1445 102.8334,50.1445 C102.1434,50.1445 101.4564,50.4685 101.0304,51.1195 L83.2694,77.4775 C82.3034,78.9135 83.3164,80.8455 85.0594,80.8455 L94.6714,80.8455 L94.6714,98.6385 L80.8794,98.6385 L80.8794,112.6015 L90.0814,112.6015 C91.7514,112.6015 92.7204,114.4515 91.7964,115.8265 L74.7894,141.0665 C74.3814,141.6895 73.7224,142.0005 73.0634,142.0005 C72.4094,142.0005 71.7534,141.6955 71.3384,141.0895 L54.3534,115.8495 C53.4284,114.4735 54.4214,112.6245 56.0674,112.6245 L65.2484,112.6245 L65.2484,98.6385 L26.6914,98.6385 L26.6914,98.6145 C26.3804,98.6305 26.0684,98.6385 25.7554,98.6385 C13.0884,98.6385 2.8214,88.3705 2.8214,75.7035 C2.8214,64.0435 11.5244,54.4175 22.7874,52.9605 C22.8864,41.3675 32.3174,31.9985 43.9344,31.9985 C44.0344,31.9985 44.1314,31.9995 44.2294,32.0005 C44.1194,31.0055 44.0594,29.9945 44.0594,28.9685 C44.0594,14.2135 56.0204,2.2505 70.7764,2.2505" id="Fill-93" fill="#0B567F" mask="url(#mask-6)"></path>
                </g>
            </g>
        </g>
    </g>
</svg>