<?xml version="1.0" encoding="UTF-8" standalone="no"?>
<svg width="373px" height="203px" viewBox="0 0 373 203" version="1.1" xmlns="http://www.w3.org/2000/svg" xmlns:xlink="http://www.w3.org/1999/xlink">
    <!-- Generator: Sketch 50.2 (55047) - http://www.bohemiancoding.com/sketch -->
    <title>Group</title>
    <desc>Created with Sketch.</desc>
    <defs>
        <polygon id="path-1" points="0 204 373 204 373 0 0 0"></polygon>
    </defs>
    <g id="Page-1" stroke="none" stroke-width="1" fill="none" fill-rule="evenodd">
        <g id="big-data" transform="translate(-805.000000, -815.000000)">
            <g id="Group" transform="translate(805.000000, 815.000000)">
                <path d="M70,170.892333 C70,165.737571 65.7793262,161.558755 60.5729971,161.558755 C58.9222323,161.558755 57.3693865,161.980959 56.0197685,162.720508 C56.0197685,162.695672 56.0216161,162.671756 56.0216161,162.647841 C56.0216161,152.349354 47.5895061,144 37.187933,144 C28.6800744,144 21.4913496,149.588005 19.1570001,157.25944 C17.5191681,156.58336 15.7233725,156.208987 13.8398195,156.208987 C6.19660319,156.208987 0,162.344295 0,169.913627 L0,174.801637 C0,179.880973 4.15970545,184 9.28936221,184 L60.709714,184 C65.8412183,184 70,179.880973 70,174.801637 L70,170.892333 Z" id="Fill-1" fill="#FFFFFF"></path>
                <path d="M366,128.339382 C366,120.60642 359.729252,114.337791 351.994596,114.337791 C349.540665,114.337791 347.235513,114.971264 345.230674,116.080301 C345.230674,116.044496 345.232511,116.008691 345.232511,115.971968 C345.232511,100.524406 332.70571,88 317.252009,88 C304.609491,88 293.931404,96.3820424 290.461737,107.889219 C288.029848,106.87658 285.361014,106.314717 282.56177,106.314717 C271.205913,106.314717 262,115.516602 262,126.868623 L262,134.202222 C262,141.82226 268.178909,148 275.802441,148 L352.197559,148 C359.821091,148 366,141.82226 366,134.202222 L366,128.339382 Z" id="Fill-3" fill="#FFFFFF"></path>
                <mask id="mask-2" fill="white">
                    <use xlink:href="#path-1"></use>
                </mask>
                <g id="Clip-6"></g>
                <polygon id="Fill-5" fill="#7996A5" mask="url(#mask-2)" points="135 194 182 194 182 159 135 159"></polygon>
                <polygon id="Stroke-7" stroke="#0B567F" stroke-width="2" mask="url(#mask-2)" points="135 194 182 194 182 159 135 159"></polygon>
                <path d="M60.5838823,168 C56.1522756,168 51.9877215,166.268719 48.8565055,163.124034 C45.723454,159.979349 43.9990827,155.797185 44.0000004,151.349663 L44.0000004,17.6503374 C43.9990827,13.2037363 45.723454,9.02157253 48.8565055,5.87504483 C51.9877215,2.73128128 56.1504401,1 60.5783761,1 L256.416118,1 C260.84956,1 265.012278,2.73128128 268.143495,5.87504483 C271.276546,9.02065115 273.000917,13.2028149 273,17.6503374 L273,151.349663 C273.000917,155.798106 271.276546,159.98027 268.143495,163.124034 C265.013196,166.267797 260.84956,168 256.418871,168 L60.5838823,168 Z" id="Fill-8" fill="#B6C4CE" mask="url(#mask-2)"></path>
                <path d="M256.491373,0 L256.485863,0 L185.936152,0 L60.5141385,0 C55.8323142,0 51.4361014,1.81798536 48.128151,5.11932944 C44.8192823,8.42342387 42.9981647,12.8148257 43.0000014,17.4849303 L43.0000014,150.515986 C42.9981647,155.186091 44.8192823,159.577493 48.128151,162.880671 C51.4361014,166.182015 55.8332326,168 60.5104651,168 L256.485863,168 C261.167687,168 265.5639,166.182015 268.870932,162.880671 C272.180719,159.577493 274.000918,155.185174 274,150.51507 L274,17.4840136 C274.000918,12.8148257 272.180719,8.42342387 268.870932,5.11932944 C265.5639,1.81798536 261.167687,0 256.491373,0 M256.490454,1.83357072 C260.646974,1.83357072 264.632678,3.48195079 267.572364,6.41658072 C270.513886,9.35212743 272.164188,13.3328095 272.16327,17.4840136 L272.16327,150.515986 C272.164188,154.667191 270.513886,158.648789 267.572364,161.583419 C264.633596,164.517132 260.646974,166.166429 256.491373,166.166429 L256.485863,166.166429 L60.5141385,166.166429 L60.5104651,166.166429 C56.3521088,166.166429 52.3664051,164.518049 49.426719,161.583419 C46.4870329,158.648789 44.8348945,154.667191 44.8367312,150.515986 L44.8367312,17.4840136 C44.8348945,13.3328095 46.4870329,9.35212743 49.426719,6.41658072 C52.3664051,3.48195079 56.3521088,1.83357072 60.5104651,1.83357072 L60.5141385,1.83357072 L185.936152,1.83357072 L256.485863,1.83357072 L256.490454,1.83357072" id="Fill-9" fill="#0B567F" mask="url(#mask-2)"></path>
                <path d="M103,203 L103,202.056159 C103,192.650779 110.472259,185 119.657256,185 L198.341822,185 C207.527741,185 215,192.650779 215,202.056159 L215,203 L103,203 Z" id="Fill-10" fill="#B6C4CE" mask="url(#mask-2)"></path>
                <path d="M197.55028,184 L119.44972,184 C109.827715,184 102,191.715059 102,201.196573 L102,203 L103.829974,203 L213.170026,203 L215,203 L215,201.196573 C215,191.715059 207.172285,184 197.55028,184 M197.55028,185.803427 C206.176779,185.803427 213.170026,192.695221 213.170026,201.196573 L103.829974,201.196573 C103.829974,192.695221 110.823221,185.803427 119.44972,185.803427 L197.55028,185.803427" id="Fill-11" fill="#0B567F" mask="url(#mask-2)"></path>
                <path d="M248.160588,18 L181.519614,18 L67.8394122,18 C63.5151061,18.0119314 60.0119405,21.2710316 60,25.2946575 L60,134.70626 C60.0119405,138.729886 63.5151061,141.988986 67.8394122,142 L181.519614,142 L248.160588,142 C252.484894,141.988986 255.987141,138.729886 256,134.70626 L256,80.0009178 L256,80 L256,25.2946575 C255.987141,21.2710316 252.484894,18.0119314 248.160588,18" id="Fill-12" fill="#0B567F" mask="url(#mask-2)"></path>
                <path d="M248.160588,18 L181.519614,18 L67.8394122,18 C63.5151061,18.0119314 60.0119405,21.2710316 60,25.2946575 L60,134.70626 C60.0119405,138.729886 63.5151061,141.988986 67.8394122,142 L181.519614,142 L248.160588,142 C252.484894,141.988986 255.987141,138.729886 256,134.70626 L256,80.0009178 L256,80 L256,25.2946575 C255.987141,21.2710316 252.484894,18.0119314 248.160588,18 Z" id="Stroke-13" stroke="#0B567F" mask="url(#mask-2)"></path>
                <path d="M76.0114897,142 C75.3851469,141.992631 72.9835539,141.450998 73.0000849,139.994671 L73.0000849,135.091423 C72.9863091,132.004672 78.5196161,123.419614 80.2158847,120.861598 C83.489031,115.927032 88.1030284,109.716683 90.3402294,108.451952 L100.556413,102.744547 C100.570189,102.73902 100.745602,102.519788 100.745602,101.682469 L100.745602,98.3073988 C99.2862782,95.8866335 98.165841,93.2807185 97.4118418,90.5522913 C95.7679215,89.4957397 94.6777911,87.7381978 94.4711531,85.7761621 C94.4674795,85.7439221 94.4656428,85.7116821 94.4656428,85.6794421 L94.4656428,80.9908215 C94.6098302,79.3419745 95.3739317,77.9077541 96.5852897,76.9221305 L96.5852897,71.7213541 C96.3455896,68.5277494 97.351228,65.3387505 99.4222001,62.8120538 C102.146148,59.6276606 106.414831,58.012896 112.124469,58 C117.84421,58.012896 122.118402,59.6267395 124.834085,62.7963944 C126.92067,65.3341448 127.934574,68.5194592 127.699466,71.7830707 L127.702221,76.9304208 C128.899803,77.9197289 129.653802,79.3438168 129.792479,80.9097608 L129.795234,85.6794421 C129.795234,85.7116821 129.794316,85.7448432 129.790642,85.7770833 C129.582168,87.7381978 128.492037,89.4957397 126.847199,90.5522913 C126.093199,93.2788762 124.97368,95.8847913 123.516194,98.3073988 L123.516194,101.682469 C123.516194,102.519788 123.68977,102.73902 123.691606,102.741784 L133.914219,108.449189 C137.994631,110.755732 150.018209,130.676383 149.999841,135.095108 L149.999841,139.91361 C150.020046,141.969602 148.108874,141.988025 147.082112,141.999079 C147.079357,141.999079 146.990273,142 146.987518,142 L76.0114897,142 Z" id="Fill-14" fill="#B6C4CE" mask="url(#mask-2)"></path>
                <path d="M112.131755,57 L112.122552,57 C106.123105,57.0138425 101.609946,58.7395457 98.7109952,62.1281991 C96.4755824,64.856102 95.3942279,68.2549066 95.6344266,71.7358436 L95.6344266,76.4589177 C94.4260704,77.582009 93.6686621,79.1139166 93.5168124,80.7907094 C93.5140514,80.8451567 93.5103702,80.9005269 93.5103702,80.955897 L93.5103702,85.6531317 C93.5103702,85.7177303 93.5140514,85.7823288 93.5204936,85.8469273 C93.7450472,87.9712955 94.8724168,89.88618 96.5887795,91.1107832 C97.340666,93.721486 98.4192596,96.2214484 99.8033934,98.5599146 L99.8033934,101.684637 C99.8033934,101.875664 99.7923498,102.015935 99.7803858,102.113756 L89.8530912,107.659077 C85.6086597,110.05845 71.9780709,130.19842 72.0001582,135.1642 L72.0001582,140.078302 C71.9927958,140.659688 72.2366757,141.777242 73.9438354,142.51828 C74.4674871,142.747143 75.2617075,142.992617 75.9188029,143 L147.061807,143 L147.165801,142.999077 C148.121074,142.988926 151.029228,142.959395 150.999778,139.97033 L150.999778,135.154972 C151.013582,131.877982 146.309,123.780097 144.285257,120.450505 C142.718903,117.873024 137.379313,109.336792 134.417782,107.662768 L124.484045,102.113756 C124.471161,102.015012 124.460117,101.874741 124.460117,101.684637 L124.460117,98.5589917 C125.84333,96.2205256 126.921004,93.721486 127.67289,91.1107832 C129.389253,89.8871028 130.518463,87.9722183 130.743937,85.8478501 C130.749459,85.7832516 130.75314,85.7177303 130.75314,85.6531317 L130.75314,80.955897 C130.75314,80.9014497 130.7513,80.8470024 130.746698,80.7934779 C130.60037,79.1277591 129.852165,77.59862 128.655773,76.4718374 L128.655773,71.7284609 C128.889529,68.2475239 127.799892,64.8496421 125.583805,62.1558842 C122.656326,58.7386228 118.138565,57.0138425 112.131755,57 M112.128074,58.8456718 C117.57534,58.8585915 121.623747,60.3655825 124.16378,63.3297314 C126.083529,65.6635834 127.03236,68.6480347 126.815169,71.6647852 L126.815169,77.3476087 C128.016163,78.1772381 128.785535,79.499662 128.912537,80.955897 L128.912537,85.6531317 C128.722034,87.4563531 127.669209,89.053782 126.08721,89.9350903 C125.334404,92.7940359 124.16562,95.526553 122.619514,98.0449722 L122.619514,101.684637 C122.619514,103.186091 123.100831,103.457405 123.283051,103.556148 L133.514045,109.271271 C137.166723,111.335655 149.177581,130.950532 149.159175,135.155895 L149.159175,139.986941 C149.171138,141.161711 148.232431,141.141409 147.061807,141.154328 L75.9381292,141.154328 C75.3758249,141.147868 73.8343195,140.642154 73.8407616,140.078302 L73.8407616,135.155895 C73.8223556,130.950532 87.0967876,111.335655 90.7494651,109.271271 L100.980459,103.556148 C101.161759,103.457405 101.643997,103.186091 101.643997,101.684637 L101.643997,98.0449722 C100.096049,95.5274758 98.9272662,92.7949587 98.1744593,89.9350903 C96.5943013,89.0528592 95.5414761,87.4554302 95.3509737,85.6531317 L95.3509737,80.955897 C95.4816565,79.4932021 96.2620724,78.167087 97.47503,77.3429945 L97.47503,71.6693994 C97.2504764,68.6535717 98.1937857,65.6663519 100.108934,63.3297314 C102.641604,60.368351 106.68633,58.8585915 112.128074,58.8456718" id="Fill-15" fill="#0B567F" mask="url(#mask-2)"></path>
                <path d="M158,162 C153.588768,162 150,158.411026 150,153.999542 C150,149.588974 153.588768,146 158,146 C162.411232,146 166,149.588974 166,153.999542 C166,158.411026 162.411232,162 158,162" id="Fill-16" fill="#FFFFFF" mask="url(#mask-2)"></path>
                <path d="M157.999537,146 C153.03753,146 149,150.03702 149,155.000463 C149,159.96298 153.03753,164 157.999537,164 C162.961544,164 167,159.96298 167,155.000463 C167,150.03702 162.961544,146 157.999537,146 M157.999537,147.850995 C161.948229,147.850995 165.149195,151.051365 165.149195,155.000463 C165.149195,158.948635 161.948229,162.149005 157.999537,162.149005 C154.050846,162.149005 150.850805,158.948635 150.850805,155.000463 C150.850805,151.051365 154.050846,147.850995 157.999537,147.850995" id="Fill-17" fill="#456877" mask="url(#mask-2)"></path>
                <polygon id="Fill-18" fill="#D9E4ED" mask="url(#mask-2)" points="323 123.540458 312.540458 134 299 120.459542 309.459542 110"></polygon>
                <polygon id="Stroke-19" stroke="#0B567F" stroke-width="2" mask="url(#mask-2)" points="323 123.540458 312.540458 134 299 120.459542 309.459542 110"></polygon>
                <path d="M305.40546,54.5945395 C322.19818,71.3872589 322.19818,98.6127411 305.40546,115.40546 C288.612741,132.19818 261.387259,132.19818 244.59454,115.40546 C227.80182,98.6127411 227.80182,71.3872589 244.59454,54.5945395 C261.387259,37.8018202 288.612741,37.8018202 305.40546,54.5945395 Z" id="Stroke-20" stroke="#0B567F" stroke-width="2" mask="url(#mask-2)"></path>
                <path d="M250.805543,60.8051046 C237.464236,74.1464306 237.464236,95.8539143 250.804623,109.19524 C264.145929,122.536566 285.854301,122.536566 299.195607,109.19524 C312.536914,95.8539143 312.536914,74.1455107 299.195607,60.8051046 C285.854301,47.4637786 264.146849,47.4637786 250.805543,60.8051046 M302.590271,112.58991 C287.37684,127.803363 262.62339,127.803363 247.409959,112.58991 C232.196527,97.3773757 232.196527,72.6238893 247.410879,57.4104354 C262.62431,42.1960616 287.37776,42.1969815 302.590271,57.4104354 C317.802783,72.6229693 317.803703,97.3764557 302.590271,112.58991" id="Fill-21" fill="#D9E4ED" mask="url(#mask-2)"></path>
                <path d="M250.805543,60.8051046 C237.464236,74.1464306 237.464236,95.8539143 250.804623,109.19524 C264.145929,122.536566 285.854301,122.536566 299.195607,109.19524 C312.536914,95.8539143 312.536914,74.1455107 299.195607,60.8051046 C285.854301,47.4637786 264.146849,47.4637786 250.805543,60.8051046 Z M302.590271,112.58991 C287.37684,127.803363 262.62339,127.803363 247.409959,112.58991 C232.196527,97.3773757 232.196527,72.6238893 247.410879,57.4104354 C262.62431,42.1960616 287.37776,42.1969815 302.590271,57.4104354 C317.802783,72.6229693 317.803703,97.3764557 302.590271,112.58991 Z" id="Stroke-22" stroke="#D8E2EB" mask="url(#mask-2)"></path>
                <path d="M247.680003,57.6801467 C232.616937,72.7433222 232.616019,97.2557595 247.680003,112.319853 C262.743986,127.383947 287.256244,127.383947 302.319309,112.319853 C317.383292,97.2557595 317.383292,72.7442405 302.319309,57.6801467 C287.255325,42.616053 262.743068,42.616053 247.680003,57.6801467 M308.249042,118.24963 C289.91535,136.583457 260.083962,136.583457 241.750269,118.24963 C223.416577,99.9158034 223.416577,70.0841966 241.750269,51.75037 C260.083962,33.4165433 289.91535,33.4165433 308.249042,51.75037 C326.583653,70.0841966 326.583653,99.9158034 308.249042,118.24963" id="Fill-23" fill="#7996A5" mask="url(#mask-2)"></path>
                <path d="M247.680003,57.6801467 C232.616937,72.7433222 232.616019,97.2557595 247.680003,112.319853 C262.743986,127.383947 287.256244,127.383947 302.319309,112.319853 C317.383292,97.2557595 317.383292,72.7442405 302.319309,57.6801467 C287.255325,42.616053 262.743068,42.616053 247.680003,57.6801467 Z M308.249042,118.24963 C289.91535,136.583457 260.083962,136.583457 241.750269,118.24963 C223.416577,99.9158034 223.416577,70.0841966 241.750269,51.75037 C260.083962,33.4165433 289.91535,33.4165433 308.249042,51.75037 C326.583653,70.0841966 326.583653,99.9158034 308.249042,118.24963 Z" id="Stroke-24" stroke="#0B567F" stroke-width="2" mask="url(#mask-2)"></path>
                <path d="M355.269488,181.998154 C353.208051,181.951093 351.226893,181.051392 349.8363,179.528822 L310,135.918707 L325.919387,120 L369.528836,159.835985 C371.051384,161.2266 371.951071,163.207787 371.998131,165.269255 C372.044269,167.331647 371.234089,169.350668 369.777058,170.807722 L360.807869,179.777047 C359.372984,181.210109 357.46657,182 355.439275,182 L355.269488,181.998154 Z" id="Fill-25" fill="#B6C4CE" mask="url(#mask-2)"></path>
                <path d="M326.1137,119 L324.870004,120.243719 L310.243696,134.870293 L309,136.114011 L310.186663,137.412005 L349.306056,180.236589 C350.860676,181.940263 353.0767,182.946645 355.380114,182.99724 L355.572371,183 C357.838989,183 359.970382,182.116886 361.572837,180.514402 L370.513283,171.572874 C372.144254,169.942793 373.049429,167.686253 372.997915,165.380958 C372.944561,163.074743 371.938198,160.861439 370.236395,159.30587 L327.41259,120.185764 L326.1137,119 Z M326.170733,121.544472 L368.995458,160.664578 C370.334823,161.888978 371.116733,163.607371 371.158128,165.422354 C371.199523,167.237337 370.495805,168.989766 369.212553,170.272121 L360.272108,179.213649 C359.023812,180.461967 357.333048,181.160179 355.572371,181.160179 C355.522697,181.160179 355.472103,181.159259 355.421509,181.15834 C353.607479,181.116944 351.889117,180.33686 350.663819,178.99655 L311.544426,136.171046 L326.170733,121.544472 Z" id="Fill-26" fill="#0B567F" mask="url(#mask-2)"></path>
                <path d="M329.376133,124.309582 L314.309582,139.376133 C313.47867,140.207956 312.129915,140.207956 311.299003,139.376133 L306.623867,134.701907 C305.792044,133.870085 305.792044,132.52133 306.623867,131.689507 L321.690418,116.623867 C322.52224,115.792044 323.870085,115.792044 324.701907,116.623867 L329.376133,121.298093 C330.207956,122.129915 330.207956,123.47867 329.376133,124.309582" id="Fill-27" fill="#7996A5" mask="url(#mask-2)"></path>
                <path d="M329.376133,124.309582 L314.309582,139.376133 C313.47867,140.207956 312.129915,140.207956 311.299003,139.376133 L306.623867,134.701907 C305.792044,133.870085 305.792044,132.52133 306.623867,131.689507 L321.690418,116.623867 C322.52224,115.792044 323.870085,115.792044 324.701907,116.623867 L329.376133,121.298093 C330.207956,122.129915 330.207956,123.47867 329.376133,124.309582 Z" id="Stroke-28" stroke="#0B567F" stroke-width="2" mask="url(#mask-2)"></path>
                <path d="M299.041236,60.9580396 C312.319588,74.2363463 312.319588,95.7638839 299.041236,109.04127 C285.763805,122.319577 264.235274,122.319577 250.958764,109.04127 C237.680412,95.7638839 237.680412,74.2363463 250.958764,60.9580396 C264.235274,47.6806535 285.763805,47.6806535 299.041236,60.9580396" id="Fill-29" fill="#D9E4ED" mask="url(#mask-2)"></path>
                <path d="M299.041236,60.9580396 C312.319588,74.2363463 312.319588,95.7638839 299.041236,109.04127 C285.763805,122.319577 264.235274,122.319577 250.958764,109.04127 C237.680412,95.7638839 237.680412,74.2363463 250.958764,60.9580396 C264.235274,47.6806535 285.763805,47.6806535 299.041236,60.9580396 Z" id="Stroke-30" stroke="#0B567F" stroke-width="2" mask="url(#mask-2)"></path>
                <path d="M260.500454,95 C250.849975,95 243,87.1498211 243,77.5 C243,67.8501789 250.849975,60 260.500454,60 C270.150025,60 278,67.8501789 278,77.5 C278,87.1498211 270.150025,95 260.500454,95" id="Fill-31" fill="#F2F2F2" mask="url(#mask-2)"></path>
                <path d="M260.5,59 C250.29823,59 242,67.2998496 242,77.500456 C242,87.7010624 250.29823,96 260.5,96 C270.700858,96 279,87.7010624 279,77.500456 C279,67.2998496 270.700858,59 260.5,59 M260.5,60.8241428 C269.710324,60.8241428 277.175812,68.2903592 277.175812,77.500456 C277.175812,86.7096408 269.710324,94.1758572 260.5,94.1758572 C251.289676,94.1758572 243.824188,86.7096408 243.824188,77.500456 C243.824188,68.2903592 251.289676,60.8241428 260.5,60.8241428" id="Fill-32" fill="#0B567F" mask="url(#mask-2)"></path>
                <path d="M135.598291,141 C134.80022,140.991765 133.192113,140.512288 132.468602,139.777518 C132.07555,139.379479 131.997308,138.978695 132.000069,138.712421 L132.000069,132.492952 C131.974296,126.836227 149.250177,101.628937 154.05517,98.9359996 L167.122541,91.7017601 C167.355426,91.5745708 167.496262,90.9752251 167.496262,90.1333961 L167.496262,85.7833361 C165.604642,82.6859543 164.158541,79.3506643 163.195702,75.8607339 C161.110777,74.5668793 159.72727,72.381784 159.46769,69.9386497 C159.464008,69.9066236 159.462167,69.8745975 159.462167,69.8425714 L159.462167,63.8976114 C159.644426,61.8534309 160.623834,60.0682044 162.174871,58.8603627 L162.174871,52.1449462 C161.872028,48.1416831 163.138631,44.163126 165.745478,41.0090122 C169.176169,37.0332001 174.573041,35.0164706 181.79894,35 C189.037726,35.0164706 194.441962,37.0332001 197.866209,40.9934567 C200.490545,44.1567207 201.766354,48.1334479 201.470874,52.2044232 L201.472715,58.8704281 C203.006263,60.0828449 203.973705,61.8589211 204.148599,63.8161736 L204.152281,69.8425714 C204.152281,69.8745975 204.15044,69.9075387 204.146758,69.9395648 C203.885337,72.382699 202.49999,74.5677943 200.415065,75.8607339 C199.449464,79.3524943 198.005204,82.6868693 196.117266,85.7833361 L196.117266,90.1333961 C196.117266,90.9642447 196.259022,91.5773158 196.479941,91.6953549 L209.551915,98.9341695 C214.737993,101.839395 230.02192,126.93139 229.999828,132.496612 L229.999828,138.609023 C230.02192,140.963399 227.913982,140.984444 226.518509,140.999085 C226.518509,140.999085 226.403447,141 226.400686,141 L135.598291,141 Z" id="Fill-33" fill="#2BB3E2" mask="url(#mask-2)"></path>
                <path d="M181.807127,34 L181.797907,34 C174.280165,34.017413 168.640476,36.1454647 165.03373,40.3236679 C162.261366,43.6770449 160.918978,47.8653293 161.223228,52.1544258 L161.223228,58.3846134 C159.673397,59.736412 158.700719,61.6234312 158.512637,63.695578 C158.508027,63.74965 158.506183,63.8046384 158.506183,63.8596268 L158.506183,69.8139559 C158.506183,69.878109 158.508949,69.9422622 158.516325,70.0073318 C158.793838,72.6128663 160.216437,74.9562893 162.372925,76.4198977 C163.336383,79.7943535 164.739621,83.02309 166.553136,86.0346223 L166.553136,90.1358418 C166.553136,90.5986609 166.506115,90.8690206 166.472003,91.0064917 L153.568113,98.15132 C150.591072,99.819302 144.593658,107.798121 140.358129,114.125455 C137.538745,118.339401 130.981695,128.572745 131.000135,132.571319 L131.000135,138.80334 C130.991837,139.559431 131.363391,140.650034 133.178749,141.431786 C133.775264,141.689315 134.743332,141.991752 135.506723,142 L226.472878,142 L226.601954,141.998167 C227.926825,141.985336 231.032019,141.95326 230.99975,138.670451 L230.998828,132.563071 C231.024644,126.649983 215.560443,101.240753 210.055361,98.1549859 L197.144096,91.0064917 C197.109983,90.8681042 197.063884,90.5977445 197.063884,90.1358418 L197.063884,86.0346223 C198.874633,83.02309 200.276949,79.7943535 201.240408,76.4198977 C203.397817,74.9581222 204.82226,72.6137827 205.100695,70.0073318 C205.106227,69.9431786 205.109915,69.878109 205.109915,69.8139559 L205.109915,63.8596268 C205.109915,63.8055548 205.108071,63.7514829 205.103461,63.6983274 C204.919989,61.6380948 203.959297,59.7547415 202.428827,58.399277 L202.428827,52.147094 C202.722935,47.857081 201.370405,43.6697131 198.616481,40.3511621 C194.980232,36.1445483 189.333167,34.017413 181.807127,34 M181.803439,35.8329472 C188.768921,35.8494438 193.945782,37.7602912 197.193882,41.5169166 C199.648166,44.4752934 200.8624,48.2584965 200.584887,52.0829409 L200.584887,59.2864235 C202.119045,60.3376187 203.102787,62.0138489 203.265975,63.8596268 L203.265975,69.8139559 C203.023497,72.099641 201.674655,74.1250477 199.653697,75.2422291 C198.690239,78.8659657 197.195726,82.3293195 195.219944,85.5213971 L195.219944,90.1358418 C195.219944,92.0393575 195.834898,92.3830351 196.067235,92.5076755 L209.149065,99.7523994 C213.820686,102.369848 229.17886,127.233777 229.154889,132.563071 L229.155811,138.688781 C229.170562,140.176218 227.970157,140.151473 226.472878,140.167053 L135.526085,140.167053 C134.806026,140.159721 132.836699,139.518189 132.844074,138.80334 L132.844074,132.563071 C132.820103,127.233777 149.793568,102.369848 154.465189,99.7523994 L167.548863,92.5076755 C167.779356,92.3830351 168.397076,92.0402739 168.397076,90.1358418 L168.397076,85.5213971 C166.418528,82.330236 164.924015,78.8668822 163.960557,75.2422291 C161.939599,74.1241313 160.592601,72.099641 160.350123,69.8139559 L160.350123,63.8596268 C160.516999,62.0056007 161.515493,60.3238716 163.067168,59.2800081 L163.067168,52.0884397 C162.778591,48.2649118 163.98545,44.4789593 166.432358,41.5169166 C169.674004,37.7630407 174.844411,35.8494438 181.803439,35.8329472" id="Fill-34" fill="#0B567F" mask="url(#mask-2)"></path>
                <polygon id="Stroke-35" stroke="#FFCD50" stroke-width="4" stroke-linecap="round" stroke-linejoin="round" mask="url(#mask-2)" points="153 100 211 100 211 30 153 30"></polygon>
                <polygon id="Stroke-36" stroke="#FFCD50" stroke-width="4" stroke-linecap="round" stroke-linejoin="round" mask="url(#mask-2)" points="90 107 135 107 135 51 90 51"></polygon>
            </g>
        </g>
    </g>
</svg>