<?xml version="1.0" encoding="UTF-8" standalone="no"?>
<svg width="308px" height="180px" viewBox="0 0 308 180" version="1.1" xmlns="http://www.w3.org/2000/svg" xmlns:xlink="http://www.w3.org/1999/xlink">
    <!-- Generator: Sketch 50.2 (55047) - http://www.bohemiancoding.com/sketch -->
    <title>Group</title>
    <desc>Created with Sketch.</desc>
    <defs>
        <polygon id="path-1" points="0.00018 0.770379695 161.68248 0.770379695 161.68248 176 0.00018 176"></polygon>
    </defs>
    <g id="Page-1" stroke="none" stroke-width="1" fill="none" fill-rule="evenodd">
        <g id="direct-connect" transform="translate(-833.000000, -1866.000000)">
            <g id="Group" transform="translate(833.000000, 1866.000000)">
                <path d="M73.0641043,137.286928 C71.6204235,137.286928 70.4452513,138.462828 70.4452513,139.908504 C70.4452513,141.353283 71.6204235,142.530079 73.0641043,142.530079 C74.5086801,142.530079 75.6838523,141.353283 75.6838523,139.908504 C75.6838523,138.462828 74.5086801,137.286928 73.0641043,137.286928 M98.6789212,158.647613 C97.2361355,158.647613 96.0609633,159.824409 96.0609633,161.269189 C96.0609633,162.713968 97.2361355,163.890764 98.6789212,163.890764 C100.123497,163.890764 101.298669,162.713968 101.298669,161.269189 C101.298669,159.824409 100.123497,158.647613 98.6789212,158.647613 M29.4932282,168.292321 C28.0504424,168.292321 26.8761652,169.468221 26.8761652,170.913897 C26.8761652,172.359572 28.0504424,173.535472 29.4932282,173.535472 C30.938699,173.535472 32.1129762,172.359572 32.1129762,170.913897 C32.1129762,169.468221 30.938699,168.292321 29.4932282,168.292321 M29.4932282,179 C25.0413571,179 21.4182822,175.371919 21.4182822,170.913897 C21.4182822,167.10477 24.093522,163.854913 27.7613483,163.050963 L27.7613483,132.987545 C27.7613483,132.870134 27.783724,132.752724 27.8293704,132.644275 L28.3663875,131.346484 C28.4102439,131.238036 28.477371,131.139446 28.5597136,131.056094 L39.3716563,120.229212 L39.3716563,102.617604 L25.5926945,102.617604 C25.5363078,102.617604 25.4826061,102.612226 25.4289044,102.603264 C25.1747163,102.613123 24.9196332,102.617604 24.6636551,102.617604 C11.6159315,102.617604 1,91.9870042 1,78.920356 C1,67.3029685 9.47591867,57.3822107 20.8409889,55.5323196 C21.3377297,44.1354133 30.6254391,34.943319 42.0218353,34.5848129 C41.9681336,33.8722822 41.9403877,33.1606478 41.9403877,32.4588723 C41.9403877,17.3182668 54.2407626,5 69.3604769,5 C81.6877026,5 92.394927,13.1452567 95.7342779,24.9275571 C98.2036612,24.1307774 100.778658,23.7274582 103.401986,23.7274582 C117.181843,23.7274582 128.391178,34.9522816 128.391178,48.7511783 C128.391178,50.9470276 128.107454,53.1195741 127.544481,55.225797 L136.33724,55.225797 C149.384964,55.225797 160,65.8555004 160,78.920356 C160,91.9870042 149.384964,102.617604 136.33724,102.617604 L101.407863,102.617604 L101.407863,153.687683 C104.589689,154.833109 106.756552,157.858004 106.756552,161.269189 C106.756552,165.727211 103.133477,169.355292 98.6789212,169.355292 C94.2270501,169.355292 90.6039753,165.727211 90.6039753,161.269189 C90.6039753,157.8589 92.770839,154.834006 95.9499797,153.687683 L95.9499797,102.617604 L75.7939408,102.617604 L75.7939408,132.327894 C78.9748717,133.472424 81.1399453,136.497319 81.1399453,139.908504 C81.1399453,144.366526 77.5177655,147.994607 73.0641043,147.994607 C68.6113382,147.994607 64.9891583,144.366526 64.9891583,139.908504 C64.9891583,136.495526 67.155127,133.470632 70.3369529,132.326998 L70.3369529,102.617604 L44.8295393,102.617604 L44.8295393,121.359402 C44.8295393,121.477709 44.8062686,121.594224 44.7615172,121.702672 L44.2236051,123.00136 C44.1788537,123.109808 44.1126216,123.208397 44.030279,123.29175 L33.2174412,134.119528 L33.2174412,163.741984 C35.8810457,165.129402 37.5708592,167.883625 37.5708592,170.913897 C37.5708592,175.371919 33.9468894,179 29.4932282,179" id="Fill-1" fill="#F9912B"></path>
                <g id="Group-5" transform="translate(0.000000, 4.000000)">
                    <mask id="mask-2" fill="white">
                        <use xlink:href="#path-1"></use>
                    </mask>
                    <g id="Clip-4"></g>
                    <path d="M29.55168,168.7664 C28.59588,168.7664 27.81918,167.994502 27.81918,167.04571 C27.81918,166.097811 28.59588,165.325913 29.55168,165.325913 C30.50748,165.325913 31.28598,166.097811 31.28598,167.04571 C31.28598,167.994502 30.50748,168.7664 29.55168,168.7664 M99.12168,159.151618 C98.16588,159.151618 97.38918,158.380613 97.38918,157.431821 C97.38918,156.483923 98.16588,155.712918 99.12168,155.712918 C100.07748,155.712918 100.85598,156.483923 100.85598,157.431821 C100.85598,158.380613 100.07748,159.151618 99.12168,159.151618 M73.36368,137.859192 C72.40878,137.859192 71.63118,137.088187 71.63118,136.139395 C71.63118,135.191496 72.40878,134.420491 73.36368,134.420491 C74.32038,134.420491 75.09798,135.191496 75.09798,136.139395 C75.09798,137.088187 74.32038,137.859192 73.36368,137.859192 M69.64038,0.770379695 C53.94078,0.770379695 41.16708,13.4486335 41.16708,29.0340142 C41.16708,29.4548061 41.17698,29.8809584 41.19588,30.3080041 C29.93418,31.1111716 20.84508,40.0916386 19.99548,51.2770193 C8.49528,53.4792528 0.00018,63.5702173 0.00018,75.3470294 C0.00018,88.8641868 11.07828,99.8619533 24.69528,99.8619533 C24.93558,99.8619533 25.17768,99.8583797 25.41708,99.8494457 C25.48638,99.8574863 25.55838,99.8619533 25.62948,99.8619533 L38.58498,99.8619533 L38.58498,116.152227 L27.97668,126.683639 C27.80928,126.849811 27.67608,127.047253 27.58608,127.263456 L27.04608,128.557994 C26.95518,128.774197 26.90928,129.006481 26.90928,129.241446 L26.90928,158.51909 C23.18148,159.649243 20.53188,163.073649 20.53188,167.04571 C20.53188,171.983537 24.57828,176.000268 29.55168,176.000268 C34.52598,176.000268 38.57328,171.983537 38.57328,167.04571 C38.57328,163.875923 36.88848,160.98041 34.19658,159.374075 L34.19658,130.739679 L44.80488,120.207375 C44.97228,120.042095 45.10458,119.845547 45.19548,119.628451 L45.73548,118.334806 C45.82638,118.118603 45.87318,117.885425 45.87318,117.650461 L45.87318,99.8619533 L69.72228,99.8619533 L69.72228,127.978177 C66.49668,129.39243 64.34388,132.574725 64.34388,136.139395 C64.34388,141.077222 68.39028,145.093953 73.36368,145.093953 C78.33798,145.093953 82.38528,141.077222 82.38528,136.139395 C82.38528,132.576512 80.23338,129.394217 77.00868,127.97907 L77.00868,99.8619533 L95.47758,99.8619533 L95.47758,149.271496 C92.25288,150.686644 90.10098,153.868938 90.10098,157.431821 C90.10098,162.369649 94.14738,166.38638 99.12168,166.38638 C104.09598,166.38638 108.14328,162.369649 108.14328,157.431821 C108.14328,153.868938 105.99138,150.686644 102.76578,149.271496 L102.76578,99.8619533 L136.98918,99.8619533 C150.60528,99.8619533 161.68248,88.8641868 161.68248,75.3470294 C161.68248,61.8316589 150.60528,50.8347858 136.98918,50.8347858 L129.29238,50.8347858 C129.69558,49.0149279 129.89898,47.1521868 129.89898,45.2733645 C129.89898,31.0271919 118.22238,19.4371005 103.87098,19.4371005 C101.44728,19.4371005 99.06408,19.7640853 96.76278,20.411801 C93.02148,8.75470457 82.13148,0.770379695 69.64038,0.770379695 M29.55168,170.553202 C31.49928,170.553202 33.08598,168.979923 33.08598,167.04571 C33.08598,165.11239 31.49928,163.539111 29.55168,163.539111 C27.60408,163.539111 26.01918,165.11239 26.01918,167.04571 C26.01918,168.979923 27.60408,170.553202 29.55168,170.553202 M99.12168,160.93842 C101.07018,160.93842 102.65598,159.366928 102.65598,157.431821 C102.65598,155.497608 101.07018,153.926116 99.12168,153.926116 C97.17408,153.926116 95.58918,155.497608 95.58918,157.431821 C95.58918,159.366928 97.17408,160.93842 99.12168,160.93842 M73.36368,139.645994 C75.31308,139.645994 76.89798,138.073608 76.89798,136.139395 C76.89798,134.205182 75.31308,132.633689 73.36368,132.633689 C71.41608,132.633689 69.83118,134.205182 69.83118,136.139395 C69.83118,138.073608 71.41608,139.645994 73.36368,139.645994 M69.64038,2.55718173 C82.16478,2.55718173 92.67138,11.1284711 95.53788,22.6828264 C98.13528,21.7393949 100.94328,21.2239025 103.87098,21.2239025 C117.25218,21.2239025 128.09898,31.9911716 128.09898,45.2733645 C128.09898,47.8374254 127.69308,50.3058924 126.94608,52.6215878 L136.98918,52.6215878 C149.63328,52.6215878 159.88248,62.7974254 159.88248,75.3470294 C159.88248,87.9002071 149.63328,98.0751513 136.98918,98.0751513 L100.96578,98.0751513 L100.96578,150.531192 C104.05098,151.346867 106.34328,154.117304 106.34328,157.431821 C106.34328,161.383334 103.10418,164.599578 99.12168,164.599578 C95.14098,164.599578 91.90098,161.383334 91.90098,157.431821 C91.90098,154.117304 94.19328,151.346867 97.27758,150.531192 L97.27758,98.0751513 L75.20868,98.0751513 L75.20868,129.239659 C78.29568,130.053547 80.58528,132.824877 80.58528,136.139395 C80.58528,140.090908 77.34618,143.307151 73.36368,143.307151 C69.38388,143.307151 66.14388,140.090908 66.14388,136.139395 C66.14388,132.824877 68.43618,130.05176 71.52228,129.239659 L71.52228,98.0751513 L44.07318,98.0751513 L44.07318,117.650461 L43.53228,118.944106 L32.39658,129.99905 L32.39658,160.462238 C34.96788,161.561121 36.77328,164.096593 36.77328,167.04571 C36.77328,170.998116 33.53508,174.213466 29.55168,174.213466 C25.57008,174.213466 22.33188,170.998116 22.33188,167.04571 C22.33188,163.380979 25.12728,160.382725 28.70928,159.962826 L28.70928,129.241446 L29.24928,127.947801 L40.38498,116.892857 L40.38498,98.0751513 L25.62948,98.0751513 L25.62948,98.0519228 C25.31898,98.0680041 25.00758,98.0751513 24.69528,98.0751513 C12.04938,98.0751513 1.80018,87.9002071 1.80018,75.3470294 C1.80018,63.7935675 10.48698,54.2529381 21.73158,52.809202 C21.83148,41.3209584 31.24458,32.0358416 42.84378,32.0358416 C42.94278,32.0358416 43.04088,32.0376284 43.13808,32.0394152 C43.02738,31.0522071 42.96708,30.0498112 42.96708,29.0340142 C42.96708,14.4126132 54.90918,2.55718173 69.64038,2.55718173" id="Fill-3" fill="#0B567F" mask="url(#mask-2)"></path>
                </g>
                <polygon id="Fill-6" fill="#F2F2F2" points="124 15.5859699 206.727082 6 248.384996 38.7981142 262 155.08991 141.96129 169"></polygon>
                <path d="M206.992618,5 L206.252611,5.08601964 L124.787901,14.5302589 L123,14.7372437 L123.208858,16.517671 L140.960929,168.219573 L141.169788,170 L142.958588,169.792119 L261.212099,156.08274 L263,155.875755 L262.792042,154.096224 L249.323371,39.0109099 L249.237847,38.2734708 L248.652683,37.8129073 L207.577782,5.46056347 L206.992618,5 Z M206.459669,6.86555087 L247.53547,39.2178947 L261.003241,154.303208 L142.74973,168.012588 L124.996759,16.3097902 L206.459669,6.86555087 Z" id="Fill-8" fill="#0B567F"></path>
                <path d="M157.552424,75 C155.750318,75 154.232613,73.6289535 154.024052,71.8109659 C153.797435,69.8336183 155.197769,68.0385273 157.145235,67.8086457 L223.031358,60.0238124 C223.171301,60.0073269 223.309438,60 223.44577,60 C225.248779,60 226.766485,61.3710465 226.975948,63.1890341 C227.202565,65.1663817 225.802231,66.9605568 223.854765,67.1904384 L157.967739,74.9752717 C157.828699,74.9917572 157.689659,75 157.552424,75" id="Fill-10" fill="#B6C4CE"></path>
                <path d="M222.591551,59 C222.421855,59 222.247694,59.0095767 222.077998,59.02873 L156.900575,66.4288824 C154.484645,66.7039939 152.749283,68.8430732 153.029728,71.1971923 C153.288737,73.3650016 155.171466,75 157.408769,75 C157.578465,75 157.75084,74.9895527 157.921429,74.97127 L223.098852,67.5711176 C224.268859,67.4370443 225.316506,66.8685385 226.047091,65.9692023 C226.777675,65.0689955 227.106349,63.9441724 226.969699,62.8019371 C226.71069,60.6341278 224.828854,59 222.591551,59 M222.591551,60.7412123 C223.905353,60.7412123 225.039634,61.6997497 225.195933,63.0039177 C225.363842,64.4090761 224.331378,65.6775492 222.892538,65.8403526 L157.715114,73.240505 C157.611511,73.2526934 157.509693,73.2587877 157.408769,73.2587877 C156.094967,73.2587877 154.959793,72.3002503 154.804387,70.9960823 C154.636478,69.5909239 155.668049,68.3215802 157.107782,68.1587768 L222.284313,60.7586244 C222.387023,60.746436 222.490627,60.7412123 222.591551,60.7412123" id="Fill-12" fill="#0B567F"></path>
                <path d="M156.502827,54 C154.725881,54 153.229365,52.6725193 153.023716,50.9122994 C152.800263,48.9977831 154.181046,47.260619 156.101322,47.038042 L182.08782,44.0230558 C182.22581,44.0062073 182.362018,44 182.496447,44 C184.274283,44 185.770799,45.3274807 185.975557,47.0885874 C186.085058,48.0152523 185.824214,48.9286158 185.241988,49.6601933 C184.661543,50.3917709 183.828266,50.8537732 182.897951,50.9610712 L156.911453,53.9769442 C156.774354,53.9929059 156.637255,54 156.502827,54" id="Fill-14" fill="#B6C4CE"></path>
                <path d="M182.579186,43 C182.408075,43 182.234276,43.009942 182.06406,43.029826 L155.912689,46.1028094 C153.489358,46.3875122 151.747785,48.6081946 152.029984,51.053024 C152.289787,53.3035324 154.178283,55 156.421544,55 C156.592655,55 156.766454,54.9909618 156.93667,54.970174 L183.087145,51.8971906 C185.510476,51.6124878 187.252945,49.3918054 186.96985,46.946976 C186.710047,44.6964676 184.823343,43 182.579186,43 M182.579186,44.8076373 C183.896117,44.8076373 185.033873,45.8018378 185.19065,47.1566619 C185.359074,48.6154252 184.323447,49.9322889 182.880199,50.101303 L156.729724,53.1751902 C156.625803,53.1869398 156.522777,53.1923627 156.421544,53.1923627 C155.103718,53.1923627 153.966857,52.1981622 153.81008,50.8442419 C153.64076,49.3845748 154.676387,48.0677111 156.120531,47.898697 L182.271007,44.8257136 C182.374032,44.8130602 182.477057,44.8076373 182.579186,44.8076373" id="Fill-16" fill="#0B567F"></path>
                <path d="M160.552843,96 C158.749821,96 157.232105,94.6288698 157.024446,92.8098553 C156.914296,91.8527203 157.178836,90.9084081 157.768407,90.1527752 C158.357075,89.3980583 159.202157,88.9208646 160.145651,88.8091225 L226.032233,81.0238139 C226.172177,81.0073273 226.310315,81 226.446648,81 C228.248767,81 229.766483,82.3711302 229.975948,84.1892288 C230.202567,86.1666972 228.802223,87.9609819 226.854743,88.1908775 L160.967258,95.9761861 C160.828217,95.9926727 160.689176,96 160.552843,96" id="Fill-18" fill="#B6C4CE"></path>
                <path d="M225.592629,81 C225.422038,81 225.248768,81.0104467 225.07907,81.029599 L159.900791,88.4293487 C157.484829,88.7035747 155.748552,90.8425377 156.029893,93.1973992 C156.288012,95.3650906 158.170766,97 160.408099,97 C160.577796,97 160.751067,96.9895533 160.921658,96.970401 L226.099044,89.5706513 C228.515006,89.2964253 230.252176,87.1574623 229.969942,84.8026008 C229.710929,82.6349094 227.829069,81 225.592629,81 M225.592629,82.7411176 C226.906448,82.7411176 228.039852,83.6996028 228.196152,85.0045704 C228.364957,86.4096523 227.331586,87.6780565 225.892727,87.840851 L160.714448,95.2406007 C160.611736,95.2527885 160.509024,95.2588824 160.408099,95.2588824 C159.09428,95.2588824 157.95909,94.3003972 157.804576,92.9954296 C157.635771,91.5903477 158.668249,90.3219435 160.107108,90.159149 L225.285387,82.7593993 C225.388099,82.7472115 225.491704,82.7411176 225.592629,82.7411176" id="Fill-20" fill="#0B567F"></path>
                <path d="M163.552834,117 C161.75072,117 160.233007,115.628953 160.024446,113.810966 C159.914297,112.852974 160.178836,111.908719 160.768405,111.153132 C161.357072,110.398461 162.202151,109.921297 163.145643,109.809562 L229.032063,102.023812 C229.172006,102.007327 229.310144,102 229.446477,102 C231.249494,102 232.767206,103.371047 232.975768,105.18995 C233.203289,107.165466 231.802949,108.960557 229.855474,109.191354 L163.967248,116.976188 C163.828207,116.992673 163.689166,117 163.552834,117" id="Fill-22" fill="#B6C4CE"></path>
                <path d="M228.592629,101 C228.422932,101 228.248768,101.009577 228.07907,101.02873 L162.900791,108.428882 C160.484829,108.703994 158.748552,110.843073 159.029893,113.198063 C159.288906,115.365872 161.171659,117 163.408099,117 C163.57869,117 163.751067,116.990423 163.921658,116.97127 L229.099044,109.571118 C231.515006,109.296006 233.252176,107.156927 232.969942,104.802808 C232.711822,102.634998 230.829962,101 228.592629,101 M228.592629,102.741212 C229.906448,102.741212 231.040745,103.69975 231.196152,105.003918 C231.364957,106.409076 230.331586,107.67842 228.892727,107.841223 L163.714448,115.241376 C163.611736,115.253564 163.509024,115.258788 163.408099,115.258788 C162.09428,115.258788 160.959983,114.30025 160.804576,112.996082 C160.635771,111.590924 161.668249,110.322451 163.108001,110.159647 L228.285387,102.759495 C228.388099,102.747307 228.491704,102.741212 228.592629,102.741212" id="Fill-24" fill="#0B567F"></path>
                <path d="M165.552424,138 C163.750318,138 162.232613,136.628953 162.024052,134.810966 C161.797435,132.833618 163.197769,131.038527 165.145235,130.808646 L231.031358,123.023812 C231.171301,123.007327 231.309438,123 231.44577,123 C233.248779,123 234.766485,124.371047 234.975948,126.189034 C235.202565,128.166382 233.802231,129.960557 231.854765,130.190438 L165.967739,137.975272 C165.828699,137.991757 165.689659,138 165.552424,138" id="Fill-26" fill="#B6C4CE"></path>
                <path d="M230.591947,122 C230.42225,122 230.248088,122.009577 230.078391,122.02873 L164.900597,129.428882 C162.484653,129.703994 160.749282,131.843073 161.029728,134.197192 C161.288739,136.365002 163.171478,138 165.407901,138 C165.578491,138 165.750867,137.989553 165.921457,137.97127 L231.099251,130.571118 C233.514301,130.296006 235.251459,128.156927 234.97012,125.801937 C234.711109,123.634128 232.829263,122 230.591947,122 M230.591947,123.741212 C231.905756,123.741212 233.040044,124.69975 233.196344,126.003918 C233.364254,127.409076 232.330891,128.677549 230.892042,128.840353 L165.715141,136.240505 C165.611537,136.252693 165.509719,136.258788 165.407901,136.258788 C164.094985,136.258788 162.959804,135.30025 162.804397,133.996082 C162.636487,132.590924 163.668064,131.32158 165.107806,131.158777 L230.284707,123.758624 C230.387418,123.746436 230.491022,123.741212 230.591947,123.741212" id="Fill-28" fill="#0B567F"></path>
                <path d="M210.199462,44 C209.747122,44 209.35708,43.6675687 209.303811,43.2154621 L205.006131,6.98842906 C204.963696,6.63294919 205.144271,6.28633416 205.462985,6.1125834 C205.600222,6.03723231 205.751905,6 205.902685,6 C206.10222,6 206.300852,6.06471329 206.462467,6.19148043 L247.656989,38.1988522 C247.944103,38.4213596 248.065088,38.7910232 247.965772,39.1367517 C247.866456,39.4807073 247.564896,39.7333551 247.201038,39.7741333 L210.304195,43.9937946 C210.268983,43.998227 210.233771,44 210.199462,44" id="Fill-30" fill="#B6C4CE"></path>
                <path d="M206.813175,5 C206.510312,5 206.206541,5.07488967 205.929974,5.22556056 C205.289789,5.57682878 204.927078,6.27312441 205.012315,6.98903401 L209.328576,43.4237507 C209.436482,44.3313422 210.219938,45 211.127622,45 C211.198351,45 211.26908,44.9964338 211.339808,44.9893015 L248.396175,40.7446619 C249.125224,40.6608568 249.730951,40.1544599 249.931349,39.4599474 C250.13084,38.7672179 249.886917,38.0227789 249.31202,37.575224 L207.939393,5.38514688 C207.612046,5.13016538 207.213064,5 206.813175,5 M206.813175,6.78308742 L248.186709,38.9731645 L211.130343,43.2169126 L206.813175,6.78308742" id="Fill-32" fill="#0B567F"></path>
                <polygon id="Fill-34" fill="#F2F2F2" points="142 155 142 1 224.699562 1 262 38.2642725 262 155"></polygon>
                <path d="M225.109832,0 L224.368398,0 L142.790905,0 L141,0 L141,1.78850883 L141,154.211491 L141,156 L142.790905,156 L261.209095,156 L263,156 L263,154.211491 L263,38.5808182 L263,37.8385871 L262.47616,37.3163425 L225.634567,0.523138833 L225.109832,0 Z M224.368398,1.78850883 L261.209095,38.5808182 L261.209095,154.211491 L142.790905,154.211491 L142.790905,1.78850883 L224.368398,1.78850883 Z" id="Fill-36" fill="#0B567F"></path>
                <path d="M168.533966,63 C166.584811,63 165,61.4297321 165,59.5004443 C165,57.5702679 166.584811,56 168.533966,56 L234.465137,56 C236.414292,56 238,57.5702679 238,59.5004443 C238,61.4297321 236.414292,63 234.465137,63 L168.533966,63 Z" id="Fill-38" fill="#B6C4CE"></path>
                <path d="M234.555576,56 L168.443525,56 C165.994097,56 164,58.0183254 164,60.4995444 C164,62.9816746 165.994097,65 168.443525,65 L234.555576,65 C237.006803,65 239,62.9816746 239,60.4995444 C239,58.0183254 237.006803,56 234.555576,56 M234.555576,57.8224157 C236.016054,57.8224157 237.200274,59.0188316 237.200274,60.4995444 C237.200274,61.9802572 236.016054,63.1775843 234.555576,63.1775843 L168.443525,63.1775843 C166.983946,63.1775843 165.799726,61.9802572 165.799726,60.4995444 C165.799726,59.0188316 166.983946,57.8224157 168.443525,57.8224157 L234.555576,57.8224157" id="Fill-40" fill="#0B567F"></path>
                <path d="M168.487387,42 C166.563922,42 165,40.4299315 165,38.5008886 C165,36.5709571 166.563922,35 168.487387,35 L194.512613,35 C196.436078,35 198,36.5709571 198,38.5008886 C198,40.4299315 196.436078,42 194.512613,42 L168.487387,42 Z" id="Fill-42" fill="#B6C4CE"></path>
                <path d="M194.598258,34 L168.401742,34 C165.975346,34 164,36.0190322 164,38.5 C164,40.9809678 165.975346,43 168.401742,43 L194.598258,43 C197.026436,43 199,40.9809678 199,38.5 C199,36.0190322 197.026436,34 194.598258,34 M194.598258,35.8222312 C196.044112,35.8222312 197.217196,37.0194371 197.217196,38.5 C197.217196,39.9805629 196.044112,41.1777688 194.598258,41.1777688 L168.401742,41.1777688 C166.955888,41.1777688 165.782804,39.9805629 165.782804,38.5 C165.782804,37.0194371 166.955888,35.8222312 168.401742,35.8222312 L194.598258,35.8222312" id="Fill-44" fill="#0B567F"></path>
                <path d="M168.533966,84 C166.584811,84 165,82.4290429 165,80.5 C165,78.5700685 166.584811,77 168.533966,77 L234.465137,77 C236.414292,77 238,78.5700685 238,80.5 C238,82.4290429 236.414292,84 234.465137,84 L168.533966,84 Z" id="Fill-46" fill="#B6C4CE"></path>
                <path d="M234.555576,76 L168.443525,76 C165.994097,76 164,78.0190322 164,80.4990889 C164,82.9809678 165.994097,85 168.443525,85 L234.555576,85 C237.006803,85 239,82.9809678 239,80.4990889 C239,78.0190322 237.006803,76 234.555576,76 M234.555576,77.8222312 C236.016054,77.8222312 237.200274,79.018526 237.200274,80.4990889 C237.200274,81.9796518 236.016054,83.1777688 234.555576,83.1777688 L168.443525,83.1777688 C166.983946,83.1777688 165.799726,81.9796518 165.799726,80.4990889 C165.799726,79.018526 166.983946,77.8222312 168.443525,77.8222312 L234.555576,77.8222312" id="Fill-48" fill="#0B567F"></path>
                <path d="M168.533966,106 C166.584811,106 165,104.429931 165,102.500889 C165,100.570957 166.584811,99 168.533966,99 L234.465137,99 C236.414292,99 238,100.570957 238,102.500889 C238,104.429931 236.414292,106 234.465137,106 L168.533966,106 Z" id="Fill-50" fill="#B6C4CE"></path>
                <path d="M234.555576,98 L168.443525,98 C165.994097,98 164,100.019032 164,102.5 C164,104.980968 165.994097,107 168.443525,107 L234.555576,107 C237.006803,107 239,104.980968 239,102.5 C239,100.019032 237.006803,98 234.555576,98 M234.555576,99.8222312 C236.016054,99.8222312 237.200274,101.018526 237.200274,102.5 C237.200274,103.980563 236.016054,105.177769 234.555576,105.177769 L168.443525,105.177769 C166.983946,105.177769 165.799726,103.980563 165.799726,102.5 C165.799726,101.018526 166.983946,99.8222312 168.443525,99.8222312 L234.555576,99.8222312" id="Fill-52" fill="#0B567F"></path>
                <path d="M168.533966,126 C166.584811,126 165,124.429732 165,122.500444 C165,120.570268 166.584811,119 168.533966,119 L234.465137,119 C236.414292,119 238,120.570268 238,122.500444 C238,124.429732 236.414292,126 234.465137,126 L168.533966,126 Z" id="Fill-54" fill="#B6C4CE"></path>
                <path d="M234.555576,118 L168.443525,118 C165.994097,118 164,120.018325 164,122.499544 C164,124.981675 165.994097,127 168.443525,127 L234.555576,127 C237.006803,127 239,124.981675 239,122.499544 C239,120.018325 237.006803,118 234.555576,118 M234.555576,119.822416 C236.016054,119.822416 237.200274,121.018832 237.200274,122.499544 C237.200274,123.980257 236.016054,125.177584 234.555576,125.177584 L168.443525,125.177584 C166.983946,125.177584 165.799726,123.980257 165.799726,122.499544 C165.799726,121.018832 166.983946,119.822416 168.443525,119.822416 L234.555576,119.822416" id="Fill-56" fill="#0B567F"></path>
                <path d="M223.903973,40 C223.404076,40 223,39.5959252 223,39.0960295 L223,1.90397052 C223,1.53876643 223.219665,1.20881719 223.557751,1.06960573 C223.669844,1.02259926 223.78736,1 223.903973,1 C224.139006,1 224.370423,1.09220499 224.543082,1.26486336 L261.735235,38.4569223 C261.993771,38.7154579 262.071513,39.1041652 261.930493,39.4422502 C261.791281,39.7803352 261.461331,40 261.096126,40 L223.903973,40 Z" id="Fill-58" fill="#B6C4CE"></path>
                <path d="M224.815555,0 C224.582139,0 224.345999,0.0434175841 224.120758,0.133797045 C223.442309,0.40847972 223,1.05442704 223,1.77214629 L223,38.2278537 C223,39.2060785 223.812867,40 224.816463,40 L262.183835,40 C262.918595,40 263.580696,39.5675963 263.861339,38.9048136 C264.142891,38.242917 263.987583,37.480894 263.468983,36.9740602 L226.100703,0.51835279 C225.75285,0.179872849 225.288744,0 224.815555,0 M224.816463,1.77214629 L262.183835,38.2278537 L224.816463,38.2278537 L224.816463,1.77214629" id="Fill-60" fill="#0B567F"></path>
                <polygon id="Fill-62" fill="#B6C4CE" points="246.348472 112.511598 237.836875 104 237.814328 104.026153 231.427474 127.429891 231 129 255.974748 122.189279 256 122.164027"></polygon>
                <polygon id="Stroke-64" stroke="#0B567F" stroke-width="2" stroke-linecap="round" stroke-linejoin="round" points="246.348472 112.511598 237.836875 104 237.814328 104.026153 231.427474 127.429891 231 129 255.974748 122.189279 256 122.164027"></polygon>
                <path d="M295.08048,54.8766967 C292.644904,52.3744344 288.694486,52.3744344 286.258028,54.8766967 L275,66.4402498 L283.331629,75 L299,58.903534 L295.08048,54.8766967 Z" id="Fill-66" fill="#F9912B"></path>
                <path d="M295.08048,54.8766967 C292.644904,52.3744344 288.694486,52.3744344 286.258028,54.8766967 L275,66.4402498 L283.331629,75 L299,58.903534 L295.08048,54.8766967 Z" id="Stroke-68" stroke="#F9912B" stroke-width="3"></path>
                <path d="M304.135172,64.0114236 L298.994671,59 L283,74.5957821 L292.642043,84 L304.135172,72.7934974 C306.621609,70.3690685 306.621609,66.4367311 304.135172,64.0114236" id="Fill-70" fill="#F9912B"></path>
                <path d="M304.135172,64.0114236 L298.994671,59 L283,74.5957821 L292.642043,84 L304.135172,72.7934974 C306.621609,70.3690685 306.621609,66.4367311 304.135172,64.0114236 Z" id="Stroke-72" stroke="#F9912B" stroke-width="3"></path>
                <polygon id="Fill-74" fill="#FFCD50" points="283 74.3627378 274.451424 66 237 102.637262 245.548576 111"></polygon>
                <polygon id="Stroke-76" stroke="#0B567F" stroke-width="2" points="283 74.3627378 274.451424 66 237 102.637262 245.548576 111"></polygon>
                <polygon id="Fill-78" fill="#FFCD50" points="283.33633 75 246 112.337233 255.66367 122 293 84.6636695"></polygon>
                <polygon id="Stroke-80" stroke="#0B567F" stroke-width="2" points="283.33633 75 246 112.337233 255.66367 122 293 84.6636695"></polygon>
                <path d="M228.091033,133 C227.299618,133 226.50907,132.697114 225.905963,132.094814 C224.698012,130.885875 224.698012,128.933174 225.905963,127.725971 L232.72498,120.905402 C233.932931,119.698199 235.885436,119.698199 237.093387,120.905402 C238.302204,122.114342 238.302204,124.067043 237.093387,125.275114 L230.275237,132.094814 C229.672129,132.697114 228.881581,133 228.091033,133" id="Fill-82" fill="#0B567F"></path>
                <path d="M228.091033,133 C227.299618,133 226.50907,132.697114 225.905963,132.094814 C224.698012,130.885875 224.698012,128.933174 225.905963,127.725971 L232.72498,120.905402 C233.932931,119.698199 235.885436,119.698199 237.093387,120.905402 C238.302204,122.114342 238.302204,124.067043 237.093387,125.275114 L230.275237,132.094814 C229.672129,132.697114 228.881581,133 228.091033,133 Z" id="Stroke-84" stroke="#0B567F"></path>
                <polygon id="Fill-86" fill="#F0F0F0" points="96 57.6591067 89.3370855 51 71.6353304 68.6916387 61.6629145 58.7258176 55 65.3885069 71.6183034 82 71.6353304 81.9820871 71.6487727 82"></polygon>
                <polygon id="Stroke-88" stroke="#F0F0F0" stroke-width="2" stroke-linecap="round" stroke-linejoin="round" points="96 57.6591067 89.3370855 51 71.6353304 68.6916387 61.6629145 58.7258176 55 65.3885069 71.6183034 82 71.6353304 81.9820871 71.6487727 82"></polygon>
            </g>
        </g>
    </g>
</svg>