<?xml version="1.0" encoding="UTF-8" standalone="no"?>
<svg width="352px" height="201px" viewBox="0 0 352 201" version="1.1" xmlns="http://www.w3.org/2000/svg" xmlns:xlink="http://www.w3.org/1999/xlink">
    <!-- Generator: Sketch 50.2 (55047) - http://www.bohemiancoding.com/sketch -->
    <title>Group</title>
    <desc>Created with Sketch.</desc>
    <defs></defs>
    <g id="Page-1" stroke="none" stroke-width="1" fill="none" fill-rule="evenodd">
        <g id="direct-connect" transform="translate(-255.000000, -1483.000000)">
            <g id="Group" transform="translate(256.000000, 1483.000000)">
                <path d="M310.9956,68.9922 L174.9416,68.9922 C175.8036,66.3462 175.9776,63.3982 175.1656,60.3402 C173.3676,53.5782 166.9936,49.0422 159.9966,49.0422 L50.6486,49.0422 C43.2436,49.0422 36.6196,54.1632 35.2756,61.4452 C33.4986,71.0822 40.9446,79.5692 50.2756,79.5692 L88.2536,79.5692 C80.6806,86.6822 75.9246,96.7652 75.9246,107.9122 L75.9246,114.0142 C75.9246,116.6502 76.1926,119.2262 76.6976,121.7192 L28.9986,121.7192 C13.0496,121.7192 0.000599999999,134.7672 0.000599999999,150.7172 L0.000599999999,150.7182 C0.000599999999,166.6672 13.0496,179.7162 28.9986,179.7162 L75.7976,179.7542 C74.7986,182.6832 74.8956,185.9472 76.0336,189.3912 C78.1266,195.7332 84.2506,199.8692 90.9286,199.8692 L199.9876,199.8692 C206.3646,199.8692 212.2996,196.1902 214.7546,190.3052 C216.2816,186.6462 216.1856,183.1842 215.2186,180.0972 L288.7716,180.0972 C297.1676,180.0972 304.0356,173.2282 304.0356,164.8342 C304.0356,160.0332 301.7836,155.7382 298.2906,152.9342 L310.9956,152.9342 C332.4016,152.9342 349.9166,135.4212 349.9166,114.0142 L349.9166,107.9122 C349.9166,86.5062 332.4016,68.9922 310.9956,68.9922" id="Fill-1" fill="#459ED7"></path>
                <path d="M310.9956,68.9922 L174.9416,68.9922 C175.8036,66.3462 175.9776,63.3982 175.1656,60.3402 C173.3676,53.5782 166.9936,49.0422 159.9966,49.0422 L50.6486,49.0422 C43.2436,49.0422 36.6196,54.1632 35.2756,61.4452 C33.4986,71.0822 40.9446,79.5692 50.2756,79.5692 L88.2536,79.5692 C80.6806,86.6822 75.9246,96.7652 75.9246,107.9122 L75.9246,114.0142 C75.9246,116.6502 76.1926,119.2262 76.6976,121.7192 L28.9986,121.7192 C13.0496,121.7192 0.000599999999,134.7672 0.000599999999,150.7172 L0.000599999999,150.7182 C0.000599999999,166.6672 13.0496,179.7162 28.9986,179.7162 L75.7976,179.7542 C74.7986,182.6832 74.8956,185.9472 76.0336,189.3912 C78.1266,195.7332 84.2506,199.8692 90.9286,199.8692 L199.9876,199.8692 C206.3646,199.8692 212.2996,196.1902 214.7546,190.3052 C216.2816,186.6462 216.1856,183.1842 215.2186,180.0972 L288.7716,180.0972 C297.1676,180.0972 304.0356,173.2282 304.0356,164.8342 C304.0356,160.0332 301.7836,155.7382 298.2906,152.9342 L310.9956,152.9342 C332.4016,152.9342 349.9166,135.4212 349.9166,114.0142 L349.9166,107.9122 C349.9166,86.5062 332.4016,68.9922 310.9956,68.9922 Z" id="Stroke-3" stroke="#0B567F" stroke-width="2"></path>
                <path d="M275.2944,108.6045 C273.5794,108.2775 272.0974,109.7605 272.4254,111.4755 C272.6084,112.4345 273.3824,113.2075 274.3414,113.3895 C276.0564,113.7165 277.5384,112.2335 277.2104,110.5185 C277.0264,109.5595 276.2534,108.7875 275.2944,108.6045" id="Fill-5" fill="#6DC3E8"></path>
                <path d="M281.2271,109.0352 L298.0981,109.0352 C299.1821,109.0352 300.0601,109.9142 300.0601,110.9972 C300.0601,112.0812 299.1821,112.9592 298.0981,112.9592 L281.2271,112.9592 C280.1431,112.9592 279.2651,112.0812 279.2651,110.9972 C279.2651,109.9142 280.1431,109.0352 281.2271,109.0352" id="Fill-7" fill="#6DC3E8"></path>
                <path d="M304.3931,109.0352 L313.1701,109.0352 C314.2531,109.0352 315.1321,109.9142 315.1321,110.9972 C315.1321,112.0812 314.2531,112.9592 313.1701,112.9592 L304.3931,112.9592 C303.3091,112.9592 302.4311,112.0812 302.4311,110.9972 C302.4311,109.9142 303.3091,109.0352 304.3931,109.0352" id="Fill-9" fill="#6DC3E8"></path>
                <path d="M294.9478,119.5235 C293.2328,119.1965 291.7508,120.6795 292.0788,122.3945 C292.2618,123.3535 293.0358,124.1265 293.9948,124.3085 C295.7098,124.6355 297.1918,123.1515 296.8638,121.4375 C296.6798,120.4785 295.9068,119.7065 294.9478,119.5235" id="Fill-11" fill="#6DC3E8"></path>
                <path d="M300.8804,119.9541 L317.7514,119.9541 C318.8354,119.9541 319.7134,120.8331 319.7134,121.9161 C319.7134,123.0001 318.8354,123.8781 317.7514,123.8781 L300.8804,123.8781 C299.7964,123.8781 298.9184,123.0001 298.9184,121.9161 C298.9184,120.8331 299.7964,119.9541 300.8804,119.9541" id="Fill-13" fill="#6DC3E8"></path>
                <path d="M128.0278,169.209 C126.2708,168.874 124.7528,170.395 125.0888,172.151 C125.2768,173.133 126.0688,173.925 127.0508,174.112 C128.8078,174.447 130.3268,172.927 129.9908,171.17 C129.8018,170.188 129.0098,169.396 128.0278,169.209" id="Fill-15" fill="#6DC3E8"></path>
                <path d="M210.4184,87.0557 C208.6544,86.7197 207.1314,88.2447 207.4684,90.0077 C207.6564,90.9937 208.4524,91.7867 209.4384,91.9757 C211.2004,92.3117 212.7254,90.7857 212.3874,89.0237 C212.1984,88.0377 211.4034,87.2427 210.4184,87.0557" id="Fill-17" fill="#6DC3E8"></path>
                <path d="M229.3501,145.1446 C227.5931,144.8096 226.0751,146.3296 226.4121,148.0856 C226.5991,149.0676 227.3911,149.8586 228.3731,150.0456 C230.1291,150.3806 231.6481,148.8616 231.3121,147.1046 C231.1241,146.1236 230.3311,145.3316 229.3501,145.1446" id="Fill-19" fill="#6DC3E8"></path>
                <path d="M134.105,169.6514 L151.391,169.6514 C152.501,169.6514 153.401,170.5504 153.401,171.6614 C153.401,172.7704 152.501,173.6714 151.391,173.6714 L134.105,173.6714 C132.996,173.6714 132.095,172.7704 132.095,171.6614 C132.095,170.5504 132.996,169.6514 134.105,169.6514" id="Fill-21" fill="#6DC3E8"></path>
                <path d="M185.7163,87.4981 L203.0633,87.4981 C204.1763,87.4981 205.0793,88.4011 205.0793,89.5161 C205.0793,90.6301 204.1763,91.5321 203.0633,91.5321 L185.7163,91.5321 C184.6023,91.5321 183.6993,90.6301 183.6993,89.5161 C183.6993,88.4011 184.6023,87.4981 185.7163,87.4981" id="Fill-23" fill="#6DC3E8"></path>
                <path d="M206.2544,78.9571 L218.6014,78.9571 C219.7154,78.9571 220.6174,79.8601 220.6174,80.9741 C220.6174,82.0881 219.7154,82.9911 218.6014,82.9911 L206.2544,82.9911 C205.1414,82.9911 204.2374,82.0881 204.2374,80.9741 C204.2374,79.8601 205.1414,78.9571 206.2544,78.9571" id="Fill-25" fill="#6DC3E8"></path>
                <path d="M157.8393,169.6514 L166.8313,169.6514 C167.9423,169.6514 168.8413,170.5504 168.8413,171.6614 C168.8413,172.7704 167.9423,173.6714 166.8313,173.6714 L157.8393,173.6714 C156.7293,173.6714 155.8293,172.7704 155.8293,171.6614 C155.8293,170.5504 156.7293,169.6514 157.8393,169.6514" id="Fill-27" fill="#6DC3E8"></path>
                <path d="M211.8872,145.586 L220.8772,145.586 C221.9872,145.586 222.8872,146.485 222.8872,147.596 C222.8872,148.705 221.9872,149.605 220.8772,149.605 L211.8872,149.605 C210.7772,149.605 209.8772,148.705 209.8772,147.596 C209.8772,146.485 210.7772,145.586 211.8872,145.586" id="Fill-29" fill="#6DC3E8"></path>
                <path d="M170.2358,178.8438 C168.4778,178.5088 166.9598,180.0298 167.2958,181.7858 C167.4838,182.7678 168.2758,183.5598 169.2578,183.7468 C171.0148,184.0808 172.5338,182.5618 172.1978,180.8048 C172.0098,179.8228 171.2168,179.0308 170.2358,178.8438" id="Fill-31" fill="#6DC3E8"></path>
                <path d="M176.313,179.2852 L193.598,179.2852 C194.709,179.2852 195.608,180.1852 195.608,181.2962 C195.608,182.4052 194.709,183.3062 193.598,183.3062 L176.313,183.3062 C175.203,183.3062 174.302,182.4052 174.302,181.2962 C174.302,180.1852 175.203,179.2852 176.313,179.2852" id="Fill-33" fill="#6DC3E8"></path>
                <path d="M258.5679,98.7549 L190.6689,135.1539" id="Stroke-35" stroke="#FFFFFF" stroke-width="4" stroke-linecap="round" stroke-linejoin="round" stroke-dasharray="0,9"></path>
                <path d="M199.7378,151.0625 C185.8918,133.6555 164.1868,122.4785 140.2738,122.4785 C130.7938,122.4785 121.7278,124.2425 113.3758,127.4465 C125.5228,135.0155 131.7838,145.2295 139.4718,157.2935 L195.3218,157.2935 C203.6588,157.2945 200.7998,152.5155 199.7378,151.0625" id="Fill-37" fill="#F4DDB8"></path>
                <path d="M199.7378,151.0625 C185.8918,133.6555 164.1868,122.4785 140.2738,122.4785 C130.7938,122.4785 121.7278,124.2425 113.3758,127.4465 C125.5228,135.0155 131.7838,145.2295 139.4718,157.2935 L195.3218,157.2935 C203.6588,157.2945 200.7998,152.5155 199.7378,151.0625 Z" id="Stroke-39" stroke="#0A537B" stroke-width="2"></path>
                <path d="M163.2964,153.2813 C155.5374,140.8613 145.1914,130.6283 133.3744,123.6863 C96.8514,102.2303 50.8034,113.7353 26.0994,153.2813 C25.0494,154.9613 26.1094,157.2953 27.9254,157.2953 L161.4704,157.2953 C162.3084,157.2953 163.0744,156.7633 163.4594,155.9193 C163.8434,155.0753 163.7804,154.0573 163.2964,153.2813" id="Fill-41" fill="#EDBF77"></path>
                <path d="M163.2964,153.2813 C155.5374,140.8613 145.1914,130.6283 133.3744,123.6863 C96.8514,102.2303 50.8034,113.7353 26.0994,153.2813 C25.0494,154.9613 26.1094,157.2953 27.9254,157.2953 L161.4704,157.2953 C162.3084,157.2953 163.0744,156.7633 163.4594,155.9193 C163.8434,155.0753 163.7804,154.0573 163.2964,153.2813 Z" id="Stroke-43" stroke="#0B567F" stroke-width="2"></path>
                <path d="M329.2124,89.1006 C323.5634,80.0576 316.0294,72.6056 307.4274,67.5516 C280.8334,51.9296 247.3064,60.3066 229.3184,89.1006 C228.5544,90.3236 229.3254,92.0226 230.6494,92.0226 L327.8834,92.0226 C328.4924,92.0226 329.0524,91.6356 329.3314,91.0206 C329.6104,90.4066 329.5664,89.6646 329.2124,89.1006" id="Fill-45" fill="#EDBF77"></path>
                <path d="M329.2124,89.1006 C323.5634,80.0576 316.0294,72.6056 307.4274,67.5516 C280.8334,51.9296 247.3064,60.3066 229.3184,89.1006 C228.5544,90.3236 229.3254,92.0226 230.6494,92.0226 L327.8834,92.0226 C328.4924,92.0226 329.0524,91.6356 329.3314,91.0206 C329.6104,90.4066 329.5664,89.6646 329.2124,89.1006 Z" id="Stroke-47" stroke="#0B567F" stroke-width="2"></path>
                <path d="M57.0991,119.5127 C47.3701,119.3467 39.5041,111.3787 39.5041,101.6097 C39.5041,92.9217 45.7861,85.4907 54.2501,83.9837 C54.7531,75.5997 61.5521,68.8557 69.9391,68.4157 C69.9131,67.9947 69.9011,67.5747 69.9011,67.1597 C69.9011,55.7497 79.1841,46.4667 90.5951,46.4667 C99.7821,46.4667 107.7781,52.4527 110.4041,61.1547 C112.1681,60.6207 114.0021,60.3517 115.8701,60.3517 C126.2861,60.3517 134.7591,68.8247 134.7591,79.2407 C134.7591,80.7517 134.5801,82.2477 134.2271,83.7057 L140.3241,83.7057 C150.1961,83.7057 158.2271,91.7377 158.2271,101.6097 C158.2271,111.4837 150.1961,119.5157 140.3241,119.5157 L57.0991,119.5127 Z" id="Fill-49" fill="#F2F2F2"></path>
                <path d="M90.5952,45.4668 C78.6322,45.4668 68.9012,55.1978 68.9012,67.1598 C68.9012,67.2728 68.9022,67.3848 68.9042,67.4968 C60.7242,68.3888 54.1732,74.9488 53.3162,83.1508 C44.7632,85.0388 38.5042,92.6978 38.5042,101.6098 C38.5042,111.5938 46.2832,119.7958 56.0992,120.4708 L56.0992,120.4978 L56.7322,120.5028 C56.9562,120.5118 57.1822,120.5158 57.4082,120.5158 C57.5172,120.5158 57.6242,120.5148 57.7312,120.5118 L58.0992,120.5158 L140.3242,120.5158 C150.7472,120.5158 159.2272,112.0338 159.2272,101.6098 C159.2272,91.1868 150.7472,82.7058 140.3242,82.7058 L135.4572,82.7058 C135.6582,81.5658 135.7592,80.4068 135.7592,79.2398 C135.7592,68.2738 126.8372,59.3518 115.8702,59.3518 C114.2352,59.3518 112.6232,59.5478 111.0582,59.9378 C108.0322,51.3198 99.8962,45.4668 90.5952,45.4668 M90.5952,47.4668 C99.8432,47.4668 107.6012,53.8418 109.7182,62.4368 C111.6352,61.7348 113.7082,61.3518 115.8702,61.3518 C125.7502,61.3518 133.7592,69.3608 133.7592,79.2398 C133.7592,81.1468 133.4592,82.9838 132.9082,84.7058 L140.3242,84.7058 C149.6592,84.7058 157.2272,92.2748 157.2272,101.6098 C157.2272,110.9468 149.6592,118.5158 140.3242,118.5158 L58.0992,118.5158 L58.0992,118.4978 C57.8692,118.5098 57.6402,118.5158 57.4082,118.5158 C48.0722,118.5158 40.5042,110.9468 40.5042,101.6098 C40.5042,93.0158 46.9192,85.9188 55.2212,84.8458 C55.2942,76.2998 62.2452,69.3938 70.8102,69.3938 C70.8832,69.3938 70.9552,69.3958 71.0272,69.3958 C70.9452,68.6618 70.9012,67.9168 70.9012,67.1598 C70.9012,56.2838 79.7182,47.4668 90.5952,47.4668" id="Fill-51" fill="#0B567F"></path>
                <g id="Group-56" transform="translate(75.000000, 120.869000)">
                    <path d="M0.7632,1.4533 L0.8802,12.7523 C0.9212,16.7243 11.3472,19.8393 24.1692,19.7063 C36.9912,19.5763 47.3532,16.2463 47.3112,12.2783 L47.1962,0.9783" id="Fill-53" fill="#F2F2F2"></path>
                    <path d="M0.7632,1.4533 L0.8802,12.7523 C0.9212,16.7243 11.3472,19.8393 24.1692,19.7063 C36.9912,19.5763 47.3532,16.2463 47.3112,12.2783 L47.1962,0.9783" id="Stroke-55" stroke="#0B567F" stroke-width="2" stroke-linecap="round"></path>
                </g>
                <g id="Group-60" transform="translate(75.000000, 118.869000)">
                    <path d="M2.4194,0.7726 C1.3624,1.6076 0.7554,2.5096 0.7634,3.4536 C0.8064,7.4236 11.2334,10.5366 24.0554,10.4066 C36.8754,10.2756 47.2344,6.9526 47.1954,2.9786 C47.1864,2.0876 46.6294,1.2496 45.6674,0.4726" id="Fill-57" fill="#B6C4CE"></path>
                    <path d="M2.4194,0.7726 C1.3624,1.6076 0.7554,2.5096 0.7634,3.4536 C0.8064,7.4236 11.2334,10.5366 24.0554,10.4066 C36.8754,10.2756 47.2344,6.9526 47.1954,2.9786 C47.1864,2.0876 46.6294,1.2496 45.6674,0.4726" id="Stroke-59" stroke="#0B567F" stroke-width="2" stroke-linecap="round" stroke-linejoin="round"></path>
                </g>
                <g id="Group-64" transform="translate(75.000000, 103.869000)">
                    <path d="M0.5913,1.4465 L0.7063,12.7465 C0.7483,16.7155 11.1713,19.8315 23.9933,19.7005 C36.8163,19.5665 47.1783,16.2435 47.1383,12.2695 L47.0203,0.9725" id="Fill-61" fill="#F2F2F2"></path>
                    <path d="M0.5913,1.4465 L0.7063,12.7465 C0.7483,16.7155 11.1713,19.8315 23.9933,19.7005 C36.8163,19.5665 47.1783,16.2435 47.1383,12.2695 L47.0203,0.9725" id="Stroke-63" stroke="#0B567F" stroke-width="2" stroke-linecap="round"></path>
                </g>
                <g id="Group-68" transform="translate(75.000000, 101.869000)">
                    <path d="M2.2456,0.7648 C1.1886,1.6018 0.5806,2.5018 0.5916,3.4468 C0.6316,7.4158 11.0586,10.5308 23.8796,10.3988 C36.7026,10.2688 47.0616,6.9438 47.0196,2.9728 C47.0126,2.0808 46.4556,1.2428 45.4946,0.4648" id="Fill-65" fill="#B6C4CE"></path>
                    <path d="M2.2456,0.7648 C1.1886,1.6018 0.5806,2.5018 0.5916,3.4468 C0.6316,7.4158 11.0586,10.5308 23.8796,10.3988 C36.7026,10.2688 47.0616,6.9438 47.0196,2.9728 C47.0126,2.0808 46.4556,1.2428 45.4946,0.4648" id="Stroke-67" stroke="#0B567F" stroke-width="2" stroke-linecap="round" stroke-linejoin="round"></path>
                </g>
                <g id="Group-72" transform="translate(75.000000, 87.869000)">
                    <path d="M0.4204,0.7804 L0.5344,12.0784 C0.5764,16.0494 11.0034,19.1664 23.8234,19.0314 C36.6474,18.8994 47.0054,15.5754 46.9654,11.6054 L46.8524,0.3044" id="Fill-69" fill="#F2F2F2"></path>
                    <path d="M0.4204,0.7804 L0.5344,12.0784 C0.5764,16.0494 11.0034,19.1664 23.8234,19.0314 C36.6474,18.8994 47.0054,15.5754 46.9654,11.6054 L46.8524,0.3044" id="Stroke-71" stroke="#0B567F" stroke-width="2" stroke-linecap="round"></path>
                </g>
                <path d="M97.9302,96.6055 C86.2862,96.6055 74.4732,93.8765 74.4202,88.6595 C74.3952,86.2285 76.9682,84.1135 81.8622,82.5425 C86.3262,81.1095 92.2532,80.2855 98.5522,80.2215 L99.3352,80.2175 C110.9802,80.2175 122.7962,82.9475 122.8522,88.1635 C122.9062,93.4855 110.4572,96.4825 98.7182,96.6015 L97.9302,96.6055 Z" id="Fill-73" fill="#B6C4CE"></path>
                <path d="M99.3364,79.2178 C99.0724,79.2178 98.8074,79.2188 98.5414,79.2218 C92.1464,79.2858 86.1134,80.1278 81.5564,81.5908 C74.7934,83.7618 73.3994,86.6388 73.4204,88.6698 C73.4824,94.8098 86.1704,97.6058 97.9334,97.6058 C98.1964,97.6058 98.4624,97.6048 98.7284,97.6018 C105.1244,97.5368 111.1564,96.6958 115.7154,95.2318 C122.4774,93.0608 123.8724,90.1848 123.8524,88.1548 C123.7864,82.0138 111.0984,79.2178 99.3364,79.2178 M99.3364,81.2178 C111.8014,81.2178 121.8114,84.2848 121.8524,88.1738 C121.8924,92.1428 111.5304,95.4718 98.7084,95.6018 C98.4484,95.6048 98.1904,95.6058 97.9334,95.6058 C85.4714,95.6058 75.4594,92.5398 75.4204,88.6498 C75.3794,84.6778 85.7404,81.3508 98.5624,81.2218 C98.8204,81.2188 99.0794,81.2178 99.3364,81.2178" id="Fill-75" fill="#0B567F"></path>
                <path d="M250.7661,52.4688 L250.7661,52.4578 C243.9651,52.1848 238.5161,46.5658 238.5161,39.6978 C238.5161,33.5818 242.8811,28.3388 248.8001,27.1698 C249.2641,21.3898 253.9171,16.7528 259.6921,16.3028 C259.6841,16.1058 259.6801,15.9078 259.6801,15.7118 C259.6801,7.5998 266.2801,0.9998 274.3921,0.9998 C280.8231,0.9998 286.4321,5.1248 288.3851,11.1558 C289.5541,10.8308 290.7631,10.6668 291.9911,10.6668 C299.4101,10.6668 305.4461,16.7028 305.4461,24.1228 C305.4461,25.0718 305.3471,26.0098 305.1521,26.9288 L309.0161,26.9288 C316.0571,26.9288 321.7861,32.6568 321.7861,39.6978 C321.7861,46.7398 316.0571,52.4688 309.0161,52.4688 L250.7661,52.4688 Z" id="Fill-77" fill="#F2F2F2"></path>
                <path d="M274.3921,0 C265.8291,0 258.8431,6.887 258.6831,15.413 C253.1011,16.265 248.6641,20.74 247.8841,26.352 C241.8711,27.882 237.5161,33.354 237.5161,39.697 C237.5161,46.777 242.8861,52.627 249.7661,53.386 L249.7661,53.456 L250.9021,53.464 C251.0301,53.467 251.1581,53.469 251.2861,53.469 C251.3531,53.469 251.4201,53.468 251.4881,53.467 L251.7661,53.469 L309.0171,53.469 C316.6091,53.469 322.7871,47.291 322.7871,39.697 C322.7871,32.105 316.6091,25.929 309.0171,25.929 L306.3331,25.929 C306.4091,25.331 306.4471,24.729 306.4471,24.122 C306.4471,16.152 299.9611,9.667 291.9911,9.667 C290.9861,9.667 289.9941,9.77 289.0241,9.972 C286.6981,4.01 280.9441,0 274.3921,0 M274.3921,2 C280.8311,2 286.2331,6.438 287.7061,12.423 C289.0421,11.935 290.4861,11.667 291.9911,11.667 C298.8701,11.667 304.4471,17.244 304.4471,24.122 C304.4471,25.45 304.2381,26.729 303.8531,27.929 L309.0171,27.929 C315.5171,27.929 320.7871,33.198 320.7871,39.697 C320.7871,46.199 315.5171,51.469 309.0171,51.469 L251.7661,51.469 L251.7661,51.456 C251.6071,51.465 251.4471,51.469 251.2861,51.469 C244.7851,51.469 239.5161,46.199 239.5161,39.697 C239.5161,33.714 243.9821,28.773 249.7621,28.025 C249.8141,22.075 254.6541,17.267 260.6171,17.267 C260.6671,17.267 260.7181,17.268 260.7681,17.269 C260.7101,16.758 260.6801,16.238 260.6801,15.712 C260.6801,8.14 266.8191,2 274.3921,2" id="Fill-79" fill="#0B567F"></path>
                <g id="Group-84" transform="translate(262.000000, 61.869000)">
                    <path d="M0.9507,1.0187 L1.0347,9.0777 C1.0637,11.9107 8.4997,14.1317 17.6447,14.0377 C26.7897,13.9447 34.1797,11.5697 34.1507,8.7397 L34.0677,0.6797" id="Fill-81" fill="#F2F2F2"></path>
                    <path d="M0.9507,1.0187 L1.0347,9.0777 C1.0637,11.9107 8.4997,14.1317 17.6447,14.0377 C26.7897,13.9447 34.1797,11.5697 34.1507,8.7397 L34.0677,0.6797" id="Stroke-83" stroke="#0B567F" stroke-width="2" stroke-linecap="round"></path>
                </g>
                <g id="Group-88" transform="translate(262.000000, 59.869000)">
                    <path d="M2.1323,1.1066 C1.3783,1.7026 0.9453,2.3456 0.9503,3.0186 C0.9813,5.8506 8.4183,8.0706 17.5643,7.9776 C26.7073,7.8846 34.0963,5.5146 34.0683,2.6796 C34.0623,2.0446 33.6643,1.4476 32.9783,0.8926" id="Fill-85" fill="#B6C4CE"></path>
                    <path d="M2.1323,1.1066 C1.3783,1.7026 0.9453,2.3456 0.9503,3.0186 C0.9813,5.8506 8.4183,8.0706 17.5643,7.9776 C26.7073,7.8846 34.0963,5.5146 34.0683,2.6796 C34.0623,2.0446 33.6643,1.4476 32.9783,0.8926" id="Stroke-87" stroke="#0B567F" stroke-width="2" stroke-linecap="round" stroke-linejoin="round"></path>
                </g>
                <g id="Group-92" transform="translate(262.000000, 49.869000)">
                    <path d="M0.8276,0.8888 L0.9106,8.9488 C0.9396,11.7788 8.3746,14.0018 17.5196,13.9088 C26.6656,13.8128 34.0566,11.4428 34.0266,8.6088 L33.9426,0.5508" id="Fill-89" fill="#F2F2F2"></path>
                    <path d="M0.8276,0.8888 L0.9106,8.9488 C0.9396,11.7788 8.3746,14.0018 17.5196,13.9088 C26.6656,13.8128 34.0566,11.4428 34.0266,8.6088 L33.9426,0.5508" id="Stroke-91" stroke="#0B567F" stroke-width="2" stroke-linecap="round"></path>
                </g>
                <g id="Group-96" transform="translate(262.000000, 47.869000)">
                    <path d="M2.0083,0.9758 C1.2543,1.5738 0.8213,2.2148 0.8273,2.8888 C0.8573,5.7198 8.2943,7.9418 17.4383,7.8468 C26.5843,7.7548 33.9733,5.3828 33.9433,2.5508 C33.9373,1.9148 33.5403,1.3168 32.8553,0.7618" id="Fill-93" fill="#B6C4CE"></path>
                    <path d="M2.0083,0.9758 C1.2543,1.5738 0.8213,2.2148 0.8273,2.8888 C0.8573,5.7198 8.2943,7.9418 17.4383,7.8468 C26.5843,7.7548 33.9733,5.3828 33.9433,2.5508 C33.9373,1.9148 33.5403,1.3168 32.8553,0.7618" id="Stroke-95" stroke="#0B567F" stroke-width="2" stroke-linecap="round" stroke-linejoin="round"></path>
                </g>
                <g id="Group-100" transform="translate(262.000000, 37.869000)">
                    <path d="M0.7065,1.0021 L0.7885,9.0601 C0.8175,11.8931 8.2545,14.1151 17.3975,14.0191 C26.5445,13.9251 33.9335,11.5541 33.9035,8.7231 L33.8225,0.6631" id="Fill-97" fill="#F2F2F2"></path>
                    <path d="M0.7065,1.0021 L0.7885,9.0601 C0.8175,11.8931 8.2545,14.1151 17.3975,14.0191 C26.5445,13.9251 33.9335,11.5541 33.9035,8.7231 L33.8225,0.6631" id="Stroke-99" stroke="#0B567F" stroke-width="2" stroke-linecap="round"></path>
                </g>
                <path d="M278.7583,44.8321 C270.3143,44.8321 261.7453,42.7881 261.7063,38.8811 C261.6933,37.5761 262.6373,35.7111 267.2133,34.2421 C270.4243,33.2111 274.6813,32.6191 279.2013,32.5731 L279.7643,32.5701 C288.2103,32.5701 296.7823,34.6141 296.8223,38.5211 C296.8423,40.3941 294.9383,41.9971 291.3163,43.1591 C288.1043,44.1901 283.8463,44.7831 279.3253,44.8291 L278.7583,44.8321 Z" id="Fill-101" fill="#B6C4CE"></path>
                <path d="M279.7651,31.5703 C279.5751,31.5703 279.3821,31.5713 279.1911,31.5733 C274.5741,31.6203 270.2111,32.2293 266.9081,33.2903 C261.7511,34.9453 260.6891,37.2503 260.7061,38.8913 C260.7541,43.6863 269.8101,45.8323 278.7631,45.8323 C278.9531,45.8323 279.1451,45.8313 279.3361,45.8293 C283.9531,45.7823 288.3171,45.1733 291.6211,44.1113 C296.7771,42.4563 297.8391,40.1523 297.8231,38.5113 C297.7731,33.7163 288.7171,31.5703 279.7651,31.5703 M279.7651,33.5703 C288.6551,33.5703 295.7931,35.7573 295.8231,38.5323 C295.8521,41.3623 288.4621,43.7373 279.3161,43.8293 C279.1311,43.8313 278.9471,43.8323 278.7631,43.8323 C269.8741,43.8323 262.7341,41.6453 262.7061,38.8713 C262.6771,36.0383 270.0671,33.6653 279.2111,33.5733 C279.3961,33.5713 279.5811,33.5703 279.7651,33.5703" id="Fill-103" fill="#0B567F"></path>
            </g>
        </g>
    </g>
</svg>