<?xml version="1.0" encoding="UTF-8" standalone="no"?>
<svg width="366px" height="218px" viewBox="0 0 366 218" version="1.1" xmlns="http://www.w3.org/2000/svg" xmlns:xlink="http://www.w3.org/1999/xlink">
    <!-- Generator: Sketch 50.2 (55047) - http://www.bohemiancoding.com/sketch -->
    <title>Group</title>
    <desc>Created with Sketch.</desc>
    <defs>
        <polygon id="path-1" points="0.2227 0.9872 39.2357 0.9872 39.2357 40 0.2227 40"></polygon>
        <polygon id="path-3" points="0.8457 0.237 306.5617 0.237 306.5617 146.9187 0.8457 146.9187"></polygon>
    </defs>
    <g id="Page-1" stroke="none" stroke-width="1" fill="none" fill-rule="evenodd">
        <g id="direct-connect" transform="translate(-812.000000, -1157.000000)">
            <g id="Group" transform="translate(813.000000, 1156.000000)">
                <path d="M173.3576,205.0925 L11.5056,205.0925 C5.1466,205.0925 0.000599999999,202.4825 0.000599999999,199.2565 C0.000599999999,196.0305 5.1466,193.4215 11.5056,193.4215 L173.3576,193.4215 C179.7166,193.4215 184.8636,196.0305 184.8636,199.2565 C184.8636,202.4825 179.7166,205.0925 173.3576,205.0925" id="Fill-1" fill="#7996A5"></path>
                <path d="M173.3576,205.0925 L11.5056,205.0925 C5.1466,205.0925 0.000599999999,202.4825 0.000599999999,199.2565 C0.000599999999,196.0305 5.1466,193.4215 11.5056,193.4215 L173.3576,193.4215 C179.7166,193.4215 184.8636,196.0305 184.8636,199.2565 C184.8636,202.4825 179.7166,205.0925 173.3576,205.0925 Z" id="Stroke-3" stroke="#0B567F" stroke-width="2"></path>
                <path d="M350.9885,205.0925 L181.6055,205.0925 C174.9505,205.0925 169.5645,202.4825 169.5645,199.2565 C169.5645,196.0305 174.9505,193.4215 181.6055,193.4215 L350.9885,193.4215 C357.6445,193.4215 363.0295,196.0305 363.0295,199.2565 C363.0295,202.4825 357.6435,205.0925 350.9885,205.0925" id="Fill-5" fill="#7996A5"></path>
                <path d="M350.9885,205.0925 L181.6055,205.0925 C174.9505,205.0925 169.5645,202.4825 169.5645,199.2565 C169.5645,196.0305 174.9505,193.4215 181.6055,193.4215 L350.9885,193.4215 C357.6445,193.4215 363.0295,196.0305 363.0295,199.2565 C363.0295,202.4825 357.6435,205.0925 350.9885,205.0925 Z" id="Stroke-7" stroke="#0B567F" stroke-width="2"></path>
                <path d="M169.5647,151.7946 L169.5647,187.5856 C169.5647,190.8546 166.9977,193.4216 163.7287,193.4216 C160.4607,193.4216 157.8937,190.8546 157.8937,187.5856 L157.8937,151.7946 C157.8937,148.5266 160.4607,145.9596 163.7287,145.9596 C166.9977,145.9596 169.5647,148.5266 169.5647,151.7946" id="Fill-9" fill="#7996A5"></path>
                <path d="M169.5647,151.7946 L169.5647,187.5856 C169.5647,190.8546 166.9977,193.4216 163.7287,193.4216 C160.4607,193.4216 157.8937,190.8546 157.8937,187.5856 L157.8937,151.7946 C157.8937,148.5266 160.4607,145.9596 163.7287,145.9596 C166.9977,145.9596 169.5647,148.5266 169.5647,151.7946 Z" id="Stroke-11" stroke="#0B567F" stroke-width="2"></path>
                <path d="M163.7287,217.7634 C153.5247,217.7634 145.2227,209.4614 145.2227,199.2564 C145.2227,189.0524 153.5247,180.7504 163.7287,180.7504 C173.9337,180.7504 182.2357,189.0524 182.2357,199.2564 C182.2357,209.4614 173.9337,217.7634 163.7287,217.7634" id="Fill-13" fill="#B6C4CE"></path>
                <g id="Group-17" transform="translate(144.000000, 178.763000)">
                    <mask id="mask-2" fill="white">
                        <use xlink:href="#path-1"></use>
                    </mask>
                    <g id="Clip-16"></g>
                    <path d="M19.7287,0.9872 C8.9727,0.9872 0.2227,9.7372 0.2227,20.4932 C0.2227,31.2492 8.9727,40.0002 19.7287,40.0002 C30.4847,40.0002 39.2357,31.2492 39.2357,20.4932 C39.2357,9.7372 30.4847,0.9872 19.7287,0.9872 M19.7287,2.9872 C29.4167,2.9872 37.2357,10.8062 37.2357,20.4932 C37.2357,30.1812 29.4167,38.0002 19.7287,38.0002 C10.0407,38.0002 2.2227,30.1812 2.2227,20.4932 C2.2227,10.8062 10.0407,2.9872 19.7287,2.9872" id="Fill-15" fill="#0B567F" mask="url(#mask-2)"></path>
                </g>
                <path d="M80.7932,146.6813 C61.5232,146.6813 45.8462,131.0023 45.8462,111.7303 C45.8462,94.5053 58.5002,79.8083 75.4192,77.1943 C76.0202,60.1553 89.9692,46.3903 107.0392,46.0413 C106.9392,44.8693 106.8892,43.6993 106.8892,42.5493 C106.8892,20.1903 125.0802,1.9993 147.4392,1.9993 C165.7842,1.9993 181.7062,14.1823 186.5362,31.7613 C190.2842,30.5143 194.2012,29.8833 198.1972,29.8833 C218.5592,29.8833 235.1232,46.4473 235.1232,66.8073 C235.1232,70.1953 234.6642,73.5443 233.7562,76.7843 L247.3052,76.7843 C260.6002,76.7843 272.8502,84.4503 278.6942,96.3703 L313.0312,96.3703 C318.2862,96.3703 322.5622,100.6463 322.5622,105.9013 C322.5622,111.1563 318.2862,115.4313 313.0312,115.4313 L282.0472,115.4313 C281.5992,119.7163 280.3842,123.8053 278.4292,127.6203 L340.0312,127.6203 C345.2862,127.6203 349.5622,131.8963 349.5622,137.1513 C349.5622,142.4063 345.2862,146.6813 340.0312,146.6813 L80.7932,146.6813 Z" id="Fill-18" fill="#F2F2F2"></path>
                <g id="Group-22" transform="translate(44.000000, 0.763000)">
                    <mask id="mask-4" fill="white">
                        <use xlink:href="#path-3"></use>
                    </mask>
                    <g id="Clip-21"></g>
                    <path d="M103.4397,0.2367 C80.5287,0.2367 61.8887,18.8757 61.8887,41.7867 C61.8887,42.6217 61.9157,43.4667 61.9667,44.3167 C45.1217,45.1947 31.4647,58.7397 30.4597,75.5767 C13.4607,78.6017 0.8457,93.5237 0.8457,110.9677 C0.8457,130.7907 16.9717,146.9187 36.7937,146.9187 C37.0607,146.9187 37.3257,146.9147 37.5857,146.9077 L38.1797,146.9187 L195.7587,146.9187 L203.3047,146.9187 L296.0317,146.9187 C301.8377,146.9187 306.5617,142.1947 306.5617,136.3877 C306.5617,130.5817 301.8377,125.8577 296.0317,125.8577 L236.0247,125.8577 C237.5017,122.6257 238.4767,119.2147 238.9367,115.6687 L269.0317,115.6687 C274.8377,115.6687 279.5617,110.9447 279.5617,105.1377 C279.5617,99.3317 274.8377,94.6077 269.0317,94.6077 L235.3127,94.6077 C229.1957,82.6677 216.7717,75.0217 203.3047,75.0217 L191.0507,75.0217 C191.7627,72.0917 192.1237,69.0827 192.1237,66.0447 C192.1237,45.1327 175.1097,28.1207 154.1977,28.1207 C150.4447,28.1207 146.7597,28.6627 143.2117,29.7347 C137.9447,12.2597 121.8877,0.2367 103.4397,0.2367 M103.4397,2.2367 C122.0117,2.2367 137.5907,15.0407 141.8417,32.2997 C145.6927,30.8897 149.8557,30.1207 154.1977,30.1207 C174.0387,30.1207 190.1237,46.2047 190.1237,66.0447 C190.1237,69.8747 189.5207,73.5617 188.4127,77.0217 L203.3047,77.0217 C216.9197,77.0217 228.6547,85.0397 234.0647,96.6077 L269.0317,96.6077 C273.7227,96.6077 277.5617,100.4457 277.5617,105.1377 C277.5617,109.8297 273.7227,113.6687 269.0317,113.6687 L237.1347,113.6687 C236.7307,118.8047 235.1847,123.6187 232.7487,127.8577 L296.0317,127.8577 C300.7227,127.8577 304.5617,131.6957 304.5617,136.3877 C304.5617,141.0797 300.7227,144.9187 296.0317,144.9187 L203.3047,144.9187 L195.7587,144.9187 L38.1797,144.9187 L38.1797,144.8827 C37.7187,144.9077 37.2577,144.9187 36.7937,144.9187 C18.0437,144.9187 2.8457,129.7197 2.8457,110.9677 C2.8457,93.7087 15.7277,79.4587 32.4007,77.3017 C32.5477,60.1407 46.5067,46.2717 63.7057,46.2717 C63.8527,46.2717 63.9987,46.2737 64.1427,46.2757 C63.9777,44.8027 63.8887,43.3057 63.8887,41.7867 C63.8887,19.9457 81.5957,2.2367 103.4397,2.2367" id="Fill-20" fill="#0B567F" mask="url(#mask-4)"></path>
                </g>
                <path d="M119.5178,95.6833 C111.7868,95.6833 105.4968,89.3933 105.4968,81.6623 L105.4968,72.9823 C105.4968,65.2503 111.7868,58.9613 119.5178,58.9613 L206.3248,58.9613 C214.0548,58.9613 220.3448,65.2503 220.3448,72.9823 L220.3448,81.6623 C220.3448,89.3933 214.0548,95.6833 206.3248,95.6833 L119.5178,95.6833 Z" id="Fill-23" fill="#2BB3E2"></path>
                <path d="M206.3244,57.9606 L119.5174,57.9606 C111.2344,57.9606 104.4964,64.6996 104.4964,72.9816 L104.4964,81.6626 C104.4964,89.9446 111.2344,96.6836 119.5174,96.6836 L206.3244,96.6836 C214.6064,96.6836 221.3454,89.9446 221.3454,81.6626 L221.3454,72.9816 C221.3454,64.6996 214.6064,57.9606 206.3244,57.9606 M206.3244,59.9606 C213.5294,59.9606 219.3454,65.7766 219.3454,72.9816 L219.3454,81.6626 C219.3454,88.8676 213.5294,94.6836 206.3244,94.6836 L119.5174,94.6836 C112.3124,94.6836 106.4964,88.8676 106.4964,81.6626 L106.4964,72.9816 C106.4964,65.7766 112.3124,59.9606 119.5174,59.9606 L206.3244,59.9606" id="Fill-25" fill="#0B567F"></path>
                <path d="M128.1984,82.6628 C125.2034,82.6628 122.8574,80.3168 122.8574,77.3228 C122.8574,74.3278 125.2034,71.9818 128.1984,71.9818 L162.9214,71.9818 C165.9154,71.9818 168.2614,74.3278 168.2614,77.3228 C168.2614,80.3168 165.9154,82.6628 162.9214,82.6628 L128.1984,82.6628 Z" id="Fill-27" fill="#F2F2F2"></path>
                <path d="M162.9211,70.9821 L128.1981,70.9821 C124.6431,70.9821 121.8581,73.7671 121.8581,77.3221 C121.8581,80.8781 124.6431,83.6631 128.1981,83.6631 L162.9211,83.6631 C166.4771,83.6631 169.2611,80.8781 169.2611,77.3221 C169.2611,73.7671 166.4771,70.9821 162.9211,70.9821 M162.9211,72.9821 C165.3521,72.9821 167.2611,74.8911 167.2611,77.3221 C167.2611,79.7531 165.3521,81.6631 162.9211,81.6631 L128.1981,81.6631 C125.7681,81.6631 123.8581,79.7531 123.8581,77.3221 C123.8581,74.8911 125.7681,72.9821 128.1981,72.9821 L162.9211,72.9821" id="Fill-29" fill="#0B567F"></path>
                <path d="M180.2824,82.6628 C177.2874,82.6628 174.9414,80.3168 174.9414,77.3228 C174.9414,74.3278 177.2874,71.9818 180.2824,71.9818 C183.2764,71.9818 185.6224,74.3278 185.6224,77.3228 C185.6224,80.3168 183.2764,82.6628 180.2824,82.6628" id="Fill-31" fill="#B6C4CE"></path>
                <path d="M180.2814,70.9821 C176.7264,70.9821 173.9414,73.7671 173.9414,77.3221 C173.9414,80.8781 176.7264,83.6631 180.2814,83.6631 C183.8374,83.6631 186.6224,80.8781 186.6224,77.3221 C186.6224,73.7671 183.8374,70.9821 180.2814,70.9821 M180.2814,72.9821 C182.7134,72.9821 184.6224,74.8911 184.6224,77.3221 C184.6224,79.7531 182.7134,81.6631 180.2814,81.6631 C177.8514,81.6631 175.9414,79.7531 175.9414,77.3221 C175.9414,74.8911 177.8514,72.9821 180.2814,72.9821" id="Fill-33" fill="#0B567F"></path>
                <path d="M197.6438,82.6628 C194.6488,82.6628 192.3028,80.3168 192.3028,77.3228 C192.3028,74.3278 194.6488,71.9818 197.6438,71.9818 C200.6378,71.9818 202.9838,74.3278 202.9838,77.3228 C202.9838,80.3168 200.6378,82.6628 197.6438,82.6628" id="Fill-35" fill="#B6C4CE"></path>
                <path d="M197.6428,70.9821 C194.0878,70.9821 191.3028,73.7671 191.3028,77.3221 C191.3028,80.8781 194.0878,83.6631 197.6428,83.6631 C201.1988,83.6631 203.9838,80.8781 203.9838,77.3221 C203.9838,73.7671 201.1988,70.9821 197.6428,70.9821 M197.6428,72.9821 C200.0748,72.9821 201.9838,74.8911 201.9838,77.3221 C201.9838,79.7531 200.0748,81.6631 197.6428,81.6631 C195.2128,81.6631 193.3028,79.7531 193.3028,77.3221 C193.3028,74.8911 195.2128,72.9821 197.6428,72.9821" id="Fill-37" fill="#0B567F"></path>
                <path d="M119.5178,130.4059 C111.7868,130.4059 105.4968,124.1159 105.4968,116.3849 L105.4968,107.7039 C105.4968,99.9729 111.7868,93.6829 119.5178,93.6829 L206.3248,93.6829 C214.0548,93.6829 220.3448,99.9729 220.3448,107.7039 L220.3448,116.3849 C220.3448,124.1159 214.0548,130.4059 206.3248,130.4059 L119.5178,130.4059 Z" id="Fill-39" fill="#2BB3E2"></path>
                <path d="M206.3244,92.6833 L119.5174,92.6833 C111.2344,92.6833 104.4964,99.4223 104.4964,107.7043 L104.4964,116.3853 C104.4964,124.6673 111.2344,131.4063 119.5174,131.4063 L206.3244,131.4063 C214.6064,131.4063 221.3454,124.6673 221.3454,116.3853 L221.3454,107.7043 C221.3454,99.4223 214.6064,92.6833 206.3244,92.6833 M206.3244,94.6833 C213.5294,94.6833 219.3454,100.4993 219.3454,107.7043 L219.3454,116.3853 C219.3454,123.5903 213.5294,129.4063 206.3244,129.4063 L119.5174,129.4063 C112.3124,129.4063 106.4964,123.5903 106.4964,116.3853 L106.4964,107.7043 C106.4964,100.4993 112.3124,94.6833 119.5174,94.6833 L206.3244,94.6833" id="Fill-41" fill="#0B567F"></path>
                <path d="M128.1984,117.3849 C125.2034,117.3849 122.8574,115.0389 122.8574,112.0449 C122.8574,109.0499 125.2034,106.7039 128.1984,106.7039 L162.9214,106.7039 C165.9154,106.7039 168.2614,109.0499 168.2614,112.0449 C168.2614,115.0389 165.9154,117.3849 162.9214,117.3849 L128.1984,117.3849 Z" id="Fill-43" fill="#F2F2F2"></path>
                <path d="M162.9211,105.7048 L128.1981,105.7048 C124.6431,105.7048 121.8581,108.4898 121.8581,112.0448 C121.8581,115.6008 124.6431,118.3858 128.1981,118.3858 L162.9211,118.3858 C166.4771,118.3858 169.2611,115.6008 169.2611,112.0448 C169.2611,108.4898 166.4771,105.7048 162.9211,105.7048 M162.9211,107.7048 C165.3521,107.7048 167.2611,109.6138 167.2611,112.0448 C167.2611,114.4758 165.3521,116.3858 162.9211,116.3858 L128.1981,116.3858 C125.7681,116.3858 123.8581,114.4758 123.8581,112.0448 C123.8581,109.6138 125.7681,107.7048 128.1981,107.7048 L162.9211,107.7048" id="Fill-45" fill="#0B567F"></path>
                <path d="M180.2824,117.3849 C177.2874,117.3849 174.9414,115.0389 174.9414,112.0449 C174.9414,109.0499 177.2874,106.7039 180.2824,106.7039 C183.2764,106.7039 185.6224,109.0499 185.6224,112.0449 C185.6224,115.0389 183.2764,117.3849 180.2824,117.3849" id="Fill-47" fill="#B6C4CE"></path>
                <path d="M180.2814,105.7048 C176.7264,105.7048 173.9414,108.4898 173.9414,112.0448 C173.9414,115.6008 176.7264,118.3858 180.2814,118.3858 C183.8374,118.3858 186.6224,115.6008 186.6224,112.0448 C186.6224,108.4898 183.8374,105.7048 180.2814,105.7048 M180.2814,107.7048 C182.7134,107.7048 184.6224,109.6138 184.6224,112.0448 C184.6224,114.4758 182.7134,116.3858 180.2814,116.3858 C177.8514,116.3858 175.9414,114.4758 175.9414,112.0448 C175.9414,109.6138 177.8514,107.7048 180.2814,107.7048" id="Fill-49" fill="#0B567F"></path>
                <path d="M197.6438,117.3849 C194.6488,117.3849 192.3028,115.0389 192.3028,112.0449 C192.3028,109.0499 194.6488,106.7039 197.6438,106.7039 C200.6378,106.7039 202.9838,109.0499 202.9838,112.0449 C202.9838,115.0389 200.6378,117.3849 197.6438,117.3849" id="Fill-51" fill="#B6C4CE"></path>
                <path d="M197.6428,105.7048 C194.0878,105.7048 191.3028,108.4898 191.3028,112.0448 C191.3028,115.6008 194.0878,118.3858 197.6428,118.3858 C201.1988,118.3858 203.9838,115.6008 203.9838,112.0448 C203.9838,108.4898 201.1988,105.7048 197.6428,105.7048 M197.6428,107.7048 C200.0748,107.7048 201.9838,109.6138 201.9838,112.0448 C201.9838,114.4758 200.0748,116.3858 197.6428,116.3858 C195.2128,116.3858 193.3028,114.4758 193.3028,112.0448 C193.3028,109.6138 195.2128,107.7048 197.6428,107.7048" id="Fill-53" fill="#0B567F"></path>
                <path d="M119.5178,165.1286 C111.7868,165.1286 105.4968,158.8386 105.4968,151.1076 L105.4968,142.4266 C105.4968,134.6956 111.7868,128.4056 119.5178,128.4056 L206.3248,128.4056 C214.0548,128.4056 220.3448,134.6956 220.3448,142.4266 L220.3448,151.1076 C220.3448,158.8386 214.0548,165.1286 206.3248,165.1286 L119.5178,165.1286 Z" id="Fill-55" fill="#2BB3E2"></path>
                <path d="M206.3244,127.4059 L119.5174,127.4059 C111.2344,127.4059 104.4964,134.1439 104.4964,142.4269 L104.4964,151.1079 C104.4964,159.3899 111.2344,166.1289 119.5174,166.1289 L206.3244,166.1289 C214.6064,166.1289 221.3454,159.3899 221.3454,151.1079 L221.3454,142.4269 C221.3454,134.1439 214.6064,127.4059 206.3244,127.4059 M206.3244,129.4059 C213.5294,129.4059 219.3454,135.2219 219.3454,142.4269 L219.3454,151.1079 C219.3454,158.3129 213.5294,164.1289 206.3244,164.1289 L119.5174,164.1289 C112.3124,164.1289 106.4964,158.3129 106.4964,151.1079 L106.4964,142.4269 C106.4964,135.2219 112.3124,129.4059 119.5174,129.4059 L206.3244,129.4059" id="Fill-57" fill="#0B567F"></path>
                <path d="M128.1984,152.1076 C125.2034,152.1076 122.8574,149.7616 122.8574,146.7676 C122.8574,143.7726 125.2034,141.4266 128.1984,141.4266 L162.9214,141.4266 C165.9154,141.4266 168.2614,143.7726 168.2614,146.7676 C168.2614,149.7616 165.9154,152.1076 162.9214,152.1076 L128.1984,152.1076 Z" id="Fill-59" fill="#F2F2F2"></path>
                <path d="M162.9211,140.4269 L128.1981,140.4269 C124.6431,140.4269 121.8581,143.2119 121.8581,146.7669 C121.8581,150.3229 124.6431,153.1079 128.1981,153.1079 L162.9211,153.1079 C166.4771,153.1079 169.2611,150.3229 169.2611,146.7669 C169.2611,143.2119 166.4771,140.4269 162.9211,140.4269 M162.9211,142.4269 C165.3521,142.4269 167.2611,144.3369 167.2611,146.7669 C167.2611,149.1979 165.3521,151.1079 162.9211,151.1079 L128.1981,151.1079 C125.7681,151.1079 123.8581,149.1979 123.8581,146.7669 C123.8581,144.3369 125.7681,142.4269 128.1981,142.4269 L162.9211,142.4269" id="Fill-61" fill="#0B567F"></path>
                <path d="M180.2824,152.1076 C177.2874,152.1076 174.9414,149.7616 174.9414,146.7676 C174.9414,143.7726 177.2874,141.4266 180.2824,141.4266 C183.2764,141.4266 185.6224,143.7726 185.6224,146.7676 C185.6224,149.7616 183.2764,152.1076 180.2824,152.1076" id="Fill-63" fill="#B6C4CE"></path>
                <path d="M180.2814,140.4269 C176.7264,140.4269 173.9414,143.2119 173.9414,146.7669 C173.9414,150.3229 176.7264,153.1079 180.2814,153.1079 C183.8374,153.1079 186.6224,150.3229 186.6224,146.7669 C186.6224,143.2119 183.8374,140.4269 180.2814,140.4269 M180.2814,142.4269 C182.7134,142.4269 184.6224,144.3369 184.6224,146.7669 C184.6224,149.1979 182.7134,151.1079 180.2814,151.1079 C177.8514,151.1079 175.9414,149.1979 175.9414,146.7669 C175.9414,144.3369 177.8514,142.4269 180.2814,142.4269" id="Fill-65" fill="#0B567F"></path>
                <path d="M197.6438,152.1076 C194.6488,152.1076 192.3028,149.7616 192.3028,146.7676 C192.3028,143.7726 194.6488,141.4266 197.6438,141.4266 C200.6378,141.4266 202.9838,143.7726 202.9838,146.7676 C202.9838,149.7616 200.6378,152.1076 197.6438,152.1076" id="Fill-67" fill="#B6C4CE"></path>
                <path d="M197.6428,140.4269 C194.0878,140.4269 191.3028,143.2119 191.3028,146.7669 C191.3028,150.3229 194.0878,153.1079 197.6428,153.1079 C201.1988,153.1079 203.9838,150.3229 203.9838,146.7669 C203.9838,143.2119 201.1988,140.4269 197.6428,140.4269 M197.6428,142.4269 C200.0748,142.4269 201.9838,144.3369 201.9838,146.7669 C201.9838,149.1979 200.0748,151.1079 197.6428,151.1079 C195.2128,151.1079 193.3028,149.1979 193.3028,146.7669 C193.3028,144.3369 195.2128,142.4269 197.6428,142.4269" id="Fill-69" fill="#0B567F"></path>
            </g>
        </g>
    </g>
</svg>