<?xml version="1.0" encoding="UTF-8" standalone="no"?>
<svg width="334px" height="156px" viewBox="0 0 334 156" version="1.1" xmlns="http://www.w3.org/2000/svg" xmlns:xlink="http://www.w3.org/1999/xlink">
    <!-- Generator: Sketch 50.2 (55047) - http://www.bohemiancoding.com/sketch -->
    <title>Group</title>
    <desc>Created with Sketch.</desc>
    <defs>
        <polygon id="path-1" points="0 155.246 333.599 155.246 333.599 0 0 0"></polygon>
    </defs>
    <g id="Page-1" stroke="none" stroke-width="1" fill="none" fill-rule="evenodd">
        <g id="direct-connect" transform="translate(-268.000000, -849.000000)">
            <g id="Group" transform="translate(268.000000, 849.000000)">
                <path d="M4.9382,95.863 L88.1632,95.863 C94.8162,87.033 105.3882,81.322 117.2962,81.322 L133.2922,81.322 C132.3442,78.364 131.7592,75.246 131.5522,72.024 L87.6932,72.024 C85.5272,72.024 83.7552,70.252 83.7552,68.086 C83.7552,65.92 85.5272,64.148 87.6932,64.148 L131.8372,64.148 C134.4592,45.389 150.5582,30.948 170.0412,30.948 C174.7042,30.948 179.1752,31.775 183.3112,33.289 C187.8762,14.751 204.6092,1 224.5562,1 C248.0172,1 267.0362,20.02 267.0362,43.478 C267.0362,45.11 266.9402,46.717 266.7632,48.3 C266.9182,48.298 267.0752,48.295 267.2332,48.295 C285.7052,48.295 300.6972,63.191 300.8562,81.623 C318.7632,83.939 332.5982,99.245 332.5982,117.781 C332.5982,137.922 316.2762,154.246 296.1372,154.246 C295.6382,154.246 295.1432,154.234 294.6492,154.208 L294.6492,154.246 L153.4412,154.246 L117.2962,154.246 L28.8522,154.246 C26.6862,154.246 24.9142,152.474 24.9142,150.308 C24.9142,148.142 26.6862,146.369 28.8522,146.369 L94.6772,146.369 C91.0492,143.494 87.9832,139.945 85.6662,135.907 L44.2682,135.907 C42.1022,135.907 40.3302,134.135 40.3302,131.969 C40.3302,129.803 42.1022,128.031 44.2682,128.031 L82.3072,128.031 C81.5462,125.428 81.0772,122.703 80.9142,119.895 L135.2672,119.895 C137.4332,119.895 139.2062,118.123 139.2062,115.957 C139.2062,113.791 137.4332,112.019 135.2672,112.019 L81.2972,112.019 C81.7562,109.133 82.5492,106.358 83.6432,103.739 L4.9382,103.739 C2.7722,103.739 1.0002,101.967 1.0002,99.801 C1.0002,97.635 2.7722,95.863 4.9382,95.863" id="Fill-1" fill="#F2F2F2"></path>
                <path d="M4.9382,95.863 L88.1632,95.863 C94.8162,87.033 105.3882,81.322 117.2962,81.322 L133.2922,81.322 C132.3442,78.364 131.7592,75.246 131.5522,72.024 L87.6932,72.024 C85.5272,72.024 83.7552,70.252 83.7552,68.086 C83.7552,65.92 85.5272,64.148 87.6932,64.148 L131.8372,64.148 C134.4592,45.389 150.5582,30.948 170.0412,30.948 C174.7042,30.948 179.1752,31.775 183.3112,33.289 C187.8762,14.751 204.6092,1 224.5562,1 C248.0172,1 267.0362,20.02 267.0362,43.478 C267.0362,45.11 266.9402,46.717 266.7632,48.3 C266.9182,48.298 267.0752,48.295 267.2332,48.295 C285.7052,48.295 300.6972,63.191 300.8562,81.623 C318.7632,83.939 332.5982,99.245 332.5982,117.781 C332.5982,137.922 316.2762,154.246 296.1372,154.246 C295.6382,154.246 295.1432,154.234 294.6492,154.208 L294.6492,154.246 L153.4412,154.246 L117.2962,154.246 L28.8522,154.246 C26.6862,154.246 24.9142,152.474 24.9142,150.308 C24.9142,148.142 26.6862,146.369 28.8522,146.369 L94.6772,146.369 C91.0492,143.494 87.9832,139.945 85.6662,135.907 L44.2682,135.907 C42.1022,135.907 40.3302,134.135 40.3302,131.969 C40.3302,129.803 42.1022,128.031 44.2682,128.031 L82.3072,128.031 C81.5462,125.428 81.0772,122.703 80.9142,119.895 L135.2672,119.895 C137.4332,119.895 139.2062,118.123 139.2062,115.957 C139.2062,113.791 137.4332,112.019 135.2672,112.019 L81.2972,112.019 C81.7562,109.133 82.5492,106.358 83.6432,103.739 L4.9382,103.739 C2.7722,103.739 1.0002,101.967 1.0002,99.801 C1.0002,97.635 2.7722,95.863 4.9382,95.863 Z" id="Stroke-3" stroke="#0B567F" stroke-width="2" stroke-linecap="round"></path>
                <path d="M188.406,71.5075 L188.406,89.9855 L194.669,89.9855 L200.458,89.9855 L200.458,71.5075 C200.458,63.2735 207.155,56.5765 215.385,56.5765 L215.385,50.8815 L215.385,44.5285 C200.506,44.5285 188.406,56.6345 188.406,71.5075" id="Fill-5" fill="#F9912B"></path>
                <path d="M188.406,71.5075 L188.406,89.9855 L194.669,89.9855 L200.458,89.9855 L200.458,71.5075 C200.458,63.2735 207.155,56.5765 215.385,56.5765 L215.385,50.8815 L215.385,44.5285 C200.506,44.5285 188.406,56.6345 188.406,71.5075 Z" id="Stroke-7" stroke="#0B567F" stroke-width="2" stroke-linecap="round"></path>
                <path d="M215.3855,44.528 L215.3855,50.882 L215.3855,56.577 C223.6265,56.577 230.3165,63.274 230.3165,71.507 L230.3165,89.986 L236.1055,89.986 L242.3685,89.986 L242.3685,71.507 C242.3685,56.634 230.2655,44.528 215.3855,44.528" id="Fill-9" fill="#FFCD50"></path>
                <path d="M215.3855,44.528 L215.3855,50.882 L215.3855,56.577 C223.6265,56.577 230.3165,63.274 230.3165,71.507 L230.3165,89.986 L236.1055,89.986 L242.3685,89.986 L242.3685,71.507 C242.3685,56.634 230.2655,44.528 215.3855,44.528 Z" id="Stroke-11" stroke="#0B567F" stroke-width="2"></path>
                <mask id="mask-2" fill="white">
                    <use xlink:href="#path-1"></use>
                </mask>
                <g id="Clip-14"></g>
                <polygon id="Fill-13" fill="#FFCD50" mask="url(#mask-2)" points="183.25 131.14 215.386 131.14 215.386 81.925 183.25 81.925"></polygon>
                <polygon id="Stroke-15" stroke="#0B567F" stroke-width="2" mask="url(#mask-2)" points="183.25 131.14 215.386 131.14 215.386 81.925 183.25 81.925"></polygon>
                <path d="M215.3855,81.9255 L215.3855,90.2465 L215.3815,90.2465 C206.3705,90.2465 199.0625,97.5545 199.0625,106.5725 C199.0625,115.4425 206.1395,122.6565 214.9585,122.8885 C215.1035,122.8885 215.2405,122.8955 215.3815,122.8955 L215.3855,122.8955 L215.3855,131.1405 L247.5255,131.1405 L247.5255,81.9255 L215.3855,81.9255 Z" id="Fill-16" fill="#F9912B" mask="url(#mask-2)"></path>
                <path d="M215.3855,81.9255 L215.3855,90.2465 L215.3815,90.2465 C206.3705,90.2465 199.0625,97.5545 199.0625,106.5725 C199.0625,115.4425 206.1395,122.6565 214.9585,122.8885 C215.1035,122.8885 215.2405,122.8955 215.3815,122.8955 L215.3855,122.8955 L215.3855,131.1405 L247.5255,131.1405 L247.5255,81.9255 L215.3855,81.9255 Z" id="Stroke-17" stroke="#0B567F" stroke-width="2" stroke-linecap="round" mask="url(#mask-2)"></path>
                <path d="M220.1873,103.7702 C220.1873,101.1232 218.0403,98.9722 215.3853,98.9722 C212.7353,98.9722 210.5903,101.1232 210.5903,103.7702 C210.5903,105.5492 211.5593,107.0932 212.9953,107.9252 L212.9953,111.7802 C212.9953,113.0962 214.0653,114.1702 215.3853,114.1702 C216.7083,114.1702 217.7793,113.0962 217.7793,111.7802 L217.7793,107.9252 C219.2143,107.0932 220.1873,105.5492 220.1873,103.7702" id="Fill-18" fill="#FFFFFF" mask="url(#mask-2)"></path>
                <path d="M220.1873,103.7702 C220.1873,101.1232 218.0403,98.9722 215.3853,98.9722 C212.7353,98.9722 210.5903,101.1232 210.5903,103.7702 C210.5903,105.5492 211.5593,107.0932 212.9953,107.9252 L212.9953,111.7802 C212.9953,113.0962 214.0653,114.1702 215.3853,114.1702 C216.7083,114.1702 217.7793,113.0962 217.7793,111.7802 L217.7793,107.9252 C219.2143,107.0932 220.1873,105.5492 220.1873,103.7702 Z" id="Stroke-19" stroke="#0D5984" stroke-width="2" mask="url(#mask-2)"></path>
            </g>
        </g>
    </g>
</svg>