<?xml version="1.0" encoding="UTF-8" standalone="no"?>
<svg width="608px" height="174px" viewBox="0 0 608 174" version="1.1" xmlns="http://www.w3.org/2000/svg" xmlns:xlink="http://www.w3.org/1999/xlink">
    <!-- Generator: Sketch 50.2 (55047) - http://www.bohemiancoding.com/sketch -->
    <title>Group</title>
    <desc>Created with Sketch.</desc>
    <defs>
        <polygon id="path-1" points="0.0284148274 0.5601 74.3069645 0.5601 74.3069645 53 0.0284148274 53"></polygon>
        <polygon id="path-3" points="0.310561607 0.235 175.8289 0.235 175.8289 116.6164 0.310561607 116.6164"></polygon>
    </defs>
    <g id="Page-1" stroke="none" stroke-width="1" fill="none" fill-rule="evenodd">
        <g id="direct-connect" transform="translate(-416.000000, -565.000000)">
            <g id="Group" transform="translate(417.000000, 564.000000)">
                <path d="M108.0336,171.0296 C106.8486,171.0296 105.6966,170.6816 104.7006,170.0226 L88.4366,159.2706 C86.4436,157.9526 85.4096,155.5776 85.8026,153.2206 L88.6946,135.8416 C88.9296,134.4336 88.3966,132.9886 87.3046,132.0696 L65.9716,114.1086 C65.8936,114.0416 65.8126,113.9786 65.7306,113.9196 L48.0166,101.1516 C47.7366,100.9496 47.4716,100.7216 47.2286,100.4736 L35.5096,88.4966 L21.8186,74.3476 C21.5546,74.0746 21.2556,73.8406 20.9276,73.6526 L8.0956,66.2636 C7.0626,65.6696 6.2356,64.7926 5.7026,63.7286 L2.8286,57.9976 C1.6666,55.6806 2.1066,52.8826 3.9236,51.0336 L24.9236,29.6616 C26.0546,28.5086 27.6306,27.8486 29.2456,27.8486 C29.8206,27.8486 30.3916,27.9296 30.9446,28.0916 L96.4436,47.2246 C98.1776,47.7316 99.5836,48.9706 100.3026,50.6266 L109.7826,72.4406 C110.9756,75.1876 109.9536,78.4436 107.4046,80.0146 L97.4706,86.1366 L79.7876,98.2486 C78.6596,99.0206 78.0156,100.2466 78.0206,101.6136 C78.0256,102.9806 78.6796,104.2016 79.8116,104.9656 L83.3696,107.3616 C84.0426,107.8146 84.8266,108.0546 85.6386,108.0546 C85.7376,108.0546 85.8376,108.0506 85.9366,108.0436 L100.3266,106.9826 C100.4746,106.9706 100.6246,106.9656 100.7736,106.9656 C101.5526,106.9656 102.3126,107.1126 103.0346,107.4036 L135.8496,120.6136 C137.6756,121.3476 138.9936,122.8636 139.4686,124.7716 C139.9436,126.6806 139.4886,128.6366 138.2206,130.1406 L119.7256,152.0836 C119.4346,152.4286 119.2056,152.8156 119.0446,153.2346 L114.1636,165.8596 L113.7406,167.0296 C112.8746,169.4226 110.5816,171.0296 108.0336,171.0296" id="Fill-1" fill="#2BB3E2"></path>
                <path d="M29.2455,26.8485 C27.3645,26.8485 25.5285,27.6185 24.2105,28.9605 L3.2095,50.3325 C1.0935,52.4865 0.5815,55.7465 1.9335,58.4455 L4.8085,64.1775 C5.4305,65.4165 6.3935,66.4385 7.5975,67.1305 L20.4285,74.5185 C20.6765,74.6615 20.9015,74.8375 21.0995,75.0425 L34.7865,89.1885 L46.5155,101.1735 C46.7965,101.4615 47.1045,101.7265 47.4325,101.9635 L65.1465,114.7315 C65.2095,114.7765 65.2695,114.8235 65.3285,114.8735 L86.6605,132.8345 C87.4835,133.5265 87.8855,134.6165 87.7085,135.6775 L84.8145,153.0565 C84.3575,155.8025 85.5625,158.5695 87.8865,160.1045 L104.1485,170.8565 C105.3095,171.6235 106.6525,172.0295 108.0335,172.0295 C111.0015,172.0295 113.6735,170.1575 114.6815,167.3695 L115.1115,166.1805 L119.9755,153.5965 C120.0985,153.2805 120.2705,152.9875 120.4905,152.7275 L138.9855,130.7855 C140.4625,129.0335 140.9915,126.7535 140.4385,124.5305 C139.8865,122.3065 138.3495,120.5415 136.2245,119.6855 L103.4085,106.4755 C102.5665,106.1375 101.6805,105.9655 100.7725,105.9655 C100.5995,105.9655 100.4265,105.9725 100.2535,105.9845 L85.8625,107.0465 C85.7875,107.0515 85.7125,107.0545 85.6385,107.0545 C85.0265,107.0545 84.4345,106.8735 83.9285,106.5325 L80.3705,104.1365 C79.5165,103.5605 79.0245,102.6395 79.0205,101.6095 C79.0165,100.5795 79.5025,99.6555 80.3515,99.0735 L98.0375,86.9635 L107.9295,80.8655 C110.8995,79.0355 112.0905,75.2415 110.6995,72.0425 L101.2195,50.2275 C100.3815,48.2995 98.7425,46.8545 96.7245,46.2655 L31.2245,27.1315 C30.5815,26.9435 29.9155,26.8485 29.2455,26.8485 M29.2455,28.8485 C29.7195,28.8485 30.1965,28.9145 30.6645,29.0515 L96.1635,48.1845 C97.6055,48.6055 98.7865,49.6465 99.3855,51.0245 L108.8655,72.8395 C109.8685,75.1475 109.0225,77.8425 106.8805,79.1635 L96.9465,85.2865 L79.2225,97.4235 C76.2735,99.4415 76.2905,103.7985 79.2535,105.7945 L82.8105,108.1905 C83.6485,108.7555 84.6335,109.0545 85.6385,109.0545 C85.7615,109.0545 85.8865,109.0495 86.0105,109.0405 L100.3995,107.9795 C100.5245,107.9705 100.6485,107.9655 100.7725,107.9655 C101.4185,107.9655 102.0595,108.0895 102.6615,108.3315 L135.4765,121.5415 C138.6735,122.8275 139.6775,126.8625 137.4565,129.4955 L118.9615,151.4385 C118.6005,151.8675 118.3115,152.3525 118.1105,152.8755 L113.2305,165.4995 L112.8005,166.6895 C112.0405,168.7915 110.0735,170.0295 108.0325,170.0295 C107.0845,170.0295 106.1185,169.7615 105.2525,169.1885 L88.9885,158.4365 C87.3215,157.3345 86.4605,155.3555 86.7885,153.3855 L89.6815,136.0055 C89.9755,134.2425 89.3155,132.4555 87.9485,131.3045 L66.6165,113.3435 C66.5195,113.2615 66.4195,113.1835 66.3165,113.1095 L48.6015,100.3405 C48.3665,100.1715 48.1465,99.9815 47.9445,99.7745 L36.2245,87.7985 L22.5375,73.6525 C22.2095,73.3125 21.8355,73.0205 21.4265,72.7855 L8.5955,65.3965 C7.7355,64.9025 7.0405,64.1665 6.5965,63.2805 L3.7225,57.5495 C2.7525,55.6155 3.1195,53.2785 4.6365,51.7345 L25.6365,30.3625 C26.6015,29.3795 27.9075,28.8485 29.2455,28.8485" id="Fill-3" fill="#0B567F"></path>
                <path d="M143.4906,61.6322 C142.0926,61.6322 140.7266,61.1442 139.6456,60.2572 L130.2926,52.5832 C128.2386,50.8982 127.5226,48.1082 128.5126,45.6412 L130.7446,40.0812 C131.2666,38.7792 131.0716,37.2712 130.2336,36.1452 L125.3416,29.5722 C124.2426,28.0962 123.8756,26.2282 124.3326,24.4462 C124.7906,22.6652 126.0116,21.2052 127.6856,20.4412 L148.4706,10.9532 C149.2656,10.5902 150.1126,10.4052 150.9876,10.4052 C151.3566,10.4052 151.7276,10.4392 152.0926,10.5072 L187.0946,16.9992 C188.7396,17.3042 190.1996,18.2882 191.0986,19.6982 C191.9986,21.1092 192.2756,22.8472 191.8586,24.4672 L187.5546,41.1912 C187.0826,43.0232 185.7596,44.5502 184.0126,45.2762 L145.8176,61.1672 C145.0766,61.4762 144.2936,61.6322 143.4906,61.6322" id="Fill-5" fill="#2BB3E2"></path>
                <path d="M150.9877,9.4056 C149.9677,9.4056 148.9817,9.6196 148.0547,10.0426 L127.2707,19.5316 C125.3207,20.4216 123.8977,22.1226 123.3647,24.1976 C122.8317,26.2736 123.2587,28.4496 124.5387,30.1696 L129.4307,36.7426 C130.0617,37.5906 130.2107,38.7276 129.8157,39.7086 L127.5847,45.2686 C126.4307,48.1426 127.2647,51.3926 129.6587,53.3566 L139.0117,61.0306 C140.2707,62.0636 141.8617,62.6326 143.4907,62.6326 C144.4257,62.6326 145.3377,62.4496 146.2017,62.0906 L184.3977,46.1996 C186.4317,45.3536 187.9737,43.5746 188.5227,41.4406 L192.8267,24.7176 C193.3127,22.8296 192.9897,20.8046 191.9417,19.1616 C190.8937,17.5176 189.1937,16.3716 187.2777,16.0156 L152.2747,9.5236 C151.8507,9.4456 151.4177,9.4056 150.9877,9.4056 M150.9877,11.4056 C151.2957,11.4056 151.6037,11.4336 151.9097,11.4906 L186.9127,17.9826 C189.7947,18.5166 191.6207,21.3806 190.8897,24.2186 L186.5867,40.9426 C186.1907,42.4806 185.0947,43.7426 183.6297,44.3526 L145.4327,60.2446 C144.8067,60.5056 144.1467,60.6326 143.4907,60.6326 C142.3397,60.6326 141.2007,60.2396 140.2807,59.4846 L130.9267,51.8106 C129.2197,50.4096 128.6187,48.0636 129.4407,46.0136 L131.6727,40.4536 C132.3287,38.8196 132.0877,36.9616 131.0357,35.5486 L126.1427,28.9746 C124.2187,26.3896 125.1697,22.6896 128.1007,21.3506 L148.8857,11.8626 C149.5487,11.5596 150.2647,11.4056 150.9877,11.4056" id="Fill-7" fill="#0B567F"></path>
                <path d="M335.8002,169.0858 C333.1872,169.0858 330.6802,168.1158 328.7412,166.3528 L317.8542,156.4518 C316.7052,155.4078 315.7872,154.0968 315.1992,152.6608 L306.9932,132.6158 C305.7242,129.5148 302.7392,127.4438 299.3902,127.3388 L296.3522,127.2438 C293.3372,127.1498 290.5062,125.7628 288.5852,123.4388 L280.8972,114.1388 C278.8252,111.6328 278.0362,108.3748 278.7332,105.1988 C279.4282,102.0228 281.5072,99.3928 284.4372,97.9828 L299.4132,90.7738 C301.1842,89.9218 302.6142,88.4708 303.4412,86.6878 L310.5932,71.2558 C311.4332,69.4428 311.6082,67.3838 311.0852,65.4568 L310.0242,61.5358 C308.7452,56.8198 310.8512,51.8968 315.1442,49.5628 L326.8112,43.2188 C328.3462,42.3848 330.0802,41.9428 331.8272,41.9428 C333.0572,41.9428 334.2662,42.1568 335.4202,42.5778 L354.4842,49.5178 C355.4202,49.8578 356.3982,50.0308 357.3912,50.0308 C359.8772,50.0308 362.2322,48.9488 363.8502,47.0608 L380.6502,27.4608 C382.5172,25.2828 385.2322,23.9508 388.0982,23.8068 L493.1272,18.5388 C493.3032,18.5298 493.4792,18.5248 493.6542,18.5248 C496.6792,18.5248 499.5582,19.8308 501.5522,22.1068 L511.4982,33.4548 C513.6742,35.9388 514.5482,39.2188 513.8952,42.4548 C513.2412,45.6918 511.1632,48.3768 508.1952,49.8218 L506.2912,50.7488 C504.8682,51.4408 503.2792,51.8068 501.6962,51.8068 L490.9562,51.8068 C489.3812,51.8068 487.8382,52.2438 486.4962,53.0698 L480.6692,56.6598 C476.7682,59.0638 475.4712,64.0748 477.7182,68.0688 C480.2822,72.6248 479.0722,78.4398 474.9042,81.5938 L462.5832,90.9188 C459.9842,92.8848 458.7492,96.0968 459.3632,99.2998 L460.2042,103.6838 C460.6932,106.2298 460.2252,108.8558 458.8872,111.0778 L454.6422,118.1308 C452.7532,121.2698 449.3062,123.2188 445.6462,123.2188 C445.0662,123.2188 444.4802,123.1698 443.9062,123.0738 L424.4852,119.8158 C424.0212,119.7388 423.5472,119.6988 423.0772,119.6988 C420.7642,119.6988 418.5222,120.6598 416.9242,122.3348 L414.5202,124.8558 C412.5472,126.9238 409.7752,128.1108 406.9152,128.1108 C404.8852,128.1108 402.9102,127.5258 401.2042,126.4198 L385.1832,116.0308 C383.7862,115.1258 382.1962,114.6478 380.5812,114.6478 C376.4812,114.6478 372.0542,117.9038 372.0542,123.1658 L372.0542,123.3148 C372.0542,125.5558 371.3562,127.6968 370.0332,129.5068 L344.2912,164.7738 C342.3212,167.4738 339.1472,169.0858 335.8002,169.0858" id="Fill-9" fill="#2BB3E2"></path>
                <path d="M493.6547,17.5257 C493.4627,17.5257 493.2687,17.5307 493.0767,17.5407 L388.0477,22.8087 C384.9087,22.9657 381.9347,24.4247 379.8897,26.8107 L363.0907,46.4107 C361.6627,48.0757 359.5857,49.0307 357.3917,49.0307 C356.5147,49.0307 355.6527,48.8787 354.8267,48.5777 L335.7627,41.6377 C334.4977,41.1767 333.1747,40.9427 331.8287,40.9427 C329.9147,40.9427 328.0137,41.4267 326.3337,42.3397 L314.6667,48.6837 C309.9647,51.2397 307.6587,56.6327 309.0577,61.7977 L310.1207,65.7177 C310.5817,67.4197 310.4267,69.2357 309.6857,70.8357 L302.5327,86.2677 C301.8037,87.8397 300.5427,89.1207 298.9797,89.8737 L284.0037,97.0817 C280.7947,98.6257 278.5177,101.5057 277.7557,104.9837 C276.9937,108.4627 277.8567,112.0317 280.1267,114.7757 L287.8137,124.0757 C289.9197,126.6217 293.0187,128.1407 296.3207,128.2437 L299.3587,128.3387 C302.3137,128.4307 304.9487,130.2587 306.0687,132.9957 L314.2747,153.0397 C314.9187,154.6117 315.9237,156.0477 317.1807,157.1917 L328.0687,167.0927 C330.1907,169.0227 332.9367,170.0857 335.8007,170.0857 C339.4657,170.0857 342.9407,168.3207 345.0987,165.3637 L370.8417,130.0967 C372.2887,128.1137 373.0537,125.7687 373.0537,123.3147 L373.0537,123.1657 C373.0537,121.0887 373.8667,119.1687 375.3427,117.7607 C376.7517,116.4177 378.6607,115.6467 380.5817,115.6477 C382.0017,115.6477 383.4047,116.0697 384.6387,116.8707 L400.6607,127.2587 C402.5287,128.4697 404.6907,129.1107 406.9157,129.1107 C410.0477,129.1107 413.0837,127.8117 415.2437,125.5457 L417.6477,123.0247 C419.0567,121.5467 421.0367,120.6987 423.0777,120.6987 C423.4917,120.6987 423.9097,120.7337 424.3187,120.8027 L443.7407,124.0597 C444.3697,124.1657 445.0097,124.2187 445.6457,124.2187 C449.6547,124.2187 453.4307,122.0837 455.4997,118.6467 L459.7447,111.5927 C461.2087,109.1607 461.7207,106.2847 461.1857,103.4957 L460.3447,99.1107 C459.8037,96.2857 460.8917,93.4517 463.1867,91.7157 L475.5077,82.3917 C480.0717,78.9367 481.3977,72.5677 478.5907,67.5787 C476.6077,64.0537 477.7517,59.6317 481.1947,57.5107 L487.0207,53.9217 C488.2047,53.1927 489.5657,52.8067 490.9567,52.8067 L501.6957,52.8067 C503.4297,52.8067 505.1707,52.4057 506.7297,51.6467 L508.6327,50.7207 C511.8837,49.1387 514.1597,46.1977 514.8747,42.6527 C515.5907,39.1087 514.6337,35.5157 512.2507,32.7967 L502.3037,21.4467 C500.1207,18.9547 496.9677,17.5257 493.6547,17.5257 M493.6537,19.5257 C496.3837,19.5257 498.9907,20.7007 500.8007,22.7647 L510.7457,34.1137 C514.8777,38.8277 513.3937,46.1797 507.7577,48.9227 L505.8537,49.8487 C504.5587,50.4797 503.1367,50.8067 501.6957,50.8067 L490.9567,50.8067 C489.1967,50.8067 487.4707,51.2957 485.9717,52.2187 L480.1447,55.8087 C475.8007,58.4837 474.3447,64.1127 476.8467,68.5597 C479.1777,72.7017 478.0897,77.9287 474.3007,80.7967 L461.9797,90.1207 C459.0947,92.3037 457.7007,95.9347 458.3817,99.4877 L459.2217,103.8717 C459.6637,106.1727 459.2387,108.5547 458.0307,110.5617 L453.7857,117.6157 C452.0487,120.5027 448.9387,122.2187 445.6457,122.2187 C445.1247,122.2187 444.5977,122.1757 444.0717,122.0877 L424.6497,118.8307 C424.1257,118.7427 423.5987,118.6987 423.0777,118.6987 C420.5017,118.6987 418.0087,119.7477 416.2007,121.6437 L413.7967,124.1657 C411.9467,126.1047 409.4427,127.1107 406.9157,127.1107 C405.1307,127.1107 403.3347,126.6097 401.7487,125.5807 L385.7267,115.1927 C384.0887,114.1297 382.3117,113.6477 380.5817,113.6477 C375.6347,113.6467 371.0537,117.5837 371.0537,123.1657 L371.0537,123.3147 C371.0537,125.3287 370.4137,127.2907 369.2257,128.9177 L343.4837,164.1847 C341.6107,166.7517 338.7177,168.0857 335.8007,168.0857 C333.5297,168.0857 331.2447,167.2767 329.4147,165.6127 L318.5267,155.7117 C317.4807,154.7607 316.6607,153.5887 316.1257,152.2817 L307.9197,132.2377 C306.4987,128.7667 303.1697,126.4567 299.4217,126.3387 L296.3837,126.2447 C293.6547,126.1597 291.0947,124.9047 289.3557,122.8007 L281.6677,113.5017 C277.7357,108.7447 279.3097,101.5607 284.8707,98.8837 L299.8467,91.6747 C301.8317,90.7197 303.4217,89.1057 304.3477,87.1087 L311.5007,71.6757 C312.4407,69.6477 312.6347,67.3527 312.0507,65.1947 L310.9887,61.2747 C309.8377,57.0257 311.7547,52.5437 315.6217,50.4407 L327.2887,44.0977 C328.6967,43.3317 330.2587,42.9427 331.8287,42.9427 C332.9257,42.9427 334.0247,43.1327 335.0787,43.5167 L354.1417,50.4577 C355.2047,50.8437 356.3037,51.0307 357.3917,51.0307 C360.1137,51.0307 362.7677,49.8597 364.6087,47.7127 L381.4087,28.1127 C383.1057,26.1317 385.5427,24.9367 388.1477,24.8057 L493.1767,19.5377 C493.3367,19.5297 493.4957,19.5257 493.6537,19.5257" id="Fill-11" fill="#0B567F"></path>
                <path d="M584.5991,173.765 C581.8901,173.765 579.3481,172.765 577.2471,170.874 L572.5621,166.655 C571.3091,165.528 569.8231,164.765 568.2631,164.449 L543.0101,159.341 C538.1101,158.35 534.2941,153.95 533.2901,148.132 C531.8611,139.856 536.3891,131.315 543.3851,129.093 L559.8701,123.856 C560.9801,123.504 562.1161,123.325 563.2461,123.325 C563.8421,123.325 564.4411,123.375 565.0261,123.474 L582.4261,126.421 C584.8821,126.837 587.1221,128.098 588.9051,130.067 L601.4531,143.937 C604.8931,147.739 606.1291,153.394 604.7591,159.067 C603.4561,164.467 600.0081,168.7 595.5371,170.391 L588.5801,173.023 C587.2791,173.515 585.9401,173.765 584.6001,173.765 L584.5991,173.765 Z" id="Fill-13" fill="#2BB3E2"></path>
                <g id="Group-17" transform="translate(532.000000, 121.765000)">
                    <mask id="mask-2" fill="white">
                        <use xlink:href="#path-1"></use>
                    </mask>
                    <g id="Clip-16"></g>
                    <path d="M31.2475,0.5601 C30.0135,0.5601 28.7755,0.7541 27.5675,1.1381 L11.0825,6.3741 C3.6285,8.7421 -1.2075,17.7881 0.3055,26.5381 C1.3805,32.7661 5.5055,37.4831 10.8115,38.5571 L36.0645,43.6641 C37.4695,43.9491 38.7575,44.6111 39.8925,45.6331 L44.5785,49.8521 C46.8655,51.9121 49.6395,53.0001 52.5995,53.0001 C54.0595,53.0001 55.5185,52.7281 56.9345,52.1931 L63.8925,49.5611 C68.6725,47.7531 72.3515,43.2581 73.7315,37.5361 C75.1795,31.5421 73.8565,25.5481 70.1955,21.5011 L57.6455,7.6311 C55.7125,5.4941 53.2735,4.1241 50.5935,3.6701 L33.1925,0.7231 C32.5535,0.6151 31.8975,0.5601 31.2475,0.5601 M31.2475,2.5601 C31.7875,2.5601 32.3255,2.6051 32.8585,2.6951 L50.2595,5.6421 C52.4875,6.0191 54.5365,7.1761 56.1635,8.9731 L68.7125,22.8431 C75.3935,30.2271 72.2725,44.2531 63.1845,47.6911 L56.2265,50.3231 C55.0255,50.7771 53.8035,51.0001 52.5995,51.0001 C50.1835,51.0001 47.8435,50.1011 45.9165,48.3661 L41.2305,44.1471 C39.8375,42.8931 38.2065,42.0581 36.4615,41.7041 L11.2085,36.5961 C6.6985,35.6841 3.2145,31.6271 2.2755,26.1971 C0.9315,18.4141 5.1655,10.3521 11.6875,8.2811 L28.1735,3.0441 C29.1875,2.7221 30.2215,2.5601 31.2475,2.5601" id="Fill-15" fill="#0B567F" mask="url(#mask-2)"></path>
                </g>
                <path d="M519.2983,138.9281 C518.2903,138.9281 517.2993,138.7921 516.3533,138.5231 L501.9073,134.4271 C501.0943,134.1971 500.3323,133.8731 499.6453,133.4671 L482.9883,123.6321 C480.6983,122.2781 479.4323,120.1981 479.5153,117.9241 C479.5993,115.6201 481.1133,113.5191 483.5673,112.3011 C484.9523,111.6131 486.5543,111.2491 488.1973,111.2491 C489.5093,111.2491 490.8243,111.4881 492.0023,111.9401 L522.7693,123.7361 C523.2013,123.9021 523.6173,124.0961 524.0053,124.3141 L526.4513,125.6881 C528.9213,127.0751 530.2773,129.3391 530.0773,131.7421 C529.8643,134.3111 527.9793,136.4801 525.0333,137.5441 L522.9223,138.3051 C521.7783,138.7191 520.5593,138.9281 519.2993,138.9281 L519.2983,138.9281 Z" id="Fill-18" fill="#2BB3E2"></path>
                <path d="M488.1977,110.2494 C486.4007,110.2494 484.6457,110.6494 483.1217,111.4054 C480.3347,112.7894 478.6127,115.2124 478.5147,117.8884 C478.4207,120.5014 479.9027,122.9704 482.4807,124.4924 L499.1367,134.3284 C499.8997,134.7784 500.7397,135.1364 501.6347,135.3894 L516.0807,139.4854 C517.1167,139.7794 518.1997,139.9284 519.2997,139.9284 C520.6767,139.9284 522.0097,139.6984 523.2617,139.2464 L525.3727,138.4844 C528.6967,137.2844 530.8287,134.7944 531.0747,131.8254 C531.3067,129.0204 529.7617,126.4004 526.9417,124.8164 L524.4957,123.4424 C524.0627,123.1994 523.6027,122.9844 523.1267,122.8014 L492.3607,111.0054 C491.0697,110.5114 489.6307,110.2494 488.1977,110.2494 M488.1977,112.2494 C489.3757,112.2494 490.5557,112.4564 491.6437,112.8734 L522.4107,124.6694 C522.7987,124.8174 523.1677,124.9904 523.5157,125.1864 L525.9627,126.5604 C530.6527,129.1944 529.9567,134.7034 524.6927,136.6034 L522.5827,137.3654 C521.5467,137.7394 520.4247,137.9284 519.2997,137.9284 C518.3957,137.9284 517.4897,137.8064 516.6267,137.5614 L502.1797,133.4654 C501.4517,133.2584 500.7687,132.9694 500.1537,132.6054 L483.4977,122.7704 C479.3077,120.2964 479.5697,115.4014 484.0107,113.1974 C485.2787,112.5674 486.7357,112.2494 488.1977,112.2494" id="Fill-20" fill="#0B567F"></path>
                <path d="M233.8705,116.3812 C220.2975,116.3732 208.5425,107.6382 204.6195,94.6462 C202.2585,86.8272 203.0825,78.5582 206.9415,71.3602 C210.6985,64.3512 216.8945,59.1762 224.4355,56.7302 C227.0915,38.9772 242.4765,25.6652 260.4875,25.6572 C261.0195,25.6572 261.5385,25.6912 262.0445,25.7282 C268.6195,13.5902 280.1405,5.2292 293.7515,2.7432 C296.4575,2.2502 299.2125,1.9992 301.9405,1.9992 C323.5935,1.9992 342.1665,17.3282 346.3555,38.5432 C364.0435,42.6792 376.8175,58.7172 376.8285,76.9342 C376.8285,98.6852 359.1325,116.3812 337.3815,116.3812 L233.8705,116.3812 Z" id="Fill-22" fill="#F2F2F2"></path>
                <g id="Group-26" transform="translate(202.000000, 0.765000)">
                    <mask id="mask-4" fill="white">
                        <use xlink:href="#path-3"></use>
                    </mask>
                    <g id="Clip-25"></g>
                    <path d="M99.9409,0.2344 C97.1539,0.2344 94.3369,0.4904 91.5719,0.9954 C77.8729,3.4964 66.2449,11.8224 59.4759,23.9224 C59.1539,23.9044 58.8259,23.8924 58.4879,23.8924 C40.1899,23.9004 24.5289,37.2764 21.5429,55.2094 C5.6359,60.7164 -3.2471,77.9134 1.6619,94.1704 C5.7129,107.5874 17.8529,116.6084 31.8689,116.6164 L135.3809,116.6164 C157.6839,116.6164 175.8289,98.4714 175.8289,76.1694 C175.8239,66.9594 172.6339,57.9424 166.8489,50.7784 C161.3409,43.9584 153.6959,39.0854 145.2089,36.9554 C140.6879,15.5994 121.8579,0.2344 99.9409,0.2344 M99.9409,2.2344 C120.9389,2.2344 139.5919,17.2174 143.4969,38.6094 C161.1869,42.4294 173.8179,58.0704 173.8289,76.1694 C173.8289,97.4034 156.6149,114.6164 135.3809,114.6164 L31.8709,114.6164 C18.8359,114.6084 7.3439,106.0694 3.5769,93.5914 C-1.1451,77.9554 7.7019,61.4524 23.3379,56.7304 C25.6619,39.0894 40.6949,25.9004 58.4879,25.8924 C59.2069,25.8924 59.9099,25.9574 60.6199,26.0104 C66.9509,13.9164 78.5019,5.4144 91.9309,2.9634 C94.6229,2.4714 97.2989,2.2344 99.9409,2.2344" id="Fill-24" fill="#0B567F" mask="url(#mask-4)"></path>
                </g>
                <path d="M344.9828,68.4247 L344.9828,76.4777 C344.9828,83.1617 339.5878,88.5567 332.9038,88.5567 L252.3748,88.5567 C245.6898,88.5567 240.2948,83.1617 240.2948,76.4777 L240.2948,68.4247 C240.2948,61.7407 245.6898,56.3447 252.3748,56.3447 L332.9038,56.3447 C339.5878,56.3447 344.9828,61.7407 344.9828,68.4247" id="Fill-27" fill="#F9912B"></path>
                <path d="M344.9828,68.4247 L344.9828,76.4777 C344.9828,83.1617 339.5878,88.5567 332.9038,88.5567 L252.3748,88.5567 C245.6898,88.5567 240.2948,83.1617 240.2948,76.4777 L240.2948,68.4247 C240.2948,61.7407 245.6898,56.3447 252.3748,56.3447 L332.9038,56.3447 C339.5878,56.3447 344.9828,61.7407 344.9828,68.4247 Z" id="Stroke-29" stroke="#0B567F" stroke-width="2" stroke-linecap="round"></path>
                <path d="M260.4272,77.4774 C257.6092,77.4774 255.4012,75.2694 255.4012,72.4514 C255.4012,69.6324 257.6092,67.4244 260.4272,67.4244 L292.6392,67.4244 C295.4572,67.4244 297.6652,69.6324 297.6652,72.4514 C297.6652,75.2694 295.4572,77.4774 292.6392,77.4774 L260.4272,77.4774 Z" id="Fill-31" fill="#F2F2F2"></path>
                <path d="M292.6391,66.4247 L260.4271,66.4247 C257.0481,66.4247 254.4011,69.0717 254.4011,72.4507 C254.4011,75.8307 257.0481,78.4777 260.4271,78.4777 L292.6391,78.4777 C296.0191,78.4777 298.6651,75.8307 298.6651,72.4507 C298.6651,69.0717 296.0191,66.4247 292.6391,66.4247 M292.6391,68.4247 C294.8941,68.4247 296.6651,70.1957 296.6651,72.4507 C296.6651,74.7067 294.8941,76.4777 292.6391,76.4777 L260.4271,76.4777 C258.1721,76.4777 256.4011,74.7067 256.4011,72.4507 C256.4011,70.1957 258.1721,68.4247 260.4271,68.4247 L292.6391,68.4247" id="Fill-33" fill="#0B567F"></path>
                <path d="M308.7455,77.4774 C305.9265,77.4774 303.7185,75.2694 303.7185,72.4514 C303.7185,69.6324 305.9265,67.4244 308.7455,67.4244 C311.5635,67.4244 313.7715,69.6324 313.7715,72.4514 C313.7715,75.2694 311.5635,77.4774 308.7455,77.4774" id="Fill-35" fill="#B6C4CE"></path>
                <path d="M308.7455,66.4247 C305.3655,66.4247 302.7185,69.0717 302.7185,72.4507 C302.7185,75.8307 305.3655,78.4777 308.7455,78.4777 C312.1245,78.4777 314.7715,75.8307 314.7715,72.4507 C314.7715,69.0717 312.1245,66.4247 308.7455,66.4247 M308.7455,68.4247 C311.0005,68.4247 312.7715,70.1957 312.7715,72.4507 C312.7715,74.7067 311.0005,76.4777 308.7455,76.4777 C306.4895,76.4777 304.7185,74.7067 304.7185,72.4507 C304.7185,70.1957 306.4895,68.4247 308.7455,68.4247" id="Fill-37" fill="#0B567F"></path>
                <path d="M324.851,77.4774 C322.033,77.4774 319.825,75.2694 319.825,72.4514 C319.825,69.6324 322.033,67.4244 324.851,67.4244 C327.669,67.4244 329.877,69.6324 329.877,72.4514 C329.877,75.2694 327.669,77.4774 324.851,77.4774" id="Fill-39" fill="#B6C4CE"></path>
                <path d="M324.851,66.4247 C321.472,66.4247 318.825,69.0717 318.825,72.4507 C318.825,75.8307 321.472,78.4777 324.851,78.4777 C328.23,78.4777 330.877,75.8307 330.877,72.4507 C330.877,69.0717 328.23,66.4247 324.851,66.4247 M324.851,68.4247 C327.106,68.4247 328.877,70.1957 328.877,72.4507 C328.877,74.7067 327.106,76.4777 324.851,76.4777 C322.596,76.4777 320.825,74.7067 320.825,72.4507 C320.825,70.1957 322.596,68.4247 324.851,68.4247" id="Fill-41" fill="#0B567F"></path>
                <path d="M344.9828,100.6366 L344.9828,108.6896 C344.9828,115.3736 339.5878,120.7686 332.9038,120.7686 L252.3748,120.7686 C245.6898,120.7686 240.2948,115.3736 240.2948,108.6896 L240.2948,100.6366 C240.2948,93.9516 245.6898,88.5566 252.3748,88.5566 L332.9038,88.5566 C339.5878,88.5566 344.9828,93.9516 344.9828,100.6366" id="Fill-43" fill="#F9912B"></path>
                <path d="M344.9828,100.6366 L344.9828,108.6896 C344.9828,115.3736 339.5878,120.7686 332.9038,120.7686 L252.3748,120.7686 C245.6898,120.7686 240.2948,115.3736 240.2948,108.6896 L240.2948,100.6366 C240.2948,93.9516 245.6898,88.5566 252.3748,88.5566 L332.9038,88.5566 C339.5878,88.5566 344.9828,93.9516 344.9828,100.6366 Z" id="Stroke-45" stroke="#0B567F" stroke-width="2" stroke-linecap="round"></path>
                <path d="M260.4272,109.6893 C257.6092,109.6893 255.4012,107.4813 255.4012,104.6633 C255.4012,101.8443 257.6092,99.6363 260.4272,99.6363 L292.6392,99.6363 C295.4572,99.6363 297.6652,101.8443 297.6652,104.6633 C297.6652,107.4813 295.4572,109.6893 292.6392,109.6893 L260.4272,109.6893 Z" id="Fill-47" fill="#F2F2F2"></path>
                <path d="M292.6391,98.6366 L260.4271,98.6366 C257.0481,98.6366 254.4011,101.2836 254.4011,104.6626 C254.4011,108.0426 257.0481,110.6896 260.4271,110.6896 L292.6391,110.6896 C296.0191,110.6896 298.6651,108.0426 298.6651,104.6626 C298.6651,101.2836 296.0191,98.6366 292.6391,98.6366 M292.6391,100.6366 C294.8941,100.6366 296.6651,102.4076 296.6651,104.6626 C296.6651,106.9176 294.8941,108.6896 292.6391,108.6896 L260.4271,108.6896 C258.1721,108.6896 256.4011,106.9176 256.4011,104.6626 C256.4011,102.4076 258.1721,100.6366 260.4271,100.6366 L292.6391,100.6366" id="Fill-49" fill="#0B567F"></path>
                <path d="M308.7455,109.6893 C305.9265,109.6893 303.7185,107.4813 303.7185,104.6633 C303.7185,101.8443 305.9265,99.6363 308.7455,99.6363 C311.5635,99.6363 313.7715,101.8443 313.7715,104.6633 C313.7715,107.4813 311.5635,109.6893 308.7455,109.6893" id="Fill-51" fill="#B6C4CE"></path>
                <path d="M308.7455,98.6366 C305.3655,98.6366 302.7185,101.2836 302.7185,104.6626 C302.7185,108.0426 305.3655,110.6896 308.7455,110.6896 C312.1245,110.6896 314.7715,108.0426 314.7715,104.6626 C314.7715,101.2836 312.1245,98.6366 308.7455,98.6366 M308.7455,100.6366 C311.0005,100.6366 312.7715,102.4076 312.7715,104.6626 C312.7715,106.9176 311.0005,108.6896 308.7455,108.6896 C306.4895,108.6896 304.7185,106.9176 304.7185,104.6626 C304.7185,102.4076 306.4895,100.6366 308.7455,100.6366" id="Fill-53" fill="#0B567F"></path>
                <path d="M324.851,109.6893 C322.033,109.6893 319.825,107.4813 319.825,104.6633 C319.825,101.8443 322.033,99.6363 324.851,99.6363 C327.669,99.6363 329.877,101.8443 329.877,104.6633 C329.877,107.4813 327.669,109.6893 324.851,109.6893" id="Fill-55" fill="#B6C4CE"></path>
                <path d="M324.851,98.6366 C321.472,98.6366 318.825,101.2836 318.825,104.6626 C318.825,108.0426 321.472,110.6896 324.851,110.6896 C328.23,110.6896 330.877,108.0426 330.877,104.6626 C330.877,101.2836 328.23,98.6366 324.851,98.6366 M324.851,100.6366 C327.106,100.6366 328.877,102.4076 328.877,104.6626 C328.877,106.9176 327.106,108.6896 324.851,108.6896 C322.596,108.6896 320.825,106.9176 320.825,104.6626 C320.825,102.4076 322.596,100.6366 324.851,100.6366" id="Fill-57" fill="#0B567F"></path>
                <path d="M344.9828,132.848 L344.9828,140.901 C344.9828,147.585 339.5878,152.98 332.9038,152.98 L252.3748,152.98 C245.6898,152.98 240.2948,147.585 240.2948,140.901 L240.2948,132.848 C240.2948,126.164 245.6898,120.769 252.3748,120.769 L332.9038,120.769 C339.5878,120.769 344.9828,126.164 344.9828,132.848" id="Fill-59" fill="#F9912B"></path>
                <path d="M344.9828,132.848 L344.9828,140.901 C344.9828,147.585 339.5878,152.98 332.9038,152.98 L252.3748,152.98 C245.6898,152.98 240.2948,147.585 240.2948,140.901 L240.2948,132.848 C240.2948,126.164 245.6898,120.769 252.3748,120.769 L332.9038,120.769 C339.5878,120.769 344.9828,126.164 344.9828,132.848 Z" id="Stroke-61" stroke="#0B567F" stroke-width="2" stroke-linecap="round"></path>
                <path d="M260.4272,141.9012 C257.6092,141.9012 255.4012,139.6932 255.4012,136.8752 C255.4012,134.0562 257.6092,131.8482 260.4272,131.8482 L292.6392,131.8482 C295.4572,131.8482 297.6652,134.0562 297.6652,136.8752 C297.6652,139.6932 295.4572,141.9012 292.6392,141.9012 L260.4272,141.9012 Z" id="Fill-63" fill="#F2F2F2"></path>
                <path d="M292.6391,130.848 L260.4271,130.848 C257.0481,130.848 254.4011,133.495 254.4011,136.874 C254.4011,140.254 257.0481,142.901 260.4271,142.901 L292.6391,142.901 C296.0191,142.901 298.6651,140.254 298.6651,136.874 C298.6651,133.495 296.0191,130.848 292.6391,130.848 M292.6391,132.848 C294.8941,132.848 296.6651,134.619 296.6651,136.874 C296.6651,139.13 294.8941,140.901 292.6391,140.901 L260.4271,140.901 C258.1721,140.901 256.4011,139.13 256.4011,136.874 C256.4011,134.619 258.1721,132.848 260.4271,132.848 L292.6391,132.848" id="Fill-65" fill="#0B567F"></path>
                <path d="M308.7455,141.9012 C305.9265,141.9012 303.7185,139.6932 303.7185,136.8752 C303.7185,134.0562 305.9265,131.8482 308.7455,131.8482 C311.5635,131.8482 313.7715,134.0562 313.7715,136.8752 C313.7715,139.6932 311.5635,141.9012 308.7455,141.9012" id="Fill-67" fill="#B6C4CE"></path>
                <path d="M308.7455,130.848 C305.3655,130.848 302.7185,133.495 302.7185,136.874 C302.7185,140.254 305.3655,142.901 308.7455,142.901 C312.1245,142.901 314.7715,140.254 314.7715,136.874 C314.7715,133.495 312.1245,130.848 308.7455,130.848 M308.7455,132.848 C311.0005,132.848 312.7715,134.619 312.7715,136.874 C312.7715,139.13 311.0005,140.901 308.7455,140.901 C306.4895,140.901 304.7185,139.13 304.7185,136.874 C304.7185,134.619 306.4895,132.848 308.7455,132.848" id="Fill-69" fill="#0B567F"></path>
                <path d="M324.851,141.9012 C322.033,141.9012 319.825,139.6932 319.825,136.8752 C319.825,134.0562 322.033,131.8482 324.851,131.8482 C327.669,131.8482 329.877,134.0562 329.877,136.8752 C329.877,139.6932 327.669,141.9012 324.851,141.9012" id="Fill-71" fill="#B6C4CE"></path>
                <path d="M324.851,130.848 C321.472,130.848 318.825,133.495 318.825,136.874 C318.825,140.254 321.472,142.901 324.851,142.901 C328.23,142.901 330.877,140.254 330.877,136.874 C330.877,133.495 328.23,130.848 324.851,130.848 M324.851,132.848 C327.106,132.848 328.877,134.619 328.877,136.874 C328.877,139.13 327.106,140.901 324.851,140.901 C322.596,140.901 320.825,139.13 320.825,136.874 C320.825,134.619 322.596,132.848 324.851,132.848" id="Fill-73" fill="#0B567F"></path>
                <path d="M382.1928,73.6078 L429.5258,56.3448" id="Stroke-75" stroke="#0B567F" stroke-width="4" stroke-linecap="round" stroke-linejoin="round" stroke-dasharray="0,9"></path>
                <path d="M461.3022,66.6107 L499.7202,100.6367" id="Stroke-77" stroke="#0B567F" stroke-width="4" stroke-linecap="round" stroke-linejoin="round" stroke-dasharray="0,9"></path>
                <path d="M466.8803,48.3504 L534.8803,40.2964" id="Stroke-79" stroke="#0B567F" stroke-width="4" stroke-linecap="round" stroke-linejoin="round" stroke-dasharray="0,9"></path>
                <path d="M542.8598,56.3451 L523.1928,96.2981" id="Stroke-81" stroke="#0B567F" stroke-width="4" stroke-linecap="round" stroke-linejoin="round" stroke-dasharray="0,9"></path>
                <path d="M73.7436,53.2611 L119.8016,139.7631" id="Stroke-83" stroke="#0B567F" stroke-width="4" stroke-linecap="round" stroke-linejoin="round" stroke-dasharray="0,9"></path>
                <path d="M197.0951,89.3475 L145.8601,119.9775" id="Stroke-85" stroke="#0B567F" stroke-width="4" stroke-linecap="round" stroke-linejoin="round" stroke-dasharray="0,9"></path>
                <path d="M82.2358,42.764 C80.4818,35.585 73.2398,31.188 66.0608,32.943 C58.8818,34.698 54.4858,41.939 56.2398,49.118 C57.9948,56.297 65.2368,60.694 72.4158,58.939 C79.5938,57.184 83.9908,49.943 82.2358,42.764" id="Fill-87" fill="#FFCD50"></path>
                <path d="M82.2358,42.764 C80.4818,35.585 73.2398,31.188 66.0608,32.943 C58.8818,34.698 54.4858,41.939 56.2398,49.118 C57.9948,56.297 65.2368,60.694 72.4158,58.939 C79.5938,57.184 83.9908,49.943 82.2358,42.764 Z" id="Stroke-89" stroke="#0B567F" stroke-width="2"></path>
                <path d="M13.1908,107.1009 C12.3138,103.5119 8.6928,101.3129 5.1028,102.1899 C1.5138,103.0679 -0.6842,106.6889 0.1928,110.2779 C1.0698,113.8669 4.6908,116.0659 8.2808,115.1879 C11.8698,114.3109 14.0678,110.6899 13.1908,107.1009" id="Fill-91" fill="#FFCD50"></path>
                <path d="M13.1908,107.1009 C12.3138,103.5119 8.6928,101.3129 5.1028,102.1899 C1.5138,103.0679 -0.6842,106.6889 0.1928,110.2779 C1.0698,113.8669 4.6908,116.0659 8.2808,115.1879 C11.8698,114.3109 14.0678,110.6899 13.1908,107.1009 Z" id="Stroke-93" stroke="#0B567F" stroke-width="2"></path>
                <path d="M604.1039,98.1571 C603.2269,94.5681 599.6059,92.3691 596.0169,93.2471 C592.4269,94.1241 590.2289,97.7451 591.1059,101.3341 C591.9839,104.9241 595.6049,107.1221 599.1939,106.2441 C602.7829,105.3671 604.9819,101.7461 604.1039,98.1571" id="Fill-95" fill="#FFCD50"></path>
                <path d="M604.1039,98.1571 C603.2269,94.5681 599.6059,92.3691 596.0169,93.2471 C592.4269,94.1241 590.2289,97.7451 591.1059,101.3341 C591.9839,104.9241 595.6049,107.1221 599.1939,106.2441 C602.7829,105.3671 604.9819,101.7461 604.1039,98.1571 Z" id="Stroke-97" stroke="#0B567F" stroke-width="2"></path>
                <path d="M69.2495,52.8749 C67.3325,52.8749 65.5475,52.1119 64.2225,50.7279 C62.9375,49.3849 62.2525,47.6229 62.2935,45.7649 C62.3345,43.9069 63.0965,42.1769 64.4385,40.8919 C65.7395,39.6469 67.4475,38.9619 69.2475,38.9619 C71.1645,38.9619 72.9495,39.7239 74.2745,41.1089 C75.5595,42.4519 76.2445,44.2139 76.2035,46.0719 C76.1625,47.9289 75.4005,49.6599 74.0585,50.9449 C72.7575,52.1889 71.0495,52.8749 69.2495,52.8749" id="Fill-99" fill="#F2F2F2"></path>
                <path d="M69.2475,37.9618 C67.1885,37.9618 65.2355,38.7458 63.7475,40.1698 C62.2125,41.6388 61.3405,43.6178 61.2935,45.7428 C61.2465,47.8678 62.0305,49.8828 63.4995,51.4188 C65.0155,53.0028 67.0565,53.8748 69.2495,53.8748 C71.3085,53.8748 73.2615,53.0908 74.7485,51.6678 C76.2845,50.1978 77.1555,48.2188 77.2025,46.0938 C77.2495,43.9688 76.4665,41.9538 74.9975,40.4178 C73.4815,38.8338 71.4395,37.9618 69.2475,37.9618 M69.2475,39.9618 C70.8155,39.9618 72.3825,40.5778 73.5525,41.7998 C75.8265,44.1768 75.7435,47.9478 73.3665,50.2218 C72.2125,51.3268 70.7295,51.8748 69.2495,51.8748 C67.6815,51.8748 66.1145,51.2588 64.9445,50.0368 C62.6705,47.6598 62.7535,43.8888 65.1305,41.6148 C66.2845,40.5098 67.7675,39.9618 69.2475,39.9618" id="Fill-101" fill="#0B567F"></path>
                <path d="M137.2846,135.7704 C135.5296,128.5914 128.2876,124.1944 121.1096,125.9494 C113.9306,127.7044 109.5336,134.9454 111.2886,142.1244 C113.0436,149.3034 120.2846,153.7004 127.4636,151.9454 C134.6416,150.1904 139.0396,142.9494 137.2846,135.7704" id="Fill-103" fill="#FFCD50"></path>
                <path d="M137.2846,135.7704 C135.5296,128.5914 128.2876,124.1944 121.1096,125.9494 C113.9306,127.7044 109.5336,134.9454 111.2886,142.1244 C113.0436,149.3034 120.2846,153.7004 127.4636,151.9454 C134.6416,150.1904 139.0396,142.9494 137.2846,135.7704 Z" id="Stroke-105" stroke="#0B567F" stroke-width="2"></path>
                <path d="M124.2973,145.8812 C122.3803,145.8812 120.5953,145.1182 119.2703,143.7342 C117.9853,142.3912 117.3003,140.6292 117.3423,138.7712 C117.3833,136.9132 118.1453,135.1832 119.4873,133.8982 C120.7883,132.6532 122.4963,131.9682 124.2963,131.9682 C126.2133,131.9682 127.9983,132.7302 129.3233,134.1152 C131.9753,136.8872 131.8773,141.2992 129.1063,143.9512 C127.8053,145.1952 126.0973,145.8812 124.2973,145.8812" id="Fill-107" fill="#F2F2F2"></path>
                <path d="M124.2963,130.9681 C122.2363,130.9681 120.2833,131.7521 118.7963,133.1761 C117.2603,134.6451 116.3893,136.6241 116.3423,138.7491 C116.2953,140.8741 117.0783,142.8891 118.5483,144.4251 C120.0633,146.0091 122.1053,146.8811 124.2973,146.8811 C126.3563,146.8811 128.3093,146.0971 129.7973,144.6741 C131.3323,143.2041 132.2043,141.2251 132.2513,139.1001 C132.2983,136.9751 131.5153,134.9591 130.0453,133.4241 C128.5303,131.8401 126.4883,130.9681 124.2963,130.9681 M124.2963,132.9681 C125.8643,132.9681 127.4313,133.5841 128.6013,134.8061 C130.8743,137.1831 130.7913,140.9541 128.4143,143.2281 C127.2603,144.3331 125.7773,144.8811 124.2973,144.8811 C122.7293,144.8811 121.1623,144.2651 119.9923,143.0421 C117.7183,140.6651 117.8023,136.8951 120.1793,134.6201 C121.3333,133.5161 122.8153,132.9681 124.2963,132.9681" id="Fill-109" fill="#0B567F"></path>
                <path d="M460.9164,50.0843 C459.1614,42.9053 451.9194,38.5083 444.7404,40.2633 C437.5624,42.0183 433.1654,49.2593 434.9204,56.4383 C436.6744,63.6173 443.9164,68.0143 451.0954,66.2593 C458.2734,64.5043 462.6704,57.2623 460.9164,50.0843" id="Fill-111" fill="#FFCD50"></path>
                <path d="M460.9164,50.0843 C459.1614,42.9053 451.9194,38.5083 444.7404,40.2633 C437.5624,42.0183 433.1654,49.2593 434.9204,56.4383 C436.6744,63.6173 443.9164,68.0143 451.0954,66.2593 C458.2734,64.5043 462.6704,57.2623 460.9164,50.0843 Z" id="Stroke-113" stroke="#0B567F" stroke-width="2"></path>
                <path d="M447.9291,60.1952 C446.0121,60.1952 444.2271,59.4322 442.9021,58.0482 C441.6171,56.7052 440.9321,54.9432 440.9731,53.0852 C441.0141,51.2272 441.7761,49.4962 443.1181,48.2122 C444.4191,46.9672 446.1271,46.2822 447.9271,46.2822 C449.8441,46.2822 451.6291,47.0442 452.9541,48.4292 C454.2391,49.7722 454.9241,51.5342 454.8831,53.3922 C454.8421,55.2492 454.0801,56.9802 452.7381,58.2652 C451.4371,59.5092 449.7291,60.1952 447.9291,60.1952" id="Fill-115" fill="#F2F2F2"></path>
                <path d="M447.9272,45.2816 C445.8682,45.2816 443.9152,46.0656 442.4272,47.4896 C440.8922,48.9586 440.0212,50.9376 439.9742,53.0626 C439.9272,55.1876 440.7102,57.2036 442.1792,58.7396 C443.6952,60.3226 445.7372,61.1956 447.9292,61.1956 C449.9882,61.1956 451.9412,60.4106 453.4292,58.9876 C454.9642,57.5176 455.8362,55.5386 455.8832,53.4136 C455.9302,51.2896 455.1462,49.2736 453.6772,47.7376 C452.1612,46.1546 450.1202,45.2816 447.9272,45.2816 M447.9272,47.2816 C449.4952,47.2816 451.0622,47.8976 452.2322,49.1206 C454.5062,51.4976 454.4232,55.2676 452.0462,57.5426 C450.8922,58.6466 449.4092,59.1956 447.9292,59.1956 C446.3612,59.1956 444.7942,58.5786 443.6242,57.3566 C441.3502,54.9796 441.4332,51.2086 443.8102,48.9346 C444.9642,47.8306 446.4472,47.2816 447.9272,47.2816" id="Fill-117" fill="#0B567F"></path>
                <path d="M526.102,109.0726 C524.348,101.8936 517.106,97.4966 509.927,99.2516 C502.748,101.0066 498.352,108.2476 500.106,115.4266 C501.861,122.6046 509.103,127.0016 516.282,125.2476 C523.46,123.4926 527.857,116.2506 526.102,109.0726" id="Fill-119" fill="#FFCD50"></path>
                <path d="M526.102,109.0726 C524.348,101.8936 517.106,97.4966 509.927,99.2516 C502.748,101.0066 498.352,108.2476 500.106,115.4266 C501.861,122.6046 509.103,127.0016 516.282,125.2476 C523.46,123.4926 527.857,116.2506 526.102,109.0726 Z" id="Stroke-121" stroke="#0B567F" stroke-width="2"></path>
                <path d="M513.1157,119.1835 C511.1987,119.1835 509.4137,118.4205 508.0887,117.0365 C506.8037,115.6935 506.1187,113.9315 506.1597,112.0735 C506.2007,110.2155 506.9627,108.4845 508.3047,107.2005 C509.6057,105.9555 511.3137,105.2695 513.1137,105.2695 C515.0307,105.2695 516.8157,106.0325 518.1407,107.4175 C519.4257,108.7605 520.1107,110.5225 520.0697,112.3805 C520.0287,114.2375 519.2667,115.9685 517.9247,117.2535 C516.6237,118.4975 514.9157,119.1835 513.1157,119.1835" id="Fill-123" fill="#F2F2F2"></path>
                <path d="M513.1137,104.2699 C511.0547,104.2699 509.1017,105.0539 507.6137,106.4779 C506.0787,107.9469 505.2067,109.9259 505.1597,112.0509 C505.1127,114.1759 505.8957,116.1919 507.3657,117.7279 C508.8807,119.3109 510.9237,120.1829 513.1157,120.1829 C515.1747,120.1829 517.1277,119.3989 518.6147,117.9759 C520.1507,116.5059 521.0227,114.5269 521.0697,112.4019 C521.1167,110.2779 520.3327,108.2619 518.8637,106.7259 C517.3477,105.1429 515.3057,104.2699 513.1137,104.2699 M513.1137,106.2699 C514.6817,106.2699 516.2487,106.8859 517.4187,108.1089 C519.6927,110.4859 519.6097,114.2559 517.2327,116.5309 C516.0787,117.6349 514.5957,118.1829 513.1157,118.1829 C511.5477,118.1829 509.9807,117.5669 508.8107,116.3449 C506.5367,113.9679 506.6197,110.1969 508.9967,107.9229 C510.1507,106.8189 511.6337,106.2699 513.1137,106.2699" id="Fill-125" fill="#0B567F"></path>
                <path d="M562.7621,36.7005 C561.0071,29.5215 553.7651,25.1245 546.5861,26.8795 C539.4081,28.6345 535.0111,35.8755 536.7661,43.0545 C538.5201,50.2335 545.7621,54.6305 552.9411,52.8755 C560.1191,51.1205 564.5161,43.8795 562.7621,36.7005" id="Fill-127" fill="#FFCD50"></path>
                <path d="M562.7621,36.7005 C561.0071,29.5215 553.7651,25.1245 546.5861,26.8795 C539.4081,28.6345 535.0111,35.8755 536.7661,43.0545 C538.5201,50.2335 545.7621,54.6305 552.9411,52.8755 C560.1191,51.1205 564.5161,43.8795 562.7621,36.7005 Z" id="Stroke-129" stroke="#0B567F" stroke-width="2"></path>
                <path d="M549.7748,46.8114 C547.8578,46.8114 546.0728,46.0484 544.7478,44.6644 C543.4628,43.3214 542.7778,41.5594 542.8188,39.7014 C542.8598,37.8434 543.6218,36.1124 544.9638,34.8284 C546.2648,33.5834 547.9728,32.8984 549.7728,32.8984 C551.6898,32.8984 553.4748,33.6604 554.7998,35.0454 C556.0848,36.3884 556.7698,38.1504 556.7288,40.0084 C556.6878,41.8654 555.9258,43.5964 554.5838,44.8814 C553.2828,46.1254 551.5748,46.8114 549.7748,46.8114" id="Fill-131" fill="#F2F2F2"></path>
                <path d="M549.7729,31.8983 C547.7139,31.8983 545.7609,32.6823 544.2729,34.1063 C542.7379,35.5753 541.8669,37.5543 541.8199,39.6793 C541.7729,41.8043 542.5559,43.8193 544.0249,45.3553 C545.5409,46.9393 547.5829,47.8113 549.7749,47.8113 C551.8339,47.8113 553.7869,47.0273 555.2749,45.6043 C556.8099,44.1343 557.6819,42.1553 557.7289,40.0303 C557.7759,37.9053 556.9919,35.8893 555.5229,34.3543 C554.0069,32.7703 551.9659,31.8983 549.7729,31.8983 M549.7729,33.8983 C551.3409,33.8983 552.9079,34.5143 554.0779,35.7363 C556.3519,38.1133 556.2689,41.8843 553.8919,44.1583 C552.7379,45.2633 551.2549,45.8113 549.7749,45.8113 C548.2069,45.8113 546.6399,45.1953 545.4699,43.9723 C543.1959,41.5953 543.2789,37.8253 545.6559,35.5513 C546.8099,34.4463 548.2929,33.8983 549.7729,33.8983" id="Fill-133" fill="#0B567F"></path>
                <path d="M87.1928,44.3236 L210.6928,59.3246" id="Stroke-135" stroke="#0B567F" stroke-width="4" stroke-linecap="round" stroke-linejoin="round" stroke-dasharray="0,9"></path>
            </g>
        </g>
    </g>
</svg>