<?xml version="1.0" encoding="UTF-8" standalone="no"?>
<svg width="320px" height="173px" viewBox="0 0 320 173" version="1.1" xmlns="http://www.w3.org/2000/svg" xmlns:xlink="http://www.w3.org/1999/xlink">
    <!-- Generator: Sketch 50.2 (55047) - http://www.bohemiancoding.com/sketch -->
    <title>Group</title>
    <desc>Created with Sketch.</desc>
    <defs>
        <polygon id="path-1" points="0.0005 0.771 197.9455 0.771 197.9455 122.8249 0.0005 122.8249"></polygon>
        <polygon id="path-3" points="0.714794427 0.1469 129.172536 0.1469 129.172536 147 0.714794427 147"></polygon>
    </defs>
    <g id="Page-1" stroke="none" stroke-width="1" fill="none" fill-rule="evenodd">
        <g id="optimization" transform="translate(-801.000000, -1502.000000)">
            <g id="Group" transform="translate(801.000000, 1501.000000)">
                <path d="M30.0879,122.0536 C14.0489,122.0536 0.9999,109.0036 0.9999,92.9626 C0.9999,78.6726 11.4609,66.4736 25.4749,64.2386 C26.0439,50.1766 37.5319,38.8276 51.6169,38.4436 C51.5439,37.5316 51.5069,36.6196 51.5069,35.7226 C51.5069,17.1276 66.6349,1.9996 85.2309,1.9996 C100.4269,1.9996 113.6229,12.0506 117.6959,26.5756 C120.7629,25.5756 123.9639,25.0706 127.2279,25.0706 C144.1689,25.0706 157.9509,38.8526 157.9509,55.7936 C157.9509,58.5346 157.5899,61.2476 156.8749,63.8756 L167.8589,63.8756 C183.8969,63.8756 196.9449,76.9236 196.9449,92.9626 C196.9449,109.0036 183.8969,122.0536 167.8589,122.0536 L30.0879,122.0536 Z" id="Fill-1" fill="#FFFFFF"></path>
                <g id="Group-5" transform="translate(0.000000, 0.229000)">
                    <mask id="mask-2" fill="white">
                        <use xlink:href="#path-1"></use>
                    </mask>
                    <g id="Clip-4"></g>
                    <path d="M85.2305,0.7709 C66.0845,0.7709 50.5065,16.3469 50.5065,35.4939 C50.5065,36.0789 50.5225,36.6689 50.5515,37.2629 C36.6905,38.1579 25.4855,49.2959 24.5195,63.1609 C10.4265,65.7989 0.0005,78.2239 0.0005,92.7339 C0.0005,109.3259 13.4975,122.8249 30.0885,122.8249 C30.2955,122.8249 30.5035,122.8219 30.7105,122.8169 L31.2355,122.8249 L167.8585,122.8249 C184.4485,122.8249 197.9455,109.3259 197.9455,92.7339 C197.9455,76.1439 184.4485,62.6469 167.8585,62.6469 L158.1555,62.6469 C158.6845,60.3319 158.9525,57.9589 158.9525,55.5649 C158.9525,38.0729 144.7195,23.8409 127.2275,23.8409 C124.2045,23.8409 121.2335,24.2619 118.3685,25.0939 C113.8645,10.6689 100.5325,0.7709 85.2305,0.7709 M85.2305,2.7709 C100.5965,2.7709 113.4875,13.3639 117.0035,27.6449 C120.1905,26.4779 123.6355,25.8409 127.2275,25.8409 C143.6435,25.8409 156.9525,39.1499 156.9525,55.5649 C156.9525,58.7329 156.4545,61.7849 155.5365,64.6469 L167.8585,64.6469 C183.3715,64.6469 195.9455,77.2229 195.9455,92.7339 C195.9455,108.2499 183.3715,120.8249 167.8585,120.8249 L31.2355,120.8249 L31.2355,120.7949 C30.8545,120.8149 30.4715,120.8249 30.0885,120.8249 C14.5745,120.8249 2.0005,108.2499 2.0005,92.7339 C2.0005,78.4539 12.6585,66.6629 26.4535,64.8789 C26.5755,50.6799 38.1255,39.2049 52.3545,39.2049 C52.4765,39.2049 52.5965,39.2069 52.7155,39.2089 C52.5805,37.9899 52.5065,36.7499 52.5065,35.4939 C52.5065,17.4219 67.1575,2.7709 85.2305,2.7709" id="Fill-3" fill="#0B567F" mask="url(#mask-2)"></path>
                </g>
                <path d="M290.8604,142.2118 L289.1254,149.1648 C288.4864,151.7268 285.1014,153.0848 281.5634,152.2018 C278.0254,151.3188 275.6764,148.5288 276.3154,145.9678 L278.0504,139.0148 L290.8604,142.2118 Z" id="Fill-6" fill="#0B567F"></path>
                <path d="M290.8604,142.2118 L289.1254,149.1648 C288.4864,151.7268 285.1014,153.0848 281.5634,152.2018 C278.0254,151.3188 275.6764,148.5288 276.3154,145.9678 L278.0504,139.0148 L290.8604,142.2118 Z" id="Stroke-8" stroke="#0B567F" stroke-width="2" stroke-linecap="round" stroke-linejoin="round"></path>
                <polygon id="Fill-10" fill="#0B567F" points="315.1162 17.7733 305.8182 27.7633 304.0832 34.7163 316.8922 37.9143 318.6282 30.9613"></polygon>
                <polygon id="Stroke-12" stroke="#0B567F" stroke-width="2" stroke-linecap="round" stroke-linejoin="round" points="315.1162 17.7733 305.8182 27.7633 304.0832 34.7163 316.8922 37.9143 318.6282 30.9613"></polygon>
                <polygon id="Fill-14" fill="#2BB3E2" points="304.083 34.7167 316.893 37.9137 290.86 142.2117 278.051 139.0147"></polygon>
                <polygon id="Stroke-16" stroke="#0B567F" stroke-width="2" stroke-linecap="round" stroke-linejoin="round" points="304.083 34.7167 316.893 37.9137 290.86 142.2117 278.051 139.0147"></polygon>
                <path d="M135.8105,172.2294 C135.5585,172.2294 135.3155,172.1344 135.1295,171.9614 C134.9355,171.7814 134.8215,171.5314 134.8115,171.2664 L129.7145,32.8064 C129.7055,32.5414 129.8005,32.2834 129.9815,32.0884 C130.1625,31.8944 130.4125,31.7804 130.6765,31.7704 C130.6765,31.7704 250.0635,27.3754 250.0765,27.3754 C250.6115,27.3754 251.0545,27.7994 251.0745,28.3384 L256.1705,166.7974 C256.1915,167.3494 255.7605,167.8134 255.2085,167.8334 C255.2085,167.8334 135.8235,172.2294 135.8105,172.2294" id="Fill-18" fill="#2BB3E2"></path>
                <g id="Group-22" transform="translate(128.000000, 26.229000)">
                    <mask id="mask-4" fill="white">
                        <use xlink:href="#path-3"></use>
                    </mask>
                    <g id="Clip-21"></g>
                    <path d="M122.0752,0.1469 C122.0512,0.1469 122.0262,0.1469 122.0012,0.1479 L2.6392,4.5429 C1.5362,4.5829 0.6752,5.5099 0.7162,6.6149 L5.8112,145.0739 C5.8312,145.6039 6.0602,146.1039 6.4492,146.4649 C6.8192,146.8099 7.3062,147.0009 7.8102,147.0009 C7.8352,147.0009 7.8592,146.9999 7.8842,146.9989 L127.2452,142.6049 C128.3482,142.5639 129.2112,141.6359 129.1712,140.5329 L124.0732,2.0739 C124.0542,1.5429 123.8252,1.0429 123.4362,0.6819 C123.0652,0.3369 122.5792,0.1469 122.0752,0.1469 M122.0752,2.1469 L127.1722,140.6059 L7.8102,145.0009 L2.7142,6.5409 L122.0752,2.1469" id="Fill-20" fill="#0B567F" mask="url(#mask-4)"></path>
                </g>
                <path d="M257.8027,162.8153 L139.4527,146.6983 C139.1907,146.6623 138.9517,146.5233 138.7917,146.3123 C138.6307,146.1013 138.5617,145.8353 138.5967,145.5723 L157.2927,8.2863 C157.3617,7.7843 157.7907,7.4203 158.2827,7.4203 C158.3277,7.4203 158.3727,7.4233 158.4187,7.4293 L276.7687,23.5463 C277.0317,23.5833 277.2697,23.7213 277.4297,23.9323 C277.5907,24.1433 277.6597,24.4103 277.6247,24.6723 L258.9287,161.9593 C258.8607,162.4613 258.4307,162.8243 257.9387,162.8243 C257.8937,162.8243 257.8487,162.8213 257.8027,162.8153" id="Fill-23" fill="#FFFFFF"></path>
                <path d="M158.2842,6.4208 C157.8482,6.4208 157.4232,6.5628 157.0732,6.8288 C156.6512,7.1498 156.3742,7.6258 156.3022,8.1508 L137.6062,145.4368 C137.4572,146.5308 138.2232,147.5388 139.3172,147.6888 L257.6672,163.8058 C257.7592,163.8178 257.8502,163.8238 257.9402,163.8238 C258.9252,163.8238 259.7822,163.0968 259.9192,162.0938 L278.6162,24.8078 C278.6862,24.2818 278.5472,23.7498 278.2252,23.3278 C277.9052,22.9048 277.4292,22.6278 276.9032,22.5568 L158.5542,6.4398 C158.4642,6.4268 158.3742,6.4208 158.2842,6.4208 M158.2842,8.4208 L276.6342,24.5378 L257.9372,161.8238 L139.5882,145.7068 L158.2842,8.4208" id="Fill-25" fill="#0B567F"></path>
                <path d="M234.043,142.5477 L151.198,131.2667 C149.892,131.0877 148.976,129.8837 149.153,128.5767 L155.6,81.2367 C155.778,79.9307 156.983,79.0147 158.29,79.1927 C159.596,79.3697 160.513,80.5747 160.334,81.8817 L154.21,126.8547 L234.688,137.8147 C235.994,137.9917 236.91,139.1967 236.732,140.5037 C236.555,141.8107 235.35,142.7267 234.043,142.5477" id="Fill-27" fill="#0B567F"></path>
                <path d="M163.2451,113.62 C161.9351,113.459 161.0061,112.266 161.1681,110.955 C161.2811,110.035 161.9161,109.266 162.7971,108.977 L183.0221,102.089 C183.7331,101.846 184.5181,101.952 185.1391,102.377 L192.7751,107.591 L209.6831,98.684 C210.6211,98.185 211.7751,98.367 212.5161,99.129 L231.5611,118.599 C232.5041,119.522 232.5201,121.034 231.5991,121.976 C230.6751,122.919 229.1631,122.934 228.2211,122.013 C228.1951,121.988 228.1721,121.963 228.1461,121.938 L210.3471,103.742 L193.7391,112.488 C192.9581,112.903 192.0111,112.849 191.2801,112.351 L183.4321,107.011 L164.3351,113.528 C163.9841,113.641 163.6111,113.675 163.2451,113.62" id="Fill-29" fill="#EF2648"></path>
                <path d="M214.3516,127.8124 C214.1316,127.7824 213.9176,127.7214 213.7126,127.6334 L198.4716,120.9414 L184.3506,123.5984 C183.5116,123.7584 182.6516,123.4574 182.0926,122.8084 L163.3696,100.9714 C162.5096,99.9694 162.6276,98.4614 163.6296,97.6034 C164.6316,96.7444 166.1396,96.8624 166.9986,97.8644 L184.8226,118.6504 L198.3126,116.1094 C198.7856,116.0194 199.2746,116.0744 199.7156,116.2664 L214.0476,122.5574 L229.9966,104.4954 C230.8716,103.5044 232.3786,103.4124 233.3686,104.2874 C234.3586,105.1624 234.4526,106.6684 233.5776,107.6594 L216.4736,127.0284 C215.9446,127.6284 215.1466,127.9224 214.3516,127.8124" id="Fill-31" fill="#FFA511"></path>
                <path d="M255.125,111.6669 L245.657,110.3779 C244.351,110.1989 243.435,108.9939 243.612,107.6879 C243.79,106.3819 244.995,105.4649 246.302,105.6439 L255.77,106.9329 C257.076,107.1099 257.992,108.3149 257.814,109.6219 C257.637,110.9289 256.432,111.8449 255.125,111.6669" id="Fill-33" fill="#FFA511"></path>
                <path d="M253.1904,125.869 L243.7224,124.579 C242.4164,124.401 241.5004,123.196 241.6774,121.89 C241.8564,120.583 243.0604,119.667 244.3674,119.846 L253.8354,121.135 C255.1414,121.312 256.0574,122.517 255.8794,123.824 C255.7024,125.131 254.4974,126.047 253.1904,125.869" id="Fill-35" fill="#EF2648"></path>
                <path d="M162.2715,49.9491 C160.4915,63.0221 169.6455,75.0621 182.7185,76.8431 C188.9965,77.6981 195.3575,76.0231 200.3995,72.1891 L185.9425,53.1731 L189.1655,29.5031 C176.0925,27.7221 164.0515,36.8771 162.2715,49.9491" id="Fill-37" fill="#2BB3E2"></path>
                <path d="M162.2715,49.9491 C160.4915,63.0221 169.6455,75.0621 182.7185,76.8431 C188.9965,77.6981 195.3575,76.0231 200.3995,72.1891 L185.9425,53.1731 L189.1655,29.5031 C176.0925,27.7221 164.0515,36.8771 162.2715,49.9491 Z" id="Stroke-39" stroke="#0B567F" stroke-width="2" stroke-linecap="round" stroke-linejoin="round"></path>
                <path d="M189.165,29.5028 L185.942,53.1728 L204.958,38.7148 C201.13,33.6658 195.446,30.3508 189.165,29.5028" id="Fill-41" fill="#FFCD50"></path>
                <path d="M189.165,29.5028 L185.942,53.1728 L204.958,38.7148 C201.13,33.6658 195.446,30.3508 189.165,29.5028 Z" id="Stroke-43" stroke="#0B567F" stroke-width="2" stroke-linecap="round" stroke-linejoin="round"></path>
                <path d="M204.958,38.7147 L185.942,53.1727 L200.399,72.1897 C210.901,64.2047 212.942,49.2167 204.958,38.7147" id="Fill-45" fill="#0B567F"></path>
                <path d="M204.958,38.7147 L185.942,53.1727 L200.399,72.1897 C210.901,64.2047 212.942,49.2167 204.958,38.7147 Z" id="Stroke-47" stroke="#0B567F" stroke-width="2" stroke-linecap="round" stroke-linejoin="round"></path>
                <polygon id="Fill-49" fill="#0B567F" points="256.1963 50.6854 265.6643 51.9754 265.0193 56.7084 255.5513 55.4194"></polygon>
                <polygon id="Fill-51" fill="#0B567F" points="227.793 46.8173 251.463 50.0413 250.818 54.7753 227.147 51.5513"></polygon>
                <polygon id="Fill-53" fill="#0B567F" points="248.8838 68.9774 263.0858 70.9114 262.4418 75.6454 248.2388 73.7104"></polygon>
                <polygon id="Fill-55" fill="#0B567F" points="225.2139 65.7538 244.1509 68.3318 243.5049 73.0658 224.5689 70.4868"></polygon>
                <polygon id="Fill-57" fill="#0B567F" points="240.7051 58.2196 264.3751 61.4436 263.7301 66.1766 240.0601 62.9536"></polygon>
                <polygon id="Fill-59" fill="#0B567F" points="226.5029 56.286 235.9709 57.575 235.3259 62.308 225.8579 61.019"></polygon>
                <path d="M220.0469,50.5848 C219.7379,50.5478 219.4419,50.4488 219.1699,50.2968 C218.9069,50.1208 218.6659,49.9098 218.4599,49.6698 C218.0749,49.1638 217.9089,48.5238 218.0019,47.8958 C218.0979,47.2698 218.4229,46.7038 218.9179,46.3088 C219.9839,45.5468 221.4559,45.7468 222.2779,46.7658 C222.6509,47.2788 222.8129,47.9108 222.7359,48.5398 C222.5739,49.8368 221.3909,50.7528 220.0949,50.5908 C220.0779,50.5888 220.0639,50.5868 220.0469,50.5848" id="Fill-61" fill="#FFCD50"></path>
                <path d="M220.0469,50.5848 C219.7379,50.5478 219.4419,50.4488 219.1699,50.2968 C218.9069,50.1208 218.6659,49.9098 218.4599,49.6698 C218.0749,49.1638 217.9089,48.5238 218.0019,47.8958 C218.0979,47.2698 218.4229,46.7038 218.9179,46.3088 C219.9839,45.5468 221.4559,45.7468 222.2779,46.7658 C222.6509,47.2788 222.8129,47.9108 222.7359,48.5398 C222.5739,49.8368 221.3909,50.7528 220.0949,50.5908 C220.0779,50.5888 220.0639,50.5868 220.0469,50.5848 Z" id="Stroke-63" stroke="#0B567F" stroke-width="2" stroke-linecap="round" stroke-linejoin="round"></path>
                <path d="M218.7578,60.0526 C217.4608,59.8906 216.5438,58.7066 216.7058,57.4096 C216.7478,57.0856 216.8568,56.7706 217.0248,56.4896 C217.1778,56.2166 217.3838,55.9746 217.6278,55.7766 C218.6958,55.0296 220.1588,55.2286 220.9888,56.2346 C221.1658,56.4916 221.2978,56.7806 221.3798,57.0826 C221.4738,57.3826 221.4958,57.6986 221.4458,58.0076 C221.2838,59.3046 220.1018,60.2216 218.8048,60.0586 C218.7878,60.0566 218.7748,60.0546 218.7578,60.0526" id="Fill-65" fill="#0B567F"></path>
                <path d="M218.7578,60.0526 C217.4608,59.8906 216.5438,58.7066 216.7058,57.4096 C216.7478,57.0856 216.8568,56.7706 217.0248,56.4896 C217.1778,56.2166 217.3838,55.9746 217.6278,55.7766 C218.6958,55.0296 220.1588,55.2286 220.9888,56.2346 C221.1658,56.4916 221.2978,56.7806 221.3798,57.0826 C221.4738,57.3826 221.4958,57.6986 221.4458,58.0076 C221.2838,59.3046 220.1018,60.2216 218.8048,60.0586 C218.7878,60.0566 218.7748,60.0546 218.7578,60.0526 Z" id="Stroke-67" stroke="#0B567F" stroke-width="2" stroke-linecap="round" stroke-linejoin="round"></path>
                <path d="M217.4678,69.5204 C216.1708,69.3584 215.2548,68.1754 215.4168,66.8784 C215.4188,66.8624 215.4208,66.8474 215.4238,66.8314 C215.6018,65.5244 216.8068,64.6084 218.1138,64.7864 C219.4198,64.9644 220.3358,66.1694 220.1568,67.4754 C219.9948,68.7724 218.8128,69.6894 217.5158,69.5274 C217.4988,69.5254 217.4848,69.5234 217.4678,69.5204" id="Fill-69" fill="#2BB3E2"></path>
                <path d="M217.4678,69.5204 C216.1708,69.3584 215.2548,68.1754 215.4168,66.8784 C215.4188,66.8624 215.4208,66.8474 215.4238,66.8314 C215.6018,65.5244 216.8068,64.6084 218.1138,64.7864 C219.4198,64.9644 220.3358,66.1694 220.1568,67.4754 C219.9948,68.7724 218.8128,69.6894 217.5158,69.5274 C217.4988,69.5254 217.4848,69.5234 217.4678,69.5204 Z" id="Stroke-71" stroke="#0B567F" stroke-width="2" stroke-linecap="round" stroke-linejoin="round"></path>
                <path d="M221.0078,114.663 L221.2678,114.368 C221.1438,114.429 221.0108,114.482 220.8918,114.544 L221.0078,114.663 Z" id="Fill-73" fill="#EF2648"></path>
                <path d="M228.1357,121.9481 C229.0357,122.9121 230.5477,122.9611 231.5117,122.0601 C232.4757,121.1601 232.5257,119.6471 231.6247,118.6831 C231.6017,118.6591 231.5757,118.6341 231.5507,118.6091 L227.5307,114.4981 L224.3557,118.0851 L228.1357,121.9481 Z" id="Fill-75" fill="#B20D24"></path>
                <path d="M253.835,121.1346 L244.367,119.8456 C243.061,119.6666 241.856,120.5826 241.678,121.8896 C241.5,123.1966 242.416,124.4016 243.723,124.5786 L253.19,125.8686 C254.497,126.0466 255.702,125.1306 255.88,123.8236 C256.058,122.5176 255.142,121.3126 253.835,121.1346" id="Fill-77" fill="#B20D24"></path>
                <path d="M91.082,99.328 C89.487,99.059 69.311,94.776 69.044,52.3 L91.067,48.891 L112.65,52.298 C112.394,95.382 92.671,99.101 91.082,99.328" id="Fill-79" fill="#FFCD50"></path>
                <path d="M91.0693,47.8798 L68.0403,51.4428 C68.0403,97.8418 91.0693,100.3368 91.0693,100.3368 C91.0693,100.3368 113.6533,98.3738 113.6533,51.4428 L91.0693,47.8798 Z M91.0653,49.9038 L111.6433,53.1508 C111.4813,65.8228 109.4463,82.2188 101.1153,91.8758 C96.5523,97.1648 92.0753,98.1568 91.0893,98.3178 C88.9783,97.9308 70.5603,93.3778 70.0513,53.1558 L91.0653,49.9038 Z" id="Fill-81" fill="#0B567F"></path>
                <path d="M92.0732,49.0497 L112.6502,52.2977 C112.4202,91.0617 96.4302,97.9597 92.0692,99.1177 L92.0732,49.0497 Z" id="Fill-83" fill="#F9912B"></path>
                <path d="M91.0732,47.8798 L91.0692,100.3368 C91.0692,100.3368 113.6532,98.3738 113.6532,51.4428 L91.0732,47.8798 Z M93.0732,50.2198 L111.6432,53.1508 C111.4812,65.8228 109.4462,82.2188 101.1152,91.8758 C98.0512,95.4288 95.0242,97.0428 93.0692,97.7688 L93.0732,50.2198 Z" id="Fill-85" fill="#0B567F"></path>
            </g>
        </g>
    </g>
</svg>