<?xml version="1.0" encoding="UTF-8" standalone="no"?>
<svg width="329px" height="164px" viewBox="0 0 329 164" version="1.1" xmlns="http://www.w3.org/2000/svg" xmlns:xlink="http://www.w3.org/1999/xlink">
    <!-- Generator: Sketch 50.2 (55047) - http://www.bohemiancoding.com/sketch -->
    <title>Group</title>
    <desc>Created with Sketch.</desc>
    <defs>
        <polygon id="path-1" points="0.9009 0.992 75.85 0.992 75.85 58.007 0.9009 58.007"></polygon>
    </defs>
    <g id="Page-1" stroke="none" stroke-width="1" fill="none" fill-rule="evenodd">
        <g id="optimization" transform="translate(-801.000000, -394.000000)">
            <g id="Group" transform="translate(802.000000, 394.000000)">
                <path d="M46.0632,115.1704 C30.7962,115.1704 18.3762,102.7484 18.3762,87.4804 C18.3762,73.8914 28.3142,62.2894 41.6312,60.1444 C42.1942,46.7944 53.0952,36.0224 66.4652,35.6294 C66.3982,34.7794 66.3652,33.9304 66.3652,33.0924 C66.3652,15.3974 80.7612,1.0004 98.4582,1.0004 C112.9012,1.0004 125.4472,10.5424 129.3392,24.3384 C132.2442,23.3974 135.2732,22.9214 138.3612,22.9214 C154.4862,22.9214 167.6042,36.0394 167.6042,52.1634 C167.6042,54.7524 167.2662,57.3124 166.5972,59.7934 L176.9672,59.7934 C192.2342,59.7934 204.6552,72.2134 204.6552,87.4804 C204.6552,102.7484 192.2342,115.1704 176.9672,115.1704 L46.0632,115.1704 Z" id="Fill-1" fill="#F2F2F2"></path>
                <path d="M98.4578,0.0005 C80.2098,0.0005 65.3648,14.8455 65.3648,33.0925 C65.3648,33.6185 65.3778,34.1475 65.4028,34.6805 C52.2538,35.5785 41.6328,46.1425 40.6788,59.2965 C27.2798,61.8435 17.3758,73.6715 17.3758,87.4795 C17.3758,103.2995 30.2448,116.1705 46.0628,116.1705 C46.2588,116.1705 46.4538,116.1685 46.6468,116.1635 L47.1528,116.1705 L176.9678,116.1705 C192.7858,116.1705 205.6548,103.2995 205.6548,87.4795 C205.6548,71.6615 192.7858,58.7925 176.9678,58.7925 L167.8738,58.7925 C168.3588,56.6245 168.6038,54.4035 168.6038,52.1635 C168.6038,35.4875 155.0378,21.9215 138.3618,21.9215 C135.5128,21.9215 132.7128,22.3125 130.0098,23.0885 C125.6888,9.3915 113.0068,0.0005 98.4578,0.0005 M98.4578,2.0005 C113.0588,2.0005 125.3058,12.0655 128.6468,25.6345 C131.6758,24.5255 134.9478,23.9215 138.3618,23.9215 C153.9598,23.9215 166.6038,36.5655 166.6038,52.1635 C166.6038,55.1735 166.1318,58.0735 165.2608,60.7925 L176.9678,60.7925 C191.7078,60.7925 203.6548,72.7415 203.6548,87.4795 C203.6548,102.2225 191.7078,114.1705 176.9678,114.1705 L47.1528,114.1705 L47.1528,114.1435 C46.7918,114.1615 46.4288,114.1705 46.0628,114.1705 C31.3228,114.1705 19.3758,102.2225 19.3758,87.4795 C19.3758,73.9115 29.5028,62.7085 42.6098,61.0135 C42.7258,47.5215 53.6998,36.6185 67.2208,36.6185 C67.3368,36.6185 67.4498,36.6205 67.5638,36.6225 C67.4348,35.4635 67.3648,34.2865 67.3648,33.0925 C67.3648,15.9225 81.2858,2.0005 98.4578,2.0005" id="Fill-3" fill="#0B567F"></path>
                <polygon id="Fill-5" fill="#D9E4ED" points="264.6541 93.5825 257.0081 107.6985 238.7331 97.8005 246.3791 83.6845"></polygon>
                <polygon id="Stroke-7" stroke="#0B567F" stroke-width="2" points="264.6541 93.5825 257.0081 107.6985 238.7331 97.8005 246.3791 83.6845"></polygon>
                <path d="M224.3083,28.7358 C246.5673,40.7908 254.8373,68.6078 242.7833,90.8648 C230.7273,113.1238 202.9113,121.3948 180.6533,109.3398 C158.3953,97.2838 150.1233,69.4678 162.1793,47.2098 C174.2343,24.9508 202.0503,16.6798 224.3083,28.7358 Z" id="Stroke-9" stroke="#0B567F" stroke-width="2"></path>
                <path d="M170.3445,51.6323 C160.7475,69.3523 167.3555,91.5763 185.0745,101.1743 C202.7945,110.7713 225.0195,104.1633 234.6165,86.4433 C244.2145,68.7233 237.6065,46.4983 219.8865,36.9013 C202.1665,27.3033 179.9425,33.9123 170.3445,51.6323 M239.1265,88.8853 C228.1825,109.0923 202.8395,116.6273 182.6325,105.6833 C162.4265,94.7393 154.8915,69.3973 165.8355,49.1903 C176.7805,28.9833 202.1225,21.4483 222.3285,32.3923 C242.5345,43.3363 250.0715,68.6783 239.1265,88.8853" id="Fill-11" fill="#D9E4ED"></path>
                <path d="M170.3445,51.6323 C160.7475,69.3523 167.3555,91.5763 185.0745,101.1743 C202.7945,110.7713 225.0195,104.1633 234.6165,86.4433 C244.2145,68.7233 237.6065,46.4983 219.8865,36.9013 C202.1665,27.3033 179.9425,33.9123 170.3445,51.6323 Z M239.1265,88.8853 C228.1825,109.0923 202.8395,116.6273 182.6325,105.6833 C162.4265,94.7393 154.8915,69.3973 165.8355,49.1903 C176.7805,28.9833 202.1225,21.4483 222.3285,32.3923 C242.5345,43.3363 250.0715,68.6783 239.1265,88.8853 Z" id="Stroke-13" stroke="#D8E2EB"></path>
                <path d="M166.1248,49.3467 C155.2678,69.3927 162.7428,94.5357 182.7898,105.3937 C202.8368,116.2517 227.9788,108.7747 238.8368,88.7287 C249.6938,68.6817 242.2188,43.5387 222.1718,32.6817 C202.1248,21.8237 176.9818,29.3007 166.1248,49.3467 M246.7288,93.0027 C233.5138,117.4007 202.9138,126.4987 178.5158,113.2847 C154.1178,100.0707 145.0198,69.4707 158.2328,45.0727 C171.4478,20.6747 202.0478,11.5757 226.4448,24.7897 C250.8438,38.0047 259.9418,68.6047 246.7288,93.0027" id="Fill-15" fill="#7996A5"></path>
                <path d="M166.1248,49.3467 C155.2678,69.3927 162.7428,94.5357 182.7898,105.3937 C202.8368,116.2517 227.9788,108.7747 238.8368,88.7287 C249.6938,68.6817 242.2188,43.5387 222.1718,32.6817 C202.1248,21.8237 176.9818,29.3007 166.1248,49.3467 Z M246.7288,93.0027 C233.5138,117.4007 202.9138,126.4987 178.5158,113.2847 C154.1178,100.0707 145.0198,69.4707 158.2328,45.0727 C171.4478,20.6747 202.0478,11.5757 226.4448,24.7897 C250.8438,38.0047 259.9418,68.6047 246.7288,93.0027 Z" id="Stroke-17" stroke="#0B567F" stroke-width="2"></path>
                <path d="M312.321,144.3081 C310.849,144.3081 309.406,143.9071 308.145,143.1491 L254.234,110.7191 L265.669,89.6091 L322.286,117.0421 C324.265,118.0021 325.788,119.7541 326.464,121.8491 C327.137,123.9441 326.924,126.2561 325.875,128.1901 L319.443,140.0651 C318.395,142.0011 316.576,143.4431 314.454,144.0221 C313.758,144.2121 313.042,144.3081 312.321,144.3081" id="Fill-19" fill="#B6C4CE"></path>
                <g id="Group-23" transform="translate(252.000000, 87.301000)">
                    <mask id="mask-2" fill="white">
                        <use xlink:href="#path-1"></use>
                    </mask>
                    <g id="Clip-22"></g>
                    <path d="M13.2449,0.992 L12.3339,2.673 L1.8109,22.102 L0.9009,23.783 L2.5389,24.768 L55.6299,56.705 C57.0459,57.557 58.6689,58.007 60.3209,58.007 C61.1299,58.007 61.9359,57.899 62.7179,57.686 C65.1019,57.035 67.1449,55.415 68.3229,53.241 L74.7549,41.365 C75.9329,39.191 76.1729,36.594 75.4149,34.242 C74.6569,31.888 72.9459,29.92 70.7219,28.842 L14.9649,1.825 L13.2449,0.992 Z M14.0929,3.625 L69.8489,30.642 C71.5939,31.487 72.9169,33.009 73.5109,34.854 C74.1049,36.7 73.9189,38.708 72.9969,40.412 L66.5629,52.288 C65.6409,53.993 64.0599,55.246 62.1899,55.757 C61.5749,55.924 60.9469,56.007 60.3209,56.007 C59.0429,56.007 57.7759,55.662 56.6609,54.991 L3.5689,23.054 L14.0929,3.625 Z" id="Fill-21" fill="#0B567F" mask="url(#mask-2)"></path>
                </g>
                <path d="M271.2976,93.2749 L260.3806,113.4319 C259.7656,114.5679 258.3456,114.9899 257.2086,114.3749 L251.0046,111.0149 C249.8676,110.3989 249.4456,108.9789 250.0616,107.8419 L260.9786,87.6859 C261.5936,86.5489 263.0146,86.1269 264.1506,86.7419 L270.3556,90.1029 C271.4906,90.7179 271.9136,92.1389 271.2976,93.2749" id="Fill-24" fill="#7996A5"></path>
                <path d="M271.2976,93.2749 L260.3806,113.4319 C259.7656,114.5679 258.3456,114.9899 257.2086,114.3749 L251.0046,111.0149 C249.8676,110.3989 249.4456,108.9789 250.0616,107.8419 L260.9786,87.6859 C261.5936,86.5489 263.0146,86.1269 264.1506,86.7419 L270.3556,90.1029 C271.4906,90.7179 271.9136,92.1389 271.2976,93.2749 Z" id="Stroke-26" stroke="#0B567F" stroke-width="2"></path>
                <path d="M219.7644,37.126 C237.3884,46.671 243.9384,68.697 234.3924,86.321 C224.8464,103.946 202.8214,110.495 185.1974,100.949 C167.5734,91.404 161.0234,69.378 170.5694,51.754 C180.1154,34.13 202.1404,27.581 219.7644,37.126" id="Fill-28" fill="#D9E4ED"></path>
                <path d="M219.7644,37.126 C237.3884,46.671 243.9384,68.697 234.3924,86.321 C224.8464,103.946 202.8214,110.495 185.1974,100.949 C167.5734,91.404 161.0234,69.378 170.5694,51.754 C180.1154,34.13 202.1404,27.581 219.7644,37.126 Z" id="Stroke-30" stroke="#0B567F" stroke-width="2"></path>
                <path d="M186.0847,84.9311 C177.7607,84.9311 170.2887,79.3531 167.9137,71.3661 C166.4707,66.5101 167.0037,61.3831 169.4157,56.9291 C171.8287,52.4741 175.8317,49.2261 180.6877,47.7821 C182.4527,47.2571 184.2737,46.9911 186.1007,46.9911 C194.4247,46.9911 201.8977,52.5691 204.2717,60.5561 C207.2517,70.5801 201.5217,81.1601 191.4977,84.1391 C189.7317,84.6651 187.9107,84.9311 186.0847,84.9311" id="Fill-32" fill="#F2F2F2"></path>
                <path d="M186.1013,45.9907 L186.1003,45.9907 C184.1773,45.9907 182.2603,46.2707 180.4033,46.8237 C169.8503,49.9617 163.8183,61.0987 166.9553,71.6517 C169.4553,80.0587 177.3223,85.9307 186.0843,85.9307 C188.0073,85.9307 189.9243,85.6507 191.7833,85.0977 C196.8953,83.5777 201.1083,80.1587 203.6493,75.4697 C206.1883,70.7797 206.7493,65.3827 205.2293,60.2707 C202.7303,51.8627 194.8643,45.9907 186.1013,45.9907 M186.1003,47.9907 C193.8443,47.9907 200.9933,53.0377 203.3133,60.8407 C206.1413,70.3507 200.7233,80.3527 191.2133,83.1807 C189.5043,83.6887 187.7803,83.9307 186.0843,83.9307 C178.3403,83.9307 171.1923,78.8847 168.8723,71.0817 C166.0443,61.5707 171.4613,51.5687 180.9723,48.7407 C182.6803,48.2327 184.4053,47.9907 186.1003,47.9907" id="Fill-34" fill="#0B567F"></path>
                <path d="M96.7927,149.1807 C91.0857,149.1807 86.4417,144.5377 86.4417,138.8307 C86.4417,135.9977 87.6387,133.2657 89.6887,131.3197 L71.6297,113.2627 C71.4287,113.0617 71.2427,112.8357 71.0807,112.5907 C71.0177,112.5007 70.9557,112.3857 70.8977,112.2687 C70.8037,112.1017 70.7427,111.9787 70.6867,111.8487 C70.6287,111.7047 70.5947,111.5857 70.5637,111.4667 C70.5577,111.4457 70.5407,111.3777 70.5367,111.3567 C70.5167,111.2797 70.4957,111.1777 70.4797,111.0737 C70.4157,110.7347 70.4237,110.4927 70.4297,110.2977 L70.4327,93.5727 C67.7877,92.0197 66.1707,89.2257 66.1707,86.1407 C66.1707,81.3787 70.0357,77.5047 74.7867,77.5047 C79.5757,77.5047 83.4727,81.3787 83.4727,86.1407 C83.4727,89.2557 81.9007,92.0467 79.3317,93.5717 L79.3317,108.3477 L91.9937,121.5367 L91.9937,63.7947 L87.4827,63.7947 C86.6497,63.7947 86.1427,63.0447 85.9517,62.7617 C85.5717,62.1987 85.5627,61.3287 85.7717,60.8137 L95.0307,37.9497 C95.3067,37.2587 95.9797,36.8097 96.7427,36.8097 C97.4797,36.8097 98.1677,37.2847 98.4557,37.9907 L107.6327,60.7137 C107.8037,61.0397 107.8657,61.4507 107.8657,61.7237 C107.8657,62.7027 107.1057,63.7937 106.0137,63.7937 L100.8937,63.7937 L100.8937,105.5167 L114.4187,92.2567 L114.4187,82.7677 L112.0177,82.7677 C110.9277,82.7677 110.1057,82.0287 110.1057,81.0487 L110.1057,67.4787 C110.1057,66.8417 110.5037,66.0977 111.6257,66.0977 L112.0177,66.1057 L125.5877,66.1057 L126.0057,66.0977 C126.2497,66.0977 126.8217,66.0977 127.2467,66.5237 C127.4927,66.7707 127.6287,67.1107 127.6277,67.4807 L127.6277,81.0487 C127.6277,82.1247 126.5897,82.7677 125.5867,82.7677 L123.3147,82.7677 L123.3147,94.0817 C123.3147,94.3527 123.2557,94.5847 123.2087,94.7717 L123.1697,94.9337 C123.1277,95.1437 123.0397,95.3007 122.9787,95.3967 C122.9377,95.5327 122.8977,95.6427 122.8547,95.7497 C122.8057,95.8687 122.7447,95.9797 122.6827,96.0887 C122.6617,96.1237 122.5967,96.2337 122.5717,96.2657 L122.5427,96.3047 C122.4837,96.3997 122.4227,96.4737 122.3787,96.5277 C122.2257,96.7557 122.0247,96.9407 121.8637,97.0897 L121.7517,97.1957 L100.8927,117.9107 L100.8927,129.4637 C104.5687,131.2207 106.9947,134.9037 106.9947,138.8307 C106.9947,144.5377 102.4177,149.1807 96.7927,149.1807" id="Fill-36" fill="#F9912B"></path>
                <path d="M96.7429,35.8091 C95.5689,35.8091 94.5329,36.5041 94.1009,37.5801 L84.8449,60.4391 C84.5329,61.2091 84.5299,62.4471 85.1259,63.3251 C85.3679,63.6841 86.1159,64.7941 87.4829,64.7941 L90.9939,64.7941 L90.9939,119.0511 L80.3319,107.9451 L80.3319,94.1201 C82.9139,92.3641 84.4719,89.4111 84.4719,86.1411 C84.4719,80.8281 80.1279,76.5051 74.7869,76.5051 C69.4849,76.5051 65.1709,80.8281 65.1709,86.1411 C65.1709,89.3891 66.7759,92.3461 69.4319,94.1251 L69.4319,110.1541 L69.4309,110.2671 C69.4239,110.4851 69.4129,110.8141 69.4869,111.2001 C69.4999,111.2811 69.5159,111.3921 69.5499,111.5251 L69.5549,111.5461 C69.5629,111.5931 69.5739,111.6391 69.5869,111.6851 C69.6379,111.8771 69.6819,112.0331 69.7449,112.1891 C69.7529,112.2081 69.7609,112.2271 69.7679,112.2471 C69.8399,112.4101 69.9159,112.5641 70.0029,112.7181 L70.0239,112.7571 C70.0859,112.8791 70.1609,113.0191 70.2669,113.1741 C70.4459,113.4431 70.6739,113.7221 70.9249,113.9721 L88.2879,131.3341 C86.4789,133.3921 85.4419,136.0681 85.4419,138.8301 C85.4419,145.0891 90.5339,150.1801 96.7939,150.1801 C102.9699,150.1801 107.9949,145.0891 107.9949,138.8301 C107.9949,134.7281 105.5909,130.8711 101.8929,128.8531 L101.8929,118.3281 L122.4559,97.9061 L122.5439,97.8231 C122.7079,97.6711 122.9479,97.4491 123.1599,97.1511 C123.2169,97.0821 123.2909,96.9901 123.3669,96.8721 L123.3749,96.8611 C123.4249,96.7941 123.4719,96.7241 123.5129,96.6501 L123.5379,96.6061 C123.6009,96.4971 123.6959,96.3341 123.7799,96.1271 C123.8219,96.0281 123.8609,95.9191 123.8969,95.8081 C123.9879,95.6471 124.0939,95.4181 124.1499,95.1341 C124.1589,95.0901 124.1689,95.0541 124.1789,95.0181 C124.2329,94.8031 124.3149,94.4781 124.3149,94.0821 L124.3149,83.7681 L125.5869,83.7681 C127.2919,83.7681 128.6279,82.5741 128.6279,81.0481 L128.6279,67.4781 C128.6289,66.8431 128.3889,66.2521 127.9539,65.8161 C127.2369,65.0981 126.3099,65.0981 126.0069,65.0981 C125.9189,65.0981 125.8289,65.1001 125.7389,65.1031 L125.5889,65.1061 L112.0159,65.1061 L111.8709,65.1031 C111.7859,65.1001 111.7039,65.0981 111.6249,65.0981 C109.8939,65.0981 109.1059,66.3321 109.1059,67.4781 L109.1059,81.0481 C109.1059,82.5741 110.3849,83.7681 112.0159,83.7681 L113.4189,83.7681 L113.4189,91.8361 L101.8929,103.1361 L101.8929,64.7931 L106.0009,64.7931 C107.7199,64.7931 108.8659,63.2061 108.8659,61.7241 C108.8659,61.5261 108.8409,60.8931 108.5439,60.2961 L99.3839,37.6181 C98.9419,36.5351 97.8819,35.8091 96.7429,35.8091 M96.7429,37.8091 C97.0869,37.8091 97.3989,38.0481 97.5289,38.3671 L106.7289,61.1481 C106.8169,61.2821 106.8659,61.5531 106.8659,61.7241 C106.8659,62.1921 106.4869,62.7931 106.0139,62.7931 L106.0009,62.7931 L99.8929,62.7931 L99.8929,107.8981 L115.4189,92.6761 L115.4189,81.7681 L112.0159,81.7681 C111.5459,81.7681 111.1059,81.5181 111.1059,81.0481 L111.1059,67.4781 C111.1059,67.1461 111.3279,67.0981 111.6249,67.0981 C111.7469,67.0981 111.8799,67.1061 112.0159,67.1061 L125.5889,67.1061 C125.7239,67.1061 125.8689,67.0981 126.0069,67.0981 C126.3409,67.0981 126.6289,67.1461 126.6279,67.4781 L126.6279,81.0481 C126.6279,81.5181 126.0549,81.7681 125.5869,81.7681 L122.3149,81.7681 L122.3149,94.0821 C122.3149,94.2991 122.2309,94.5221 122.1879,94.7441 C122.1709,94.8361 122.0809,94.9171 122.0539,94.9981 L122.0239,95.0931 C121.9969,95.1891 121.9659,95.2851 121.9269,95.3761 C121.8879,95.4731 121.8269,95.5691 121.7719,95.6641 L121.7079,95.7511 C121.6709,95.8251 121.5969,95.8971 121.5489,95.9651 C121.4229,96.1571 121.2009,96.3331 121.0469,96.4871 L99.8929,117.4951 L99.8929,130.1171 C103.3429,131.5061 105.9949,134.9341 105.9949,138.8301 C105.9949,143.9861 101.9479,148.1801 96.7939,148.1801 C91.6369,148.1801 87.4419,143.9861 87.4419,138.8301 C87.4419,135.9021 88.8449,133.1341 91.1609,131.3791 L72.3369,112.5561 C72.1849,112.4051 72.0419,112.2301 71.9129,112.0381 C71.8659,111.9691 71.8299,111.8961 71.7939,111.8241 L71.7459,111.7381 C71.6929,111.6441 71.6469,111.5501 71.6039,111.4511 C71.5659,111.3561 71.5439,111.2601 71.5179,111.1661 L71.4989,111.0701 C71.4729,110.9901 71.4699,110.9091 71.4519,110.8241 C71.4069,110.5941 71.4319,110.3721 71.4319,110.1541 L71.4319,92.9771 C68.8459,91.6951 67.1709,89.0701 67.1709,86.1411 C67.1709,81.9291 70.5749,78.5051 74.7869,78.5051 C78.9969,78.5051 82.4719,81.9301 82.4719,86.1411 C82.4719,89.0701 80.9199,91.6951 78.3319,92.9771 L78.3319,108.7491 L92.9939,124.0221 L92.9939,62.7941 L87.4829,62.7941 C87.2019,62.7941 86.9379,62.4361 86.7799,62.2021 C86.6219,61.9681 86.5929,61.4521 86.6979,61.1901 L95.9579,38.3251 C96.0859,38.0051 96.3969,37.8091 96.7429,37.8091" id="Fill-38" fill="#0B567F"></path>
                <path d="M165.3162,162.3008 C159.3192,162.3008 154.4592,157.4398 154.4592,151.4438 C154.4592,145.4478 159.3192,140.5868 165.3162,140.5868 C171.3122,140.5868 176.1722,145.4478 176.1722,151.4438 C176.1722,157.4398 171.3122,162.3008 165.3162,162.3008" id="Fill-40" fill="#FFCD50"></path>
                <path d="M165.3162,162.3008 C159.3192,162.3008 154.4592,157.4398 154.4592,151.4438 C154.4592,145.4478 159.3192,140.5868 165.3162,140.5868 C171.3122,140.5868 176.1722,145.4478 176.1722,151.4438 C176.1722,157.4398 171.3122,162.3008 165.3162,162.3008 Z" id="Stroke-42" stroke="#0B567F" stroke-width="2"></path>
                <path d="M7.988,37.8096 C3.577,37.8096 0,34.2326 0,29.8206 C0,25.4096 3.577,21.8326 7.988,21.8326 C12.4,21.8326 15.977,25.4096 15.977,29.8206 C15.977,34.2326 12.4,37.8096 7.988,37.8096" id="Fill-44" fill="#FFCD50"></path>
                <path d="M7.988,37.8096 C3.577,37.8096 0,34.2326 0,29.8206 C0,25.4096 3.577,21.8326 7.988,21.8326 C12.4,21.8326 15.977,25.4096 15.977,29.8206 C15.977,34.2326 12.4,37.8096 7.988,37.8096 Z" id="Stroke-46" stroke="#0B567F" stroke-width="2"></path>
            </g>
        </g>
    </g>
</svg>