<?xml version="1.0" encoding="UTF-8" standalone="no"?>
<svg width="358px" height="173px" viewBox="0 0 358 173" version="1.1" xmlns="http://www.w3.org/2000/svg" xmlns:xlink="http://www.w3.org/1999/xlink">
    <!-- Generator: Sketch 50.2 (55047) - http://www.bohemiancoding.com/sketch -->
    <title>Group</title>
    <desc>Created with Sketch.</desc>
    <defs>
        <polygon id="path-1" points="0.3506 0.3599 233.5836 0.3599 233.5836 140 0.3506 140"></polygon>
        <polygon id="path-3" points="0.3506 0.745 233.6496 0.745 233.6496 39.1526 0.3506 39.1526"></polygon>
        <polygon id="path-5" points="0.371821014 0.0991 47.966 0.0991 47.966 47.6941 0.371821014 47.6941"></polygon>
    </defs>
    <g id="Page-1" stroke="none" stroke-width="1" fill="none" fill-rule="evenodd">
        <g id="optimization" transform="translate(-279.000000, -1777.000000)">
            <g id="Group" transform="translate(280.000000, 1776.000000)">
                <path d="M99.2096,172.2545 C97.6326,172.2545 96.3506,170.9725 96.3506,169.3955 L96.3506,35.6145 C96.3506,35.0625 96.7976,34.6145 97.3506,34.6145 L326.5836,34.6145 C327.1366,34.6145 327.5836,35.0625 327.5836,35.6145 L327.5836,169.3955 C327.5836,170.9725 326.3006,172.2545 324.7246,172.2545 L99.2096,172.2545 Z" id="Fill-1" fill="#F2F2F2"></path>
                <g id="Group-5" transform="translate(95.000000, 33.255000)">
                    <mask id="mask-2" fill="white">
                        <use xlink:href="#path-1"></use>
                    </mask>
                    <g id="Clip-4"></g>
                    <path d="M231.5836,0.3599 L2.3506,0.3599 C1.2456,0.3599 0.3506,1.2559 0.3506,2.3599 L0.3506,136.1399 C0.3506,138.2679 2.0816,140.0009 4.2106,140.0009 L229.7246,140.0009 C231.8526,140.0009 233.5836,138.2679 233.5836,136.1399 L233.5836,2.3599 C233.5836,1.2559 232.6876,0.3599 231.5836,0.3599 M231.5836,2.3599 L231.5836,136.1399 C231.5836,137.1359 230.7866,138.0009 229.7246,138.0009 L4.2106,138.0009 C3.2136,138.0009 2.3506,137.2029 2.3506,136.1399 L2.3506,2.3599 L231.5836,2.3599" id="Fill-3" fill="#0B567F" mask="url(#mask-2)"></path>
                </g>
                <path d="M97.3502,38.4078 C96.7972,38.4078 96.3502,37.9608 96.3502,37.4078 L96.3502,14.6908 C96.3502,7.6928 102.0432,1.9998 109.0402,1.9998 L314.9592,1.9998 C321.9562,1.9998 327.6502,7.6928 327.6502,14.6908 L327.6502,37.4078 C327.6502,37.9608 327.2032,38.4078 326.6502,38.4078 L97.3502,38.4078 Z" id="Fill-6" fill="#2BB3E2"></path>
                <g id="Group-10" transform="translate(95.000000, 0.255000)">
                    <mask id="mask-4" fill="white">
                        <use xlink:href="#path-3"></use>
                    </mask>
                    <g id="Clip-9"></g>
                    <path d="M219.9586,0.7446 L14.0406,0.7446 C6.4916,0.7446 0.3506,6.8866 0.3506,14.4356 L0.3506,37.1526 C0.3506,38.2576 1.2456,39.1526 2.3506,39.1526 L231.6496,39.1526 C232.7546,39.1526 233.6496,38.2576 233.6496,37.1526 L233.6496,14.4356 C233.6496,6.8866 227.5086,0.7446 219.9586,0.7446 M219.9586,2.7446 C226.4016,2.7446 231.6496,7.9926 231.6496,14.4356 L231.6496,37.1526 L2.3506,37.1526 L2.3506,14.4356 C2.3506,7.9926 7.5976,2.7446 14.0406,2.7446 L219.9586,2.7446" id="Fill-8" fill="#0B567F" mask="url(#mask-4)"></path>
                </g>
                <path d="M233.3893,28.5074 L120.9313,28.5074 C116.3473,28.5074 112.6273,24.7874 112.6273,20.2034 C112.6273,15.6204 116.3473,11.9014 120.9313,11.9014 L233.3893,11.9014 C237.9723,11.9014 241.6923,15.6204 241.6923,20.2034 C241.6923,24.7874 237.9723,28.5074 233.3893,28.5074" id="Fill-11" fill="#F2F2F2"></path>
                <path d="M233.3893,28.5074 L120.9313,28.5074 C116.3473,28.5074 112.6273,24.7874 112.6273,20.2034 C112.6273,15.6204 116.3473,11.9014 120.9313,11.9014 L233.3893,11.9014 C237.9723,11.9014 241.6923,15.6204 241.6923,20.2034 C241.6923,24.7874 237.9723,28.5074 233.3893,28.5074 Z" id="Stroke-13" stroke="#0B567F" stroke-width="2" stroke-linecap="round"></path>
                <path d="M302.8697,11.8346 C307.5657,11.8346 311.3727,15.6416 311.3727,20.3366 C311.3727,25.0326 307.5657,28.8396 302.8697,28.8396 C298.1747,28.8396 294.3677,25.0326 294.3677,20.3366 C294.3677,15.6416 298.1747,11.8346 302.8697,11.8346" id="Fill-15" fill="#F2F2F2"></path>
                <path d="M302.8697,11.8346 C307.5657,11.8346 311.3727,15.6416 311.3727,20.3366 C311.3727,25.0326 307.5657,28.8396 302.8697,28.8396 C298.1747,28.8396 294.3677,25.0326 294.3677,20.3366 C294.3677,15.6416 298.1747,11.8346 302.8697,11.8346 Z" id="Stroke-17" stroke="#0B567F" stroke-width="2" stroke-linecap="round"></path>
                <path d="M278.4254,11.8346 C283.1204,11.8346 286.9274,15.6416 286.9274,20.3366 C286.9274,25.0326 283.1204,28.8396 278.4254,28.8396 C273.7294,28.8396 269.9224,25.0326 269.9224,20.3366 C269.9224,15.6416 273.7294,11.8346 278.4254,11.8346" id="Fill-19" fill="#F2F2F2"></path>
                <path d="M278.4254,11.8346 C283.1204,11.8346 286.9274,15.6416 286.9274,20.3366 C286.9274,25.0326 283.1204,28.8396 278.4254,28.8396 C273.7294,28.8396 269.9224,25.0326 269.9224,20.3366 C269.9224,15.6416 273.7294,11.8346 278.4254,11.8346 Z" id="Stroke-21" stroke="#0B567F" stroke-width="2" stroke-linecap="round"></path>
                <path d="M345.817,147.9488 C345.551,147.9488 345.297,147.8428 345.11,147.6548 L330.937,133.4348 L321.579,146.2388 C321.388,146.4998 321.087,146.6488 320.771,146.6488 C320.703,146.6488 320.634,146.6418 320.566,146.6278 C320.182,146.5478 319.88,146.2498 319.795,145.8658 L310.396,103.5708 C310.322,103.2368 310.423,102.8878 310.666,102.6468 C310.855,102.4578 311.11,102.3538 311.373,102.3538 C311.445,102.3538 311.517,102.3618 311.589,102.3778 L353.883,111.7768 C354.267,111.8628 354.565,112.1648 354.645,112.5498 C354.726,112.9328 354.574,113.3298 354.256,113.5608 L341.5,122.8718 L355.674,137.0938 C356.064,137.4838 356.064,138.1168 355.673,138.5068 L346.525,147.6558 C346.338,147.8438 346.084,147.9488 345.818,147.9488 L345.817,147.9488 Z" id="Fill-23" fill="#F9912B"></path>
                <g id="Group-27" transform="translate(309.000000, 101.255000)">
                    <mask id="mask-6" fill="white">
                        <use xlink:href="#path-5"></use>
                    </mask>
                    <g id="Clip-26"></g>
                    <path d="M2.3727,0.0991 C1.8477,0.0991 1.3377,0.3061 0.9587,0.6851 C0.4747,1.1681 0.2707,1.8661 0.4197,2.5341 L9.8187,44.8281 C9.9897,45.5941 10.5937,46.1901 11.3607,46.3511 C11.4977,46.3791 11.6357,46.3941 11.7707,46.3941 C12.4017,46.3941 13.0047,46.0951 13.3867,45.5741 L22.0547,33.7141 L35.4007,47.1051 C35.7757,47.4811 36.2847,47.6931 36.8157,47.6941 L36.8177,47.6941 C37.3477,47.6941 37.8567,47.4831 38.2317,47.1081 L47.3807,37.9591 C48.1607,37.1791 48.1617,35.9141 47.3827,35.1331 L34.0307,21.7371 L45.8457,13.1141 C46.4797,12.6501 46.7847,11.8581 46.6247,11.0891 C46.4637,10.3201 45.8667,9.7161 45.1017,9.5451 L2.8067,0.1471 C2.6617,0.1151 2.5177,0.0991 2.3727,0.0991 M2.3727,2.0991 L44.6667,11.4981 L30.9687,21.4961 L45.9667,36.5441 L36.8177,45.6941 L21.8197,30.6461 L11.7707,44.3941 L2.3727,2.0991" id="Fill-25" fill="#0B567F" mask="url(#mask-6)"></path>
                </g>
                <path d="M263.5894,153.2233 C263.5894,154.6833 262.4064,155.8663 260.9464,155.8663 L163.0534,155.8663 C161.5934,155.8663 160.4104,154.6833 160.4104,153.2233 L160.4104,73.9523 C160.4104,72.4933 161.5934,71.3103 163.0534,71.3103 L163.2774,71.3103 C164.7364,71.3103 165.9204,72.4933 165.9204,73.9523 L165.9204,147.9393 C165.9204,149.3983 167.1034,150.5813 168.5634,150.5813 L260.9464,150.5813 C262.4064,150.5813 263.5894,151.7643 263.5894,153.2233" id="Fill-28" fill="#7996A5"></path>
                <path d="M263.5894,153.2233 C263.5894,154.6833 262.4064,155.8663 260.9464,155.8663 L163.0534,155.8663 C161.5934,155.8663 160.4104,154.6833 160.4104,153.2233 L160.4104,73.9523 C160.4104,72.4933 161.5934,71.3103 163.0534,71.3103 L163.2774,71.3103 C164.7364,71.3103 165.9204,72.4933 165.9204,73.9523 L165.9204,147.9393 C165.9204,149.3983 167.1034,150.5813 168.5634,150.5813 L260.9464,150.5813 C262.4064,150.5813 263.5894,151.7643 263.5894,153.2233 Z" id="Stroke-30" stroke="#0B567F" stroke-width="2"></path>
                <path d="M177.9625,108.0416 C176.7345,108.0416 175.5805,107.5626 174.7115,106.6946 C172.9195,104.9026 172.9195,101.9866 174.7115,100.1946 L200.9425,73.9636 C201.8115,73.0956 202.9645,72.6176 204.1925,72.6176 C204.5675,72.6176 204.9435,72.6636 205.3095,72.7556 L228.9105,78.6596 C229.1165,78.7116 229.3295,78.7376 229.5415,78.7376 C230.4475,78.7376 231.3005,78.2546 231.7675,77.4766 L235.9725,70.4666 C236.7085,69.2396 236.3095,67.6416 235.0825,66.9046 L234.2855,66.4266 C232.8605,65.5696 232.0265,64.0666 232.0565,62.4056 C232.0845,60.7446 232.9695,59.2726 234.4215,58.4676 L248.6185,50.5866 C249.3165,50.1996 250.0645,50.0036 250.8445,50.0036 C252.0695,50.0036 253.2705,50.5096 254.1375,51.3916 C255.0005,52.2696 255.4655,53.4376 255.4445,54.6826 L255.1755,70.9126 C255.1335,73.4076 253.0675,75.4376 250.5715,75.4376 C249.7485,75.4376 248.9325,75.2096 248.2125,74.7766 L247.4235,74.3036 C247.0185,74.0606 246.5575,73.9316 246.0895,73.9316 C245.1675,73.9316 244.3335,74.4026 243.8595,75.1916 L236.9105,86.7696 C236.0845,88.1456 234.5745,88.9996 232.9705,88.9996 C232.5955,88.9996 232.2205,88.9536 231.8565,88.8616 L207.0285,82.6596 C206.8225,82.6086 206.6105,82.5826 206.3995,82.5826 C205.7055,82.5826 205.0545,82.8536 204.5645,83.3436 L181.2125,106.6946 C180.3435,107.5626 179.1895,108.0416 177.9625,108.0416" id="Fill-32" fill="#2BB3E2"></path>
                <path d="M250.8453,49.0035 C249.9063,49.0035 248.9683,49.2485 248.1333,49.7125 L233.9353,57.5925 C232.1673,58.5735 231.0913,60.3675 231.0563,62.3905 C231.0213,64.4125 232.0363,66.2415 233.7713,67.2825 L234.5683,67.7625 C235.3223,68.2155 235.5683,69.1975 235.1153,69.9515 L230.9093,76.9625 C230.6223,77.4405 230.0993,77.7375 229.5403,77.7375 C229.4113,77.7375 229.2813,77.7215 229.1543,77.6895 L205.5513,71.7845 C205.1073,71.6735 204.6503,71.6165 204.1933,71.6165 C202.6993,71.6165 201.2923,72.1995 200.2363,73.2565 L174.0053,99.4875 C172.9483,100.5445 172.3653,101.9495 172.3653,103.4445 C172.3653,104.9405 172.9483,106.3455 174.0053,107.4025 C175.0623,108.4595 176.4663,109.0415 177.9623,109.0415 C179.4563,109.0415 180.8633,108.4595 181.9193,107.4015 L205.2713,84.0505 C205.5723,83.7485 205.9733,83.5825 206.4003,83.5825 C206.5303,83.5825 206.6593,83.5995 206.7863,83.6305 L231.6133,89.8325 C232.0563,89.9435 232.5133,89.9995 232.9703,89.9995 C234.9233,89.9995 236.7613,88.9585 237.7673,87.2835 L244.7183,75.7065 C245.0093,75.2215 245.5223,74.9315 246.0893,74.9315 C246.3803,74.9315 246.6563,75.0085 246.9073,75.1595 L247.6973,75.6345 C248.5743,76.1595 249.5683,76.4385 250.5723,76.4385 C253.6113,76.4385 256.1243,73.9675 256.1743,70.9295 L256.4453,54.6985 C256.4703,53.1855 255.9043,51.7615 254.8513,50.6905 C253.7963,49.6185 252.3373,49.0035 250.8453,49.0035 M250.8453,51.0035 C252.7453,51.0035 254.4803,52.5445 254.4453,54.6655 L254.1753,70.8965 C254.1403,72.9745 252.4283,74.4385 250.5723,74.4385 C249.9543,74.4385 249.3203,74.2755 248.7273,73.9195 L247.9383,73.4455 C247.3593,73.0975 246.7203,72.9315 246.0893,72.9315 C244.8683,72.9315 243.6773,73.5545 243.0033,74.6775 L236.0523,86.2545 C235.3923,87.3545 234.2113,87.9995 232.9703,87.9995 C232.6803,87.9995 232.3883,87.9645 232.0973,87.8925 L207.2713,81.6905 C206.9833,81.6175 206.6903,81.5825 206.4003,81.5825 C205.4573,81.5825 204.5383,81.9535 203.8573,82.6365 L180.5053,105.9875 C179.8023,106.6905 178.8823,107.0415 177.9623,107.0415 C177.0413,107.0415 176.1203,106.6905 175.4193,105.9875 C174.0143,104.5835 174.0143,102.3065 175.4193,100.9015 L201.6503,74.6705 C202.3333,73.9875 203.2513,73.6165 204.1933,73.6165 C204.4843,73.6165 204.7773,73.6515 205.0663,73.7255 L228.6673,79.6295 C228.9583,79.7025 229.2513,79.7375 229.5403,79.7375 C230.7833,79.7375 231.9643,79.0915 232.6243,77.9905 L236.8293,70.9815 C237.8513,69.2775 237.3003,67.0695 235.5973,66.0475 L234.8003,65.5685 C232.4273,64.1435 232.4863,60.6845 234.9063,59.3415 L249.1043,51.4605 C249.6693,51.1475 250.2653,51.0035 250.8453,51.0035" id="Fill-34" fill="#0B567F"></path>
                <path d="M199.9723,142.9567 C197.7823,142.9567 195.9993,141.1747 195.9993,138.9837 L195.9993,100.8967 C195.9993,99.8357 196.4123,98.8387 197.1633,98.0877 L205.6063,89.6447 C206.3563,88.8947 207.3533,88.4817 208.4143,88.4817 C208.7383,88.4817 209.0623,88.5217 209.3763,88.6017 C211.1493,89.0427 212.3873,90.6277 212.3873,92.4547 L212.3873,138.9837 C212.3873,141.1747 210.6053,142.9567 208.4143,142.9567 L199.9723,142.9567 Z" id="Fill-36" fill="#F9912B"></path>
                <path d="M208.4146,87.4821 C207.0876,87.4821 205.8376,87.9991 204.8976,88.9381 L196.4566,97.3801 C195.5176,98.3211 194.9996,99.5691 194.9996,100.8971 L194.9996,138.9841 C194.9996,141.7261 197.2296,143.9571 199.9726,143.9571 L208.4146,143.9571 C211.1556,143.9571 213.3866,141.7261 213.3866,138.9841 L213.3866,92.4551 C213.3866,90.1681 211.8376,88.1831 209.6186,87.6301 C209.2256,87.5321 208.8196,87.4821 208.4146,87.4821 M208.4146,89.4821 C208.6536,89.4821 208.8956,89.5111 209.1346,89.5711 C210.4586,89.9011 211.3866,91.0901 211.3866,92.4551 L211.3866,138.9841 C211.3866,140.6261 210.0566,141.9571 208.4146,141.9571 L199.9726,141.9571 C198.3306,141.9571 196.9996,140.6261 196.9996,138.9841 L196.9996,100.8971 C196.9996,100.1081 197.3126,99.3521 197.8706,98.7951 L206.3116,90.3521 C206.8766,89.7891 207.6366,89.4821 208.4146,89.4821" id="Fill-38" fill="#0B567F"></path>
                <path d="M175.4185,118.7037 L175.4185,140.9027 C175.4185,141.4847 175.8905,141.9567 176.4725,141.9567 L188.7525,141.9567 C189.3345,141.9567 189.8065,141.4847 189.8065,140.9027 L189.8065,109.4017 C189.8065,108.4637 188.6715,107.9937 188.0085,108.6567 L178.7065,117.9587 C178.2955,118.3697 177.6285,118.3697 177.2175,117.9587 C176.5535,117.2947 175.4185,117.7657 175.4185,118.7037" id="Fill-40" fill="#FFCD50"></path>
                <path d="M175.4185,118.7037 L175.4185,140.9027 C175.4185,141.4847 175.8905,141.9567 176.4725,141.9567 L188.7525,141.9567 C189.3345,141.9567 189.8065,141.4847 189.8065,140.9027 L189.8065,109.4017 C189.8065,108.4637 188.6715,107.9937 188.0085,108.6567 L178.7065,117.9587 C178.2955,118.3697 177.6285,118.3697 177.2175,117.9587 C176.5535,117.2947 175.4185,117.7657 175.4185,118.7037 Z" id="Stroke-42" stroke="#0B567F" stroke-width="2" stroke-linecap="round" stroke-linejoin="round"></path>
                <path d="M242.0172,142.9567 C240.4432,142.9567 239.1622,141.6757 239.1622,140.1007 L239.1622,93.9137 C239.1622,93.3937 239.3032,92.8847 239.5702,92.4417 L245.5082,82.5467 C246.0222,81.6907 246.9602,81.1607 247.9582,81.1607 C248.4742,81.1607 248.9812,81.3007 249.4242,81.5657 L254.1622,84.4067 C255.0172,84.9207 255.5482,85.8587 255.5482,86.8557 L255.5482,140.1007 C255.5482,141.6757 254.2672,142.9567 252.6932,142.9567 L242.0172,142.9567 Z" id="Fill-44" fill="#F9912B"></path>
                <path d="M247.9586,80.1598 C246.6106,80.1598 245.3436,80.8778 244.6496,82.0328 L238.7106,91.9298 C238.3516,92.5288 238.1616,93.2148 238.1616,93.9138 L238.1616,140.0998 C238.1616,142.2258 239.8916,143.9568 242.0176,143.9568 L252.6926,143.9568 C254.8196,143.9568 256.5486,142.2258 256.5486,140.0998 L256.5486,86.8558 C256.5486,85.5098 255.8316,84.2418 254.6756,83.5498 L249.9386,80.7098 C249.3406,80.3498 248.6556,80.1598 247.9586,80.1598 M247.9586,82.1598 C248.2826,82.1598 248.6116,82.2458 248.9106,82.4248 L253.6476,85.2638 C254.2066,85.5998 254.5486,86.2038 254.5486,86.8558 L254.5486,140.0998 C254.5486,141.1258 253.7186,141.9568 252.6926,141.9568 L242.0176,141.9568 C240.9916,141.9568 240.1616,141.1258 240.1616,140.0998 L240.1616,93.9138 C240.1616,93.5768 240.2536,93.2468 240.4256,92.9588 L246.3656,83.0608 C246.7136,82.4808 247.3276,82.1598 247.9586,82.1598" id="Fill-46" fill="#0B567F"></path>
                <path d="M232.9684,137.6432 L232.9684,98.8952 C232.9684,96.9152 231.6204,95.1912 229.7004,94.7112 L223.9394,93.2712 C221.2174,92.5902 218.5804,94.6492 218.5804,97.4552 L218.5804,137.6432 C218.5804,140.0252 220.5114,141.9562 222.8934,141.9562 L228.6554,141.9562 C231.0364,141.9562 232.9684,140.0252 232.9684,137.6432" id="Fill-48" fill="#FFCD50"></path>
                <path d="M232.9684,137.6432 L232.9684,98.8952 C232.9684,96.9152 231.6204,95.1912 229.7004,94.7112 L223.9394,93.2712 C221.2174,92.5902 218.5804,94.6492 218.5804,97.4552 L218.5804,137.6432 C218.5804,140.0252 220.5114,141.9562 222.8934,141.9562 L228.6554,141.9562 C231.0364,141.9562 232.9684,140.0252 232.9684,137.6432 Z" id="Stroke-50" stroke="#0B567F" stroke-width="2" stroke-linecap="round" stroke-linejoin="round"></path>
                <path d="M21.0826,62.8473 L2.4016,62.8473 C1.0806,62.8473 -0.000400000001,61.7663 -0.000400000001,60.4453 C-0.000400000001,59.1233 1.0806,58.0423 2.4016,58.0423 L21.0826,58.0423 C22.4036,58.0423 23.4846,59.1233 23.4846,60.4453 C23.4846,61.7663 22.4036,62.8473 21.0826,62.8473" id="Fill-52" fill="#FFFFFF"></path>
                <path d="M21.0826,62.8473 L2.4016,62.8473 C1.0806,62.8473 -0.000400000001,61.7663 -0.000400000001,60.4453 C-0.000400000001,59.1233 1.0806,58.0423 2.4016,58.0423 L21.0826,58.0423 C22.4036,58.0423 23.4846,59.1233 23.4846,60.4453 C23.4846,61.7663 22.4036,62.8473 21.0826,62.8473 Z" id="Stroke-54" stroke="#FFFFFF" stroke-width="2"></path>
                <path d="M9.3404,69.7848 L9.3404,51.1038 C9.3404,49.7838 10.4214,48.7028 11.7424,48.7028 C13.0644,48.7028 14.1454,49.7838 14.1454,51.1038 L14.1454,69.7848 C14.1454,71.1058 13.0644,72.1868 11.7424,72.1868 C10.4214,72.1868 9.3404,71.1058 9.3404,69.7848" id="Fill-56" fill="#FFFFFF"></path>
                <path d="M9.3404,69.7848 L9.3404,51.1038 C9.3404,49.7838 10.4214,48.7028 11.7424,48.7028 C13.0644,48.7028 14.1454,49.7838 14.1454,51.1038 L14.1454,69.7848 C14.1454,71.1058 13.0644,72.1868 11.7424,72.1868 C10.4214,72.1868 9.3404,71.1058 9.3404,69.7848 Z" id="Stroke-58" stroke="#FFFFFF" stroke-width="2"></path>
                <path d="M61.0367,100.9147 L32.5747,100.9147 C31.2537,100.9147 30.1727,99.8337 30.1727,98.5127 L30.1727,96.5117 C30.1727,95.1897 31.2537,94.1087 32.5747,94.1087 L61.0367,94.1087 C62.3577,94.1087 63.4387,95.1897 63.4387,96.5117 L63.4387,98.5127 C63.4387,99.8337 62.3577,100.9147 61.0367,100.9147" id="Fill-60" fill="#FFFFFF"></path>
                <path d="M61.0367,100.9147 L32.5747,100.9147 C31.2537,100.9147 30.1727,99.8337 30.1727,98.5127 L30.1727,96.5117 C30.1727,95.1897 31.2537,94.1087 32.5747,94.1087 L61.0367,94.1087 C62.3577,94.1087 63.4387,95.1897 63.4387,96.5117 L63.4387,98.5127 C63.4387,99.8337 62.3577,100.9147 61.0367,100.9147 Z" id="Stroke-62" stroke="#FFFFFF"></path>
                <path d="M43.4029,111.7428 L43.4029,83.2808 C43.4029,81.9598 44.4839,80.8788 45.8049,80.8788 L47.8059,80.8788 C49.1279,80.8788 50.2089,81.9598 50.2089,83.2808 L50.2089,111.7428 C50.2089,113.0638 49.1279,114.1448 47.8059,114.1448 L45.8049,114.1448 C44.4839,114.1448 43.4029,113.0638 43.4029,111.7428" id="Fill-64" fill="#FFFFFF"></path>
                <path d="M43.4029,111.7428 L43.4029,83.2808 C43.4029,81.9598 44.4839,80.8788 45.8049,80.8788 L47.8059,80.8788 C49.1279,80.8788 50.2089,81.9598 50.2089,83.2808 L50.2089,111.7428 C50.2089,113.0638 49.1279,114.1448 47.8059,114.1448 L45.8049,114.1448 C44.4839,114.1448 43.4029,113.0638 43.4029,111.7428 Z" id="Stroke-66" stroke="#FFFFFF"></path>
            </g>
        </g>
    </g>
</svg>