<?xml version="1.0" encoding="UTF-8" standalone="no"?>
<svg width="303px" height="165px" viewBox="0 0 303 165" version="1.1" xmlns="http://www.w3.org/2000/svg" xmlns:xlink="http://www.w3.org/1999/xlink">
    <!-- Generator: Sketch 50.2 (55047) - http://www.bohemiancoding.com/sketch -->
    <title>Group</title>
    <desc>Created with Sketch.</desc>
    <defs>
        <polygon id="path-1" points="0 165 302.912 165 302.912 0.464 0 0.464"></polygon>
    </defs>
    <g id="Page-1" stroke="none" stroke-width="1" fill="none" fill-rule="evenodd">
        <g id="optimization" transform="translate(-313.000000, -1235.000000)">
            <g id="Group" transform="translate(313.000000, 1234.000000)">
                <polygon id="Fill-1" fill="#F2F2F2" points="128.35 123.641 301.912 123.641 301.912 2 128.35 2"></polygon>
                <polygon id="Stroke-2" stroke="#0B567F" stroke-width="2" stroke-linecap="round" points="128.35 123.641 301.912 123.641 301.912 2 128.35 2"></polygon>
                <polygon id="Fill-4" fill="#F9912B" points="210.146 110.672 220.116 110.672 220.116 82.748 210.146 82.748"></polygon>
                <path d="M209.146,111.672 L221.116,111.672 L221.116,81.748 L209.146,81.748 L209.146,111.672 Z M211.146,109.672 L219.116,109.672 L219.116,83.748 L211.146,83.748 L211.146,109.672 Z" id="Fill-5" fill="#0B567F"></path>
                <polygon id="Fill-6" fill="#F9912B" points="240.071 110.672 250.041 110.672 250.041 64.793 240.071 64.793"></polygon>
                <path d="M239.071,111.672 L251.041,111.672 L251.041,63.793 L239.071,63.793 L239.071,111.672 Z M241.071,109.672 L249.041,109.672 L249.041,65.793 L241.071,65.793 L241.071,109.672 Z" id="Fill-7" fill="#0B567F"></path>
                <polygon id="Fill-8" fill="#2BB3E2" points="268.995 111.672 280.965 111.672 280.965 30.876 268.995 30.876"></polygon>
                <polygon id="Stroke-9" stroke="#0B567F" stroke-width="2" stroke-linecap="round" stroke-linejoin="round" points="268.995 111.672 280.965 111.672 280.965 30.876 268.995 30.876"></polygon>
                <g id="Group-45" transform="translate(0.000000, 0.536000)">
                    <path d="M173.2372,164.9998 C171.5852,164.9998 170.2442,163.6588 170.2442,162.0078 C170.2442,161.7078 170.2892,161.4118 170.3762,161.1278 L182.3452,122.2258 C182.8312,120.6458 184.5062,119.7598 186.0862,120.2448 C187.6662,120.7288 188.5522,122.4048 188.0672,123.9848 L176.0972,162.8878 C175.7122,164.1448 174.5502,164.9998 173.2372,164.9998" id="Fill-10" fill="#163768"></path>
                    <path d="M257.0253,164.9998 C255.7123,164.9998 254.5503,164.1448 254.1653,162.8878 L242.1953,123.9848 C241.7103,122.4048 242.5963,120.7288 244.1763,120.2448 C245.7563,119.7608 247.4323,120.6458 247.9173,122.2268 L259.8863,161.1278 C260.3713,162.7078 259.4853,164.3808 257.9053,164.8688 C257.6213,164.9548 257.3253,164.9998 257.0253,164.9998" id="Fill-12" fill="#163768"></path>
                    <mask id="mask-2" fill="white">
                        <use xlink:href="#path-1"></use>
                    </mask>
                    <g id="Clip-15"></g>
                    <polygon id="Fill-14" fill="#163768" mask="url(#mask-2)" points="179.222 144.052 251.041 144.052 251.041 138.068 179.222 138.068"></polygon>
                    <polygon id="Fill-16" fill="#FFCD50" mask="url(#mask-2)" points="150.298 110.136 160.268 110.136 160.268 100.166 150.298 100.166"></polygon>
                    <path d="M149.297,111.136 L161.266,111.136 L161.266,99.166 L149.297,99.166 L149.297,111.136 Z M151.297,109.136 L159.266,109.136 L159.266,101.166 L151.297,101.166 L151.297,109.136 Z" id="Fill-17" fill="#0B567F" mask="url(#mask-2)"></path>
                    <polygon id="Fill-18" fill="#FFCD50" mask="url(#mask-2)" points="180.222 110.135 190.192 110.135 190.192 94.181 180.222 94.181"></polygon>
                    <path d="M179.221,111.135 L191.191,111.135 L191.191,93.181 L179.221,93.181 L179.221,111.135 Z M181.221,109.136 L189.191,109.136 L189.191,95.182 L181.221,95.182 L181.221,109.136 Z" id="Fill-19" fill="#0B567F" mask="url(#mask-2)"></path>
                    <path d="M146.3046,90.1883 L146.3046,85.0843 C190.5916,85.0843 232.7686,56.5993 253.7686,12.5143 L258.3776,14.7093 C236.5376,60.5613 192.5476,90.1883 146.3046,90.1883" id="Fill-20" fill="#235087" mask="url(#mask-2)"></path>
                    <path d="M261.1708,31.4798 C260.0728,31.4798 259.0978,30.7748 258.7508,29.7338 L254.5738,17.2108 L241.8908,23.5668 C240.6298,24.1968 239.0958,23.6838 238.4648,22.4228 C237.8348,21.1618 238.3478,19.6278 239.6088,18.9978 L254.9248,11.3398 C256.1828,10.7038 257.7168,11.2088 258.3528,12.4678 C258.4078,12.5808 258.4568,12.6978 258.4978,12.8178 L263.6038,28.1328 C264.0418,29.4738 263.3098,30.9158 261.9718,31.3518 C261.7118,31.4388 261.4428,31.4798 261.1708,31.4798" id="Fill-21" fill="#235087" mask="url(#mask-2)"></path>
                    <g id="Group-24" mask="url(#mask-2)">
                        <g transform="translate(2.000000, 122.000000)">
                            <path d="M0.6415,1.5262 L0.8615,22.6602 C0.9375,30.0882 20.4375,35.9162 44.4205,35.6682 C68.4025,35.4232 87.7855,29.1952 87.7065,21.7742 L87.4915,0.6372" id="Fill-22" stroke="none" fill="#F2F2F2" fill-rule="evenodd"></path>
                            <path d="M0.6415,1.5262 L0.8615,22.6602 C0.9375,30.0882 20.4375,35.9162 44.4205,35.6682 C68.4025,35.4232 87.7855,29.1952 87.7065,21.7742 L87.4915,0.6372" id="Stroke-23" stroke="#0B567F" stroke-width="2" fill="none" stroke-linecap="round"></path>
                        </g>
                    </g>
                    <g id="Group-27" mask="url(#mask-2)">
                        <g transform="translate(2.000000, 117.000000)">
                            <path d="M3.7401,1.5116 C1.7631,3.0736 0.6271,4.7626 0.6411,6.5266 C0.7211,13.9526 20.2251,19.7746 44.2081,19.5316 C68.1871,19.2866 87.5631,13.0716 87.4911,5.6376 C87.4731,3.9736 86.4311,2.4046 84.6331,0.9506" id="Fill-25" stroke="none" fill="#B6C4CE" fill-rule="evenodd"></path>
                            <path d="M3.7401,1.5116 C1.7631,3.0736 0.6271,4.7626 0.6411,6.5266 C0.7211,13.9526 20.2251,19.7746 44.2081,19.5316 C68.1871,19.2866 87.5631,13.0716 87.4911,5.6376 C87.4731,3.9736 86.4311,2.4046 84.6331,0.9506" id="Stroke-26" stroke="#0B567F" stroke-width="2" fill="none" stroke-linecap="round" stroke-linejoin="round"></path>
                        </g>
                    </g>
                    <g id="Group-30" mask="url(#mask-2)">
                        <g transform="translate(2.000000, 90.000000)">
                            <path d="M0.3192,1.7157 L0.5352,22.8517 C0.6132,30.2747 20.1092,36.1047 44.0922,35.8587 C68.0762,35.6087 87.4592,29.3927 87.3822,21.9597 L87.1622,0.8307" id="Fill-28" stroke="none" fill="#F2F2F2" fill-rule="evenodd"></path>
                            <path d="M0.3192,1.7157 L0.5352,22.8517 C0.6132,30.2747 20.1092,36.1047 44.0922,35.8587 C68.0762,35.6087 87.4592,29.3927 87.3822,21.9597 L87.1622,0.8307" id="Stroke-29" stroke="#0B567F" stroke-width="2" fill="none" stroke-linecap="round"></path>
                        </g>
                    </g>
                    <g id="Group-33" mask="url(#mask-2)">
                        <g transform="translate(2.000000, 86.000000)">
                            <path d="M3.4139,0.6991 C1.4369,2.2651 0.2989,3.9481 0.3189,5.7161 C0.3949,13.1401 19.8989,18.9661 43.8799,18.7191 C67.8639,18.4761 87.2409,12.2571 87.1619,4.8311 C87.1469,3.1611 86.1049,1.5921 84.3099,0.1381" id="Fill-31" stroke="none" fill="#B6C4CE" fill-rule="evenodd"></path>
                            <path d="M3.4139,0.6991 C1.4369,2.2651 0.2989,3.9481 0.3189,5.7161 C0.3949,13.1401 19.8989,18.9661 43.8799,18.7191 C67.8639,18.4761 87.2409,12.2571 87.1619,4.8311 C87.1469,3.1611 86.1049,1.5921 84.3099,0.1381" id="Stroke-32" stroke="#0B567F" stroke-width="2" fill="none" stroke-linecap="round" stroke-linejoin="round"></path>
                        </g>
                    </g>
                    <g id="Group-36" mask="url(#mask-2)">
                        <g transform="translate(2.000000, 59.000000)">
                            <path d="M0.0008,1.5428 L0.2148,22.6748 C0.2928,30.1028 19.7948,35.9328 43.7738,35.6808 C67.7598,35.4338 87.1358,29.2148 87.0608,21.7898 L86.8478,0.6538" id="Fill-34" stroke="none" fill="#F2F2F2" fill-rule="evenodd"></path>
                            <path d="M0.0008,1.5428 L0.2148,22.6748 C0.2928,30.1028 19.7948,35.9328 43.7738,35.6808 C67.7598,35.4338 87.1358,29.2148 87.0608,21.7898 L86.8478,0.6538" id="Stroke-35" stroke="#0B567F" stroke-width="2" fill="none" stroke-linecap="round"></path>
                        </g>
                    </g>
                    <path d="M44.1112,74.554 C19.6142,74.554 1.0812,68.535 1.0012,60.553 C0.9582,56.485 5.6862,52.719 14.3152,49.949 C22.5852,47.294 33.5802,45.767 45.2752,45.649 C45.7612,45.644 46.2502,45.642 46.7322,45.642 C71.2282,45.642 89.7632,51.661 89.8472,59.643 C89.9392,68.69 67.4062,74.325 45.5682,74.547 C45.0822,74.552 44.5932,74.554 44.1112,74.554" id="Fill-37" fill="#B6C4CE" mask="url(#mask-2)"></path>
                    <path d="M46.7342,44.6419 L46.7332,44.6419 C46.2462,44.6419 45.7562,44.6439 45.2642,44.6489 C33.4722,44.7679 22.3722,46.3119 14.0092,48.9969 C4.7962,51.9539 -0.0478,55.9539 0.0012,60.5629 C0.0462,65.0829 4.8012,68.9299 13.7522,71.6879 C21.8412,74.1819 32.6232,75.5539 44.1102,75.5539 C44.5962,75.5539 45.0882,75.5519 45.5792,75.5469 C67.6002,75.3229 90.9502,69.6699 90.8482,59.6339 C90.7992,55.1139 86.0442,51.2669 77.0932,48.5089 C69.0032,46.0149 58.2212,44.6419 46.7342,44.6419 M46.7332,46.6419 C70.0472,46.6419 88.7702,52.3789 88.8482,59.6539 C88.9222,67.0769 69.5442,73.3039 45.5582,73.5469 C45.0742,73.5519 44.5902,73.5539 44.1102,73.5539 C20.7992,73.5539 2.0732,67.8189 2.0012,60.5429 C1.9222,53.1149 21.3032,46.8909 45.2852,46.6489 C45.7692,46.6439 46.2532,46.6419 46.7332,46.6419" id="Fill-38" fill="#0B567F" mask="url(#mask-2)"></path>
                    <path d="M70.6551,148.8485 C69.0241,148.8485 67.6971,147.7355 67.6971,146.3665 L65.8821,101.6565 C65.8831,100.2325 67.2991,99.0395 69.0391,99.0395 L97.9281,99.3075 C99.6971,99.3075 101.7831,100.5465 102.4001,101.9585 L104.1381,105.9345 C104.2971,106.2975 104.6551,106.5335 105.0511,106.5345 L136.9011,106.6275 C138.6441,106.6275 140.0601,107.8195 140.0601,109.2845 L138.2471,146.3175 C138.2461,147.7355 136.9191,148.8485 135.2881,148.8485 L70.6551,148.8485 Z" id="Fill-39" fill="#F9912B" mask="url(#mask-2)"></path>
                    <path d="M69.0389,98.0399 C66.7529,98.0399 64.8839,99.6859 64.8839,101.6969 L66.6959,146.3659 C66.6959,148.2809 68.4769,149.8489 70.6549,149.8489 L135.2879,149.8489 C137.4659,149.8489 139.2469,148.2809 139.2469,146.3659 L141.0599,109.2839 C141.0599,107.2719 139.1899,105.6279 136.9039,105.6279 L105.0539,105.5339 L103.3159,101.5589 C102.5349,99.7699 100.1139,98.3079 97.9369,98.3079 L69.0389,98.0399 Z M69.0309,100.0399 L97.9369,100.3079 C99.4299,100.3079 101.0689,101.4109 101.4829,102.3589 L103.2219,106.3349 C103.5389,107.0609 104.2549,107.5309 105.0479,107.5339 L136.9039,107.6279 C138.0569,107.6279 139.0319,108.3649 139.0599,109.2469 L137.2489,146.2689 C137.2469,146.3009 137.2469,146.3329 137.2469,146.3659 C137.2469,147.1689 136.3499,147.8489 135.2879,147.8489 L70.6549,147.8489 C69.5929,147.8489 68.6959,147.1689 68.6959,146.3659 C68.6959,146.3389 68.6959,146.3109 68.6949,146.2839 L66.8839,101.6659 C66.9059,100.7829 67.8799,100.0439 69.0309,100.0399 Z" id="Fill-40" fill="#0B567F" mask="url(#mask-2)"></path>
                    <path d="M68.0526,136.4989 C67.5476,136.4989 67.1166,136.1189 67.0596,135.6099 L64.9736,117.0199 C64.9436,116.7499 65.0256,116.4779 65.1996,116.2689 C65.3746,116.0589 65.6276,115.9299 65.9006,115.9109 C65.9006,115.9109 132.7536,111.3899 132.7766,111.3899 C133.2816,111.3899 133.7116,111.7699 133.7696,112.2779 L135.8556,130.8669 C135.8856,131.1379 135.8036,131.4099 135.6286,131.6189 C135.4536,131.8289 135.2006,131.9579 134.9286,131.9769 C134.9286,131.9769 68.0746,136.4989 68.0526,136.4989" id="Fill-41" fill="#FFFFFF" mask="url(#mask-2)"></path>
                    <path d="M132.7782,110.3895 C132.7322,110.3895 132.6862,110.3905 132.6412,110.3935 L65.8332,114.9135 C65.2882,114.9515 64.7822,115.2085 64.4322,115.6275 C64.0832,116.0465 63.9202,116.5895 63.9812,117.1325 L66.0672,135.7215 C66.1802,136.7395 67.0422,137.4985 68.0512,137.4985 C68.0972,137.4985 68.1432,137.4965 68.1892,137.4935 L134.9972,132.9735 C135.5422,132.9365 136.0482,132.6785 136.3972,132.2605 C136.7472,131.8415 136.9102,131.2975 136.8482,130.7545 L134.7622,112.1665 C134.6492,111.1485 133.7882,110.3895 132.7782,110.3895 M132.7762,112.3895 L134.8622,130.9785 L68.0532,135.4985 L65.9672,116.9095 L132.7762,112.3895" id="Fill-42" fill="#0B567F" mask="url(#mask-2)"></path>
                    <path d="M69.6796,162.8651 C68.0116,162.8651 66.6026,161.8871 66.6026,160.7311 L64.7316,127.3091 C64.7336,126.1241 66.2366,125.0751 68.0146,125.0751 L100.8286,124.9911 C101.2056,124.9901 101.5516,124.7761 101.7206,124.4381 L103.5106,120.8611 C104.1436,119.5971 106.3156,118.4891 108.1586,118.4891 L137.9356,118.2481 C139.7066,118.2481 141.2096,119.2971 141.2096,120.5381 L139.3416,160.6841 C139.3406,161.8871 137.9316,162.8651 136.2636,162.8651 L69.6796,162.8651 Z" id="Fill-43" fill="#FFCD50" mask="url(#mask-2)"></path>
                    <path d="M137.9286,117.2479 L108.1576,117.4889 C105.9146,117.4889 103.4216,118.8059 102.6156,120.4139 L100.8256,123.9909 L68.0146,124.0749 C65.6606,124.0749 63.7336,125.5559 63.7336,127.3649 L65.6026,160.7309 C65.6026,162.4549 67.4366,163.8649 69.6796,163.8649 L136.2626,163.8649 C138.5066,163.8649 140.3406,162.4549 140.3406,160.7309 L142.2096,120.5379 C142.2096,118.7279 140.2826,117.2479 137.9286,117.2479 M137.9366,119.2479 C139.2996,119.2509 140.1776,119.9859 140.2076,120.5099 L138.3426,160.6389 C138.3416,160.6689 138.3406,160.6999 138.3406,160.7309 C138.3406,161.1829 137.5126,161.8649 136.2626,161.8649 L69.6796,161.8649 C68.4306,161.8649 67.6026,161.1829 67.6026,160.7309 C67.6026,160.6939 67.6006,160.6569 67.5986,160.6189 L65.7356,127.3319 C65.7736,126.8189 66.6726,126.0749 68.0206,126.0749 L100.8306,125.9909 C101.5866,125.9889 102.2766,125.5609 102.6146,124.8869 L104.4056,121.3099 C104.8256,120.4679 106.5576,119.4889 108.1736,119.4889 L137.9366,119.2479" id="Fill-44" fill="#0B567F" mask="url(#mask-2)"></path>
                </g>
            </g>
        </g>
    </g>
</svg>