<?xml version="1.0" encoding="UTF-8" standalone="no"?>
<svg width="369px" height="182px" viewBox="0 0 369 182" version="1.1" xmlns="http://www.w3.org/2000/svg" xmlns:xlink="http://www.w3.org/1999/xlink">
    <!-- Generator: Sketch 50.2 (55047) - http://www.bohemiancoding.com/sketch -->
    <title>Group</title>
    <desc>Created with Sketch.</desc>
    <defs>
        <polygon id="path-1" points="0 182 367.544554 182 367.544554 0.77987 0 0.77987"></polygon>
    </defs>
    <g id="Page-1" stroke="none" stroke-width="1" fill="none" fill-rule="evenodd">
        <g id="optimization" transform="translate(-779.000000, -956.000000)">
            <g id="Group" transform="translate(780.000000, 956.000000)">
                <g id="Group-3" transform="translate(12.000000, 75.000000)">
                    <path d="M55.3643541,0.299368 L0.45864918,45.113488" id="Fill-1" fill="#F9912B"></path>
                    <path d="M55.3643541,0.299368 L0.45864918,45.113488" id="Stroke-2" stroke="#0B567F" stroke-width="4" stroke-linecap="round" stroke-linejoin="round" stroke-dasharray="0,9"></path>
                </g>
                <g id="Group-71">
                    <path d="M23.6831683,119.243124 C23.6831683,125.524854 18.5849109,130.618124 12.2970297,130.618124 C6.00914851,130.618124 0.910891089,125.524854 0.910891089,119.243124 C0.910891089,112.961394 6.00914851,107.868124 12.2970297,107.868124 C18.5849109,107.868124 23.6831683,112.961394 23.6831683,119.243124" id="Fill-4" fill="#FFCD50"></path>
                    <path d="M23.6831683,119.243124 C23.6831683,125.524854 18.5849109,130.618124 12.2970297,130.618124 C6.00914851,130.618124 0.910891089,125.524854 0.910891089,119.243124 C0.910891089,112.961394 6.00914851,107.868124 12.2970297,107.868124 C18.5849109,107.868124 23.6831683,112.961394 23.6831683,119.243124 Z" id="Stroke-6" stroke="#0B567F" stroke-width="2"></path>
                    <g id="Group-11" transform="translate(66.495050, 74.620000)">
                        <path d="M0.280190099,0.296114 L40.3794376,19.176794" id="Fill-8" fill="#F9912B"></path>
                        <path d="M0.280190099,0.296114 L40.3794376,19.176794" id="Stroke-10" stroke="#0B567F" stroke-width="4" stroke-linecap="round" stroke-linejoin="round" stroke-dasharray="0,9"></path>
                    </g>
                    <g id="Group-15" transform="translate(291.485149, 47.320000)">
                        <path d="M63.3069307,0.387205 L0.455445545,34.079955" id="Fill-12" fill="#F9912B"></path>
                        <path d="M63.3069307,0.387205 L0.455445545,34.079955" id="Stroke-14" stroke="#0B567F" stroke-width="4" stroke-linecap="round" stroke-linejoin="round" stroke-dasharray="0,9"></path>
                    </g>
                    <path d="M366.633663,47.707205 C366.633663,54.241005 361.332277,59.537205 354.792079,59.537205 C348.251881,59.537205 342.950495,54.241005 342.950495,47.707205 C342.950495,41.173405 348.251881,35.877205 354.792079,35.877205 C361.332277,35.877205 366.633663,41.173405 366.633663,47.707205" id="Fill-16" fill="#FFCD50"></path>
                    <path d="M366.633663,47.707205 C366.633663,54.241005 361.332277,59.537205 354.792079,59.537205 C348.251881,59.537205 342.950495,54.241005 342.950495,47.707205 C342.950495,41.173405 348.251881,35.877205 354.792079,35.877205 C361.332277,35.877205 366.633663,41.173405 366.633663,47.707205 Z" id="Stroke-18" stroke="#0B567F" stroke-width="2"></path>
                    <path d="M75.7960673,74.916114 C75.7960673,79.893814 71.7571762,83.928754 66.7755129,83.928754 C61.7929386,83.928754 57.7531366,79.893814 57.7531366,74.916114 C57.7531366,69.938414 61.7929386,65.903474 66.7755129,65.903474 C71.7571762,65.903474 75.7960673,69.938414 75.7960673,74.916114" id="Fill-20" fill="#FFCD50"></path>
                    <path d="M75.7960673,74.916114 C75.7960673,79.893814 71.7571762,83.928754 66.7755129,83.928754 C61.7929386,83.928754 57.7531366,79.893814 57.7531366,74.916114 C57.7531366,69.938414 61.7929386,65.903474 66.7755129,65.903474 C71.7571762,65.903474 75.7960673,69.938414 75.7960673,74.916114 Z" id="Stroke-22" stroke="#0B567F" stroke-width="2"></path>
                    <mask id="mask-2" fill="white">
                        <use xlink:href="#path-1"></use>
                    </mask>
                    <g id="Clip-25"></g>
                    <polygon id="Fill-24" fill="#7996A5" mask="url(#mask-2)" points="173.095723 173.21577 214.920198 173.21577 214.920198 141.8781 173.095723 141.8781"></polygon>
                    <polygon id="Stroke-26" stroke="#0B567F" stroke-width="2" mask="url(#mask-2)" points="173.095723 173.21577 214.920198 173.21577 214.920198 141.8781 173.095723 141.8781"></polygon>
                    <path d="M106.874032,149.752057 C102.905279,149.752057 99.1760911,148.209607 96.3714574,145.407717 C93.565002,142.604917 92.0201307,138.877557 92.0219525,134.913597 L92.0219525,16.527147 C92.0201307,12.564097 93.565002,8.836737 96.3714574,6.033937 C99.1742693,3.232957 102.903457,1.689597 106.868566,1.689597 L281.142982,1.689597 C285.113556,1.689597 288.842745,3.232047 291.647378,6.033937 C294.452923,8.836737 295.996883,12.564097 295.995972,16.528057 L295.995972,134.914507 C295.996883,138.877557 294.452923,142.604007 291.647378,145.407717 C288.841834,148.209607 285.112646,149.752057 281.146626,149.752057 L106.874032,149.752057 Z" id="Fill-27" fill="#B6C4CE" mask="url(#mask-2)"></path>
                    <path d="M281.14863,0.779597 L281.143164,0.779597 L218.406451,0.779597 L106.874214,0.779597 C102.660432,0.779597 98.7026099,2.416687 95.7267287,5.390567 C92.7490257,8.366267 91.1094218,12.322037 91.1103327,16.528057 L91.1103327,134.914507 C91.1094218,139.119617 92.7490257,143.075387 95.7267287,146.051087 C98.7035208,149.024057 102.660432,150.662057 106.869659,150.662057 L281.143164,150.662057 C285.356036,150.662057 289.314768,149.024057 292.29065,146.051087 C295.269263,143.075387 296.907956,139.120527 296.906135,134.913597 L296.906135,16.527147 C296.907956,12.321127 295.269263,8.365357 292.29065,5.390567 C289.314768,2.416687 285.356947,0.779597 281.14863,0.779597 M281.147719,2.599597 C284.845026,2.599597 288.388392,4.066517 291.00265,6.677307 C293.616907,9.289917 295.086174,12.832547 295.084352,16.527147 L295.084352,134.914507 C295.086174,138.608197 293.616907,142.151737 291.00265,144.764347 C288.388392,147.375137 284.844115,148.842057 281.147719,148.842057 L281.143164,148.842057 L106.874214,148.842057 L106.869659,148.842057 C103.172352,148.842057 99.6289861,147.375137 97.0156396,144.764347 C94.3995604,142.151737 92.931204,138.608197 92.9321149,134.914507 L92.9321149,16.527147 C92.931204,12.832547 94.3995604,9.289917 97.0156396,6.677307 C99.6289861,4.066517 103.173263,2.599597 106.869659,2.599597 L106.874214,2.599597 L218.406451,2.599597 L281.143164,2.599597 L281.147719,2.599597" id="Fill-28" fill="#0B567F" mask="url(#mask-2)"></path>
                    <path d="M144.302364,181.090182 L144.302364,180.180182 C144.302364,171.998372 150.964622,165.341722 159.155354,165.341722 L228.862206,165.341722 C237.052028,165.341722 243.715196,171.998372 243.715196,180.180182 L243.715196,181.090182 L144.302364,181.090182 Z" id="Fill-29" fill="#B6C4CE" mask="url(#mask-2)"></path>
                    <path d="M228.863208,164.432086 L159.155446,164.432086 C150.462812,164.432086 143.391564,171.496416 143.391564,180.180546 L143.391564,182.000546 L145.213347,182.000546 L242.804396,182.000546 L244.626178,182.000546 L244.626178,180.180546 C244.626178,171.496416 237.55402,164.432086 228.863208,164.432086 M228.863208,166.252086 C236.562059,166.252086 242.804396,172.488316 242.804396,180.180546 L145.213347,180.180546 C145.213347,172.488316 151.455683,166.252086 159.155446,166.252086 L228.863208,166.252086" id="Fill-30" fill="#0B567F" mask="url(#mask-2)"></path>
                    <path d="M274.172844,16.527329 L214.9212,16.527329 L113.845081,16.527329 C110.00021,16.538249 106.885873,19.434779 106.874943,23.011079 L106.874943,120.271879 C106.885873,123.848179 110.00021,126.744709 113.845081,126.755629 L214.9212,126.755629 L274.172844,126.755629 C278.018626,126.744709 281.132051,123.848179 281.142982,120.271879 L281.142982,71.641479 L281.142982,23.011079 C281.132051,19.434779 278.017715,16.538249 274.172844,16.527329" id="Fill-31" fill="#0B567F" mask="url(#mask-2)"></path>
                    <path d="M274.172844,16.527329 L214.9212,16.527329 L113.845081,16.527329 C110.00021,16.538249 106.885873,19.434779 106.874943,23.011079 L106.874943,120.271879 C106.885873,123.848179 110.00021,126.744709 113.845081,126.755629 L214.9212,126.755629 L274.172844,126.755629 C278.018626,126.744709 281.132051,123.848179 281.142982,120.271879 L281.142982,71.641479 L281.142982,23.011079 C281.132051,19.434779 278.017715,16.538249 274.172844,16.527329 Z" id="Stroke-32" stroke="#0B567F" mask="url(#mask-2)"></path>
                    <path d="M193.34638,145.336737 C189.365786,145.336737 186.126657,142.100777 186.126657,138.124077 C186.126657,134.147377 189.365786,130.911417 193.34638,130.911417 C197.326974,130.911417 200.566103,134.147377 200.566103,138.124077 C200.566103,142.100777 197.326974,145.336737 193.34638,145.336737" id="Fill-33" fill="#FFFFFF" mask="url(#mask-2)"></path>
                    <path d="M193.347291,130.001781 C188.863885,130.001781 185.216677,133.645421 185.216677,138.124441 C185.216677,142.603461 188.863885,146.247101 193.347291,146.247101 C197.830697,146.247101 201.477905,142.603461 201.477905,138.124441 C201.477905,133.645421 197.830697,130.001781 193.347291,130.001781 M193.347291,131.821781 C196.830539,131.821781 199.656123,134.643691 199.656123,138.124441 C199.656123,141.605191 196.830539,144.427101 193.347291,144.427101 C189.862222,144.427101 187.038459,141.605191 187.038459,138.124441 C187.038459,134.643691 189.862222,131.821781 193.347291,131.821781" id="Fill-34" fill="#456877" mask="url(#mask-2)"></path>
                    <g id="Group-37" mask="url(#mask-2)">
                        <g transform="translate(123.881188, 35.490000)">
                            <path d="M69.7382772,35.073402 C69.7382772,54.229812 54.1939208,69.759872 35.0178416,69.759872 C15.8426733,69.759872 0.298316832,54.230722 0.298316832,35.073402 C0.298316832,15.916992 15.8426733,0.386932 35.0178416,0.386932 C54.1939208,0.386932 69.7382772,15.916992 69.7382772,35.073402" id="Fill-35" stroke="none" fill="#F9912B" fill-rule="evenodd"></path>
                            <path d="M69.7382772,35.073402 C69.7382772,54.229812 54.1939208,69.759872 35.0178416,69.759872 C15.8426733,69.759872 0.298316832,54.230722 0.298316832,35.073402 C0.298316832,15.916992 15.8426733,0.386932 35.0178416,0.386932 C54.1939208,0.386932 69.7382772,15.916992 69.7382772,35.073402" id="Stroke-36" stroke="#0B567F" stroke-width="2" fill="none" stroke-linecap="round" stroke-linejoin="round"></path>
                        </g>
                    </g>
                    <g id="Group-40" mask="url(#mask-2)">
                        <g transform="translate(156.673267, 35.490000)">
                            <path d="M0.618221782,0.424151 C0.600914851,0.440531 0.591805941,0.454181 0.570855446,0.470561 L0.570855446,36.603021 C0.570855446,36.672181 0.627330693,36.725871 0.693825743,36.725871 L36.8616673,36.725871 C36.8789743,36.709491 36.8917267,36.699481 36.9090337,36.679461 C37.8317663,16.254511 21.0622614,-0.497679 0.618221782,0.424151" id="Fill-38" stroke="none" fill="#FFCD50" fill-rule="evenodd"></path>
                            <path d="M0.618221782,0.424151 C0.600914851,0.440531 0.591805941,0.454181 0.570855446,0.470561 L0.570855446,36.603021 C0.570855446,36.672181 0.627330693,36.725871 0.693825743,36.725871 L36.8616673,36.725871 C36.8789743,36.709491 36.8917267,36.699481 36.9090337,36.679461 C37.8317663,16.254511 21.0622614,-0.497679 0.618221782,0.424151" id="Stroke-39" stroke="#0B567F" stroke-width="2" fill="none"></path>
                        </g>
                    </g>
                    <g id="Group-43" mask="url(#mask-2)">
                        <g transform="translate(204.950495, 93.730000)">
                            <path d="M4.11950495,15.562638 C2.27221782,15.562638 0.778356436,14.173978 0.778356436,12.463178 L0.778356436,3.165708 C0.778356436,1.454908 2.27221782,0.066248 4.11950495,0.066248 C5.96679208,0.066248 7.46065347,1.454908 7.46065347,3.165708 L7.46065347,12.463178 C7.46065347,14.174888 5.96679208,15.562638 4.11950495,15.562638" id="Fill-41" stroke="none" fill="#2BB3E2" fill-rule="evenodd"></path>
                            <path d="M4.11950495,15.562638 C2.27221782,15.562638 0.778356436,14.173978 0.778356436,12.463178 L0.778356436,3.165708 C0.778356436,1.454908 2.27221782,0.066248 4.11950495,0.066248 C5.96679208,0.066248 7.46065347,1.454908 7.46065347,3.165708 L7.46065347,12.463178 C7.46065347,14.174888 5.96679208,15.562638 4.11950495,15.562638" id="Stroke-42" stroke="#0B567F" stroke-width="2" fill="none" stroke-linecap="round" stroke-linejoin="round"></path>
                        </g>
                    </g>
                    <g id="Group-46" mask="url(#mask-2)">
                        <g transform="translate(218.613861, 80.990000)">
                            <path d="M3.81973069,28.302638 C1.97244356,28.302638 0.479493069,26.913978 0.479493069,25.203178 L0.479493069,3.508778 C0.479493069,1.798888 1.97244356,0.410228 3.81973069,0.410228 C5.66701782,0.410228 7.16087921,1.798888 7.16087921,3.508778 L7.16087921,25.203178 C7.16087921,26.914888 5.66701782,28.302638 3.81973069,28.302638" id="Fill-44" stroke="none" fill="#2BB3E2" fill-rule="evenodd"></path>
                            <path d="M3.81973069,28.302638 C1.97244356,28.302638 0.479493069,26.913978 0.479493069,25.203178 L0.479493069,3.508778 C0.479493069,1.798888 1.97244356,0.410228 3.81973069,0.410228 C5.66701782,0.410228 7.16087921,1.798888 7.16087921,3.508778 L7.16087921,25.203178 C7.16087921,26.914888 5.66701782,28.302638 3.81973069,28.302638" id="Stroke-45" stroke="#0B567F" stroke-width="2" fill="none" stroke-linecap="round" stroke-linejoin="round"></path>
                        </g>
                    </g>
                    <g id="Group-49" mask="url(#mask-2)">
                        <g transform="translate(232.277228, 87.360000)">
                            <path d="M3.51995644,21.932638 C1.67266931,21.932638 0.178807921,20.543978 0.178807921,18.833178 L0.178807921,3.336788 C0.178807921,1.626898 1.67266931,0.238238 3.51995644,0.238238 C5.36724356,0.238238 6.86110495,1.626898 6.86110495,3.336788 L6.86110495,18.833178 C6.86110495,20.544888 5.36724356,21.932638 3.51995644,21.932638" id="Fill-47" stroke="none" fill="#2BB3E2" fill-rule="evenodd"></path>
                            <path d="M3.51995644,21.932638 C1.67266931,21.932638 0.178807921,20.543978 0.178807921,18.833178 L0.178807921,3.336788 C0.178807921,1.626898 1.67266931,0.238238 3.51995644,0.238238 C5.36724356,0.238238 6.86110495,1.626898 6.86110495,3.336788 L6.86110495,18.833178 C6.86110495,20.544888 5.36724356,21.932638 3.51995644,21.932638" id="Stroke-48" stroke="#0B567F" stroke-width="2" fill="none" stroke-linecap="round" stroke-linejoin="round"></path>
                        </g>
                    </g>
                    <g id="Group-52" mask="url(#mask-2)">
                        <g transform="translate(245.029703, 65.520000)">
                            <path d="M4.13107327,43.772638 C2.28378614,43.772638 0.789924752,42.383978 0.789924752,40.673178 L0.789924752,3.483298 C0.789924752,1.772498 2.28378614,0.383838 4.13107327,0.383838 C5.9783604,0.383838 7.47222178,1.772498 7.47222178,3.483298 L7.47222178,40.673178 C7.47222178,42.384888 5.9783604,43.772638 4.13107327,43.772638" id="Fill-50" stroke="none" fill="#2BB3E2" fill-rule="evenodd"></path>
                            <path d="M4.13107327,43.772638 C2.28378614,43.772638 0.789924752,42.383978 0.789924752,40.673178 L0.789924752,3.483298 C0.789924752,1.772498 2.28378614,0.383838 4.13107327,0.383838 C5.9783604,0.383838 7.47222178,1.772498 7.47222178,3.483298 L7.47222178,40.673178 C7.47222178,42.384888 5.9783604,43.772638 4.13107327,43.772638" id="Stroke-51" stroke="#0B567F" stroke-width="2" fill="none" stroke-linecap="round" stroke-linejoin="round"></path>
                        </g>
                    </g>
                    <g id="Group-55" mask="url(#mask-2)">
                        <g transform="translate(258.693069, 78.260000)">
                            <path d="M3.83129901,31.032638 C1.98401188,31.032638 0.490150495,29.643978 0.490150495,27.933178 L0.490150495,3.139318 C0.490150495,1.428518 1.98401188,0.039858 3.83129901,0.039858 C5.67858614,0.039858 7.17244752,1.428518 7.17244752,3.139318 L7.17244752,27.933178 C7.17244752,29.644888 5.67858614,31.032638 3.83129901,31.032638" id="Fill-53" stroke="none" fill="#2BB3E2" fill-rule="evenodd"></path>
                            <path d="M3.83129901,31.032638 C1.98401188,31.032638 0.490150495,29.643978 0.490150495,27.933178 L0.490150495,3.139318 C0.490150495,1.428518 1.98401188,0.039858 3.83129901,0.039858 C5.67858614,0.039858 7.17244752,1.428518 7.17244752,3.139318 L7.17244752,27.933178 C7.17244752,29.644888 5.67858614,31.032638 3.83129901,31.032638" id="Stroke-54" stroke="#0B567F" stroke-width="2" fill="none" stroke-linecap="round" stroke-linejoin="round"></path>
                        </g>
                    </g>
                    <g id="Group-58" mask="url(#mask-2)">
                        <g transform="translate(209.504950, 45.500000)">
                            <path d="M32.4033109,7.289555 L4.10374653,7.289555 C2.14715248,7.289555 0.566756436,5.706155 0.566756436,3.756025 C0.566756436,1.804985 2.14715248,0.221585 4.10374653,0.221585 L32.4033109,0.221585 C34.3589941,0.221585 35.9412119,1.804985 35.9412119,3.756025 C35.940301,5.706155 34.3589941,7.289555 32.4033109,7.289555" id="Fill-56" stroke="none" fill="#B6C4CE" fill-rule="evenodd"></path>
                            <path d="M32.4033109,7.289555 L4.10374653,7.289555 C2.14715248,7.289555 0.566756436,5.706155 0.566756436,3.756025 C0.566756436,1.804985 2.14715248,0.221585 4.10374653,0.221585 L32.4033109,0.221585 C34.3589941,0.221585 35.9412119,1.804985 35.9412119,3.756025 C35.940301,5.706155 34.3589941,7.289555 32.4033109,7.289555" id="Stroke-57" stroke="#0B567F" stroke-width="2" fill="none" stroke-linecap="round"></path>
                        </g>
                    </g>
                    <g id="Group-61" mask="url(#mask-2)">
                        <g transform="translate(255.960396, 45.500000)">
                            <path d="M3.63463762,7.289555 C2.71463762,7.289555 1.79281584,6.900985 1.12331089,6.264895 C0.982122772,6.088355 0.805409901,5.910905 0.698835644,5.735275 C0.557647525,5.522335 0.451073267,5.311215 0.380934653,5.098275 C0.275271287,4.886245 0.203310891,4.674215 0.167786139,4.463095 C0.133172277,4.215575 0.0967366337,3.968055 0.0967366337,3.756025 C0.0967366337,3.543085 0.132261386,3.295565 0.167786139,3.048955 C0.203310891,2.836015 0.275271287,2.624895 0.380934653,2.412865 C0.451984158,2.199925 0.557647525,1.988805 0.698835644,1.775865 C0.805409901,1.600235 0.982122772,1.422785 1.12331089,1.246245 C2.43226139,-0.061425 4.8024,-0.061425 6.14596436,1.246245 C6.78267723,1.917825 7.17253861,2.801435 7.17253861,3.756025 C7.17253861,4.709705 6.78267723,5.593315 6.14596436,6.264895 C5.47463762,6.900985 4.55463762,7.289555 3.63463762,7.289555" id="Fill-59" stroke="none" fill="#B6C4CE" fill-rule="evenodd"></path>
                            <path d="M3.63463762,7.289555 C2.71463762,7.289555 1.79281584,6.900985 1.12331089,6.264895 C0.982122772,6.088355 0.805409901,5.910905 0.698835644,5.735275 C0.557647525,5.522335 0.451073267,5.311215 0.380934653,5.098275 C0.275271287,4.886245 0.203310891,4.674215 0.167786139,4.463095 C0.133172277,4.215575 0.0967366337,3.968055 0.0967366337,3.756025 C0.0967366337,3.543085 0.132261386,3.295565 0.167786139,3.048955 C0.203310891,2.836015 0.275271287,2.624895 0.380934653,2.412865 C0.451984158,2.199925 0.557647525,1.988805 0.698835644,1.775865 C0.805409901,1.600235 0.982122772,1.422785 1.12331089,1.246245 C2.43226139,-0.061425 4.8024,-0.061425 6.14596436,1.246245 C6.78267723,1.917825 7.17253861,2.801435 7.17253861,3.756025 C7.17253861,4.709705 6.78267723,5.593315 6.14596436,6.264895 C5.47463762,6.900985 4.55463762,7.289555 3.63463762,7.289555" id="Stroke-60" stroke="#0B567F" stroke-width="2" fill="none" stroke-linecap="round"></path>
                        </g>
                    </g>
                    <g id="Group-64" mask="url(#mask-2)">
                        <g transform="translate(245.029703, 31.850000)">
                            <path d="M14.5653307,7.820085 L3.9534495,7.820085 C1.99685545,7.820085 0.415548515,6.236685 0.415548515,4.285645 C0.415548515,2.334605 1.99685545,0.751205 3.9534495,0.751205 L14.5653307,0.751205 C16.5219248,0.751205 18.1032317,2.334605 18.1032317,4.285645 C18.1032317,6.236685 16.5210139,7.820085 14.5653307,7.820085" id="Fill-62" stroke="none" fill="#B6C4CE" fill-rule="evenodd"></path>
                            <path d="M14.5653307,7.820085 L3.9534495,7.820085 C1.99685545,7.820085 0.415548515,6.236685 0.415548515,4.285645 C0.415548515,2.334605 1.99685545,0.751205 3.9534495,0.751205 L14.5653307,0.751205 C16.5219248,0.751205 18.1032317,2.334605 18.1032317,4.285645 C18.1032317,6.236685 16.5210139,7.820085 14.5653307,7.820085" id="Stroke-63" stroke="#0B567F" stroke-width="2" fill="none" stroke-linecap="round"></path>
                        </g>
                    </g>
                    <g id="Group-67" mask="url(#mask-2)">
                        <g transform="translate(209.504950, 31.850000)">
                            <path d="M11.1789109,7.820085 L4.10310891,7.820085 C2.14742574,7.820085 0.567029703,6.236685 0.567029703,4.285645 C0.567029703,2.334605 2.14742574,0.751205 4.10310891,0.751205 L11.1789109,0.751205 C13.1345941,0.751205 14.7168119,2.334605 14.7168119,4.285645 C14.7168119,6.236685 13.1345941,7.820085 11.1789109,7.820085" id="Fill-65" stroke="none" fill="#B6C4CE" fill-rule="evenodd"></path>
                            <path d="M11.1789109,7.820085 L4.10310891,7.820085 C2.14742574,7.820085 0.567029703,6.236685 0.567029703,4.285645 C0.567029703,2.334605 2.14742574,0.751205 4.10310891,0.751205 L11.1789109,0.751205 C13.1345941,0.751205 14.7168119,2.334605 14.7168119,4.285645 C14.7168119,6.236685 13.1345941,7.820085 11.1789109,7.820085" id="Stroke-66" stroke="#0B567F" stroke-width="2" fill="none" stroke-linecap="round"></path>
                        </g>
                    </g>
                    <g id="Group-70" mask="url(#mask-2)">
                        <g transform="translate(230.455446, 31.850000)">
                            <path d="M4.37828911,7.820085 C3.45828911,7.820085 2.53555644,7.431515 1.86605149,6.795425 C1.22569505,6.123845 0.840388119,5.204745 0.840388119,4.285645 C0.840388119,3.366545 1.22569505,2.448355 1.86605149,1.776775 C2.22038812,1.458275 2.57472475,1.210755 3.03290297,1.034215 C4.34276436,0.469105 5.89856634,0.786695 6.88961584,1.776775 C7.52632871,2.448355 7.91527921,3.366545 7.91527921,4.285645 C7.91527921,5.204745 7.52632871,6.122935 6.88961584,6.795425 C6.21737822,7.431515 5.29828911,7.820085 4.37828911,7.820085" id="Fill-68" stroke="none" fill="#B6C4CE" fill-rule="evenodd"></path>
                            <path d="M4.37828911,7.820085 C3.45828911,7.820085 2.53555644,7.431515 1.86605149,6.795425 C1.22569505,6.123845 0.840388119,5.204745 0.840388119,4.285645 C0.840388119,3.366545 1.22569505,2.448355 1.86605149,1.776775 C2.22038812,1.458275 2.57472475,1.210755 3.03290297,1.034215 C4.34276436,0.469105 5.89856634,0.786695 6.88961584,1.776775 C7.52632871,2.448355 7.91527921,3.366545 7.91527921,4.285645 C7.91527921,5.204745 7.52632871,6.122935 6.88961584,6.795425 C6.21737822,7.431515 5.29828911,7.820085 4.37828911,7.820085" id="Stroke-69" stroke="#0B567F" stroke-width="2" fill="none" stroke-linecap="round"></path>
                        </g>
                    </g>
                </g>
            </g>
        </g>
    </g>
</svg>