<?xml version="1.0" encoding="UTF-8" standalone="no"?>
<svg width="356px" height="152px" viewBox="0 0 356 152" version="1.1" xmlns="http://www.w3.org/2000/svg" xmlns:xlink="http://www.w3.org/1999/xlink">
    <!-- Generator: Sketch 50.2 (55047) - http://www.bohemiancoding.com/sketch -->
    <title>Group</title>
    <desc>Created with Sketch.</desc>
    <defs>
        <polygon id="path-1" points="0.223148222 0.6551 45.7337932 0.6551 45.7337932 27 0.223148222 27"></polygon>
        <polygon id="path-3" points="0.986849914 0.6551 46.4983907 0.6551 46.4983907 27 0.986849914 27"></polygon>
        <polygon id="path-5" points="0 151.094 355.65 151.094 355.65 0 0 0"></polygon>
    </defs>
    <g id="Page-1" stroke="none" stroke-width="1" fill="none" fill-rule="evenodd">
        <g id="optimization" transform="translate(-799.000000, -2064.000000)">
            <g id="Group" transform="translate(799.000000, 2064.000000)">
                <path d="M250.7385,81.6231 C249.7775,81.6231 248.9955,80.8411 248.9955,79.8801 L248.9955,26.4351 C248.9955,25.8821 249.4425,25.4351 249.9955,25.4351 L341.5735,25.4351 C342.1265,25.4351 342.5735,25.8821 342.5735,26.4351 L342.5735,79.8801 C342.5735,80.8411 341.7925,81.6231 340.8315,81.6231 L250.7385,81.6231 Z" id="Fill-1" fill="#D3D3D3"></path>
                <path d="M341.5745,24.4347 L249.9945,24.4347 C248.8905,24.4347 247.9945,25.3307 247.9945,26.4347 L247.9945,79.8797 C247.9945,81.3927 249.2245,82.6227 250.7385,82.6227 L340.8305,82.6227 C342.3445,82.6227 343.5745,81.3927 343.5745,79.8797 L343.5745,26.4347 C343.5745,25.3307 342.6785,24.4347 341.5745,24.4347 M341.5745,26.4347 L341.5745,79.8797 C341.5745,80.2777 341.2565,80.6227 340.8305,80.6227 L250.7385,80.6227 C250.3405,80.6227 249.9945,80.3047 249.9945,79.8797 L249.9945,26.4347 L341.5745,26.4347" id="Fill-3" fill="#0B567F"></path>
                <path d="M248.9954,31.5851 L248.9954,18.0751 C248.9954,14.9491 251.5394,12.4051 254.6654,12.4051 L336.9304,12.4051 C340.0574,12.4051 342.6004,14.9491 342.6004,18.0751 L342.6004,31.5851 L248.9954,31.5851 Z" id="Fill-5" fill="#7996A5"></path>
                <path d="M336.9299,11.4044 L254.6659,11.4044 C250.9879,11.4044 247.9939,14.3974 247.9939,18.0754 L247.9939,30.5854 L247.9939,32.5854 L249.9939,32.5854 L341.5999,32.5854 L343.5999,32.5854 L343.5999,30.5854 L343.5999,18.0754 C343.5999,14.3974 340.6079,11.4044 336.9299,11.4044 M336.9299,13.4044 C339.5039,13.4044 341.5999,15.5014 341.5999,18.0754 L341.5999,30.5854 L249.9939,30.5854 L249.9939,18.0754 C249.9939,15.5014 252.0919,13.4044 254.6659,13.4044 L336.9299,13.4044" id="Fill-7" fill="#0B567F"></path>
                <path d="M173.8606,37.0929 C166.7086,37.0929 160.8896,31.2749 160.8896,24.1219 C160.8896,16.9699 166.7086,11.1519 173.8606,11.1519 C181.0126,11.1519 186.8316,16.9699 186.8316,24.1219 C186.8316,31.2749 181.0126,37.0929 173.8606,37.0929" id="Fill-9" fill="#2BB3E2"></path>
                <path d="M173.8606,10.1515 C166.1576,10.1515 159.8906,16.4195 159.8906,24.1225 C159.8906,31.8255 166.1576,38.0925 173.8606,38.0925 C181.5646,38.0925 187.8316,31.8255 187.8316,24.1225 C187.8316,16.4195 181.5646,10.1515 173.8606,10.1515 M173.8606,12.1515 C180.4716,12.1515 185.8316,17.5105 185.8316,24.1225 C185.8316,30.7335 180.4716,36.0925 173.8606,36.0925 C167.2506,36.0925 161.8906,30.7335 161.8906,24.1225 C161.8906,17.5105 167.2506,12.1515 173.8606,12.1515" id="Fill-11" fill="#0B567F"></path>
                <path d="M155.0276,62.3106 C153.2566,62.3106 152.1126,60.8526 152.1126,58.5966 L152.1126,56.0426 L152.1076,55.8916 C152.0196,51.1926 153.7666,46.7396 157.0276,43.3536 C160.2886,39.9676 164.6736,38.0536 169.3736,37.9656 L178.3306,37.9656 L178.5336,37.9706 C183.2266,38.1066 187.5906,40.0646 190.8176,43.4836 C194.0436,46.9026 195.7456,51.3726 195.6096,56.0726 L195.6096,58.5966 C195.6096,60.8526 194.4656,62.3106 192.6946,62.3106 L155.0276,62.3106 Z" id="Fill-13" fill="#2BB3E2"></path>
                <path d="M178.3303,36.9659 L169.3923,36.9659 C164.3873,37.0599 159.7543,39.0809 156.3083,42.6599 C152.8613,46.2379 151.0153,50.9449 151.1083,55.9109 L151.1123,56.0919 L151.1113,58.5969 C151.1113,61.4159 152.6853,63.3109 155.0273,63.3109 L192.6933,63.3109 C195.0353,63.3109 196.6093,61.4159 196.6093,58.5969 L196.6093,56.0709 C196.8913,45.8339 188.7993,37.2679 178.5573,36.9709 L178.3613,36.9659 L178.3303,36.9659 Z M178.3303,38.9659 C178.3873,38.9669 178.4433,38.9679 178.4993,38.9699 C187.6623,39.2359 194.8753,46.8799 194.6093,56.0429 L194.6093,58.5969 C194.6093,59.8739 194.1313,61.3109 192.6933,61.3109 L155.0273,61.3109 C153.5903,61.3109 153.1113,59.8739 153.1113,58.5969 L153.1113,56.0429 C153.1103,55.9869 153.1093,55.9309 153.1073,55.8739 C152.9353,46.7079 160.2263,39.1379 169.3923,38.9659 L178.3303,38.9659 Z" id="Fill-15" fill="#0B567F"></path>
                <path d="M121.9885,91.6358 C123.3105,91.6358 124.3835,90.5638 124.3835,89.2408 C124.3495,74.2188 131.1655,59.9998 142.8965,50.6158 C143.8995,49.8968 144.1295,48.5008 143.4095,47.4978 C143.3495,47.4158 143.2855,47.3378 143.2165,47.2648 C142.3755,46.2588 140.8815,46.1158 139.8645,46.9458 C127.0505,57.2448 119.5955,72.7998 119.5945,89.2408 C119.5945,90.5638 120.6665,91.6358 121.9885,91.6358" id="Fill-17" fill="#7996A5"></path>
                <path d="M121.9885,91.6358 C123.3105,91.6358 124.3835,90.5638 124.3835,89.2408 C124.3495,74.2188 131.1655,59.9998 142.8965,50.6158 C143.8995,49.8968 144.1295,48.5008 143.4095,47.4978 C143.3495,47.4158 143.2855,47.3378 143.2165,47.2648 C142.3755,46.2588 140.8815,46.1158 139.8645,46.9458 C127.0505,57.2448 119.5955,72.7998 119.5945,89.2408 C119.5945,90.5638 120.6665,91.6358 121.9885,91.6358 Z" id="Stroke-19" stroke="#0B567F" stroke-width="2"></path>
                <path d="M189.6624,136.1661 C179.4484,139.5161 168.4334,139.5161 158.2204,136.1661 C156.9614,135.7591 155.6114,136.4481 155.2044,137.7061 L155.1864,137.7621 C154.8604,139.0321 155.5514,140.3441 156.7824,140.7941 C162.2984,142.5871 168.0604,143.5031 173.8604,143.5081 C179.7784,143.5141 185.6564,142.5431 191.2584,140.6351 C192.4334,140.0281 192.8924,138.5841 192.2864,137.4091 C191.7914,136.4501 190.7174,135.9411 189.6624,136.1661" id="Fill-21" fill="#7996A5"></path>
                <path d="M189.6624,136.1661 C179.4484,139.5161 168.4334,139.5161 158.2204,136.1661 C156.9614,135.7591 155.6114,136.4481 155.2044,137.7061 L155.1864,137.7621 C154.8604,139.0321 155.5514,140.3441 156.7824,140.7941 C162.2984,142.5871 168.0604,143.5031 173.8604,143.5081 C179.7784,143.5141 185.6564,142.5431 191.2584,140.6351 C192.4334,140.0281 192.8924,138.5841 192.2864,137.4091 C191.7914,136.4501 190.7174,135.9411 189.6624,136.1661 Z" id="Stroke-23" stroke="#0B567F" stroke-width="2"></path>
                <path d="M202.3997,48.8399 C202.4097,48.8479 202.4207,48.8549 202.4307,48.8609 C215.5177,58.1499 223.3067,73.1929 223.3387,89.2419 C223.3387,90.5639 224.4117,91.6359 225.7327,91.6359 C227.0547,91.6359 228.1277,90.5639 228.1277,89.2419 C228.0837,71.6079 219.5227,55.0799 205.1437,44.8709 C204.0277,44.1969 202.5827,44.4719 201.7927,45.5099 C201.0407,46.5979 201.3117,48.0879 202.3997,48.8399" id="Fill-25" fill="#7996A5"></path>
                <path d="M202.3997,48.8399 C202.4097,48.8479 202.4207,48.8549 202.4307,48.8609 C215.5177,58.1499 223.3067,73.1929 223.3387,89.2419 C223.3387,90.5639 224.4117,91.6359 225.7327,91.6359 C227.0547,91.6359 228.1277,90.5639 228.1277,89.2419 C228.0837,71.6079 219.5227,55.0799 205.1437,44.8709 C204.0277,44.1969 202.5827,44.4719 201.7927,45.5099 C201.0407,46.5979 201.3117,48.0879 202.3997,48.8399 Z" id="Stroke-27" stroke="#0B567F" stroke-width="2"></path>
                <path d="M125.9788,124.8761 C118.8268,124.8761 113.0078,119.0581 113.0078,111.9051 C113.0078,104.7531 118.8268,98.9351 125.9788,98.9351 C133.1308,98.9351 138.9498,104.7531 138.9498,111.9051 C138.9498,119.0581 133.1308,124.8761 125.9788,124.8761" id="Fill-29" fill="#2BB3E2"></path>
                <path d="M125.9788,97.9347 C118.2758,97.9347 112.0078,104.2027 112.0078,111.9057 C112.0078,119.6097 118.2758,125.8757 125.9788,125.8757 C133.6818,125.8757 139.9498,119.6097 139.9498,111.9057 C139.9498,104.2027 133.6818,97.9347 125.9788,97.9347 M125.9788,99.9347 C132.5898,99.9347 137.9498,105.2937 137.9498,111.9057 C137.9498,118.5167 132.5898,123.8757 125.9788,123.8757 C119.3678,123.8757 114.0078,118.5167 114.0078,111.9057 C114.0078,105.2937 119.3678,99.9347 125.9788,99.9347" id="Fill-31" fill="#0B567F"></path>
                <path d="M107.1458,150.0938 C105.3748,150.0938 104.2298,148.6368 104.2298,146.3808 L104.2298,143.8268 L105.2258,143.6568 L104.2258,143.6758 C104.1378,138.9758 105.8848,134.5228 109.1458,131.1368 C112.4068,127.7508 116.7918,125.8368 121.4918,125.7488 L130.4478,125.7488 L130.6518,125.7538 C140.3468,126.0348 148.0098,134.1558 147.7278,143.8568 L147.7278,146.3808 C147.7278,148.6368 146.5828,150.0938 144.8128,150.0938 L107.1458,150.0938 Z" id="Fill-33" fill="#2BB3E2"></path>
                <g id="Group-37" transform="translate(103.000000, 124.094000)">
                    <mask id="mask-2" fill="white">
                        <use xlink:href="#path-1"></use>
                    </mask>
                    <g id="Clip-36"></g>
                    <path d="M27.4475,0.6551 L18.5105,0.6551 C13.5055,0.7491 8.8715,2.7711 5.4265,6.3491 C1.9785,9.9271 0.1335,14.6341 0.2265,19.6011 L0.2305,19.7811 L0.2305,22.2871 C0.2305,25.1061 1.8025,27.0001 4.1445,27.0001 L41.8125,27.0001 C44.1545,27.0001 45.7265,25.1061 45.7265,22.2871 L45.7265,19.7611 C45.8635,14.8061 44.0665,10.0931 40.6635,6.4871 C37.2545,2.8741 32.6405,0.8041 27.6765,0.6601 L27.4805,0.6551 L27.4475,0.6551 Z M27.4475,2.6551 C27.5045,2.6561 27.5605,2.6571 27.6175,2.6591 C36.7815,2.9261 43.9945,10.5691 43.7265,19.7331 L43.7265,22.2871 C43.7265,23.5631 43.2485,25.0001 41.8125,25.0001 L4.1445,25.0001 C2.7095,25.0001 2.2305,23.5631 2.2305,22.2871 L2.2305,19.7331 C2.2285,19.6761 2.2265,19.6201 2.2265,19.5631 C2.0525,10.3971 9.3435,2.8271 18.5105,2.6551 L27.4475,2.6551 Z" id="Fill-35" fill="#0B567F" mask="url(#mask-2)"></path>
                </g>
                <path d="M221.7424,124.8761 C214.5904,124.8761 208.7714,119.0581 208.7714,111.9051 C208.7714,104.7531 214.5904,98.9351 221.7424,98.9351 C228.8944,98.9351 234.7134,104.7531 234.7134,111.9051 C234.7134,119.0581 228.8944,124.8761 221.7424,124.8761" id="Fill-38" fill="#2BB3E2"></path>
                <path d="M221.7424,97.9347 C214.0394,97.9347 207.7714,104.2027 207.7714,111.9057 C207.7714,119.6097 214.0394,125.8757 221.7424,125.8757 C229.4454,125.8757 235.7134,119.6097 235.7134,111.9057 C235.7134,104.2027 229.4454,97.9347 221.7424,97.9347 M221.7424,99.9347 C228.3534,99.9347 233.7134,105.2937 233.7134,111.9057 C233.7134,118.5167 228.3534,123.8757 221.7424,123.8757 C215.1314,123.8757 209.7714,118.5167 209.7714,111.9057 C209.7714,105.2937 215.1314,99.9347 221.7424,99.9347" id="Fill-40" fill="#0B567F"></path>
                <path d="M202.9084,150.0938 C201.1374,150.0938 199.9934,148.6368 199.9934,146.3808 L199.9934,143.8268 L200.9894,143.6568 L199.9894,143.6758 C199.9014,138.9758 201.6484,134.5228 204.9094,131.1368 C208.1704,127.7508 212.5544,125.8368 217.2554,125.7488 L226.2114,125.7488 L226.4154,125.7538 C236.1094,126.0348 243.7714,134.1558 243.4914,143.8568 L243.4914,146.3808 C243.4914,148.6368 242.3464,150.0938 240.5764,150.0938 L202.9084,150.0938 Z" id="Fill-42" fill="#2BB3E2"></path>
                <g id="Group-46" transform="translate(198.000000, 124.094000)">
                    <mask id="mask-4" fill="white">
                        <use xlink:href="#path-3"></use>
                    </mask>
                    <g id="Clip-45"></g>
                    <path d="M28.2112,0.6551 L19.2732,0.6551 C14.2692,0.7491 9.6352,2.7711 6.1902,6.3491 C2.7432,9.9271 0.8972,14.6341 0.9902,19.6011 L0.9932,19.7461 L0.9942,22.2871 C0.9942,25.1061 2.5662,27.0001 4.9082,27.0001 L42.5762,27.0001 C44.9182,27.0001 46.4912,25.1061 46.4912,22.2871 L46.4912,19.7611 C46.6272,14.8061 44.8302,10.0931 41.4272,6.4871 C38.0182,2.8741 33.4042,0.8041 28.4402,0.6601 L28.2442,0.6551 L28.2112,0.6551 Z M28.2112,2.6551 C28.2682,2.6561 28.3242,2.6571 28.3812,2.6591 C37.5452,2.9261 44.7582,10.5691 44.4912,19.7331 L44.4912,22.2871 C44.4912,23.5631 44.0132,25.0001 42.5762,25.0001 L4.9082,25.0001 C3.4732,25.0001 2.9942,23.5631 2.9942,22.2871 L2.9942,19.7331 C2.9922,19.6761 2.9902,19.6201 2.9902,19.5631 C2.8172,10.3971 10.1072,2.8271 19.2732,2.6551 L28.2112,2.6551 Z" id="Fill-44" fill="#0B567F" mask="url(#mask-4)"></path>
                </g>
                <path d="M262.7874,70.544 C261.8264,70.544 261.0444,69.762 261.0444,68.801 L261.0444,15.356 C261.0444,14.803 261.4914,14.356 262.0444,14.356 L353.6234,14.356 C354.1764,14.356 354.6234,14.803 354.6234,15.356 L354.6234,68.801 C354.6234,69.762 353.8414,70.544 352.8804,70.544 L262.7874,70.544 Z" id="Fill-47" fill="#FFFFFF"></path>
                <path d="M353.6233,13.3556 L262.0453,13.3556 C260.9393,13.3556 260.0453,14.2516 260.0453,15.3556 L260.0453,68.8006 C260.0453,70.3136 261.2753,71.5436 262.7873,71.5436 L352.8803,71.5436 C354.3933,71.5436 355.6233,70.3136 355.6233,68.8006 L355.6233,15.3556 C355.6233,14.2516 354.7273,13.3556 353.6233,13.3556 M353.6233,15.3556 L353.6233,68.8006 C353.6233,69.1996 353.3053,69.5436 352.8803,69.5436 L262.7873,69.5436 C262.3893,69.5436 262.0453,69.2256 262.0453,68.8006 L262.0453,15.3556 L353.6233,15.3556" id="Fill-49" fill="#0B567F"></path>
                <path d="M262.0442,20.506 C261.4912,20.506 261.0442,20.059 261.0442,19.506 L261.0442,6.997 C261.0442,3.87 263.5882,1.326 266.7152,1.326 L348.9802,1.326 C352.1062,1.326 354.6492,3.87 354.6492,6.997 L354.6492,19.506 C354.6492,20.059 354.2022,20.506 353.6492,20.506 L262.0442,20.506 Z" id="Fill-51" fill="#F9912B"></path>
                <path d="M348.9788,0.3263 L266.7148,0.3263 C263.0378,0.3263 260.0448,3.3183 260.0448,6.9973 L260.0448,19.5063 C260.0448,20.6113 260.9398,21.5063 262.0448,21.5063 L353.6498,21.5063 C354.7538,21.5063 355.6498,20.6113 355.6498,19.5063 L355.6498,6.9973 C355.6498,3.3183 352.6578,0.3263 348.9788,0.3263 M348.9788,2.3263 C351.5528,2.3263 353.6498,4.4233 353.6498,6.9973 L353.6498,19.5063 L262.0448,19.5063 L262.0448,6.9973 C262.0448,4.4233 264.1408,2.3263 266.7148,2.3263 L348.9788,2.3263" id="Fill-53" fill="#0B567F"></path>
                <path d="M316.3918,15.2306 L271.4648,15.2306 C269.6338,15.2306 268.1478,13.2976 268.1478,10.9166 C268.1478,8.5356 269.6338,6.6016 271.4648,6.6016 L316.3918,6.6016 C318.2228,6.6016 319.7088,8.5356 319.7088,10.9166 C319.7088,13.2976 318.2228,15.2306 316.3918,15.2306" id="Fill-55" fill="#F2F2F2"></path>
                <path d="M316.3918,15.2306 L271.4648,15.2306 C269.6338,15.2306 268.1478,13.2976 268.1478,10.9166 C268.1478,8.5356 269.6338,6.6016 271.4648,6.6016 L316.3918,6.6016 C318.2228,6.6016 319.7088,8.5356 319.7088,10.9166 C319.7088,13.2976 318.2228,15.2306 316.3918,15.2306 Z" id="Stroke-57" stroke="#0B567F" stroke-width="2" stroke-linecap="round"></path>
                <path d="M344.0725,6.7276 C346.3855,6.7276 348.2615,8.6026 348.2615,10.9156 C348.2615,13.2296 346.3855,15.1056 344.0725,15.1056 C341.7595,15.1056 339.8835,13.2296 339.8835,10.9156 C339.8835,8.6026 341.7595,6.7276 344.0725,6.7276" id="Fill-59" fill="#F2F2F2"></path>
                <path d="M344.0725,6.7276 C346.3855,6.7276 348.2615,8.6026 348.2615,10.9156 C348.2615,13.2296 346.3855,15.1056 344.0725,15.1056 C341.7595,15.1056 339.8835,13.2296 339.8835,10.9156 C339.8835,8.6026 341.7595,6.7276 344.0725,6.7276 Z" id="Stroke-61" stroke="#0B567F" stroke-width="2" stroke-linecap="round"></path>
                <path d="M332.0286,6.7276 C334.3416,6.7276 336.2176,8.6026 336.2176,10.9156 C336.2176,13.2296 334.3416,15.1056 332.0286,15.1056 C329.7156,15.1056 327.8406,13.2296 327.8406,10.9156 C327.8406,8.6026 329.7156,6.7276 332.0286,6.7276" id="Fill-63" fill="#F2F2F2"></path>
                <path d="M332.0286,6.7276 C334.3416,6.7276 336.2176,8.6026 336.2176,10.9156 C336.2176,13.2296 334.3416,15.1056 332.0286,15.1056 C329.7156,15.1056 327.8406,13.2296 327.8406,10.9156 C327.8406,8.6026 329.7156,6.7276 332.0286,6.7276 Z" id="Stroke-65" stroke="#0B567F" stroke-width="2" stroke-linecap="round"></path>
                <mask id="mask-6" fill="white">
                    <use xlink:href="#path-5"></use>
                </mask>
                <g id="Clip-68"></g>
                <polygon id="Fill-67" fill="#FFCD50" mask="url(#mask-6)" points="310.764 62.381 321.745 62.381 321.745 42.26 310.764 42.26"></polygon>
                <polygon id="Stroke-69" stroke="#0B567F" stroke-width="2" stroke-linecap="round" stroke-linejoin="round" mask="url(#mask-6)" points="310.764 62.381 321.745 62.381 321.745 42.26 310.764 42.26"></polygon>
                <polygon id="Fill-70" fill="#F9912B" mask="url(#mask-6)" points="326.408 62.381 337.389 62.381 337.389 29.416 326.408 29.416"></polygon>
                <polygon id="Stroke-71" stroke="#0B567F" stroke-width="2" stroke-linecap="round" stroke-linejoin="round" mask="url(#mask-6)" points="326.408 62.381 337.389 62.381 337.389 29.416 326.408 29.416"></polygon>
                <polygon id="Fill-72" fill="#FFCD50" mask="url(#mask-6)" points="279.476 62.245 290.457 62.245 290.457 48.193 279.476 48.193"></polygon>
                <polygon id="Stroke-73" stroke="#0B567F" stroke-width="2" stroke-linecap="round" stroke-linejoin="round" mask="url(#mask-6)" points="279.476 62.245 290.457 62.245 290.457 48.193 279.476 48.193"></polygon>
                <polygon id="Fill-74" fill="#F9912B" mask="url(#mask-6)" points="295.12 62.381 306.101 62.381 306.101 36.896 295.12 36.896"></polygon>
                <polygon id="Stroke-75" stroke="#0B567F" stroke-width="2" stroke-linecap="round" stroke-linejoin="round" mask="url(#mask-6)" points="295.12 62.381 306.101 62.381 306.101 36.896 295.12 36.896"></polygon>
                <g id="Group-78" mask="url(#mask-6)">
                    <g transform="translate(1.000000, 53.094000)">
                        <path d="M0.4407,1.1073 L0.5907,15.6283 C0.6437,20.7323 14.0427,24.7373 30.5217,24.5663 C47.0007,24.3993 60.3187,20.1193 60.2647,15.0203 L60.1167,0.4963" id="Fill-76" stroke="none" fill="#D9E4ED" fill-rule="evenodd"></path>
                        <path d="M0.4407,1.1073 L0.5907,15.6283 C0.6437,20.7323 14.0427,24.7373 30.5217,24.5663 C47.0007,24.3993 60.3187,20.1193 60.2647,15.0203 L60.1167,0.4963" id="Stroke-77" stroke="#0B567F" stroke-width="2" fill="none" stroke-linecap="round" stroke-linejoin="round"></path>
                    </g>
                </g>
                <g id="Group-81" mask="url(#mask-6)">
                    <g transform="translate(1.000000, 50.094000)">
                        <path d="M2.5696,0.661 C1.2116,1.735 0.4306,2.895 0.4406,4.107 C0.4956,9.21 13.8976,13.21 30.3756,13.043 C46.8526,12.876 60.1666,8.604 60.1166,3.496 C60.1046,2.352 59.3886,1.274 58.1526,0.276" id="Fill-79" stroke="none" fill="#B6C4CE" fill-rule="evenodd"></path>
                        <path d="M2.5696,0.661 C1.2116,1.735 0.4306,2.895 0.4406,4.107 C0.4956,9.21 13.8976,13.21 30.3756,13.043 C46.8526,12.876 60.1666,8.604 60.1166,3.496 C60.1046,2.352 59.3886,1.274 58.1526,0.276" id="Stroke-80" stroke="#0B567F" stroke-width="2" fill="none" stroke-linecap="round" stroke-linejoin="round"></path>
                    </g>
                </g>
                <g id="Group-84" mask="url(#mask-6)">
                    <g transform="translate(1.000000, 31.094000)">
                        <path d="M0.219,1.2498 L0.367,15.7718 C0.421,20.8718 13.818,24.8778 30.297,24.7098 C46.777,24.5378 60.095,20.2668 60.042,15.1598 L59.891,0.6418" id="Fill-82" stroke="none" fill="#D9E4ED" fill-rule="evenodd"></path>
                        <path d="M0.219,1.2498 L0.367,15.7718 C0.421,20.8718 13.818,24.8778 30.297,24.7098 C46.777,24.5378 60.095,20.2668 60.042,15.1598 L59.891,0.6418" id="Stroke-83" stroke="#0B567F" stroke-width="2" fill="none" stroke-linecap="round" stroke-linejoin="round"></path>
                    </g>
                </g>
                <g id="Group-87" mask="url(#mask-6)">
                    <g transform="translate(1.000000, 28.094000)">
                        <path d="M2.345,0.8026 C0.988,1.8786 0.205,3.0346 0.219,4.2496 C0.271,9.3516 13.673,13.3536 30.151,13.1836 C46.63,13.0176 59.945,8.7436 59.891,3.6416 C59.881,2.4936 59.165,1.4156 57.931,0.4166" id="Fill-85" stroke="none" fill="#B6C4CE" fill-rule="evenodd"></path>
                        <path d="M2.345,0.8026 C0.988,1.8786 0.205,3.0346 0.219,4.2496 C0.271,9.3516 13.673,13.3536 30.151,13.1836 C46.63,13.0176 59.945,8.7436 59.891,3.6416 C59.881,2.4936 59.165,1.4156 57.931,0.4166" id="Stroke-86" stroke="#0B567F" stroke-width="2" fill="none" stroke-linecap="round" stroke-linejoin="round"></path>
                    </g>
                </g>
                <g id="Group-90" mask="url(#mask-6)">
                    <g transform="translate(1.000000, 10.094000)">
                        <path d="M0.0002,0.8289 L0.1462,15.3499 C0.2012,20.4539 13.6012,24.4599 30.0782,24.2859 C46.5592,24.1169 59.8722,19.8439 59.8202,14.7419 L59.6752,0.2189" id="Fill-88" stroke="none" fill="#D9E4ED" fill-rule="evenodd"></path>
                        <path d="M0.0002,0.8289 L0.1462,15.3499 C0.2012,20.4539 13.6012,24.4599 30.0782,24.2859 C46.5592,24.1169 59.8722,19.8439 59.8202,14.7419 L59.6752,0.2189" id="Stroke-89" stroke="#0B567F" stroke-width="2" fill="none" stroke-linecap="round" stroke-linejoin="round"></path>
                    </g>
                </g>
                <path d="M29.9993,20.8331 C16.0363,20.8331 1.1633,17.4641 1.1003,11.2211 C1.0693,8.3241 4.2023,5.7811 10.1573,3.8701 C15.6693,2.1011 22.9903,1.0821 30.7733,1.0041 L31.7423,0.9991 C45.7073,0.9991 60.5843,4.3681 60.6513,10.6111 C60.7173,17.0521 45.4093,20.6821 30.9743,20.8281 L29.9993,20.8331 Z" id="Fill-91" fill="#B6C4CE" mask="url(#mask-6)"></path>
                <path d="M31.7434,-0.0009 L31.7424,-0.0009 C31.4184,-0.0009 31.0914,0.0011 30.7634,0.0051 C22.8834,0.0841 15.4564,1.1181 9.8514,2.9181 C1.7474,5.5201 0.0754,8.8751 0.0994,11.2311 C0.1234,13.5451 1.8054,16.8121 9.6884,19.2421 C15.1114,20.9131 22.3264,21.8331 30.0044,21.8331 C30.3304,21.8331 30.6564,21.8321 30.9844,21.8281 C46.2794,21.6731 61.7234,17.7681 61.6504,10.6021 C61.6274,8.2881 59.9434,5.0201 52.0604,2.5921 C46.6364,0.9201 39.4204,-0.0009 31.7434,-0.0009 M31.7424,1.9991 C47.1924,1.9991 59.5994,5.8011 59.6504,10.6221 C59.7014,15.5411 46.8584,19.6671 30.9654,19.8281 C30.6434,19.8321 30.3224,19.8331 30.0044,19.8331 C14.5564,19.8331 2.1484,16.0331 2.0994,11.2111 C2.0494,6.2891 14.8914,2.1641 30.7834,2.0041 C31.1044,2.0011 31.4244,1.9991 31.7424,1.9991" id="Fill-92" fill="#0B567F" mask="url(#mask-6)"></path>
                <path d="M43.0725,75.67 C41.9685,75.67 41.0365,74.904 41.0365,73.999 L39.6435,39.695 C39.6445,38.758 40.6465,37.932 41.8325,37.932 L63.9905,38.137 C65.2675,38.137 66.7675,39.022 67.2095,40.03 L68.5425,43.08 C68.7005,43.443 69.0585,43.679 69.4555,43.68 L93.8855,43.751 C95.0745,43.751 96.0765,44.577 96.0765,45.556 L94.6855,73.95 C94.6845,74.904 93.7525,75.67 92.6485,75.67 L43.0725,75.67 Z" id="Fill-93" fill="#F9912B" mask="url(#mask-6)"></path>
                <path d="M41.8323,36.9317 C40.0803,36.9317 38.6443,38.1937 38.6443,39.7367 L40.0363,73.9987 C40.0363,75.4677 41.4023,76.6697 43.0723,76.6697 L92.6483,76.6697 C94.3183,76.6697 95.6853,75.4677 95.6853,73.9987 L97.0763,45.5557 C97.0763,44.0137 95.6413,42.7507 93.8893,42.7507 L69.4583,42.6797 L68.1253,39.6297 C67.5253,38.2587 65.6683,37.1367 63.9993,37.1367 L41.8323,36.9317 Z M41.8253,38.9317 L63.9993,39.1367 C64.9303,39.1367 66.0373,39.8477 66.2923,40.4307 L67.6253,43.4807 C67.9433,44.2067 68.6603,44.6767 69.4523,44.6797 L93.8893,44.7507 C94.5513,44.7507 95.0513,45.1547 95.0753,45.5277 L93.6873,73.9017 C93.6863,73.9337 93.6853,73.9667 93.6853,73.9987 C93.6853,74.3097 93.2323,74.6697 92.6483,74.6697 L43.0723,74.6697 C42.4883,74.6697 42.0363,74.3097 42.0363,73.9987 C42.0363,73.9727 42.0353,73.9457 42.0353,73.9177 L40.6453,39.7117 C40.6663,39.3397 41.1633,38.9347 41.8253,38.9317 Z" id="Fill-94" fill="#0B567F" mask="url(#mask-6)"></path>
                <path d="M41.0764,66.6642 C40.5714,66.6642 40.1404,66.2842 40.0834,65.7752 L38.4824,51.5172 C38.4524,51.2462 38.5344,50.9742 38.7094,50.7652 C38.8844,50.5552 39.1374,50.4262 39.4094,50.4072 C39.4094,50.4072 90.7004,46.9372 90.7224,46.9372 C91.2274,46.9372 91.6584,47.3172 91.7164,47.8262 L93.3154,62.0852 C93.3464,62.3562 93.2644,62.6282 93.0894,62.8372 C92.9144,63.0472 92.6614,63.1762 92.3894,63.1942 C92.3894,63.1942 41.0984,66.6642 41.0764,66.6642" id="Fill-95" fill="#FFFFFF" mask="url(#mask-6)"></path>
                <path d="M90.7229,45.9376 C90.6779,45.9376 90.6319,45.9396 90.5859,45.9426 L39.3419,49.4096 C38.7969,49.4466 38.2909,49.7046 37.9419,50.1236 C37.5919,50.5416 37.4289,51.0856 37.4909,51.6276 L39.0899,65.8866 C39.2029,66.9046 40.0659,67.6646 41.0759,67.6646 C41.1209,67.6646 41.1659,67.6626 41.2119,67.6596 L92.4559,64.1916 C93.0009,64.1556 93.5069,63.8976 93.8569,63.4786 C94.2059,63.0596 94.3689,62.5156 94.3089,61.9736 L92.7089,47.7146 C92.5949,46.6976 91.7329,45.9376 90.7229,45.9376 M90.7209,47.9376 L92.3219,62.1966 L41.0769,65.6646 L39.4769,51.4056 L90.7209,47.9376" id="Fill-96" fill="#0B567F" mask="url(#mask-6)"></path>
                <path d="M42.3245,86.422 C41.1905,86.422 40.1965,85.767 40.1965,85.019 L38.7615,59.369 C38.7625,58.613 39.8305,57.901 41.0475,57.901 L66.2185,57.837 C66.5955,57.836 66.9405,57.622 67.1095,57.284 L68.4825,54.54 C68.8825,53.74 70.3585,52.85 71.8385,52.85 L94.6815,52.665 C95.8905,52.665 96.9585,53.377 96.9585,54.189 L95.5255,84.972 C95.5245,85.767 94.5305,86.422 93.3965,86.422 L42.3245,86.422 Z" id="Fill-97" fill="#FFCD50" mask="url(#mask-6)"></path>
                <path d="M94.6741,51.6651 L71.8381,51.8501 C70.1181,51.8501 68.2051,52.8591 67.5881,54.0931 L66.2151,56.8371 L41.0471,56.9011 C39.2401,56.9011 37.7641,58.0371 37.7641,59.4251 L39.1961,85.0191 C39.1961,86.3401 40.6041,87.4221 42.3241,87.4221 L93.3971,87.4221 C95.1171,87.4221 96.5251,86.3401 96.5251,85.0191 L97.9571,54.1881 C97.9571,52.8011 96.4811,51.6651 94.6741,51.6651 M94.6801,53.6651 C95.4611,53.6671 95.9101,54.0591 95.9551,54.1831 L94.5271,84.9261 C94.5261,84.9561 94.5311,84.9461 94.5311,84.9781 C94.4791,85.1031 94.0671,85.4221 93.3971,85.4221 L42.3241,85.4221 C41.6541,85.4221 41.2411,85.1031 41.1961,85.0191 C41.1961,84.9801 41.1951,84.9431 41.1941,84.9061 L39.7661,59.4241 C39.8241,59.2831 40.2741,58.9011 41.0531,58.9011 L66.2201,58.8371 C66.9751,58.8351 67.6641,58.4071 68.0031,57.7321 L69.3771,54.9881 C69.6011,54.5401 70.7591,53.8501 71.8551,53.8501 L94.6801,53.6651" id="Fill-98" fill="#0B567F" mask="url(#mask-6)"></path>
            </g>
        </g>
    </g>
</svg>