<?xml version="1.0" encoding="UTF-8" standalone="no"?>
<svg width="301px" height="194px" viewBox="0 0 301 194" version="1.1" xmlns="http://www.w3.org/2000/svg" xmlns:xlink="http://www.w3.org/1999/xlink">
    <!-- Generator: Sketch 50.2 (55047) - http://www.bohemiancoding.com/sketch -->
    <title>Group</title>
    <desc>Created with Sketch.</desc>
    <defs>
        <polygon id="path-1" points="0 194 300.67 194 300.67 0.856 0 0.856"></polygon>
    </defs>
    <g id="Page-1" stroke="none" stroke-width="1" fill="none" fill-rule="evenodd">
        <g id="optimization" transform="translate(-320.000000, -657.000000)">
            <g id="Group" transform="translate(320.000000, 656.000000)">
                <path d="M113.0629,97.6914 L33.6699,97.6914 L33.6699,136.8714" id="Stroke-1" stroke="#0B567F" stroke-width="4" stroke-linecap="round" stroke-linejoin="round" stroke-dasharray="0,9"></path>
                <g id="Group-67" transform="translate(0.000000, 0.144000)">
                    <path d="M275.976,97.1949 C275.976,93.2869 272.715,90.1079 268.707,90.1079 C265.576,90.1079 262.909,92.0519 261.888,94.7649 L197.448,94.7649 C196.765,92.9499 195.347,91.4809 193.542,90.7069 L193.542,26.3209 L187.716,26.3209 L187.716,90.7059 C185.91,91.4799 184.492,92.9489 183.809,94.7649 L121.882,94.7649 C120.862,92.0519 118.194,90.1079 115.063,90.1079 C111.055,90.1079 107.794,93.2869 107.794,97.1949 C107.794,100.0929 109.589,102.5859 112.15,103.6829 L112.15,156.1149 L117.977,156.1149 L117.977,103.6829 C119.541,103.0119 120.815,101.8179 121.572,100.3299 L184.12,100.3299 C184.876,101.8189 186.15,103.0129 187.716,103.6839 L187.716,168.7739 L193.542,168.7739 L193.542,103.6829 C195.107,103.0119 196.38,101.8179 197.137,100.3299 L262.199,100.3299 C262.955,101.8179 264.228,103.0119 265.793,103.6829 L265.793,156.1149 L271.621,156.1149 L271.621,103.6829 C274.181,102.5859 275.976,100.0929 275.976,97.1949" id="Fill-2" fill="#7996A5"></path>
                    <path d="M275.976,97.1949 C275.976,93.2869 272.715,90.1079 268.707,90.1079 C265.576,90.1079 262.909,92.0519 261.888,94.7649 L197.448,94.7649 C196.765,92.9499 195.347,91.4809 193.542,90.7069 L193.542,26.3209 L187.716,26.3209 L187.716,90.7059 C185.91,91.4799 184.492,92.9489 183.809,94.7649 L121.882,94.7649 C120.862,92.0519 118.194,90.1079 115.063,90.1079 C111.055,90.1079 107.794,93.2869 107.794,97.1949 C107.794,100.0929 109.589,102.5859 112.15,103.6829 L112.15,156.1149 L117.977,156.1149 L117.977,103.6829 C119.541,103.0119 120.815,101.8179 121.572,100.3299 L184.12,100.3299 C184.876,101.8189 186.15,103.0129 187.716,103.6839 L187.716,168.7739 L193.542,168.7739 L193.542,103.6829 C195.107,103.0119 196.38,101.8179 197.137,100.3299 L262.199,100.3299 C262.955,101.8179 264.228,103.0119 265.793,103.6829 L265.793,156.1149 L271.621,156.1149 L271.621,103.6829 C274.181,102.5859 275.976,100.0929 275.976,97.1949 Z" id="Stroke-4" stroke="#0B567F" stroke-width="2"></path>
                    <path d="M231.7943,38.8331 L224.4313,38.8331 C224.9793,37.1231 225.2753,35.2991 225.2753,33.4061 C225.2753,23.5961 217.3233,15.6441 207.5133,15.6441 C205.3663,15.6441 203.3083,16.0241 201.4033,16.7211 C199.3023,8.1871 191.5993,1.8561 182.4163,1.8561 C171.6153,1.8561 162.8603,10.6121 162.8603,21.4121 C162.8603,22.1631 162.9043,22.9031 162.9853,23.6311 C162.9143,23.6301 162.8433,23.6291 162.7703,23.6291 C154.2663,23.6291 147.3643,30.4871 147.2913,38.9721 C139.0473,40.0381 132.6783,47.0841 132.6783,55.6181 C132.6783,64.8891 140.1923,72.4041 149.4633,72.4041 C149.6923,72.4041 149.9213,72.3991 150.1483,72.3871 L150.1483,72.4041 L231.7943,72.4041 C241.0643,72.4041 248.5783,64.8891 248.5783,55.6181 C248.5783,46.3491 241.0643,38.8331 231.7943,38.8331" id="Fill-6" fill="#FFFFFF"></path>
                    <path d="M231.7943,38.8331 L224.4313,38.8331 C224.9793,37.1231 225.2753,35.2991 225.2753,33.4061 C225.2753,23.5961 217.3233,15.6441 207.5133,15.6441 C205.3663,15.6441 203.3083,16.0241 201.4033,16.7211 C199.3023,8.1871 191.5993,1.8561 182.4163,1.8561 C171.6153,1.8561 162.8603,10.6121 162.8603,21.4121 C162.8603,22.1631 162.9043,22.9031 162.9853,23.6311 C162.9143,23.6301 162.8433,23.6291 162.7703,23.6291 C154.2663,23.6291 147.3643,30.4871 147.2913,38.9721 C139.0473,40.0381 132.6783,47.0841 132.6783,55.6181 C132.6783,64.8891 140.1923,72.4041 149.4633,72.4041 C149.6923,72.4041 149.9213,72.3991 150.1483,72.3871 L150.1483,72.4041 L231.7943,72.4041 C241.0643,72.4041 248.5783,64.8891 248.5783,55.6181 C248.5783,46.3491 241.0643,38.8331 231.7943,38.8331 Z" id="Stroke-8" stroke="#0B567F" stroke-width="2" stroke-linecap="round"></path>
                    <path d="M24.2269,29.7379 L9.4419,29.7379 C8.3969,29.7379 7.5409,28.8829 7.5409,27.8369 C7.5409,26.7909 8.3969,25.9359 9.4419,25.9359 L24.2269,25.9359 C25.2729,25.9359 26.1279,26.7909 26.1279,27.8369 C26.1279,28.8829 25.2729,29.7379 24.2269,29.7379" id="Fill-10" fill="#FFFFFF"></path>
                    <path d="M24.2269,29.7379 L9.4419,29.7379 C8.3969,29.7379 7.5409,28.8829 7.5409,27.8369 C7.5409,26.7909 8.3969,25.9359 9.4419,25.9359 L24.2269,25.9359 C25.2729,25.9359 26.1279,26.7909 26.1279,27.8369 C26.1279,28.8829 25.2729,29.7379 24.2269,29.7379 Z" id="Stroke-12" stroke="#FFFFFF" stroke-width="2"></path>
                    <path d="M14.933,35.2291 L14.933,20.4441 C14.933,19.3991 15.788,18.5431 16.834,18.5431 C17.88,18.5431 18.736,19.3991 18.736,20.4441 L18.736,35.2291 C18.736,36.2751 17.88,37.1301 16.834,37.1301 C15.788,37.1301 14.933,36.2751 14.933,35.2291" id="Fill-14" fill="#FFFFFF"></path>
                    <path d="M14.933,35.2291 L14.933,20.4441 C14.933,19.3991 15.788,18.5431 16.834,18.5431 C17.88,18.5431 18.736,19.3991 18.736,20.4441 L18.736,35.2291 C18.736,36.2751 17.88,37.1301 16.834,37.1301 C15.788,37.1301 14.933,36.2751 14.933,35.2291 Z" id="Stroke-16" stroke="#FFFFFF" stroke-width="2"></path>
                    <path d="M66.1098,57.1734 L44.5858,57.1734 C43.2638,57.1734 42.1828,56.0924 42.1828,54.7714 L42.1828,54.1894 C42.1828,52.8684 43.2638,51.7874 44.5858,51.7874 L66.1098,51.7874 C67.4308,51.7874 68.5118,52.8684 68.5118,54.1894 L68.5118,54.7714 C68.5118,56.0924 67.4308,57.1734 66.1098,57.1734" id="Fill-18" fill="#FFFFFF"></path>
                    <path d="M66.1098,57.1734 L44.5858,57.1734 C43.2638,57.1734 42.1828,56.0924 42.1828,54.7714 L42.1828,54.1894 C42.1828,52.8684 43.2638,51.7874 44.5858,51.7874 L66.1098,51.7874 C67.4308,51.7874 68.5118,52.8684 68.5118,54.1894 L68.5118,54.7714 C68.5118,56.0924 67.4308,57.1734 66.1098,57.1734 Z" id="Stroke-20" stroke="#FFFFFF"></path>
                    <path d="M52.6537,65.2422 L52.6537,43.7182 C52.6537,42.3962 53.7347,41.3152 55.0557,41.3152 L55.6377,41.3152 C56.9597,41.3152 58.0407,42.3962 58.0407,43.7182 L58.0407,65.2422 C58.0407,66.5632 56.9597,67.6442 55.6377,67.6442 L55.0557,67.6442 C53.7347,67.6442 52.6537,66.5632 52.6537,65.2422" id="Fill-22" fill="#FFFFFF"></path>
                    <path d="M52.6537,65.2422 L52.6537,43.7182 C52.6537,42.3962 53.7347,41.3152 55.0557,41.3152 L55.6377,41.3152 C56.9597,41.3152 58.0407,42.3962 58.0407,43.7182 L58.0407,65.2422 C58.0407,66.5632 56.9597,67.6442 55.6377,67.6442 L55.0557,67.6442 C53.7347,67.6442 52.6537,66.5632 52.6537,65.2422 Z" id="Stroke-24" stroke="#FFFFFF"></path>
                    <mask id="mask-2" fill="white">
                        <use xlink:href="#path-1"></use>
                    </mask>
                    <g id="Clip-27"></g>
                    <polygon id="Fill-26" fill="#7996A5" mask="url(#mask-2)" points="259.817 186.454 274.264 186.454 274.264 176.315 259.817 176.315"></polygon>
                    <polygon id="Stroke-28" stroke="#0B567F" stroke-width="2" mask="url(#mask-2)" points="259.817 186.454 274.264 186.454 274.264 176.315 259.817 176.315"></polygon>
                    <path d="M274.8861,131.252 L295.1641,131.252 C296.3601,131.252 297.5051,131.727 298.3511,132.572 C299.1961,133.417 299.6701,134.563 299.6701,135.758 L299.6701,174.062 C299.6701,175.257 299.1961,176.403 298.3511,177.248 C297.5051,178.093 296.3601,178.568 295.1641,178.568 L238.8361,178.568 C237.6411,178.568 236.4941,178.093 235.6491,177.248 C234.8041,176.403 234.3291,175.257 234.3291,174.062 L234.3291,135.758 C234.3291,134.563 234.8041,133.417 235.6491,132.572 C236.4941,131.727 237.6411,131.252 238.8361,131.252 L274.8861,131.252 Z" id="Fill-29" fill="#B6C4CE" mask="url(#mask-2)"></path>
                    <path d="M274.8861,131.252 L295.1641,131.252 C296.3601,131.252 297.5051,131.727 298.3511,132.572 C299.1961,133.417 299.6701,134.563 299.6701,135.758 L299.6701,174.062 C299.6701,175.257 299.1961,176.403 298.3511,177.248 C297.5051,178.093 296.3601,178.568 295.1641,178.568 L238.8361,178.568 C237.6411,178.568 236.4941,178.093 235.6491,177.248 C234.8041,176.403 234.3291,175.257 234.3291,174.062 L234.3291,135.758 C234.3291,134.563 234.8041,133.417 235.6491,132.572 C236.4941,131.727 237.6411,131.252 238.8361,131.252 L274.8861,131.252 Z" id="Stroke-30" stroke="#0B567F" stroke-width="2" stroke-linecap="round" mask="url(#mask-2)"></path>
                    <path d="M254.7152,188.086 L279.2842,188.086 C281.9982,188.086 284.1982,190.286 284.1982,193 L249.8022,193 C249.8022,190.286 252.0012,188.086 254.7152,188.086" id="Fill-31" fill="#B6C4CE" mask="url(#mask-2)"></path>
                    <path d="M254.7152,188.086 L279.2842,188.086 C281.9982,188.086 284.1982,190.286 284.1982,193 L249.8022,193 C249.8022,190.286 252.0012,188.086 254.7152,188.086 Z" id="Stroke-32" stroke="#0B567F" stroke-width="2" stroke-linecap="round" mask="url(#mask-2)"></path>
                    <path d="M291.8793,136.8731 L273.5803,136.8731 L242.3653,136.8731 C241.1783,136.8761 240.2163,137.7191 240.2133,138.7601 L240.2133,167.0631 C240.2163,168.1041 241.1783,168.9471 242.3653,168.9501 L273.5803,168.9501 L291.8793,168.9501 C293.0663,168.9471 294.0273,168.1041 294.0313,167.0631 L294.0313,152.9121 L294.0313,138.7601 C294.0273,137.7191 293.0663,136.8761 291.8793,136.8731" id="Fill-33" fill="#F9912B" mask="url(#mask-2)"></path>
                    <path d="M291.8793,136.8731 L273.5803,136.8731 L242.3653,136.8731 C241.1783,136.8761 240.2163,137.7191 240.2133,138.7601 L240.2133,167.0631 C240.2163,168.1041 241.1783,168.9471 242.3653,168.9501 L273.5803,168.9501 L291.8793,168.9501 C293.0663,168.9471 294.0273,168.1041 294.0313,167.0631 L294.0313,152.9121 L294.0313,138.7601 C294.0273,137.7191 293.0663,136.8761 291.8793,136.8731 Z" id="Stroke-34" stroke="#0B567F" stroke-width="2" stroke-linecap="round" stroke-linejoin="round" mask="url(#mask-2)"></path>
                    <path d="M269.0189,174.2344 C269.0189,175.2814 268.1699,176.1304 267.1229,176.1304 C266.0749,176.1304 265.2259,175.2814 265.2259,174.2344 C265.2259,173.1864 266.0749,172.3374 267.1229,172.3374 C268.1699,172.3374 269.0189,173.1864 269.0189,174.2344" id="Fill-35" fill="#FFFFFF" mask="url(#mask-2)"></path>
                    <path d="M269.0189,174.2344 C269.0189,175.2814 268.1699,176.1304 267.1229,176.1304 C266.0749,176.1304 265.2259,175.2814 265.2259,174.2344 C265.2259,173.1864 266.0749,172.3374 267.1229,172.3374 C268.1699,172.3374 269.0189,173.1864 269.0189,174.2344 Z" id="Stroke-36" stroke="#456877" stroke-width="1.5" stroke-linecap="round" mask="url(#mask-2)"></path>
                    <polygon id="Fill-37" fill="#7996A5" mask="url(#mask-2)" points="184.017 186.454 198.464 186.454 198.464 176.315 184.017 176.315"></polygon>
                    <polygon id="Stroke-38" stroke="#0B567F" stroke-width="2" mask="url(#mask-2)" points="184.017 186.454 198.464 186.454 198.464 176.315 184.017 176.315"></polygon>
                    <path d="M199.0853,131.252 L219.3633,131.252 C220.5593,131.252 221.7053,131.727 222.5503,132.572 C223.3953,133.417 223.8703,134.563 223.8693,135.758 L223.8693,174.062 C223.8703,175.257 223.3953,176.403 222.5503,177.248 C221.7053,178.093 220.5593,178.568 219.3633,178.568 L163.0353,178.568 C161.8403,178.568 160.6933,178.093 159.8493,177.248 C159.0033,176.403 158.5283,175.257 158.5283,174.062 L158.5283,135.758 C158.5283,134.563 159.0033,133.417 159.8493,132.572 C160.6933,131.727 161.8403,131.252 163.0353,131.252 L199.0853,131.252 Z" id="Fill-39" fill="#B6C4CE" mask="url(#mask-2)"></path>
                    <path d="M199.0853,131.252 L219.3633,131.252 C220.5593,131.252 221.7053,131.727 222.5503,132.572 C223.3953,133.417 223.8703,134.563 223.8693,135.758 L223.8693,174.062 C223.8703,175.257 223.3953,176.403 222.5503,177.248 C221.7053,178.093 220.5593,178.568 219.3633,178.568 L163.0353,178.568 C161.8403,178.568 160.6933,178.093 159.8493,177.248 C159.0033,176.403 158.5283,175.257 158.5283,174.062 L158.5283,135.758 C158.5283,134.563 159.0033,133.417 159.8493,132.572 C160.6933,131.727 161.8403,131.252 163.0353,131.252 L199.0853,131.252 Z" id="Stroke-40" stroke="#0B567F" stroke-width="2" stroke-linecap="round" mask="url(#mask-2)"></path>
                    <path d="M178.9144,188.086 L203.4834,188.086 C206.1974,188.086 208.3974,190.286 208.3974,193 L174.0014,193 C174.0014,190.286 176.2004,188.086 178.9144,188.086" id="Fill-41" fill="#B6C4CE" mask="url(#mask-2)"></path>
                    <path d="M178.9144,188.086 L203.4834,188.086 C206.1974,188.086 208.3974,190.286 208.3974,193 L174.0014,193 C174.0014,190.286 176.2004,188.086 178.9144,188.086 Z" id="Stroke-42" stroke="#0B567F" stroke-width="2" stroke-linecap="round" mask="url(#mask-2)"></path>
                    <path d="M216.0785,136.8731 L197.7795,136.8731 L166.5645,136.8731 C165.3775,136.8761 164.4165,137.7191 164.4125,138.7601 L164.4125,167.0631 C164.4165,168.1041 165.3775,168.9471 166.5645,168.9501 L197.7795,168.9501 L216.0785,168.9501 C217.2655,168.9471 218.2275,168.1041 218.2305,167.0631 L218.2305,152.9121 L218.2305,138.7601 C218.2275,137.7191 217.2655,136.8761 216.0785,136.8731" id="Fill-43" fill="#F9912B" mask="url(#mask-2)"></path>
                    <path d="M216.0785,136.8731 L197.7795,136.8731 L166.5645,136.8731 C165.3775,136.8761 164.4165,137.7191 164.4125,138.7601 L164.4125,167.0631 C164.4165,168.1041 165.3775,168.9471 166.5645,168.9501 L197.7795,168.9501 L216.0785,168.9501 C217.2655,168.9471 218.2275,168.1041 218.2305,167.0631 L218.2305,152.9121 L218.2305,138.7601 C218.2275,137.7191 217.2655,136.8761 216.0785,136.8731 Z" id="Stroke-44" stroke="#0B567F" stroke-width="2" stroke-linecap="round" stroke-linejoin="round" mask="url(#mask-2)"></path>
                    <path d="M193.2191,174.2344 C193.2191,175.2814 192.3691,176.1304 191.3221,176.1304 C190.2741,176.1304 189.4251,175.2814 189.4251,174.2344 C189.4251,173.1864 190.2741,172.3374 191.3221,172.3374 C192.3691,172.3374 193.2191,173.1864 193.2191,174.2344" id="Fill-45" fill="#FFFFFF" mask="url(#mask-2)"></path>
                    <path d="M193.2191,174.2344 C193.2191,175.2814 192.3691,176.1304 191.3221,176.1304 C190.2741,176.1304 189.4251,175.2814 189.4251,174.2344 C189.4251,173.1864 190.2741,172.3374 191.3221,172.3374 C192.3691,172.3374 193.2191,173.1864 193.2191,174.2344 Z" id="Stroke-46" stroke="#456877" stroke-width="1.5" stroke-linecap="round" mask="url(#mask-2)"></path>
                    <polygon id="Fill-47" fill="#7996A5" mask="url(#mask-2)" points="107.88 186.454 122.327 186.454 122.327 176.315 107.88 176.315"></polygon>
                    <polygon id="Stroke-48" stroke="#0B567F" stroke-width="2" mask="url(#mask-2)" points="107.88 186.454 122.327 186.454 122.327 176.315 107.88 176.315"></polygon>
                    <path d="M122.9486,131.252 L143.2266,131.252 C144.4226,131.252 145.5686,131.727 146.4136,132.572 C147.2596,133.417 147.7336,134.563 147.7326,135.758 L147.7326,174.062 C147.7336,175.257 147.2586,176.403 146.4136,177.248 C145.5686,178.093 144.4226,178.568 143.2266,178.568 L86.8986,178.568 C85.7036,178.568 84.5566,178.093 83.7126,177.248 C82.8666,176.403 82.3916,175.257 82.3916,174.062 L82.3916,135.758 C82.3916,134.563 82.8666,133.417 83.7126,132.572 C84.5566,131.727 85.7036,131.252 86.8986,131.252 L122.9486,131.252 Z" id="Fill-49" fill="#B6C4CE" mask="url(#mask-2)"></path>
                    <path d="M122.9486,131.252 L143.2266,131.252 C144.4226,131.252 145.5686,131.727 146.4136,132.572 C147.2596,133.417 147.7336,134.563 147.7326,135.758 L147.7326,174.062 C147.7336,175.257 147.2586,176.403 146.4136,177.248 C145.5686,178.093 144.4226,178.568 143.2266,178.568 L86.8986,178.568 C85.7036,178.568 84.5566,178.093 83.7126,177.248 C82.8666,176.403 82.3916,175.257 82.3916,174.062 L82.3916,135.758 C82.3916,134.563 82.8666,133.417 83.7126,132.572 C84.5566,131.727 85.7036,131.252 86.8986,131.252 L122.9486,131.252 Z" id="Stroke-50" stroke="#0B567F" stroke-width="2" stroke-linecap="round" mask="url(#mask-2)"></path>
                    <path d="M102.7777,188.086 L127.3467,188.086 C130.0607,188.086 132.2607,190.286 132.2607,193 L97.8647,193 C97.8647,190.286 100.0647,188.086 102.7777,188.086" id="Fill-51" fill="#B6C4CE" mask="url(#mask-2)"></path>
                    <path d="M102.7777,188.086 L127.3467,188.086 C130.0607,188.086 132.2607,190.286 132.2607,193 L97.8647,193 C97.8647,190.286 100.0647,188.086 102.7777,188.086 Z" id="Stroke-52" stroke="#0B567F" stroke-width="2" stroke-linecap="round" mask="url(#mask-2)"></path>
                    <path d="M139.9418,136.8731 L121.6428,136.8731 L90.4278,136.8731 C89.2408,136.8761 88.2798,137.7191 88.2758,138.7601 L88.2758,167.0631 C88.2798,168.1041 89.2408,168.9471 90.4278,168.9501 L121.6428,168.9501 L139.9418,168.9501 C141.1288,168.9471 142.0908,168.1041 142.0938,167.0631 L142.0938,152.9121 L142.0938,138.7601 C142.0908,137.7191 141.1288,136.8761 139.9418,136.8731" id="Fill-53" fill="#F9912B" mask="url(#mask-2)"></path>
                    <path d="M139.9418,136.8731 L121.6428,136.8731 L90.4278,136.8731 C89.2408,136.8761 88.2798,137.7191 88.2758,138.7601 L88.2758,167.0631 C88.2798,168.1041 89.2408,168.9471 90.4278,168.9501 L121.6428,168.9501 L139.9418,168.9501 C141.1288,168.9471 142.0908,168.1041 142.0938,167.0631 L142.0938,152.9121 L142.0938,138.7601 C142.0908,137.7191 141.1288,136.8761 139.9418,136.8731 Z" id="Stroke-54" stroke="#0B567F" stroke-width="2" stroke-linecap="round" stroke-linejoin="round" mask="url(#mask-2)"></path>
                    <path d="M117.0824,174.2344 C117.0824,175.2814 116.2324,176.1304 115.1854,176.1304 C114.1374,176.1304 113.2884,175.2814 113.2884,174.2344 C113.2884,173.1864 114.1374,172.3374 115.1854,172.3374 C116.2324,172.3374 117.0824,173.1864 117.0824,174.2344" id="Fill-55" fill="#FFFFFF" mask="url(#mask-2)"></path>
                    <path d="M117.0824,174.2344 C117.0824,175.2814 116.2324,176.1304 115.1854,176.1304 C114.1374,176.1304 113.2884,175.2814 113.2884,174.2344 C113.2884,173.1864 114.1374,172.3374 115.1854,172.3374 C116.2324,172.3374 117.0824,173.1864 117.0824,174.2344 Z" id="Stroke-56" stroke="#456877" stroke-width="1.5" stroke-linecap="round" mask="url(#mask-2)"></path>
                    <polygon id="Fill-57" fill="#7996A5" mask="url(#mask-2)" points="26.488 186.454 40.935 186.454 40.935 176.315 26.488 176.315"></polygon>
                    <polygon id="Stroke-58" stroke="#0B567F" stroke-width="2" mask="url(#mask-2)" points="26.488 186.454 40.935 186.454 40.935 176.315 26.488 176.315"></polygon>
                    <path d="M41.556,131.252 L61.834,131.252 C63.03,131.252 64.176,131.727 65.021,132.572 C65.867,133.417 66.341,134.563 66.34,135.758 L66.34,174.062 C66.341,175.257 65.867,176.403 65.021,177.248 C64.176,178.093 63.03,178.568 61.834,178.568 L5.506,178.568 C4.311,178.568 3.164,178.093 2.32,177.248 C1.474,176.403 0.999,175.257 1,174.062 L1,135.758 C0.999,134.563 1.474,133.417 2.32,132.572 C3.164,131.727 4.311,131.252 5.506,131.252 L41.556,131.252 Z" id="Fill-59" fill="#B6C4CE" mask="url(#mask-2)"></path>
                    <path d="M41.556,131.252 L61.834,131.252 C63.03,131.252 64.176,131.727 65.021,132.572 C65.867,133.417 66.341,134.563 66.34,135.758 L66.34,174.062 C66.341,175.257 65.867,176.403 65.021,177.248 C64.176,178.093 63.03,178.568 61.834,178.568 L5.506,178.568 C4.311,178.568 3.164,178.093 2.32,177.248 C1.474,176.403 0.999,175.257 1,174.062 L1,135.758 C0.999,134.563 1.474,133.417 2.32,132.572 C3.164,131.727 4.311,131.252 5.506,131.252 L41.556,131.252 Z" id="Stroke-60" stroke="#0B567F" stroke-width="2" stroke-linecap="round" mask="url(#mask-2)"></path>
                    <path d="M21.3861,188.086 L45.9541,188.086 C48.6681,188.086 50.8681,190.286 50.8681,193 L16.4721,193 C16.4721,190.286 18.6721,188.086 21.3861,188.086" id="Fill-61" fill="#B6C4CE" mask="url(#mask-2)"></path>
                    <path d="M21.3861,188.086 L45.9541,188.086 C48.6681,188.086 50.8681,190.286 50.8681,193 L16.4721,193 C16.4721,190.286 18.6721,188.086 21.3861,188.086 Z" id="Stroke-62" stroke="#0B567F" stroke-width="2" stroke-linecap="round" mask="url(#mask-2)"></path>
                    <path d="M58.5492,136.8731 L40.2512,136.8731 L9.0362,136.8731 C7.8492,136.8761 6.8872,137.7191 6.8832,138.7601 L6.8832,167.0631 C6.8872,168.1041 7.8492,168.9471 9.0362,168.9501 L40.2512,168.9501 L58.5492,168.9501 C59.7362,168.9471 60.6982,168.1041 60.7022,167.0631 L60.7022,152.9121 L60.7022,138.7601 C60.6982,137.7191 59.7362,136.8761 58.5492,136.8731" id="Fill-63" fill="#0B567F" mask="url(#mask-2)"></path>
                    <path d="M58.5492,136.8731 L40.2512,136.8731 L9.0362,136.8731 C7.8492,136.8761 6.8872,137.7191 6.8832,138.7601 L6.8832,167.0631 C6.8872,168.1041 7.8492,168.9471 9.0362,168.9501 L40.2512,168.9501 L58.5492,168.9501 C59.7362,168.9471 60.6982,168.1041 60.7022,167.0631 L60.7022,152.9121 L60.7022,138.7601 C60.6982,137.7191 59.7362,136.8761 58.5492,136.8731 Z" id="Stroke-64" stroke="#0B567F" mask="url(#mask-2)"></path>
                    <path d="M35.6898,174.2344 C35.6898,175.2814 34.8398,176.1304 33.7928,176.1304 C32.7458,176.1304 31.8958,175.2814 31.8958,174.2344 C31.8958,173.1864 32.7458,172.3374 33.7928,172.3374 C34.8398,172.3374 35.6898,173.1864 35.6898,174.2344" id="Fill-65" fill="#FFFFFF" mask="url(#mask-2)"></path>
                    <path d="M35.6898,174.2344 C35.6898,175.2814 34.8398,176.1304 33.7928,176.1304 C32.7458,176.1304 31.8958,175.2814 31.8958,174.2344 C31.8958,173.1864 32.7458,172.3374 33.7928,172.3374 C34.8398,172.3374 35.6898,173.1864 35.6898,174.2344 Z" id="Stroke-66" stroke="#456877" stroke-width="1.5" stroke-linecap="round" mask="url(#mask-2)"></path>
                </g>
            </g>
        </g>
    </g>
</svg>