<?xml version="1.0" encoding="utf-8"?>
<!-- Generator: Adobe Illustrator 22.0.1, SVG Export Plug-In . SVG Version: 6.00 Build 0)  -->
<svg version="1.1" id="圖層_1" xmlns="http://www.w3.org/2000/svg" xmlns:xlink="http://www.w3.org/1999/xlink" x="0px" y="0px"
	 viewBox="0 0 100 112" style="enable-background:new 0 0 100 112;" xml:space="preserve">
<style type="text/css">
	.st0{fill:#FFDA2C;}
	.st1{enable-background:new    ;}
	.st2{fill:#14A1F0;}
	.st3{font-family:'PingFangTC-Medium-B5pc-H';}
	.st4{font-size:16px;}
</style>
<title>Group 2</title>
<desc>Created with Sketch.</desc>
<g id="Page-1">
	<g id="Atlas" transform="translate(-770.000000, -3096.000000)">
		<g id="Group-2" transform="translate(778.000000, 3104.000000)">
			<circle id="Oval-4_1_" class="st0" cx="42" cy="42" r="42"/>
			<g class="st1">
				<path class="st2" d="M25.1,43v1.3H18v7.4h-1.5v-1.3c-1.3,0.2-3.1,0.4-5.4,0.6l-0.2-1.3l1.4-0.1v-5.3h-1.4V43H25.1z M23.3,42.3
					h-1.5v-3.8h-7.4v3.8h-1.5v-5h10.4V42.3z M16.5,45.2v-0.9h-2.8v0.9H16.5z M16.5,47.2v-1h-2.8v1H16.5z M16.5,49.1v-0.8h-2.8v1.1
					C14.8,49.4,15.7,49.3,16.5,49.1z M21.3,41.1v1h-6.4v-1H21.3z M21.2,39.3v1h-6.3v-1H21.2z M18.7,46.3V45h5.6v1.2
					c-0.3,1.1-0.8,2.1-1.5,3c0.7,0.5,1.5,0.9,2.4,1.3l-0.8,1.3c-1-0.5-1.9-1-2.6-1.6c-0.8,0.6-1.7,1.2-2.8,1.6l-0.8-1.2
					c1-0.4,1.8-0.8,2.5-1.4c-0.8-0.9-1.3-1.8-1.6-2.8H18.7z M22.9,46.3h-2.4c0.3,0.7,0.7,1.4,1.2,2C22.2,47.6,22.6,47,22.9,46.3z"/>
			</g>
			<text transform="matrix(1 0 0 1 26 50)" class="st2 st3 st4"> </text>
			<g class="st1">
				<path class="st2" d="M26.9,44.7l-0.4-1.2c1.7-1.9,3-4.1,3.8-6.6l1.1,0.5c-0.4,1.2-1,2.4-1.6,3.6v10.7h-1.2v-8.9
					C28.1,43.4,27.6,44,26.9,44.7z M35.5,46.1v-2h1.2v2h3.7v1.1h-3.7v2.7h4.6v1.1H30.9v-1.1h4.6v-2.7h-3.6v-1.1H35.5z M35.5,38.9
					v-1.9h1.2v1.9h3.5V40h-3.5v2.4H41v1.1h-9.8v-1.1h4.3V40H32v-1.1H35.5z"/>
			</g>
			<text transform="matrix(1 0 0 1 42 50)" class="st2 st3 st4"> </text>
			<g class="st1">
				<path class="st2" d="M47.6,44.9c-0.4,0.2-0.9,0.4-1.4,0.6v4.4c0,1-0.5,1.6-1.6,1.6h-1.4l-0.3-1.5c0.4,0.1,0.8,0.1,1.2,0.1
					c0.4,0,0.6-0.2,0.6-0.6v-3.4c-0.6,0.2-1.2,0.4-1.8,0.6l-0.4-1.5c0.8-0.2,1.5-0.4,2.2-0.6v-3.4h-1.9v-1.5h1.9v-2.8h1.5v2.8h1.5
					v1.5h-1.5V44c0.5-0.2,0.9-0.4,1.4-0.6V44.9z M50.4,51.6h-1.5v-8.9c-0.3,0.5-0.7,0.9-1,1.4l-0.5-1.6c1.3-1.7,2.2-3.5,2.7-5.6
					l1.5,0.3c-0.2,0.8-0.5,1.6-0.8,2.3h2.4c-0.3-0.8-0.5-1.5-0.9-2.3l1.5-0.4c0.4,1,0.6,1.9,0.8,2.7H57V41h-2.6v1.8h2.3v1.4h-2.3V46
					h2.3v1.4h-2.3v2h2.8v1.5h-6.8V51.6z M50.4,41v1.8h2.5V41H50.4z M50.4,46h2.5v-1.8h-2.5V46z M50.4,49.4h2.5v-2h-2.5V49.4z"/>
				<path class="st2" d="M63.5,47.4h9.2c-0.1,2-0.4,3.2-0.6,3.6c-0.3,0.4-1,0.6-1.9,0.6c-0.2,0-0.4,0-0.7-0.1l-0.3-1.1l-0.1,0
					c-0.2-0.5-0.5-1-0.8-1.5l1-0.3c0.4,0.5,0.6,1,0.8,1.4l-0.7,0.3c0.3,0,0.5,0.1,0.7,0.1c0.4,0,0.6-0.1,0.8-0.3s0.2-0.7,0.3-1.7
					h-9.3l0.8-3.4h-1.5c-0.1,2.7-0.5,4.9-1.5,6.6l-1.2-1c0.8-1.3,1.2-3.2,1.2-5.7v-4.7h5.7c-0.1-0.3-0.2-0.5-0.4-0.8l1.5-0.2
					c0.1,0.3,0.2,0.6,0.4,1h6v1.2h-4.1v0.8h3.5v2.8h-8.3l-0.1,0.6h9.1v1h-9.4L63.5,47.4z M62.4,37.8v-0.9h1.4v0.9h1.8V39h-1.8v0.9
					h-1.4V39h-3.3v-1.2H62.4z M63.3,49.4c-0.4,0.9-0.8,1.7-1.3,2.3l-1.1-0.8c0.5-0.6,0.9-1.3,1.3-2.1L63.3,49.4z M61.2,41.5v0.8h2.6
					v-0.8H61.2z M61.2,44h2.6v-0.8h-2.6V44z M65.7,51.2l-1.2,0.4c-0.2-0.8-0.4-1.6-0.7-2.3l1.1-0.3C65.3,49.8,65.5,50.5,65.7,51.2z
					 M65.2,41.5v0.8h2.4v-0.8H65.2z M65.2,44h2.4v-0.8h-2.4V44z M68.1,50.8l-1.2,0.4c-0.3-0.7-0.6-1.4-0.9-2.1l1.1-0.3
					C67.5,49.6,67.8,50.2,68.1,50.8z M69.6,36.9v0.9H73V39h-3.3v0.9h-1.4V39h-1.8v-1.2h1.8v-0.9H69.6z M68.9,44H71v-0.8h-2.1V44z"/>
			</g>
			<text transform="matrix(1 0 0 1 74 50)" class="st2 st3 st4"> </text>
			<g class="st1">
				<path class="st2" d="M33.7,59.1c-0.3-0.6-0.7-1.2-1.1-1.8l1.4-0.5c0.4,0.7,0.8,1.4,1.2,2.3h5.9v1.5h-8.3l-0.1,2.5h6.6
					c0,3.4-0.2,5.6-0.4,6.5c-0.4,1.3-1.2,1.9-2.4,2c-0.5,0-1.1,0-1.8-0.1l-0.4-1.4c0.8,0,1.6,0.1,2.1,0.1c0.7,0,1.1-0.5,1.3-1.5
					c0.1-0.5,0.1-1.9,0.2-4.1h-5.2c-0.2,1.2-0.6,2.4-1.2,3.4c-0.8,1.4-1.9,2.6-3.3,3.8l-1.1-1.1c1.7-1.4,2.8-2.7,3.4-4
					c0.5-1.2,0.8-2.6,0.9-4.1c0-0.9,0.1-1.6,0.1-2h-4.4v-1.5H33.7z"/>
				<path class="st2" d="M49.3,66.3v-1.2h1.5v1.2h6.1v1.3h-6.1v4h-1.5v-4h-6.2v-1.3H49.3z M47.9,68.8c-1.1,1-2.4,1.9-3.9,2.6
					l-0.9-1.2c1.5-0.6,2.8-1.4,3.8-2.3L47.9,68.8z M50.2,59.9c-0.2,0.3-0.5,0.6-0.7,0.8h6.9v1.2h-2.6c-0.5,0.6-1,1.2-1.6,1.6
					c1.3,0.3,2.7,0.7,4.1,1.2l-0.9,1.2c-1.6-0.5-3.1-1-4.7-1.5c-1.7,0.8-3.9,1.2-6.5,1.2l-0.8-1.2c2.2,0,4-0.2,5.3-0.5
					c-1-0.2-2-0.4-3-0.6c0.4-0.4,0.8-0.9,1.2-1.3h-3.2v-1.2h4.3c0.3-0.4,0.7-0.8,1-1.2L50.2,59.9z M56.5,60.4h-1.4v-1.1H44.9v1.1
					h-1.4V58h5.7c-0.2-0.4-0.4-0.7-0.6-1l1.6-0.3c0.2,0.4,0.4,0.8,0.6,1.3h5.8V60.4z M52.1,61.9h-3.6c-0.2,0.2-0.4,0.5-0.6,0.7
					c0.9,0.1,1.8,0.3,2.7,0.5C51.2,62.8,51.7,62.4,52.1,61.9z M56.7,70.3l-1.1,1.1c-0.8-0.8-2-1.7-3.5-2.6l0.9-0.9
					C54.5,68.7,55.8,69.5,56.7,70.3z"/>
			</g>
			<polygon id="Triangle_1_" class="st0" points="42,97 51,81 33,81 			"/>
			<g class="st1">
				<path class="st2" d="M48.4,21.9c0.1,0.3,0.1,0.5,0.1,0.8c0,0.6-0.2,1.2-0.4,1.7c0,0.2,0,0.3,0,0.5c0,0.8-0.2,1.5-0.7,2.1
					c0,2.2-1.5,3.5-3.7,3.5h-0.4h-1.1c-1.7,0-3.2-0.5-4.8-1c-0.3-0.1-1.3-0.5-1.6-0.5h-3.4c-0.8,0-1.5-0.7-1.5-1.5V20
					c0-0.8,0.7-1.5,1.5-1.5h3.2c0.5-0.3,1.3-1.4,1.6-1.8c0.4-0.5,0.8-1,1.3-1.5c0.7-0.8,0.3-2.6,1.5-3.8c0.3-0.3,0.7-0.4,1.1-0.4
					c1.2,0,2.4,0.4,3,1.6c0.4,0.7,0.4,1.4,0.4,2.2s-0.2,1.5-0.6,2.2H46c1.6,0,3,1.4,3,3C49,20.7,48.8,21.3,48.4,21.9z M33.2,26
					c-0.4,0-0.8,0.3-0.8,0.8s0.3,0.8,0.8,0.8s0.8-0.3,0.8-0.8S33.7,26,33.2,26z M46,18.5h-4.1c0-1.4,1.1-2.4,1.1-3.7
					c0-1.4-0.3-2.2-1.9-2.2c-0.8,0.8-0.4,2.6-1.5,3.7c-0.3,0.3-0.6,0.7-0.9,1.1C38.2,18,36.8,20,35.9,20h-0.4v7.5h0.4
					c0.7,0,1.7,0.4,2.4,0.6c1.3,0.4,2.6,0.9,4,0.9h1.4c1.3,0,2.2-0.5,2.2-2c0-0.2,0-0.4-0.1-0.7c0.5-0.3,0.8-0.9,0.8-1.5
					c0-0.3-0.1-0.6-0.2-0.8c0.4-0.4,0.6-0.8,0.6-1.4c0-0.4-0.2-0.9-0.4-1.2c0.6,0,0.9-1.1,0.9-1.5C47.5,19.2,46.8,18.5,46,18.5z"/>
			</g>
		</g>
	</g>
</g>
</svg>
