<?xml version="1.0" encoding="utf-8"?>
<!-- Generator: Adobe Illustrator 22.0.1, SVG Export Plug-In . SVG Version: 6.00 Build 0)  -->
<svg version="1.1" id="圖層_1" xmlns="http://www.w3.org/2000/svg" xmlns:xlink="http://www.w3.org/1999/xlink" x="0px" y="0px"
	 viewBox="0 0 100 112" style="enable-background:new 0 0 100 112;" xml:space="preserve">
<style type="text/css">
	.st0{filter:url(#filter-1);}
	.st1{fill:#FFDA2C;}
	.st2{fill:#14A1F0;}
	.st3{font-family:'PingFangTC-Medium-B5pc-H';}
	.st4{font-size:16px;}
	.st5{font-family:'PingFangTC-Regular-B5pc-H';}
	.st6{font-family:'PingFangHK-Medium-B5pc-H';}
	.st7{enable-background:new    ;}
</style>
<filter  filterUnits="objectBoundingBox" height="124.7%" id="filter-1" width="128.6%" x="-14.3%" y="-12.4%">
	<feOffset  dx="0" dy="0" in="SourceAlpha" result="shadowOffsetOuter1"></feOffset>
	<feGaussianBlur  in="shadowOffsetOuter1" result="shadowBlurOuter1" stdDeviation="4"></feGaussianBlur>
	
		<feColorMatrix  in="shadowBlurOuter1" result="shadowMatrixOuter1" type="matrix" values="0 0 0 0 0.64317602   0 0 0 0 0.64317602   0 0 0 0 0.64317602  0 0 0 0.5 0">
		</feColorMatrix>
	<feMerge>
		<feMergeNode  in="shadowMatrixOuter1"></feMergeNode>
		<feMergeNode  in="SourceGraphic"></feMergeNode>
	</feMerge>
</filter>
<title>Group 2</title>
<desc>Created with Sketch.</desc>
<g id="Page-1">
	<g id="Atlas" transform="translate(-770.000000, -3096.000000)">
		<g id="Group-2" transform="translate(778.000000, 3104.000000)" class="st0">
			<circle id="Oval-4_1_" class="st1" cx="42" cy="42" r="42"/>
			<text transform="matrix(1 0 0 1 10 50)" class="st2 st3 st4">最</text>
			<text transform="matrix(1 0 0 1 26 50)" class="st2 st3 st4"> </text>
			<text transform="matrix(1 0 0 1 26 50)" class="st2 st5 st4">佳</text>
			<text transform="matrix(1 0 0 1 42 50)" class="st2 st3 st4"> </text>
			<text transform="matrix(1 0 0 1 42 50)" class="st2 st6 st4">推薦</text>
			<text transform="matrix(1 0 0 1 74 50)" class="st2 st3 st4"> </text>
			<text transform="matrix(1 0 0 1 26 70)" class="st2 st3 st4">方案</text>
			<polygon id="Triangle_1_" class="st1" points="42,97 51,81 33,81 			"/>
			<g class="st7">
				<path class="st2" d="M48.4,21.9c0.1,0.3,0.1,0.5,0.1,0.8c0,0.6-0.2,1.2-0.4,1.7c0,0.2,0,0.3,0,0.5c0,0.8-0.2,1.5-0.7,2.1
					c0,2.2-1.5,3.5-3.7,3.5h-0.4h-1.1c-1.7,0-3.2-0.5-4.8-1c-0.3-0.1-1.3-0.5-1.6-0.5h-3.4c-0.8,0-1.5-0.7-1.5-1.5V20
					c0-0.8,0.7-1.5,1.5-1.5h3.2c0.5-0.3,1.3-1.4,1.6-1.8c0.4-0.5,0.8-1,1.3-1.5c0.7-0.8,0.3-2.6,1.5-3.8c0.3-0.3,0.7-0.4,1.1-0.4
					c1.2,0,2.4,0.4,3,1.6c0.4,0.7,0.4,1.4,0.4,2.2c0,0.8-0.2,1.5-0.6,2.2H46c1.6,0,3,1.4,3,3C49,20.7,48.8,21.3,48.4,21.9z M33.2,26
					c-0.4,0-0.8,0.3-0.8,0.8s0.3,0.8,0.8,0.8s0.8-0.3,0.8-0.8S33.7,26,33.2,26z M46,18.5h-4.1c0-1.4,1.1-2.4,1.1-3.7
					c0-1.4-0.3-2.2-1.9-2.2c-0.8,0.8-0.4,2.6-1.5,3.7c-0.3,0.3-0.6,0.7-0.9,1.1C38.2,18,36.8,20,35.9,20h-0.4v7.5h0.4
					c0.7,0,1.7,0.4,2.4,0.6c1.3,0.4,2.6,0.9,4,0.9h1.4c1.3,0,2.2-0.5,2.2-2c0-0.2,0-0.4-0.1-0.7c0.5-0.3,0.8-0.9,0.8-1.5
					c0-0.3-0.1-0.6-0.2-0.8c0.4-0.4,0.6-0.8,0.6-1.4c0-0.4-0.2-0.9-0.4-1.2c0.6,0,0.9-1.1,0.9-1.5C47.5,19.2,46.8,18.5,46,18.5z"/>
			</g>
		</g>
	</g>
</g>
</svg>
