<?xml version="1.0" encoding="UTF-8" standalone="no"?>
<svg width="100px" height="112px" viewBox="0 0 100 112" version="1.1" xmlns="http://www.w3.org/2000/svg" xmlns:xlink="http://www.w3.org/1999/xlink">
    <!-- Generator: Sketch 50.2 (55047) - http://www.bohemiancoding.com/sketch -->
    <title>Group 3</title>
    <desc>Created with Sketch.</desc>
    <defs>
        <filter x="-14.3%" y="-12.4%" width="128.6%" height="124.7%" filterUnits="objectBoundingBox" id="filter-1">
            <feOffset dx="0" dy="0" in="SourceAlpha" result="shadowOffsetOuter1"></feOffset>
            <feGaussianBlur stdDeviation="4" in="shadowOffsetOuter1" result="shadowBlurOuter1"></feGaussianBlur>
            <feColorMatrix values="0 0 0 0 0.64317602   0 0 0 0 0.64317602   0 0 0 0 0.64317602  0 0 0 0.5 0" type="matrix" in="shadowBlurOuter1" result="shadowMatrixOuter1"></feColorMatrix>
            <feMerge>
                <feMergeNode in="shadowMatrixOuter1"></feMergeNode>
                <feMergeNode in="SourceGraphic"></feMergeNode>
            </feMerge>
        </filter>
    </defs>
    <g id="Page-1" stroke="none" stroke-width="1" fill="none" fill-rule="evenodd">
        <g id="Atlas" transform="translate(-1114.000000, -3096.000000)">
            <g id="Group-3" filter="url(#filter-1)" transform="translate(1122.000000, 3104.000000)">
                <circle id="Oval-4-Copy" fill="#FFDA2C" cx="42" cy="42" r="42"></circle>
                <text id="最受歡迎-方案" font-family="PingFangTC-Medium, PingFang TC" font-size="16" font-weight="400" line-spacing="20" fill="#14A1F0">
                    <tspan x="10" y="50">最</tspan>
                    <tspan x="26" y="50" font-family="PingFangTC-Regular, PingFang TC" font-weight="normal">受</tspan>
                    <tspan x="42" y="50" font-family="PingFangTC-Semibold, PingFang TC" font-weight="500">歡迎</tspan>
                    <tspan x="75.152" y="50"></tspan>
                    <tspan x="26" y="70">方案</tspan>
                </text>
                <polygon id="Triangle-Copy" fill="#FFDA2C" transform="translate(42.000000, 89.000000) scale(1, -1) translate(-42.000000, -89.000000) " points="42 81 51 97 33 97"></polygon>
                <g id="crown" transform="translate(31.000000, 11.000000)" fill="#18A8F0" fill-rule="nonzero">
                    <path d="M18.975,15.75 L4.025,15.75 C3.70875,15.75 3.45,16.003125 3.45,16.3125 L3.45,17.4375 C3.45,17.746875 3.70875,18 4.025,18 L18.975,18 C19.29125,18 19.55,17.746875 19.55,17.4375 L19.55,16.3125 C19.55,16.003125 19.29125,15.75 18.975,15.75 Z M21.275,4.5 C20.3226562,4.5 19.55,5.25585938 19.55,6.1875 C19.55,6.43710937 19.6075,6.66914062 19.708125,6.88359375 L17.10625,8.409375 C16.5528125,8.7328125 15.8376563,8.55 15.5178125,8.0015625 L12.5889063,2.98828125 C12.9734375,2.67890625 13.225,2.21484375 13.225,1.6875 C13.225,0.755859375 12.4523437,0 11.5,0 C10.5476563,0 9.775,0.755859375 9.775,1.6875 C9.775,2.21484375 10.0265625,2.67890625 10.4110937,2.98828125 L7.4821875,8.0015625 C7.16234375,8.55 6.44359375,8.7328125 5.89375,8.409375 L3.29546875,6.88359375 C3.3925,6.67265625 3.45359375,6.43710937 3.45359375,6.1875 C3.45359375,5.25585937 2.6809375,4.5 1.72859375,4.5 C0.77625,4.5 0,5.25585938 0,6.1875 C0,7.11914062 0.77265625,7.875 1.725,7.875 C1.8184375,7.875 1.911875,7.8609375 2.00171875,7.846875 L4.6,14.625 L18.4,14.625 L20.9982812,7.846875 C21.088125,7.8609375 21.1815625,7.875 21.275,7.875 C22.2273437,7.875 23,7.11914062 23,6.1875 C23,5.25585938 22.2273437,4.5 21.275,4.5 Z" id="Shape"></path>
                </g>
            </g>
        </g>
    </g>
</svg>