<?xml version="1.0" encoding="UTF-8" standalone="no"?>
<svg width="135px" height="135px" viewBox="0 0 135 135" version="1.1" xmlns="http://www.w3.org/2000/svg" xmlns:xlink="http://www.w3.org/1999/xlink">
    <!-- Generator: Sketch 50.2 (55047) - http://www.bohemiancoding.com/sketch -->
    <title>icon copy 5</title>
    <desc>Created with Sketch.</desc>
    <defs></defs>
    <g id="Page-1" stroke="none" stroke-width="1" fill="none" fill-rule="evenodd">
        <g id="security" transform="translate(-1027.000000, -2278.000000)">
            <g id="icon-copy-6" transform="translate(1037.000000, 2288.000000)">
                <g id="Group" stroke-width="1" fill="#FFFFFF">
                    <circle id="Oval" cx="57.5" cy="57.5" r="57.5"></circle>
                </g>
                <path d="M39.0109842,63.7528662 L60.1217438,63.7528662 L60.1217438,50.6756791 L39.0109842,50.6756791 L39.0109842,63.7528662 Z M61.4257971,66.4429338 L37.706931,66.4429338 C36.986721,66.4429338 36.4028777,65.8407429 36.4028777,65.0979 L36.4028777,49.3306453 C36.4028777,48.5878024 36.986721,47.9856115 37.706931,47.9856115 L61.4257971,47.9856115 C62.1460071,47.9856115 62.7298503,48.5878024 62.7298503,49.3306453 L62.7298503,65.0979 C62.7298503,65.8407429 62.1460071,66.4429338 61.4257971,66.4429338 Z" id="Fill-1" fill="#F7941D"></path>
                <path d="M28.2189613,41.9665351 L44.5867941,41.9665351 L44.5867941,29.1648877 L28.2189613,29.1648877 L28.2189613,41.9665351 Z M45.8560028,44.6566026 L26.9332216,44.6566026 C26.223126,44.6566026 25.647482,44.0540275 25.647482,43.3115689 L25.647482,27.8198539 C25.647482,27.0773953 26.223126,26.4748201 26.9332216,26.4748201 L45.8725338,26.4748201 C46.582262,26.4748201 47.1582734,27.0773953 47.1582734,27.8198539 L47.1582734,43.0963634 C47.1582734,43.1574664 47.1520284,43.2462386 47.1413751,43.3361638 C47.128885,44.0678621 46.5580167,44.6566026 45.8560028,44.6566026 Z" id="Fill-3" fill="#349CD6"></path>
                <path d="M28.3375496,85.9968433 L45.4602141,85.9968433 L45.4602141,73.0138086 L28.3375496,73.0138086 L28.3375496,85.9968433 Z M46.8052479,88.6869109 L26.9925158,88.6869109 C26.2496729,88.6869109 25.647482,88.0847201 25.647482,87.3418771 L25.647482,71.6687748 C25.647482,70.9259319 26.2496729,70.323741 26.9925158,70.323741 L46.7879546,70.323741 C47.4704631,70.323741 48.0422946,70.8141019 48.1210752,71.4923832 C48.1210752,71.4923832 48.1502816,71.740638 48.1502816,71.8647654 L48.1502816,87.3418771 C48.1502816,88.0847201 47.5477065,88.6869109 46.8052479,88.6869109 Z" id="Fill-4" fill="#349CD6"></path>
                <path d="M74.9031651,72.2901804 C74.9028082,72.2905647 74.9024513,72.2913333 74.9020944,72.2921019 C74.9024513,72.2913333 74.9028082,72.2905647 74.9031651,72.2901804 Z M52.260578,85.9968433 L72.4823358,85.9968433 L72.4823358,73.0138086 L52.260578,73.0138086 L52.260578,85.9968433 Z M73.7314737,88.6869109 L51.0114401,88.6869109 C50.3215591,88.6869109 49.7623022,88.0847201 49.7623022,87.3418771 L49.7623022,71.9654508 C49.6898522,71.5830769 49.7715815,71.1730338 49.9932143,70.8629074 C50.2294798,70.5324134 50.5917298,70.323741 50.9793194,70.323741 L73.7953582,70.323741 C74.2321996,70.323741 74.6372771,70.5693057 74.8639064,70.9720473 C75.055203,71.3121487 75.0948185,71.7221919 74.9806116,72.0930369 L74.9806116,87.3418771 C74.9806116,88.0847201 74.4209978,88.6869109 73.7314737,88.6869109 Z" id="Fill-5" fill="#F7941D"></path>
                <path d="M51.6834505,41.9665351 L71.9089214,41.9665351 L71.9089214,29.1648877 L51.6834505,29.1648877 L51.6834505,41.9665351 Z M74.3191293,42.6667212 C74.3191293,42.6667212 74.3191293,42.6671055 74.3194863,42.6674898 C74.3191293,42.6671055 74.3191293,42.6667212 74.3191293,42.6667212 Z M73.2221849,44.6566026 L50.4023136,44.6566026 C50.0139389,44.6566026 49.6473388,44.4621492 49.4110299,44.1305023 C49.1836451,43.8111528 49.1008299,43.3991882 49.184716,43.0087441 L49.184716,27.8198539 C49.184716,27.0773953 49.7444325,26.4748201 50.4340832,26.4748201 L73.1586456,26.4748201 C73.8482964,26.4748201 74.4080129,27.0773953 74.4080129,27.8198539 L74.4080129,42.9065215 C74.5068914,43.2696807 74.4665547,43.670885 74.2812913,43.9971518 C74.0542635,44.3975876 73.6576786,44.6566026 73.2221849,44.6566026 Z" id="Fill-6" fill="#F7941D"></path>
                <path d="M28.3375496,63.7528662 L31.504912,63.7528662 L31.504912,50.6756791 L28.3375496,50.6756791 L28.3375496,63.7528662 Z M32.8499458,66.4429338 L26.9925158,66.4429338 C26.2496729,66.4429338 25.647482,65.8407429 25.647482,65.0979 L25.647482,49.3306453 C25.647482,48.5878024 26.2496729,47.9856115 26.9925158,47.9856115 L32.8499458,47.9856115 C33.5927888,47.9856115 34.1949796,48.5878024 34.1949796,49.3306453 L34.1949796,65.0979 C34.1949796,65.8407429 33.5927888,66.4429338 32.8499458,66.4429338 Z" id="Fill-7" fill="#349CD6"></path>
                <path d="M67.2314069,63.7528662 L87.5248736,63.7528662 L87.5248736,50.6756791 L67.2314069,50.6756791 L67.2314069,63.7528662 Z M88.7784411,66.4429338 L65.9778394,66.4429338 C65.285512,66.4429338 64.7242719,65.8407429 64.7242719,65.0979 L64.7242719,49.3306453 C64.7242719,48.5878024 65.285512,47.9856115 65.9778394,47.9856115 L88.7784411,47.9856115 C89.4707685,47.9856115 90.0320086,48.5878024 90.0320086,49.3306453 L90.0320086,65.0979 C90.0320086,65.8407429 89.4707685,66.4429338 88.7784411,66.4429338 Z" id="Fill-8" fill="#349CD6"></path>
                <path d="M79.6325136,85.9968433 L87.4517715,85.9968433 L87.4517715,73.0138086 L79.6325136,73.0138086 L79.6325136,85.9968433 Z M88.7968053,88.6869109 L78.2874798,88.6869109 C77.5450212,88.6869109 76.942446,88.0847201 76.942446,87.3418771 L76.942446,71.8647654 C76.942446,71.7487082 76.9574336,71.6330353 76.9874086,71.5208211 L77.0389042,71.3248304 C77.1953124,70.7345528 77.7287144,70.323741 78.3393597,70.323741 L88.7968053,70.323741 C89.5396482,70.323741 90.1418391,70.9259319 90.1418391,71.6687748 L90.1418391,87.3418771 C90.1418391,88.0847201 89.5396482,88.6869109 88.7968053,88.6869109 Z" id="Fill-9" fill="#349CD6"></path>
                <path d="M79.6325136,41.9665351 L87.4517715,41.9665351 L87.4517715,29.1648877 L79.6325136,29.1648877 L79.6325136,41.9665351 Z M88.7968053,44.6566026 L78.3393597,44.6566026 C77.7302515,44.6566026 77.1976182,44.2473281 77.0400571,43.6589719 C77.0277596,43.6128564 77.0150779,43.5586708 77.0027804,43.5048694 L76.9881772,43.4437665 C76.9585864,43.3323208 76.942446,43.2116521 76.942446,43.0963634 L76.942446,27.8198539 C76.942446,27.0773953 77.5450212,26.4748201 78.2874798,26.4748201 L88.7968053,26.4748201 C89.5396482,26.4748201 90.1418391,27.0773953 90.1418391,27.8198539 L90.1418391,43.3115689 C90.1418391,44.0540275 89.5396482,44.6566026 88.7968053,44.6566026 Z" id="Fill-10" fill="#349CD6"></path>
            </g>
        </g>
    </g>
</svg>