<?xml version="1.0" encoding="UTF-8" standalone="no"?>
<svg width="339px" height="198px" viewBox="0 0 339 198" version="1.1" xmlns="http://www.w3.org/2000/svg" xmlns:xlink="http://www.w3.org/1999/xlink">
    <!-- Generator: Sketch 50.2 (55047) - http://www.bohemiancoding.com/sketch -->
    <title>Group</title>
    <desc>Created with Sketch.</desc>
    <defs>
        <polygon id="path-1" points="0.259100314 0.61698 288.817421 0.61698 288.817421 181.157431 0.259100314 181.157431"></polygon>
    </defs>
    <g id="Page-1" stroke="none" stroke-width="1" fill="none" fill-rule="evenodd">
        <g id="security" transform="translate(-815.000000, -1956.000000)">
            <g id="Group" transform="translate(816.000000, 1956.000000)">
                <path d="M38.3082019,180 C31.5208961,180 26,174.460498 26,167.651225 L26,14.3487749 C26,7.53950182 31.5208961,2 38.3082019,2 L298.691798,2 C305.478201,2 311,7.53950182 311,14.3487749 L311,167.651225 C311,174.460498 305.478201,180 298.691798,180 L38.3082019,180 Z" id="Fill-1" fill="#B6C4CE"></path>
                <g id="Group-5" transform="translate(25.000000, 0.000000)">
                    <mask id="mask-2" fill="white">
                        <use xlink:href="#path-1"></use>
                    </mask>
                    <g id="Clip-4"></g>
                    <path d="M275.525239,0.616161 L13.5512827,0.616161 C6.22267893,0.616161 0.259100314,6.587581 0.259100314,13.925821 L0.259100314,167.847771 C0.259100314,175.186921 6.22267893,181.157431 13.5512827,181.157431 L275.525239,181.157431 C282.854751,181.157431 288.817421,175.186921 288.817421,167.847771 L288.817421,13.925821 C288.817421,6.587581 282.854751,0.616161 275.525239,0.616161 M275.525239,2.436161 C281.863245,2.436161 286.999811,7.580391 286.999811,13.925821 L286.999811,167.847771 C286.999811,174.193201 281.863245,179.337431 275.525239,179.337431 L13.5512827,179.337431 C7.21418522,179.337431 2.07671038,174.193201 2.07671038,167.847771 L2.07671038,13.925821 C2.07671038,7.580391 7.21418522,2.436161 13.5512827,2.436161 L275.525239,2.436161" id="Fill-3" fill="#0B567F" mask="url(#mask-2)"></path>
                </g>
                <path d="M46.2548365,168 C45.8855555,168 45.5144598,167.974492 45.1524374,167.923475 C45.0063582,167.905255 44.8512058,167.880658 44.6996826,167.848772 C43.623596,167.650173 42.5901536,167.22382 41.6492583,166.587936 C41.0876246,166.210778 40.5704497,165.759829 40.1149729,165.248753 C39.8899565,164.997314 39.675828,164.725833 39.4789386,164.444331 C38.5117309,163.05231 38,161.416137 38,159.711639 L38,21.2874498 C38,16.7178282 41.7027905,13 46.2548365,13 L290.751515,13 C291.591697,13 292.416455,13.1257193 293.20129,13.3735137 C293.788329,13.5538935 294.371739,13.8117091 294.925207,14.1378504 C297.438495,15.6218842 299,18.3612886 299,21.2874498 L299,159.711639 C299,163.690016 296.181851,167.112677 292.29941,167.852417 C291.805826,167.949894 291.283207,168 290.751515,168 L46.2548365,168 Z" id="Fill-6" fill="#F2F2F2"></path>
                <path d="M290.837702,12 L46.1677461,12 C41.113092,12 37,16.1306429 37,21.2088985 L37,159.791101 C37,161.685415 37.5683875,163.503117 38.6434209,165.049942 C38.8577012,165.359124 39.0964966,165.66101 39.3498194,165.943744 C39.8546493,166.510123 40.4284846,167.011746 41.0549821,167.434022 C42.0973286,168.138119 43.2468152,168.61147 44.4671233,168.837656 C44.6042264,168.86593 44.7776481,168.893291 44.9556097,168.917004 C45.3487596,168.970815 45.7600688,169 46.1677461,169 L290.837702,169 C291.425157,169 292.007164,168.943453 292.566471,168.834008 C296.869329,168.014081 300,164.20995 300,159.791101 L300,21.2088985 C300,17.9574651 298.265782,14.9130655 295.474691,13.2659157 C294.860905,12.9029226 294.213524,12.615629 293.548892,12.4104194 C292.686323,12.1386305 291.770184,12 290.837702,12 M290.837702,13.8240861 C291.595854,13.8240861 292.328584,13.9380914 293.016823,14.1551577 C293.559788,14.3220616 294.072789,14.5537205 294.55492,14.8373659 C296.727686,16.1215225 298.184065,18.4946584 298.184065,21.2088985 L298.184065,159.791101 C298.184065,163.391847 295.616334,166.396117 292.217812,167.043668 C291.771092,167.132136 291.310753,167.175914 290.837702,167.175914 L46.1677461,167.175914 C45.8354301,167.175914 45.5085618,167.152201 45.1907733,167.107511 C45.0563941,167.091094 44.9247388,167.070117 44.7976234,167.043668 C43.8024912,166.859435 42.8772725,166.466344 42.0664577,165.919119 C41.5616279,165.578927 41.1031044,165.176716 40.7008748,164.725254 C40.4965822,164.497244 40.306817,164.256464 40.1315793,164.00474 C39.3007892,162.809964 38.8159347,161.355255 38.8159347,159.791101 L38.8159347,21.2088985 C38.8159347,17.12933 42.1100401,13.8240861 46.1677461,13.8240861 L290.837702,13.8240861" id="Fill-8" fill="#0B567F"></path>
                <path d="M337,173 L337,174.010939 C337,179.037607 335.43675,183.686807 332.783028,187.468019 C328.737235,193.242146 322.150933,197 314.715984,197 L22.2849215,197 C14.8490667,197 8.26276523,193.242146 4.21606622,187.468019 C1.56325033,183.686807 0,179.037607 0,174.010939 L0,173 L337,173 Z" id="Fill-10" fill="#7996A5"></path>
                <path d="M337,173 L337,174.010939 C337,179.037607 335.43675,183.686807 332.783028,187.468019 C328.737235,193.242146 322.150933,197 314.715984,197 L22.2849215,197 C14.8490667,197 8.26276523,193.242146 4.21606622,187.468019 C1.56325033,183.686807 0,179.037607 0,174.010939 L0,173 L337,173 Z" id="Stroke-12" stroke="#0B567F" stroke-width="2"></path>
                <path d="M131,174 L131,174.58955 C131,179.234543 137.290095,183 138.746806,183 L196.653319,183 C198.109125,183 205,179.234543 205,174.58955 L205,174 L131,174 Z" id="Fill-14" fill="#0B567F"></path>
                <path d="M131,174 L131,174.58955 C131,179.234543 137.290095,183 138.746806,183 L196.653319,183 C198.109125,183 205,179.234543 205,174.58955 L205,174 L131,174 Z" id="Stroke-16" stroke="#0B567F"></path>
                <path d="M114.851683,119 C111.66242,119 109.069154,116.76159 109.069154,114.008729 L106,38.2494087 C106.00091,35.3706713 108.746133,33 112.119199,33 L160.979072,33.4542494 C164.293904,33.4542494 168.076433,35.7264088 169.250227,38.4163317 L172.189263,45.1561893 C172.33303,45.4872989 172.658781,45.7025657 173.020018,45.7034778 L226.878981,45.8621915 C230.254777,45.8621915 233,48.2337749 233,51.1480861 L229.933576,113.964034 C229.932666,116.76159 227.33849,119 224.149227,119 L114.851683,119 Z" id="Fill-18" fill="#F9912B"></path>
                <path d="M111.983528,32 C108.143672,32 105,34.7949275 105,38.2113561 L108.047834,114.085685 C108.047834,117.337599 111.041421,120 114.698641,120 L223.301359,120 C226.959484,120 229.95307,117.337599 229.95307,114.085685 L233,51.0983663 C233,47.6828516 229.857232,44.8888381 226.016472,44.8888381 L172.499901,44.728893 L169.57955,37.9755512 C168.266748,34.9402491 164.199051,32.4551582 160.540926,32.4551582 L111.983528,32 Z M111.976295,33.8279447 L160.540926,34.2831029 C163.454045,34.2831029 166.903314,36.3514224 167.922273,38.7085571 L170.843528,45.4618988 C171.130139,46.1245287 171.777498,46.5550097 172.494476,46.5568377 L226.016472,46.7167828 C228.854548,46.7167828 231.165513,48.660802 231.191733,51.0590655 L228.145707,113.996116 C228.144803,114.025363 228.144803,114.05461 228.144803,114.085685 C228.144803,116.338627 225.971266,118.172055 223.301359,118.172055 L114.698641,118.172055 C112.028734,118.172055 109.856101,116.338627 109.856101,114.085685 C109.856101,114.060094 109.856101,114.035416 109.855197,114.010739 L106.808267,38.1784531 C106.830871,35.7783617 109.139124,33.8316006 111.976295,33.8279447 Z" id="Fill-20" fill="#0B567F"></path>
                <path d="M108.38727,93 C107.932894,93 107.5451,92.6533695 107.493814,92.1890671 L104.005467,60.6757959 C103.978474,60.4295059 104.052254,60.1804792 104.208811,59.9898325 C104.366268,59.7991857 104.593906,59.6815138 104.839539,59.6641823 C104.839539,59.6641823 216.593516,52 216.61331,52 C217.067686,52 217.45548,52.3466305 217.506766,52.8100207 L220.994214,84.3223797 C221.022106,84.5704941 220.948326,84.8176964 220.790869,85.0083432 C220.633412,85.1999021 220.405774,85.317574 220.161041,85.3349056 C220.161041,85.3349056 108.407064,93 108.38727,93" id="Fill-22" fill="#FFFFFF"></path>
                <path d="M217.660919,51 C217.619112,51 217.577305,51.0008946 217.535498,51.0044731 L104.694598,58.5184357 C104.200184,58.5515368 103.740307,58.7823503 103.422209,59.1571985 C103.104112,59.5320468 102.95597,60.0187232 103.011409,60.5036105 L106.535018,91.4102499 C106.638627,92.320979 107.421146,93 108.339083,93 C108.380891,93 108.421789,92.9982107 108.464505,92.9955269 L221.305404,85.4806697 C221.799818,85.4475685 222.259696,85.2167551 222.576884,84.8419068 C222.89589,84.4670586 223.044033,83.9803821 222.988593,83.4954949 L219.464985,52.5888555 C219.361376,51.679021 218.578857,51 217.660919,51 M217.659101,52.7892517 L221.181801,83.6949965 L108.340901,91.2107483 L104.817293,60.3041089 L217.659101,52.7892517" id="Fill-24" fill="#0B567F"></path>
                <path d="M113.08366,142 C109.805734,142 107.139651,139.907393 107.139651,137.333749 L104,78.0228097 C104.000904,75.3446696 106.820625,73.1268489 110.287436,73.1268489 L165.399433,72.9773127 C165.747379,72.9764118 166.064598,72.774628 166.213718,72.4611424 L169.22142,66.1067528 C170.42161,63.5709424 174.309571,61.4287907 177.711312,61.4287907 L227.720697,61 C231.179375,61 234,63.2178207 234,65.9437043 L230.86306,137.294112 C230.862156,139.907393 228.19517,142 224.917244,142 L113.08366,142 Z" id="Fill-26" fill="#FFCD50"></path>
                <path d="M227.798256,60 L177.723641,60.4349964 C173.952161,60.4349964 169.757102,62.8055441 168.403098,65.7043017 L165.390982,72.150656 L110.200839,72.3023564 C106.241102,72.3023564 103,74.9708218 103,78.2305533 L106.143353,138.352358 C106.143353,141.458561 109.22878,144 113.001166,144 L224.998834,144 C228.77122,144 231.857552,141.458561 231.857552,138.352358 L235,65.9281969 C235,62.6684654 231.759803,60 227.798256,60 M227.806401,61.827716 C230.709907,61.8313714 233.164492,63.6883309 233.189834,65.8934703 L230.049197,138.272852 C230.047387,138.299354 230.047387,138.325856 230.047387,138.352358 C230.047387,140.42316 227.735805,142.172284 224.998834,142.172284 L113.001166,142.172284 C110.2651,142.172284 107.953519,140.42316 107.953519,138.352358 C107.953519,138.320373 107.952613,138.288387 107.950803,138.256402 L104.810166,78.1885159 C104.841844,75.9842903 107.297333,74.1300725 110.20627,74.1300725 L165.396413,73.978372 C166.095137,73.9765443 166.7296,73.5689636 167.028277,72.9301769 L170.040393,66.4847364 C171.091194,64.2357318 174.680753,62.2627124 177.739028,62.2627124 L227.806401,61.827716" id="Fill-28" fill="#0B567F"></path>
                <path d="M176.875395,118.860489 L167.031603,118.860489 L169.322348,109.391091 C168.981941,109.183257 168.663205,108.933499 168.375169,108.649845 C167.375621,107.674897 166.757111,106.316392 166.757111,104.816952 C166.757111,103.975802 166.953047,103.179253 167.297968,102.471902 C168.183747,100.662049 170.060045,99.4159344 172.224379,99.4159344 C174.362528,99.4159344 176.208126,100.622801 177.106546,102.385379 C177.482167,103.115029 177.69526,103.941907 177.69526,104.816952 C177.69526,106.282496 177.106546,107.606214 176.146727,108.58027 C175.715124,109.020022 175.208578,109.386631 174.645147,109.657797 L176.875395,118.860489 Z M162.828442,88.5104287 C164.76614,85.5231444 168.153047,83.5357841 172.000451,83.5357841 C172.039278,83.5357841 172.073589,83.5357841 172.108804,83.5393521 C175.911061,83.5777078 179.25553,85.5499042 181.17246,88.5104287 C181.985102,89.7583268 182.540406,91.1899755 182.767043,92.7206354 L161.232957,92.7206354 C161.460497,91.1899755 162.01851,89.7583268 162.828442,88.5104287 Z M189.062302,92.7206354 L187.392777,92.7206354 C187.242889,91.2443871 186.876298,89.8305783 186.32912,88.5104287 C184.02754,82.9675846 178.528668,79.0454916 172.108804,79 L172.000451,79 C165.537246,79 159.986907,82.9363648 157.671783,88.5104287 C157.123702,89.8305783 156.757111,91.2443871 156.607223,92.7206354 L154.9386,92.7206354 C152.763431,92.7206354 151,94.4618056 151,96.6115086 L151,122.110019 C151,124.25883 152.763431,126 154.9386,126 L189.062302,126 C191.237472,126 193,124.25883 193,122.110019 L193,96.6115086 C193,94.4618056 191.237472,92.7206354 189.062302,92.7206354 Z" id="Fill-30" fill="#0B567F"></path>
                <path d="M176.875395,118.860489 L167.031603,118.860489 L169.322348,109.391091 C168.981941,109.183257 168.663205,108.933499 168.375169,108.649845 C167.375621,107.674897 166.757111,106.316392 166.757111,104.816952 C166.757111,103.975802 166.953047,103.179253 167.297968,102.471902 C168.183747,100.662049 170.060045,99.4159344 172.224379,99.4159344 C174.362528,99.4159344 176.208126,100.622801 177.106546,102.385379 C177.482167,103.115029 177.69526,103.941907 177.69526,104.816952 C177.69526,106.282496 177.106546,107.606214 176.146727,108.58027 C175.715124,109.020022 175.208578,109.386631 174.645147,109.657797 L176.875395,118.860489 Z M162.828442,88.5104287 C164.76614,85.5231444 168.153047,83.5357841 172.000451,83.5357841 C172.039278,83.5357841 172.073589,83.5357841 172.108804,83.5393521 C175.911061,83.5777078 179.25553,85.5499042 181.17246,88.5104287 C181.985102,89.7583268 182.540406,91.1899755 182.767043,92.7206354 L161.232957,92.7206354 C161.460497,91.1899755 162.01851,89.7583268 162.828442,88.5104287 Z M189.062302,92.7206354 L187.392777,92.7206354 C187.242889,91.2443871 186.876298,89.8305783 186.32912,88.5104287 C184.02754,82.9675846 178.528668,79.0454916 172.108804,79 L172.000451,79 C165.537246,79 159.986907,82.9363648 157.671783,88.5104287 C157.123702,89.8305783 156.757111,91.2443871 156.607223,92.7206354 L154.9386,92.7206354 C152.763431,92.7206354 151,94.4618056 151,96.6115086 L151,122.110019 C151,124.25883 152.763431,126 154.9386,126 L189.062302,126 C191.237472,126 193,124.25883 193,122.110019 L193,96.6115086 C193,94.4618056 191.237472,92.7206354 189.062302,92.7206354 Z" id="Stroke-32" stroke="#0B567F"></path>
                <path d="M255.936786,44 C254.317324,44 253,42.6545187 253,41.0004409 C253,39.346363 254.317324,38 255.936786,38 L272.063214,38 C273.682676,38 275,39.346363 275,41.0004409 C275,42.6545187 273.682676,44 272.063214,44 L255.936786,44 Z" id="Fill-34" fill="#2BB3E2"></path>
                <path d="M264,52 C262.345679,52 261,50.6826244 261,49.0630984 L261,32.9360383 C261,31.3165123 262.345679,30 264,30 C265.654321,30 267,31.3165123 267,32.9360383 L267,49.0630984 C267,50.6826244 265.654321,52 264,52" id="Fill-38" fill="#2BB3E2"></path>
                <path d="M73.5795173,140 C72.1574876,140 71,138.654912 71,137.00108 C71,135.346168 72.1574876,134 73.5795173,134 L86.4204827,134 C87.8425124,134 89,135.346168 89,137.00108 C89,138.654912 87.8425124,140 86.4204827,140 L73.5795173,140 Z" id="Fill-42" fill="#2BB3E2"></path>
                <path d="M80,146 C78.3461677,146 77,144.842572 77,143.420616 L77,130.580312 C77,129.157428 78.3461677,128 80,128 C81.6538323,128 83,129.157428 83,130.580312 L83,143.420616 C83,144.842572 81.6538323,146 80,146" id="Fill-46" fill="#2BB3E2"></path>
            </g>
        </g>
    </g>
</svg>