<?xml version="1.0" encoding="UTF-8" standalone="no"?>
<svg width="135px" height="135px" viewBox="0 0 135 135" version="1.1" xmlns="http://www.w3.org/2000/svg" xmlns:xlink="http://www.w3.org/1999/xlink">
    <!-- Generator: Sketch 50.2 (55047) - http://www.bohemiancoding.com/sketch -->
    <title>icon copy 2</title>
    <desc>Created with Sketch.</desc>
    <defs>
        <polygon id="path-1" points="0 63.705036 63.705036 63.705036 63.705036 0 0 0"></polygon>
    </defs>
    <g id="Page-1" stroke="none" stroke-width="1" fill="none" fill-rule="evenodd">
        <g id="security" transform="translate(-529.000000, -2278.000000)">
            <g id="icon-copy-8" transform="translate(539.000000, 2288.000000)">
                <circle id="Oval" fill="#FFFFFF" cx="57.5" cy="57.5" r="57.5"></circle>
                <g id="Group" stroke-width="1" transform="translate(25.647482, 25.647482)">
                    <path d="M58.6758885,0 L5.02954238,0 C2.2563245,0 0,2.22741133 0,4.9638339 L0,16.5467626 L3.35289663,16.5467626 L3.35289663,4.9638339 C3.35289663,4.05104347 4.10395179,3.30935252 5.02954238,3.30935252 L58.6758885,3.30935252 C59.6014791,3.30935252 60.3525342,4.05104347 60.3525342,4.9638339 L60.3525342,16.5467626 L63.705036,16.5467626 L63.705036,4.9638339 C63.705036,2.22741133 61.4487115,0 58.6758885,0" id="Fill-1" fill="#349CD6"></path>
                    <path d="M51.2947692,49.6400279 C52.2083391,49.6400279 52.9496403,50.3813582 52.9496403,51.294964 C52.9496403,52.2085698 52.2083391,52.9495104 51.2947692,52.9495104 C50.381589,52.9495104 49.6402878,52.2085698 49.6402878,51.294964 C49.6402878,50.3813582 50.381589,49.6400279 51.2947692,49.6400279 M51.2947692,56.2589928 C54.0315815,56.2589928 56.2589928,54.0322736 56.2589928,51.294964 C56.2589928,48.5580443 54.0315815,46.3309353 51.2947692,46.3309353 C48.5583466,46.3309353 46.3309353,48.5580443 46.3309353,51.294964 C46.3309353,54.0322736 48.5583466,56.2589928 51.2947692,56.2589928" id="Fill-3" fill="#349CD6"></path>
                    <path d="M38.057554,49.6400279 C38.9711598,49.6400279 39.7124901,50.3813582 39.7124901,51.294964 C39.7124901,52.2085698 38.9711598,52.9495104 38.057554,52.9495104 C37.1439482,52.9495104 36.4030076,52.2085698 36.4030076,51.294964 C36.4030076,50.3813582 37.1439482,49.6400279 38.057554,49.6400279 M38.057554,56.2589928 C40.7944737,56.2589928 43.0215827,54.0322736 43.0215827,51.294964 C43.0215827,48.5580443 40.7944737,46.3309353 38.057554,46.3309353 C35.321024,46.3309353 33.0935252,48.5580443 33.0935252,51.294964 C33.0935252,54.0322736 35.321024,56.2589928 38.057554,56.2589928" id="Fill-5" fill="#349CD6"></path>
                    <mask id="mask-2" fill="white">
                        <use xlink:href="#path-1"></use>
                    </mask>
                    <g id="Clip-8"></g>
                    <path d="M9.92797961,52.9496403 L19.8561931,52.9496403 L19.8561931,49.6402878 L9.92797961,49.6402878 L9.92797961,52.9496403 Z M6.61870504,56.2589928 L23.1654676,56.2589928 L23.1654676,46.3309353 L6.61870504,46.3309353 L6.61870504,56.2589928 Z" id="Fill-7" fill="#F7941D" mask="url(#mask-2)"></path>
                    <path d="M49.6402878,31.4388489 C49.6402878,30.5252431 50.381589,29.7843026 51.2947692,29.7843026 C52.2083391,29.7843026 52.9496403,30.5252431 52.9496403,31.4388489 C52.9496403,32.3524547 52.2083391,33.0933953 51.2947692,33.0933953 C50.381589,33.0933953 49.6402878,32.3524547 49.6402878,31.4388489 M56.2589928,31.4388489 C56.2589928,28.7019292 54.0319712,26.4748201 51.2947692,26.4748201 C48.5583466,26.4748201 46.3309353,28.7019292 46.3309353,31.4388489 C46.3309353,34.1757687 48.5583466,36.4028777 51.2947692,36.4028777 C54.0319712,36.4028777 56.2589928,34.1757687 56.2589928,31.4388489" id="Fill-9" fill="#349CD6" mask="url(#mask-2)"></path>
                    <path d="M36.4030076,31.4388489 C36.4030076,30.5252431 37.1439482,29.7843026 38.057554,29.7843026 C38.9711598,29.7843026 39.7124901,30.5252431 39.7124901,31.4388489 C39.7124901,32.3524547 38.9711598,33.0933953 38.057554,33.0933953 C37.1439482,33.0933953 36.4030076,32.3524547 36.4030076,31.4388489 M43.0215827,31.4388489 C43.0215827,28.7019292 40.7948635,26.4748201 38.057554,26.4748201 C35.321024,26.4748201 33.0935252,28.7019292 33.0935252,31.4388489 C33.0935252,34.1757687 35.321024,36.4028777 38.057554,36.4028777 C40.7948635,36.4028777 43.0215827,34.1757687 43.0215827,31.4388489" id="Fill-10" fill="#349CD6" mask="url(#mask-2)"></path>
                    <path d="M9.92797961,33.0931354 L19.8561931,33.0931354 L19.8561931,29.7841727 L9.92797961,29.7841727 L9.92797961,33.0931354 Z M6.61870504,36.4028777 L23.1654676,36.4028777 L23.1654676,26.4748201 L6.61870504,26.4748201 L6.61870504,36.4028777 Z" id="Fill-11" fill="#F7941D" mask="url(#mask-2)"></path>
                    <path d="M49.6402878,11.5827338 C49.6402878,10.669128 50.381589,9.92818748 51.2947692,9.92818748 C52.2083391,9.92818748 52.9496403,10.669128 52.9496403,11.5827338 C52.9496403,12.4963396 52.2083391,13.2372802 51.2947692,13.2372802 C50.381589,13.2372802 49.6402878,12.4963396 49.6402878,11.5827338 M56.2589928,11.5827338 C56.2589928,8.84581405 54.0319712,6.61870504 51.2947692,6.61870504 C48.5583466,6.61870504 46.3309353,8.84581405 46.3309353,11.5827338 C46.3309353,14.3196536 48.5583466,16.5467626 51.2947692,16.5467626 C54.0319712,16.5467626 56.2589928,14.3196536 56.2589928,11.5827338" id="Fill-12" fill="#349CD6" mask="url(#mask-2)"></path>
                    <path d="M36.4030076,11.5827338 C36.4030076,10.669128 37.1439482,9.92818748 38.057554,9.92818748 C38.9711598,9.92818748 39.7124901,10.669128 39.7124901,11.5827338 C39.7124901,12.4963396 38.9711598,13.2372802 38.057554,13.2372802 C37.1439482,13.2372802 36.4030076,12.4963396 36.4030076,11.5827338 M43.0215827,11.5827338 C43.0215827,8.84581405 40.7948635,6.61870504 38.057554,6.61870504 C35.321024,6.61870504 33.0935252,8.84581405 33.0935252,11.5827338 C33.0935252,14.3196536 35.321024,16.5467626 38.057554,16.5467626 C40.7948635,16.5467626 43.0215827,14.3196536 43.0215827,11.5827338" id="Fill-13" fill="#349CD6" mask="url(#mask-2)"></path>
                    <path d="M9.92797961,13.2374101 L19.8561931,13.2374101 L19.8561931,9.9284473 L9.92797961,9.9284473 L9.92797961,13.2374101 Z M6.61870504,16.5467626 L23.1654676,16.5467626 L23.1654676,6.61870504 L6.61870504,6.61870504 L6.61870504,16.5467626 Z" id="Fill-14" fill="#F7941D" mask="url(#mask-2)"></path>
                    <polygon id="Fill-15" fill="#349CD6" mask="url(#mask-2)" points="0 36.4028777 3.35289663 36.4028777 3.35289663 23.1654676 60.3525342 23.1654676 60.3525342 36.4028777 63.705036 36.4028777 63.705036 19.8561151 0 19.8561151"></polygon>
                    <path d="M3.35289663,43.8489209 L60.3525342,43.8489209 L60.3525342,58.7412021 C60.3525342,59.6543823 59.6010842,60.3956835 58.6758885,60.3956835 L5.02914751,60.3956835 C4.10355692,60.3956835 3.35289663,59.6543823 3.35289663,58.7412021 L3.35289663,43.8489209 Z M0,58.7412021 C0,61.4776246 2.2563245,63.705036 5.02914751,63.705036 L58.6758885,63.705036 C61.4487115,63.705036 63.705036,61.4776246 63.705036,58.7412021 L63.705036,40.5395683 L0,40.5395683 L0,58.7412021 Z" id="Fill-16" fill="#349CD6" mask="url(#mask-2)"></path>
                </g>
            </g>
        </g>
    </g>
</svg>