<?xml version="1.0" encoding="UTF-8" standalone="no"?>
<svg width="269px" height="233px" viewBox="0 0 269 233" version="1.1" xmlns="http://www.w3.org/2000/svg" xmlns:xlink="http://www.w3.org/1999/xlink">
    <!-- Generator: Sketch 50.2 (55047) - http://www.bohemiancoding.com/sketch -->
    <title>Group 2</title>
    <desc>Created with Sketch.</desc>
    <defs></defs>
    <g id="Page-1" stroke="none" stroke-width="1" fill="none" fill-rule="evenodd">
        <g id="security" transform="translate(-305.000000, -830.000000)">
            <g id="Group-2" transform="translate(306.000000, 831.000000)">
                <path d="M101.50006,195 C-5.24960357,170.624013 12.0341522,38.5937774 12.0341522,38.5937774 L101.50006,0 L190.965967,38.5937774 C190.965967,38.5937774 208.248844,170.624013 101.50006,195" id="Fill-1" fill="#407C91"></path>
                <path d="M101.50006,195 C-5.24960357,170.624013 12.0341522,38.5937774 12.0341522,38.5937774 L101.50006,0 L190.965967,38.5937774 C190.965967,38.5937774 208.248844,170.624013 101.50006,195 Z" id="Stroke-3" stroke="#407C91"></path>
                <path d="M172.51903,105.734467 C162.063286,146.878085 138.010957,172.517267 101.00037,182 C63.9889074,172.517267 39.936579,146.878085 29.4808342,105.734467 C23.4635929,82.0653691 23.6754922,59.4028134 24.3033098,48.1930753 L101.00037,15 L177.696555,48.1930753 C178.324372,59.3922829 178.537147,82.0565937 172.51903,105.734467" id="Fill-5" fill="#D9E4ED"></path>
                <path d="M172.519004,105.734467 C162.063209,146.878085 138.010765,172.517267 101,182 L101,15 L177.696553,48.1930753 C178.324374,59.3922829 178.53715,82.0565937 172.519004,105.734467" id="Fill-7" fill="#B6C4CE"></path>
                <path d="M70,73.8624662 L70,95 L77.1958368,95 L83.8475387,95 L83.8475387,73.8624662 C83.8475387,64.44312 91.543038,56.7826305 101,56.7826305 L101,50.2672209 L101,43 C83.9016034,43 70,56.8486093 70,73.8624662" id="Fill-9" fill="#F9912B"></path>
                <path d="M70,73.8624662 L70,95 L77.1958368,95 L83.8475387,95 L83.8475387,73.8624662 C83.8475387,64.44312 91.543038,56.7826305 101,56.7826305 L101,50.2672209 L101,43 C83.9016034,43 70,56.8486093 70,73.8624662 Z" id="Stroke-11" stroke="#0B567F" stroke-width="2" stroke-linecap="round"></path>
                <path d="M101,43 L101,50.2673423 L101,56.7828606 C110.467839,56.7828606 118.152665,64.443478 118.152665,73.8629815 L118.152665,95 L124.804303,95 L132,95 L132,73.8629815 C132,56.8488405 118.094248,43 101,43" id="Fill-13" fill="#FFCD50"></path>
                <path d="M101,43 L101,50.2673423 L101,56.7828606 C110.467839,56.7828606 118.152665,64.443478 118.152665,73.8629815 L118.152665,95 L124.804303,95 L132,95 L132,73.8629815 C132,56.8488405 118.094248,43 101,43 Z" id="Stroke-15" stroke="#0B567F" stroke-width="2"></path>
                <polygon id="Fill-17" fill="#FFCD50" points="64 143 101 143 101 86 64 86"></polygon>
                <polygon id="Stroke-19" stroke="#0B567F" stroke-width="2" points="64 143 101 143 101 86 64 86"></polygon>
                <path d="M100.861644,86 L100.861644,95.636972 L100.857259,95.636972 C90.4442426,95.636972 82,104.100526 82,114.546146 C82,124.818609 90.17677,133.17405 100.368793,133.443014 C100.535415,133.443014 100.694145,133.450045 100.857259,133.450045 L100.861644,133.450045 L100.861644,143 L138,143 L138,86 L100.861644,86 Z" id="Fill-20" fill="#F9912B"></path>
                <path d="M100.861644,86 L100.861644,95.636972 L100.857259,95.636972 C90.4442426,95.636972 82,104.100526 82,114.546146 C82,124.818609 90.17677,133.17405 100.368793,133.443014 C100.535415,133.443014 100.694145,133.450045 100.857259,133.450045 L100.861644,133.450045 L100.861644,143 L138,143 L138,86 L100.861644,86 Z" id="Stroke-21" stroke="#0B567F" stroke-width="2" stroke-linecap="round"></path>
                <path d="M107,110.683312 C107,107.548187 104.537482,105 101.495651,105 C98.4581686,105 96,107.548187 96,110.683312 C96,112.790173 97.110786,114.619295 98.755654,115.604414 L98.755654,120.16958 C98.755654,121.728153 99.9829986,123 101.495651,123 C103.012652,123 104.239997,121.728153 104.239997,120.16958 L104.239997,115.604414 C105.884865,114.619295 107,112.790173 107,110.683312" id="Fill-22" fill="#FFFFFF"></path>
                <path d="M107,110.683312 C107,107.548187 104.537482,105 101.495651,105 C98.4581686,105 96,107.548187 96,110.683312 C96,112.790173 97.110786,114.619295 98.755654,115.604414 L98.755654,120.16958 C98.755654,121.728153 99.9829986,123 101.495651,123 C103.012652,123 104.239997,121.728153 104.239997,120.16958 L104.239997,115.604414 C105.884865,114.619295 107,112.790173 107,110.683312 Z" id="Stroke-23" stroke="#0D5984" stroke-width="2"></path>
                <polygon id="Fill-24" fill="#D9E4ED" points="217 169.669769 205.669271 181 191 166.331114 202.330729 155"></polygon>
                <polygon id="Stroke-25" stroke="#0B567F" stroke-width="2" points="217 169.669769 205.669271 181 191 166.331114 202.330729 155"></polygon>
                <path d="M197.673173,96.3268588 C215.442276,114.096004 215.442276,142.903996 197.673173,160.673141 C179.904071,178.442286 151.09527,178.442286 133.326168,160.673141 C115.557944,142.903996 115.557944,114.096004 133.326168,96.3268588 C151.09527,78.5577137 179.904071,78.5577137 197.673173,96.3268588 Z" id="Stroke-26" stroke="#0B567F" stroke-width="2"></path>
                <path d="M139.754093,103.564285 C125.558087,117.589254 125.558087,140.411182 139.754093,154.43528 C153.950099,168.46112 177.049461,168.46112 191.245466,154.43528 C205.442353,140.411182 205.442353,117.589254 191.245466,103.564285 C177.049461,89.5393153 153.950099,89.5393153 139.754093,103.564285 M194.858819,158.005098 C178.669695,173.998301 152.329864,173.998301 136.140741,158.005098 C119.95338,142.011895 119.952499,115.989411 136.141622,99.9953375 C152.330745,84.0012639 178.670577,84.0021348 194.858819,99.9944666 C211.04706,115.98854 211.04706,142.011024 194.858819,158.005098" id="Fill-27" fill="#D9E4ED"></path>
                <path d="M139.754093,103.564285 C125.558087,117.589254 125.558087,140.411182 139.754093,154.43528 C153.950099,168.46112 177.049461,168.46112 191.245466,154.43528 C205.442353,140.411182 205.442353,117.589254 191.245466,103.564285 C177.049461,89.5393153 153.950099,89.5393153 139.754093,103.564285 Z M194.858819,158.005098 C178.669695,173.998301 152.329864,173.998301 136.140741,158.005098 C119.95338,142.011895 119.952499,115.989411 136.141622,99.9953375 C152.330745,84.0012639 178.670577,84.0021348 194.858819,99.9944666 C211.04706,115.98854 211.04706,142.011024 194.858819,158.005098 Z" id="Stroke-28" stroke="#D8E2EB"></path>
                <path d="M135.936871,99.9368245 C119.911292,115.962368 119.911292,142.037412 135.936871,158.063835 C151.96245,174.089379 178.03843,174.088499 194.064009,158.063835 C210.088708,142.038291 210.089588,115.962368 194.064009,99.9368245 C178.03843,83.9104011 151.96245,83.9112807 135.936871,99.9368245 M200.371678,164.37237 C180.868129,183.875877 149.13275,183.875877 129.628322,164.37237 C110.123893,144.867984 110.123893,113.132675 129.628322,93.6282895 C149.13275,74.1239035 180.868129,74.1239035 200.371678,93.6282895 C219.876107,113.132675 219.876107,144.867984 200.371678,164.37237" id="Fill-29" fill="#7996A5"></path>
                <path d="M135.936871,99.9368245 C119.911292,115.962368 119.911292,142.037412 135.936871,158.063835 C151.96245,174.089379 178.03843,174.088499 194.064009,158.063835 C210.088708,142.038291 210.089588,115.962368 194.064009,99.9368245 C178.03843,83.9104011 151.96245,83.9112807 135.936871,99.9368245 Z M200.371678,164.37237 C180.868129,183.875877 149.13275,183.875877 129.628322,164.37237 C110.123893,144.867984 110.123893,113.132675 129.628322,93.6282895 C149.13275,74.1239035 180.868129,74.1239035 200.371678,93.6282895 C219.876107,113.132675 219.876107,144.867984 200.371678,164.37237 Z" id="Stroke-30" stroke="#0B567F" stroke-width="2"></path>
                <path d="M249.495984,230.998252 C247.354123,230.950168 245.296188,230.014728 243.850214,228.431473 L202,182.617619 L218.618218,166 L264.431311,207.850034 C266.013666,209.296032 266.949091,211.353127 266.998047,213.496772 C267.04613,215.640417 266.204247,217.737727 264.689209,219.252791 L255.252782,228.689375 C253.763095,230.179085 251.782093,231 249.676075,231 L249.495984,230.998252 Z" id="Fill-31" fill="#B6C4CE"></path>
                <path d="M218.77802,165 L217.597533,166.180509 L202.180486,181.597852 L201,182.777488 L202.126352,184.010387 L243.360425,229.15176 C244.964385,230.906807 247.247648,231.944991 249.62521,231.998254 C249.691569,231.999127 249.757055,232 249.823413,232 C252.160811,232 254.358507,231.09017 256.012235,229.437283 L265.436044,220.01242 C267.117713,218.331591 268.0511,216.003753 267.997839,213.626145 C267.943704,211.248537 266.90554,208.966103 265.150527,207.362113 L220.010894,166.1255 L218.77802,165 Z M218.832154,167.416027 L263.97266,208.650893 C265.384529,209.94142 266.2079,211.753222 266.251557,213.665437 C266.294341,215.578526 265.553918,217.425254 264.201423,218.777775 L254.776741,228.202638 C253.461791,229.517613 251.679711,230.253685 249.823413,230.253685 C249.771025,230.253685 249.717763,230.253685 249.664502,230.251939 C247.752323,230.210027 245.940556,229.385766 244.650054,227.972997 L203.415107,182.832497 L218.832154,167.416027 Z" id="Fill-32" fill="#0B567F"></path>
                <path d="M223.39581,170.870407 L206.869826,187.395831 C206.064239,188.20139 204.758907,188.20139 203.95332,187.395831 L198.60419,182.046881 C197.798603,181.241322 197.798603,179.935153 198.60419,179.129593 L215.129293,162.604169 C215.934879,161.79861 217.241093,161.79861 218.04668,162.604169 L223.39581,167.954 C224.201397,168.758678 224.201397,170.064847 223.39581,170.870407" id="Fill-33" fill="#7996A5"></path>
                <path d="M223.39581,170.870407 L206.869826,187.395831 C206.064239,188.20139 204.758907,188.20139 203.95332,187.395831 L198.60419,182.046881 C197.798603,181.241322 197.798603,179.935153 198.60419,179.129593 L215.129293,162.604169 C215.934879,161.79861 217.241093,161.79861 218.04668,162.604169 L223.39581,167.954 C224.201397,168.758678 224.201397,170.064847 223.39581,170.870407 Z" id="Stroke-34" stroke="#0B567F" stroke-width="2"></path>
                <path d="M238.852161,77 L222.148733,77 C220.967511,77 220,76.0999167 220,75 C220,73.9000833 220.967511,73 222.148733,73 L238.852161,73 C240.033383,73 241,73.9000833 241,75 C241,76.0999167 240.033383,77 238.852161,77" id="Fill-39" fill="#FFFFFF"></path>
                <path d="M238.852161,77 L222.148733,77 C220.967511,77 220,76.0999167 220,75 C220,73.9000833 220.967511,73 222.148733,73 L238.852161,73 C240.033383,73 241,73.9000833 241,75 C241,76.0999167 240.033383,77 238.852161,77 Z" id="Stroke-40" stroke="#FFFFFF" stroke-width="2"></path>
                <path d="M228,83.852161 L228,67.147839 C228,65.966617 228.900083,65 230,65 C231.099917,65 232,65.966617 232,67.147839 L232,83.852161 C232,85.033383 231.099917,86 230,86 C228.900083,86 228,85.033383 228,83.852161" id="Fill-41" fill="#FFFFFF"></path>
                <path d="M228,83.852161 L228,67.147839 C228,65.966617 228.900083,65 230,65 C231.099917,65 232,65.966617 232,67.147839 L232,83.852161 C232,85.033383 231.099917,86 230,86 C228.900083,86 228,85.033383 228,83.852161 Z" id="Stroke-42" stroke="#FFFFFF" stroke-width="2"></path>
                <path d="M26.9060931,193 L2.09477861,193 C0.942345267,193 0,192.047017 0,190.882457 L0,189.118425 C0,187.952983 0.942345267,187 2.09477861,187 L26.9060931,187 C28.0576547,187 29,187.952983 29,189.118425 L29,190.882457 C29,192.047017 28.0576547,193 26.9060931,193" id="Fill-43" fill="#FFFFFF"></path>
                <path d="M26.9060931,193 L2.09477861,193 C0.942345267,193 0,192.047017 0,190.882457 L0,189.118425 C0,187.952983 0.942345267,187 2.09477861,187 L26.9060931,187 C28.0576547,187 29,187.952983 29,189.118425 L29,190.882457 C29,192.047017 28.0576547,193 26.9060931,193 Z" id="Stroke-44" stroke="#FFFFFF"></path>
                <path d="M12,201.906902 L12,177.09397 C12,175.942374 12.9529827,175 14.1175433,175 L15.8815751,175 C17.0470173,175 18,175.942374 18,177.09397 L18,201.906902 C18,203.057626 17.0470173,204 15.8815751,204 L14.1175433,204 C12.9529827,204 12,203.057626 12,201.906902" id="Fill-45" fill="#FFFFFF"></path>
                <path d="M12,201.906902 L12,177.09397 C12,175.942374 12.9529827,175 14.1175433,175 L15.8815751,175 C17.0470173,175 18,175.942374 18,177.09397 L18,201.906902 C18,203.057626 17.0470173,204 15.8815751,204 L14.1175433,204 C12.9529827,204 12,203.057626 12,201.906902 Z" id="Stroke-46" stroke="#FFFFFF"></path>
                <path d="M190.455451,103.544517 C204.51485,117.603873 204.51485,140.397444 190.455451,154.4568 C176.396052,168.5144 153.602412,168.5144 139.543891,154.4568 C125.48537,140.397444 125.48537,117.603873 139.543891,103.544517 C153.602412,89.485161 176.396052,89.485161 190.455451,103.544517" id="Fill-47" fill="#D9E4ED"></path>
                <path d="M190.455451,103.544517 C204.51485,117.603873 204.51485,140.397444 190.455451,154.4568 C176.396052,168.5144 153.602412,168.5144 139.543891,154.4568 C125.48537,140.397444 125.48537,117.603873 139.543891,103.544517 C153.602412,89.485161 176.396052,89.485161 190.455451,103.544517 Z" id="Stroke-48" stroke="#0B567F" stroke-width="2"></path>
                <path d="M150.5,140 C140.299122,140 132,131.700683 132,121.499566 C132,111.298449 140.299122,103 150.5,103 C160.700878,103 169,111.298449 169,121.499566 C169,131.700683 160.700878,140 150.5,140" id="Fill-49" fill="#F2F2F2"></path>
                <path d="M150.5,102 C139.748072,102 131,110.748268 131,121.500437 C131,132.25348 139.748072,141 150.5,141 C161.251928,141 170,132.25348 170,121.500437 C170,110.748268 161.251928,102 150.5,102 M150.5,103.748604 C160.303331,103.748604 168.251435,111.696886 168.251435,121.500437 C168.251435,131.304862 160.303331,139.251396 150.5,139.251396 C140.695794,139.251396 132.748565,131.304862 132.748565,121.500437 C132.748565,111.696886 140.695794,103.748604 150.5,103.748604" id="Fill-50" fill="#0B567F"></path>
            </g>
        </g>
    </g>
</svg>