<?xml version="1.0" encoding="UTF-8" standalone="no"?>
<svg width="135px" height="135px" viewBox="0 0 135 135" version="1.1" xmlns="http://www.w3.org/2000/svg" xmlns:xlink="http://www.w3.org/1999/xlink">
    <!-- Generator: Sketch 50.2 (55047) - http://www.bohemiancoding.com/sketch -->
    <title>icon copy 4</title>
    <desc>Created with Sketch.</desc>
    <defs>
        <polygon id="path-1" points="0 0.108087432 73.5151264 0.108087432 73.5151264 71.1510791 0 71.1510791"></polygon>
    </defs>
    <g id="Page-1" stroke="none" stroke-width="1" fill="none" fill-rule="evenodd">
        <g id="security" transform="translate(-780.000000, -2278.000000)">
            <g id="icon-copy-4" transform="translate(790.000000, 2288.000000)">
                <circle id="Oval" fill="#FFFFFF" cx="57.5" cy="57.5" r="57.5"></circle>
                <g id="Group" stroke-width="1" transform="translate(20.683453, 19.856115)">
                    <g id="Group-3">
                        <mask id="mask-2" fill="white">
                            <use xlink:href="#path-1"></use>
                        </mask>
                        <g id="Clip-2"></g>
                        <path d="M3.83027016,68.0406494 L69.6917955,68.0406494 C67.5845782,63.2883017 61.7575405,51.0390408 57.8657809,42.9554228 C57.5897532,42.6020002 57.3364708,42.1478775 57.029602,41.5984979 C56.095117,39.9250867 54.6899201,37.4079715 51.878755,36.3165994 L44.7359595,35.0642627 L41.6587901,35.0642627 L43.6642317,32.5370386 C47.1064824,28.2010996 48.8517024,23.8772135 48.8517024,19.6851319 C48.8517024,12.8476298 46.0127804,3.21851712 39.7011521,3.21851712 C33.2784959,3.21851712 24.7617299,12.6057939 24.7617299,19.6847431 C24.7617299,23.8768247 26.5069499,28.2010996 29.9492006,32.5370386 L31.9557988,35.0642627 L28.8770874,35.0642627 L21.6282755,36.3348732 C18.9412459,36.9464615 17.5402896,39.6626442 16.6115873,41.4620278 C16.2858284,42.0942226 16.034859,42.5802272 15.7480369,42.9534788 C11.8277494,51.0347639 5.95522101,63.2851913 3.83027016,68.0406494 Z M73.5153191,71.1510791 L-0.000192756789,71.1510791 L-0.000192756789,69.5958643 C-0.000192756789,69.1537945 -0.000192756789,68.330697 13.0590797,41.4184817 L13.1604698,41.2093053 L13.3181448,41.0397869 C13.4149088,40.9192578 13.6705043,40.4243106 13.875983,40.0261756 C14.9265075,37.9900106 16.8818324,34.1995632 20.9983464,33.2897626 L21.0646547,33.276932 L26.0142635,32.4087333 C23.1344771,28.180493 21.6776213,23.909873 21.6776213,19.6847431 C21.6776213,15.691729 23.8546165,10.8732846 27.5011894,6.79473366 C31.3004257,2.5454979 35.7473249,0.108087432 39.7011521,0.108087432 C47.6477435,0.108087432 51.935811,10.1948221 51.935811,19.6851319 C51.935811,23.9102618 50.4785697,28.180493 47.5991688,32.4091221 L52.6840929,33.3006491 L52.81324,33.3480831 C56.7774761,34.8072634 58.6896234,38.2322353 59.7170171,40.0720545 C59.927122,40.4488053 60.1885002,40.9173138 60.2976006,41.0421197 L60.4572032,41.213971 L60.5562802,41.4227586 C73.5153191,68.3334186 73.5153191,69.1545721 73.5153191,69.5958643 L73.5153191,71.1510791 Z" id="Fill-1" fill="#349CD6" mask="url(#mask-2)"></path>
                    </g>
                    <path d="M36.8163564,17.1277723 C32.0479884,17.1277723 31.175647,18.1523539 31.175647,20.170121 C31.175647,24.0651391 34.043217,27.8384019 36.8167371,30.5759797 C39.5898765,27.8384019 42.4574465,24.0655219 42.4574465,20.170121 C42.4574465,18.1523539 41.5851051,17.1277723 36.8163564,17.1277723 Z M36.8167371,34.7482014 L35.7932305,33.8151277 C30.7080629,29.1769434 28.1294964,24.5858532 28.1294964,20.170121 C28.1294964,14.0647482 34.2168476,14.0647482 36.8163564,14.0647482 C39.4158651,14.0647482 45.5035971,14.0647482 45.5035971,20.170121 C45.5035971,24.586236 42.9254114,29.1773263 37.839863,33.8151277 L36.8167371,34.7482014 Z" id="Fill-4" fill="#349CD6"></path>
                    <path d="M17.5997384,51.4722508 L18.2138751,51.4722508 C20.873881,51.4722508 22.1124918,52.7261887 22.1124918,55.4190926 C22.1124918,58.1315628 20.8377001,59.4501542 18.2138751,59.4501542 L17.5997384,59.4501542 L17.5997384,51.4722508 Z M18.4947121,48.8129496 L15.9347726,48.8129496 C15.3585736,48.8129496 14.8920863,49.2661763 14.8920863,49.8250733 L14.8920863,60.210898 C14.8920863,60.7697949 15.3585736,61.2230216 15.9347726,61.2230216 L18.6286624,61.2230216 C22.5638252,61.2230216 24.8201439,58.9432668 24.8201439,54.9690718 C24.8201439,50.9994173 22.5740309,48.8129496 18.4947121,48.8129496 Z" id="Fill-6" fill="#F7941D"></path>
                    <path d="M29.1824722,51.4722508 L29.7966089,51.4722508 C32.4566148,51.4722508 33.6952256,52.7261887 33.6952256,55.4190926 C33.6952256,58.1315628 32.4204339,59.4501542 29.7966089,59.4501542 L29.1824722,59.4501542 L29.1824722,51.4722508 Z M30.0774459,48.8129496 L27.6467791,48.8129496 C26.9995652,48.8129496 26.4748201,49.3227264 26.4748201,49.9509695 L26.4748201,60.0850017 C26.4748201,60.7132448 26.9995652,61.2230216 27.6467791,61.2230216 L30.2113962,61.2230216 C34.146559,61.2230216 36.4028777,58.9432668 36.4028777,54.9690718 C36.4028777,50.9994173 34.1567647,48.8129496 30.0774459,48.8129496 Z" id="Fill-8" fill="#F7941D"></path>
                    <path d="M43.4350526,58.8229605 C41.8210064,58.8229605 40.8184016,57.3471639 40.8184016,54.9709959 C40.8184016,52.6434105 41.8210064,51.1978784 43.4350526,51.1978784 C45.0494972,51.1978784 46.052102,52.6434105 46.052102,54.9709959 C46.052102,57.3471639 45.0494972,58.8229605 43.4350526,58.8229605 M43.4350526,48.8129496 C40.1683218,48.8129496 38.057554,51.2305323 38.057554,54.9709959 C38.057554,58.7688028 40.1683218,61.2230216 43.4350526,61.2230216 C46.7017835,61.2230216 48.8129496,58.7688028 48.8129496,54.9709959 C48.8129496,51.2305323 46.7017835,48.8129496 43.4350526,48.8129496" id="Fill-10" fill="#F7941D"></path>
                    <path d="M56.3959653,54.1932757 L54.9416433,53.5505515 L54.8422513,53.5095351 C53.8746073,53.1089276 53.3266185,52.8520768 53.3266185,52.2185117 C53.3266185,51.5793715 53.8536627,51.1978784 54.7367663,51.1978784 C55.5524662,51.1978784 56.2394515,51.4778258 56.9629948,52.1058159 C57.0022184,52.1400627 57.0536281,52.1575843 57.1035145,52.1504164 C57.1541625,52.1452395 57.2006216,52.1189571 57.2326098,52.0775424 L58.0357429,51.0366001 C58.2927912,50.7028932 58.2310996,50.2190581 57.9100748,49.9522519 C57.0303985,49.2227162 55.9028134,48.8129496 54.7367663,48.8129496 C52.4073377,48.8129496 50.7172929,50.3042768 50.7172929,52.3594809 C50.7172929,54.2406637 52.0013919,55.1904141 53.0768057,55.6547365 L54.6628887,56.3583881 C55.6347216,56.7888619 56.1019782,57.0246071 56.1019782,57.692419 C56.1019782,58.4108047 55.5280942,58.8229605 54.5273196,58.8229605 C53.6434543,58.8229605 52.6407756,58.3634167 51.844878,57.5932627 C51.806416,57.5562284 51.7546255,57.5327335 51.7032159,57.5406979 C51.6510446,57.5442819 51.6026814,57.5697678 51.5691699,57.611979 L50.6354183,58.7831387 C50.3699921,59.1168455 50.4267332,59.6110343 50.7542317,59.8786369 C51.8056544,60.7387883 53.1350699,61.2230216 54.4823837,61.2230216 C56.5985574,61.2230216 58.7410072,59.9515109 58.7410072,57.5203888 C58.7410072,55.9382679 57.9953768,54.8809986 56.3959653,54.1932757" id="Fill-12" fill="#F7941D"></path>
                </g>
            </g>
        </g>
    </g>
</svg>