<?xml version="1.0" encoding="UTF-8" standalone="no"?>
<svg width="309px" height="184px" viewBox="0 0 309 184" version="1.1" xmlns="http://www.w3.org/2000/svg" xmlns:xlink="http://www.w3.org/1999/xlink">
    <!-- Generator: Sketch 50.2 (55047) - http://www.bohemiancoding.com/sketch -->
    <title>Group</title>
    <desc>Created with Sketch.</desc>
    <defs>
        <polygon id="path-1" points="0 0.440589474 65.2115478 0.440589474 65.2115478 47.8275368 0 47.8275368"></polygon>
        <polygon id="path-3" points="0.471307692 0.698742857 109.829077 0.698742857 109.829077 48 0.471307692 48"></polygon>
    </defs>
    <g id="Page-1" stroke="none" stroke-width="1" fill="none" fill-rule="evenodd">
        <g id="security" transform="translate(-830.000000, -1240.000000)">
            <g id="Group" transform="translate(830.000000, 1240.000000)">
                <path d="M34.0250067,26 C30.7023546,26 28,23.2905551 28,19.9591851 L28,7.03994872 C28,3.70944494 30.7023546,1 34.0250067,1 L76.9758572,1 C80.2985093,1 83,3.70944494 83,7.03994872 L83,19.9591851 C83,23.2905551 80.2985093,26 76.9758572,26 L34.0250067,26 Z" id="Fill-1" fill="#B6C4CE"></path>
                <path d="M76.1994578,0 L33.7996893,0 C30.0506069,0 27,3.01347936 27,6.71777591 L27,19.2830666 C27,22.9865206 30.0506069,26 33.7996893,26 L76.1994578,26 C79.9485403,26 83,22.9865206 83,19.2830666 L83,6.71777591 C83,3.01347936 79.9485403,0 76.1994578,0 M76.1994578,1.68491997 C79.0010356,1.68491997 81.294321,3.9494524 81.294321,6.71777591 L81.294321,19.2830666 C81.294321,22.0505476 79.0010356,24.31508 76.1994578,24.31508 L33.7996893,24.31508 C30.9981116,24.31508 28.705679,22.0505476 28.705679,19.2830666 L28.705679,6.71777591 C28.705679,3.9494524 30.9981116,1.68491997 33.7996893,1.68491997 L76.1994578,1.68491997" id="Fill-3" fill="#0B567F"></path>
                <path d="M93.0242374,26 C89.702397,26 87,23.2905551 87,19.9591851 L87,7.03994872 C87,3.70944494 89.702397,1 93.0242374,1 L135.976627,1 C139.298467,1 142,3.70944494 142,7.03994872 L142,19.9591851 C142,23.2905551 139.298467,26 135.976627,26 L93.0242374,26 Z" id="Fill-5" fill="#D9E4ED"></path>
                <path d="M135.200207,0 L92.79894,0 C89.0506533,0 86,3.01347936 86,6.71777591 L86,19.2830666 C86,22.9865206 89.0506533,26 92.79894,26 L135.200207,26 C138.949347,26 142,22.9865206 142,19.2830666 L142,6.71777591 C142,3.01347936 138.949347,0 135.200207,0 M135.200207,1.68491997 C138.001828,1.68491997 140.294295,3.9494524 140.294295,6.71777591 L140.294295,19.2830666 C140.294295,22.0505476 138.001828,24.31508 135.200207,24.31508 L92.79894,24.31508 C89.9973196,24.31508 87.705705,22.0505476 87.705705,19.2830666 L87.705705,6.71777591 C87.705705,3.9494524 89.9973196,1.68491997 92.79894,1.68491997 L135.200207,1.68491997" id="Fill-7" fill="#0B567F"></path>
                <path d="M34.0250067,84 C30.7023546,84 28,81.2904612 28,77.959842 L28,65.040158 C28,61.7095388 30.7023546,59 34.0250067,59 L76.9758572,59 C80.2985093,59 83,61.7095388 83,65.040158 L83,77.959842 C83,81.2904612 80.2985093,84 76.9758572,84 L34.0250067,84 Z" id="Fill-9" fill="#B6C4CE"></path>
                <path d="M76.1994578,59 L33.7996893,59 C30.0506069,59 27,62.013577 27,65.7179936 L27,78.2836914 C27,81.9872655 30.0506069,85 33.7996893,85 L76.1994578,85 C79.9485403,85 83,81.9872655 83,78.2836914 L83,65.7179936 C83,62.013577 79.9485403,59 76.1994578,59 M76.1994578,60.6849746 C79.0010356,60.6849746 81.294321,62.9487379 81.294321,65.7179936 L81.294321,78.2836914 C81.294321,81.0512621 79.0010356,83.3150254 76.1994578,83.3150254 L33.7996893,83.3150254 C30.9981116,83.3150254 28.705679,81.0512621 28.705679,78.2836914 L28.705679,65.7179936 C28.705679,62.9487379 30.9981116,60.6849746 33.7996893,60.6849746 L76.1994578,60.6849746" id="Fill-11" fill="#0B567F"></path>
                <path d="M93.0242374,84 C89.702397,84 87,81.2904612 87,77.959842 L87,65.040158 C87,61.7095388 89.702397,59 93.0242374,59 L135.976627,59 C139.298467,59 142,61.7095388 142,65.040158 L142,77.959842 C142,81.2904612 139.298467,84 135.976627,84 L93.0242374,84 Z" id="Fill-13" fill="#D9E4ED"></path>
                <path d="M135.200207,59 L92.79894,59 C89.0506533,59 86,62.013577 86,65.7179936 L86,78.2836914 C86,81.9872655 89.0506533,85 92.79894,85 L135.200207,85 C138.949347,85 142,81.9872655 142,78.2836914 L142,65.7179936 C142,62.013577 138.949347,59 135.200207,59 M135.200207,60.6849746 C138.001828,60.6849746 140.294295,62.9487379 140.294295,65.7179936 L140.294295,78.2836914 C140.294295,81.0512621 138.001828,83.3150254 135.200207,83.3150254 L92.79894,83.3150254 C89.9973196,83.3150254 87.705705,81.0512621 87.705705,78.2836914 L87.705705,65.7179936 C87.705705,62.9487379 89.9973196,60.6849746 92.79894,60.6849746 L135.200207,60.6849746" id="Fill-15" fill="#0B567F"></path>
                <path d="M151.025007,84 C147.702355,84 145,81.2904612 145,77.959842 L145,65.040158 C145,61.7095388 147.702355,59 151.025007,59 L193.975857,59 C197.298509,59 200,61.7095388 200,65.040158 L200,77.959842 C200,81.2904612 197.298509,84 193.975857,84 L151.025007,84 Z" id="Fill-17" fill="#B6C4CE"></path>
                <path d="M193.199458,59 L150.799689,59 C147.050607,59 144,62.013577 144,65.7179936 L144,78.2836914 C144,81.9872655 147.050607,85 150.799689,85 L193.199458,85 C196.94854,85 200,81.9872655 200,78.2836914 L200,65.7179936 C200,62.013577 196.94854,59 193.199458,59 M193.199458,60.6849746 C196.001036,60.6849746 198.294321,62.9487379 198.294321,65.7179936 L198.294321,78.2836914 C198.294321,81.0512621 196.001036,83.3150254 193.199458,83.3150254 L150.799689,83.3150254 C147.998112,83.3150254 145.705679,81.0512621 145.705679,78.2836914 L145.705679,65.7179936 C145.705679,62.9487379 147.998112,60.6849746 150.799689,60.6849746 L193.199458,60.6849746" id="Fill-19" fill="#0B567F"></path>
                <path d="M151.025007,26 C147.702355,26 145,23.2905551 145,19.9591851 L145,7.03994872 C145,3.70944494 147.702355,1 151.025007,1 L193.975857,1 C197.298509,1 200,3.70944494 200,7.03994872 L200,19.9591851 C200,23.2905551 197.298509,26 193.975857,26 L151.025007,26 Z" id="Fill-21" fill="#B6C4CE"></path>
                <path d="M193.199458,0 L150.799689,0 C147.050607,0 144,3.01347936 144,6.71777591 L144,19.2830666 C144,22.9865206 147.050607,26 150.799689,26 L193.199458,26 C196.94854,26 200,22.9865206 200,19.2830666 L200,6.71777591 C200,3.01347936 196.94854,0 193.199458,0 M193.199458,1.68491997 C196.001036,1.68491997 198.294321,3.9494524 198.294321,6.71777591 L198.294321,19.2830666 C198.294321,22.0505476 196.001036,24.31508 193.199458,24.31508 L150.799689,24.31508 C147.998112,24.31508 145.705679,22.0505476 145.705679,19.2830666 L145.705679,6.71777591 C145.705679,3.9494524 147.998112,1.68491997 150.799689,1.68491997 L193.199458,1.68491997" id="Fill-23" fill="#0B567F"></path>
                <path d="M209.024237,84 C205.702397,84 203,81.2904612 203,77.959842 L203,65.040158 C203,61.7095388 205.702397,59 209.024237,59 L251.976627,59 C255.298467,59 258,61.7095388 258,65.040158 L258,77.959842 C258,81.2904612 255.298467,84 251.976627,84 L209.024237,84 Z" id="Fill-25" fill="#D9E4ED"></path>
                <path d="M252.200207,59 L209.79894,59 C206.0498,59 203,62.013577 203,65.7179936 L203,78.2836914 C203,81.9872655 206.0498,85 209.79894,85 L252.200207,85 C255.949347,85 259,81.9872655 259,78.2836914 L259,65.7179936 C259,62.013577 255.949347,59 252.200207,59 M252.200207,60.6849746 C255.001828,60.6849746 257.294295,62.9487379 257.294295,65.7179936 L257.294295,78.2836914 C257.294295,81.0512621 255.001828,83.3150254 252.200207,83.3150254 L209.79894,83.3150254 C206.99732,83.3150254 204.705705,81.0512621 204.705705,78.2836914 L204.705705,65.7179936 C204.705705,62.9487379 206.99732,60.6849746 209.79894,60.6849746 L252.200207,60.6849746" id="Fill-27" fill="#0B567F"></path>
                <path d="M63.0242374,55 C59.702397,55 57,52.2905551 57,48.9591851 L57,36.0399487 C57,32.7094449 59.702397,30 63.0242374,30 L105.975763,30 C109.298467,30 112,32.7094449 112,36.0399487 L112,48.9591851 C112,52.2905551 109.298467,55 105.975763,55 L63.0242374,55 Z" id="Fill-29" fill="#D9E4ED"></path>
                <path d="M106.199458,29 L63.7996893,29 C60.0506069,29 57,32.013577 57,35.7179936 L57,48.2836914 C57,51.9872655 60.0506069,55 63.7996893,55 L106.199458,55 C109.94854,55 113,51.9872655 113,48.2836914 L113,35.7179936 C113,32.013577 109.94854,29 106.199458,29 M106.199458,30.6849746 C109.001036,30.6849746 111.294321,32.9495804 111.294321,35.7179936 L111.294321,48.2836914 C111.294321,51.0512621 109.001036,53.3150254 106.199458,53.3150254 L63.7996893,53.3150254 C60.9981116,53.3150254 58.705679,51.0512621 58.705679,48.2836914 L58.705679,35.7179936 C58.705679,32.9495804 60.9981116,30.6849746 63.7996893,30.6849746 L106.199458,30.6849746" id="Fill-31" fill="#0B567F"></path>
                <path d="M63.0242374,115 C59.702397,115 57,112.290461 57,108.959842 L57,96.0392918 C57,92.7095388 59.702397,90 63.0242374,90 L105.975763,90 C109.298467,90 112,92.7095388 112,96.0392918 L112,108.959842 C112,112.290461 109.298467,115 105.975763,115 L63.0242374,115 Z" id="Fill-33" fill="#D9E4ED"></path>
                <path d="M106.199458,89 L63.7996893,89 C60.0506069,89 57,92.0127345 57,95.7171511 L57,108.283691 C57,111.987265 60.0506069,115 63.7996893,115 L106.199458,115 C109.94854,115 113,111.987265 113,108.283691 L113,95.7171511 C113,92.0127345 109.94854,89 106.199458,89 M106.199458,90.6849746 C109.001036,90.6849746 111.294321,92.9487379 111.294321,95.7171511 L111.294321,108.283691 C111.294321,111.051262 109.001036,113.315025 106.199458,113.315025 L63.7996893,113.315025 C60.9981116,113.315025 58.705679,111.051262 58.705679,108.283691 L58.705679,95.7171511 C58.705679,92.9487379 60.9981116,90.6849746 63.7996893,90.6849746 L106.199458,90.6849746" id="Fill-35" fill="#0B567F"></path>
                <path d="M122.024237,115 C118.702397,115 116,112.290461 116,108.959842 L116,96.0392918 C116,92.7095388 118.702397,90 122.024237,90 L164.976627,90 C168.298467,90 171,92.7095388 171,96.0392918 L171,108.959842 C171,112.290461 168.298467,115 164.976627,115 L122.024237,115 Z" id="Fill-37" fill="#B6C4CE"></path>
                <path d="M164.200207,89 L121.79894,89 C118.0498,89 115,92.0127345 115,95.7171511 L115,108.283691 C115,111.987265 118.0498,115 121.79894,115 L164.200207,115 C167.949347,115 171,111.987265 171,108.283691 L171,95.7171511 C171,92.0127345 167.949347,89 164.200207,89 M164.200207,90.6849746 C167.001828,90.6849746 169.294295,92.9487379 169.294295,95.7171511 L169.294295,108.283691 C169.294295,111.051262 167.001828,113.315025 164.200207,113.315025 L121.79894,113.315025 C118.99732,113.315025 116.705705,111.051262 116.705705,108.283691 L116.705705,95.7171511 C116.705705,92.9487379 118.99732,90.6849746 121.79894,90.6849746 L164.200207,90.6849746" id="Fill-39" fill="#0B567F"></path>
                <path d="M182.024237,115 C178.702397,115 176,112.290461 176,108.959842 L176,96.0392918 C176,92.7095388 178.702397,90 182.024237,90 L224.976627,90 C228.298467,90 231,92.7095388 231,96.0392918 L231,108.959842 C231,112.290461 228.298467,115 224.976627,115 L182.024237,115 Z" id="Fill-41" fill="#B6C4CE"></path>
                <path d="M224.200207,89 L181.79894,89 C178.0498,89 175,92.0127345 175,95.7171511 L175,108.283691 C175,111.987265 178.0498,115 181.79894,115 L224.200207,115 C227.949347,115 231,111.987265 231,108.283691 L231,95.7171511 C231,92.0127345 227.949347,89 224.200207,89 M224.200207,90.6849746 C227.001828,90.6849746 229.294295,92.9487379 229.294295,95.7171511 L229.294295,108.283691 C229.294295,111.051262 227.001828,113.315025 224.200207,113.315025 L181.79894,113.315025 C178.99732,113.315025 176.705705,111.051262 176.705705,108.283691 L176.705705,95.7171511 C176.705705,92.9487379 178.99732,90.6849746 181.79894,90.6849746 L224.200207,90.6849746" id="Fill-43" fill="#0B567F"></path>
                <path d="M181.025007,55 C177.702355,55 175,52.2905551 175,48.9591851 L175,36.0399487 C175,32.7094449 177.702355,30 181.025007,30 L223.975857,30 C227.298509,30 230,32.7094449 230,36.0399487 L230,48.9591851 C230,52.2905551 227.298509,55 223.975857,55 L181.025007,55 Z" id="Fill-45" fill="#D9E4ED"></path>
                <path d="M223.199458,29 L180.799689,29 C177.050607,29 174,32.013577 174,35.7179936 L174,48.2836914 C174,51.9872655 177.050607,55 180.799689,55 L223.199458,55 C226.94854,55 230,51.9872655 230,48.2836914 L230,35.7179936 C230,32.013577 226.94854,29 223.199458,29 M223.199458,30.6849746 C226.001036,30.6849746 228.294321,32.9495804 228.294321,35.7179936 L228.294321,48.2836914 C228.294321,51.0512621 226.001036,53.3150254 223.199458,53.3150254 L180.799689,53.3150254 C177.998112,53.3150254 175.705679,51.0512621 175.705679,48.2836914 L175.705679,35.7179936 C175.705679,32.9495804 177.998112,30.6849746 180.799689,30.6849746 L223.199458,30.6849746" id="Fill-47" fill="#0B567F"></path>
                <path d="M66.7299193,154.765296 C63.1436033,154.765296 60.2262109,157.682829 60.2262109,161.269319 C60.2262109,164.854958 63.1436033,167.773342 66.7299193,167.773342 C70.3162354,167.773342 73.2344788,164.854958 73.2344788,161.269319 C73.2344788,157.682829 70.3162354,154.765296 66.7299193,154.765296 M66.7299193,177 C58.0568896,177 51,169.942769 51,161.269319 C51,152.595018 58.0568896,145.538638 66.7299193,145.538638 C69.2515744,145.538638 71.7502512,146.158231 73.9987199,147.336139 L121.128905,100.20197 C121.128905,100.20197 121.128905,64.1643019 121.129756,64.1515355 C121.119543,63.9217415 121.202946,63.688543 121.378262,63.5132187 L138.064759,46.8259136 L132.99847,41.7627842 C132.783155,41.5483097 132.699753,41.2342578 132.778049,40.9406321 C132.857196,40.6470063 133.086979,40.4180633 133.37974,40.338912 L156.928237,34.0297881 C157.001427,34.009362 157.075468,34 157.148658,34 C157.371633,34 157.58865,34.0876622 157.750349,34.2493691 C157.965664,34.4646947 158.049918,34.7787466 157.97077,35.0715212 L151.663654,58.6177538 C151.584507,58.9113796 151.355575,59.1411737 151.061963,59.2194739 C150.989624,59.2399 150.914732,59.2484109 150.841542,59.2484109 C150.618567,59.2484109 150.40155,59.1615998 150.239851,58.9998929 L144.588041,53.3486609 L130.354264,67.5822759 L130.354264,103.714415 C130.354264,104.031871 130.180651,104.308475 129.922783,104.454863 L80.5620017,153.818034 C81.8053828,156.117676 82.4589876,158.679455 82.4589876,161.269319 C82.4589876,169.942769 75.402949,177 66.7299193,177" id="Fill-49" fill="#F9912B"></path>
                <path d="M66.4743756,166.124197 C63.3780318,166.124197 60.8583418,163.601106 60.8583418,160.497847 C60.8583418,157.396283 63.3780318,154.873191 66.4743756,154.873191 C69.571565,154.873191 72.091255,157.396283 72.091255,160.497847 C72.091255,163.601106 69.571565,166.124197 66.4743756,166.124197 Z M156.307242,36.3878367 L156.31147,36.3878367 L156.307242,36.3878367 Z M156.307242,33 C156.276803,33 156.246363,33.000847 156.215924,33.0025409 C156.083175,33.0101635 155.954654,33.0321844 155.832052,33.0677567 L132.474188,39.3369486 C131.89077,39.4927891 131.434181,39.9493001 131.278603,40.5345489 C131.12218,41.1189507 131.28875,41.7431596 131.71659,42.1700271 L136.151413,46.611481 L120.170829,62.6181626 C119.853754,62.9357723 119.675346,63.3668745 119.675346,63.8166098 L119.675346,63.8521821 L119.675346,63.8886013 L119.675346,99.376191 L73.528662,145.602376 C71.3218195,144.548759 68.9086667,143.997389 66.4743756,143.997389 C57.3908087,143.997389 50,151.399812 50,160.497847 C50,169.597577 57.3908087,177 66.4743756,177 C75.5579425,177 82.9470602,169.597577 82.9470602,160.497847 C82.9470602,157.990001 82.3644876,155.507564 81.2517654,153.244489 L129.788773,104.625644 C130.236906,104.320739 130.531997,103.805788 130.531997,103.222233 L130.531997,67.6169157 L143.828012,54.2993295 L148.845408,59.3234914 C149.166711,59.6453358 149.599624,59.8198094 150.041838,59.8198094 C150.18727,59.8198094 150.334393,59.8011763 150.479825,59.7622162 C151.062397,59.6055288 151.51814,59.1490178 151.675409,58.5646159 L157.917138,35.2173391 C157.971252,35.0521821 158,34.8768615 158,34.6939184 C158,33.7639572 157.252548,33.0076226 156.324998,33 L156.307242,33 Z M66.4743756,167.818116 C70.5050341,167.818116 73.7823221,164.535302 73.7823221,160.497847 C73.7823221,156.462087 70.5050341,153.179273 66.4743756,153.179273 C62.4445627,153.179273 59.1672747,156.462087 59.1672747,160.497847 C59.1672747,164.535302 62.4445627,167.818116 66.4743756,167.818116 Z M156.307242,34.6939184 L150.040993,58.1258911 L143.828012,51.9041289 L128.84093,66.9156335 L128.84093,103.222233 L128.797808,103.222233 L79.1641431,152.940431 C80.4814844,155.156076 81.2559931,157.735913 81.2559931,160.497847 C81.2559931,168.663381 74.625319,175.306082 66.4743756,175.306082 C58.3242778,175.306082 51.6910671,168.663381 51.6910671,160.497847 C51.6910671,152.334008 58.3242778,145.691307 66.4743756,145.691307 C69.1589446,145.691307 71.6701793,146.422233 73.8448916,147.681661 L121.366414,100.07832 L121.366414,63.8886013 L121.439129,63.8886013 L121.366414,63.8157629 L138.542582,46.610634 L132.911329,40.9724268 L156.307242,34.6939184 Z M156.307242,34.6939184 L156.31147,34.6939184 L156.307242,34.6939184 Z" id="Fill-51" fill="#0B567F"></path>
                <path d="M106.099672,165 C103.400923,165 100.863026,163.953236 98.9540711,162.05126 C95.0153096,158.129496 95.0153096,151.744657 98.9540711,147.820349 C100.85877,145.925155 103.39071,144.880933 106.084353,144.880933 C107.366067,144.880933 108.653739,145.128427 109.841836,145.599683 L128.944999,126.575693 C129.10415,126.417195 129.321173,126.327351 129.546707,126.327351 L129.556069,126.327351 C129.613091,126.328199 129.670113,126.334979 129.726284,126.346846 L164.727473,126.347693 L164.726622,119.847583 C164.726622,119.544148 164.888326,119.264446 165.152158,119.112728 C165.283223,119.037294 165.430459,119 165.577694,119 C165.72493,119 165.871314,119.037294 166.00323,119.112728 L183.574464,129.215065 C183.838296,129.366782 184,129.646484 184,129.949071 C184,130.252506 183.838296,130.532208 183.574464,130.683925 L166.004932,140.788805 C165.873016,140.863392 165.726632,140.901533 165.579396,140.901533 C165.432161,140.901533 165.284925,140.863392 165.15386,140.788805 C164.890028,140.637087 164.728324,140.357385 164.728324,140.05395 L164.728324,134.278523 L132.475246,134.278523 L115.475933,151.208984 C116.962756,154.918006 116.10062,159.207621 113.244422,162.052108 C111.335467,163.953236 108.798422,165 106.099672,165" id="Fill-53" fill="#2BB3E2"></path>
                <path d="M164.877507,118 C164.585342,118 164.294865,118.076769 164.033098,118.229453 C163.510409,118.533968 163.188689,119.096938 163.188689,119.706822 L163.189533,125.396229 L129.299166,125.394523 C129.239213,125.387699 129.17926,125.384287 129.119307,125.384287 C128.689503,125.384287 128.259699,125.547207 127.934601,125.874753 L109.363508,144.635296 C108.236221,144.248041 107.040538,144.046736 105.850765,144.046736 C102.951908,144.046736 100.226999,145.186324 98.1793065,147.255664 C93.9403719,151.536794 93.9403719,158.502266 98.1784621,162.783395 C100.231221,164.857854 102.962041,166 105.86512,166 C108.769043,166 111.498174,164.857854 113.550933,162.784248 C116.489478,159.815009 117.466459,155.405932 116.146647,151.485615 L132.384638,135.082722 L163.190378,135.082722 L163.190378,140.042827 C163.190378,140.652711 163.512097,141.215681 164.034787,141.520196 C164.296554,141.672027 164.587875,141.748796 164.879196,141.748796 C165.171362,141.748796 165.461839,141.672027 165.723605,141.519343 L183.155591,131.350914 C183.679124,131.046399 184,130.483429 184,129.873545 C184,129.263661 183.67828,128.700691 183.155591,128.396176 L165.721917,118.229453 C165.46015,118.076769 165.168828,118 164.877507,118 M164.877507,119.705969 L182.311181,129.873545 L164.879196,140.042827 L164.879196,133.376753 L131.684623,133.376753 L114.163974,151.074476 C115.765819,154.51371 115.169666,158.736836 112.356938,161.578128 C110.564258,163.389014 108.214266,164.294031 105.86512,164.294031 C103.515129,164.294031 101.165138,163.388161 99.3724568,161.577275 C95.7879394,157.956356 95.787095,152.08441 99.3733013,148.461785 C101.162605,146.65431 103.504996,145.752706 105.850765,145.752706 C107.190842,145.752706 108.531764,146.047838 109.769668,146.636398 L129.128596,127.080874 L129.147173,127.100492 L164.878352,127.102198 L164.877507,119.705969" id="Fill-55" fill="#0B567F"></path>
                <path d="M32.1167164,165 C29.3145196,164.999152 26.6126745,163.82186 24.7042892,161.769863 C21.0167852,157.805719 21.1817704,151.507333 25.069978,147.729658 C26.9605041,145.892947 29.4573933,144.880933 32.1005581,144.880933 C33.3813194,144.880933 34.6680337,145.128427 35.8560972,145.599683 L47.2162627,134.278523 L20.2573431,134.278523 L20.2573431,140.05395 C20.2573431,140.357385 20.0949092,140.637087 19.8321235,140.788805 C19.7003055,140.863392 19.55403,140.901533 19.406904,140.901533 C19.259778,140.901533 19.1126521,140.863392 18.9816844,140.788805 L1.42521955,130.683925 C1.16243387,130.532208 1,130.252506 1,129.949071 C1,129.646484 1.16243387,129.366782 1.42521955,129.215065 L18.9833853,119.112728 C19.1143529,119.037294 19.2614789,119 19.4086049,119 C19.5548804,119 19.7020064,119.037294 19.8338244,119.112728 C20.0966101,119.264446 20.259044,119.544148 20.259044,119.847583 L20.259044,126.347693 L62.2035511,126.346846 C62.9323774,126.346846 63.5846642,126.780808 63.8627578,127.452941 C64.1417018,128.125074 63.9877723,128.891288 63.4707054,129.404923 L41.486004,151.209832 C42.9708707,154.919701 42.1102264,159.208468 39.2561527,162.052108 C37.3486178,163.953236 34.8143093,165 32.1175669,165 L32.1167164,165 Z" id="Fill-57" fill="#2BB3E2"></path>
                <g id="Group-61" transform="translate(0.000000, 118.000000)">
                    <mask id="mask-2" fill="white">
                        <use xlink:href="#path-1"></use>
                    </mask>
                    <g id="Clip-60"></g>
                    <path d="M19.4107714,3.80901053 L19.4159143,3.80901053 L19.4107714,3.80901053 Z M19.4107714,0.440589474 C19.1150571,0.440589474 18.8193429,0.515536842 18.5536286,0.666273684 L0.857057143,10.7041684 C0.326485714,11.0039579 -8.57142857e-05,11.5597474 -8.57142857e-05,12.1618526 C-8.57142857e-05,12.7639579 0.326485714,13.3197474 0.857057143,13.6203789 L18.5519143,23.6591158 C18.8176286,23.8098526 19.1133429,23.8856421 19.4090571,23.8856421 C19.7056286,23.8856421 20.0004857,23.8098526 20.2662,23.6599579 C20.7967714,23.3593263 21.1233429,22.8035368 21.1233429,22.2014316 L21.1233429,17.3045895 L45.3684857,17.3045895 L35.7702,26.7353263 C34.6259143,26.3530105 33.4130571,26.1542737 32.2044857,26.1542737 C29.3150571,26.1542737 26.5850571,27.2448 24.5184857,29.2245895 C20.2696286,33.2936421 20.0904857,40.0784842 24.1199143,44.3496421 C26.2053429,46.5601684 29.1573429,47.8275368 32.2190571,47.8275368 C35.1667714,47.8275368 37.9370571,46.6999579 40.0216286,44.6528 C43.0027714,41.7222737 43.9944857,37.3702737 42.6564857,33.5008 L64.4244857,12.2174316 C65.1924857,11.4662737 65.4222,10.3454316 65.0082,9.36101053 C64.5950571,8.37574737 63.6273429,7.73995789 62.5430571,7.73995789 L21.1250571,7.74164211 L21.1250571,2.1248 C21.1259143,1.52269474 20.7984857,0.966905263 20.2687714,0.666273684 C20.0030571,0.515536842 19.7073429,0.440589474 19.4107714,0.440589474 Z M19.4107714,2.1248 L19.4107714,9.42585263 L62.5430571,9.42416842 C63.3933429,9.42416842 63.8176286,10.4346947 63.2150571,11.0233263 L40.6430571,33.0932211 C42.2690571,36.4877474 41.6639143,40.6570105 38.8087714,43.4620632 C36.9890571,45.2498526 34.6044857,46.1433263 32.2190571,46.1433263 C29.7222,46.1433263 27.2253429,45.1631158 25.3773429,43.2043789 C21.9899143,39.6144842 22.1467714,33.8469053 25.7150571,30.4296421 C27.5202,28.7016421 29.8610571,27.8384842 32.2044857,27.8384842 C33.5647714,27.8384842 34.9267714,28.1298526 36.1824857,28.7109053 L49.5067714,15.6203789 L19.4090571,15.6203789 L19.4090571,22.2014316 L1.7142,12.1618526 L19.4107714,2.1248 Z" id="Fill-59" fill="#0B567F" mask="url(#mask-2)"></path>
                </g>
                <path d="M299.839383,145.613075 L278.786142,138.20543 C275.525958,137.057873 269.268808,133.986473 269.268808,130.539585 L269.268808,118 L240.730346,118 L240.730346,130.539585 C240.730346,133.986473 234.474042,137.057873 231.213858,138.20543 L210.160617,145.613075 C205.270341,147.334409 202,151.941511 202,157.111421 L202,176.9363 C202,179.180786 203.826448,181 206.077769,181 L303.922231,181 C306.174398,181 308,179.180786 308,176.9363 L308,157.111421 C308,151.941511 304.729659,147.333565 299.839383,145.613075" id="Fill-62" fill="#EAAE78"></path>
                <path d="M299.839383,145.613075 L278.786142,138.20543 C275.525958,137.057873 269.268808,133.986473 269.268808,130.539585 L269.268808,118 L240.730346,118 L240.730346,130.539585 C240.730346,133.986473 234.474042,137.057873 231.213858,138.20543 L210.160617,145.613075 C205.270341,147.334409 202,151.941511 202,157.111421 L202,176.9363 C202,179.180786 203.826448,181 206.077769,181 L303.922231,181 C306.174398,181 308,179.180786 308,176.9363 L308,157.111421 C308,151.941511 304.729659,147.333565 299.839383,145.613075 Z" id="Stroke-64" stroke="#0A537B" stroke-width="2"></path>
                <path d="M205.937371,182 C203.214475,182 201,179.792517 201,177.079064 L201,157.199022 C201,151.668046 204.515659,146.714111 209.749255,144.871298 L232.199566,137.047382 C232.292084,137.01523 232.386298,137 232.479665,137 C232.793714,137 233.091637,137.174297 233.239325,137.467895 C237.935642,146.839334 245.25979,148.721914 255.555528,148.721914 C265.969247,148.721914 272.505725,146.939175 277.219017,137.533891 C277.366706,137.241139 277.665477,137.066842 277.978678,137.066842 C278.072893,137.066842 278.168806,137.082072 278.262172,137.11507 L300.250745,144.872144 C305.483492,146.714111 309,151.667199 309,157.199022 L309,177.079064 C309,179.792517 306.784676,182 304.062629,182 L205.937371,182 Z" id="Fill-66" fill="#2BB3E2"></path>
                <g id="Group-70" transform="translate(199.000000, 136.000000)">
                    <mask id="mask-4" fill="white">
                        <use xlink:href="#path-3"></use>
                    </mask>
                    <g id="Clip-69"></g>
                    <path d="M32.6996154,0.698742857 C32.5143077,0.698742857 32.3264615,0.7296 32.142,0.794742857 L9.76376923,8.71988571 C4.20369231,10.7084571 0.471307692,16.0518857 0.471307692,22.0184571 L0.471307692,42.1570286 C0.471307692,45.3790286 3.05969231,48.0001714 6.23953846,48.0001714 L104.061692,48.0001714 C107.242385,48.0001714 109.829077,45.3790286 109.829077,42.1570286 L109.829077,22.0184571 C109.829077,16.0518857 106.096692,10.7084571 100.542538,8.7216 L78.6220769,0.863314286 C78.4367692,0.796457143 78.2463846,0.764742857 78.0576923,0.764742857 C77.4332308,0.764742857 76.8383846,1.11788571 76.5439231,1.7136 C72.5390769,9.83245714 67.2802308,12.5736 55.704,12.5736 C43.8172308,12.5736 38.1928462,9.71417143 34.2142308,1.64674286 C33.9206154,1.05188571 33.3257692,0.698742857 32.6996154,0.698742857 M32.7004615,2.41302857 C37.3788462,11.8990286 44.5237692,14.2878857 55.704,14.2878857 C66.8842308,14.2878857 73.3784615,11.9667429 78.0576923,2.47988571 L99.979,10.3381714 C104.868077,12.0867429 108.136769,16.7667429 108.136769,22.0184571 L108.136769,42.1570286 C108.136769,44.4370286 106.312462,46.2858857 104.061692,46.2858857 L6.23953846,46.2858857 C3.98876923,46.2858857 2.16361538,44.4370286 2.16361538,42.1570286 L2.16361538,22.0184571 C2.16361538,16.7667429 5.43315385,12.0867429 10.3222308,10.3381714 L32.7004615,2.41302857" id="Fill-68" fill="#0B567F" mask="url(#mask-4)"></path>
                </g>
                <path d="M265.223535,166 C264.954416,166 264.700157,165.863767 264.545785,165.63157 L254.147554,150.096673 C253.935396,149.779652 253.953557,149.355529 254.192132,149.059928 L268.474427,131.308453 C268.63788,131.105388 268.872327,131 269.109251,131 C269.274354,131 269.441935,131.052266 269.5864,131.158511 L277.652541,137.106514 C277.974494,137.344709 278.089241,137.785968 277.926613,138.159539 L265.975583,165.49705 C265.85258,165.778085 265.594193,165.968298 265.298658,165.996573 C265.273892,165.999143 265.248301,166 265.223535,166" id="Fill-71" fill="#D9E4ED"></path>
                <path d="M269.151863,130 C268.671574,130 268.195469,130.213284 267.866631,130.619991 L253.38936,148.50993 C252.905724,149.106607 252.868908,149.963196 253.299829,150.601321 L263.839402,166.257392 C264.15318,166.724544 264.669448,167 265.213329,167 C265.26437,167 265.314575,166.99741 265.365616,166.993092 C265.964721,166.936101 266.48852,166.551845 266.737869,165.986254 L278.850513,138.435506 C279.181025,137.681673 278.949249,136.792271 278.295755,136.313893 L270.119971,130.319494 C269.827112,130.104483 269.487396,130 269.151863,130 M269.151026,131.726995 L277.32681,137.721394 L265.213329,165.273005 L254.673755,149.616934 L269.151026,131.726995" id="Fill-73" fill="#0B567F"></path>
                <path d="M242.700906,165.996573 C242.40538,165.968298 242.147002,165.778085 242.024004,165.49705 L230.073384,138.159539 C229.910762,137.785968 230.025506,137.344709 230.347447,137.106514 L238.414136,131.158511 C238.557771,131.052266 238.726171,131 238.891269,131 C239.12901,131 239.362624,131.105388 239.525245,131.308453 L253.807874,149.059071 C254.046441,149.355529 254.064602,149.780509 253.852451,150.096673 L243.453752,165.63157 C243.299386,165.863767 243.045135,166 242.776025,166 C242.75126,166 242.72567,165.999143 242.700906,165.996573" id="Fill-75" fill="#D9E4ED"></path>
                <path d="M238.848618,130 C238.512246,130 238.172527,130.104483 237.880502,130.319494 L229.703808,136.313893 C229.051146,136.792271 228.81853,137.681673 229.149882,138.435506 L241.262634,165.986254 C241.511148,166.551845 242.035788,166.936101 242.634899,166.993092 C242.685941,166.99741 242.736146,167 242.78635,167 C243.331073,167 243.846509,166.724544 244.161126,166.257392 L254.700793,150.601321 C255.130881,149.963196 255.094064,149.106607 254.611261,148.50993 L240.133862,130.619991 C239.804183,130.213284 239.328911,130 238.848618,130 M238.849455,131.726995 L253.326854,149.616934 L242.78635,165.273005 L230.672762,137.721394 L238.849455,131.726995" id="Fill-77" fill="#0B567F"></path>
                <path d="M281.812072,93.0212176 L281.254593,93.0212176 L281.254593,82 L228.67433,82 L228.67433,93.0212176 L228.187928,93.0212176 C224.771123,93.0212176 222,95.7805736 222,99.1847745 C222,102.588122 224.771123,105.347478 228.187928,105.347478 C228.223038,105.347478 228.255579,105.337243 228.291546,105.33639 C229.343134,119.128052 240.884913,130 255,130 C269.115944,130 280.656866,119.128052 281.708454,105.33639 C281.744421,105.337243 281.776962,105.347478 281.812072,105.347478 C285.228877,105.347478 288,102.588122 288,99.1847745 C288,95.7805736 285.228877,93.0212176 281.812072,93.0212176" id="Fill-79" fill="#FFDEAE"></path>
                <path d="M281.812072,93.0212176 L281.254593,93.0212176 L281.254593,82 L228.67433,82 L228.67433,93.0212176 L228.187928,93.0212176 C224.771123,93.0212176 222,95.7805736 222,99.1847745 C222,102.588122 224.771123,105.347478 228.187928,105.347478 C228.223038,105.347478 228.255579,105.337243 228.291546,105.33639 C229.343134,119.128052 240.884913,130 255,130 C269.115944,130 280.656866,119.128052 281.708454,105.33639 C281.744421,105.337243 281.776962,105.347478 281.812072,105.347478 C285.228877,105.347478 288,102.588122 288,99.1847745 C288,95.7805736 285.228877,93.0212176 281.812072,93.0212176 Z" id="Stroke-81" stroke="#0B567F" stroke-width="2"></path>
                <path d="M242.000415,103 C240.894333,103 240,102.10563 240,101.000332 L240,94.9996678 C240,93.8943697 240.895163,93 242.000415,93 C243.105667,93 244,93.8943697 244,94.9996678 L244,101.000332 C244,102.10563 243.105667,103 242.000415,103" id="Fill-83" fill="#0B567F"></path>
                <path d="M267,103 C265.893688,103 265,102.10563 265,101.000332 L265,94.9996678 C265,93.8943697 265.894518,93 267,93 C268.105482,93 269,93.8943697 269,94.9996678 L269,101.000332 C269,102.10563 268.105482,103 267,103" id="Fill-85" fill="#0B567F"></path>
                <path d="M255.000427,119 C250.365041,119 246.400522,116.881334 245.140832,113.725751 C244.728057,112.697136 245.25364,111.537349 246.312497,111.138854 C247.372209,110.735378 248.564386,111.24844 248.976306,112.277056 C249.504453,113.597901 251.796507,115.001766 255.000427,115.001766 C258.204347,115.001766 260.495547,113.597901 261.024549,112.277056 C261.433905,111.24844 262.630354,110.732887 263.687503,111.138854 C264.74636,111.537349 265.271943,112.697136 264.859168,113.725751 C263.599478,116.881334 259.635813,119 255.000427,119" id="Fill-87" fill="#F9912B"></path>
                <polygon id="Fill-89" fill="#B6C4CE" points="229.446782 77.544119 227.357557 68.350033 225 66.2184763 236.143959 59 281.470786 63.7241737 290 70.9138337 287.418689 82.5606931 256.641849 86"></polygon>
                <path d="M235.261995,59 L234.752785,59.3344246 L224.837252,65.8475786 L223,67.0544151 L224.620603,68.5409367 L225.959733,69.7691559 L227.871192,78.3025423 L228.086135,79.2639061 L229.024379,79.5598419 L255.439358,87.8913762 L255.783949,88 L256.142188,87.9589453 L285.978345,84.5779213 L287.192092,84.4410724 L287.452241,83.2444995 L289.780792,72.5899546 L290,71.5883914 L289.221258,70.9221082 L281.325508,64.1711791 L280.922916,63.8282015 L280.3975,63.7717513 L235.866736,59.0641479 L235.261995,59 Z M235.687617,60.7653513 L280.21838,65.4729546 L288.11413,72.2238837 L285.786432,82.8784286 L255.951127,86.2594526 L229.535296,77.9287737 L227.50613,68.8693742 L225.772084,67.2793606 L235.687617,60.7653513 Z" id="Fill-91" fill="#0B567F"></path>
                <path d="M265.389405,76 C263.203645,76 260.868915,75.8724961 258.450282,75.620866 C236.214267,73.3089084 233.007116,63.4032931 233.001123,63.3061875 C232.997699,63.236947 233.00198,63.1668621 233.015678,63.098466 C236.000229,47.5548154 240.991603,40 248.273187,40 C252.269711,40 255.9623,42.3322231 258.66004,44.0362152 C259.779032,44.7421307 260.937408,45.4742225 261.402299,45.5223531 L261.407436,45.5223531 C261.999038,45.5223531 263.172824,45.0967772 264.415103,44.6467139 C266.785791,43.7888071 270.032325,42.6125627 273.278002,42.6125627 C276.237724,42.6125627 278.718001,43.6021954 280.652051,45.5535957 C284.502173,49.438664 286.241876,56.9791246 285.973044,68.6039311 C285.971332,68.6621945 285.964483,68.7196135 285.95164,68.7753436 C285.729897,69.7227565 280.743659,76 265.389405,76 C265.388549,76 265.390261,76 265.389405,76" id="Fill-93" fill="#FFFFFF"></path>
                <path d="M248.213635,39 C240.417805,39 235.126486,46.8351481 232.035867,62.9549671 C232.005744,63.1005511 231.993695,63.2512434 232.003162,63.4053412 C232.112465,65.1370256 237.130956,74.3999193 258.353895,76.6134785 C260.816235,76.8697406 263.192509,77 265.419028,77 C281.532247,77 286.660902,70.2741856 286.93287,69.0362952 C286.960411,68.9188063 286.97246,68.800466 286.97332,68.6829771 C287.247009,56.7365685 285.417253,48.9431375 281.379911,44.8565667 C279.267859,42.7187794 276.566257,41.6349868 273.350842,41.6341354 C269.933174,41.6341354 266.5878,42.8498902 264.144395,43.7370166 C263.153779,44.0971457 261.928204,44.543263 261.5039,44.5696554 C261.096809,44.455572 260.002914,43.7634091 259.11988,43.2032083 C256.319302,41.4298069 252.483354,39 248.213635,39 M248.213635,40.7027378 C253.974012,40.7027378 259.388405,46.0646592 261.322301,46.2655823 C261.368777,46.2706905 261.418695,46.2732446 261.469473,46.2732446 C263.296648,46.2732446 268.359893,43.3368732 273.350842,43.3368732 C279.598351,43.3377246 285.731392,47.9419277 285.252007,68.6727607 C285.279548,68.6855312 281.187984,75.2972622 265.419028,75.2972622 C263.334517,75.2972622 261.044309,75.181476 258.534633,74.9192544 C237.039726,72.6784514 233.688328,63.3065824 233.721894,63.2989201 C237.153333,45.3776045 242.834529,40.7027378 248.213635,40.7027378" id="Fill-95" fill="#0B567F"></path>
                <path d="M265.854013,95 C262.568558,95 259.183364,94.8169224 255.792254,94.4541892 C233.663824,92.0930014 217.081025,83.0392151 218.03953,73.8425599 C218.457924,69.8139971 222.282643,66.3355227 228.808755,64.0461972 C228.900041,64.0145435 228.993863,64 229.085149,64 C229.429163,64 229.752045,64.2138757 229.877986,64.5577878 C230.926086,67.4220113 233.489704,70.1784413 237.291602,72.5310741 C242.52703,75.7700077 249.675239,78.0097141 257.4185,78.8361298 C259.545128,79.0628381 261.678518,79.1783309 263.758658,79.1783309 C269.190182,79.1783309 274.254026,78.3964014 278.402472,76.9180925 C282.605014,75.4201071 285.680004,73.2650955 287.295261,70.684899 C287.456702,70.4282482 287.729715,70.2870902 288.010336,70.2870902 C288.159098,70.2870902 288.309551,70.3272988 288.446481,70.4111381 C294.357256,74.024782 297.381532,78.2338558 296.961446,82.2632741 C296.167764,89.8815267 283.664948,95 265.854013,95 C265.853167,95 265.854858,95 265.854013,95" id="Fill-97" fill="#FFFFFF"></path>
                <path d="M228.976247,64 C228.792131,64 228.60547,64.0302071 228.421354,64.0949367 C221.441919,66.5537975 217.507609,70.2218067 217.044349,74.7010932 C216.531879,79.6429804 220.474674,84.6228423 228.147301,88.722382 C235.348184,92.5699079 245.13178,95.3118527 255.695111,96.4450518 C259.129678,96.8135788 262.558307,97 265.885119,97 C284.222044,97 297.110156,91.5264672 297.954374,83.3783084 C298.419331,78.8981588 295.323299,74.4766974 289.002269,70.5920598 C288.728217,70.4228999 288.425316,70.3434983 288.126658,70.3434983 C287.564129,70.3434983 287.013478,70.6283084 286.691063,71.1452819 C285.173168,73.5834292 282.236647,75.6349252 278.199673,77.0814154 C274.125366,78.5408516 269.139813,79.3124281 263.780938,79.3124281 C261.722573,79.3124281 259.610755,79.197641 257.506574,78.972382 C249.856007,78.151611 242.806999,75.9361335 237.655996,72.7333142 C234.004223,70.4626007 231.552172,67.8319908 230.567958,65.1271577 C230.314269,64.4315305 229.666894,64 228.976247,64 M228.976247,65.726122 C230.091124,68.7891254 232.748502,71.7054085 236.7719,74.2065593 C242.133321,77.5397008 249.433474,79.8414845 257.328397,80.6890104 C259.511485,80.9220368 261.671665,81.0385501 263.780938,81.0385501 C269.302718,81.0385501 274.474083,80.245397 278.76305,78.7100115 C283.209831,77.1168009 286.406829,74.8279632 288.124961,72.0696203 C293.575471,75.4182969 296.668108,79.3305524 296.267635,83.1979287 C295.513354,90.4692175 282.656635,95.273878 265.885119,95.273878 C262.672849,95.273878 259.315491,95.0978136 255.873288,94.7284235 C234.462391,92.4318182 217.833418,83.5466053 218.731937,74.882336 C219.131562,71.0158228 222.958966,67.8466628 228.976247,65.726122" id="Fill-99" fill="#0B567F"></path>
            </g>
        </g>
    </g>
</svg>