<?xml version="1.0" encoding="UTF-8" standalone="no"?>
<svg width="135px" height="135px" viewBox="0 0 135 135" version="1.1" xmlns="http://www.w3.org/2000/svg" xmlns:xlink="http://www.w3.org/1999/xlink">
    <!-- Generator: Sketch 50.2 (55047) - http://www.bohemiancoding.com/sketch -->
    <title>icon</title>
    <desc>Created with Sketch.</desc>
    <defs>
        <polygon id="path-1" points="0.000135382603 0.33236429 66.6847319 0.33236429 66.6847319 67.0143885 0.000135382603 67.0143885"></polygon>
    </defs>
    <g id="Page-1" stroke="none" stroke-width="1" fill="none" fill-rule="evenodd">
        <g id="security" transform="translate(-278.000000, -2278.000000)">
            <g id="icon-copy-7" transform="translate(288.000000, 2288.000000)">
                <circle id="Oval" fill="#FFFFFF" cx="57.5" cy="57.5" r="57.5"></circle>
                <g id="Group" stroke-width="1" transform="translate(23.992806, 20.683453)">
                    <g id="Group-3">
                        <mask id="mask-2" fill="white">
                            <use xlink:href="#path-1"></use>
                        </mask>
                        <g id="Clip-2"></g>
                        <path d="M59.519743,49.0481017 L59.519743,63.3746272 L7.16492119,63.3746272 L7.16492119,49.0481017 C7.16492119,48.0445782 6.34856409,47.2282211 5.34537901,47.2282211 L3.65411184,47.2282211 L3.65411184,38.2618313 L5.34537901,38.2618313 C6.34856409,38.2618313 7.16492119,37.4454742 7.16492119,36.4419506 L7.16492119,28.3538555 C7.16492119,26.1975491 7.86383388,21.1819621 14.3368146,21.1819621 L52.3478496,21.1819621 C58.8211687,21.1819621 59.519743,26.1975491 59.519743,28.3538555 L59.519743,36.4270585 C59.519743,37.4305821 60.3361001,38.2469392 61.3392852,38.2469392 L63.045106,38.2469392 L63.045106,47.2282211 L61.3392852,47.2282211 C60.3361001,47.2282211 59.519743,48.0445782 59.519743,49.0481017 Z M30.9804133,6.13621648 C31.0917655,4.94688031 32.0952891,4.01341727 33.3127171,4.01341727 C34.6046056,4.01341727 35.6555131,5.06466318 35.6555131,6.35655167 C35.6555131,7.63422498 34.6161131,8.68479398 33.3421629,8.69900916 C32.0506128,8.69900916 30.9993669,7.6481017 30.9993669,6.35621321 L30.9804133,6.13621648 Z M63.2207649,34.6075164 L63.1591658,34.6075164 L63.1591658,28.3538555 C63.1591658,23.1274101 60.3188388,17.5425392 52.3478496,17.5425392 L35.1620435,17.5425392 L35.1620435,12.0158829 C36.5933761,11.5606589 37.7837276,10.5997809 38.5344241,9.28860039 C39.3284431,7.90194408 39.5342247,6.28886037 39.114877,4.74685252 C38.6955294,3.20518313 37.7008058,1.91870994 36.3141494,1.12502943 C34.9271547,0.331348921 33.3137325,0.125228908 31.7724016,0.544576521 C30.2303937,0.96426259 28.9439205,1.95898627 28.15024,3.34598103 C27.3565595,4.73263734 27.1504395,6.3453826 27.5701256,7.88739045 C28.1015023,9.84096141 29.6035723,11.4019228 31.5226207,12.0158829 L31.5226207,17.5425392 L14.3368146,17.5425392 C9.1103692,17.5425392 3.52583682,20.3828663 3.52583682,28.3538555 L3.52583682,34.6075164 L3.44765337,34.6075164 C1.55568149,34.6159778 0.00927370831,36.162724 0.000135382603,38.0563882 L0.000135382603,47.4201259 C0.00927370831,49.3120978 1.55568149,50.858844 3.44934565,50.8679823 L3.52583682,50.8679823 L3.52583682,63.566532 C3.53429823,65.4585039 5.08070602,67.0052502 6.97470863,67.0143885 L59.7116478,67.0143885 C61.6039581,67.0052502 63.1507044,65.4585039 63.1591658,63.5651782 L63.1591658,50.8679823 L63.2370108,50.8679823 C65.1289827,50.858844 66.6757289,49.3120978 66.6848672,47.4187721 L66.6848672,38.0712802 C66.6848672,36.1613702 65.130675,34.6075164 63.2207649,34.6075164 Z" id="Fill-1" fill="#349CD6" mask="url(#mask-2)"></path>
                    </g>
                    <path d="M33.0933713,44.676259 C32.1811681,44.676259 31.4388489,45.4615695 31.4388489,46.4269285 L31.4388489,52.853647 C31.4388489,53.819006 32.1811681,54.6043165 33.0933713,54.6043165 C34.0058822,54.6043165 34.7482014,53.819006 34.7482014,52.853647 L34.7482014,46.4269285 C34.7482014,45.4615695 34.0058822,44.676259 33.0933713,44.676259" id="Fill-4" fill="#349CD6"></path>
                    <path d="M24.3607331,37.8838497 C24.3462994,39.6517371 22.8817823,41.0959548 21.0956957,41.1032656 L20.9050366,41.112238 C19.1944752,41.013542 17.8336793,39.6045491 17.8336793,37.8865082 C17.8336793,36.509417 18.7389745,35.2675758 20.0487489,34.8275979 L23.9733728,36.3655269 C24.2271374,36.8340835 24.3607331,37.3574712 24.3607331,37.8838497 M27.1041432,34.137723 L16.2842383,29.8971196 C15.4521187,29.5707915 14.5082218,29.975877 14.178932,30.7993403 C14.0198257,31.1971149 14.0272103,31.6331052 14.1997434,32.0278891 C14.3722765,32.4223406 14.6888109,32.7264039 15.0902692,32.8839187 L16.0519565,33.2610902 C14.8848407,34.5132329 14.2239115,36.1664735 14.2239115,37.8718866 C14.2239115,41.6239948 17.3070171,44.676259 21.0970384,44.676259 C24.8870597,44.676259 27.970501,41.6239948 27.970501,37.8708897 C27.9691583,37.4368932 27.9231718,36.9929276 27.8335486,36.5486296 C27.9097451,36.443952 27.9698296,36.3359514 28.0154804,36.2219692 C28.1742511,35.8245268 28.1672021,35.3882043 27.9943333,34.9934204 C27.8218003,34.5986365 27.5056015,34.2945732 27.1041432,34.137723" id="Fill-6" fill="#F7941D"></path>
                    <path d="M45.091184,41.1026325 C43.3060917,41.0956541 41.8412284,39.6521136 41.8261233,37.8845742 C41.8264589,37.3565388 41.9600555,36.8331557 42.213822,36.3649355 L46.1381383,34.82702 C47.4479221,35.2669941 48.3535594,36.509489 48.3535594,37.8862357 C48.3535594,39.56804 47.0488106,40.9540914 45.3889232,41.1039617 L45.091184,41.1026325 Z M51.1433116,29.9178528 C50.7448715,29.7467148 50.3038013,29.7400687 49.9026758,29.8969175 L39.0830292,34.1371513 C38.2509036,34.4634765 37.8420577,35.3985876 38.1716855,36.2217113 C38.2170009,36.3356925 38.2770858,36.4436922 38.3536185,36.5487012 C38.263659,36.991666 38.2176723,37.4356278 38.2166652,37.8716142 C38.2166652,41.6236894 41.2997929,44.676259 45.0898413,44.676259 C48.8798897,44.676259 51.9633531,41.6236894 51.9633531,37.8716142 C51.9633531,36.1665484 51.3024191,34.5136548 50.1346237,33.2608584 L51.0969892,32.8836903 C51.4984503,32.7265092 51.8146513,32.4224486 51.9871856,32.0276682 C52.1600556,31.6328878 52.1671047,31.1965691 52.0079972,30.7991302 C51.8492253,30.4016914 51.5420874,30.0883262 51.1433116,29.9178528 Z" id="Fill-8" fill="#F7941D"></path>
                </g>
            </g>
        </g>
    </g>
</svg>