<?xml version="1.0" encoding="UTF-8" standalone="no"?>
<svg width="543px" height="181px" viewBox="0 0 543 181" version="1.1" xmlns="http://www.w3.org/2000/svg" xmlns:xlink="http://www.w3.org/1999/xlink">
    <!-- Generator: Sketch 50.2 (55047) - http://www.bohemiancoding.com/sketch -->
    <title>Group</title>
    <desc>Created with Sketch.</desc>
    <defs>
        <polygon id="path-1" points="0.318270386 0.745875 189.469386 0.745875 189.469386 116.736344 0.318270386 116.736344"></polygon>
        <polygon id="path-3" points="0 0.0515121951 187.221463 0.0515121951 187.221463 32.2393902 0 32.2393902"></polygon>
    </defs>
    <g id="Page-1" stroke="none" stroke-width="1" fill="none" fill-rule="evenodd">
        <g id="storage-backup" transform="translate(-449.000000, -529.000000)">
            <g id="Group" transform="translate(449.000000, 529.000000)">
                <path d="M533.495201,135 C529.571671,135 526.17994,132.334394 525.246266,128.517968 C524.707204,126.313174 525.059854,124.030097 526.238043,122.0892 C527.416231,120.14911 529.278738,118.783622 531.48421,118.245336 C532.148354,118.082317 532.829444,118 533.508113,118 C537.431642,118 540.823373,120.665606 541.756241,124.482839 C542.868257,129.034465 540.069655,133.642582 535.519103,134.754664 C534.85496,134.917683 534.17387,135 533.495201,135" id="Fill-1" fill="#F2F2F2"></path>
                <path d="M533.505765,117 C532.748049,117 531.987038,117.092261 531.245793,117.273488 C528.781567,117.875656 526.69867,119.402081 525.382549,121.571038 C524.066429,123.739172 523.672746,126.291177 524.275624,128.755864 C525.318308,133.020464 529.107715,136 533.493411,136 C534.251951,136 535.012962,135.907739 535.754207,135.726512 C538.219256,135.124344 540.300506,133.597919 541.617451,131.429785 C542.933571,129.260828 543.327254,126.709647 542.724376,124.24496 C541.682515,119.979536 537.891462,117 533.505765,117 M533.505765,118.647518 C537.039031,118.647518 540.248619,121.050423 541.124111,124.636245 C542.153617,128.848125 539.57491,133.097073 535.363818,134.125948 C534.737878,134.279168 534.110291,134.352482 533.493411,134.352482 C529.960146,134.352482 526.751381,131.949577 525.875065,128.363755 C524.845559,124.152699 527.42509,119.902927 531.636182,118.874052 C532.262122,118.720832 532.888885,118.647518 533.505765,118.647518" id="Fill-3" fill="#0B567F"></path>
                <path d="M374.659671,117 C359.408388,117 347,104.532503 347,89.2079384 C347,75.5165674 357.005427,63.8342119 370.388011,61.747581 C370.871856,48.2147089 381.896204,37.2839981 395.391007,36.9931443 C395.312941,36.0699285 395.274722,35.1475298 395.274722,34.2406542 C395.274722,16.4626238 409.670534,2 427.364624,2 C441.875909,2 454.470517,11.6749741 458.298991,25.6400418 C461.258171,24.6539167 464.350713,24.1547266 467.505871,24.1547266 C483.619943,24.1547266 496.729296,37.3256653 496.729296,53.5146208 C496.729296,56.2001165 496.369055,58.853749 495.656706,61.4191449 L506.341955,61.4191449 C521.592425,61.4191449 534,73.8850083 534,89.2079384 C534,104.532503 521.592425,117 506.341955,117 L374.659671,117 Z" id="Fill-5" fill="#F2F2F2"></path>
                <g id="Group-9" transform="translate(346.000000, 0.000000)">
                    <mask id="mask-2" fill="white">
                        <use xlink:href="#path-1"></use>
                    </mask>
                    <g id="Clip-8"></g>
                    <path d="M81.7222618,0.74546875 C63.527927,0.74546875 48.7266824,15.4931563 48.7266824,33.6208438 C48.7266824,34.2667813 48.7470687,34.9208438 48.7853948,35.5781563 C35.4372833,36.2939688 24.6211459,46.9880938 23.8040644,60.2830313 C10.320588,62.6912813 0.318270386,74.4920313 0.318270386,88.2850313 C0.318270386,103.973594 13.1265536,116.736344 28.8704592,116.736344 C29.08003,116.736344 29.2887854,116.733906 29.494279,116.729031 L29.9688712,116.736344 L160.918828,116.736344 C176.661918,116.736344 189.469386,103.973594 189.469386,88.2850313 C189.469386,72.5989063 176.661918,59.8377813 160.918828,59.8377813 L151.257369,59.8377813 C151.814322,57.5359688 152.095652,55.1740313 152.095652,52.7893438 C152.095652,36.2411563 138.58282,22.7780313 121.974536,22.7780313 C119.009558,22.7780313 116.096768,23.2029688 113.293249,24.0422813 C109.096124,10.2387187 96.3571545,0.74546875 81.7222618,0.74546875 M81.7222618,2.37046875 C96.4509313,2.37046875 108.805009,12.4869062 112.176897,26.1255312 C115.229944,25.0107812 118.531704,24.4030312 121.974536,24.4030312 C137.708657,24.4030312 150.464751,37.1121562 150.464751,52.7893437 C150.464751,55.8142812 149.986897,58.7287187 149.109472,61.4627812 L160.918828,61.4627812 C175.78694,61.4627812 187.838485,73.4723437 187.838485,88.2850312 C187.838485,103.102594 175.78694,115.111344 160.918828,115.111344 L29.9688712,115.111344 L29.9688712,115.083719 C29.6043648,115.103219 29.2382275,115.111344 28.8704592,115.111344 C14.0007167,115.111344 1.94917167,103.102594 1.94917167,88.2850312 C1.94917167,74.6480312 12.1643219,63.3875937 25.3860386,61.6837812 C25.5034635,48.1239687 36.573206,37.1649687 50.211618,37.1649687 C50.3290429,37.1649687 50.4448369,37.1665937 50.559,37.1682187 C50.4285279,36.0047187 50.3575837,34.8209062 50.3575837,33.6208437 C50.3575837,16.3633437 64.3996438,2.37046875 81.7222618,2.37046875" id="Fill-7" fill="#0B567F" mask="url(#mask-2)"></path>
                </g>
                <path d="M133.321144,39.484289 C132.279064,39.484289 131.430859,40.3425652 131.430859,41.3978363 C131.430859,42.4522899 132.279064,43.3105662 133.321144,43.3105662 C134.363224,43.3105662 135.21062,42.4522899 135.21062,41.3978363 C135.21062,40.3425652 134.363224,39.484289 133.321144,39.484289 M175.375126,69 C175.30727,69 175.239414,68.9910085 175.173173,68.973843 L170.328713,67.7076812 C169.903803,67.596514 169.644495,67.1632889 169.743048,66.7308811 L170.853792,61.8877509 L152.818539,43.6391634 L139.218993,43.6391634 C138.302124,46.1142685 135.960272,47.7948552 133.321144,47.7948552 C129.836235,47.7948552 127,44.9249429 127,41.3978363 C127,37.8699122 129.836235,35 133.321144,35 C135.958656,35 138.300508,36.6797692 139.218185,39.1548744 L153.735408,39.1548744 C153.84204,39.1548744 153.947055,39.1761269 154.044801,39.2169972 L155.040835,39.6346917 C155.138581,39.675562 155.22744,39.73605 155.302567,39.8112514 L172.0332,56.7421806 L172.507387,54.6700565 C172.593823,54.292415 172.925027,54.0365669 173.29339,54.0365669 C173.349129,54.0365669 173.404061,54.0422887 173.4598,54.0537324 L178.357575,55.0902031 C178.57003,55.1351605 178.755827,55.265128 178.87296,55.4506792 C178.989286,55.6362303 179.028061,55.8610169 178.979592,56.0751773 L176.161937,68.3673278 C176.11266,68.5814882 175.980179,68.7670393 175.793574,68.8814761 C175.665939,68.9599471 175.521341,69 175.375126,69" id="Fill-10" fill="#B6C4CE"></path>
                <path d="M133.1801,42.3951002 C132.578843,42.3951002 132.089864,41.8987934 132.089864,41.2893517 C132.089864,40.6782585 132.578843,40.1811258 133.1801,40.1811258 C133.780543,40.1811258 134.269523,40.6782585 134.269523,41.2893517 C134.269523,41.8987934 133.780543,42.3951002 133.1801,42.3951002 M133.1801,34 C129.221078,34 126,37.269349 126,41.2893517 C126,45.3077029 129.221078,48.5770519 133.1801,48.5770519 C135.98461,48.5770519 138.494594,46.902326 139.659683,44.378676 L152.480534,44.378676 L170.087034,62.2498509 L169.07165,66.6959673 C168.871503,67.5688397 169.394653,68.4441896 170.249756,68.6679818 L175.128156,69.9471487 C175.262402,69.9826582 175.399088,70 175.534961,70 C175.830301,70 176.122387,69.9190714 176.378673,69.7605175 C176.753747,69.5301188 177.021425,69.1552048 177.120685,68.7216589 L179.95774,56.3032527 C180.057,55.8705326 179.979707,55.4163417 179.74376,55.0414277 C179.508627,54.6665137 179.133554,54.4047346 178.706409,54.3138964 L173.773497,53.2667798 C173.661219,53.2428316 173.548127,53.2312704 173.43829,53.2312704 C172.696279,53.2312704 172.028306,53.749048 171.854193,54.5104372 L171.707744,55.1537368 L155.894438,39.1026288 C155.743107,38.9490297 155.564926,38.8276368 155.367219,38.7442309 L154.364039,38.3222462 C154.166332,38.239666 153.954794,38.1967243 153.740815,38.1967243 L139.659683,38.1967243 C138.492967,35.6730743 135.982983,34 133.1801,34 M133.1801,44.0467037 C134.677954,44.0467037 135.896741,42.8096527 135.896741,41.2893517 C135.896741,39.768225 134.677954,38.5295224 133.1801,38.5295224 C131.681432,38.5295224 130.462646,39.768225 130.462646,41.2893517 C130.462646,42.8096527 131.681432,44.0467037 133.1801,44.0467037 M133.1801,35.6516034 C135.748664,35.6516034 137.894965,37.4394641 138.526325,39.8483278 L153.740815,39.8483278 L154.743995,40.2703124 L172.63119,58.426389 L173.439917,54.8836996 L178.372829,55.9308162 L175.534961,68.3483966 L170.656561,67.0692297 L171.876974,61.7295958 L153.154203,42.7270725 L138.526325,42.7270725 C137.896592,45.1359361 135.748664,46.9254485 133.1801,46.9254485 C130.117675,46.9254485 127.627218,44.3968436 127.627218,41.2893517 C127.627218,38.1802083 130.117675,35.6516034 133.1801,35.6516034" id="Fill-12" fill="#0B567F"></path>
                <path d="M7.38153796,119.476481 C6.32936721,119.476481 5.47376479,120.333263 5.47376479,121.386697 C5.47376479,122.439315 6.32936721,123.29528 7.38153796,123.29528 C8.43370871,123.29528 9.29012677,122.439315 9.29012677,121.386697 C9.29012677,120.333263 8.43370871,119.476481 7.38153796,119.476481 M184.331374,146 C184.285698,146 184.238391,145.99592 184.191084,145.988576 L179.213256,145.125267 C178.997113,145.087731 178.805438,144.965334 178.681462,144.785002 C178.556669,144.603854 178.510178,144.38109 178.551775,144.166487 C178.556669,144.141191 178.991403,141.888263 179.395959,139.344845 L83.5921415,139.344845 C83.4852932,139.344845 83.3784448,139.323629 83.2797528,139.282014 L82.2740734,138.865863 C82.1753814,138.825064 82.0856614,138.764681 82.0098072,138.688795 L66.9523465,123.624937 L13.3364982,123.624937 C12.4099354,126.094917 10.0445903,127.771762 7.38153796,127.771762 C3.86288321,127.771762 1,124.907662 1,121.386697 C1,117.864915 3.86288321,115 7.38153796,115 C10.0454059,115 12.4099354,116.676845 13.3364982,119.148456 L67.8789093,119.148456 C67.9857577,119.148456 68.092606,119.169672 68.191298,119.210471 L69.1961618,119.627438 C69.2948538,119.668237 69.3853895,119.72862 69.460428,119.80369 L84.5178887,134.868364 L179.998714,134.868364 L180.363303,131.994472 C180.415504,131.582401 180.767043,131.281303 181.171599,131.281303 C181.20504,131.281303 181.239297,131.282935 181.274369,131.287831 L186.286454,131.918586 C186.500966,131.945513 186.696719,132.056487 186.828852,132.227843 C186.961801,132.3992 187.020526,132.616251 186.99361,132.830855 L186.199181,139.078834 C185.738346,142.192625 185.138038,145.308047 185.131513,145.339054 C185.056474,145.728278 184.715538,146 184.331374,146" id="Fill-14" fill="#B6C4CE"></path>
                <g id="Group-18" transform="translate(0.000000, 114.000000)">
                    <mask id="mask-4" fill="white">
                        <use xlink:href="#path-3"></use>
                    </mask>
                    <g id="Clip-17"></g>
                    <path d="M7.18282078,8.23390244 C6.58138355,8.23390244 6.09225801,7.75017073 6.09225801,7.15617073 C6.09225801,6.56056098 6.58138355,6.07682927 7.18282078,6.07682927 C7.78344416,6.07682927 8.2725697,6.56056098 8.2725697,7.15617073 C8.2725697,7.75017073 7.78344416,8.23390244 7.18282078,8.23390244 M7.18282078,0.0515121951 C3.22179913,0.0515121951 -0.000244155844,3.23802439 -0.000244155844,7.15617073 C-0.000244155844,11.0727073 3.22179913,14.2592195 7.18282078,14.2592195 C9.98654372,14.2592195 12.4972797,12.6277317 13.6635307,10.1680244 L66.285626,10.1680244 L81.0717039,24.7918537 C81.2230805,24.941561 81.4021281,25.059878 81.5998944,25.1411707 L82.602561,25.5524634 C82.8003273,25.6329512 83.011929,25.6748049 83.2259723,25.6748049 L177.863219,25.6748049 C177.512448,27.7634634 177.182838,29.4512927 177.179583,29.4730244 C177.095756,29.8971951 177.189349,30.3366585 177.43676,30.6932195 C177.685799,31.0489756 178.06831,31.2912439 178.498838,31.3644878 L183.466596,32.2160488 C183.560189,32.2313415 183.653782,32.2393902 183.745747,32.2393902 C184.512397,32.2393902 185.192777,31.7041463 185.341713,30.9354878 C185.348223,30.9049024 185.952102,27.8141707 186.411929,24.7411463 L187.207877,18.546 C187.264033,18.1218293 187.144397,17.6936341 186.880708,17.3563902 C186.615392,17.0183415 186.225557,16.7994146 185.796656,16.7454878 L180.795531,16.1233171 C180.727167,16.1152683 180.658803,16.1112439 180.59044,16.1112439 C179.783098,16.1112439 179.082371,16.704439 178.979011,17.5181707 L178.704743,19.6494878 L84.4874442,19.6494878 L69.7005524,5.02565854 C69.5499896,4.87595122 69.3701281,4.75763415 69.1723619,4.67634146 L68.1696952,4.26585366 C67.971929,4.18536585 67.7603273,4.1435122 67.546284,4.1435122 L13.6635307,4.1435122 C12.4980935,1.683 9.98654372,0.0515121951 7.18282078,0.0515121951 M7.18282078,9.84365854 C8.68112381,9.84365854 9.90027532,8.63795122 9.90027532,7.15617073 C9.90027532,5.67358537 8.68112381,4.46707317 7.18282078,4.46707317 C5.6837039,4.46707317 4.46455238,5.67358537 4.46455238,7.15617073 C4.46455238,8.63795122 5.6837039,9.84365854 7.18282078,9.84365854 M7.18282078,1.66126829 C9.75215411,1.66126829 11.8990978,3.40463415 12.5306476,5.75326829 L67.546284,5.75326829 L68.5497645,6.1637561 L83.8127602,21.2592439 L180.138752,21.2592439 C180.393487,19.2744146 180.592881,17.721 180.592881,17.721 L185.594007,18.3431707 C185.594007,18.3431707 185.196847,21.4250488 184.801314,24.506122 C184.342301,27.5783415 183.744119,30.6296341 183.744119,30.6296341 L178.777176,29.778878 C178.777176,29.778878 179.325713,26.9770976 179.770076,24.0650488 L83.2259723,24.0650488 L82.2224918,23.6537561 L66.9594961,8.55826829 L12.5306476,8.55826829 C11.8990978,10.9052927 9.75215411,12.6494634 7.18282078,12.6494634 C4.11947879,12.6494634 1.62746147,10.1849268 1.62746147,7.15617073 C1.62746147,4.12580488 4.11947879,1.66126829 7.18282078,1.66126829" id="Fill-16" fill="#0B567F" mask="url(#mask-4)"></path>
                </g>
                <path d="M33.3670199,84.7843866 C32.317377,84.7843866 31.4630165,85.63294 31.4630165,86.6762567 C31.4630165,87.7187652 32.317377,88.5673186 33.3670199,88.5673186 C34.4166628,88.5673186 35.2702096,87.7187652 35.2702096,86.6762567 C35.2702096,85.63294 34.4166628,84.7843866 33.3670199,84.7843866 M33.3670199,93 C29.8568188,93 27,90.1634071 27,86.6762567 C27,83.188298 29.8568188,80.350897 33.3670199,80.350897 C35.7283096,80.350897 37.876416,81.6471634 38.9781342,83.6950057 L61.7358568,83.6950057 L70.0638375,75.4244383 C70.1386957,75.3492807 70.2290138,75.2894779 70.3274687,75.2490706 L71.3299184,74.836108 C71.4283732,74.7957007 71.5341512,74.7746889 71.6415565,74.7746889 L170.298225,74.7746889 C170.282765,74.2356554 170.267305,73.9067399 170.267305,73.9035074 C170.256727,73.6844998 170.337281,73.470341 170.488625,73.3111363 C170.639969,73.1519315 170.850711,73.060611 171.070404,73.0581865 C171.070404,73.0581865 176.116013,73 176.119268,73 C176.553771,73 176.911789,73.3386132 176.932131,73.7709714 C176.93864,73.8994666 177.079406,76.9607241 176.935385,80.0793599 L176.778346,86.296428 C176.77265,86.5113949 176.680705,86.7158558 176.522851,86.8637466 C176.371507,87.0059803 176.172157,87.0843705 175.964669,87.0843705 C175.955719,87.0843705 170.899532,86.9146598 170.899532,86.9146598 C170.454451,86.899305 170.102942,86.5299822 170.114334,86.08631 L170.268932,79.9662195 C170.281138,79.7084209 170.290088,79.4562793 170.297411,79.2081784 L72.5650795,79.2081784 L64.2379126,87.4787458 C64.1630543,87.5539033 64.0727362,87.612898 63.9742813,87.6541135 L62.9718317,88.0670761 C62.8733768,88.1074834 62.7675988,88.1284952 62.6601935,88.1284952 L39.5371301,88.1284952 C38.8691015,90.9505415 36.3328713,93 33.3670199,93" id="Fill-19" fill="#B6C4CE"></path>
                <path d="M33.1983371,87.8428294 C32.5963685,87.8428294 32.1053318,87.348512 32.1053318,86.7415134 C32.1053318,86.1328697 32.5963685,85.6385524 33.1983371,85.6385524 C33.8003057,85.6385524 34.2905268,86.1328697 34.2905268,86.7415134 C34.2905268,87.348512 33.8003057,87.8428294 33.1983371,87.8428294 M176.301279,72 L176.282519,72 L171.23104,72.0592194 C170.788944,72.0641543 170.367239,72.2500374 170.063808,72.5749215 C169.760377,72.8989831 169.600504,73.3332586 169.620081,73.7790489 C169.620081,73.7806939 169.620081,73.7897413 169.621712,73.8061911 L71.5669015,73.8061911 C71.3515631,73.8061911 71.1403032,73.8489607 70.942094,73.9312098 L69.9371817,74.3515029 C69.7389725,74.4337521 69.5595239,74.5554808 69.4086239,74.7076417 L61.2991771,82.8848512 L39.2938809,82.8848512 C37.9887999,80.7866756 35.6991985,79.4813818 33.1983371,79.4813818 C29.2292597,79.4813818 26,82.7384477 26,86.7415134 C26,90.7437565 29.2292597,94 33.1983371,94 C36.3305314,94 39.0385744,91.9503514 39.9994403,89.0420218 L62.5634743,89.0420218 C62.7779969,89.0420218 62.9892569,88.9992523 63.1882818,88.9161806 L64.1931941,88.4958875 C64.3905876,88.4136384 64.5708519,88.2927322 64.7217519,88.1397488 L72.8311987,79.9633617 L169.620081,79.9633617 L169.465918,86.1205324 C169.443079,87.0228054 170.147007,87.7753851 171.040987,87.8058173 L176.090835,87.9785405 C176.10878,87.9785405 176.128356,87.9793629 176.145485,87.9793629 C176.56148,87.9793629 176.961161,87.8197996 177.264592,87.5311051 C177.581074,87.2300733 177.765417,86.8147151 177.776837,86.3755047 L177.935078,80.030806 C178.080268,76.8535218 177.937525,73.7009122 177.930999,73.5684911 C177.890215,72.6900703 177.171605,72 176.301279,72 M33.1983371,89.4878122 C34.7008116,89.4878122 35.9218779,88.2557201 35.9218779,86.7415134 C35.9218779,85.2264842 34.7008116,83.9935696 33.1983371,83.9935696 C31.6958627,83.9935696 30.4739806,85.2264842 30.4739806,86.7415134 C30.4739806,88.2557201 31.6958627,89.4878122 33.1983371,89.4878122 M176.301279,73.6449828 C176.301279,73.6449828 176.448917,76.8173321 176.304542,79.9896815 C176.225422,83.1620308 176.145485,86.3343801 176.145485,86.3343801 L171.097269,86.1616569 C171.097269,86.1616569 171.174758,83.046882 171.253063,79.9321071 C171.276718,79.3867953 171.2914,78.8472409 171.301188,78.3183789 L72.1550036,78.3183789 L63.5683866,86.9767459 L62.5634743,87.397039 L38.700069,87.397039 C38.3737988,90.1811724 36.045045,92.3550172 33.1983371,92.3550172 C30.1281342,92.3550172 27.6313512,89.8365485 27.6313512,86.7415134 C27.6313512,83.6448333 30.1281342,81.1263646 33.1983371,81.1263646 C35.4887542,81.1263646 37.4586108,82.5303574 38.3126231,84.529834 L61.9745565,84.529834 L70.5619892,75.871467 L71.5669015,75.4511739 L171.301188,75.4511739 C171.281612,74.4041424 171.2498,73.7042022 171.2498,73.7042022 L176.301279,73.6449828" id="Fill-21" fill="#0B567F"></path>
                <path d="M124.406371,109.602511 C123.350106,109.602511 122.491174,110.46985 122.491174,111.536263 C122.491174,112.60185 123.350106,113.469189 124.406371,113.469189 C125.462636,113.469189 126.322387,112.60185 126.322387,111.536263 C126.322387,110.46985 125.462636,109.602511 124.406371,109.602511 M124.406371,118 C120.874024,118 118,115.100611 118,111.536263 C118,107.971089 120.874024,105.070874 124.406371,105.070874 C127.080605,105.070874 129.455155,106.768379 130.384505,109.269618 L170.877946,109.269618 L171.300452,103.762432 C171.333204,103.329589 171.691024,103 172.115987,103 C172.131544,103 177.227819,103.289113 177.227819,103.289113 C177.44726,103.302329 177.652781,103.403106 177.797711,103.570791 C177.94264,103.737651 178.014696,103.95655 177.997501,104.177928 L177.022298,116.891459 C177.005103,117.113663 176.899476,117.319346 176.729982,117.46225 C176.582596,117.586982 176.396727,117.653891 176.205944,117.653891 C176.178104,117.653891 176.149446,117.652239 176.121606,117.64976 L171.076098,117.126879 C170.634759,117.081447 170.309691,116.688254 170.344081,116.241368 L170.53077,113.80043 L130.384505,113.80043 C129.455974,116.302495 127.082243,118 124.406371,118" id="Fill-23" fill="#B6C4CE"></path>
                <path d="M125.150457,112.059229 C124.552425,112.059229 124.065409,111.582221 124.065409,110.995684 C124.065409,110.409147 124.552425,109.931346 125.150457,109.931346 C125.7493,109.931346 126.236315,110.409147 126.236315,110.995684 C126.236315,111.582221 125.7493,112.059229 125.150457,112.059229 M172.365838,102 C171.525513,102 170.816464,102.634158 170.750826,103.465152 L170.391845,108.024108 L131.60402,108.024108 C130.4428,105.598591 127.943705,103.989781 125.150457,103.989781 C121.208144,103.989781 118,107.132794 118,110.995684 C118,114.857781 121.208144,118 125.150457,118 C127.944516,118 130.444421,116.39119 131.60483,113.964879 L169.922657,113.964879 L169.804347,115.455429 C169.737089,116.314202 170.3805,117.069001 171.255669,117.157101 L176.248186,117.659507 C176.303289,117.665063 176.358392,117.667444 176.414306,117.667444 C176.791925,117.667444 177.159821,117.538072 177.452354,117.299172 C177.787836,117.024555 177.996093,116.629297 178.030128,116.203085 L178.995245,103.9874 C179.028469,103.561189 178.886659,103.140533 178.598988,102.819088 C178.312127,102.498437 177.905335,102.30319 177.470182,102.279379 L172.459027,102.003175 C172.427424,102.000794 172.396631,102 172.365838,102 M125.150457,113.646609 C126.643107,113.646609 127.856999,112.457662 127.856999,110.995684 C127.856999,109.533707 126.643107,108.343965 125.150457,108.343965 C123.658617,108.343965 122.444725,109.533707 122.444725,110.995684 C122.444725,112.457662 123.658617,113.646609 125.150457,113.646609 M172.367459,103.58738 L177.379423,103.864378 L176.414306,116.080063 L171.420979,115.578451 L171.673806,112.377499 L130.476024,112.377499 C129.848819,114.693487 127.708706,116.41262 125.150457,116.41262 C122.10114,116.41262 119.620684,113.98234 119.620684,110.995684 C119.620684,108.008235 122.10114,105.577162 125.150457,105.577162 C127.708706,105.577162 129.847199,107.295501 130.476024,109.611489 L171.891788,109.611489 L172.367459,103.58738" id="Fill-25" fill="#0B567F"></path>
                <path d="M179.011466,166 C173.491323,166 169,161.515937 169,156.005529 L169,32.9952834 C169,27.4832503 173.491323,23 179.011466,23 L388.989348,23 C394.509491,23 399,27.4832503 399,32.9952834 L399,156.005529 C399,161.515937 394.509491,166 388.989348,166 L179.011466,166 Z" id="Fill-27" fill="#B6C4CE"></path>
                <path d="M389.157941,22 L178.841243,22 C172.862173,22 168,26.8606811 168,32.8359133 L168,156.164901 C168,162.139319 172.862173,167 178.841243,167 L389.157941,167 C395.137012,167 400,162.139319 400,156.164901 L400,32.8359133 C400,26.8606811 395.137012,22 389.157941,22 M389.157941,23.6294606 C394.245124,23.6294606 398.369493,27.7511814 398.369493,32.8359133 L398.369493,156.164901 C398.369493,161.248819 394.245124,165.370539 389.157941,165.370539 L178.841243,165.370539 C173.75406,165.370539 169.630507,161.248819 169.630507,156.164901 L169.630507,32.8359133 C169.630507,27.7511814 173.75406,23.6294606 178.841243,23.6294606 L389.157941,23.6294606" id="Fill-29" fill="#0B567F"></path>
                <path d="M185.721897,157 C185.422766,157 185.120374,156.979669 184.823688,156.938194 C184.703873,156.922742 184.578352,156.903224 184.456091,156.878014 C183.578259,156.716178 182.737104,156.372177 181.970937,155.858207 C181.514497,155.552428 181.093104,155.187282 180.722247,154.774155 C180.537225,154.569217 180.36443,154.350455 180.203046,154.121121 C179.416502,152.997219 179,151.67326 179,150.293187 L179,39.7068129 C179,36.0081849 182.014951,33 185.721897,33 L382.282993,33 C382.966838,33 383.638457,33.1016553 384.277474,33.3017131 C384.755921,33.4472835 385.230293,33.6571001 385.682658,33.921404 C387.729303,35.1217503 389,37.3378368 389,39.7068129 L389,150.293187 C389,153.511189 386.705573,156.281907 383.543909,156.880453 C383.138818,156.959338 382.714166,157 382.282993,157 L185.721897,157 Z" id="Fill-31" fill="#F2F2F2"></path>
                <path d="M381.491161,32 L185.513715,32 C181.370851,32 178,35.3833605 178,39.5424144 L178,150.457586 C178,152.009788 178.466458,153.499184 179.347365,154.76509 C179.522897,155.017945 179.717119,155.264274 179.925156,155.496737 C180.340417,155.961664 180.810939,156.371941 181.323718,156.717781 C182.17862,157.294454 183.120476,157.681892 184.120841,157.867047 C184.231361,157.889886 184.374387,157.912724 184.520663,157.9323 C184.84247,157.976346 185.18053,158 185.513715,158 L381.491161,158 C381.972247,158 382.450082,157.954323 382.908414,157.8646 C386.433667,157.192496 389,154.077488 389,150.457586 L389,39.5424144 C389,36.8792822 387.579497,34.3866232 385.291901,33.0367047 C384.788061,32.7398042 384.257404,32.5040783 383.712932,32.3368679 C383.006744,32.1141925 382.255047,32 381.491161,32 M381.491161,33.6313214 C382.098207,33.6313214 382.684936,33.7226754 383.23591,33.8964111 C383.670675,34.0301794 384.081873,34.2153344 384.467879,34.4429038 C386.208565,35.4706362 387.37471,37.37031 387.37471,39.5424144 L387.37471,150.457586 C387.37471,153.340946 385.317906,155.744698 382.595545,156.263458 C382.238794,156.333605 381.869041,156.368679 381.491161,156.368679 L185.513715,156.368679 C185.24798,156.368679 184.985496,156.349918 184.731138,156.314845 C184.623869,156.300979 184.518225,156.28385 184.415832,156.263458 C183.618627,156.115824 182.87912,155.800979 182.228191,155.362153 C181.824307,155.090538 181.457804,154.769168 181.134371,154.40783 C180.97103,154.225122 180.819065,154.032626 180.67929,153.830343 C180.012921,152.873573 179.62529,151.71044 179.62529,150.457586 L179.62529,39.5424144 C179.62529,36.2773246 182.263135,33.6313214 185.513715,33.6313214 L381.491161,33.6313214" id="Fill-33" fill="#0B567F"></path>
                <path d="M419,161 L419,161.800104 C419,165.779963 417.743441,169.460608 415.60957,172.454387 C412.355864,177.026058 407.059437,180 401.079389,180 L165.918983,180 C159.940563,180 154.644136,177.026058 151.39043,172.454387 C149.256559,169.460608 148,165.779963 148,161.800104 L148,161 L419,161 Z" id="Fill-35" fill="#7996A5"></path>
                <path d="M419,161 L419,161.800104 C419,165.779963 417.743441,169.460608 415.60957,172.454387 C412.355864,177.026058 407.059437,180 401.079389,180 L165.918983,180 C159.940563,180 154.644136,177.026058 151.39043,172.454387 C149.256559,169.460608 148,165.779963 148,161.800104 L148,161 L419,161 Z" id="Stroke-37" stroke="#0B567F" stroke-width="2"></path>
                <path d="M253,162 L253,162.5233 C253,166.652611 258.100418,170 259.280843,170 L306.232232,170 C307.412657,170 313,166.652611 313,162.5233 L313,162 L253,162 Z" id="Fill-39" fill="#0B567F"></path>
                <path d="M253,162 L253,162.5233 C253,166.652611 258.100418,170 259.280843,170 L306.232232,170 C307.412657,170 313,166.652611 313,162.5233 L313,162 L253,162 Z" id="Stroke-41" stroke="#0B567F"></path>
                <path d="M224.872818,132 C223.971756,132 223.140443,131.584239 222.592181,130.859534 C222.045542,130.134829 221.866303,129.213747 222.100693,128.332104 L235.508759,91.0820897 C235.825064,89.8841075 236.964571,89 238.259797,89 L297.2003,89 C298.848327,89 300,90.4206524 300,92.4534424 C300,92.5495767 299.982968,92.6448895 299.950527,92.7352722 L286.563548,129.91791 C286.248054,131.115892 285.108547,132 283.813321,132 L224.872818,132 Z" id="Fill-43" fill="#F9912B"></path>
                <path d="M298.372153,88 L239.15235,88 C237.510366,88 236.062324,89.0819207 235.602731,90.640826 L222.172688,127.230965 C222.157205,127.274695 222.142537,127.319235 222.130314,127.363775 C221.827179,128.478089 222.058605,129.642611 222.765106,130.558519 C223.469977,131.475236 224.54073,132 225.70112,132 L284.921737,132 C286.562906,132 288.010948,130.918079 288.471356,129.359174 L301.901399,92.7690354 C301.96659,92.5908748 302,92.4029963 302,92.2134982 C302,89.7718882 300.474544,88 298.372153,88 M298.372153,89.6196418 C299.735447,89.6196418 300.370239,90.9137357 300.370239,92.2134982 L286.919009,128.860324 C286.67536,129.756796 285.858034,130.380358 284.921737,130.380358 L225.70112,130.380358 C224.33864,130.380358 223.34856,129.094363 223.703848,127.786502 L237.154264,91.1396757 C237.397913,90.2432039 238.217683,89.6196418 239.15235,89.6196418 L298.372153,89.6196418" id="Fill-45" fill="#0B567F"></path>
                <path d="M286.824014,89 C286.368334,89 286,88.6398285 286,88.1960457 L286,62.8039543 C286,62.3593676 286.368334,62 286.824014,62 L289.858858,62 C291.619776,62 293,63.9182349 293,66.3678835 L293,88.1960457 C293,88.6398285 292.631666,89 292.175986,89 L286.824014,89 Z" id="Fill-47" fill="#F9912B"></path>
                <path d="M289.873464,61 L286.715102,61 C285.769223,61 285,61.7302158 285,62.629946 L285,88.370054 C285,89.2705991 285.769223,90 286.715102,90 L292.285755,90 C293.232492,90 294,89.2705991 294,88.370054 L294,66.2427214 C294,63.3031138 292.187137,61 289.873464,61 M289.873464,62.629946 C291.204383,62.629946 292.285755,64.2460375 292.285755,66.2427214 L292.285755,88.370054 L286.715102,88.370054 L286.715102,62.629946 L289.873464,62.629946" id="Fill-49" fill="#0B567F"></path>
                <path d="M222.763208,126.985395 C222.338418,126.972413 222,126.613783 222,126.174016 L222,66.2406501 C222,64.4539922 223.407067,63 225.136063,63 L228.214807,63 C228.649019,63 229,63.3634981 229,63.8113796 L229,111.673851 C229,111.769594 228.984296,111.863714 228.952103,111.952965 L223.800449,126.467735 C223.687381,126.789041 223.392148,127 223.063937,127 C223.048233,127 222.763208,126.985395 222.763208,126.985395" id="Fill-51" fill="#F9912B"></path>
                <path d="M228.350893,63 L225.11782,63 C222.847,63 221,64.8287544 221,67.0753233 L221,127.354039 C221,128.236999 221.70994,128.960014 222.602107,128.985311 C222.682913,128.987759 222.76372,128.992656 222.842052,128.997552 C222.875034,128.998368 222.908016,129 222.941823,129 C223.629501,129 224.249565,128.575657 224.48951,127.92935 L229.899404,113.331141 C229.965369,113.151611 230,112.961473 230,112.769703 L230,64.6320878 C230,63.7311754 229.2612,63 228.350893,63 M228.350893,64.6320878 L228.350893,112.769703 L222.940174,127.367912 C222.84535,127.3622 222.747229,127.356488 222.649107,127.354039 L222.649107,67.0753233 C222.649107,65.7255867 223.755657,64.6320878 225.11782,64.6320878 L228.350893,64.6320878" id="Fill-53" fill="#0B567F"></path>
                <polygon id="Fill-55" fill="#7996A5" points="232 103.823615 232 59 228 59 228 115"></polygon>
                <polygon id="Stroke-57" stroke="#0B567F" stroke-width="2" points="232 103.823615 232 59 228 59 228 115"></polygon>
                <path d="M237.290929,90.200908 C237.533234,89.3000985 238.347672,88.6735192 239.277995,88.6735192 L241.909318,88.6735192 L287,88.6735192 L287,72.8186218 L287,53 L267.263051,53 L237,53 L237,91 L237.290929,90.200908 Z" id="Fill-59" fill="#F2F2F2"></path>
                <path d="M237.290929,90.200908 C237.533234,89.3000985 238.347672,88.6735192 239.277995,88.6735192 L241.909318,88.6735192 L287,88.6735192 L287,72.8186218 L287,53 L267.263051,53 L237,53 L237,91 L237.290929,90.200908 Z" id="Stroke-61" stroke="#0B567F" stroke-width="2" stroke-linecap="round"></path>
                <path d="M245.307166,74 L276.692029,74 C277.413668,74 278,73.3294335 278,72.5 C278,71.6714901 277.413668,71 276.692029,71 L245.307166,71 C244.585526,71 244,71.6714901 244,72.5 C244,73.3294335 244.585526,74 245.307166,74" id="Fill-63" fill="#B6C4CE"></path>
                <path d="M245.307166,74 L276.692029,74 C277.413668,74 278,73.3294335 278,72.5 C278,71.6714901 277.413668,71 276.692029,71 L245.307166,71 C244.585526,71 244,71.6714901 244,72.5 C244,73.3294335 244.585526,74 245.307166,74 Z" id="Stroke-65" stroke="#0B567F" stroke-width="2" stroke-linecap="round" stroke-linejoin="round"></path>
                <path d="M245.332854,65 L258.666324,65 C259.402967,65 260,64.329227 260,63.499538 C260,62.670773 259.402967,62 258.666324,62 L245.332854,62 C244.597033,62 244,62.670773 244,63.499538 C244,64.329227 244.597033,65 245.332854,65" id="Fill-67" fill="#B6C4CE"></path>
                <path d="M245.332854,65 L258.666324,65 C259.402967,65 260,64.329227 260,63.499538 C260,62.670773 259.402967,62 258.666324,62 L245.332854,62 C244.597033,62 244,62.670773 244,63.499538 C244,64.329227 244.597033,65 245.332854,65 Z" id="Stroke-69" stroke="#0B567F" stroke-width="2" stroke-linecap="round" stroke-linejoin="round"></path>
                <path d="M276.692029,80 L245.307166,80 C244.585526,80 244,80.6705665 244,81.5 C244,82.3285099 244.585526,83 245.307166,83 L276.692029,83 C277.413668,83 278,82.3285099 278,81.5 C278,80.6705665 277.413668,80 276.692029,80" id="Fill-71" fill="#B6C4CE"></path>
                <path d="M276.692029,80 L245.307166,80 C244.585526,80 244,80.6705665 244,81.5 C244,82.3285099 244.585526,83 245.307166,83 L276.692029,83 C277.413668,83 278,82.3285099 278,81.5 C278,80.6705665 277.413668,80 276.692029,80 Z" id="Stroke-73" stroke="#0B567F" stroke-width="2" stroke-linecap="round" stroke-linejoin="round"></path>
                <polygon id="Fill-75" fill="#7996A5" points="237 92.2450007 237 54 232 54 232 104"></polygon>
                <polygon id="Stroke-77" stroke="#0B567F" stroke-width="2" points="237 92.2450007 237 54 232 54 232 104"></polygon>
                <path d="M354.433161,83.4448385 C351.48874,80.5062437 347.574307,78.8883014 343.40857,78.8883014 L329.288122,78.8883014 L329.288122,72 L310,83.1107959 L329.288122,94.2224085 L329.288122,87.7775915 L343.409389,87.7775915 C345.193886,87.7775915 346.872787,88.4709953 348.134213,89.7303931 C349.396458,90.9889741 350.090611,92.6632708 350.090611,94.4437423 C350.090611,96.2250306 349.396458,97.8993273 348.135032,99.1579083 C346.872787,100.417306 345.193886,101.11071 343.409389,101.11071 L310,101.11071 L310,110 L343.40857,110 C347.574307,110 351.48874,108.382058 354.433979,105.44428 C357.379218,102.505685 359,98.5992649 359,94.4437423 C359,90.2898532 357.379218,86.3834333 354.433161,83.4448385" id="Fill-79" fill="#0B567F"></path>
                <path d="M354.433161,83.4448385 C351.48874,80.5062437 347.574307,78.8883014 343.40857,78.8883014 L329.288122,78.8883014 L329.288122,72 L310,83.1107959 L329.288122,94.2224085 L329.288122,87.7775915 L343.409389,87.7775915 C345.193886,87.7775915 346.872787,88.4709953 348.134213,89.7303931 C349.396458,90.9889741 350.090611,92.6632708 350.090611,94.4437423 C350.090611,96.2250306 349.396458,97.8993273 348.135032,99.1579083 C346.872787,100.417306 345.193886,101.11071 343.409389,101.11071 L310,101.11071 L310,110 L343.40857,110 C347.574307,110 351.48874,108.382058 354.433979,105.44428 C357.379218,102.505685 359,98.5992649 359,94.4437423 C359,90.2898532 357.379218,86.3834333 354.433161,83.4448385 Z" id="Stroke-81" stroke="#0B567F"></path>
            </g>
        </g>
    </g>
</svg>