<?xml version="1.0" encoding="UTF-8" standalone="no"?>
<svg width="320px" height="224px" viewBox="0 0 320 224" version="1.1" xmlns="http://www.w3.org/2000/svg" xmlns:xlink="http://www.w3.org/1999/xlink">
    <!-- Generator: Sketch 50.2 (55047) - http://www.bohemiancoding.com/sketch -->
    <title>Group</title>
    <desc>Created with Sketch.</desc>
    <defs>
        <path d="M0,83.744 C0,129.725 37.276,167.002 83.258,167.002 C129.239,167.002 166.516,129.725 166.516,83.744 C166.516,37.762 129.239,0.486 83.258,0.486 C37.276,0.486 0,37.762 0,83.744" id="path-1"></path>
        <path d="M0,83.744 C0,129.725 37.276,167.002 83.258,167.002 C129.239,167.002 166.516,129.725 166.516,83.744 C166.516,37.762 129.239,0.486 83.258,0.486 C37.276,0.486 0,37.762 0,83.744" id="path-3"></path>
        <path d="M0,83.744 C0,129.725 37.276,167.002 83.258,167.002 C129.239,167.002 166.516,129.725 166.516,83.744 C166.516,37.762 129.239,0.486 83.258,0.486 C37.276,0.486 0,37.762 0,83.744" id="path-5"></path>
        <path d="M0,83.744 C0,129.725 37.276,167.002 83.258,167.002 C129.239,167.002 166.516,129.725 166.516,83.744 C166.516,37.762 129.239,0.486 83.258,0.486 C37.276,0.486 0,37.762 0,83.744" id="path-7"></path>
        <path d="M0,83.744 C0,129.725 37.276,167.002 83.258,167.002 C129.239,167.002 166.516,129.725 166.516,83.744 C166.516,37.762 129.239,0.486 83.258,0.486 C37.276,0.486 0,37.762 0,83.744" id="path-9"></path>
        <path d="M0,83.744 C0,129.725 37.276,167.002 83.258,167.002 C129.239,167.002 166.516,129.725 166.516,83.744 C166.516,37.762 129.239,0.486 83.258,0.486 C37.276,0.486 0,37.762 0,83.744" id="path-11"></path>
        <path d="M0,83.744 C0,129.725 37.276,167.002 83.258,167.002 C129.239,167.002 166.516,129.725 166.516,83.744 C166.516,37.762 129.239,0.486 83.258,0.486 C37.276,0.486 0,37.762 0,83.744" id="path-13"></path>
        <path d="M0,83.744 C0,129.725 37.276,167.002 83.258,167.002 C129.239,167.002 166.516,129.725 166.516,83.744 C166.516,37.762 129.239,0.486 83.258,0.486 C37.276,0.486 0,37.762 0,83.744" id="path-15"></path>
        <path d="M0,83.744 C0,129.725 37.276,167.002 83.258,167.002 C129.239,167.002 166.516,129.725 166.516,83.744 C166.516,37.762 129.239,0.486 83.258,0.486 C37.276,0.486 0,37.762 0,83.744 Z" id="path-17"></path>
        <path d="M0,83.744 C0,129.725 37.276,167.002 83.258,167.002 C129.239,167.002 166.516,129.725 166.516,83.744 C166.516,37.762 129.239,0.486 83.258,0.486 C37.276,0.486 0,37.762 0,83.744" id="path-19"></path>
    </defs>
    <g id="Page-1" stroke="none" stroke-width="1" fill="none" fill-rule="evenodd">
        <g id="storage-backup" transform="translate(-285.000000, -1446.000000)">
            <g id="Group" transform="translate(286.000000, 1445.000000)">
                <g id="Group-5" transform="translate(115.000000, 0.422000)">
                    <path d="M90.4746,179.3788 C89.2776,179.3788 88.1576,178.7878 87.4796,177.7988 L66.1086,146.0408 C65.3646,144.9338 65.2916,143.5138 65.9196,142.3358 C66.5476,141.1568 67.7646,140.4248 69.0946,140.4248 L79.6436,140.4248 L79.6436,124.8308 L30.9616,124.8308 C14.5026,124.8308 1.1126,111.4398 1.1126,94.9798 C1.1126,80.3078 11.8586,67.7838 26.2486,65.4998 C26.8236,51.0518 38.6316,39.3898 53.1036,39.0088 C53.0266,38.0618 52.9886,37.1168 52.9886,36.1888 C52.9886,17.1048 68.5146,1.5778 87.5986,1.5778 C103.2036,1.5778 116.7536,11.9058 120.9256,26.8278 C124.0796,25.7968 127.3736,25.2748 130.7336,25.2748 C148.1196,25.2748 162.2636,39.4178 162.2636,56.8028 C162.2636,59.6288 161.8896,62.4238 161.1506,65.1308 L172.4656,65.1308 C188.9236,65.1308 202.3136,78.5208 202.3136,94.9798 C202.3136,111.4398 188.9236,124.8308 172.4656,124.8308 L137.1906,124.8308 L137.1906,100.4178 L150.2496,100.4178 C150.8916,100.4178 151.4566,100.0768 151.7606,99.5058 C152.0656,98.9358 152.0326,98.2748 151.6716,97.7388 L129.3596,64.5818 C129.0336,64.1058 128.5076,63.8268 127.9236,63.8268 C127.3356,63.8268 126.8146,64.1088 126.4936,64.6018 L104.1426,97.7698 C103.7796,98.3098 103.7446,98.9738 104.0476,99.5448 C104.3496,100.1098 104.9166,100.4478 105.5656,100.4478 L118.6556,100.4478 L118.6556,124.8308 L101.3066,124.8308 L101.3066,140.3968 L111.8836,140.3968 C113.2406,140.3968 114.4296,141.1078 115.0646,142.2988 C115.6916,143.4778 115.6176,144.8998 114.8706,146.0118 L93.4746,177.7638 C92.8156,178.7718 91.6916,179.3788 90.4746,179.3788" id="Fill-1" fill="#F2F2F2"></path>
                    <path d="M87.5986,0.578 C67.9626,0.578 51.9886,16.553 51.9886,36.188 C51.9886,36.805 52.0046,37.429 52.0376,38.056 C37.7866,38.948 26.2646,50.399 25.2936,64.65 C10.8236,67.339 0.1126,80.089 0.1126,94.979 C0.1126,111.991 13.9526,125.831 30.9616,125.831 C31.1786,125.831 31.3936,125.828 31.6046,125.823 L32.1396,125.831 L78.6436,125.831 L78.6436,139.425 L69.0946,139.425 C67.3946,139.425 65.8396,140.36 65.0376,141.865 C64.2356,143.37 64.3276,145.183 65.2786,146.598 L86.6456,178.349 C87.5186,179.626 88.9466,180.379 90.4736,180.379 C92.0296,180.379 93.4666,179.601 94.3196,178.3 L115.6986,146.571 C116.6536,145.15 116.7476,143.334 115.9466,141.829 C115.1476,140.329 113.5906,139.396 111.8836,139.396 L102.3066,139.396 L102.3066,125.831 L117.6556,125.831 L119.6556,125.831 L119.6556,123.831 L119.6556,101.448 L119.6556,99.448 L117.6556,99.448 L105.5656,99.448 C105.1866,99.448 105.0046,99.214 104.9306,99.074 C104.8546,98.932 104.7596,98.645 104.9736,98.327 L127.3146,65.171 C127.5126,64.869 127.7806,64.827 127.9236,64.827 C128.0706,64.827 128.3446,64.869 128.5396,65.153 L150.8426,98.298 C151.0506,98.607 150.9536,98.893 150.8776,99.036 C150.8016,99.179 150.6196,99.418 150.2496,99.418 L138.1906,99.418 L136.1906,99.418 L136.1906,101.418 L136.1906,123.831 L136.1906,125.831 L138.1906,125.831 L172.4656,125.831 C189.4756,125.831 203.3136,111.991 203.3136,94.979 C203.3136,77.97 189.4756,64.131 172.4656,64.131 L162.4326,64.131 C162.9846,61.735 163.2636,59.281 163.2636,56.803 C163.2636,38.866 148.6706,24.274 130.7336,24.274 C127.6166,24.274 124.5526,24.71 121.5986,25.573 C116.9946,10.753 103.3086,0.578 87.5986,0.578 M87.5986,2.578 C103.3816,2.578 116.6206,13.458 120.2336,28.126 C123.5056,26.928 127.0436,26.274 130.7336,26.274 C147.5946,26.274 161.2636,39.942 161.2636,56.803 C161.2636,60.057 160.7516,63.191 159.8106,66.131 L172.4656,66.131 C188.3986,66.131 201.3136,79.048 201.3136,94.979 C201.3136,110.915 188.3986,123.831 172.4656,123.831 L138.1906,123.831 L138.1906,101.418 L150.2496,101.418 C152.4126,101.418 153.7166,98.989 152.5016,97.182 L130.1896,64.023 C129.6436,63.227 128.7826,62.827 127.9236,62.827 C127.0566,62.827 126.1916,63.234 125.6566,64.054 L103.3136,97.211 C102.0986,99.018 103.3726,101.448 105.5656,101.448 L117.6556,101.448 L117.6556,123.831 L100.3066,123.831 L100.3066,141.396 L111.8836,141.396 C113.9836,141.396 115.2026,143.724 114.0396,145.454 L92.6456,177.205 C92.1316,177.989 91.3036,178.379 90.4736,178.379 C89.6516,178.379 88.8276,177.996 88.3036,177.233 L66.9386,145.482 C65.7746,143.751 67.0236,141.425 69.0946,141.425 L80.6436,141.425 L80.6436,123.831 L32.1396,123.831 L32.1396,123.801 C31.7486,123.821 31.3566,123.831 30.9616,123.831 C15.0286,123.831 2.1126,110.915 2.1126,94.979 C2.1126,80.312 13.0596,68.202 27.2286,66.369 C27.3546,51.786 39.2166,39.999 53.8316,39.999 C53.9566,39.999 54.0806,40.001 54.2026,40.003 C54.0636,38.751 53.9886,37.478 53.9886,36.188 C53.9886,17.627 69.0366,2.578 87.5986,2.578" id="Fill-3" fill="#0B567F"></path>
                </g>
                <g id="Group-36" transform="translate(0.000000, 56.422000)">
                    <g id="Group-8">
                        <mask id="mask-2" fill="white">
                            <use xlink:href="#path-1"></use>
                        </mask>
                        <g id="Clip-7"></g>
                        <path d="M83.2578,168.0018 C36.7978,168.0018 -1.0002,130.2038 -1.0002,83.7438 C-1.0002,37.2838 36.7978,-0.5142 83.2578,-0.5142 C129.7178,-0.5142 167.5158,37.2838 167.5158,83.7438 C167.5158,130.2038 129.7178,168.0018 83.2578,168.0018" id="Fill-6" fill="#2BB3E2" mask="url(#mask-2)"></path>
                    </g>
                    <g id="Group-11">
                        <mask id="mask-4" fill="white">
                            <use xlink:href="#path-3"></use>
                        </mask>
                        <g id="Clip-10"></g>
                        <path d="M83.2578,-1.5148 C36.2458,-1.5148 -2.0002,36.7322 -2.0002,83.7442 C-2.0002,130.7552 36.2458,169.0022 83.2578,169.0022 C130.2688,169.0022 168.5158,130.7552 168.5158,83.7442 C168.5158,36.7322 130.2688,-1.5148 83.2578,-1.5148 M83.2578,0.4852 C129.2388,0.4852 166.5158,37.7612 166.5158,83.7442 C166.5158,129.7252 129.2388,167.0022 83.2578,167.0022 C37.2768,167.0022 -0.0002,129.7252 -0.0002,83.7442 C-0.0002,37.7612 37.2768,0.4852 83.2578,0.4852" id="Fill-9" fill="#0B567F" mask="url(#mask-4)"></path>
                    </g>
                    <g id="Group-14">
                        <mask id="mask-6" fill="white">
                            <use xlink:href="#path-5"></use>
                        </mask>
                        <g id="Clip-13"></g>
                        <path d="M49.2344,149.7509 C44.0834,149.7509 42.5884,143.0629 41.7844,139.4689 L41.5264,138.3279 C40.8934,135.5309 40.2394,132.6399 38.9624,130.0829 C38.7924,129.7429 38.6144,129.3989 38.4344,129.0519 C37.6564,127.5489 36.8504,125.9939 36.4684,124.3269 C35.9524,122.0729 36.2694,119.8159 36.5764,117.6329 C36.8894,115.3969 37.1864,113.2849 36.5874,111.3419 C35.9464,109.2609 34.4424,107.7589 32.8504,106.1689 C31.3654,104.6859 29.8294,103.1519 28.9434,101.0659 C27.0534,96.6089 27.1764,91.9609 27.4954,88.4089 C27.5444,87.8669 27.6034,87.3189 27.6634,86.7679 C27.8554,84.9869 28.0544,83.1459 27.8804,81.4379 C27.7154,79.8219 27.0784,79.1269 26.1134,78.0749 C25.7474,77.6769 25.3324,77.2249 24.9184,76.6839 C23.2614,74.5209 22.8584,71.7719 22.4674,69.1139 C22.2414,67.5699 22.0274,66.1119 21.5844,64.8149 C20.9374,62.9249 19.6904,61.4039 18.3694,59.7939 C16.9814,58.1029 15.5464,56.3539 14.8044,54.1039 C14.3854,52.8299 14.3954,51.5819 14.4054,50.3759 C14.4134,49.3939 14.4214,48.4649 14.1854,47.6299 C13.7844,46.2039 12.9524,45.4799 11.4584,44.5679 C8.3924,42.6979 4.1934,40.1369 3.2194,35.7119 C2.4634,32.2699 3.2654,29.3069 4.1174,26.1689 L4.4074,25.0889 C6.6854,16.4609 11.2934,10.9409 18.9074,7.7159 C21.7824,6.4969 24.7564,5.5329 27.6334,4.6019 C29.5984,3.9649 31.6304,3.3069 33.5984,2.5759 C36.4674,1.5119 39.3434,0.3039 42.1254,-0.8651 C44.0864,-1.6881 46.1124,-2.5401 48.1294,-3.3381 C50.9584,-4.4581 53.6204,-5.5131 56.4834,-5.5131 C58.0204,-5.5131 59.4874,-5.2121 60.9684,-4.5951 C61.3384,-4.4401 61.7134,-4.2721 62.0894,-4.1031 C63.1324,-3.6331 64.2104,-3.1471 65.2494,-2.9701 C65.3354,-2.9551 65.4194,-2.9481 65.5004,-2.9481 C65.6634,-2.9481 65.8324,-2.9751 66.0334,-3.0301 C66.7604,-3.6001 67.6714,-3.9031 68.6814,-3.9111 L69.1054,-3.9151 C70.3454,-3.9151 71.3854,-3.5041 72.1594,-2.7261 C72.9634,-1.9151 73.4214,-0.7391 73.4124,0.4989 L73.4124,0.5539 C74.0864,1.7939 74.4144,3.1129 74.7114,4.7999 C74.8154,5.3889 74.9864,5.9339 75.1524,6.4599 C75.5884,7.8399 76.0374,9.2669 75.1544,11.1189 C74.6474,12.1839 73.5764,12.7939 72.2164,12.7939 C71.2994,12.7939 70.3024,12.5169 69.5484,12.0509 C68.3114,11.2869 67.7564,11.1109 66.5774,11.1109 C66.3444,11.1109 66.0924,11.1179 65.8134,11.1299 C65.6204,11.1379 65.4314,11.1419 65.2474,11.1419 C64.1944,11.1419 63.2954,11.0089 62.3334,10.7089 C61.9164,10.5779 61.5154,10.4109 61.1274,10.2459 C60.5614,10.0069 60.0274,9.7799 59.6034,9.7799 C59.3504,9.7799 58.9964,9.8529 58.5014,10.4139 C57.5404,11.5039 56.7894,12.8339 56.3294,14.2619 C56.1114,14.9359 55.5484,16.6819 55.7034,17.2059 C55.7194,17.2079 55.7414,17.2089 55.7674,17.2089 C55.9274,17.2089 56.2274,17.1689 56.7454,16.9789 C59.2134,16.0719 63.3424,14.5549 66.9794,14.5549 C68.0234,14.5549 68.9904,14.6789 69.8534,14.9229 C72.5694,15.6889 74.3754,17.4049 74.8074,19.6319 C75.0874,21.0619 75.6684,24.0399 73.9774,25.7019 C71.6644,27.9739 68.0414,28.3449 64.8444,28.6709 C63.6824,28.7899 62.5854,28.9019 61.6274,29.0949 C58.6594,29.6889 57.7424,30.9929 56.3584,33.8249 C55.0174,36.5699 53.1734,38.0339 50.7234,38.2979 C50.3064,38.3429 49.8704,38.3609 49.4264,38.3789 C48.0374,38.4339 46.8374,38.4799 46.1314,39.3739 C45.4754,40.2059 44.9404,41.2109 44.4224,42.1829 L44.1544,42.6879 C43.0624,44.7389 41.9324,46.8609 40.0774,48.5129 C39.4194,49.0979 38.6494,49.4069 37.8504,49.4069 C37.0734,49.4069 36.2824,49.1129 35.5634,48.5559 C34.6134,47.8179 33.9454,46.9319 33.2994,46.0739 C32.8174,45.4349 32.3624,44.8289 31.8104,44.3129 C31.0914,43.6409 30.3724,43.3539 29.4044,43.3539 C29.1404,43.3539 28.8674,43.3749 28.5814,43.4129 C28.1904,43.4659 27.9634,43.5219 27.8334,43.5649 C27.8414,43.5829 27.8514,43.6019 27.8624,43.6219 C28.9394,45.5949 29.0674,47.6529 29.1914,49.6459 C29.3194,51.7009 29.4394,53.6429 30.6464,55.2299 C32.0454,57.0679 33.5864,59.0929 34.1814,61.4429 C34.2094,61.5519 34.2634,61.8059 34.3384,62.1469 C34.6814,63.7359 34.9484,64.8559 35.1364,65.4949 C35.2594,65.4619 35.3824,65.4299 35.5044,65.3969 C37.2034,64.9409 38.6714,64.5489 40.1424,64.5489 C42.1364,64.5489 43.8734,65.2709 45.7764,66.8889 C46.8674,67.8149 47.3284,69.0829 47.0694,70.3699 C47.5604,70.9789 47.9454,71.6279 48.2394,72.3449 C48.3514,72.6169 48.4624,72.9359 48.5774,73.2719 C48.8504,74.0699 49.1904,75.0589 49.6494,75.4529 C49.6524,75.4519 49.7114,75.4519 49.7434,75.4519 C50.0574,75.4519 50.5344,75.3299 50.9544,75.2219 C51.4224,75.1019 51.8644,74.9869 52.2604,74.9819 L52.4244,74.9809 C55.2544,74.9809 57.9434,75.8009 60.6474,77.4849 C61.9214,78.2789 63.1204,79.2399 64.2784,80.1699 C65.8324,81.4169 67.2994,82.5939 68.9244,83.3969 C69.9284,83.8919 70.9794,84.3489 72.0924,84.8329 C76.2734,86.6509 81.0124,88.7119 83.2734,93.2639 C85.5424,97.8289 83.3784,106.0259 79.1384,108.9269 L78.5974,109.2919 C77.2184,110.2149 76.3084,110.8249 75.8484,112.3749 C75.4474,113.7279 74.9474,115.1719 74.0124,116.5779 C72.3914,119.0159 70.2984,119.4639 67.7324,119.7959 C64.1594,120.2599 62.5664,124.2639 61.2864,127.4809 C60.5864,129.2409 59.9444,131.0669 59.3234,132.8329 C58.8014,134.3159 58.2804,135.7999 57.7174,137.2699 C57.0584,138.9959 56.3124,140.7069 55.5914,142.3609 C55.1724,143.3239 54.7534,144.2869 54.3484,145.2569 C53.5764,147.1039 52.6154,149.4019 49.9224,149.7109 C49.6864,149.7379 49.4574,149.7509 49.2344,149.7509" id="Fill-12" fill="#D9E4ED" mask="url(#mask-6)"></path>
                    </g>
                    <g id="Group-17">
                        <mask id="mask-8" fill="white">
                            <use xlink:href="#path-7"></use>
                        </mask>
                        <g id="Clip-16"></g>
                        <path d="M56.4834,-6.5128 C53.4304,-6.5128 50.6824,-5.4248 47.7734,-4.2728 C45.7364,-3.4668 43.7064,-2.6148 41.7434,-1.7888 C38.9694,-0.6238 36.1024,0.5812 33.2514,1.6382 C31.3024,2.3612 29.2814,3.0162 27.3264,3.6492 C24.4284,4.5892 21.4324,5.5592 18.5164,6.7952 C10.5944,10.1512 5.8034,15.8832 3.4404,24.8342 C3.3444,25.1942 3.2484,25.5512 3.1514,25.9062 C2.3064,29.0212 1.4324,32.2442 2.2434,35.9262 C3.3084,40.7672 7.7174,43.4582 10.9374,45.4222 C12.4244,46.3302 12.9374,46.8852 13.2234,47.9012 C13.4194,48.5992 13.4134,49.4592 13.4054,50.3682 C13.3954,51.5952 13.3844,52.9872 13.8554,54.4162 C14.6564,56.8432 16.1504,58.6662 17.5964,60.4282 C18.8574,61.9662 20.0494,63.4202 20.6374,65.1382 C21.0504,66.3482 21.2584,67.7622 21.4784,69.2602 C21.8684,71.9152 22.3094,74.9232 24.1244,77.2912 C24.5654,77.8672 24.9964,78.3382 25.3774,78.7522 C26.2944,79.7522 26.7544,80.2552 26.8854,81.5382 C27.0494,83.1422 26.8564,84.9312 26.6694,86.6612 C26.6084,87.2182 26.5484,87.7722 26.4994,88.3192 C26.1714,91.9872 26.0464,96.7972 28.0234,101.4562 C28.9854,103.7222 30.5904,105.3262 32.1434,106.8772 C33.6454,108.3772 35.0644,109.7932 35.6314,111.6352 C36.1654,113.3662 35.8834,115.3712 35.5864,117.4932 C35.2664,119.7662 34.9364,122.1172 35.4944,124.5502 C35.9044,126.3422 36.7784,128.0292 37.5484,129.5162 C37.7254,129.8582 37.9014,130.1962 38.0674,130.5292 C39.2914,132.9802 39.9034,135.6892 40.5524,138.5572 L40.6904,139.1672 L40.8084,139.6902 C41.6734,143.5552 43.2834,150.7512 49.2344,150.7512 C49.4974,150.7512 49.7674,150.7352 50.0374,150.7052 C53.3124,150.3292 54.4914,147.5082 55.2704,145.6412 C55.6734,144.6752 56.0914,143.7172 56.5094,142.7582 C57.2344,141.0942 57.9844,139.3742 58.6534,137.6262 C59.2214,136.1382 59.7544,134.6252 60.2684,133.1612 C60.8854,131.4062 61.5234,129.5912 62.2154,127.8502 C63.6694,124.1982 65.0964,121.1462 67.8614,120.7882 C70.0814,120.5002 72.8434,120.1412 74.8444,117.1322 C75.8534,115.6142 76.3834,114.0852 76.8074,112.6592 C77.1504,111.5012 77.7394,111.0702 79.1554,110.1222 C79.3334,110.0032 79.5154,109.8802 79.7034,109.7522 C84.3744,106.5562 86.6704,97.8522 84.1694,92.8192 C81.7464,87.9412 76.8304,85.8032 72.4934,83.9172 C71.3914,83.4372 70.3504,82.9842 69.3684,82.5002 C67.8394,81.7452 66.4134,80.6002 64.9024,79.3882 C63.7214,78.4412 62.4994,77.4622 61.1754,76.6362 C58.3094,74.8502 55.4484,73.9812 52.4274,73.9812 L52.2504,73.9822 C51.7314,73.9882 51.2094,74.1232 50.7044,74.2542 C50.5264,74.3002 50.2964,74.3582 50.0964,74.4002 C49.8814,73.9952 49.6514,73.3202 49.5234,72.9482 C49.4014,72.5912 49.2844,72.2542 49.1654,71.9642 C48.8884,71.2932 48.5434,70.6752 48.1184,70.0922 C48.2534,68.6182 47.6534,67.1722 46.4224,66.1262 C44.3554,64.3682 42.3604,63.5492 40.1434,63.5492 C38.7234,63.5492 37.3644,63.8692 35.8454,64.2702 C35.7004,63.6752 35.5224,62.8972 35.3164,61.9412 C35.2384,61.5802 35.1784,61.3102 35.1504,61.1972 C34.5054,58.6522 32.9014,56.5432 31.4854,54.6802 L31.4424,54.6242 C30.4194,53.2782 30.3124,51.5662 30.1894,49.5842 C30.0874,47.9522 29.9754,46.1422 29.2964,44.3552 C29.3334,44.3542 29.3694,44.3542 29.4044,44.3542 C30.1144,44.3542 30.5974,44.5482 31.1284,45.0432 C31.6154,45.5002 32.0464,46.0712 32.5014,46.6752 C33.1544,47.5442 33.8944,48.5272 34.9514,49.3462 C35.8454,50.0402 36.8484,50.4072 37.8504,50.4072 C38.8984,50.4072 39.8984,50.0102 40.7424,49.2592 C42.7334,47.4872 43.9054,45.2832 45.0404,43.1512 L45.2114,42.8292 L45.3124,42.6382 C45.8304,41.6682 46.3184,40.7512 46.9164,39.9942 C47.3074,39.4972 48.1414,39.4292 49.4664,39.3782 C49.9104,39.3602 50.3684,39.3422 50.8314,39.2932 C53.6124,38.9922 55.7734,37.3002 57.2564,34.2632 C58.6294,31.4532 59.3964,30.5622 61.8234,30.0752 C62.7334,29.8912 63.8074,29.7822 64.9444,29.6662 C68.3044,29.3232 72.1144,28.9332 74.6774,26.4152 C76.7514,24.3782 76.1014,21.0432 75.7904,19.4402 C75.2824,16.8302 73.2174,14.8322 70.1264,13.9602 C69.1734,13.6902 68.1164,13.5542 66.9804,13.5542 C63.6314,13.5542 60.0464,14.7142 56.8884,15.8612 C57.0204,15.3772 57.1824,14.8712 57.2804,14.5692 C57.7004,13.2702 58.3804,12.0622 59.2514,11.0762 C59.4744,10.8212 59.5904,10.7812 59.5914,10.7802 C59.8244,10.7802 60.3304,10.9952 60.7374,11.1672 C61.1214,11.3292 61.5564,11.5132 62.0354,11.6632 C63.0824,11.9892 64.1024,12.1412 65.2454,12.1412 C65.4444,12.1412 65.6464,12.1372 65.8544,12.1292 C66.1194,12.1182 66.3574,12.1112 66.5774,12.1112 C67.5094,12.1112 67.8944,12.2042 69.0234,12.9012 C69.9274,13.4602 71.1224,13.7942 72.2154,13.7942 C73.9774,13.7942 75.3774,12.9762 76.0564,11.5492 C77.1104,9.3412 76.5534,7.5772 76.1064,6.1592 C75.9434,5.6402 75.7894,5.1502 75.6964,4.6272 C75.3984,2.9392 75.0674,1.5912 74.4114,0.3032 C74.3784,-1.1098 73.8214,-2.4708 72.8684,-3.4298 C71.9034,-4.4018 70.6174,-4.9148 69.1504,-4.9148 L69.0984,-4.9148 L68.8894,-4.9128 L68.6694,-4.9108 C67.5224,-4.9028 66.4714,-4.5748 65.6034,-3.9568 C65.5654,-3.9508 65.5304,-3.9488 65.4994,-3.9488 C65.4724,-3.9488 65.4464,-3.9498 65.4194,-3.9548 C64.5054,-4.1128 63.5324,-4.5498 62.5024,-5.0148 C62.1154,-5.1888 61.7314,-5.3608 61.3524,-5.5188 C59.7484,-6.1878 58.1554,-6.5128 56.4834,-6.5128 M56.4834,-4.5128 C57.8014,-4.5128 59.1534,-4.2688 60.5844,-3.6728 C62.0254,-3.0718 63.5264,-2.2498 65.0804,-1.9848 C65.2234,-1.9598 65.3634,-1.9488 65.4994,-1.9488 C65.8584,-1.9488 66.1934,-2.0258 66.5184,-2.1338 C67.0514,-2.6028 67.7734,-2.9048 68.6894,-2.9108 C68.8324,-2.9128 68.9754,-2.9128 69.1184,-2.9148 L69.1494,-2.9148 C71.3374,-2.9148 72.4234,-1.2118 72.4124,0.4922 C72.4134,0.5942 72.4094,0.6972 72.4024,0.7992 C73.1144,2.0082 73.4284,3.2842 73.7264,4.9732 C74.1124,7.1642 75.2684,8.5552 74.2514,10.6892 C73.8674,11.4952 73.0624,11.7942 72.2154,11.7942 C71.4404,11.7942 70.6294,11.5432 70.0744,11.2002 C68.6774,10.3372 67.9444,10.1112 66.5774,10.1112 C66.3324,10.1112 66.0664,10.1182 65.7724,10.1312 C65.5924,10.1372 65.4174,10.1412 65.2454,10.1412 C64.3404,10.1412 63.5284,10.0342 62.6294,9.7542 C61.5394,9.4132 60.5714,8.7802 59.6024,8.7802 C58.9964,8.7802 58.3884,9.0282 57.7514,9.7532 C56.6784,10.9682 55.8764,12.4102 55.3774,13.9552 C54.7684,15.8412 54.0274,18.2092 55.7684,18.2092 C56.1084,18.2092 56.5434,18.1192 57.0904,17.9172 C59.8944,16.8862 63.6484,15.5542 66.9804,15.5542 C67.8874,15.5542 68.7644,15.6532 69.5824,15.8842 C71.5544,16.4412 73.4084,17.6732 73.8264,19.8222 C74.1214,21.3342 74.5354,23.7512 73.2764,24.9892 C70.4304,27.7842 65.0824,27.3802 61.4294,28.1142 C58.0754,28.7872 56.9304,30.3752 55.4604,33.3852 C54.4544,35.4452 53.0164,37.0442 50.6164,37.3032 C48.8194,37.4982 46.6164,37.1462 45.3464,38.7552 C44.5924,39.7092 44.0164,40.8192 43.4464,41.8882 C42.3174,44.0052 41.2284,46.1492 39.4124,47.7652 C38.9174,48.2062 38.3854,48.4072 37.8504,48.4072 C37.2814,48.4072 36.7084,48.1782 36.1764,47.7652 C34.6534,46.5852 33.8754,44.8762 32.4944,43.5832 C31.5464,42.6962 30.5604,42.3542 29.4044,42.3542 C29.0984,42.3542 28.7804,42.3782 28.4494,42.4222 C27.3474,42.5692 26.3114,42.8692 26.9854,44.1012 C29.0624,47.9052 27.2414,52.4042 29.8504,55.8352 C31.1784,57.5822 32.6614,59.5142 33.2124,61.6882 C33.3484,62.2312 34.2224,66.6722 34.5894,66.6722 C34.5924,66.6722 34.5964,66.6712 34.6004,66.6702 C36.7884,66.1062 38.5004,65.5492 40.1434,65.5492 C41.7454,65.5492 43.2804,66.0792 45.1284,67.6502 C46.1704,68.5352 46.3254,69.6482 45.9624,70.6162 C46.5064,71.2082 46.9724,71.8922 47.3154,72.7242 C47.7474,73.7732 48.1264,75.5242 49.0604,76.2632 C49.2354,76.4012 49.4724,76.4522 49.7434,76.4522 C50.5554,76.4522 51.6694,75.9892 52.2724,75.9822 C52.3244,75.9822 52.3764,75.9812 52.4274,75.9812 C55.2254,75.9812 57.7424,76.8532 60.1184,78.3342 C62.9854,80.1202 65.4764,82.8082 68.4824,84.2932 C73.4054,86.7232 79.7274,88.3732 82.3784,93.7092 C84.4664,97.9132 82.4034,105.4812 78.5744,108.1012 C76.8664,109.2692 75.5194,109.9682 74.8894,112.0912 C74.4704,113.5032 73.9994,114.7922 73.1794,116.0242 C71.7704,118.1442 69.9754,118.4972 67.6034,118.8042 C63.5004,119.3372 61.7224,123.6792 60.3574,127.1112 C59.0714,130.3432 58.0264,133.6632 56.7844,136.9122 C55.7544,139.6052 54.5354,142.2142 53.4244,144.8712 C52.6964,146.6162 51.9174,148.4752 49.8084,148.7172 C49.6114,148.7402 49.4204,148.7512 49.2344,148.7512 C44.6564,148.7512 43.4094,142.1002 42.6414,138.7232 C41.9384,135.6342 41.2824,132.4902 39.8564,129.6352 C38.9854,127.8892 37.8834,126.0252 37.4434,124.1042 C36.4554,119.7892 38.8224,115.1992 37.5434,111.0472 C36.2004,106.6862 31.5924,104.7462 29.8644,100.6752 C28.2184,96.7962 28.1194,92.6462 28.4914,88.4982 C28.7014,86.1582 29.1164,83.6862 28.8764,81.3362 C28.6044,78.6822 27.1634,77.9692 25.7124,76.0752 C23.3044,72.9322 23.7834,68.1582 22.5304,64.4922 C21.1124,60.3482 17.1154,57.9162 15.7544,53.7902 C15.0534,51.6612 15.7224,49.4032 15.1484,47.3592 C14.6424,45.5612 13.5314,44.6622 11.9794,43.7152 C8.8044,41.7782 5.0644,39.4412 4.1964,35.4972 C3.4084,31.9142 4.4634,28.7882 5.3744,25.3442 C7.4724,17.3972 11.6724,11.8662 19.2964,8.6362 C24.0914,6.6042 29.0824,5.3182 33.9464,3.5132 C38.8594,1.6912 43.6264,-0.4808 48.4974,-2.4088 C51.2734,-3.5078 53.8084,-4.5128 56.4834,-4.5128" id="Fill-15" fill="#0B567F" mask="url(#mask-8)"></path>
                    </g>
                    <g id="Group-20">
                        <mask id="mask-10" fill="white">
                            <use xlink:href="#path-9"></use>
                        </mask>
                        <g id="Clip-19"></g>
                        <path d="M133.1885,41.7333 C134.4575,42.1263 135.6005,42.7273 136.7185,43.3163 C137.8355,43.9043 138.8895,44.4593 140.0495,44.8133 L140.3525,44.9083 C141.1025,45.1473 142.8585,45.7063 143.9995,45.7063 C144.3005,45.7063 144.4555,45.6663 144.5195,45.6423 C144.6625,45.1583 144.2155,44.1163 142.5385,42.5583 L142.3565,42.3893 C141.6055,41.6853 140.3475,40.5073 139.4165,40.5073 C139.3115,40.5073 139.2165,40.5243 139.1265,40.5563 C137.5335,41.1253 135.9455,41.6443 134.0515,41.7613 C133.9585,41.7673 133.8645,41.7703 133.7715,41.7703 C133.5725,41.7703 133.3775,41.7563 133.1885,41.7333 M141.0445,138.1743 C138.7965,138.1743 136.6555,136.8293 135.5885,134.7483 C134.2135,132.0643 134.6555,128.9523 135.0445,126.2053 L135.1645,125.3513 C135.4265,123.4003 135.1965,121.4343 134.9535,119.3533 C134.7095,117.2783 134.4595,115.1323 134.7275,112.9643 C134.9025,111.5543 135.1955,110.1693 135.4795,108.8283 C135.7265,107.6643 135.9815,106.4593 136.1485,105.2743 C136.4665,103.0083 135.8905,101.4733 134.9755,99.3893 C133.7435,96.5823 134.3375,94.1713 134.9135,91.8413 C135.2855,90.3313 135.6375,88.9043 135.5095,87.3673 L135.4955,87.1983 C135.3345,85.2603 134.9585,80.7243 132.9115,80.7243 C132.6455,80.7243 132.3405,80.7883 132.0065,80.9143 C129.9595,81.6813 126.7825,82.5963 123.2765,82.5963 C121.8055,82.5963 120.4065,82.4313 119.1175,82.1063 C118.8055,82.0273 118.4825,81.9503 118.1535,81.8703 C114.9775,81.1063 111.0245,80.1553 109.6745,76.5873 C109.0785,75.0073 109.5845,72.8083 109.9545,71.2033 C110.0065,70.9713 110.0565,70.7543 110.0995,70.5563 C110.2185,69.9993 110.3695,69.4103 110.5255,68.8023 C111.0325,66.8283 111.6075,64.5893 111.1275,62.8563 C109.7595,57.9073 110.5645,55.3653 114.4385,52.3953 C115.0775,51.9063 115.4685,50.7923 115.8465,49.7143 C116.0955,49.0043 116.3525,48.2703 116.7035,47.6583 C117.4945,46.2813 118.3405,45.2533 119.3705,44.4213 C121.9295,42.3563 126.6305,41.2753 129.9535,41.2753 C130.4155,41.2753 130.8555,41.2963 131.2655,41.3373 C131.5205,41.3623 131.7705,41.3983 132.0145,41.4433 C131.4375,41.2353 130.9075,40.9593 130.4105,40.7003 C129.7275,40.3433 129.0825,40.0063 128.4305,39.8973 C128.2275,39.8633 128.0295,39.8473 127.8355,39.8473 C126.7515,39.8473 125.7095,40.3463 124.6075,40.8753 C124.2925,41.0253 123.9775,41.1763 123.6585,41.3183 C122.8095,41.6943 121.1165,42.3253 119.2955,42.3253 C117.6635,42.3253 116.2715,41.8043 115.2715,40.8203 C113.4515,39.0283 112.8785,36.2053 113.7755,33.4523 C114.6865,30.6583 116.8475,28.6853 119.4175,28.3033 C120.1445,28.1953 120.8745,28.1483 121.5805,28.1023 C121.9315,28.0803 122.2745,28.0573 122.6115,28.0293 C122.0185,27.5983 121.4955,27.0603 121.1765,26.3913 C120.8455,25.6893 120.6665,24.8573 120.4915,24.0513 C120.2935,23.1463 120.0905,22.2103 119.7185,21.7203 C118.9905,20.7643 117.6785,20.4123 116.2895,20.0393 C114.8465,19.6513 113.2115,19.2123 112.0125,17.9933 C110.0305,15.9783 108.7645,12.3943 110.1805,9.4413 C111.0695,7.5873 112.9195,6.5223 115.2565,6.5223 C116.1615,6.5223 117.1125,6.6853 118.0065,6.9933 C118.3275,7.1033 118.6835,7.2493 119.0585,7.4033 C119.9175,7.7563 120.8915,8.1583 121.6005,8.1583 C121.6605,8.1583 121.7195,8.1553 121.7775,8.1473 C122.5115,8.0593 123.2055,7.8983 123.9395,7.7283 C125.0105,7.4803 126.1185,7.2243 127.3345,7.2183 C127.6265,7.0353 127.9455,6.8843 128.2845,6.7713 C128.8675,6.5733 129.5245,6.4723 130.2355,6.4723 C132.9165,6.4723 136.0685,7.9093 138.3705,8.9583 C138.7985,9.1533 139.2025,9.3373 139.5715,9.4983 C144.0255,11.4333 147.9985,14.3703 152.4515,19.0193 C155.9505,22.6713 159.7555,27.2643 161.4585,33.6283 C161.8755,35.1863 162.3095,36.7373 162.7445,38.2883 C163.9355,42.5403 165.1675,46.9363 165.9995,51.3933 C166.3765,53.4253 166.9495,55.4533 167.5025,57.4143 C168.3215,60.3123 169.1675,63.3093 169.4395,66.4603 C169.9215,72.0123 169.8515,76.7953 169.2245,81.0783 C168.5425,85.7353 167.2985,90.6813 165.7205,95.0073 C165.1785,96.4913 164.3985,98.4263 163.1565,100.2473 C162.4355,101.3033 161.5235,102.0873 160.6405,102.8453 C159.9655,103.4253 159.3285,103.9733 158.8035,104.6153 C157.8665,105.7613 157.6505,107.8223 157.4425,109.8143 C157.3315,110.8733 157.2265,111.8733 157.0135,112.7623 C156.3135,115.6893 155.7275,117.9213 155.1135,119.9963 C153.7355,124.6373 152.0735,128.0273 149.7245,130.9873 C149.3165,131.5013 148.9225,132.0503 148.5235,132.6053 C147.1585,134.5043 145.7475,136.4693 143.5535,137.5753 C142.7655,137.9723 141.9205,138.1743 141.0445,138.1743" id="Fill-18" fill="#D9E4ED" mask="url(#mask-10)"></path>
                    </g>
                    <g id="Group-23">
                        <mask id="mask-12" fill="white">
                            <use xlink:href="#path-11"></use>
                        </mask>
                        <g id="Clip-22"></g>
                        <path d="M136.9365,42.3007 C137.8085,42.0757 138.6355,41.7927 139.4625,41.4977 C139.9525,41.5087 141.2485,42.7217 141.6735,43.1197 L141.8575,43.2907 C142.4445,43.8357 142.8275,44.2717 143.0775,44.6057 C142.1825,44.4417 141.1665,44.1177 140.6535,43.9537 L140.3415,43.8567 C139.2725,43.5297 138.2585,42.9957 137.1855,42.4317 C137.1025,42.3877 137.0205,42.3447 136.9365,42.3007 M130.2355,5.4727 C129.4155,5.4727 128.6495,5.5907 127.9605,5.8237 C127.6435,5.9317 127.3395,6.0657 127.0535,6.2237 C125.8405,6.2627 124.7615,6.5127 123.7155,6.7547 C123.0075,6.9177 122.3385,7.0727 121.6585,7.1547 C121.6395,7.1567 121.6205,7.1577 121.6015,7.1577 C121.0905,7.1577 120.1375,6.7657 119.4415,6.4797 C119.0555,6.3217 118.6915,6.1707 118.3325,6.0477 C117.3335,5.7037 116.2705,5.5227 115.2555,5.5227 C112.5185,5.5227 110.3395,6.7937 109.2785,9.0097 C107.6645,12.3777 109.0735,16.4317 111.2995,18.6957 C112.6895,20.1077 114.4635,20.5837 116.0295,21.0047 C117.3015,21.3467 118.4015,21.6417 118.9225,22.3267 C119.1615,22.6387 119.3645,23.5767 119.5125,24.2627 C119.7005,25.1237 119.8935,26.0137 120.2715,26.8157 C120.3315,26.9407 120.3955,27.0617 120.4655,27.1787 C120.0725,27.2117 119.6725,27.2537 119.2695,27.3147 C116.3235,27.7527 113.8535,29.9857 112.8255,33.1417 C111.8095,36.2577 112.4775,39.4727 114.5695,41.5317 C115.7325,42.6777 117.3175,43.2957 119.1615,43.3237 C119.0175,43.4277 118.8765,43.5337 118.7425,43.6437 C117.6145,44.5547 116.6905,45.6717 115.8365,47.1597 C115.4405,47.8537 115.1665,48.6317 114.9025,49.3837 C114.6045,50.2357 114.2325,51.2937 113.8305,51.6017 C109.6575,54.8017 108.6985,57.8167 110.1645,63.1227 C110.5725,64.5997 110.0325,66.7007 109.5565,68.5557 C109.3975,69.1757 109.2465,69.7627 109.1215,70.3467 C109.0805,70.5397 109.0315,70.7527 108.9795,70.9787 C108.5815,72.7087 108.0365,75.0787 108.7405,76.9417 C110.2765,81.0027 114.6945,82.0667 117.9195,82.8427 C118.2455,82.9217 118.5645,82.9977 118.8735,83.0757 C120.2415,83.4217 121.7225,83.5967 123.2765,83.5967 C126.9325,83.5967 130.2335,82.6467 132.3585,81.8497 C132.6335,81.7457 132.8115,81.7247 132.9115,81.7247 C133.1745,81.7247 134.0705,82.1247 134.4985,87.2797 L134.5125,87.4507 C134.6275,88.8247 134.2935,90.1747 133.9425,91.6037 C133.3555,93.9797 132.6915,96.6727 134.0595,99.7907 C135.0475,102.0397 135.4185,103.2797 135.1585,105.1357 C134.9965,106.2847 134.7555,107.4187 134.5005,108.6197 C134.2125,109.9817 133.9155,111.3877 133.7345,112.8407 C133.4515,115.1297 133.7095,117.3367 133.9595,119.4707 C134.1965,121.4877 134.4185,123.3927 134.1725,125.2177 C134.1355,125.4947 134.0965,125.7767 134.0555,126.0617 C133.6655,128.8127 133.1785,132.2377 134.6985,135.2037 C135.9345,137.6157 138.4245,139.1747 141.0445,139.1747 C142.0795,139.1747 143.0755,138.9367 144.0035,138.4687 C146.4155,137.2527 147.9665,135.0947 149.3345,133.1907 C149.7385,132.6277 150.1195,132.0977 150.5075,131.6087 C152.9415,128.5417 154.6575,125.0487 156.0715,120.2797 C156.6905,118.1927 157.2815,115.9457 157.9865,112.9947 C158.2135,112.0417 158.3275,110.9627 158.4365,109.9177 C158.6215,108.1577 158.8295,106.1627 159.5775,105.2477 C160.0455,104.6747 160.6515,104.1547 161.2915,103.6057 C162.1805,102.8417 163.1875,101.9767 163.9825,100.8107 C165.2875,98.8977 166.0985,96.8877 166.6595,95.3507 C168.2605,90.9597 169.5235,85.9437 170.2145,81.2237 C170.8525,76.8617 170.9245,72.0037 170.4355,66.3727 C170.1555,63.1287 169.2955,60.0847 168.4645,57.1417 C167.8925,55.1127 167.3515,53.1967 166.9815,51.2097 C166.1435,46.7117 164.9065,42.2977 163.7095,38.0287 C163.2765,36.4787 162.8415,34.9277 162.4245,33.3697 C160.6635,26.7857 156.7595,22.0717 153.1735,18.3267 C148.6255,13.5787 144.5535,10.5717 139.9695,8.5797 C139.6045,8.4217 139.2055,8.2387 138.7805,8.0457 C136.3965,6.9597 133.1315,5.4727 130.2355,5.4727 M130.2355,7.4727 C133.1685,7.4727 136.8385,9.4007 139.1725,10.4147 C144.1175,12.5637 148.0365,15.8557 151.7295,19.7107 C155.7125,23.8697 158.9835,28.2457 160.4935,33.8867 C162.0695,39.7777 163.8955,45.5707 165.0145,51.5767 C165.9595,56.6477 167.9955,61.3707 168.4435,66.5457 C168.8575,71.3177 168.9295,76.1857 168.2355,80.9337 C167.5715,85.4747 166.3595,90.3377 164.7815,94.6647 C164.1315,96.4437 163.3995,98.1157 162.3305,99.6837 C161.1595,101.4027 159.3235,102.3997 158.0295,103.9827 C156.3575,106.0277 156.6475,109.9957 156.0405,112.5297 C155.4655,114.9367 154.8575,117.3377 154.1545,119.7117 C152.9915,123.6297 151.4905,127.1537 148.9415,130.3647 C147.1995,132.5607 145.7015,135.3727 143.1045,136.6827 C142.4355,137.0197 141.7355,137.1747 141.0445,137.1747 C139.1695,137.1747 137.3705,136.0307 136.4785,134.2917 C135.1115,131.6237 135.7765,128.3067 136.1555,125.4847 C136.7085,121.3727 135.2075,117.2237 135.7195,113.0877 C136.0405,110.4937 136.7745,107.9927 137.1385,105.4137 C137.4885,102.9277 136.8605,101.1917 135.8915,98.9877 C134.0405,94.7697 136.8535,91.4507 136.5055,87.2837 C136.3055,84.8987 135.9475,79.7247 132.9115,79.7247 C132.5355,79.7247 132.1185,79.8037 131.6555,79.9777 C129.0835,80.9417 126.1455,81.5967 123.2765,81.5967 C121.9415,81.5967 120.6225,81.4547 119.3625,81.1367 C116.1785,80.3327 111.9015,79.6447 110.6105,76.2337 C110.0415,74.7297 110.7635,72.2307 111.0775,70.7657 C111.6105,68.2747 112.7955,65.1367 112.0915,62.5897 C110.8775,58.1977 111.4115,55.9767 115.0465,53.1897 C116.4205,52.1367 116.7305,49.6237 117.5715,48.1547 C118.2255,47.0157 118.9715,46.0287 119.9985,45.1997 C122.2995,43.3417 126.7155,42.2757 129.9535,42.2757 C130.3795,42.2757 130.7875,42.2937 131.1655,42.3317 C134.3825,42.6527 136.7195,44.8417 139.7575,45.7697 C140.4035,45.9657 142.5265,46.7057 143.9985,46.7057 C144.6745,46.7057 145.2135,46.5497 145.4095,46.1137 C146.0705,44.6387 144.1705,42.7107 143.2185,41.8257 C142.3315,41.0007 140.8335,39.5087 139.4155,39.5087 C139.2055,39.5087 138.9965,39.5407 138.7905,39.6137 C137.1755,40.1907 135.7115,40.6567 133.9905,40.7637 C133.9155,40.7687 133.8425,40.7707 133.7705,40.7707 C131.8555,40.7707 130.4135,39.2167 128.5965,38.9107 C128.3365,38.8667 128.0835,38.8477 127.8355,38.8477 C126.1855,38.8477 124.7645,39.7337 123.2515,40.4047 C122.1085,40.9107 120.6745,41.3247 119.2955,41.3247 C118.0635,41.3247 116.8745,40.9947 115.9725,40.1077 C112.5975,36.7837 114.8685,29.9907 119.5645,29.2917 C121.0765,29.0677 122.6425,29.1197 124.1395,28.8377 C124.6345,28.7447 125.2685,28.6717 125.7545,28.4367 C125.7235,28.4227 125.6985,28.4107 125.6635,28.3937 C125.4395,28.3117 125.2165,28.2287 124.9935,28.1467 C123.9325,27.7527 122.5955,27.0477 122.0805,25.9617 C121.4225,24.5707 121.4005,22.2787 120.5145,21.1147 C118.7215,18.7607 114.8325,19.4337 112.7255,17.2917 C110.9325,15.4697 109.9155,12.3067 111.0825,9.8737 C111.8895,8.1887 113.5365,7.5227 115.2555,7.5227 C116.0755,7.5227 116.9125,7.6737 117.6815,7.9387 C118.7845,8.3187 120.3515,9.1577 121.6015,9.1577 C121.7025,9.1577 121.8015,9.1527 121.8975,9.1407 C123.8175,8.9087 125.4825,8.2177 127.3785,8.2177 C127.4635,8.2177 127.5495,8.2197 127.6355,8.2227 C127.9095,8.0177 128.2295,7.8447 128.6025,7.7187 C129.1085,7.5467 129.6575,7.4727 130.2355,7.4727" id="Fill-21" fill="#0B567F" mask="url(#mask-12)"></path>
                    </g>
                    <g id="Group-26">
                        <mask id="mask-14" fill="white">
                            <use xlink:href="#path-13"></use>
                        </mask>
                        <g id="Clip-25"></g>
                        <path d="M81.7305,17.1757 C80.7595,17.1757 79.8585,16.9357 79.0495,16.4617 C76.2015,14.7937 77.0165,12.1217 77.6115,10.1707 C77.6805,9.9437 77.7515,9.7157 77.8145,9.4907 C78.0165,8.7827 77.8755,8.0917 77.7255,7.3607 C77.5005,6.2567 77.2205,4.8907 78.2975,3.5367 C78.9215,2.1507 80.6455,0.4727 85.1625,0.4727 C87.9105,0.4727 90.5405,1.0867 91.2805,1.2757 C92.5175,1.5897 96.2835,2.5477 97.0435,5.3157 C97.3635,6.4757 97.0325,7.3087 96.6995,7.8027 C95.8135,9.1127 93.9205,9.5837 92.4895,9.7477 C91.5715,9.8537 91.1745,10.3967 90.4985,11.4277 C90.2095,11.8677 89.9115,12.3227 89.5215,12.7657 C88.6495,13.7527 87.6695,14.7777 86.4175,15.5837 C85.2905,16.3107 83.5615,17.1757 81.7305,17.1757" id="Fill-24" fill="#D9E4ED" mask="url(#mask-14)"></path>
                    </g>
                    <g id="Group-29">
                        <mask id="mask-16" fill="white">
                            <use xlink:href="#path-15"></use>
                        </mask>
                        <g id="Clip-28"></g>
                        <path d="M85.1621,-0.5265 C80.2781,-0.5265 78.2651,1.3385 77.4411,3.0085 C76.1611,4.6965 76.5111,6.4095 76.7461,7.5605 C76.8951,8.2935 76.9811,8.7665 76.8521,9.2155 C76.7901,9.4365 76.7231,9.6575 76.6551,9.8785 C76.0821,11.7585 75.0151,15.2575 78.5451,17.3255 C79.5091,17.8895 80.5811,18.1755 81.7311,18.1755 C83.8061,18.1755 85.7191,17.2235 86.9591,16.4235 C88.3151,15.5505 89.3941,14.4185 90.2701,13.4265 C90.7081,12.9315 91.0411,12.4235 91.3351,11.9765 C91.9991,10.9635 92.1771,10.7905 92.6021,10.7425 C94.2431,10.5535 96.4291,9.9895 97.5271,8.3625 C97.9781,7.6945 98.4291,6.5775 98.0081,5.0495 C97.0921,1.7195 92.9031,0.6555 91.5261,0.3055 C90.7581,0.1105 88.0271,-0.5265 85.1621,-0.5265 M85.1621,1.4735 C87.3901,1.4735 89.6771,1.8995 91.0341,2.2445 C92.8071,2.6955 95.5321,3.5895 96.0791,5.5805 C96.7111,7.8745 94.0271,8.5655 92.3761,8.7545 C90.3711,8.9845 89.9591,10.7575 88.7711,12.1035 C87.9011,13.0885 86.9891,14.0265 85.8761,14.7435 C84.6671,15.5215 83.1901,16.1755 81.7311,16.1755 C80.9891,16.1755 80.2511,16.0065 79.5561,15.5995 C77.1231,14.1745 78.1731,11.8835 78.7761,9.7645 C79.4011,7.5695 77.6231,5.8555 79.1581,4.0655 C79.1591,4.0605 79.1601,4.0565 79.1621,4.0525 C80.0161,2.0595 82.5491,1.4735 85.1621,1.4735" id="Fill-27" fill="#0B567F" mask="url(#mask-16)"></path>
                    </g>
                    <g id="Group-32">
                        <mask id="mask-18" fill="white">
                            <use xlink:href="#path-17"></use>
                        </mask>
                        <g id="Clip-31"></g>
                        <path d="M77.1963,172.9999 C76.2313,172.9999 75.2863,172.9589 74.3873,172.8789 C71.9353,172.6599 69.5803,172.1459 67.3003,171.6469 C66.2223,171.4119 65.1393,171.1759 64.0403,170.9679 C62.5753,170.6919 61.2393,170.1569 59.9463,169.6409 C58.6563,169.1249 57.4383,168.6379 56.1583,168.4219 C54.6603,168.1699 53.6243,166.9949 53.4803,165.4399 C51.7023,163.4819 50.3933,160.5999 50.1873,158.1419 C50.1333,157.4909 50.3453,156.8539 50.7853,156.3469 C51.2893,155.7659 52.0563,155.3909 52.8393,155.3449 C55.0183,155.2129 56.0753,153.4849 57.2993,151.4839 C58.6613,149.2569 60.2063,146.7319 63.6053,146.7319 C65.6313,146.7319 66.5953,148.1129 67.3713,149.2219 C67.8233,149.8679 68.2503,150.4789 68.8173,150.7609 C69.4723,151.0859 70.2003,151.1299 70.8263,151.1299 C71.1103,151.1299 71.3953,151.1189 71.6813,151.1099 C71.9923,151.0999 72.3033,151.0889 72.6153,151.0889 C73.6093,151.0889 74.7863,151.1819 75.9703,151.8679 C77.9033,152.9879 79.8423,153.5109 82.0723,153.5109 C84.3143,153.5099 86.5433,152.9809 88.9023,152.4219 C91.1983,151.8779 93.5733,151.3139 96.1133,151.2129 C96.3903,151.2009 96.6673,151.1959 96.9453,151.1959 C98.4133,151.1959 99.8833,151.3419 101.3023,151.4809 C102.7333,151.6229 104.0853,151.7559 105.4453,151.7559 C105.8713,151.7559 106.2963,151.7429 106.7193,151.7119 C107.1933,151.6769 107.6693,151.6149 108.1453,151.5539 C108.9203,151.4549 109.7193,151.3519 110.5343,151.3519 C111.4593,151.3519 112.2703,151.4879 113.0133,151.7689 C114.9593,152.5009 116.1473,153.9159 116.4523,155.8599 C116.9703,159.1739 114.6743,163.5009 112.2023,165.4639 C108.3173,168.5479 103.0013,170.5499 96.8303,171.2509 C95.1753,171.4379 93.5033,171.5419 91.8853,171.6419 C89.7003,171.7749 87.4403,171.9149 85.2553,172.2649 C82.1043,172.7669 79.5453,172.9999 77.1973,172.9999 L77.1963,172.9999 Z" id="Fill-30" fill="#D9E4ED" mask="url(#mask-18)"></path>
                    </g>
                    <g id="Group-35">
                        <mask id="mask-20" fill="white">
                            <use xlink:href="#path-19"></use>
                        </mask>
                        <g id="Clip-34"></g>
                        <path d="M63.6055,145.7323 C59.6455,145.7323 57.8715,148.6313 56.4465,150.9613 C55.1635,153.0593 54.3605,154.2513 52.7785,154.3453 C51.7315,154.4093 50.7045,154.9133 50.0285,155.6933 C49.4115,156.4053 49.1145,157.3043 49.1905,158.2233 C49.4095,160.8273 50.6965,163.7513 52.5265,165.8723 C52.8225,167.7183 54.1355,169.0943 55.9925,169.4083 C57.1675,169.6063 58.3365,170.0743 59.5765,170.5693 C60.9135,171.1043 62.2945,171.6573 63.8545,171.9513 C64.9365,172.1553 66.0315,172.3943 67.0895,172.6253 C69.3985,173.1283 71.7855,173.6503 74.2975,173.8753 C75.2275,173.9583 76.2035,174.0003 77.1985,174.0003 C79.6015,174.0003 82.2115,173.7623 85.4115,173.2523 C87.5475,172.9103 89.6825,172.7793 91.9415,172.6393 C93.5735,172.5393 95.2605,172.4353 96.9425,172.2443 C103.2995,171.5223 108.7925,169.4483 112.8235,166.2473 C115.5045,164.1183 118.0325,159.4833 117.4405,155.7063 C117.0825,153.4183 115.6345,151.6873 113.3665,150.8333 C112.5085,150.5083 111.5815,150.3513 110.5335,150.3513 C109.6555,150.3513 108.8215,150.4593 108.0165,150.5623 C107.5365,150.6243 107.0835,150.6823 106.6465,150.7143 C106.2695,150.7423 105.8665,150.7553 105.4465,150.7553 C104.1345,150.7553 102.8065,150.6253 101.4015,150.4863 C99.9575,150.3433 98.4635,150.1963 96.9455,150.1963 C96.6545,150.1963 96.3635,150.2023 96.0735,150.2133 C93.4365,150.3193 91.0135,150.8933 88.6705,151.4493 C86.3705,151.9953 84.1975,152.5103 82.0725,152.5103 C80.0255,152.5103 78.2465,152.0313 76.4715,151.0033 C75.0745,150.1933 73.6755,150.0883 72.6145,150.0883 C72.2915,150.0883 71.9685,150.0993 71.6475,150.1103 C71.3735,150.1203 71.0995,150.1293 70.8275,150.1293 C70.0945,150.1293 69.6405,150.0523 69.2615,149.8643 C68.9225,149.6963 68.5675,149.1883 68.1915,148.6493 C67.3795,147.4883 66.1525,145.7323 63.6055,145.7323 M63.6055,147.7323 C66.1675,147.7323 66.4425,150.6973 68.3735,151.6563 C69.1635,152.0483 69.9885,152.1293 70.8275,152.1293 C71.4175,152.1293 72.0155,152.0883 72.6145,152.0883 C73.5755,152.0883 74.5365,152.1933 75.4695,152.7333 C77.7475,154.0533 79.9245,154.5103 82.0725,154.5103 C86.6745,154.5103 91.1395,152.4133 96.1535,152.2113 C96.4175,152.2013 96.6815,152.1963 96.9455,152.1963 C99.7815,152.1963 102.6225,152.7553 105.4465,152.7553 C105.8955,152.7553 106.3445,152.7423 106.7935,152.7093 C108.0345,152.6183 109.2925,152.3513 110.5335,152.3513 C111.2515,152.3513 111.9625,152.4403 112.6615,152.7043 C118.0595,154.7383 114.7485,162.1653 111.5805,164.6803 C107.3955,168.0033 101.9895,169.6583 96.7165,170.2563 C92.8435,170.6963 88.9515,170.6603 85.0965,171.2773 C82.4955,171.6923 79.8425,172.0003 77.1985,172.0003 C76.2895,172.0003 75.3805,171.9633 74.4755,171.8823 C70.9565,171.5683 67.6755,170.6363 64.2255,169.9853 C61.4405,169.4603 59.0505,167.8953 56.3255,167.4353 C55.0285,167.2173 54.4505,166.1373 54.4635,165.0253 C52.6355,163.1573 51.3745,160.3263 51.1845,158.0573 C51.1025,157.0853 52.0275,156.3943 52.8985,156.3423 C58.3795,156.0113 58.0085,147.7323 63.6055,147.7323" id="Fill-33" fill="#0B567F" mask="url(#mask-20)"></path>
                    </g>
                </g>
                <g id="Group-81" transform="translate(0.000000, 22.422000)">
                    <path d="M166.5156,117.744 C166.5156,163.725 129.2396,201.002 83.2576,201.002 C37.2766,201.002 -0.0004,163.725 -0.0004,117.744 C-0.0004,71.762 37.2766,34.486 83.2576,34.486 C129.2396,34.486 166.5156,71.762 166.5156,117.744 Z" id="Stroke-37" stroke="#0B567F" stroke-width="2"></path>
                    <path d="M58.9395,27.1718 C58.9395,32.3108 54.1215,36.4758 48.1785,36.4758 C42.2355,36.4758 37.4185,32.3108 37.4185,27.1718 C37.4185,22.0328 42.2355,17.8678 48.1785,17.8678 C54.1215,17.8678 58.9395,22.0328 58.9395,27.1718" id="Fill-39" fill="#FFFFFF"></path>
                    <path d="M58.9395,27.1718 C58.9395,32.3108 54.1215,36.4758 48.1785,36.4758 C42.2355,36.4758 37.4185,32.3108 37.4185,27.1718 C37.4185,22.0328 42.2355,17.8678 48.1785,17.8678 C54.1215,17.8678 58.9395,22.0328 58.9395,27.1718 Z" id="Stroke-41" stroke="#0B567F" stroke-width="2" stroke-linecap="round" stroke-linejoin="round"></path>
                    <path d="M47.3975,21.1337 C43.4435,21.1337 40.2255,24.3507 40.2255,28.3047 C40.2255,32.2587 43.4435,35.4757 47.3975,35.4757 C51.3515,35.4757 54.5685,32.2587 54.5685,28.3047 C54.5685,24.3507 51.3515,21.1337 47.3975,21.1337 M47.3965,57.9067 C46.6995,57.9067 46.0315,57.6107 45.5645,57.0917 C44.9345,56.3887 30.1565,39.7737 30.1565,28.3047 C30.1565,18.7987 37.8905,11.0647 47.3975,11.0647 C56.9035,11.0647 64.6375,18.7987 64.6375,28.3047 C64.6375,39.7737 49.8595,56.3887 49.2295,57.0907 C48.7625,57.6107 48.0945,57.9067 47.3965,57.9067" id="Fill-43" fill="#F9912B"></path>
                    <path d="M47.3975,34.4755 C43.9945,34.4755 41.2255,31.7075 41.2255,28.3045 C41.2255,24.9025 43.9945,22.1335 47.3975,22.1335 C50.7995,22.1335 53.5675,24.9025 53.5675,28.3045 C53.5675,31.7075 50.7995,34.4755 47.3975,34.4755 M47.3975,10.0645 C37.3385,10.0645 29.1565,18.2465 29.1565,28.3045 C29.1565,39.9735 43.2175,55.9725 44.8205,57.7585 C45.4765,58.4895 46.4155,58.9075 47.3965,58.9075 C48.3775,58.9075 49.3175,58.4895 49.9735,57.7585 C51.5775,55.9725 65.6375,39.9735 65.6375,28.3045 C65.6375,18.2465 57.4545,10.0645 47.3975,10.0645 M47.3975,36.4755 C51.9025,36.4755 55.5675,32.8105 55.5675,28.3045 C55.5675,23.7985 51.9025,20.1335 47.3975,20.1335 C42.8915,20.1335 39.2255,23.7985 39.2255,28.3045 C39.2255,32.8105 42.8915,36.4755 47.3975,36.4755 M47.3975,12.0645 C56.3525,12.0645 63.6375,19.3495 63.6375,28.3045 C63.6375,39.4175 49.1035,55.7335 48.4855,56.4225 C48.1945,56.7465 47.7955,56.9075 47.3965,56.9075 C46.9985,56.9075 46.5995,56.7465 46.3085,56.4225 C45.6905,55.7335 31.1565,39.4175 31.1565,28.3045 C31.1565,19.3495 38.4425,12.0645 47.3975,12.0645" id="Fill-45" fill="#0B567F"></path>
                    <path d="M149.9395,72.0155 C149.9395,77.1545 145.1215,81.3195 139.1785,81.3195 C133.2355,81.3195 128.4185,77.1545 128.4185,72.0155 C128.4185,66.8765 133.2355,62.7115 139.1785,62.7115 C145.1215,62.7115 149.9395,66.8765 149.9395,72.0155" id="Fill-47" fill="#FFFFFF"></path>
                    <path d="M149.9395,72.0155 C149.9395,77.1545 145.1215,81.3195 139.1785,81.3195 C133.2355,81.3195 128.4185,77.1545 128.4185,72.0155 C128.4185,66.8765 133.2355,62.7115 139.1785,62.7115 C145.1215,62.7115 149.9395,66.8765 149.9395,72.0155 Z" id="Stroke-49" stroke="#0B567F" stroke-width="2" stroke-linecap="round" stroke-linejoin="round"></path>
                    <path d="M138.3975,65.9774 C134.4435,65.9774 131.2255,69.1944 131.2255,73.1484 C131.2255,77.1024 134.4435,80.3194 138.3975,80.3194 C142.3515,80.3194 145.5685,77.1024 145.5685,73.1484 C145.5685,69.1944 142.3515,65.9774 138.3975,65.9774 M138.3975,102.7504 C137.6995,102.7504 137.0325,102.4544 136.5655,101.9354 C135.9345,101.2324 121.1565,84.6174 121.1565,73.1484 C121.1565,63.6414 128.8905,55.9074 138.3975,55.9074 C147.9035,55.9074 155.6375,63.6414 155.6375,73.1484 C155.6375,84.6174 140.8595,101.2324 140.2295,101.9344 C139.7625,102.4544 139.0955,102.7504 138.3975,102.7504" id="Fill-51" fill="#F9912B"></path>
                    <path d="M138.3975,79.3192 C134.9945,79.3192 132.2255,76.5502 132.2255,73.1482 C132.2255,69.7452 134.9945,66.9772 138.3975,66.9772 C141.7995,66.9772 144.5675,69.7452 144.5675,73.1482 C144.5675,76.5502 141.7995,79.3192 138.3975,79.3192 M138.3975,54.9072 C128.3385,54.9072 120.1565,63.0902 120.1565,73.1482 C120.1565,84.8162 134.2175,100.8162 135.8205,102.6022 C136.4765,103.3332 137.4155,103.7512 138.3965,103.7512 C139.3775,103.7512 140.3175,103.3332 140.9735,102.6022 C142.5775,100.8162 156.6375,84.8162 156.6375,73.1482 C156.6375,63.0902 148.4545,54.9072 138.3975,54.9072 M138.3975,81.3192 C142.9025,81.3192 146.5675,77.6542 146.5675,73.1482 C146.5675,68.6422 142.9025,64.9772 138.3975,64.9772 C133.8915,64.9772 130.2255,68.6422 130.2255,73.1482 C130.2255,77.6532 133.8915,81.3192 138.3975,81.3192 M138.3975,56.9072 C147.3525,56.9072 154.6375,64.1932 154.6375,73.1482 C154.6375,84.2612 140.1035,100.5772 139.4855,101.2662 C139.1945,101.5902 138.7955,101.7512 138.3965,101.7512 C137.9985,101.7512 137.5995,101.5902 137.3085,101.2662 C136.6905,100.5772 122.1565,84.2612 122.1565,73.1482 C122.1565,64.1932 129.4425,56.9072 138.3975,56.9072" id="Fill-53" fill="#0B567F"></path>
                    <path d="M67.79,102.0048 C67.79,107.1438 62.973,111.3098 57.03,111.3098 C51.087,111.3098 46.269,107.1438 46.269,102.0048 C46.269,96.8668 51.087,92.7008 57.03,92.7008 C62.973,92.7008 67.79,96.8668 67.79,102.0048" id="Fill-55" fill="#FFFFFF"></path>
                    <path d="M67.79,102.0048 C67.79,107.1438 62.973,111.3098 57.03,111.3098 C51.087,111.3098 46.269,107.1438 46.269,102.0048 C46.269,96.8668 51.087,92.7008 57.03,92.7008 C62.973,92.7008 67.79,96.8668 67.79,102.0048 Z" id="Stroke-57" stroke="#0B567F" stroke-width="2" stroke-linecap="round" stroke-linejoin="round"></path>
                    <path d="M56.248,95.9667 C52.294,95.9667 49.077,99.1837 49.077,103.1377 C49.077,107.0917 52.294,110.3097 56.248,110.3097 C60.202,110.3097 63.419,107.0927 63.419,103.1387 C63.419,99.1847 60.202,95.9667 56.248,95.9667 M56.248,132.7407 C55.55,132.7407 54.882,132.4437 54.416,131.9237 C53.787,131.2247 39.008,114.6567 39.008,103.1377 C39.008,93.6317 46.742,85.8977 56.248,85.8977 C65.754,85.8977 73.488,93.6317 73.489,103.1377 C73.489,114.6557 58.709,131.2247 58.079,131.9247 C57.614,132.4437 56.946,132.7407 56.248,132.7407" id="Fill-59" fill="#F9912B"></path>
                    <path d="M56.248,109.3094 C52.846,109.3094 50.077,106.5404 50.077,103.1374 C50.077,99.7354 52.846,96.9664 56.248,96.9664 C59.651,96.9664 62.419,99.7354 62.419,103.1374 C62.419,106.5404 59.651,109.3094 56.248,109.3094 M56.248,84.8974 C46.19,84.8974 38.008,93.0804 38.008,103.1374 C38.008,108.1684 40.592,114.5884 45.688,122.2174 C49.456,127.8564 53.252,132.1234 53.672,132.5924 C54.327,133.3224 55.267,133.7414 56.248,133.7414 C57.229,133.7414 58.169,133.3224 58.824,132.5914 C60.428,130.8064 74.489,114.8124 74.489,103.1374 C74.489,93.0804 66.306,84.8974 56.248,84.8974 M56.248,111.3094 C60.754,111.3094 64.419,107.6434 64.419,103.1374 C64.419,98.6324 60.754,94.9664 56.248,94.9664 C51.743,94.9664 48.077,98.6324 48.077,103.1374 C48.077,107.6434 51.743,111.3094 56.248,111.3094 M56.248,86.8974 C65.203,86.8974 72.489,94.1824 72.489,103.1374 C72.489,114.2514 57.955,130.5674 57.336,131.2554 C57.046,131.5794 56.647,131.7414 56.248,131.7414 C55.85,131.7414 55.45,131.5794 55.16,131.2554 C54.541,130.5674 40.008,114.2514 40.008,103.1374 C40.008,94.1824 47.293,86.8974 56.248,86.8974" id="Fill-61" fill="#0B567F"></path>
                    <path d="M149.2725,51.2772 C149.2985,51.1132 149.3235,50.9492 149.3475,50.7852" id="Stroke-63" stroke="#0B567F" stroke-width="2" stroke-linecap="round" stroke-linejoin="round"></path>
                    <path d="M149.6846,45.8651 C149.4976,14.6541 106.0976,-16.7329 66.0476,11.0491" id="Stroke-65" stroke="#0B567F" stroke-width="2" stroke-linecap="round" stroke-linejoin="round" stroke-dasharray="0.987,4.937"></path>
                    <path d="M64.0381,12.496 C63.9041,12.596 63.7701,12.695 63.6381,12.796" id="Stroke-67" stroke="#0B567F" stroke-width="2" stroke-linecap="round" stroke-linejoin="round"></path>
                    <path d="M121.8174,64.0419 C121.7024,63.9239 121.5864,63.8069 121.4674,63.6909" id="Stroke-69" stroke="#0B567F" stroke-width="2" stroke-linecap="round" stroke-linejoin="round"></path>
                    <path d="M117.542,60.6005 C101.106,50.1625 70.213,56.2425 64.955,78.3535" id="Stroke-71" stroke="#0B567F" stroke-width="2" stroke-linecap="round" stroke-linejoin="round" stroke-dasharray="1.001,5.007"></path>
                    <path d="M64.4863,80.8231 C64.4623,80.9881 64.4403,81.1531 64.4193,81.3191" id="Stroke-73" stroke="#0B567F" stroke-width="2" stroke-linecap="round" stroke-linejoin="round"></path>
                    <path d="M26.9746,39.8661 C26.8276,39.9441 26.6806,40.0221 26.5356,40.1021" id="Stroke-75" stroke="#0B567F" stroke-width="2" stroke-linecap="round" stroke-linejoin="round"></path>
                    <path d="M22.375,42.8231 C0.84,59.3861 -4.221,104.5501 34.563,117.8911" id="Stroke-77" stroke="#0B567F" stroke-width="2" stroke-linecap="round" stroke-linejoin="round" stroke-dasharray="0.995,4.976"></path>
                    <path d="M36.9375,118.6512 C37.0965,118.6992 37.2565,118.7462 37.4175,118.7922" id="Stroke-79" stroke="#0B567F" stroke-width="2" stroke-linecap="round" stroke-linejoin="round"></path>
                </g>
            </g>
        </g>
    </g>
</svg>