<?xml version="1.0" encoding="UTF-8" standalone="no"?>
<svg width="356px" height="205px" viewBox="0 0 356 205" version="1.1" xmlns="http://www.w3.org/2000/svg" xmlns:xlink="http://www.w3.org/1999/xlink">
    <!-- Generator: Sketch 50.2 (55047) - http://www.bohemiancoding.com/sketch -->
    <title>Group</title>
    <desc>Created with Sketch.</desc>
    <defs>
        <polygon id="path-1" points="0.6768 0.132 28.7968 0.132 28.7968 16.3608 0.6768 16.3608"></polygon>
        <polygon id="path-3" points="0 0.0713 134.3886 0.0713 134.3886 83.4383 0 83.4383"></polygon>
        <polygon id="path-5" points="0.6822 0.0713 135.071 0.0713 135.071 83.4383 0.6822 83.4383"></polygon>
    </defs>
    <g id="Page-1" stroke="none" stroke-width="1" fill="none" fill-rule="evenodd">
        <g id="-" transform="translate(-835.000000, -1138.000000)">
            <g id="Group" transform="translate(835.000000, 1137.000000)">
                <path d="M212.8423,151.7323 L184.2653,132.5033 C182.7073,131.4563 180.6133,132.5793 180.6133,134.4433 L180.6133,144.8373 L38.9333,144.8373 C38.5043,144.8373 38.0943,144.9043 37.6813,144.9633 L54.3353,162.5343 L180.5883,162.5343 L180.5883,172.9533 C180.5883,174.8433 182.6833,175.9413 184.2393,174.8943 L212.8163,155.6393 C214.2213,154.7203 214.2213,152.6773 212.8423,151.7323" id="Fill-1" fill="#FFCD50"></path>
                <path d="M212.8423,151.7323 L184.2653,132.5033 C182.7073,131.4563 180.6133,132.5793 180.6133,134.4433 L180.6133,144.8373 L38.9333,144.8373 C38.5043,144.8373 38.0943,144.9043 37.6813,144.9633 L54.3353,162.5343 L180.5883,162.5343 L180.5883,172.9533 C180.5883,174.8433 182.6833,175.9413 184.2393,174.8943 L212.8163,155.6393 C214.2213,154.7203 214.2213,152.6773 212.8423,151.7323 Z" id="Stroke-3" stroke="#0B567F" stroke-width="2" stroke-linecap="round" stroke-linejoin="round"></path>
                <path d="M207.3618,32.14 L214.4658,25.035" id="Stroke-5" stroke="#424A60" stroke-width="2" stroke-linecap="round"></path>
                <path d="M217.3081,31.7201 C217.0421,31.7201 216.7881,31.6151 216.6011,31.4271 L208.0741,22.8991 C207.6831,22.5091 207.6831,21.8761 208.0741,21.4851 L216.6021,12.9561 C216.7891,12.7691 217.0431,12.6631 217.3091,12.6631 C217.5751,12.6631 217.8291,12.7691 218.0161,12.9561 L226.5431,21.4841 C226.9341,21.8751 226.9341,22.5081 226.5431,22.8981 L218.0151,31.4271 C217.8281,31.6151 217.5741,31.7201 217.3081,31.7201" id="Fill-7" fill="#B6C4CE"></path>
                <path d="M217.3101,11.6639 C216.7791,11.6639 216.2711,11.8739 215.8961,12.2489 L207.3671,20.7779 C206.5851,21.5599 206.5851,22.8259 207.3671,23.6069 L215.8941,32.1339 C216.2691,32.5089 216.7781,32.7199 217.3081,32.7199 C217.8381,32.7199 218.3471,32.5089 218.7221,32.1339 L227.2511,23.6049 C228.0331,22.8239 228.0331,21.5579 227.2511,20.7769 L218.7241,12.2489 C218.3491,11.8739 217.8391,11.6639 217.3101,11.6639 M217.3101,13.6639 L225.8371,22.1909 L217.3081,30.7199 L208.7811,22.1919 L217.3101,13.6639" id="Fill-9" fill="#0B567F"></path>
                <path d="M170.4087,122.3514 C166.4167,122.3514 162.3937,121.8924 158.4527,120.9874 C157.9987,120.8824 157.6767,120.4784 157.6767,120.0124 L157.6767,106.2714 L138.5767,106.2714 C136.9177,106.2714 135.5667,104.9214 135.5667,103.2624 C135.5667,101.6024 136.9177,100.2514 138.5767,100.2514 L157.6767,100.2514 L157.6767,92.2024 L126.5167,92.2024 C124.8577,92.2024 123.5077,90.8514 123.5077,89.1924 C123.5077,87.5324 124.8577,86.1824 126.5167,86.1824 L157.6767,86.1824 L157.6767,78.1324 L114.4577,78.1324 C112.7987,78.1324 111.4477,76.7824 111.4477,75.1224 C111.4477,73.4624 112.7987,72.1124 114.4577,72.1124 L157.6767,72.1124 L157.6767,64.0624 L122.4977,64.0624 C120.8387,64.0624 119.4877,62.7124 119.4877,61.0534 C119.4877,59.3934 120.8387,58.0424 122.4977,58.0424 L157.6767,58.0424 L157.6767,49.9934 L132.5477,49.9934 C130.8877,49.9934 129.5377,48.6434 129.5377,46.9834 C129.5377,45.3234 130.8877,43.9734 132.5477,43.9734 L157.6767,43.9734 L157.6767,35.9234 L142.5967,35.9234 C140.9377,35.9234 139.5877,34.5734 139.5877,32.9134 C139.5877,31.2544 140.9377,29.9034 142.5967,29.9034 L157.6767,29.9034 L157.6767,18.1724 C157.6767,17.7064 157.9987,17.3024 158.4527,17.1984 C162.3937,16.2934 166.4177,15.8344 170.4087,15.8344 C199.7757,15.8344 223.6677,39.7264 223.6677,69.0924 C223.6677,98.4594 199.7757,122.3514 170.4087,122.3514" id="Fill-11" fill="#2BB3E2"></path>
                <path d="M170.4087,14.8338 C166.3417,14.8338 162.2437,15.3018 158.2287,16.2238 C157.3207,16.4318 156.6777,17.2408 156.6777,18.1728 L156.6777,28.9038 L142.5967,28.9038 C140.3867,28.9038 138.5877,30.7028 138.5877,32.9138 C138.5877,35.1248 140.3867,36.9238 142.5967,36.9238 L156.6777,36.9238 L156.6777,42.9738 L132.5477,42.9738 C130.3357,42.9738 128.5367,44.7718 128.5367,46.9828 C128.5367,49.1938 130.3357,50.9928 132.5477,50.9928 L156.6777,50.9928 L156.6777,57.0428 L122.4977,57.0428 C120.2867,57.0428 118.4877,58.8418 118.4877,61.0528 C118.4877,63.2638 120.2867,65.0628 122.4977,65.0628 L156.6777,65.0628 L156.6777,71.1128 L114.4587,71.1128 C112.2467,71.1128 110.4477,72.9118 110.4477,75.1228 C110.4477,77.3338 112.2467,79.1328 114.4587,79.1328 L156.6777,79.1328 L156.6777,85.1828 L126.5167,85.1828 C124.3057,85.1828 122.5077,86.9808 122.5077,89.1918 C122.5077,91.4028 124.3057,93.2018 126.5167,93.2018 L156.6777,93.2018 L156.6777,99.2518 L138.5777,99.2518 C136.3667,99.2518 134.5677,101.0508 134.5677,103.2618 C134.5677,105.4728 136.3667,107.2718 138.5777,107.2718 L156.6777,107.2718 L156.6777,120.0128 C156.6777,120.9448 157.3207,121.7538 158.2287,121.9618 C162.2437,122.8838 166.3417,123.3518 170.4087,123.3518 C200.3277,123.3518 224.6677,99.0108 224.6677,69.0928 C224.6677,39.1748 200.3277,14.8338 170.4087,14.8338 M170.4087,16.8338 C199.2687,16.8338 222.6677,40.2318 222.6677,69.0928 C222.6677,97.9538 199.2687,121.3518 170.4087,121.3518 C166.3727,121.3518 162.4487,120.8788 158.6777,120.0128 L158.6777,105.2718 L138.5777,105.2718 C137.4667,105.2718 136.5677,104.3738 136.5677,103.2618 C136.5677,102.1498 137.4667,101.2518 138.5777,101.2518 L158.6777,101.2518 L158.6777,91.2018 L126.5167,91.2018 C125.4057,91.2018 124.5077,90.3038 124.5077,89.1918 C124.5077,88.0808 125.4057,87.1828 126.5167,87.1828 L158.6777,87.1828 L158.6777,77.1328 L114.4587,77.1328 C113.3457,77.1328 112.4477,76.2338 112.4477,75.1228 C112.4477,74.0108 113.3457,73.1128 114.4587,73.1128 L158.6777,73.1128 L158.6777,63.0628 L122.4977,63.0628 C121.3867,63.0628 120.4877,62.1648 120.4877,61.0528 C120.4877,59.9408 121.3867,59.0428 122.4977,59.0428 L158.6777,59.0428 L158.6777,48.9928 L132.5477,48.9928 C131.4357,48.9928 130.5367,48.0948 130.5367,46.9828 C130.5367,45.8718 131.4357,44.9738 132.5477,44.9738 L158.6777,44.9738 L158.6777,34.9238 L142.5967,34.9238 C141.4857,34.9238 140.5877,34.0248 140.5877,32.9138 C140.5877,31.8018 141.4857,30.9038 142.5967,30.9038 L158.6777,30.9038 L158.6777,18.1728 C162.4487,17.3068 166.3727,16.8338 170.4087,16.8338" id="Fill-13" fill="#0B567F"></path>
                <path d="M195.4282,47.534 C194.7742,46.884 193.7442,46.801 192.9982,47.339 L168.6752,64.932 C167.0902,66.086 166.0922,67.868 165.9402,69.824 C165.7882,71.78 166.4962,73.694 167.8812,75.079 C169.1452,76.345 170.8242,77.042 172.6102,77.042 C174.7472,77.042 176.7732,76.011 178.0322,74.281 L195.6212,49.963 C196.1622,49.215 196.0812,48.186 195.4282,47.534" id="Fill-15" fill="#FFCD50"></path>
                <path d="M195.4282,47.534 C194.7742,46.884 193.7442,46.801 192.9982,47.339 L168.6752,64.932 C167.0902,66.086 166.0922,67.868 165.9402,69.824 C165.7882,71.78 166.4962,73.694 167.8812,75.079 C169.1452,76.345 170.8242,77.042 172.6102,77.042 C174.7472,77.042 176.7732,76.011 178.0322,74.281 L195.6212,49.963 C196.1622,49.215 196.0812,48.186 195.4282,47.534 Z" id="Stroke-17" stroke="#0B567F" stroke-width="2" stroke-linecap="round" stroke-linejoin="round"></path>
                <path d="M174.6812,16.2254 C173.1832,16.1124 171.9302,16.0594 170.7362,16.0594 C169.5422,16.0594 168.2892,16.1124 166.7912,16.2254 C166.7662,16.2274 166.7422,16.2284 166.7162,16.2284 C166.4652,16.2284 166.2222,16.1334 166.0362,15.9614 C165.8322,15.7724 165.7162,15.5064 165.7162,15.2284 L165.7162,10.0294 L161.6922,10.0294 C159.4782,10.0294 157.6762,8.2284 157.6762,6.0154 C157.6762,3.8014 159.4782,1.9994 161.6922,1.9994 L179.7812,1.9994 C181.9942,1.9994 183.7962,3.8014 183.7962,6.0154 C183.7962,8.2284 181.9942,10.0294 179.7812,10.0294 L175.7562,10.0294 L175.7562,15.2284 C175.7562,15.5064 175.6402,15.7724 175.4362,15.9614 C175.2502,16.1334 175.0072,16.2284 174.7562,16.2284 C174.7312,16.2284 174.7062,16.2274 174.6812,16.2254" id="Fill-19" fill="#0B567F"></path>
                <g id="Group-23" transform="translate(156.000000, 0.868000)">
                    <mask id="mask-2" fill="white">
                        <use xlink:href="#path-1"></use>
                    </mask>
                    <g id="Clip-22"></g>
                    <path d="M23.7808,0.1318 L5.6908,0.1318 C2.9268,0.1318 0.6768,2.3818 0.6768,5.1468 C0.6768,7.9118 2.9268,10.1618 5.6908,10.1618 L8.7168,10.1618 L8.7168,14.3608 C8.7168,14.9168 8.9488,15.4478 9.3568,15.8268 C9.7278,16.1708 10.2148,16.3608 10.7168,16.3608 C10.7668,16.3608 10.8168,16.3588 10.8668,16.3548 C12.3398,16.2428 13.5678,16.1918 14.7358,16.1918 C15.9038,16.1918 17.1348,16.2428 18.6048,16.3548 C18.6558,16.3588 18.7068,16.3608 18.7568,16.3608 C19.2598,16.3608 19.7458,16.1708 20.1168,15.8268 C20.5248,15.4478 20.7568,14.9168 20.7568,14.3608 L20.7568,10.1618 L23.7808,10.1618 C26.5468,10.1618 28.7968,7.9118 28.7968,5.1468 C28.7968,2.3818 26.5468,0.1318 23.7808,0.1318 M23.7808,2.1318 C25.4448,2.1318 26.7968,3.4828 26.7968,5.1468 C26.7968,6.8108 25.4448,8.1618 23.7808,8.1618 L18.7568,8.1618 L18.7568,14.3608 C17.4268,14.2598 16.0918,14.1918 14.7358,14.1918 C13.3828,14.1918 12.0448,14.2598 10.7168,14.3608 L10.7168,8.1618 L5.6908,8.1618 C4.0268,8.1618 2.6768,6.8108 2.6768,5.1468 C2.6768,3.4828 4.0268,2.1318 5.6908,2.1318 L23.7808,2.1318" id="Fill-21" fill="#0B567F" mask="url(#mask-2)"></path>
                </g>
                <path d="M170.7358,14.8241 C169.6248,14.8241 168.7258,15.7221 168.7258,16.8341 L168.7258,22.8641 C168.7258,23.9751 169.6248,24.8741 170.7358,24.8741 C171.8478,24.8741 172.7468,23.9751 172.7468,22.8641 L172.7468,16.8341 C172.7468,15.7221 171.8478,14.8241 170.7358,14.8241" id="Fill-24" fill="#F2F2F2"></path>
                <path d="M170.7358,14.8241 C169.6248,14.8241 168.7258,15.7221 168.7258,16.8341 L168.7258,22.8641 C168.7258,23.9751 169.6248,24.8741 170.7358,24.8741 C171.8478,24.8741 172.7468,23.9751 172.7468,22.8641 L172.7468,16.8341 C172.7468,15.7221 171.8478,14.8241 170.7358,14.8241 Z" id="Stroke-26" stroke="#0B567F" stroke-width="2" stroke-linecap="round"></path>
                <path d="M170.7358,113.3114 C169.6248,113.3114 168.7258,114.2094 168.7258,115.3214 L168.7258,121.3514 C168.7258,122.4624 169.6248,123.3614 170.7358,123.3614 C171.8478,123.3614 172.7468,122.4624 172.7468,121.3514 L172.7468,115.3214 C172.7468,114.2094 171.8478,113.3114 170.7358,113.3114" id="Fill-28" fill="#F2F2F2"></path>
                <path d="M170.7358,113.3114 C169.6248,113.3114 168.7258,114.2094 168.7258,115.3214 L168.7258,121.3514 C168.7258,122.4624 169.6248,123.3614 170.7358,123.3614 C171.8478,123.3614 172.7468,122.4624 172.7468,121.3514 L172.7468,115.3214 C172.7468,114.2094 171.8478,113.3114 170.7358,113.3114 Z" id="Stroke-30" stroke="#0B567F" stroke-width="2" stroke-linecap="round"></path>
                <path d="M222.6675,67.0828 L216.6375,67.0828 C215.5255,67.0828 214.6275,67.9808 214.6275,69.0928 C214.6275,70.2048 215.5255,71.1028 216.6375,71.1028 L222.6675,71.1028 C223.7785,71.1028 224.6775,70.2048 224.6775,69.0928 C224.6775,67.9808 223.7785,67.0828 222.6675,67.0828" id="Fill-32" fill="#F2F2F2"></path>
                <path d="M222.6675,67.0828 L216.6375,67.0828 C215.5255,67.0828 214.6275,67.9808 214.6275,69.0928 C214.6275,70.2048 215.5255,71.1028 216.6375,71.1028 L222.6675,71.1028 C223.7785,71.1028 224.6775,70.2048 224.6775,69.0928 C224.6775,67.9808 223.7785,67.0828 222.6675,67.0828 Z" id="Stroke-34" stroke="#0B567F" stroke-width="2" stroke-linecap="round"></path>
                <path d="M197.5435,22.0941 C196.5805,21.5371 195.3525,21.8691 194.7975,22.8301 L191.7825,28.0531 C191.2285,29.0161 191.5575,30.2441 192.5185,30.7991 C192.8335,30.9821 193.1795,31.0691 193.5215,31.0691 C194.2165,31.0691 194.8925,30.7071 195.2645,30.0641 L198.2785,24.8401 C198.8335,23.8791 198.5035,22.6491 197.5435,22.0941" id="Fill-36" fill="#F2F2F2"></path>
                <path d="M197.5435,22.0941 C196.5805,21.5371 195.3525,21.8691 194.7975,22.8301 L191.7825,28.0531 C191.2285,29.0161 191.5575,30.2441 192.5185,30.7991 C192.8335,30.9821 193.1795,31.0691 193.5215,31.0691 C194.2165,31.0691 194.8925,30.7071 195.2645,30.0641 L198.2785,24.8401 C198.8335,23.8791 198.5035,22.6491 197.5435,22.0941 Z" id="Stroke-38" stroke="#0B567F" stroke-width="2" stroke-linecap="round"></path>
                <path d="M216.6694,93.4813 L211.4474,90.4663 C210.4864,89.9093 209.2574,90.2373 208.7024,91.2023 C208.1474,92.1653 208.4774,93.3933 209.4384,93.9473 L214.6594,96.9623 C214.9774,97.1453 215.3204,97.2313 215.6624,97.2313 C216.3574,97.2313 217.0334,96.8723 217.4054,96.2273 C217.9624,95.2643 217.6324,94.0363 216.6694,93.4813" id="Fill-40" fill="#F2F2F2"></path>
                <path d="M216.6694,93.4813 L211.4474,90.4663 C210.4864,89.9093 209.2574,90.2373 208.7024,91.2023 C208.1474,92.1653 208.4774,93.3933 209.4384,93.9473 L214.6594,96.9623 C214.9774,97.1453 215.3204,97.2313 215.6624,97.2313 C216.3574,97.2313 217.0334,96.8723 217.4054,96.2273 C217.9624,95.2643 217.6324,94.0363 216.6694,93.4813 Z" id="Stroke-42" stroke="#0B567F" stroke-width="2" stroke-linecap="round"></path>
                <path d="M195.2642,108.1239 C194.7062,107.1589 193.4752,106.8299 192.5182,107.3879 C191.5552,107.9429 191.2262,109.1729 191.7832,110.1339 L194.7972,115.3559 C195.1712,116.0009 195.8442,116.3609 196.5392,116.3609 C196.8812,116.3609 197.2272,116.2739 197.5422,116.0909 C198.5052,115.5369 198.8352,114.3069 198.2792,113.3459 L195.2642,108.1239 Z" id="Fill-44" fill="#F2F2F2"></path>
                <path d="M195.2642,108.1239 C194.7062,107.1589 193.4752,106.8299 192.5182,107.3879 C191.5552,107.9429 191.2262,109.1729 191.7832,110.1339 L194.7972,115.3559 C195.1712,116.0009 195.8442,116.3609 196.5392,116.3609 C196.8812,116.3609 197.2272,116.2739 197.5422,116.0909 C198.5052,115.5369 198.8352,114.3069 198.2792,113.3459 L195.2642,108.1239 Z" id="Stroke-46" stroke="#0B567F" stroke-width="2" stroke-linecap="round"></path>
                <path d="M210.4468,47.9881 C210.7888,47.9881 211.1338,47.9021 211.4498,47.7191 L216.6718,44.7041 C217.6338,44.1491 217.9648,42.9191 217.4078,41.9581 C216.8518,40.9951 215.6188,40.6641 214.6618,41.2231 L209.4398,44.2381 C208.4768,44.7921 208.1468,46.0201 208.7048,46.9831 C209.0758,47.6281 209.7518,47.9881 210.4468,47.9881" id="Fill-48" fill="#F2F2F2"></path>
                <path d="M210.4468,47.9881 C210.7888,47.9881 211.1338,47.9021 211.4498,47.7191 L216.6718,44.7041 C217.6338,44.1491 217.9648,42.9191 217.4078,41.9581 C216.8518,40.9951 215.6188,40.6641 214.6618,41.2231 L209.4398,44.2381 C208.4768,44.7921 208.1468,46.0201 208.7048,46.9831 C209.0758,47.6281 209.7518,47.9881 210.4468,47.9881 Z" id="Stroke-50" stroke="#0B567F" stroke-width="2" stroke-linecap="round"></path>
                <path d="M20.6548,172.305 C9.7968,172.182 1.0008,163.31 1.0008,152.421 C1.0008,142.743 8.0208,134.468 17.4668,132.83 C17.9828,123.443 25.6108,115.884 35.0058,115.453 C34.9718,114.946 34.9558,114.44 34.9558,113.939 C34.9558,101.257 45.2728,90.939 57.9558,90.939 C68.2058,90.939 77.1218,97.645 80.0048,107.376 C81.9998,106.761 84.0758,106.45 86.1898,106.45 C97.7598,106.45 107.1738,115.863 107.1738,127.433 C107.1738,129.162 106.9628,130.873 106.5468,132.538 L113.5068,132.538 C124.4698,132.538 133.3888,141.458 133.3888,152.421 C133.3888,163.386 124.4698,172.306 113.5068,172.306 L20.6548,172.305 Z" id="Fill-52" fill="#F2F2F2"></path>
                <g id="Group-56" transform="translate(0.000000, 89.868000)">
                    <mask id="mask-4" fill="white">
                        <use xlink:href="#path-3"></use>
                    </mask>
                    <g id="Clip-55"></g>
                    <path d="M57.9556,0.0713 C44.7226,0.0713 33.9556,10.8373 33.9556,24.0713 C33.9556,24.2653 33.9586,24.4613 33.9626,24.6573 C24.7786,25.5553 17.4076,32.9233 16.5266,42.1253 C6.9956,44.1503 -0.0004,52.6523 -0.0004,62.5533 C-0.0004,73.6563 8.7096,82.7643 19.6546,83.4023 L19.6546,83.4193 L20.0756,83.4233 C20.3436,83.4333 20.6126,83.4383 20.8846,83.4383 C21.0086,83.4383 21.1326,83.4373 21.2566,83.4343 L21.6546,83.4383 L113.5056,83.4383 C125.0206,83.4383 134.3886,74.0693 134.3886,62.5533 C134.3886,51.0383 125.0206,41.6703 113.5056,41.6703 L107.7886,41.6703 C108.0446,40.3213 108.1736,38.9483 108.1736,37.5653 C108.1736,25.4433 98.3116,15.5823 86.1896,15.5823 C84.3096,15.5823 82.4586,15.8173 80.6636,16.2823 C77.3726,6.6383 68.3176,0.0713 57.9556,0.0713 M57.9556,2.0713 C68.2866,2.0713 76.9526,9.1933 79.3166,18.7943 C81.4586,18.0093 83.7746,17.5823 86.1896,17.5823 C97.2266,17.5823 106.1736,26.5293 106.1736,37.5653 C106.1736,39.6953 105.8386,41.7463 105.2226,43.6703 L113.5056,43.6703 C123.9346,43.6703 132.3886,52.1253 132.3886,62.5533 C132.3886,72.9843 123.9346,81.4383 113.5056,81.4383 L21.6546,81.4383 L21.6546,81.4193 C21.3976,81.4323 21.1426,81.4383 20.8846,81.4383 C10.4536,81.4383 1.9996,72.9843 1.9996,62.5533 C1.9996,52.9533 9.1656,45.0263 18.4396,43.8263 C18.5216,34.2803 26.2866,26.5663 35.8526,26.5663 C35.9346,26.5663 36.0166,26.5673 36.0976,26.5683 C36.0056,25.7483 35.9556,24.9163 35.9556,24.0713 C35.9556,11.9223 45.8056,2.0713 57.9556,2.0713" id="Fill-54" fill="#0B567F" mask="url(#mask-4)"></path>
                </g>
                <path d="M241.3364,172.305 C230.4774,172.182 221.6824,163.31 221.6824,152.421 C221.6824,142.743 228.7034,134.468 238.1484,132.83 C238.6664,123.443 246.2934,115.884 255.6884,115.453 C255.6534,114.944 255.6374,114.438 255.6374,113.939 C255.6374,101.257 265.9544,90.939 278.6374,90.939 C288.8874,90.939 297.8034,97.645 300.6864,107.376 C302.6814,106.761 304.7574,106.45 306.8714,106.45 C318.4414,106.45 327.8554,115.863 327.8554,127.433 C327.8554,129.163 327.6454,130.875 327.2294,132.538 L334.1884,132.538 C345.1514,132.538 354.0704,141.458 354.0704,152.421 C354.0704,163.386 345.1514,172.306 334.1884,172.306 L241.3364,172.305 Z" id="Fill-57" fill="#F2F2F2"></path>
                <g id="Group-61" transform="translate(220.000000, 89.868000)">
                    <mask id="mask-6" fill="white">
                        <use xlink:href="#path-5"></use>
                    </mask>
                    <g id="Clip-60"></g>
                    <path d="M58.6382,0.0713 C45.4042,0.0713 34.6382,10.8373 34.6382,24.0713 C34.6382,24.2653 34.6402,24.4613 34.6452,24.6573 C25.4602,25.5553 18.0902,32.9233 17.2092,42.1253 C7.6782,44.1503 0.6822,52.6523 0.6822,62.5533 C0.6822,73.6563 9.3922,82.7643 20.3372,83.4023 L20.3372,83.4193 L20.7572,83.4233 C21.0262,83.4333 21.2952,83.4383 21.5662,83.4383 C21.6912,83.4383 21.8142,83.4373 21.9392,83.4343 L22.3372,83.4383 L114.1882,83.4383 C125.7022,83.4383 135.0712,74.0693 135.0712,62.5533 C135.0712,51.0383 125.7022,41.6703 114.1882,41.6703 L108.4712,41.6703 C108.7262,40.3213 108.8552,38.9483 108.8552,37.5653 C108.8552,25.4433 98.9932,15.5823 86.8722,15.5823 C84.9922,15.5823 83.1402,15.8173 81.3452,16.2823 C78.0542,6.6383 68.9992,0.0713 58.6382,0.0713 M58.6382,2.0713 C68.9682,2.0713 77.6342,9.1933 79.9992,18.7943 C82.1412,18.0093 84.4562,17.5823 86.8722,17.5823 C97.9092,17.5823 106.8552,26.5293 106.8552,37.5653 C106.8552,39.6953 106.5212,41.7463 105.9042,43.6703 L114.1882,43.6703 C124.6172,43.6703 133.0712,52.1253 133.0712,62.5533 C133.0712,72.9843 124.6172,81.4383 114.1882,81.4383 L22.3372,81.4383 L22.3372,81.4193 C22.0802,81.4323 21.8242,81.4383 21.5662,81.4383 C11.1362,81.4383 2.6822,72.9843 2.6822,62.5533 C2.6822,52.9533 9.8472,45.0263 19.1222,43.8263 C19.2042,34.2803 26.9682,26.5663 36.5352,26.5663 C36.6172,26.5663 36.6992,26.5673 36.7792,26.5683 C36.6872,25.7483 36.6382,24.9163 36.6382,24.0713 C36.6382,11.9223 46.4882,2.0713 58.6382,2.0713" id="Fill-59" fill="#0B567F" mask="url(#mask-6)"></path>
                </g>
                <g id="Group-65" transform="translate(39.000000, 181.868000)">
                    <path d="M0.0913,0.791 L0.2343,14.535 C0.2833,19.366 12.9653,23.156 28.5633,22.995 C44.1593,22.837 56.7653,18.786 56.7143,13.959 L56.5733,0.213" id="Fill-62" fill="#F2F2F2"></path>
                    <path d="M0.0913,0.791 L0.2343,14.535 C0.2833,19.366 12.9653,23.156 28.5633,22.995 C44.1593,22.837 56.7653,18.786 56.7143,13.959 L56.5733,0.213" id="Stroke-64" stroke="#0B567F" stroke-width="2" stroke-linecap="round"></path>
                </g>
                <g id="Group-69" transform="translate(39.000000, 178.868000)">
                    <path d="M2.106,0.5303 C0.821,1.5463 0.082,2.6433 0.091,3.7913 C0.143,8.6213 12.828,12.4073 28.424,12.2493 C44.02,12.0903 56.622,8.0483 56.574,3.2133 C56.563,2.1313 55.885,1.1103 54.715,0.1653" id="Fill-66" fill="#B6C4CE"></path>
                    <path d="M2.106,0.5303 C0.821,1.5463 0.082,2.6433 0.091,3.7913 C0.143,8.6213 12.828,12.4073 28.424,12.2493 C44.02,12.0903 56.622,8.0483 56.574,3.2133 C56.563,2.1313 55.885,1.1103 54.715,0.1653" id="Stroke-68" stroke="#0B567F" stroke-width="2" stroke-linecap="round" stroke-linejoin="round"></path>
                </g>
                <g id="Group-73" transform="translate(38.000000, 160.868000)">
                    <path d="M0.8813,1.103 L1.0223,14.849 C1.0723,19.676 13.7523,23.468 29.3503,23.308 C44.9473,23.145 57.5533,19.103 57.5043,14.269 L57.3603,0.527" id="Fill-70" fill="#F2F2F2"></path>
                    <path d="M0.8813,1.103 L1.0223,14.849 C1.0723,19.676 13.7523,23.468 29.3503,23.308 C44.9473,23.145 57.5533,19.103 57.5043,14.269 L57.3603,0.527" id="Stroke-72" stroke="#0B567F" stroke-width="2" stroke-linecap="round"></path>
                </g>
                <g id="Group-77" transform="translate(38.000000, 157.868000)">
                    <path d="M2.894,0.8408 C1.609,1.8588 0.869,2.9538 0.881,4.1028 C0.931,8.9318 13.616,12.7198 29.211,12.5598 C44.809,12.4028 57.412,8.3568 57.36,3.5278 C57.351,2.4418 56.673,1.4208 55.505,0.4758" id="Fill-74" fill="#B6C4CE"></path>
                    <path d="M2.894,0.8408 C1.609,1.8588 0.869,2.9538 0.881,4.1028 C0.931,8.9318 13.616,12.7198 29.211,12.5598 C44.809,12.4028 57.412,8.3568 57.36,3.5278 C57.351,2.4418 56.673,1.4208 55.505,0.4758" id="Stroke-76" stroke="#0B567F" stroke-width="2" stroke-linecap="round" stroke-linejoin="round"></path>
                </g>
                <g id="Group-81" transform="translate(38.000000, 140.868000)">
                    <path d="M0.6743,0.8296 L0.8143,14.5726 C0.8643,19.4036 13.5473,23.1946 29.1433,23.0306 C44.7413,22.8706 57.3433,18.8266 57.2943,13.9976 L57.1553,0.2516" id="Fill-78" fill="#F2F2F2"></path>
                    <path d="M0.6743,0.8296 L0.8143,14.5726 C0.8643,19.4036 13.5473,23.1946 29.1433,23.0306 C44.7413,22.8706 57.3433,18.8266 57.2943,13.9976 L57.1553,0.2516" id="Stroke-80" stroke="#0B567F" stroke-width="2" stroke-linecap="round"></path>
                </g>
                <path d="M66.061,151.1595 C52.346,151.1595 37.737,147.8465 37.674,141.7075 C37.644,138.8555 40.722,136.3535 46.576,134.4745 C51.987,132.7385 59.174,131.7395 66.815,131.6615 L67.766,131.6575 C81.481,131.6575 96.091,134.9695 96.156,141.1085 C96.22,147.4415 81.188,151.0105 67.012,151.1545 L66.061,151.1595 Z" id="Fill-82" fill="#B6C4CE"></path>
                <path d="M67.7671,130.6571 C67.4481,130.6571 67.1261,130.6581 66.8041,130.6621 C59.0671,130.7401 51.7751,131.7561 46.2711,133.5231 C38.2951,136.0831 36.6501,139.3921 36.6741,141.7181 C36.6971,144.0001 38.3531,147.2231 46.1111,149.6141 C51.4371,151.2561 58.5211,152.1591 66.0601,152.1591 C66.3791,152.1591 66.7011,152.1581 67.0231,152.1551 C82.0501,152.0021 97.2271,148.1561 97.1561,141.0991 C97.1321,138.8161 95.4741,135.5941 87.7181,133.2031 C82.3911,131.5611 75.3061,130.6571 67.7671,130.6571 M67.7671,132.6571 C82.9291,132.6571 95.1061,136.3881 95.1561,141.1191 C95.2041,145.9471 82.6011,149.9961 67.0021,150.1551 C66.6871,150.1581 66.3721,150.1591 66.0601,150.1591 C50.9001,150.1591 38.7221,146.4291 38.6741,141.6971 C38.6241,136.8661 51.2281,132.8191 66.8251,132.6621 C67.1401,132.6581 67.4551,132.6571 67.7671,132.6571" id="Fill-84" fill="#0B567F"></path>
                <g id="Group-89" transform="translate(259.000000, 181.868000)">
                    <path d="M0.7739,0.791 L0.9169,14.535 C0.9649,19.366 13.6479,23.156 29.2459,22.995 C44.8419,22.837 57.4479,18.786 57.3969,13.959 L57.2559,0.213" id="Fill-86" fill="#F2F2F2"></path>
                    <path d="M0.7739,0.791 L0.9169,14.535 C0.9649,19.366 13.6479,23.156 29.2459,22.995 C44.8419,22.837 57.4479,18.786 57.3969,13.959 L57.2559,0.213" id="Stroke-88" stroke="#0B567F" stroke-width="2" stroke-linecap="round"></path>
                </g>
                <g id="Group-93" transform="translate(259.000000, 178.868000)">
                    <path d="M2.7886,0.5303 C1.5026,1.5463 0.7646,2.6433 0.7736,3.7913 C0.8246,8.6213 13.5106,12.4073 29.1066,12.2493 C44.7016,12.0903 57.3036,8.0483 57.2566,3.2133 C57.2446,2.1313 56.5666,1.1103 55.3966,0.1653" id="Fill-90" fill="#B6C4CE"></path>
                    <path d="M2.7886,0.5303 C1.5026,1.5463 0.7646,2.6433 0.7736,3.7913 C0.8246,8.6213 13.5106,12.4073 29.1066,12.2493 C44.7016,12.0903 57.3036,8.0483 57.2566,3.2133 C57.2446,2.1313 56.5666,1.1103 55.3966,0.1653" id="Stroke-92" stroke="#0B567F" stroke-width="2" stroke-linecap="round" stroke-linejoin="round"></path>
                </g>
                <g id="Group-97" transform="translate(259.000000, 160.868000)">
                    <path d="M0.564,1.103 L0.704,14.849 C0.755,19.676 13.434,23.468 29.032,23.308 C44.629,23.145 57.236,19.103 57.186,14.269 L57.043,0.527" id="Fill-94" fill="#F2F2F2"></path>
                    <path d="M0.564,1.103 L0.704,14.849 C0.755,19.676 13.434,23.468 29.032,23.308 C44.629,23.145 57.236,19.103 57.186,14.269 L57.043,0.527" id="Stroke-96" stroke="#0B567F" stroke-width="2" stroke-linecap="round"></path>
                </g>
                <g id="Group-101" transform="translate(259.000000, 157.868000)">
                    <path d="M2.5757,0.8408 C1.2917,1.8588 0.5507,2.9538 0.5637,4.1028 C0.6127,8.9318 13.2977,12.7198 28.8927,12.5598 C44.4917,12.4028 57.0937,8.3568 57.0427,3.5278 C57.0327,2.4418 56.3547,1.4208 55.1867,0.4758" id="Fill-98" fill="#B6C4CE"></path>
                    <path d="M2.5757,0.8408 C1.2917,1.8588 0.5507,2.9538 0.5637,4.1028 C0.6127,8.9318 13.2977,12.7198 28.8927,12.5598 C44.4917,12.4028 57.0937,8.3568 57.0427,3.5278 C57.0327,2.4418 56.3547,1.4208 55.1867,0.4758" id="Stroke-100" stroke="#0B567F" stroke-width="2" stroke-linecap="round" stroke-linejoin="round"></path>
                </g>
                <g id="Group-105" transform="translate(259.000000, 140.868000)">
                    <path d="M0.3569,0.8296 L0.4959,14.5726 C0.5459,19.4036 13.2289,23.1946 28.8249,23.0306 C44.4229,22.8706 57.0249,18.8266 56.9759,13.9976 L56.8379,0.2516" id="Fill-102" fill="#F2F2F2"></path>
                    <path d="M0.3569,0.8296 L0.4959,14.5726 C0.5459,19.4036 13.2289,23.1946 28.8249,23.0306 C44.4229,22.8706 57.0249,18.8266 56.9759,13.9976 L56.8379,0.2516" id="Stroke-104" stroke="#0B567F" stroke-width="2" stroke-linecap="round"></path>
                </g>
                <path d="M286.7427,151.1595 C273.0267,151.1595 258.4177,147.8465 258.3567,141.7075 C258.3267,138.8555 261.4047,136.3535 267.2587,134.4745 C272.6697,132.7385 279.8557,131.7395 287.4967,131.6615 L288.4477,131.6575 C302.1617,131.6575 316.7727,134.9695 316.8387,141.1085 C316.9027,147.4415 301.8707,151.0105 287.6937,151.1545 L286.7427,151.1595 Z" id="Fill-106" fill="#B6C4CE"></path>
                <path d="M288.4487,130.6571 C288.1297,130.6571 287.8077,130.6581 287.4857,130.6621 C279.7487,130.7401 272.4567,131.7561 266.9527,133.5231 C258.9777,136.0831 257.3327,139.3921 257.3567,141.7181 C257.3797,144.0001 259.0347,147.2231 266.7927,149.6141 C272.1187,151.2561 279.2037,152.1591 286.7417,152.1591 C287.0617,152.1591 287.3827,152.1581 287.7047,152.1551 C302.7327,152.0021 317.9097,148.1561 317.8377,141.0991 C317.8137,138.8161 316.1567,135.5941 308.3997,133.2031 C303.0727,131.5611 295.9877,130.6571 288.4487,130.6571 M288.4487,132.6571 C303.6107,132.6571 315.7887,136.3881 315.8377,141.1191 C315.8857,145.9471 303.2827,149.9961 287.6847,150.1551 C287.3697,150.1581 287.0537,150.1591 286.7417,150.1591 C271.5817,150.1591 259.4037,146.4291 259.3567,141.6971 C259.3057,136.8661 271.9107,132.8191 287.5067,132.6621 C287.8217,132.6581 288.1367,132.6571 288.4487,132.6571" id="Fill-108" fill="#0B567F"></path>
            </g>
        </g>
    </g>
</svg>