<?xml version="1.0" encoding="UTF-8" standalone="no"?>
<svg width="382px" height="205px" viewBox="0 0 382 205" version="1.1" xmlns="http://www.w3.org/2000/svg" xmlns:xlink="http://www.w3.org/1999/xlink">
    <!-- Generator: Sketch 50.2 (55047) - http://www.bohemiancoding.com/sketch -->
    <title>Group</title>
    <desc>Created with Sketch.</desc>
    <defs>
        <polygon id="path-1" points="0.0005 0.424 153.4775 0.424 153.4775 95.4096 0.0005 95.4096"></polygon>
    </defs>
    <g id="Page-1" stroke="none" stroke-width="1" fill="none" fill-rule="evenodd">
        <g id="-" transform="translate(-236.000000, -800.000000)">
            <g id="Group" transform="translate(236.000000, 799.000000)">
                <path d="M212.1367,91.8356 C211.3937,91.8356 210.6767,91.4806 210.2187,90.8866 C209.7587,90.2906 209.6067,89.5266 209.8007,88.7926 L211.1597,83.6336 L173.3347,73.6666 C173.0697,73.5966 172.8447,73.4206 172.7127,73.1796 L165.6447,60.2706 C165.4647,59.9416 165.4837,59.5416 165.6927,59.2316 C165.8787,58.9536 166.1917,58.7896 166.5217,58.7896 C166.5597,58.7896 166.5987,58.7916 166.6367,58.7966 C166.9897,58.8366 167.2587,58.8706 167.5317,58.9416 L214.4267,71.2996 L215.7817,66.1566 C216.0617,65.0946 217.0287,64.3526 218.1327,64.3526 C218.8357,64.3526 219.4797,64.6446 219.9467,65.1756 L233.7677,80.9076 C234.3067,81.5326 234.4957,82.3706 234.2807,83.1556 C234.0657,83.9356 233.4797,84.5536 232.7127,84.8096 L212.9427,91.6986 C212.6797,91.7896 212.4087,91.8356 212.1367,91.8356" id="Fill-1" fill="#F9912B"></path>
                <path d="M166.5215,57.7897 C165.8615,57.7897 165.2365,58.1167 164.8625,58.6727 C164.4455,59.2937 164.4085,60.0947 164.7675,60.7507 L171.8355,73.6597 C172.0995,74.1417 172.5495,74.4937 173.0805,74.6337 L209.9375,84.3467 L208.8335,88.5377 C208.5605,89.5747 208.7765,90.6537 209.4265,91.4977 C210.0725,92.3357 211.0855,92.8357 212.1365,92.8357 C212.5205,92.8357 212.9025,92.7707 213.2695,92.6437 L233.0535,85.7497 C234.1135,85.3967 234.9415,84.5227 235.2445,83.4207 C235.5485,82.3127 235.2825,81.1317 234.5295,80.2607 L220.6985,64.5167 C220.0475,63.7757 219.1135,63.3517 218.1325,63.3517 C216.5755,63.3517 215.2095,64.4007 214.8145,65.9017 L213.7135,70.0787 L167.7875,57.9757 C167.4205,57.8787 167.0905,57.8417 166.8265,57.8117 L166.7505,57.8027 C166.6735,57.7937 166.5975,57.7897 166.5215,57.7897 M166.5215,59.7897 C166.7735,59.8187 167.0245,59.8427 167.2775,59.9097 L215.1385,72.5217 L216.7485,66.4117 C216.9255,65.7387 217.5235,65.3517 218.1325,65.3517 C218.5165,65.3517 218.9045,65.5057 219.1955,65.8357 L233.0165,81.5677 C233.6805,82.3367 233.3645,83.5387 232.3965,83.8607 L212.6135,90.7537 C212.4525,90.8097 212.2925,90.8357 212.1365,90.8357 C211.2495,90.8357 210.5185,89.9927 210.7675,89.0467 L212.3815,82.9217 L173.5895,72.6997 L166.5215,59.7897" id="Fill-3" fill="#0B567F"></path>
                <path d="M210.2559,125.0529 C210.1709,125.0529 210.0849,125.0419 210.0009,125.0199 L172.1769,115.0529 L170.8179,120.2109 C170.5369,121.2759 169.5719,122.0189 168.4719,122.0189 C167.7769,122.0189 167.1139,121.7179 166.6519,121.1919 L152.8339,105.4439 C152.3019,104.8529 152.0969,104.0259 152.2949,103.2419 C152.4939,102.4519 153.0719,101.8159 153.8409,101.5419 L173.6269,94.6609 C173.8879,94.5709 174.1559,94.5249 174.4269,94.5249 C175.1699,94.5249 175.8879,94.8809 176.3469,95.4769 C176.8069,96.0739 176.9609,96.8369 176.7679,97.5679 L175.4129,102.7099 L222.3069,115.0679 C222.5799,115.1399 222.8319,115.2439 223.0829,115.3509 C223.4269,115.4969 223.6989,115.8389 223.7279,116.2109 C223.7559,116.5829 223.6119,116.9569 223.2949,117.1539 L210.7819,124.9029 C210.6229,125.0019 210.4409,125.0529 210.2559,125.0529" id="Fill-5" fill="#F9912B"></path>
                <path d="M174.4268,93.525 C174.0448,93.525 173.6648,93.589 173.2988,93.716 L153.5198,100.594 C152.4198,100.987 151.6058,101.883 151.3238,102.998 C151.0448,104.106 151.3348,105.274 152.1008,106.124 L165.8998,121.85 C166.5528,122.594 167.4898,123.019 168.4718,123.019 C170.0258,123.019 171.3878,121.969 171.7838,120.466 L172.8888,116.274 L209.7458,125.987 C209.9138,126.031 210.0858,126.053 210.2558,126.053 C210.6248,126.053 210.9898,125.951 211.3088,125.753 L223.8218,118.004 C224.4568,117.61 224.8208,116.895 224.7628,116.15 C224.7048,115.404 224.2368,114.754 223.5488,114.462 L223.4808,114.433 C223.2348,114.328 222.9288,114.198 222.5618,114.101 L176.6348,101.998 L177.7358,97.822 C178.0078,96.789 177.7898,95.712 177.1388,94.866 C176.4908,94.026 175.4778,93.525 174.4268,93.525 M174.4268,95.525 C175.3168,95.525 176.0468,96.379 175.8008,97.312 L174.1918,103.422 L222.0518,116.035 C222.3048,116.102 222.5348,116.205 222.7688,116.303 L210.2558,124.053 L171.4648,113.831 L169.8508,119.956 C169.6708,120.635 169.0778,121.019 168.4718,121.019 C168.0858,121.019 167.6958,120.864 167.4028,120.531 L153.5858,104.784 C152.9028,104.026 153.2198,102.825 154.1768,102.483 L173.9548,95.606 C174.1148,95.55 174.2738,95.525 174.4268,95.525" id="Fill-7" fill="#0B567F"></path>
                <path d="M276.7588,66.526 C275.3728,66.526 274.0618,65.995 273.0668,65.031 C272.0468,64.045 271.4738,62.721 271.4498,61.303 C271.4268,59.885 271.9568,58.543 272.9438,57.525 C273.9528,56.482 275.3078,55.908 276.7588,55.908 C278.1448,55.908 279.4558,56.439 280.4508,57.402 C282.5548,59.438 282.6098,62.805 280.5738,64.909 C279.5648,65.952 278.2098,66.526 276.7588,66.526" id="Fill-9" fill="#F2F2F2"></path>
                <path d="M276.7588,54.9078 C275.0348,54.9078 273.4248,55.5898 272.2258,56.8288 C269.8058,59.3288 269.8708,63.3308 272.3708,65.7498 C273.5538,66.8948 275.1118,67.5258 276.7578,67.5258 C278.4828,67.5258 280.0928,66.8438 281.2918,65.6048 C282.4638,64.3938 283.0948,62.7988 283.0678,61.1138 C283.0388,59.4288 282.3578,57.8558 281.1468,56.6828 C279.9638,55.5378 278.4048,54.9078 276.7588,54.9078 M276.7588,56.9078 C277.8378,56.9078 278.9188,57.3108 279.7558,58.1208 C281.4658,59.7758 281.5098,62.5038 279.8558,64.2138 C279.0098,65.0868 277.8848,65.5258 276.7578,65.5258 C275.6788,65.5258 274.5988,65.1228 273.7618,64.3128 C272.0518,62.6578 272.0078,59.9298 273.6618,58.2198 C274.5078,57.3458 275.6328,56.9078 276.7588,56.9078" id="Fill-11" fill="#0B567F"></path>
                <path d="M16.6182,124.2784 C13.4372,124.2784 10.6882,122.1174 9.9322,119.0254 C9.4962,117.2374 9.7812,115.3874 10.7352,113.8154 C11.6902,112.2424 13.2002,111.1364 14.9872,110.6994 C15.5252,110.5684 16.0772,110.5014 16.6272,110.5014 C19.8072,110.5014 22.5562,112.6614 23.3132,115.7544 C24.2142,119.4434 21.9462,123.1784 18.2582,124.0794 C17.7202,124.2114 17.1682,124.2784 16.6182,124.2784" id="Fill-13" fill="#F2F2F2"></path>
                <path d="M16.6279,109.5011 C15.9979,109.5011 15.3659,109.5781 14.7499,109.7281 C12.7029,110.2281 10.9749,111.4961 9.8809,113.2961 C8.7879,115.0971 8.4609,117.2161 8.9609,119.2621 C9.8269,122.8051 12.9759,125.2781 16.6179,125.2781 C17.2479,125.2781 17.8799,125.2021 18.4959,125.0511 C22.7209,124.0191 25.3169,119.7421 24.2849,115.5171 C23.4179,111.9751 20.2699,109.5011 16.6279,109.5011 M16.6279,111.5011 C19.2769,111.5011 21.6849,113.3031 22.3419,115.9921 C23.1129,119.1501 21.1799,122.3361 18.0209,123.1091 C17.5509,123.2231 17.0809,123.2781 16.6179,123.2781 C13.9689,123.2781 11.5619,121.4771 10.9039,118.7881 C10.1319,115.6291 12.0659,112.4431 15.2249,111.6711 C15.6939,111.5561 16.1649,111.5011 16.6279,111.5011" id="Fill-15" fill="#0B567F"></path>
                <path d="M144.5,42.8009 C140.758,42.8009 137.523,40.2589 136.634,36.6199 C135.573,32.2809 138.241,27.8869 142.581,26.8259 C143.215,26.6709 143.863,26.5929 144.51,26.5929 C148.252,26.5929 151.486,29.1339 152.376,32.7729 C152.89,34.8749 152.555,37.0519 151.431,38.9019 C150.308,40.7519 148.531,42.0539 146.429,42.5679 C145.795,42.7219 145.146,42.8009 144.5,42.8009" id="Fill-17" fill="#F2F2F2"></path>
                <path d="M144.5098,25.5924 C143.7828,25.5924 143.0548,25.6804 142.3438,25.8544 C137.4678,27.0464 134.4708,31.9824 135.6618,36.8584 C136.6618,40.9464 140.2958,43.8004 144.4988,43.8004 C145.2258,43.8004 145.9548,43.7124 146.6658,43.5384 C149.0278,42.9614 151.0238,41.4994 152.2848,39.4204 C153.5468,37.3424 153.9238,34.8974 153.3478,32.5354 C152.3478,28.4474 148.7138,25.5924 144.5098,25.5924 M144.5098,27.5924 C147.7068,27.5924 150.6118,29.7664 151.4048,33.0104 C152.3358,36.8214 150.0018,40.6644 146.1918,41.5964 C145.6248,41.7344 145.0578,41.8004 144.4988,41.8004 C141.3028,41.8004 138.3988,39.6274 137.6058,36.3834 C136.6738,32.5724 139.0078,28.7284 142.8188,27.7974 C143.3848,27.6584 143.9518,27.5924 144.5098,27.5924" id="Fill-19" fill="#0B567F"></path>
                <path d="M23.5322,94.9855 C11.0972,94.9225 1.0002,84.7865 1.0002,72.3365 C1.0002,61.2725 9.0532,51.8185 19.8712,50.0025 C20.4042,39.2105 29.1902,30.5145 39.9942,30.0955 C39.9492,29.4655 39.9272,28.8385 39.9272,28.2205 C39.9272,13.7625 51.6892,1.9995 66.1472,1.9995 C77.8832,1.9995 88.0852,9.7095 91.3252,20.8805 C93.6412,20.1505 96.0552,19.7805 98.5142,19.7805 C111.6982,19.7805 122.4242,30.5065 122.4242,43.6895 C122.4242,45.7225 122.1682,47.7355 121.6632,49.6895 L129.8302,49.6895 C142.3182,49.6895 152.4772,59.8485 152.4772,72.3365 C152.4772,84.8255 142.3182,94.9855 129.8302,94.9855 L23.5322,94.9855 Z" id="Fill-21" fill="#F2F2F2"></path>
                <g id="Group-25" transform="translate(0.000000, 0.576000)">
                    <mask id="mask-2" fill="white">
                        <use xlink:href="#path-1"></use>
                    </mask>
                    <g id="Clip-24"></g>
                    <path d="M66.1475,0.4236 C51.1375,0.4236 38.9265,12.6346 38.9265,27.6446 C38.9265,27.9556 38.9315,28.2686 38.9435,28.5836 C28.3555,29.4856 19.8355,37.9836 18.9255,48.5846 C8.0255,50.7956 0.0005,60.4756 0.0005,71.7596 C0.0005,84.4266 10.0075,94.7996 22.5325,95.3836 L22.5325,95.3876 L22.6425,95.3886 C22.9765,95.4026 23.3115,95.4096 23.6485,95.4096 C23.7965,95.4096 23.9455,95.4086 24.0935,95.4046 L24.5325,95.4096 L129.8305,95.4096 C142.8695,95.4096 153.4775,84.8006 153.4775,71.7596 C153.4775,58.7206 142.8695,48.1126 129.8305,48.1126 L122.9205,48.1126 C123.2555,46.4736 123.4235,44.8006 123.4235,43.1136 C123.4235,29.3786 112.2505,18.2046 98.5155,18.2046 C96.2935,18.2046 94.1055,18.4946 91.9885,19.0686 C88.3325,7.9896 77.9925,0.4236 66.1475,0.4236 M66.1475,2.4236 C77.9905,2.4236 87.9255,10.5886 90.6355,21.5946 C93.0915,20.6956 95.7465,20.2046 98.5155,20.2046 C111.1685,20.2046 121.4235,30.4616 121.4235,43.1136 C121.4235,45.5556 121.0415,47.9066 120.3345,50.1126 L129.8305,50.1126 C141.7865,50.1126 151.4775,59.8056 151.4775,71.7596 C151.4775,83.7176 141.7865,93.4096 129.8305,93.4096 L24.5325,93.4096 L24.5325,93.3876 C24.2385,93.4026 23.9445,93.4096 23.6485,93.4096 C11.6915,93.4096 2.0005,83.7176 2.0005,71.7596 C2.0005,60.7546 10.2145,51.6666 20.8465,50.2916 C20.9415,39.3486 29.8415,30.5046 40.8095,30.5046 C40.9035,30.5046 40.9965,30.5056 41.0875,30.5066 C40.9835,29.5676 40.9265,28.6126 40.9265,27.6446 C40.9265,13.7166 52.2185,2.4236 66.1475,2.4236" id="Fill-23" fill="#0B567F" mask="url(#mask-2)"></path>
                </g>
                <path d="M357.5449,150.8556 L357.1989,150.8636 L251.9009,150.8636 C239.4129,150.8636 229.2539,140.7026 229.2539,128.2136 C229.2539,115.7256 239.4129,105.5656 251.9009,105.5656 L260.0679,105.5656 C259.5629,103.6116 259.3079,101.5996 259.3079,99.5666 C259.3079,86.3836 270.0329,75.6576 283.2169,75.6576 C285.6759,75.6576 288.0889,76.0276 290.4059,76.7576 C293.6489,65.5866 303.8499,57.8766 315.5839,57.8766 C330.0419,57.8766 341.8049,69.6396 341.8049,84.0976 C341.8049,84.7146 341.7819,85.3426 341.7369,85.9726 C352.5409,86.3916 361.3269,95.0876 361.8599,105.8786 C372.6779,107.6966 380.7319,117.1496 380.7319,128.2136 C380.7319,140.7026 370.5709,150.8636 358.0829,150.8636 C357.9029,150.8636 357.7249,150.8606 357.5449,150.8556" id="Fill-26" fill="#F2F2F2"></path>
                <path d="M315.584,56.8766 C303.74,56.8766 293.4,64.4426 289.742,75.5216 C287.626,74.9476 285.439,74.6576 283.217,74.6576 C269.481,74.6576 258.308,85.8326 258.308,99.5666 C258.308,101.2536 258.477,102.9266 258.811,104.5656 L251.901,104.5656 C238.862,104.5656 228.254,115.1746 228.254,128.2136 C228.254,141.2536 238.862,151.8626 251.901,151.8626 L357.199,151.8626 L359.199,151.8626 L359.199,151.8366 C371.723,151.2526 381.731,140.8796 381.731,128.2136 C381.731,116.9286 373.706,107.2486 362.806,105.0376 C361.897,94.4356 353.377,85.9386 342.789,85.0366 C342.8,84.7216 342.805,84.4086 342.805,84.0976 C342.805,69.0876 330.594,56.8766 315.584,56.8766 M315.584,58.8766 C329.514,58.8766 340.805,70.1696 340.805,84.0976 C340.805,85.0656 340.748,86.0206 340.644,86.9596 C340.735,86.9586 340.828,86.9576 340.922,86.9576 C351.89,86.9576 360.791,95.8016 360.885,106.7446 C371.518,108.1196 379.731,117.2076 379.731,128.2136 C379.731,140.1706 370.04,149.8626 358.083,149.8626 C357.787,149.8626 357.493,149.8556 357.199,149.8406 L357.199,149.8626 L251.901,149.8626 C239.945,149.8626 230.254,140.1706 230.254,128.2136 C230.254,116.2586 239.945,106.5656 251.901,106.5656 L261.397,106.5656 C260.691,104.3596 260.308,102.0086 260.308,99.5666 C260.308,86.9146 270.564,76.6576 283.217,76.6576 C285.985,76.6576 288.64,77.1486 291.096,78.0476 C293.807,67.0416 303.741,58.8766 315.584,58.8766" id="Fill-28" fill="#0B567F"></path>
                <g id="Group-33" transform="translate(40.000000, 122.576000)">
                    <path d="M0.9297,1.5032 L1.1117,19.0172 C1.1737,25.1722 17.3337,30.0022 37.2087,29.7962 C57.0817,29.5942 73.1457,24.4332 73.0797,18.2822 L72.9017,0.7672" id="Fill-30" fill="#F2F2F2"></path>
                    <path d="M0.9297,1.5032 L1.1117,19.0172 C1.1737,25.1722 17.3337,30.0022 37.2087,29.7962 C57.0817,29.5942 73.1457,24.4332 73.0797,18.2822 L72.9017,0.7672" id="Stroke-32" stroke="#0B567F" stroke-width="2" stroke-linecap="round"></path>
                </g>
                <g id="Group-37" transform="translate(40.000000, 118.576000)">
                    <path d="M3.4961,1.3475 C1.8581,2.6425 0.9171,4.0415 0.9301,5.5035 C0.9951,11.6585 17.1581,16.4815 37.0321,16.2805 C56.9041,16.0785 72.9611,10.9265 72.9011,4.7665 C72.8871,3.3875 72.0221,2.0875 70.5321,0.8825" id="Fill-34" fill="#B6C4CE"></path>
                    <path d="M3.4961,1.3475 C1.8581,2.6425 0.9171,4.0415 0.9301,5.5035 C0.9951,11.6585 17.1581,16.4815 37.0321,16.2805 C56.9041,16.0785 72.9611,10.9265 72.9011,4.7665 C72.8871,3.3875 72.0221,2.0875 70.5321,0.8825" id="Stroke-36" stroke="#0B567F" stroke-width="2" stroke-linecap="round" stroke-linejoin="round"></path>
                </g>
                <g id="Group-41" transform="translate(40.000000, 96.576000)">
                    <path d="M0.6621,1.1424 L0.8411,18.6564 C0.9051,24.8084 17.0611,29.6394 36.9371,29.4364 C56.8121,29.2284 72.8751,24.0774 72.8111,17.9184 L72.6291,0.4084" id="Fill-38" fill="#F2F2F2"></path>
                    <path d="M0.6621,1.1424 L0.8411,18.6564 C0.9051,24.8084 17.0611,29.6394 36.9371,29.4364 C56.8121,29.2284 72.8751,24.0774 72.8111,17.9184 L72.6291,0.4084" id="Stroke-40" stroke="#0B567F" stroke-width="2" stroke-linecap="round"></path>
                </g>
                <g id="Group-45" transform="translate(40.000000, 92.576000)">
                    <path d="M3.2266,0.9847 C1.5886,2.2827 0.6456,3.6767 0.6626,5.1427 C0.7246,11.2957 16.8876,16.1217 36.7606,15.9177 C56.6356,15.7167 72.6936,10.5627 72.6286,4.4077 C72.6166,3.0247 71.7526,1.7247 70.2646,0.5197" id="Fill-42" fill="#B6C4CE"></path>
                    <path d="M3.2266,0.9847 C1.5886,2.2827 0.6456,3.6767 0.6626,5.1427 C0.7246,11.2957 16.8876,16.1217 36.7606,15.9177 C56.6356,15.7167 72.6936,10.5627 72.6286,4.4077 C72.6166,3.0247 71.7526,1.7247 70.2646,0.5197" id="Stroke-44" stroke="#0B567F" stroke-width="2" stroke-linecap="round" stroke-linejoin="round"></path>
                </g>
                <g id="Group-49" transform="translate(40.000000, 70.576000)">
                    <path d="M0.3975,1.3089 L0.5755,18.8209 C0.6405,24.9759 16.8005,29.8079 36.6725,29.5989 C56.5495,29.3939 72.6065,24.2409 72.5435,18.0879 L72.3685,0.5719" id="Fill-46" fill="#F2F2F2"></path>
                    <path d="M0.3975,1.3089 L0.5755,18.8209 C0.6405,24.9759 16.8005,29.8079 36.6725,29.5989 C56.5495,29.3939 72.6065,24.2409 72.5435,18.0879 L72.3685,0.5719" id="Stroke-48" stroke="#0B567F" stroke-width="2" stroke-linecap="round"></path>
                </g>
                <path d="M75.2939,83.6671 C57.9489,83.6671 39.4739,79.5421 39.3979,71.8951 C39.3599,68.3921 43.2179,65.2961 50.5509,62.9421 C57.4199,60.7371 66.5489,59.4691 76.2579,59.3711 C76.6619,59.3671 77.0659,59.3651 77.4679,59.3651 C94.8109,59.3651 113.2869,63.4911 113.3679,71.1371 C113.4029,74.6391 109.5469,77.7341 102.2139,80.0881 C95.3439,82.2931 86.2129,83.5631 76.5039,83.6611 C76.0999,83.6651 75.6949,83.6671 75.2939,83.6671" id="Fill-50" fill="#B6C4CE"></path>
                <path d="M77.4688,58.3654 C77.0638,58.3654 76.6558,58.3674 76.2468,58.3714 C66.4418,58.4704 57.2068,59.7554 50.2448,61.9904 C42.4528,64.4914 38.3568,67.9204 38.3978,71.9054 C38.4818,80.2834 57.0218,84.6674 75.2928,84.6674 C75.6978,84.6674 76.1068,84.6654 76.5148,84.6604 C86.3208,84.5614 95.5568,83.2754 102.5198,81.0404 C110.3118,78.5384 114.4078,75.1114 114.3678,71.1274 C114.2798,62.7484 95.7388,58.3654 77.4688,58.3654 M77.4688,60.3654 C96.7888,60.3654 112.3048,65.1194 112.3678,71.1484 C112.4308,77.2994 96.3708,82.4594 76.4938,82.6614 C76.0928,82.6654 75.6918,82.6674 75.2928,82.6674 C55.9758,82.6674 40.4578,77.9144 40.3978,71.8844 C40.3338,65.7294 56.3948,60.5714 76.2678,60.3714 C76.6688,60.3674 77.0708,60.3654 77.4688,60.3654" id="Fill-52" fill="#0B567F"></path>
                <g id="Group-57" transform="translate(271.000000, 174.576000)">
                    <path d="M0.6855,1.701 L0.8675,19.214 C0.9295,25.37 17.0895,30.2 36.9645,29.993 C56.8385,29.792 72.9015,24.63 72.8355,18.48 L72.6575,0.964" id="Fill-54" fill="#F2F2F2"></path>
                    <path d="M0.6855,1.701 L0.8675,19.214 C0.9295,25.37 17.0895,30.2 36.9645,29.993 C56.8385,29.792 72.9015,24.63 72.8355,18.48 L72.6575,0.964" id="Stroke-56" stroke="#0B567F" stroke-width="2" stroke-linecap="round"></path>
                </g>
                <g id="Group-61" transform="translate(271.000000, 171.576000)">
                    <path d="M3.252,0.5452 C1.614,1.8392 0.673,3.2392 0.686,4.7012 C0.751,10.8552 16.914,15.6792 36.788,15.4772 C56.66,15.2752 72.717,10.1242 72.657,3.9642 C72.643,2.5852 71.778,1.2852 70.288,0.0802" id="Fill-58" fill="#B6C4CE"></path>
                    <path d="M3.252,0.5452 C1.614,1.8392 0.673,3.2392 0.686,4.7012 C0.751,10.8552 16.914,15.6792 36.788,15.4772 C56.66,15.2752 72.717,10.1242 72.657,3.9642 C72.643,2.5852 71.778,1.2852 70.288,0.0802" id="Stroke-60" stroke="#0B567F" stroke-width="2" stroke-linecap="round" stroke-linejoin="round"></path>
                </g>
                <g id="Group-65" transform="translate(271.000000, 148.576000)">
                    <path d="M0.418,1.3396 L0.597,18.8546 C0.662,25.0056 16.818,29.8366 36.693,29.6336 C56.568,29.4256 72.631,24.2746 72.567,18.1156 L72.385,0.6056" id="Fill-62" fill="#F2F2F2"></path>
                    <path d="M0.418,1.3396 L0.597,18.8546 C0.662,25.0056 16.818,29.8366 36.693,29.6336 C56.568,29.4256 72.631,24.2746 72.567,18.1156 L72.385,0.6056" id="Stroke-64" stroke="#0B567F" stroke-width="2" stroke-linecap="round"></path>
                </g>
                <g id="Group-69" transform="translate(271.000000, 144.576000)">
                    <path d="M2.9824,1.1824 C1.3444,2.4794 0.4014,3.8744 0.4184,5.3394 C0.4804,11.4924 16.6444,16.3194 36.5164,16.1144 C56.3914,15.9144 72.4504,10.7604 72.3844,4.6054 C72.3724,3.2224 71.5084,1.9224 70.0204,0.7174" id="Fill-66" fill="#B6C4CE"></path>
                    <path d="M2.9824,1.1824 C1.3444,2.4794 0.4014,3.8744 0.4184,5.3394 C0.4804,11.4924 16.6444,16.3194 36.5164,16.1144 C56.3914,15.9144 72.4504,10.7604 72.3844,4.6054 C72.3724,3.2224 71.5084,1.9224 70.0204,0.7174" id="Stroke-68" stroke="#0B567F" stroke-width="2" stroke-linecap="round" stroke-linejoin="round"></path>
                </g>
                <g id="Group-73" transform="translate(271.000000, 122.576000)">
                    <path d="M0.1533,1.5061 L0.3313,19.0181 C0.3963,25.1731 16.5563,30.0051 36.4283,29.7961 C56.3053,29.5911 72.3623,24.4381 72.2993,18.2851 L72.1243,0.7691" id="Fill-70" fill="#F2F2F2"></path>
                    <path d="M0.1533,1.5061 L0.3313,19.0181 C0.3963,25.1731 16.5563,30.0051 36.4283,29.7961 C56.3053,29.5911 72.3623,24.4381 72.2993,18.2851 L72.1243,0.7691" id="Stroke-72" stroke="#0B567F" stroke-width="2" stroke-linecap="round"></path>
                </g>
                <path d="M306.0469,135.8649 C288.7039,135.8649 270.2319,131.7389 270.1529,124.0929 C270.1169,120.5899 273.9739,117.4939 281.3069,115.1399 C288.1759,112.9349 297.3049,111.6669 307.0139,111.5689 C307.4179,111.5649 307.8219,111.5629 308.2239,111.5629 C325.5679,111.5629 344.0439,115.6889 344.1239,123.3349 C344.1589,126.8369 340.3029,129.9309 332.9699,132.2859 C326.0999,134.4909 316.9689,135.7609 307.2599,135.8589 C306.8559,135.8629 306.4479,135.8649 306.0469,135.8649" id="Fill-74" fill="#B6C4CE"></path>
                <path d="M308.2256,110.5626 L308.2246,110.5626 C307.8196,110.5626 307.4116,110.5646 307.0026,110.5686 C297.1976,110.6676 287.9626,111.9526 281.0006,114.1876 C273.2086,116.6886 269.1126,120.1176 269.1546,124.1036 C269.2376,132.4806 287.7786,136.8646 306.0496,136.8646 C306.4546,136.8646 306.8626,136.8626 307.2706,136.8586 C317.0776,136.7596 326.3126,135.4736 333.2756,133.2376 C341.0676,130.7356 345.1636,127.3086 345.1236,123.3256 C345.0356,114.9466 326.4946,110.5626 308.2256,110.5626 M308.2246,112.5626 C327.5446,112.5626 343.0606,117.3166 343.1236,123.3456 C343.1866,129.4966 327.1266,134.6566 307.2496,134.8586 C306.8486,134.8626 306.4486,134.8646 306.0496,134.8646 C286.7326,134.8646 271.2136,130.1116 271.1546,124.0826 C271.0896,117.9266 287.1506,112.7696 307.0236,112.5686 C307.4246,112.5646 307.8266,112.5626 308.2246,112.5626" id="Fill-76" fill="#0B567F"></path>
            </g>
        </g>
    </g>
</svg>