<?xml version="1.0" encoding="UTF-8" standalone="no"?>
<svg width="54px" height="54px" viewBox="0 0 54 54" version="1.1" xmlns="http://www.w3.org/2000/svg" xmlns:xlink="http://www.w3.org/1999/xlink">
    <!-- Generator: Sketch 50.2 (55047) - http://www.bohemiancoding.com/sketch -->
    <title>Group 4</title>
    <desc>Created with Sketch.</desc>
    <defs></defs>
    <g id="Page-1" stroke="none" stroke-width="1" fill="none" fill-rule="evenodd">
        <g id="security" transform="translate(-1360.000000, -3387.000000)">
            <g id="Group-4" transform="translate(1360.000000, 3387.000000)">
                <circle id="Oval-3" fill="#FFFFFF" cx="27.5" cy="29.5" r="18.5"></circle>
                <path d="M40.415,33.2526158 C39.659,34.0086298 38.343,34.0086298 37.587,33.2526158 L27.001,22.6674198 L16.415,33.2526158 C16.038,33.6306228 15.535,33.8396267 15.001,33.8396267 C14.467,33.8396267 13.964,33.6306228 13.586,33.2526158 C13.209,32.8756088 13,32.3725995 13,31.8385896 C13,31.3055797 13.208,30.8035704 13.586,30.4245634 L25.085,18.9273505 C26.106,17.9043316 27.895,17.9043316 28.917,18.9273505 L40.415,30.4245634 C41.194,31.2055779 41.194,32.4746014 40.415,33.2526158 M27,0 C12.112,0 0,12.1112243 0,26.9995 C0,41.8887757 12.112,54 27,54 C41.888,54 54,41.8887757 54,26.9995 C54,12.1112243 41.888,0 27,0" id="Fill-1" fill="#F7941D"></path>
            </g>
        </g>
    </g>
</svg>